G04 #@! TF.GenerationSoftware,KiCad,Pcbnew,5.1.4-e60b266~84~ubuntu18.04.1*
G04 #@! TF.CreationDate,2019-11-17T20:01:52-07:00*
G04 #@! TF.ProjectId,cob_5x5_lowpower,636f625f-3578-4355-9f6c-6f77706f7765,rev?*
G04 #@! TF.SameCoordinates,Original*
G04 #@! TF.FileFunction,Paste,Top*
G04 #@! TF.FilePolarity,Positive*
%FSLAX46Y46*%
G04 Gerber Fmt 4.6, Leading zero omitted, Abs format (unit mm)*
G04 Created by KiCad (PCBNEW 5.1.4-e60b266~84~ubuntu18.04.1) date 2019-11-17 20:01:52*
%MOMM*%
%LPD*%
G04 APERTURE LIST*
%ADD10R,3.100000X1.200000*%
%ADD11C,5.700000*%
%ADD12C,0.100000*%
%ADD13C,0.650000*%
%ADD14C,0.875000*%
%ADD15C,1.250000*%
%ADD16R,0.450000X0.400000*%
%ADD17R,0.450000X0.500000*%
%ADD18C,0.975000*%
G04 APERTURE END LIST*
D10*
X108780000Y-116700000D03*
X108780000Y-115000000D03*
X108780000Y-113300000D03*
D11*
X115000000Y-115000000D03*
D10*
X121220000Y-113300000D03*
X121220000Y-115000000D03*
X121220000Y-116700000D03*
D12*
G36*
X126803428Y-126580782D02*
G01*
X126819202Y-126583122D01*
X126834671Y-126586997D01*
X126849686Y-126592370D01*
X126864102Y-126599188D01*
X126877780Y-126607386D01*
X126890589Y-126616886D01*
X126902405Y-126627595D01*
X126913114Y-126639411D01*
X126922614Y-126652220D01*
X126930812Y-126665898D01*
X126937630Y-126680314D01*
X126943003Y-126695329D01*
X126946878Y-126710798D01*
X126949218Y-126726572D01*
X126950000Y-126742500D01*
X126950000Y-127067500D01*
X126949218Y-127083428D01*
X126946878Y-127099202D01*
X126943003Y-127114671D01*
X126937630Y-127129686D01*
X126930812Y-127144102D01*
X126922614Y-127157780D01*
X126913114Y-127170589D01*
X126902405Y-127182405D01*
X126890589Y-127193114D01*
X126877780Y-127202614D01*
X126864102Y-127210812D01*
X126849686Y-127217630D01*
X126834671Y-127223003D01*
X126819202Y-127226878D01*
X126803428Y-127229218D01*
X126787500Y-127230000D01*
X125137500Y-127230000D01*
X125121572Y-127229218D01*
X125105798Y-127226878D01*
X125090329Y-127223003D01*
X125075314Y-127217630D01*
X125060898Y-127210812D01*
X125047220Y-127202614D01*
X125034411Y-127193114D01*
X125022595Y-127182405D01*
X125011886Y-127170589D01*
X125002386Y-127157780D01*
X124994188Y-127144102D01*
X124987370Y-127129686D01*
X124981997Y-127114671D01*
X124978122Y-127099202D01*
X124975782Y-127083428D01*
X124975000Y-127067500D01*
X124975000Y-126742500D01*
X124975782Y-126726572D01*
X124978122Y-126710798D01*
X124981997Y-126695329D01*
X124987370Y-126680314D01*
X124994188Y-126665898D01*
X125002386Y-126652220D01*
X125011886Y-126639411D01*
X125022595Y-126627595D01*
X125034411Y-126616886D01*
X125047220Y-126607386D01*
X125060898Y-126599188D01*
X125075314Y-126592370D01*
X125090329Y-126586997D01*
X125105798Y-126583122D01*
X125121572Y-126580782D01*
X125137500Y-126580000D01*
X126787500Y-126580000D01*
X126803428Y-126580782D01*
X126803428Y-126580782D01*
G37*
D13*
X125962500Y-126905000D03*
D12*
G36*
X126803428Y-125310782D02*
G01*
X126819202Y-125313122D01*
X126834671Y-125316997D01*
X126849686Y-125322370D01*
X126864102Y-125329188D01*
X126877780Y-125337386D01*
X126890589Y-125346886D01*
X126902405Y-125357595D01*
X126913114Y-125369411D01*
X126922614Y-125382220D01*
X126930812Y-125395898D01*
X126937630Y-125410314D01*
X126943003Y-125425329D01*
X126946878Y-125440798D01*
X126949218Y-125456572D01*
X126950000Y-125472500D01*
X126950000Y-125797500D01*
X126949218Y-125813428D01*
X126946878Y-125829202D01*
X126943003Y-125844671D01*
X126937630Y-125859686D01*
X126930812Y-125874102D01*
X126922614Y-125887780D01*
X126913114Y-125900589D01*
X126902405Y-125912405D01*
X126890589Y-125923114D01*
X126877780Y-125932614D01*
X126864102Y-125940812D01*
X126849686Y-125947630D01*
X126834671Y-125953003D01*
X126819202Y-125956878D01*
X126803428Y-125959218D01*
X126787500Y-125960000D01*
X125137500Y-125960000D01*
X125121572Y-125959218D01*
X125105798Y-125956878D01*
X125090329Y-125953003D01*
X125075314Y-125947630D01*
X125060898Y-125940812D01*
X125047220Y-125932614D01*
X125034411Y-125923114D01*
X125022595Y-125912405D01*
X125011886Y-125900589D01*
X125002386Y-125887780D01*
X124994188Y-125874102D01*
X124987370Y-125859686D01*
X124981997Y-125844671D01*
X124978122Y-125829202D01*
X124975782Y-125813428D01*
X124975000Y-125797500D01*
X124975000Y-125472500D01*
X124975782Y-125456572D01*
X124978122Y-125440798D01*
X124981997Y-125425329D01*
X124987370Y-125410314D01*
X124994188Y-125395898D01*
X125002386Y-125382220D01*
X125011886Y-125369411D01*
X125022595Y-125357595D01*
X125034411Y-125346886D01*
X125047220Y-125337386D01*
X125060898Y-125329188D01*
X125075314Y-125322370D01*
X125090329Y-125316997D01*
X125105798Y-125313122D01*
X125121572Y-125310782D01*
X125137500Y-125310000D01*
X126787500Y-125310000D01*
X126803428Y-125310782D01*
X126803428Y-125310782D01*
G37*
D13*
X125962500Y-125635000D03*
D12*
G36*
X126803428Y-124040782D02*
G01*
X126819202Y-124043122D01*
X126834671Y-124046997D01*
X126849686Y-124052370D01*
X126864102Y-124059188D01*
X126877780Y-124067386D01*
X126890589Y-124076886D01*
X126902405Y-124087595D01*
X126913114Y-124099411D01*
X126922614Y-124112220D01*
X126930812Y-124125898D01*
X126937630Y-124140314D01*
X126943003Y-124155329D01*
X126946878Y-124170798D01*
X126949218Y-124186572D01*
X126950000Y-124202500D01*
X126950000Y-124527500D01*
X126949218Y-124543428D01*
X126946878Y-124559202D01*
X126943003Y-124574671D01*
X126937630Y-124589686D01*
X126930812Y-124604102D01*
X126922614Y-124617780D01*
X126913114Y-124630589D01*
X126902405Y-124642405D01*
X126890589Y-124653114D01*
X126877780Y-124662614D01*
X126864102Y-124670812D01*
X126849686Y-124677630D01*
X126834671Y-124683003D01*
X126819202Y-124686878D01*
X126803428Y-124689218D01*
X126787500Y-124690000D01*
X125137500Y-124690000D01*
X125121572Y-124689218D01*
X125105798Y-124686878D01*
X125090329Y-124683003D01*
X125075314Y-124677630D01*
X125060898Y-124670812D01*
X125047220Y-124662614D01*
X125034411Y-124653114D01*
X125022595Y-124642405D01*
X125011886Y-124630589D01*
X125002386Y-124617780D01*
X124994188Y-124604102D01*
X124987370Y-124589686D01*
X124981997Y-124574671D01*
X124978122Y-124559202D01*
X124975782Y-124543428D01*
X124975000Y-124527500D01*
X124975000Y-124202500D01*
X124975782Y-124186572D01*
X124978122Y-124170798D01*
X124981997Y-124155329D01*
X124987370Y-124140314D01*
X124994188Y-124125898D01*
X125002386Y-124112220D01*
X125011886Y-124099411D01*
X125022595Y-124087595D01*
X125034411Y-124076886D01*
X125047220Y-124067386D01*
X125060898Y-124059188D01*
X125075314Y-124052370D01*
X125090329Y-124046997D01*
X125105798Y-124043122D01*
X125121572Y-124040782D01*
X125137500Y-124040000D01*
X126787500Y-124040000D01*
X126803428Y-124040782D01*
X126803428Y-124040782D01*
G37*
D13*
X125962500Y-124365000D03*
D12*
G36*
X126803428Y-122770782D02*
G01*
X126819202Y-122773122D01*
X126834671Y-122776997D01*
X126849686Y-122782370D01*
X126864102Y-122789188D01*
X126877780Y-122797386D01*
X126890589Y-122806886D01*
X126902405Y-122817595D01*
X126913114Y-122829411D01*
X126922614Y-122842220D01*
X126930812Y-122855898D01*
X126937630Y-122870314D01*
X126943003Y-122885329D01*
X126946878Y-122900798D01*
X126949218Y-122916572D01*
X126950000Y-122932500D01*
X126950000Y-123257500D01*
X126949218Y-123273428D01*
X126946878Y-123289202D01*
X126943003Y-123304671D01*
X126937630Y-123319686D01*
X126930812Y-123334102D01*
X126922614Y-123347780D01*
X126913114Y-123360589D01*
X126902405Y-123372405D01*
X126890589Y-123383114D01*
X126877780Y-123392614D01*
X126864102Y-123400812D01*
X126849686Y-123407630D01*
X126834671Y-123413003D01*
X126819202Y-123416878D01*
X126803428Y-123419218D01*
X126787500Y-123420000D01*
X125137500Y-123420000D01*
X125121572Y-123419218D01*
X125105798Y-123416878D01*
X125090329Y-123413003D01*
X125075314Y-123407630D01*
X125060898Y-123400812D01*
X125047220Y-123392614D01*
X125034411Y-123383114D01*
X125022595Y-123372405D01*
X125011886Y-123360589D01*
X125002386Y-123347780D01*
X124994188Y-123334102D01*
X124987370Y-123319686D01*
X124981997Y-123304671D01*
X124978122Y-123289202D01*
X124975782Y-123273428D01*
X124975000Y-123257500D01*
X124975000Y-122932500D01*
X124975782Y-122916572D01*
X124978122Y-122900798D01*
X124981997Y-122885329D01*
X124987370Y-122870314D01*
X124994188Y-122855898D01*
X125002386Y-122842220D01*
X125011886Y-122829411D01*
X125022595Y-122817595D01*
X125034411Y-122806886D01*
X125047220Y-122797386D01*
X125060898Y-122789188D01*
X125075314Y-122782370D01*
X125090329Y-122776997D01*
X125105798Y-122773122D01*
X125121572Y-122770782D01*
X125137500Y-122770000D01*
X126787500Y-122770000D01*
X126803428Y-122770782D01*
X126803428Y-122770782D01*
G37*
D13*
X125962500Y-123095000D03*
D12*
G36*
X131878428Y-122770782D02*
G01*
X131894202Y-122773122D01*
X131909671Y-122776997D01*
X131924686Y-122782370D01*
X131939102Y-122789188D01*
X131952780Y-122797386D01*
X131965589Y-122806886D01*
X131977405Y-122817595D01*
X131988114Y-122829411D01*
X131997614Y-122842220D01*
X132005812Y-122855898D01*
X132012630Y-122870314D01*
X132018003Y-122885329D01*
X132021878Y-122900798D01*
X132024218Y-122916572D01*
X132025000Y-122932500D01*
X132025000Y-123257500D01*
X132024218Y-123273428D01*
X132021878Y-123289202D01*
X132018003Y-123304671D01*
X132012630Y-123319686D01*
X132005812Y-123334102D01*
X131997614Y-123347780D01*
X131988114Y-123360589D01*
X131977405Y-123372405D01*
X131965589Y-123383114D01*
X131952780Y-123392614D01*
X131939102Y-123400812D01*
X131924686Y-123407630D01*
X131909671Y-123413003D01*
X131894202Y-123416878D01*
X131878428Y-123419218D01*
X131862500Y-123420000D01*
X130212500Y-123420000D01*
X130196572Y-123419218D01*
X130180798Y-123416878D01*
X130165329Y-123413003D01*
X130150314Y-123407630D01*
X130135898Y-123400812D01*
X130122220Y-123392614D01*
X130109411Y-123383114D01*
X130097595Y-123372405D01*
X130086886Y-123360589D01*
X130077386Y-123347780D01*
X130069188Y-123334102D01*
X130062370Y-123319686D01*
X130056997Y-123304671D01*
X130053122Y-123289202D01*
X130050782Y-123273428D01*
X130050000Y-123257500D01*
X130050000Y-122932500D01*
X130050782Y-122916572D01*
X130053122Y-122900798D01*
X130056997Y-122885329D01*
X130062370Y-122870314D01*
X130069188Y-122855898D01*
X130077386Y-122842220D01*
X130086886Y-122829411D01*
X130097595Y-122817595D01*
X130109411Y-122806886D01*
X130122220Y-122797386D01*
X130135898Y-122789188D01*
X130150314Y-122782370D01*
X130165329Y-122776997D01*
X130180798Y-122773122D01*
X130196572Y-122770782D01*
X130212500Y-122770000D01*
X131862500Y-122770000D01*
X131878428Y-122770782D01*
X131878428Y-122770782D01*
G37*
D13*
X131037500Y-123095000D03*
D12*
G36*
X131878428Y-124040782D02*
G01*
X131894202Y-124043122D01*
X131909671Y-124046997D01*
X131924686Y-124052370D01*
X131939102Y-124059188D01*
X131952780Y-124067386D01*
X131965589Y-124076886D01*
X131977405Y-124087595D01*
X131988114Y-124099411D01*
X131997614Y-124112220D01*
X132005812Y-124125898D01*
X132012630Y-124140314D01*
X132018003Y-124155329D01*
X132021878Y-124170798D01*
X132024218Y-124186572D01*
X132025000Y-124202500D01*
X132025000Y-124527500D01*
X132024218Y-124543428D01*
X132021878Y-124559202D01*
X132018003Y-124574671D01*
X132012630Y-124589686D01*
X132005812Y-124604102D01*
X131997614Y-124617780D01*
X131988114Y-124630589D01*
X131977405Y-124642405D01*
X131965589Y-124653114D01*
X131952780Y-124662614D01*
X131939102Y-124670812D01*
X131924686Y-124677630D01*
X131909671Y-124683003D01*
X131894202Y-124686878D01*
X131878428Y-124689218D01*
X131862500Y-124690000D01*
X130212500Y-124690000D01*
X130196572Y-124689218D01*
X130180798Y-124686878D01*
X130165329Y-124683003D01*
X130150314Y-124677630D01*
X130135898Y-124670812D01*
X130122220Y-124662614D01*
X130109411Y-124653114D01*
X130097595Y-124642405D01*
X130086886Y-124630589D01*
X130077386Y-124617780D01*
X130069188Y-124604102D01*
X130062370Y-124589686D01*
X130056997Y-124574671D01*
X130053122Y-124559202D01*
X130050782Y-124543428D01*
X130050000Y-124527500D01*
X130050000Y-124202500D01*
X130050782Y-124186572D01*
X130053122Y-124170798D01*
X130056997Y-124155329D01*
X130062370Y-124140314D01*
X130069188Y-124125898D01*
X130077386Y-124112220D01*
X130086886Y-124099411D01*
X130097595Y-124087595D01*
X130109411Y-124076886D01*
X130122220Y-124067386D01*
X130135898Y-124059188D01*
X130150314Y-124052370D01*
X130165329Y-124046997D01*
X130180798Y-124043122D01*
X130196572Y-124040782D01*
X130212500Y-124040000D01*
X131862500Y-124040000D01*
X131878428Y-124040782D01*
X131878428Y-124040782D01*
G37*
D13*
X131037500Y-124365000D03*
D12*
G36*
X131878428Y-125310782D02*
G01*
X131894202Y-125313122D01*
X131909671Y-125316997D01*
X131924686Y-125322370D01*
X131939102Y-125329188D01*
X131952780Y-125337386D01*
X131965589Y-125346886D01*
X131977405Y-125357595D01*
X131988114Y-125369411D01*
X131997614Y-125382220D01*
X132005812Y-125395898D01*
X132012630Y-125410314D01*
X132018003Y-125425329D01*
X132021878Y-125440798D01*
X132024218Y-125456572D01*
X132025000Y-125472500D01*
X132025000Y-125797500D01*
X132024218Y-125813428D01*
X132021878Y-125829202D01*
X132018003Y-125844671D01*
X132012630Y-125859686D01*
X132005812Y-125874102D01*
X131997614Y-125887780D01*
X131988114Y-125900589D01*
X131977405Y-125912405D01*
X131965589Y-125923114D01*
X131952780Y-125932614D01*
X131939102Y-125940812D01*
X131924686Y-125947630D01*
X131909671Y-125953003D01*
X131894202Y-125956878D01*
X131878428Y-125959218D01*
X131862500Y-125960000D01*
X130212500Y-125960000D01*
X130196572Y-125959218D01*
X130180798Y-125956878D01*
X130165329Y-125953003D01*
X130150314Y-125947630D01*
X130135898Y-125940812D01*
X130122220Y-125932614D01*
X130109411Y-125923114D01*
X130097595Y-125912405D01*
X130086886Y-125900589D01*
X130077386Y-125887780D01*
X130069188Y-125874102D01*
X130062370Y-125859686D01*
X130056997Y-125844671D01*
X130053122Y-125829202D01*
X130050782Y-125813428D01*
X130050000Y-125797500D01*
X130050000Y-125472500D01*
X130050782Y-125456572D01*
X130053122Y-125440798D01*
X130056997Y-125425329D01*
X130062370Y-125410314D01*
X130069188Y-125395898D01*
X130077386Y-125382220D01*
X130086886Y-125369411D01*
X130097595Y-125357595D01*
X130109411Y-125346886D01*
X130122220Y-125337386D01*
X130135898Y-125329188D01*
X130150314Y-125322370D01*
X130165329Y-125316997D01*
X130180798Y-125313122D01*
X130196572Y-125310782D01*
X130212500Y-125310000D01*
X131862500Y-125310000D01*
X131878428Y-125310782D01*
X131878428Y-125310782D01*
G37*
D13*
X131037500Y-125635000D03*
D12*
G36*
X131878428Y-126580782D02*
G01*
X131894202Y-126583122D01*
X131909671Y-126586997D01*
X131924686Y-126592370D01*
X131939102Y-126599188D01*
X131952780Y-126607386D01*
X131965589Y-126616886D01*
X131977405Y-126627595D01*
X131988114Y-126639411D01*
X131997614Y-126652220D01*
X132005812Y-126665898D01*
X132012630Y-126680314D01*
X132018003Y-126695329D01*
X132021878Y-126710798D01*
X132024218Y-126726572D01*
X132025000Y-126742500D01*
X132025000Y-127067500D01*
X132024218Y-127083428D01*
X132021878Y-127099202D01*
X132018003Y-127114671D01*
X132012630Y-127129686D01*
X132005812Y-127144102D01*
X131997614Y-127157780D01*
X131988114Y-127170589D01*
X131977405Y-127182405D01*
X131965589Y-127193114D01*
X131952780Y-127202614D01*
X131939102Y-127210812D01*
X131924686Y-127217630D01*
X131909671Y-127223003D01*
X131894202Y-127226878D01*
X131878428Y-127229218D01*
X131862500Y-127230000D01*
X130212500Y-127230000D01*
X130196572Y-127229218D01*
X130180798Y-127226878D01*
X130165329Y-127223003D01*
X130150314Y-127217630D01*
X130135898Y-127210812D01*
X130122220Y-127202614D01*
X130109411Y-127193114D01*
X130097595Y-127182405D01*
X130086886Y-127170589D01*
X130077386Y-127157780D01*
X130069188Y-127144102D01*
X130062370Y-127129686D01*
X130056997Y-127114671D01*
X130053122Y-127099202D01*
X130050782Y-127083428D01*
X130050000Y-127067500D01*
X130050000Y-126742500D01*
X130050782Y-126726572D01*
X130053122Y-126710798D01*
X130056997Y-126695329D01*
X130062370Y-126680314D01*
X130069188Y-126665898D01*
X130077386Y-126652220D01*
X130086886Y-126639411D01*
X130097595Y-126627595D01*
X130109411Y-126616886D01*
X130122220Y-126607386D01*
X130135898Y-126599188D01*
X130150314Y-126592370D01*
X130165329Y-126586997D01*
X130180798Y-126583122D01*
X130196572Y-126580782D01*
X130212500Y-126580000D01*
X131862500Y-126580000D01*
X131878428Y-126580782D01*
X131878428Y-126580782D01*
G37*
D13*
X131037500Y-126905000D03*
D12*
G36*
X133277691Y-118776053D02*
G01*
X133298926Y-118779203D01*
X133319750Y-118784419D01*
X133339962Y-118791651D01*
X133359368Y-118800830D01*
X133377781Y-118811866D01*
X133395024Y-118824654D01*
X133410930Y-118839070D01*
X133425346Y-118854976D01*
X133438134Y-118872219D01*
X133449170Y-118890632D01*
X133458349Y-118910038D01*
X133465581Y-118930250D01*
X133470797Y-118951074D01*
X133473947Y-118972309D01*
X133475000Y-118993750D01*
X133475000Y-119431250D01*
X133473947Y-119452691D01*
X133470797Y-119473926D01*
X133465581Y-119494750D01*
X133458349Y-119514962D01*
X133449170Y-119534368D01*
X133438134Y-119552781D01*
X133425346Y-119570024D01*
X133410930Y-119585930D01*
X133395024Y-119600346D01*
X133377781Y-119613134D01*
X133359368Y-119624170D01*
X133339962Y-119633349D01*
X133319750Y-119640581D01*
X133298926Y-119645797D01*
X133277691Y-119648947D01*
X133256250Y-119650000D01*
X132743750Y-119650000D01*
X132722309Y-119648947D01*
X132701074Y-119645797D01*
X132680250Y-119640581D01*
X132660038Y-119633349D01*
X132640632Y-119624170D01*
X132622219Y-119613134D01*
X132604976Y-119600346D01*
X132589070Y-119585930D01*
X132574654Y-119570024D01*
X132561866Y-119552781D01*
X132550830Y-119534368D01*
X132541651Y-119514962D01*
X132534419Y-119494750D01*
X132529203Y-119473926D01*
X132526053Y-119452691D01*
X132525000Y-119431250D01*
X132525000Y-118993750D01*
X132526053Y-118972309D01*
X132529203Y-118951074D01*
X132534419Y-118930250D01*
X132541651Y-118910038D01*
X132550830Y-118890632D01*
X132561866Y-118872219D01*
X132574654Y-118854976D01*
X132589070Y-118839070D01*
X132604976Y-118824654D01*
X132622219Y-118811866D01*
X132640632Y-118800830D01*
X132660038Y-118791651D01*
X132680250Y-118784419D01*
X132701074Y-118779203D01*
X132722309Y-118776053D01*
X132743750Y-118775000D01*
X133256250Y-118775000D01*
X133277691Y-118776053D01*
X133277691Y-118776053D01*
G37*
D14*
X133000000Y-119212500D03*
D12*
G36*
X133277691Y-120351053D02*
G01*
X133298926Y-120354203D01*
X133319750Y-120359419D01*
X133339962Y-120366651D01*
X133359368Y-120375830D01*
X133377781Y-120386866D01*
X133395024Y-120399654D01*
X133410930Y-120414070D01*
X133425346Y-120429976D01*
X133438134Y-120447219D01*
X133449170Y-120465632D01*
X133458349Y-120485038D01*
X133465581Y-120505250D01*
X133470797Y-120526074D01*
X133473947Y-120547309D01*
X133475000Y-120568750D01*
X133475000Y-121006250D01*
X133473947Y-121027691D01*
X133470797Y-121048926D01*
X133465581Y-121069750D01*
X133458349Y-121089962D01*
X133449170Y-121109368D01*
X133438134Y-121127781D01*
X133425346Y-121145024D01*
X133410930Y-121160930D01*
X133395024Y-121175346D01*
X133377781Y-121188134D01*
X133359368Y-121199170D01*
X133339962Y-121208349D01*
X133319750Y-121215581D01*
X133298926Y-121220797D01*
X133277691Y-121223947D01*
X133256250Y-121225000D01*
X132743750Y-121225000D01*
X132722309Y-121223947D01*
X132701074Y-121220797D01*
X132680250Y-121215581D01*
X132660038Y-121208349D01*
X132640632Y-121199170D01*
X132622219Y-121188134D01*
X132604976Y-121175346D01*
X132589070Y-121160930D01*
X132574654Y-121145024D01*
X132561866Y-121127781D01*
X132550830Y-121109368D01*
X132541651Y-121089962D01*
X132534419Y-121069750D01*
X132529203Y-121048926D01*
X132526053Y-121027691D01*
X132525000Y-121006250D01*
X132525000Y-120568750D01*
X132526053Y-120547309D01*
X132529203Y-120526074D01*
X132534419Y-120505250D01*
X132541651Y-120485038D01*
X132550830Y-120465632D01*
X132561866Y-120447219D01*
X132574654Y-120429976D01*
X132589070Y-120414070D01*
X132604976Y-120399654D01*
X132622219Y-120386866D01*
X132640632Y-120375830D01*
X132660038Y-120366651D01*
X132680250Y-120359419D01*
X132701074Y-120354203D01*
X132722309Y-120351053D01*
X132743750Y-120350000D01*
X133256250Y-120350000D01*
X133277691Y-120351053D01*
X133277691Y-120351053D01*
G37*
D14*
X133000000Y-120787500D03*
D12*
G36*
X133277691Y-113351053D02*
G01*
X133298926Y-113354203D01*
X133319750Y-113359419D01*
X133339962Y-113366651D01*
X133359368Y-113375830D01*
X133377781Y-113386866D01*
X133395024Y-113399654D01*
X133410930Y-113414070D01*
X133425346Y-113429976D01*
X133438134Y-113447219D01*
X133449170Y-113465632D01*
X133458349Y-113485038D01*
X133465581Y-113505250D01*
X133470797Y-113526074D01*
X133473947Y-113547309D01*
X133475000Y-113568750D01*
X133475000Y-114006250D01*
X133473947Y-114027691D01*
X133470797Y-114048926D01*
X133465581Y-114069750D01*
X133458349Y-114089962D01*
X133449170Y-114109368D01*
X133438134Y-114127781D01*
X133425346Y-114145024D01*
X133410930Y-114160930D01*
X133395024Y-114175346D01*
X133377781Y-114188134D01*
X133359368Y-114199170D01*
X133339962Y-114208349D01*
X133319750Y-114215581D01*
X133298926Y-114220797D01*
X133277691Y-114223947D01*
X133256250Y-114225000D01*
X132743750Y-114225000D01*
X132722309Y-114223947D01*
X132701074Y-114220797D01*
X132680250Y-114215581D01*
X132660038Y-114208349D01*
X132640632Y-114199170D01*
X132622219Y-114188134D01*
X132604976Y-114175346D01*
X132589070Y-114160930D01*
X132574654Y-114145024D01*
X132561866Y-114127781D01*
X132550830Y-114109368D01*
X132541651Y-114089962D01*
X132534419Y-114069750D01*
X132529203Y-114048926D01*
X132526053Y-114027691D01*
X132525000Y-114006250D01*
X132525000Y-113568750D01*
X132526053Y-113547309D01*
X132529203Y-113526074D01*
X132534419Y-113505250D01*
X132541651Y-113485038D01*
X132550830Y-113465632D01*
X132561866Y-113447219D01*
X132574654Y-113429976D01*
X132589070Y-113414070D01*
X132604976Y-113399654D01*
X132622219Y-113386866D01*
X132640632Y-113375830D01*
X132660038Y-113366651D01*
X132680250Y-113359419D01*
X132701074Y-113354203D01*
X132722309Y-113351053D01*
X132743750Y-113350000D01*
X133256250Y-113350000D01*
X133277691Y-113351053D01*
X133277691Y-113351053D01*
G37*
D14*
X133000000Y-113787500D03*
D12*
G36*
X133277691Y-111776053D02*
G01*
X133298926Y-111779203D01*
X133319750Y-111784419D01*
X133339962Y-111791651D01*
X133359368Y-111800830D01*
X133377781Y-111811866D01*
X133395024Y-111824654D01*
X133410930Y-111839070D01*
X133425346Y-111854976D01*
X133438134Y-111872219D01*
X133449170Y-111890632D01*
X133458349Y-111910038D01*
X133465581Y-111930250D01*
X133470797Y-111951074D01*
X133473947Y-111972309D01*
X133475000Y-111993750D01*
X133475000Y-112431250D01*
X133473947Y-112452691D01*
X133470797Y-112473926D01*
X133465581Y-112494750D01*
X133458349Y-112514962D01*
X133449170Y-112534368D01*
X133438134Y-112552781D01*
X133425346Y-112570024D01*
X133410930Y-112585930D01*
X133395024Y-112600346D01*
X133377781Y-112613134D01*
X133359368Y-112624170D01*
X133339962Y-112633349D01*
X133319750Y-112640581D01*
X133298926Y-112645797D01*
X133277691Y-112648947D01*
X133256250Y-112650000D01*
X132743750Y-112650000D01*
X132722309Y-112648947D01*
X132701074Y-112645797D01*
X132680250Y-112640581D01*
X132660038Y-112633349D01*
X132640632Y-112624170D01*
X132622219Y-112613134D01*
X132604976Y-112600346D01*
X132589070Y-112585930D01*
X132574654Y-112570024D01*
X132561866Y-112552781D01*
X132550830Y-112534368D01*
X132541651Y-112514962D01*
X132534419Y-112494750D01*
X132529203Y-112473926D01*
X132526053Y-112452691D01*
X132525000Y-112431250D01*
X132525000Y-111993750D01*
X132526053Y-111972309D01*
X132529203Y-111951074D01*
X132534419Y-111930250D01*
X132541651Y-111910038D01*
X132550830Y-111890632D01*
X132561866Y-111872219D01*
X132574654Y-111854976D01*
X132589070Y-111839070D01*
X132604976Y-111824654D01*
X132622219Y-111811866D01*
X132640632Y-111800830D01*
X132660038Y-111791651D01*
X132680250Y-111784419D01*
X132701074Y-111779203D01*
X132722309Y-111776053D01*
X132743750Y-111775000D01*
X133256250Y-111775000D01*
X133277691Y-111776053D01*
X133277691Y-111776053D01*
G37*
D14*
X133000000Y-112212500D03*
D12*
G36*
X133277691Y-106776053D02*
G01*
X133298926Y-106779203D01*
X133319750Y-106784419D01*
X133339962Y-106791651D01*
X133359368Y-106800830D01*
X133377781Y-106811866D01*
X133395024Y-106824654D01*
X133410930Y-106839070D01*
X133425346Y-106854976D01*
X133438134Y-106872219D01*
X133449170Y-106890632D01*
X133458349Y-106910038D01*
X133465581Y-106930250D01*
X133470797Y-106951074D01*
X133473947Y-106972309D01*
X133475000Y-106993750D01*
X133475000Y-107431250D01*
X133473947Y-107452691D01*
X133470797Y-107473926D01*
X133465581Y-107494750D01*
X133458349Y-107514962D01*
X133449170Y-107534368D01*
X133438134Y-107552781D01*
X133425346Y-107570024D01*
X133410930Y-107585930D01*
X133395024Y-107600346D01*
X133377781Y-107613134D01*
X133359368Y-107624170D01*
X133339962Y-107633349D01*
X133319750Y-107640581D01*
X133298926Y-107645797D01*
X133277691Y-107648947D01*
X133256250Y-107650000D01*
X132743750Y-107650000D01*
X132722309Y-107648947D01*
X132701074Y-107645797D01*
X132680250Y-107640581D01*
X132660038Y-107633349D01*
X132640632Y-107624170D01*
X132622219Y-107613134D01*
X132604976Y-107600346D01*
X132589070Y-107585930D01*
X132574654Y-107570024D01*
X132561866Y-107552781D01*
X132550830Y-107534368D01*
X132541651Y-107514962D01*
X132534419Y-107494750D01*
X132529203Y-107473926D01*
X132526053Y-107452691D01*
X132525000Y-107431250D01*
X132525000Y-106993750D01*
X132526053Y-106972309D01*
X132529203Y-106951074D01*
X132534419Y-106930250D01*
X132541651Y-106910038D01*
X132550830Y-106890632D01*
X132561866Y-106872219D01*
X132574654Y-106854976D01*
X132589070Y-106839070D01*
X132604976Y-106824654D01*
X132622219Y-106811866D01*
X132640632Y-106800830D01*
X132660038Y-106791651D01*
X132680250Y-106784419D01*
X132701074Y-106779203D01*
X132722309Y-106776053D01*
X132743750Y-106775000D01*
X133256250Y-106775000D01*
X133277691Y-106776053D01*
X133277691Y-106776053D01*
G37*
D14*
X133000000Y-107212500D03*
D12*
G36*
X133277691Y-108351053D02*
G01*
X133298926Y-108354203D01*
X133319750Y-108359419D01*
X133339962Y-108366651D01*
X133359368Y-108375830D01*
X133377781Y-108386866D01*
X133395024Y-108399654D01*
X133410930Y-108414070D01*
X133425346Y-108429976D01*
X133438134Y-108447219D01*
X133449170Y-108465632D01*
X133458349Y-108485038D01*
X133465581Y-108505250D01*
X133470797Y-108526074D01*
X133473947Y-108547309D01*
X133475000Y-108568750D01*
X133475000Y-109006250D01*
X133473947Y-109027691D01*
X133470797Y-109048926D01*
X133465581Y-109069750D01*
X133458349Y-109089962D01*
X133449170Y-109109368D01*
X133438134Y-109127781D01*
X133425346Y-109145024D01*
X133410930Y-109160930D01*
X133395024Y-109175346D01*
X133377781Y-109188134D01*
X133359368Y-109199170D01*
X133339962Y-109208349D01*
X133319750Y-109215581D01*
X133298926Y-109220797D01*
X133277691Y-109223947D01*
X133256250Y-109225000D01*
X132743750Y-109225000D01*
X132722309Y-109223947D01*
X132701074Y-109220797D01*
X132680250Y-109215581D01*
X132660038Y-109208349D01*
X132640632Y-109199170D01*
X132622219Y-109188134D01*
X132604976Y-109175346D01*
X132589070Y-109160930D01*
X132574654Y-109145024D01*
X132561866Y-109127781D01*
X132550830Y-109109368D01*
X132541651Y-109089962D01*
X132534419Y-109069750D01*
X132529203Y-109048926D01*
X132526053Y-109027691D01*
X132525000Y-109006250D01*
X132525000Y-108568750D01*
X132526053Y-108547309D01*
X132529203Y-108526074D01*
X132534419Y-108505250D01*
X132541651Y-108485038D01*
X132550830Y-108465632D01*
X132561866Y-108447219D01*
X132574654Y-108429976D01*
X132589070Y-108414070D01*
X132604976Y-108399654D01*
X132622219Y-108386866D01*
X132640632Y-108375830D01*
X132660038Y-108366651D01*
X132680250Y-108359419D01*
X132701074Y-108354203D01*
X132722309Y-108351053D01*
X132743750Y-108350000D01*
X133256250Y-108350000D01*
X133277691Y-108351053D01*
X133277691Y-108351053D01*
G37*
D14*
X133000000Y-108787500D03*
D12*
G36*
X128499504Y-117176204D02*
G01*
X128523773Y-117179804D01*
X128547571Y-117185765D01*
X128570671Y-117194030D01*
X128592849Y-117204520D01*
X128613893Y-117217133D01*
X128633598Y-117231747D01*
X128651777Y-117248223D01*
X128668253Y-117266402D01*
X128682867Y-117286107D01*
X128695480Y-117307151D01*
X128705970Y-117329329D01*
X128714235Y-117352429D01*
X128720196Y-117376227D01*
X128723796Y-117400496D01*
X128725000Y-117425000D01*
X128725000Y-119575000D01*
X128723796Y-119599504D01*
X128720196Y-119623773D01*
X128714235Y-119647571D01*
X128705970Y-119670671D01*
X128695480Y-119692849D01*
X128682867Y-119713893D01*
X128668253Y-119733598D01*
X128651777Y-119751777D01*
X128633598Y-119768253D01*
X128613893Y-119782867D01*
X128592849Y-119795480D01*
X128570671Y-119805970D01*
X128547571Y-119814235D01*
X128523773Y-119820196D01*
X128499504Y-119823796D01*
X128475000Y-119825000D01*
X127725000Y-119825000D01*
X127700496Y-119823796D01*
X127676227Y-119820196D01*
X127652429Y-119814235D01*
X127629329Y-119805970D01*
X127607151Y-119795480D01*
X127586107Y-119782867D01*
X127566402Y-119768253D01*
X127548223Y-119751777D01*
X127531747Y-119733598D01*
X127517133Y-119713893D01*
X127504520Y-119692849D01*
X127494030Y-119670671D01*
X127485765Y-119647571D01*
X127479804Y-119623773D01*
X127476204Y-119599504D01*
X127475000Y-119575000D01*
X127475000Y-117425000D01*
X127476204Y-117400496D01*
X127479804Y-117376227D01*
X127485765Y-117352429D01*
X127494030Y-117329329D01*
X127504520Y-117307151D01*
X127517133Y-117286107D01*
X127531747Y-117266402D01*
X127548223Y-117248223D01*
X127566402Y-117231747D01*
X127586107Y-117217133D01*
X127607151Y-117204520D01*
X127629329Y-117194030D01*
X127652429Y-117185765D01*
X127676227Y-117179804D01*
X127700496Y-117176204D01*
X127725000Y-117175000D01*
X128475000Y-117175000D01*
X128499504Y-117176204D01*
X128499504Y-117176204D01*
G37*
D15*
X128100000Y-118500000D03*
D12*
G36*
X131299504Y-117176204D02*
G01*
X131323773Y-117179804D01*
X131347571Y-117185765D01*
X131370671Y-117194030D01*
X131392849Y-117204520D01*
X131413893Y-117217133D01*
X131433598Y-117231747D01*
X131451777Y-117248223D01*
X131468253Y-117266402D01*
X131482867Y-117286107D01*
X131495480Y-117307151D01*
X131505970Y-117329329D01*
X131514235Y-117352429D01*
X131520196Y-117376227D01*
X131523796Y-117400496D01*
X131525000Y-117425000D01*
X131525000Y-119575000D01*
X131523796Y-119599504D01*
X131520196Y-119623773D01*
X131514235Y-119647571D01*
X131505970Y-119670671D01*
X131495480Y-119692849D01*
X131482867Y-119713893D01*
X131468253Y-119733598D01*
X131451777Y-119751777D01*
X131433598Y-119768253D01*
X131413893Y-119782867D01*
X131392849Y-119795480D01*
X131370671Y-119805970D01*
X131347571Y-119814235D01*
X131323773Y-119820196D01*
X131299504Y-119823796D01*
X131275000Y-119825000D01*
X130525000Y-119825000D01*
X130500496Y-119823796D01*
X130476227Y-119820196D01*
X130452429Y-119814235D01*
X130429329Y-119805970D01*
X130407151Y-119795480D01*
X130386107Y-119782867D01*
X130366402Y-119768253D01*
X130348223Y-119751777D01*
X130331747Y-119733598D01*
X130317133Y-119713893D01*
X130304520Y-119692849D01*
X130294030Y-119670671D01*
X130285765Y-119647571D01*
X130279804Y-119623773D01*
X130276204Y-119599504D01*
X130275000Y-119575000D01*
X130275000Y-117425000D01*
X130276204Y-117400496D01*
X130279804Y-117376227D01*
X130285765Y-117352429D01*
X130294030Y-117329329D01*
X130304520Y-117307151D01*
X130317133Y-117286107D01*
X130331747Y-117266402D01*
X130348223Y-117248223D01*
X130366402Y-117231747D01*
X130386107Y-117217133D01*
X130407151Y-117204520D01*
X130429329Y-117194030D01*
X130452429Y-117185765D01*
X130476227Y-117179804D01*
X130500496Y-117176204D01*
X130525000Y-117175000D01*
X131275000Y-117175000D01*
X131299504Y-117176204D01*
X131299504Y-117176204D01*
G37*
D15*
X130900000Y-118500000D03*
D12*
G36*
X128499504Y-113676204D02*
G01*
X128523773Y-113679804D01*
X128547571Y-113685765D01*
X128570671Y-113694030D01*
X128592849Y-113704520D01*
X128613893Y-113717133D01*
X128633598Y-113731747D01*
X128651777Y-113748223D01*
X128668253Y-113766402D01*
X128682867Y-113786107D01*
X128695480Y-113807151D01*
X128705970Y-113829329D01*
X128714235Y-113852429D01*
X128720196Y-113876227D01*
X128723796Y-113900496D01*
X128725000Y-113925000D01*
X128725000Y-116075000D01*
X128723796Y-116099504D01*
X128720196Y-116123773D01*
X128714235Y-116147571D01*
X128705970Y-116170671D01*
X128695480Y-116192849D01*
X128682867Y-116213893D01*
X128668253Y-116233598D01*
X128651777Y-116251777D01*
X128633598Y-116268253D01*
X128613893Y-116282867D01*
X128592849Y-116295480D01*
X128570671Y-116305970D01*
X128547571Y-116314235D01*
X128523773Y-116320196D01*
X128499504Y-116323796D01*
X128475000Y-116325000D01*
X127725000Y-116325000D01*
X127700496Y-116323796D01*
X127676227Y-116320196D01*
X127652429Y-116314235D01*
X127629329Y-116305970D01*
X127607151Y-116295480D01*
X127586107Y-116282867D01*
X127566402Y-116268253D01*
X127548223Y-116251777D01*
X127531747Y-116233598D01*
X127517133Y-116213893D01*
X127504520Y-116192849D01*
X127494030Y-116170671D01*
X127485765Y-116147571D01*
X127479804Y-116123773D01*
X127476204Y-116099504D01*
X127475000Y-116075000D01*
X127475000Y-113925000D01*
X127476204Y-113900496D01*
X127479804Y-113876227D01*
X127485765Y-113852429D01*
X127494030Y-113829329D01*
X127504520Y-113807151D01*
X127517133Y-113786107D01*
X127531747Y-113766402D01*
X127548223Y-113748223D01*
X127566402Y-113731747D01*
X127586107Y-113717133D01*
X127607151Y-113704520D01*
X127629329Y-113694030D01*
X127652429Y-113685765D01*
X127676227Y-113679804D01*
X127700496Y-113676204D01*
X127725000Y-113675000D01*
X128475000Y-113675000D01*
X128499504Y-113676204D01*
X128499504Y-113676204D01*
G37*
D15*
X128100000Y-115000000D03*
D12*
G36*
X131299504Y-113676204D02*
G01*
X131323773Y-113679804D01*
X131347571Y-113685765D01*
X131370671Y-113694030D01*
X131392849Y-113704520D01*
X131413893Y-113717133D01*
X131433598Y-113731747D01*
X131451777Y-113748223D01*
X131468253Y-113766402D01*
X131482867Y-113786107D01*
X131495480Y-113807151D01*
X131505970Y-113829329D01*
X131514235Y-113852429D01*
X131520196Y-113876227D01*
X131523796Y-113900496D01*
X131525000Y-113925000D01*
X131525000Y-116075000D01*
X131523796Y-116099504D01*
X131520196Y-116123773D01*
X131514235Y-116147571D01*
X131505970Y-116170671D01*
X131495480Y-116192849D01*
X131482867Y-116213893D01*
X131468253Y-116233598D01*
X131451777Y-116251777D01*
X131433598Y-116268253D01*
X131413893Y-116282867D01*
X131392849Y-116295480D01*
X131370671Y-116305970D01*
X131347571Y-116314235D01*
X131323773Y-116320196D01*
X131299504Y-116323796D01*
X131275000Y-116325000D01*
X130525000Y-116325000D01*
X130500496Y-116323796D01*
X130476227Y-116320196D01*
X130452429Y-116314235D01*
X130429329Y-116305970D01*
X130407151Y-116295480D01*
X130386107Y-116282867D01*
X130366402Y-116268253D01*
X130348223Y-116251777D01*
X130331747Y-116233598D01*
X130317133Y-116213893D01*
X130304520Y-116192849D01*
X130294030Y-116170671D01*
X130285765Y-116147571D01*
X130279804Y-116123773D01*
X130276204Y-116099504D01*
X130275000Y-116075000D01*
X130275000Y-113925000D01*
X130276204Y-113900496D01*
X130279804Y-113876227D01*
X130285765Y-113852429D01*
X130294030Y-113829329D01*
X130304520Y-113807151D01*
X130317133Y-113786107D01*
X130331747Y-113766402D01*
X130348223Y-113748223D01*
X130366402Y-113731747D01*
X130386107Y-113717133D01*
X130407151Y-113704520D01*
X130429329Y-113694030D01*
X130452429Y-113685765D01*
X130476227Y-113679804D01*
X130500496Y-113676204D01*
X130525000Y-113675000D01*
X131275000Y-113675000D01*
X131299504Y-113676204D01*
X131299504Y-113676204D01*
G37*
D15*
X130900000Y-115000000D03*
D12*
G36*
X128499504Y-110176204D02*
G01*
X128523773Y-110179804D01*
X128547571Y-110185765D01*
X128570671Y-110194030D01*
X128592849Y-110204520D01*
X128613893Y-110217133D01*
X128633598Y-110231747D01*
X128651777Y-110248223D01*
X128668253Y-110266402D01*
X128682867Y-110286107D01*
X128695480Y-110307151D01*
X128705970Y-110329329D01*
X128714235Y-110352429D01*
X128720196Y-110376227D01*
X128723796Y-110400496D01*
X128725000Y-110425000D01*
X128725000Y-112575000D01*
X128723796Y-112599504D01*
X128720196Y-112623773D01*
X128714235Y-112647571D01*
X128705970Y-112670671D01*
X128695480Y-112692849D01*
X128682867Y-112713893D01*
X128668253Y-112733598D01*
X128651777Y-112751777D01*
X128633598Y-112768253D01*
X128613893Y-112782867D01*
X128592849Y-112795480D01*
X128570671Y-112805970D01*
X128547571Y-112814235D01*
X128523773Y-112820196D01*
X128499504Y-112823796D01*
X128475000Y-112825000D01*
X127725000Y-112825000D01*
X127700496Y-112823796D01*
X127676227Y-112820196D01*
X127652429Y-112814235D01*
X127629329Y-112805970D01*
X127607151Y-112795480D01*
X127586107Y-112782867D01*
X127566402Y-112768253D01*
X127548223Y-112751777D01*
X127531747Y-112733598D01*
X127517133Y-112713893D01*
X127504520Y-112692849D01*
X127494030Y-112670671D01*
X127485765Y-112647571D01*
X127479804Y-112623773D01*
X127476204Y-112599504D01*
X127475000Y-112575000D01*
X127475000Y-110425000D01*
X127476204Y-110400496D01*
X127479804Y-110376227D01*
X127485765Y-110352429D01*
X127494030Y-110329329D01*
X127504520Y-110307151D01*
X127517133Y-110286107D01*
X127531747Y-110266402D01*
X127548223Y-110248223D01*
X127566402Y-110231747D01*
X127586107Y-110217133D01*
X127607151Y-110204520D01*
X127629329Y-110194030D01*
X127652429Y-110185765D01*
X127676227Y-110179804D01*
X127700496Y-110176204D01*
X127725000Y-110175000D01*
X128475000Y-110175000D01*
X128499504Y-110176204D01*
X128499504Y-110176204D01*
G37*
D15*
X128100000Y-111500000D03*
D12*
G36*
X131299504Y-110176204D02*
G01*
X131323773Y-110179804D01*
X131347571Y-110185765D01*
X131370671Y-110194030D01*
X131392849Y-110204520D01*
X131413893Y-110217133D01*
X131433598Y-110231747D01*
X131451777Y-110248223D01*
X131468253Y-110266402D01*
X131482867Y-110286107D01*
X131495480Y-110307151D01*
X131505970Y-110329329D01*
X131514235Y-110352429D01*
X131520196Y-110376227D01*
X131523796Y-110400496D01*
X131525000Y-110425000D01*
X131525000Y-112575000D01*
X131523796Y-112599504D01*
X131520196Y-112623773D01*
X131514235Y-112647571D01*
X131505970Y-112670671D01*
X131495480Y-112692849D01*
X131482867Y-112713893D01*
X131468253Y-112733598D01*
X131451777Y-112751777D01*
X131433598Y-112768253D01*
X131413893Y-112782867D01*
X131392849Y-112795480D01*
X131370671Y-112805970D01*
X131347571Y-112814235D01*
X131323773Y-112820196D01*
X131299504Y-112823796D01*
X131275000Y-112825000D01*
X130525000Y-112825000D01*
X130500496Y-112823796D01*
X130476227Y-112820196D01*
X130452429Y-112814235D01*
X130429329Y-112805970D01*
X130407151Y-112795480D01*
X130386107Y-112782867D01*
X130366402Y-112768253D01*
X130348223Y-112751777D01*
X130331747Y-112733598D01*
X130317133Y-112713893D01*
X130304520Y-112692849D01*
X130294030Y-112670671D01*
X130285765Y-112647571D01*
X130279804Y-112623773D01*
X130276204Y-112599504D01*
X130275000Y-112575000D01*
X130275000Y-110425000D01*
X130276204Y-110400496D01*
X130279804Y-110376227D01*
X130285765Y-110352429D01*
X130294030Y-110329329D01*
X130304520Y-110307151D01*
X130317133Y-110286107D01*
X130331747Y-110266402D01*
X130348223Y-110248223D01*
X130366402Y-110231747D01*
X130386107Y-110217133D01*
X130407151Y-110204520D01*
X130429329Y-110194030D01*
X130452429Y-110185765D01*
X130476227Y-110179804D01*
X130500496Y-110176204D01*
X130525000Y-110175000D01*
X131275000Y-110175000D01*
X131299504Y-110176204D01*
X131299504Y-110176204D01*
G37*
D15*
X130900000Y-111500000D03*
D16*
X133575000Y-117900000D03*
X133575000Y-117100000D03*
D17*
X132425000Y-117500000D03*
D16*
X133575000Y-115900000D03*
X133575000Y-115100000D03*
D17*
X132425000Y-115500000D03*
D16*
X133575000Y-110900000D03*
X133575000Y-110100000D03*
D17*
X132425000Y-110500000D03*
D12*
G36*
X126527691Y-128526053D02*
G01*
X126548926Y-128529203D01*
X126569750Y-128534419D01*
X126589962Y-128541651D01*
X126609368Y-128550830D01*
X126627781Y-128561866D01*
X126645024Y-128574654D01*
X126660930Y-128589070D01*
X126675346Y-128604976D01*
X126688134Y-128622219D01*
X126699170Y-128640632D01*
X126708349Y-128660038D01*
X126715581Y-128680250D01*
X126720797Y-128701074D01*
X126723947Y-128722309D01*
X126725000Y-128743750D01*
X126725000Y-129256250D01*
X126723947Y-129277691D01*
X126720797Y-129298926D01*
X126715581Y-129319750D01*
X126708349Y-129339962D01*
X126699170Y-129359368D01*
X126688134Y-129377781D01*
X126675346Y-129395024D01*
X126660930Y-129410930D01*
X126645024Y-129425346D01*
X126627781Y-129438134D01*
X126609368Y-129449170D01*
X126589962Y-129458349D01*
X126569750Y-129465581D01*
X126548926Y-129470797D01*
X126527691Y-129473947D01*
X126506250Y-129475000D01*
X126068750Y-129475000D01*
X126047309Y-129473947D01*
X126026074Y-129470797D01*
X126005250Y-129465581D01*
X125985038Y-129458349D01*
X125965632Y-129449170D01*
X125947219Y-129438134D01*
X125929976Y-129425346D01*
X125914070Y-129410930D01*
X125899654Y-129395024D01*
X125886866Y-129377781D01*
X125875830Y-129359368D01*
X125866651Y-129339962D01*
X125859419Y-129319750D01*
X125854203Y-129298926D01*
X125851053Y-129277691D01*
X125850000Y-129256250D01*
X125850000Y-128743750D01*
X125851053Y-128722309D01*
X125854203Y-128701074D01*
X125859419Y-128680250D01*
X125866651Y-128660038D01*
X125875830Y-128640632D01*
X125886866Y-128622219D01*
X125899654Y-128604976D01*
X125914070Y-128589070D01*
X125929976Y-128574654D01*
X125947219Y-128561866D01*
X125965632Y-128550830D01*
X125985038Y-128541651D01*
X126005250Y-128534419D01*
X126026074Y-128529203D01*
X126047309Y-128526053D01*
X126068750Y-128525000D01*
X126506250Y-128525000D01*
X126527691Y-128526053D01*
X126527691Y-128526053D01*
G37*
D14*
X126287500Y-129000000D03*
D12*
G36*
X124952691Y-128526053D02*
G01*
X124973926Y-128529203D01*
X124994750Y-128534419D01*
X125014962Y-128541651D01*
X125034368Y-128550830D01*
X125052781Y-128561866D01*
X125070024Y-128574654D01*
X125085930Y-128589070D01*
X125100346Y-128604976D01*
X125113134Y-128622219D01*
X125124170Y-128640632D01*
X125133349Y-128660038D01*
X125140581Y-128680250D01*
X125145797Y-128701074D01*
X125148947Y-128722309D01*
X125150000Y-128743750D01*
X125150000Y-129256250D01*
X125148947Y-129277691D01*
X125145797Y-129298926D01*
X125140581Y-129319750D01*
X125133349Y-129339962D01*
X125124170Y-129359368D01*
X125113134Y-129377781D01*
X125100346Y-129395024D01*
X125085930Y-129410930D01*
X125070024Y-129425346D01*
X125052781Y-129438134D01*
X125034368Y-129449170D01*
X125014962Y-129458349D01*
X124994750Y-129465581D01*
X124973926Y-129470797D01*
X124952691Y-129473947D01*
X124931250Y-129475000D01*
X124493750Y-129475000D01*
X124472309Y-129473947D01*
X124451074Y-129470797D01*
X124430250Y-129465581D01*
X124410038Y-129458349D01*
X124390632Y-129449170D01*
X124372219Y-129438134D01*
X124354976Y-129425346D01*
X124339070Y-129410930D01*
X124324654Y-129395024D01*
X124311866Y-129377781D01*
X124300830Y-129359368D01*
X124291651Y-129339962D01*
X124284419Y-129319750D01*
X124279203Y-129298926D01*
X124276053Y-129277691D01*
X124275000Y-129256250D01*
X124275000Y-128743750D01*
X124276053Y-128722309D01*
X124279203Y-128701074D01*
X124284419Y-128680250D01*
X124291651Y-128660038D01*
X124300830Y-128640632D01*
X124311866Y-128622219D01*
X124324654Y-128604976D01*
X124339070Y-128589070D01*
X124354976Y-128574654D01*
X124372219Y-128561866D01*
X124390632Y-128550830D01*
X124410038Y-128541651D01*
X124430250Y-128534419D01*
X124451074Y-128529203D01*
X124472309Y-128526053D01*
X124493750Y-128525000D01*
X124931250Y-128525000D01*
X124952691Y-128526053D01*
X124952691Y-128526053D01*
G37*
D14*
X124712500Y-129000000D03*
D12*
G36*
X128027691Y-120526053D02*
G01*
X128048926Y-120529203D01*
X128069750Y-120534419D01*
X128089962Y-120541651D01*
X128109368Y-120550830D01*
X128127781Y-120561866D01*
X128145024Y-120574654D01*
X128160930Y-120589070D01*
X128175346Y-120604976D01*
X128188134Y-120622219D01*
X128199170Y-120640632D01*
X128208349Y-120660038D01*
X128215581Y-120680250D01*
X128220797Y-120701074D01*
X128223947Y-120722309D01*
X128225000Y-120743750D01*
X128225000Y-121256250D01*
X128223947Y-121277691D01*
X128220797Y-121298926D01*
X128215581Y-121319750D01*
X128208349Y-121339962D01*
X128199170Y-121359368D01*
X128188134Y-121377781D01*
X128175346Y-121395024D01*
X128160930Y-121410930D01*
X128145024Y-121425346D01*
X128127781Y-121438134D01*
X128109368Y-121449170D01*
X128089962Y-121458349D01*
X128069750Y-121465581D01*
X128048926Y-121470797D01*
X128027691Y-121473947D01*
X128006250Y-121475000D01*
X127568750Y-121475000D01*
X127547309Y-121473947D01*
X127526074Y-121470797D01*
X127505250Y-121465581D01*
X127485038Y-121458349D01*
X127465632Y-121449170D01*
X127447219Y-121438134D01*
X127429976Y-121425346D01*
X127414070Y-121410930D01*
X127399654Y-121395024D01*
X127386866Y-121377781D01*
X127375830Y-121359368D01*
X127366651Y-121339962D01*
X127359419Y-121319750D01*
X127354203Y-121298926D01*
X127351053Y-121277691D01*
X127350000Y-121256250D01*
X127350000Y-120743750D01*
X127351053Y-120722309D01*
X127354203Y-120701074D01*
X127359419Y-120680250D01*
X127366651Y-120660038D01*
X127375830Y-120640632D01*
X127386866Y-120622219D01*
X127399654Y-120604976D01*
X127414070Y-120589070D01*
X127429976Y-120574654D01*
X127447219Y-120561866D01*
X127465632Y-120550830D01*
X127485038Y-120541651D01*
X127505250Y-120534419D01*
X127526074Y-120529203D01*
X127547309Y-120526053D01*
X127568750Y-120525000D01*
X128006250Y-120525000D01*
X128027691Y-120526053D01*
X128027691Y-120526053D01*
G37*
D14*
X127787500Y-121000000D03*
D12*
G36*
X126452691Y-120526053D02*
G01*
X126473926Y-120529203D01*
X126494750Y-120534419D01*
X126514962Y-120541651D01*
X126534368Y-120550830D01*
X126552781Y-120561866D01*
X126570024Y-120574654D01*
X126585930Y-120589070D01*
X126600346Y-120604976D01*
X126613134Y-120622219D01*
X126624170Y-120640632D01*
X126633349Y-120660038D01*
X126640581Y-120680250D01*
X126645797Y-120701074D01*
X126648947Y-120722309D01*
X126650000Y-120743750D01*
X126650000Y-121256250D01*
X126648947Y-121277691D01*
X126645797Y-121298926D01*
X126640581Y-121319750D01*
X126633349Y-121339962D01*
X126624170Y-121359368D01*
X126613134Y-121377781D01*
X126600346Y-121395024D01*
X126585930Y-121410930D01*
X126570024Y-121425346D01*
X126552781Y-121438134D01*
X126534368Y-121449170D01*
X126514962Y-121458349D01*
X126494750Y-121465581D01*
X126473926Y-121470797D01*
X126452691Y-121473947D01*
X126431250Y-121475000D01*
X125993750Y-121475000D01*
X125972309Y-121473947D01*
X125951074Y-121470797D01*
X125930250Y-121465581D01*
X125910038Y-121458349D01*
X125890632Y-121449170D01*
X125872219Y-121438134D01*
X125854976Y-121425346D01*
X125839070Y-121410930D01*
X125824654Y-121395024D01*
X125811866Y-121377781D01*
X125800830Y-121359368D01*
X125791651Y-121339962D01*
X125784419Y-121319750D01*
X125779203Y-121298926D01*
X125776053Y-121277691D01*
X125775000Y-121256250D01*
X125775000Y-120743750D01*
X125776053Y-120722309D01*
X125779203Y-120701074D01*
X125784419Y-120680250D01*
X125791651Y-120660038D01*
X125800830Y-120640632D01*
X125811866Y-120622219D01*
X125824654Y-120604976D01*
X125839070Y-120589070D01*
X125854976Y-120574654D01*
X125872219Y-120561866D01*
X125890632Y-120550830D01*
X125910038Y-120541651D01*
X125930250Y-120534419D01*
X125951074Y-120529203D01*
X125972309Y-120526053D01*
X125993750Y-120525000D01*
X126431250Y-120525000D01*
X126452691Y-120526053D01*
X126452691Y-120526053D01*
G37*
D14*
X126212500Y-121000000D03*
D12*
G36*
X109980142Y-127951174D02*
G01*
X110003803Y-127954684D01*
X110027007Y-127960496D01*
X110049529Y-127968554D01*
X110071153Y-127978782D01*
X110091670Y-127991079D01*
X110110883Y-128005329D01*
X110128607Y-128021393D01*
X110144671Y-128039117D01*
X110158921Y-128058330D01*
X110171218Y-128078847D01*
X110181446Y-128100471D01*
X110189504Y-128122993D01*
X110195316Y-128146197D01*
X110198826Y-128169858D01*
X110200000Y-128193750D01*
X110200000Y-128681250D01*
X110198826Y-128705142D01*
X110195316Y-128728803D01*
X110189504Y-128752007D01*
X110181446Y-128774529D01*
X110171218Y-128796153D01*
X110158921Y-128816670D01*
X110144671Y-128835883D01*
X110128607Y-128853607D01*
X110110883Y-128869671D01*
X110091670Y-128883921D01*
X110071153Y-128896218D01*
X110049529Y-128906446D01*
X110027007Y-128914504D01*
X110003803Y-128920316D01*
X109980142Y-128923826D01*
X109956250Y-128925000D01*
X109043750Y-128925000D01*
X109019858Y-128923826D01*
X108996197Y-128920316D01*
X108972993Y-128914504D01*
X108950471Y-128906446D01*
X108928847Y-128896218D01*
X108908330Y-128883921D01*
X108889117Y-128869671D01*
X108871393Y-128853607D01*
X108855329Y-128835883D01*
X108841079Y-128816670D01*
X108828782Y-128796153D01*
X108818554Y-128774529D01*
X108810496Y-128752007D01*
X108804684Y-128728803D01*
X108801174Y-128705142D01*
X108800000Y-128681250D01*
X108800000Y-128193750D01*
X108801174Y-128169858D01*
X108804684Y-128146197D01*
X108810496Y-128122993D01*
X108818554Y-128100471D01*
X108828782Y-128078847D01*
X108841079Y-128058330D01*
X108855329Y-128039117D01*
X108871393Y-128021393D01*
X108889117Y-128005329D01*
X108908330Y-127991079D01*
X108928847Y-127978782D01*
X108950471Y-127968554D01*
X108972993Y-127960496D01*
X108996197Y-127954684D01*
X109019858Y-127951174D01*
X109043750Y-127950000D01*
X109956250Y-127950000D01*
X109980142Y-127951174D01*
X109980142Y-127951174D01*
G37*
D18*
X109500000Y-128437500D03*
D12*
G36*
X109980142Y-126076174D02*
G01*
X110003803Y-126079684D01*
X110027007Y-126085496D01*
X110049529Y-126093554D01*
X110071153Y-126103782D01*
X110091670Y-126116079D01*
X110110883Y-126130329D01*
X110128607Y-126146393D01*
X110144671Y-126164117D01*
X110158921Y-126183330D01*
X110171218Y-126203847D01*
X110181446Y-126225471D01*
X110189504Y-126247993D01*
X110195316Y-126271197D01*
X110198826Y-126294858D01*
X110200000Y-126318750D01*
X110200000Y-126806250D01*
X110198826Y-126830142D01*
X110195316Y-126853803D01*
X110189504Y-126877007D01*
X110181446Y-126899529D01*
X110171218Y-126921153D01*
X110158921Y-126941670D01*
X110144671Y-126960883D01*
X110128607Y-126978607D01*
X110110883Y-126994671D01*
X110091670Y-127008921D01*
X110071153Y-127021218D01*
X110049529Y-127031446D01*
X110027007Y-127039504D01*
X110003803Y-127045316D01*
X109980142Y-127048826D01*
X109956250Y-127050000D01*
X109043750Y-127050000D01*
X109019858Y-127048826D01*
X108996197Y-127045316D01*
X108972993Y-127039504D01*
X108950471Y-127031446D01*
X108928847Y-127021218D01*
X108908330Y-127008921D01*
X108889117Y-126994671D01*
X108871393Y-126978607D01*
X108855329Y-126960883D01*
X108841079Y-126941670D01*
X108828782Y-126921153D01*
X108818554Y-126899529D01*
X108810496Y-126877007D01*
X108804684Y-126853803D01*
X108801174Y-126830142D01*
X108800000Y-126806250D01*
X108800000Y-126318750D01*
X108801174Y-126294858D01*
X108804684Y-126271197D01*
X108810496Y-126247993D01*
X108818554Y-126225471D01*
X108828782Y-126203847D01*
X108841079Y-126183330D01*
X108855329Y-126164117D01*
X108871393Y-126146393D01*
X108889117Y-126130329D01*
X108908330Y-126116079D01*
X108928847Y-126103782D01*
X108950471Y-126093554D01*
X108972993Y-126085496D01*
X108996197Y-126079684D01*
X109019858Y-126076174D01*
X109043750Y-126075000D01*
X109956250Y-126075000D01*
X109980142Y-126076174D01*
X109980142Y-126076174D01*
G37*
D18*
X109500000Y-126562500D03*
M02*
