G04 #@! TF.GenerationSoftware,KiCad,Pcbnew,5.1.4-e60b266~84~ubuntu18.04.1*
G04 #@! TF.CreationDate,2019-11-06T20:36:44-07:00*
G04 #@! TF.ProjectId,cob_5x5_lowpower,636f625f-3578-4355-9f6c-6f77706f7765,rev?*
G04 #@! TF.SameCoordinates,Original*
G04 #@! TF.FileFunction,Paste,Top*
G04 #@! TF.FilePolarity,Positive*
%FSLAX46Y46*%
G04 Gerber Fmt 4.6, Leading zero omitted, Abs format (unit mm)*
G04 Created by KiCad (PCBNEW 5.1.4-e60b266~84~ubuntu18.04.1) date 2019-11-06 20:36:44*
%MOMM*%
%LPD*%
G04 APERTURE LIST*
%ADD10C,0.100000*%
%ADD11C,0.650000*%
%ADD12C,0.875000*%
%ADD13C,1.250000*%
%ADD14R,0.450000X0.500000*%
%ADD15R,0.450000X0.400000*%
%ADD16R,3.100000X1.200000*%
%ADD17C,5.700000*%
%ADD18C,0.975000*%
G04 APERTURE END LIST*
D10*
G36*
X123803428Y-126580782D02*
G01*
X123819202Y-126583122D01*
X123834671Y-126586997D01*
X123849686Y-126592370D01*
X123864102Y-126599188D01*
X123877780Y-126607386D01*
X123890589Y-126616886D01*
X123902405Y-126627595D01*
X123913114Y-126639411D01*
X123922614Y-126652220D01*
X123930812Y-126665898D01*
X123937630Y-126680314D01*
X123943003Y-126695329D01*
X123946878Y-126710798D01*
X123949218Y-126726572D01*
X123950000Y-126742500D01*
X123950000Y-127067500D01*
X123949218Y-127083428D01*
X123946878Y-127099202D01*
X123943003Y-127114671D01*
X123937630Y-127129686D01*
X123930812Y-127144102D01*
X123922614Y-127157780D01*
X123913114Y-127170589D01*
X123902405Y-127182405D01*
X123890589Y-127193114D01*
X123877780Y-127202614D01*
X123864102Y-127210812D01*
X123849686Y-127217630D01*
X123834671Y-127223003D01*
X123819202Y-127226878D01*
X123803428Y-127229218D01*
X123787500Y-127230000D01*
X122137500Y-127230000D01*
X122121572Y-127229218D01*
X122105798Y-127226878D01*
X122090329Y-127223003D01*
X122075314Y-127217630D01*
X122060898Y-127210812D01*
X122047220Y-127202614D01*
X122034411Y-127193114D01*
X122022595Y-127182405D01*
X122011886Y-127170589D01*
X122002386Y-127157780D01*
X121994188Y-127144102D01*
X121987370Y-127129686D01*
X121981997Y-127114671D01*
X121978122Y-127099202D01*
X121975782Y-127083428D01*
X121975000Y-127067500D01*
X121975000Y-126742500D01*
X121975782Y-126726572D01*
X121978122Y-126710798D01*
X121981997Y-126695329D01*
X121987370Y-126680314D01*
X121994188Y-126665898D01*
X122002386Y-126652220D01*
X122011886Y-126639411D01*
X122022595Y-126627595D01*
X122034411Y-126616886D01*
X122047220Y-126607386D01*
X122060898Y-126599188D01*
X122075314Y-126592370D01*
X122090329Y-126586997D01*
X122105798Y-126583122D01*
X122121572Y-126580782D01*
X122137500Y-126580000D01*
X123787500Y-126580000D01*
X123803428Y-126580782D01*
X123803428Y-126580782D01*
G37*
D11*
X122962500Y-126905000D03*
D10*
G36*
X123803428Y-125310782D02*
G01*
X123819202Y-125313122D01*
X123834671Y-125316997D01*
X123849686Y-125322370D01*
X123864102Y-125329188D01*
X123877780Y-125337386D01*
X123890589Y-125346886D01*
X123902405Y-125357595D01*
X123913114Y-125369411D01*
X123922614Y-125382220D01*
X123930812Y-125395898D01*
X123937630Y-125410314D01*
X123943003Y-125425329D01*
X123946878Y-125440798D01*
X123949218Y-125456572D01*
X123950000Y-125472500D01*
X123950000Y-125797500D01*
X123949218Y-125813428D01*
X123946878Y-125829202D01*
X123943003Y-125844671D01*
X123937630Y-125859686D01*
X123930812Y-125874102D01*
X123922614Y-125887780D01*
X123913114Y-125900589D01*
X123902405Y-125912405D01*
X123890589Y-125923114D01*
X123877780Y-125932614D01*
X123864102Y-125940812D01*
X123849686Y-125947630D01*
X123834671Y-125953003D01*
X123819202Y-125956878D01*
X123803428Y-125959218D01*
X123787500Y-125960000D01*
X122137500Y-125960000D01*
X122121572Y-125959218D01*
X122105798Y-125956878D01*
X122090329Y-125953003D01*
X122075314Y-125947630D01*
X122060898Y-125940812D01*
X122047220Y-125932614D01*
X122034411Y-125923114D01*
X122022595Y-125912405D01*
X122011886Y-125900589D01*
X122002386Y-125887780D01*
X121994188Y-125874102D01*
X121987370Y-125859686D01*
X121981997Y-125844671D01*
X121978122Y-125829202D01*
X121975782Y-125813428D01*
X121975000Y-125797500D01*
X121975000Y-125472500D01*
X121975782Y-125456572D01*
X121978122Y-125440798D01*
X121981997Y-125425329D01*
X121987370Y-125410314D01*
X121994188Y-125395898D01*
X122002386Y-125382220D01*
X122011886Y-125369411D01*
X122022595Y-125357595D01*
X122034411Y-125346886D01*
X122047220Y-125337386D01*
X122060898Y-125329188D01*
X122075314Y-125322370D01*
X122090329Y-125316997D01*
X122105798Y-125313122D01*
X122121572Y-125310782D01*
X122137500Y-125310000D01*
X123787500Y-125310000D01*
X123803428Y-125310782D01*
X123803428Y-125310782D01*
G37*
D11*
X122962500Y-125635000D03*
D10*
G36*
X123803428Y-124040782D02*
G01*
X123819202Y-124043122D01*
X123834671Y-124046997D01*
X123849686Y-124052370D01*
X123864102Y-124059188D01*
X123877780Y-124067386D01*
X123890589Y-124076886D01*
X123902405Y-124087595D01*
X123913114Y-124099411D01*
X123922614Y-124112220D01*
X123930812Y-124125898D01*
X123937630Y-124140314D01*
X123943003Y-124155329D01*
X123946878Y-124170798D01*
X123949218Y-124186572D01*
X123950000Y-124202500D01*
X123950000Y-124527500D01*
X123949218Y-124543428D01*
X123946878Y-124559202D01*
X123943003Y-124574671D01*
X123937630Y-124589686D01*
X123930812Y-124604102D01*
X123922614Y-124617780D01*
X123913114Y-124630589D01*
X123902405Y-124642405D01*
X123890589Y-124653114D01*
X123877780Y-124662614D01*
X123864102Y-124670812D01*
X123849686Y-124677630D01*
X123834671Y-124683003D01*
X123819202Y-124686878D01*
X123803428Y-124689218D01*
X123787500Y-124690000D01*
X122137500Y-124690000D01*
X122121572Y-124689218D01*
X122105798Y-124686878D01*
X122090329Y-124683003D01*
X122075314Y-124677630D01*
X122060898Y-124670812D01*
X122047220Y-124662614D01*
X122034411Y-124653114D01*
X122022595Y-124642405D01*
X122011886Y-124630589D01*
X122002386Y-124617780D01*
X121994188Y-124604102D01*
X121987370Y-124589686D01*
X121981997Y-124574671D01*
X121978122Y-124559202D01*
X121975782Y-124543428D01*
X121975000Y-124527500D01*
X121975000Y-124202500D01*
X121975782Y-124186572D01*
X121978122Y-124170798D01*
X121981997Y-124155329D01*
X121987370Y-124140314D01*
X121994188Y-124125898D01*
X122002386Y-124112220D01*
X122011886Y-124099411D01*
X122022595Y-124087595D01*
X122034411Y-124076886D01*
X122047220Y-124067386D01*
X122060898Y-124059188D01*
X122075314Y-124052370D01*
X122090329Y-124046997D01*
X122105798Y-124043122D01*
X122121572Y-124040782D01*
X122137500Y-124040000D01*
X123787500Y-124040000D01*
X123803428Y-124040782D01*
X123803428Y-124040782D01*
G37*
D11*
X122962500Y-124365000D03*
D10*
G36*
X123803428Y-122770782D02*
G01*
X123819202Y-122773122D01*
X123834671Y-122776997D01*
X123849686Y-122782370D01*
X123864102Y-122789188D01*
X123877780Y-122797386D01*
X123890589Y-122806886D01*
X123902405Y-122817595D01*
X123913114Y-122829411D01*
X123922614Y-122842220D01*
X123930812Y-122855898D01*
X123937630Y-122870314D01*
X123943003Y-122885329D01*
X123946878Y-122900798D01*
X123949218Y-122916572D01*
X123950000Y-122932500D01*
X123950000Y-123257500D01*
X123949218Y-123273428D01*
X123946878Y-123289202D01*
X123943003Y-123304671D01*
X123937630Y-123319686D01*
X123930812Y-123334102D01*
X123922614Y-123347780D01*
X123913114Y-123360589D01*
X123902405Y-123372405D01*
X123890589Y-123383114D01*
X123877780Y-123392614D01*
X123864102Y-123400812D01*
X123849686Y-123407630D01*
X123834671Y-123413003D01*
X123819202Y-123416878D01*
X123803428Y-123419218D01*
X123787500Y-123420000D01*
X122137500Y-123420000D01*
X122121572Y-123419218D01*
X122105798Y-123416878D01*
X122090329Y-123413003D01*
X122075314Y-123407630D01*
X122060898Y-123400812D01*
X122047220Y-123392614D01*
X122034411Y-123383114D01*
X122022595Y-123372405D01*
X122011886Y-123360589D01*
X122002386Y-123347780D01*
X121994188Y-123334102D01*
X121987370Y-123319686D01*
X121981997Y-123304671D01*
X121978122Y-123289202D01*
X121975782Y-123273428D01*
X121975000Y-123257500D01*
X121975000Y-122932500D01*
X121975782Y-122916572D01*
X121978122Y-122900798D01*
X121981997Y-122885329D01*
X121987370Y-122870314D01*
X121994188Y-122855898D01*
X122002386Y-122842220D01*
X122011886Y-122829411D01*
X122022595Y-122817595D01*
X122034411Y-122806886D01*
X122047220Y-122797386D01*
X122060898Y-122789188D01*
X122075314Y-122782370D01*
X122090329Y-122776997D01*
X122105798Y-122773122D01*
X122121572Y-122770782D01*
X122137500Y-122770000D01*
X123787500Y-122770000D01*
X123803428Y-122770782D01*
X123803428Y-122770782D01*
G37*
D11*
X122962500Y-123095000D03*
D10*
G36*
X128878428Y-122770782D02*
G01*
X128894202Y-122773122D01*
X128909671Y-122776997D01*
X128924686Y-122782370D01*
X128939102Y-122789188D01*
X128952780Y-122797386D01*
X128965589Y-122806886D01*
X128977405Y-122817595D01*
X128988114Y-122829411D01*
X128997614Y-122842220D01*
X129005812Y-122855898D01*
X129012630Y-122870314D01*
X129018003Y-122885329D01*
X129021878Y-122900798D01*
X129024218Y-122916572D01*
X129025000Y-122932500D01*
X129025000Y-123257500D01*
X129024218Y-123273428D01*
X129021878Y-123289202D01*
X129018003Y-123304671D01*
X129012630Y-123319686D01*
X129005812Y-123334102D01*
X128997614Y-123347780D01*
X128988114Y-123360589D01*
X128977405Y-123372405D01*
X128965589Y-123383114D01*
X128952780Y-123392614D01*
X128939102Y-123400812D01*
X128924686Y-123407630D01*
X128909671Y-123413003D01*
X128894202Y-123416878D01*
X128878428Y-123419218D01*
X128862500Y-123420000D01*
X127212500Y-123420000D01*
X127196572Y-123419218D01*
X127180798Y-123416878D01*
X127165329Y-123413003D01*
X127150314Y-123407630D01*
X127135898Y-123400812D01*
X127122220Y-123392614D01*
X127109411Y-123383114D01*
X127097595Y-123372405D01*
X127086886Y-123360589D01*
X127077386Y-123347780D01*
X127069188Y-123334102D01*
X127062370Y-123319686D01*
X127056997Y-123304671D01*
X127053122Y-123289202D01*
X127050782Y-123273428D01*
X127050000Y-123257500D01*
X127050000Y-122932500D01*
X127050782Y-122916572D01*
X127053122Y-122900798D01*
X127056997Y-122885329D01*
X127062370Y-122870314D01*
X127069188Y-122855898D01*
X127077386Y-122842220D01*
X127086886Y-122829411D01*
X127097595Y-122817595D01*
X127109411Y-122806886D01*
X127122220Y-122797386D01*
X127135898Y-122789188D01*
X127150314Y-122782370D01*
X127165329Y-122776997D01*
X127180798Y-122773122D01*
X127196572Y-122770782D01*
X127212500Y-122770000D01*
X128862500Y-122770000D01*
X128878428Y-122770782D01*
X128878428Y-122770782D01*
G37*
D11*
X128037500Y-123095000D03*
D10*
G36*
X128878428Y-124040782D02*
G01*
X128894202Y-124043122D01*
X128909671Y-124046997D01*
X128924686Y-124052370D01*
X128939102Y-124059188D01*
X128952780Y-124067386D01*
X128965589Y-124076886D01*
X128977405Y-124087595D01*
X128988114Y-124099411D01*
X128997614Y-124112220D01*
X129005812Y-124125898D01*
X129012630Y-124140314D01*
X129018003Y-124155329D01*
X129021878Y-124170798D01*
X129024218Y-124186572D01*
X129025000Y-124202500D01*
X129025000Y-124527500D01*
X129024218Y-124543428D01*
X129021878Y-124559202D01*
X129018003Y-124574671D01*
X129012630Y-124589686D01*
X129005812Y-124604102D01*
X128997614Y-124617780D01*
X128988114Y-124630589D01*
X128977405Y-124642405D01*
X128965589Y-124653114D01*
X128952780Y-124662614D01*
X128939102Y-124670812D01*
X128924686Y-124677630D01*
X128909671Y-124683003D01*
X128894202Y-124686878D01*
X128878428Y-124689218D01*
X128862500Y-124690000D01*
X127212500Y-124690000D01*
X127196572Y-124689218D01*
X127180798Y-124686878D01*
X127165329Y-124683003D01*
X127150314Y-124677630D01*
X127135898Y-124670812D01*
X127122220Y-124662614D01*
X127109411Y-124653114D01*
X127097595Y-124642405D01*
X127086886Y-124630589D01*
X127077386Y-124617780D01*
X127069188Y-124604102D01*
X127062370Y-124589686D01*
X127056997Y-124574671D01*
X127053122Y-124559202D01*
X127050782Y-124543428D01*
X127050000Y-124527500D01*
X127050000Y-124202500D01*
X127050782Y-124186572D01*
X127053122Y-124170798D01*
X127056997Y-124155329D01*
X127062370Y-124140314D01*
X127069188Y-124125898D01*
X127077386Y-124112220D01*
X127086886Y-124099411D01*
X127097595Y-124087595D01*
X127109411Y-124076886D01*
X127122220Y-124067386D01*
X127135898Y-124059188D01*
X127150314Y-124052370D01*
X127165329Y-124046997D01*
X127180798Y-124043122D01*
X127196572Y-124040782D01*
X127212500Y-124040000D01*
X128862500Y-124040000D01*
X128878428Y-124040782D01*
X128878428Y-124040782D01*
G37*
D11*
X128037500Y-124365000D03*
D10*
G36*
X128878428Y-125310782D02*
G01*
X128894202Y-125313122D01*
X128909671Y-125316997D01*
X128924686Y-125322370D01*
X128939102Y-125329188D01*
X128952780Y-125337386D01*
X128965589Y-125346886D01*
X128977405Y-125357595D01*
X128988114Y-125369411D01*
X128997614Y-125382220D01*
X129005812Y-125395898D01*
X129012630Y-125410314D01*
X129018003Y-125425329D01*
X129021878Y-125440798D01*
X129024218Y-125456572D01*
X129025000Y-125472500D01*
X129025000Y-125797500D01*
X129024218Y-125813428D01*
X129021878Y-125829202D01*
X129018003Y-125844671D01*
X129012630Y-125859686D01*
X129005812Y-125874102D01*
X128997614Y-125887780D01*
X128988114Y-125900589D01*
X128977405Y-125912405D01*
X128965589Y-125923114D01*
X128952780Y-125932614D01*
X128939102Y-125940812D01*
X128924686Y-125947630D01*
X128909671Y-125953003D01*
X128894202Y-125956878D01*
X128878428Y-125959218D01*
X128862500Y-125960000D01*
X127212500Y-125960000D01*
X127196572Y-125959218D01*
X127180798Y-125956878D01*
X127165329Y-125953003D01*
X127150314Y-125947630D01*
X127135898Y-125940812D01*
X127122220Y-125932614D01*
X127109411Y-125923114D01*
X127097595Y-125912405D01*
X127086886Y-125900589D01*
X127077386Y-125887780D01*
X127069188Y-125874102D01*
X127062370Y-125859686D01*
X127056997Y-125844671D01*
X127053122Y-125829202D01*
X127050782Y-125813428D01*
X127050000Y-125797500D01*
X127050000Y-125472500D01*
X127050782Y-125456572D01*
X127053122Y-125440798D01*
X127056997Y-125425329D01*
X127062370Y-125410314D01*
X127069188Y-125395898D01*
X127077386Y-125382220D01*
X127086886Y-125369411D01*
X127097595Y-125357595D01*
X127109411Y-125346886D01*
X127122220Y-125337386D01*
X127135898Y-125329188D01*
X127150314Y-125322370D01*
X127165329Y-125316997D01*
X127180798Y-125313122D01*
X127196572Y-125310782D01*
X127212500Y-125310000D01*
X128862500Y-125310000D01*
X128878428Y-125310782D01*
X128878428Y-125310782D01*
G37*
D11*
X128037500Y-125635000D03*
D10*
G36*
X128878428Y-126580782D02*
G01*
X128894202Y-126583122D01*
X128909671Y-126586997D01*
X128924686Y-126592370D01*
X128939102Y-126599188D01*
X128952780Y-126607386D01*
X128965589Y-126616886D01*
X128977405Y-126627595D01*
X128988114Y-126639411D01*
X128997614Y-126652220D01*
X129005812Y-126665898D01*
X129012630Y-126680314D01*
X129018003Y-126695329D01*
X129021878Y-126710798D01*
X129024218Y-126726572D01*
X129025000Y-126742500D01*
X129025000Y-127067500D01*
X129024218Y-127083428D01*
X129021878Y-127099202D01*
X129018003Y-127114671D01*
X129012630Y-127129686D01*
X129005812Y-127144102D01*
X128997614Y-127157780D01*
X128988114Y-127170589D01*
X128977405Y-127182405D01*
X128965589Y-127193114D01*
X128952780Y-127202614D01*
X128939102Y-127210812D01*
X128924686Y-127217630D01*
X128909671Y-127223003D01*
X128894202Y-127226878D01*
X128878428Y-127229218D01*
X128862500Y-127230000D01*
X127212500Y-127230000D01*
X127196572Y-127229218D01*
X127180798Y-127226878D01*
X127165329Y-127223003D01*
X127150314Y-127217630D01*
X127135898Y-127210812D01*
X127122220Y-127202614D01*
X127109411Y-127193114D01*
X127097595Y-127182405D01*
X127086886Y-127170589D01*
X127077386Y-127157780D01*
X127069188Y-127144102D01*
X127062370Y-127129686D01*
X127056997Y-127114671D01*
X127053122Y-127099202D01*
X127050782Y-127083428D01*
X127050000Y-127067500D01*
X127050000Y-126742500D01*
X127050782Y-126726572D01*
X127053122Y-126710798D01*
X127056997Y-126695329D01*
X127062370Y-126680314D01*
X127069188Y-126665898D01*
X127077386Y-126652220D01*
X127086886Y-126639411D01*
X127097595Y-126627595D01*
X127109411Y-126616886D01*
X127122220Y-126607386D01*
X127135898Y-126599188D01*
X127150314Y-126592370D01*
X127165329Y-126586997D01*
X127180798Y-126583122D01*
X127196572Y-126580782D01*
X127212500Y-126580000D01*
X128862500Y-126580000D01*
X128878428Y-126580782D01*
X128878428Y-126580782D01*
G37*
D11*
X128037500Y-126905000D03*
D10*
G36*
X129277691Y-120351053D02*
G01*
X129298926Y-120354203D01*
X129319750Y-120359419D01*
X129339962Y-120366651D01*
X129359368Y-120375830D01*
X129377781Y-120386866D01*
X129395024Y-120399654D01*
X129410930Y-120414070D01*
X129425346Y-120429976D01*
X129438134Y-120447219D01*
X129449170Y-120465632D01*
X129458349Y-120485038D01*
X129465581Y-120505250D01*
X129470797Y-120526074D01*
X129473947Y-120547309D01*
X129475000Y-120568750D01*
X129475000Y-121006250D01*
X129473947Y-121027691D01*
X129470797Y-121048926D01*
X129465581Y-121069750D01*
X129458349Y-121089962D01*
X129449170Y-121109368D01*
X129438134Y-121127781D01*
X129425346Y-121145024D01*
X129410930Y-121160930D01*
X129395024Y-121175346D01*
X129377781Y-121188134D01*
X129359368Y-121199170D01*
X129339962Y-121208349D01*
X129319750Y-121215581D01*
X129298926Y-121220797D01*
X129277691Y-121223947D01*
X129256250Y-121225000D01*
X128743750Y-121225000D01*
X128722309Y-121223947D01*
X128701074Y-121220797D01*
X128680250Y-121215581D01*
X128660038Y-121208349D01*
X128640632Y-121199170D01*
X128622219Y-121188134D01*
X128604976Y-121175346D01*
X128589070Y-121160930D01*
X128574654Y-121145024D01*
X128561866Y-121127781D01*
X128550830Y-121109368D01*
X128541651Y-121089962D01*
X128534419Y-121069750D01*
X128529203Y-121048926D01*
X128526053Y-121027691D01*
X128525000Y-121006250D01*
X128525000Y-120568750D01*
X128526053Y-120547309D01*
X128529203Y-120526074D01*
X128534419Y-120505250D01*
X128541651Y-120485038D01*
X128550830Y-120465632D01*
X128561866Y-120447219D01*
X128574654Y-120429976D01*
X128589070Y-120414070D01*
X128604976Y-120399654D01*
X128622219Y-120386866D01*
X128640632Y-120375830D01*
X128660038Y-120366651D01*
X128680250Y-120359419D01*
X128701074Y-120354203D01*
X128722309Y-120351053D01*
X128743750Y-120350000D01*
X129256250Y-120350000D01*
X129277691Y-120351053D01*
X129277691Y-120351053D01*
G37*
D12*
X129000000Y-120787500D03*
D10*
G36*
X129277691Y-118776053D02*
G01*
X129298926Y-118779203D01*
X129319750Y-118784419D01*
X129339962Y-118791651D01*
X129359368Y-118800830D01*
X129377781Y-118811866D01*
X129395024Y-118824654D01*
X129410930Y-118839070D01*
X129425346Y-118854976D01*
X129438134Y-118872219D01*
X129449170Y-118890632D01*
X129458349Y-118910038D01*
X129465581Y-118930250D01*
X129470797Y-118951074D01*
X129473947Y-118972309D01*
X129475000Y-118993750D01*
X129475000Y-119431250D01*
X129473947Y-119452691D01*
X129470797Y-119473926D01*
X129465581Y-119494750D01*
X129458349Y-119514962D01*
X129449170Y-119534368D01*
X129438134Y-119552781D01*
X129425346Y-119570024D01*
X129410930Y-119585930D01*
X129395024Y-119600346D01*
X129377781Y-119613134D01*
X129359368Y-119624170D01*
X129339962Y-119633349D01*
X129319750Y-119640581D01*
X129298926Y-119645797D01*
X129277691Y-119648947D01*
X129256250Y-119650000D01*
X128743750Y-119650000D01*
X128722309Y-119648947D01*
X128701074Y-119645797D01*
X128680250Y-119640581D01*
X128660038Y-119633349D01*
X128640632Y-119624170D01*
X128622219Y-119613134D01*
X128604976Y-119600346D01*
X128589070Y-119585930D01*
X128574654Y-119570024D01*
X128561866Y-119552781D01*
X128550830Y-119534368D01*
X128541651Y-119514962D01*
X128534419Y-119494750D01*
X128529203Y-119473926D01*
X128526053Y-119452691D01*
X128525000Y-119431250D01*
X128525000Y-118993750D01*
X128526053Y-118972309D01*
X128529203Y-118951074D01*
X128534419Y-118930250D01*
X128541651Y-118910038D01*
X128550830Y-118890632D01*
X128561866Y-118872219D01*
X128574654Y-118854976D01*
X128589070Y-118839070D01*
X128604976Y-118824654D01*
X128622219Y-118811866D01*
X128640632Y-118800830D01*
X128660038Y-118791651D01*
X128680250Y-118784419D01*
X128701074Y-118779203D01*
X128722309Y-118776053D01*
X128743750Y-118775000D01*
X129256250Y-118775000D01*
X129277691Y-118776053D01*
X129277691Y-118776053D01*
G37*
D12*
X129000000Y-119212500D03*
D10*
G36*
X129277691Y-111776053D02*
G01*
X129298926Y-111779203D01*
X129319750Y-111784419D01*
X129339962Y-111791651D01*
X129359368Y-111800830D01*
X129377781Y-111811866D01*
X129395024Y-111824654D01*
X129410930Y-111839070D01*
X129425346Y-111854976D01*
X129438134Y-111872219D01*
X129449170Y-111890632D01*
X129458349Y-111910038D01*
X129465581Y-111930250D01*
X129470797Y-111951074D01*
X129473947Y-111972309D01*
X129475000Y-111993750D01*
X129475000Y-112431250D01*
X129473947Y-112452691D01*
X129470797Y-112473926D01*
X129465581Y-112494750D01*
X129458349Y-112514962D01*
X129449170Y-112534368D01*
X129438134Y-112552781D01*
X129425346Y-112570024D01*
X129410930Y-112585930D01*
X129395024Y-112600346D01*
X129377781Y-112613134D01*
X129359368Y-112624170D01*
X129339962Y-112633349D01*
X129319750Y-112640581D01*
X129298926Y-112645797D01*
X129277691Y-112648947D01*
X129256250Y-112650000D01*
X128743750Y-112650000D01*
X128722309Y-112648947D01*
X128701074Y-112645797D01*
X128680250Y-112640581D01*
X128660038Y-112633349D01*
X128640632Y-112624170D01*
X128622219Y-112613134D01*
X128604976Y-112600346D01*
X128589070Y-112585930D01*
X128574654Y-112570024D01*
X128561866Y-112552781D01*
X128550830Y-112534368D01*
X128541651Y-112514962D01*
X128534419Y-112494750D01*
X128529203Y-112473926D01*
X128526053Y-112452691D01*
X128525000Y-112431250D01*
X128525000Y-111993750D01*
X128526053Y-111972309D01*
X128529203Y-111951074D01*
X128534419Y-111930250D01*
X128541651Y-111910038D01*
X128550830Y-111890632D01*
X128561866Y-111872219D01*
X128574654Y-111854976D01*
X128589070Y-111839070D01*
X128604976Y-111824654D01*
X128622219Y-111811866D01*
X128640632Y-111800830D01*
X128660038Y-111791651D01*
X128680250Y-111784419D01*
X128701074Y-111779203D01*
X128722309Y-111776053D01*
X128743750Y-111775000D01*
X129256250Y-111775000D01*
X129277691Y-111776053D01*
X129277691Y-111776053D01*
G37*
D12*
X129000000Y-112212500D03*
D10*
G36*
X129277691Y-113351053D02*
G01*
X129298926Y-113354203D01*
X129319750Y-113359419D01*
X129339962Y-113366651D01*
X129359368Y-113375830D01*
X129377781Y-113386866D01*
X129395024Y-113399654D01*
X129410930Y-113414070D01*
X129425346Y-113429976D01*
X129438134Y-113447219D01*
X129449170Y-113465632D01*
X129458349Y-113485038D01*
X129465581Y-113505250D01*
X129470797Y-113526074D01*
X129473947Y-113547309D01*
X129475000Y-113568750D01*
X129475000Y-114006250D01*
X129473947Y-114027691D01*
X129470797Y-114048926D01*
X129465581Y-114069750D01*
X129458349Y-114089962D01*
X129449170Y-114109368D01*
X129438134Y-114127781D01*
X129425346Y-114145024D01*
X129410930Y-114160930D01*
X129395024Y-114175346D01*
X129377781Y-114188134D01*
X129359368Y-114199170D01*
X129339962Y-114208349D01*
X129319750Y-114215581D01*
X129298926Y-114220797D01*
X129277691Y-114223947D01*
X129256250Y-114225000D01*
X128743750Y-114225000D01*
X128722309Y-114223947D01*
X128701074Y-114220797D01*
X128680250Y-114215581D01*
X128660038Y-114208349D01*
X128640632Y-114199170D01*
X128622219Y-114188134D01*
X128604976Y-114175346D01*
X128589070Y-114160930D01*
X128574654Y-114145024D01*
X128561866Y-114127781D01*
X128550830Y-114109368D01*
X128541651Y-114089962D01*
X128534419Y-114069750D01*
X128529203Y-114048926D01*
X128526053Y-114027691D01*
X128525000Y-114006250D01*
X128525000Y-113568750D01*
X128526053Y-113547309D01*
X128529203Y-113526074D01*
X128534419Y-113505250D01*
X128541651Y-113485038D01*
X128550830Y-113465632D01*
X128561866Y-113447219D01*
X128574654Y-113429976D01*
X128589070Y-113414070D01*
X128604976Y-113399654D01*
X128622219Y-113386866D01*
X128640632Y-113375830D01*
X128660038Y-113366651D01*
X128680250Y-113359419D01*
X128701074Y-113354203D01*
X128722309Y-113351053D01*
X128743750Y-113350000D01*
X129256250Y-113350000D01*
X129277691Y-113351053D01*
X129277691Y-113351053D01*
G37*
D12*
X129000000Y-113787500D03*
D10*
G36*
X129277691Y-108351053D02*
G01*
X129298926Y-108354203D01*
X129319750Y-108359419D01*
X129339962Y-108366651D01*
X129359368Y-108375830D01*
X129377781Y-108386866D01*
X129395024Y-108399654D01*
X129410930Y-108414070D01*
X129425346Y-108429976D01*
X129438134Y-108447219D01*
X129449170Y-108465632D01*
X129458349Y-108485038D01*
X129465581Y-108505250D01*
X129470797Y-108526074D01*
X129473947Y-108547309D01*
X129475000Y-108568750D01*
X129475000Y-109006250D01*
X129473947Y-109027691D01*
X129470797Y-109048926D01*
X129465581Y-109069750D01*
X129458349Y-109089962D01*
X129449170Y-109109368D01*
X129438134Y-109127781D01*
X129425346Y-109145024D01*
X129410930Y-109160930D01*
X129395024Y-109175346D01*
X129377781Y-109188134D01*
X129359368Y-109199170D01*
X129339962Y-109208349D01*
X129319750Y-109215581D01*
X129298926Y-109220797D01*
X129277691Y-109223947D01*
X129256250Y-109225000D01*
X128743750Y-109225000D01*
X128722309Y-109223947D01*
X128701074Y-109220797D01*
X128680250Y-109215581D01*
X128660038Y-109208349D01*
X128640632Y-109199170D01*
X128622219Y-109188134D01*
X128604976Y-109175346D01*
X128589070Y-109160930D01*
X128574654Y-109145024D01*
X128561866Y-109127781D01*
X128550830Y-109109368D01*
X128541651Y-109089962D01*
X128534419Y-109069750D01*
X128529203Y-109048926D01*
X128526053Y-109027691D01*
X128525000Y-109006250D01*
X128525000Y-108568750D01*
X128526053Y-108547309D01*
X128529203Y-108526074D01*
X128534419Y-108505250D01*
X128541651Y-108485038D01*
X128550830Y-108465632D01*
X128561866Y-108447219D01*
X128574654Y-108429976D01*
X128589070Y-108414070D01*
X128604976Y-108399654D01*
X128622219Y-108386866D01*
X128640632Y-108375830D01*
X128660038Y-108366651D01*
X128680250Y-108359419D01*
X128701074Y-108354203D01*
X128722309Y-108351053D01*
X128743750Y-108350000D01*
X129256250Y-108350000D01*
X129277691Y-108351053D01*
X129277691Y-108351053D01*
G37*
D12*
X129000000Y-108787500D03*
D10*
G36*
X129277691Y-106776053D02*
G01*
X129298926Y-106779203D01*
X129319750Y-106784419D01*
X129339962Y-106791651D01*
X129359368Y-106800830D01*
X129377781Y-106811866D01*
X129395024Y-106824654D01*
X129410930Y-106839070D01*
X129425346Y-106854976D01*
X129438134Y-106872219D01*
X129449170Y-106890632D01*
X129458349Y-106910038D01*
X129465581Y-106930250D01*
X129470797Y-106951074D01*
X129473947Y-106972309D01*
X129475000Y-106993750D01*
X129475000Y-107431250D01*
X129473947Y-107452691D01*
X129470797Y-107473926D01*
X129465581Y-107494750D01*
X129458349Y-107514962D01*
X129449170Y-107534368D01*
X129438134Y-107552781D01*
X129425346Y-107570024D01*
X129410930Y-107585930D01*
X129395024Y-107600346D01*
X129377781Y-107613134D01*
X129359368Y-107624170D01*
X129339962Y-107633349D01*
X129319750Y-107640581D01*
X129298926Y-107645797D01*
X129277691Y-107648947D01*
X129256250Y-107650000D01*
X128743750Y-107650000D01*
X128722309Y-107648947D01*
X128701074Y-107645797D01*
X128680250Y-107640581D01*
X128660038Y-107633349D01*
X128640632Y-107624170D01*
X128622219Y-107613134D01*
X128604976Y-107600346D01*
X128589070Y-107585930D01*
X128574654Y-107570024D01*
X128561866Y-107552781D01*
X128550830Y-107534368D01*
X128541651Y-107514962D01*
X128534419Y-107494750D01*
X128529203Y-107473926D01*
X128526053Y-107452691D01*
X128525000Y-107431250D01*
X128525000Y-106993750D01*
X128526053Y-106972309D01*
X128529203Y-106951074D01*
X128534419Y-106930250D01*
X128541651Y-106910038D01*
X128550830Y-106890632D01*
X128561866Y-106872219D01*
X128574654Y-106854976D01*
X128589070Y-106839070D01*
X128604976Y-106824654D01*
X128622219Y-106811866D01*
X128640632Y-106800830D01*
X128660038Y-106791651D01*
X128680250Y-106784419D01*
X128701074Y-106779203D01*
X128722309Y-106776053D01*
X128743750Y-106775000D01*
X129256250Y-106775000D01*
X129277691Y-106776053D01*
X129277691Y-106776053D01*
G37*
D12*
X129000000Y-107212500D03*
D10*
G36*
X127299504Y-117176204D02*
G01*
X127323773Y-117179804D01*
X127347571Y-117185765D01*
X127370671Y-117194030D01*
X127392849Y-117204520D01*
X127413893Y-117217133D01*
X127433598Y-117231747D01*
X127451777Y-117248223D01*
X127468253Y-117266402D01*
X127482867Y-117286107D01*
X127495480Y-117307151D01*
X127505970Y-117329329D01*
X127514235Y-117352429D01*
X127520196Y-117376227D01*
X127523796Y-117400496D01*
X127525000Y-117425000D01*
X127525000Y-119575000D01*
X127523796Y-119599504D01*
X127520196Y-119623773D01*
X127514235Y-119647571D01*
X127505970Y-119670671D01*
X127495480Y-119692849D01*
X127482867Y-119713893D01*
X127468253Y-119733598D01*
X127451777Y-119751777D01*
X127433598Y-119768253D01*
X127413893Y-119782867D01*
X127392849Y-119795480D01*
X127370671Y-119805970D01*
X127347571Y-119814235D01*
X127323773Y-119820196D01*
X127299504Y-119823796D01*
X127275000Y-119825000D01*
X126525000Y-119825000D01*
X126500496Y-119823796D01*
X126476227Y-119820196D01*
X126452429Y-119814235D01*
X126429329Y-119805970D01*
X126407151Y-119795480D01*
X126386107Y-119782867D01*
X126366402Y-119768253D01*
X126348223Y-119751777D01*
X126331747Y-119733598D01*
X126317133Y-119713893D01*
X126304520Y-119692849D01*
X126294030Y-119670671D01*
X126285765Y-119647571D01*
X126279804Y-119623773D01*
X126276204Y-119599504D01*
X126275000Y-119575000D01*
X126275000Y-117425000D01*
X126276204Y-117400496D01*
X126279804Y-117376227D01*
X126285765Y-117352429D01*
X126294030Y-117329329D01*
X126304520Y-117307151D01*
X126317133Y-117286107D01*
X126331747Y-117266402D01*
X126348223Y-117248223D01*
X126366402Y-117231747D01*
X126386107Y-117217133D01*
X126407151Y-117204520D01*
X126429329Y-117194030D01*
X126452429Y-117185765D01*
X126476227Y-117179804D01*
X126500496Y-117176204D01*
X126525000Y-117175000D01*
X127275000Y-117175000D01*
X127299504Y-117176204D01*
X127299504Y-117176204D01*
G37*
D13*
X126900000Y-118500000D03*
D10*
G36*
X124499504Y-117176204D02*
G01*
X124523773Y-117179804D01*
X124547571Y-117185765D01*
X124570671Y-117194030D01*
X124592849Y-117204520D01*
X124613893Y-117217133D01*
X124633598Y-117231747D01*
X124651777Y-117248223D01*
X124668253Y-117266402D01*
X124682867Y-117286107D01*
X124695480Y-117307151D01*
X124705970Y-117329329D01*
X124714235Y-117352429D01*
X124720196Y-117376227D01*
X124723796Y-117400496D01*
X124725000Y-117425000D01*
X124725000Y-119575000D01*
X124723796Y-119599504D01*
X124720196Y-119623773D01*
X124714235Y-119647571D01*
X124705970Y-119670671D01*
X124695480Y-119692849D01*
X124682867Y-119713893D01*
X124668253Y-119733598D01*
X124651777Y-119751777D01*
X124633598Y-119768253D01*
X124613893Y-119782867D01*
X124592849Y-119795480D01*
X124570671Y-119805970D01*
X124547571Y-119814235D01*
X124523773Y-119820196D01*
X124499504Y-119823796D01*
X124475000Y-119825000D01*
X123725000Y-119825000D01*
X123700496Y-119823796D01*
X123676227Y-119820196D01*
X123652429Y-119814235D01*
X123629329Y-119805970D01*
X123607151Y-119795480D01*
X123586107Y-119782867D01*
X123566402Y-119768253D01*
X123548223Y-119751777D01*
X123531747Y-119733598D01*
X123517133Y-119713893D01*
X123504520Y-119692849D01*
X123494030Y-119670671D01*
X123485765Y-119647571D01*
X123479804Y-119623773D01*
X123476204Y-119599504D01*
X123475000Y-119575000D01*
X123475000Y-117425000D01*
X123476204Y-117400496D01*
X123479804Y-117376227D01*
X123485765Y-117352429D01*
X123494030Y-117329329D01*
X123504520Y-117307151D01*
X123517133Y-117286107D01*
X123531747Y-117266402D01*
X123548223Y-117248223D01*
X123566402Y-117231747D01*
X123586107Y-117217133D01*
X123607151Y-117204520D01*
X123629329Y-117194030D01*
X123652429Y-117185765D01*
X123676227Y-117179804D01*
X123700496Y-117176204D01*
X123725000Y-117175000D01*
X124475000Y-117175000D01*
X124499504Y-117176204D01*
X124499504Y-117176204D01*
G37*
D13*
X124100000Y-118500000D03*
D10*
G36*
X127299504Y-113676204D02*
G01*
X127323773Y-113679804D01*
X127347571Y-113685765D01*
X127370671Y-113694030D01*
X127392849Y-113704520D01*
X127413893Y-113717133D01*
X127433598Y-113731747D01*
X127451777Y-113748223D01*
X127468253Y-113766402D01*
X127482867Y-113786107D01*
X127495480Y-113807151D01*
X127505970Y-113829329D01*
X127514235Y-113852429D01*
X127520196Y-113876227D01*
X127523796Y-113900496D01*
X127525000Y-113925000D01*
X127525000Y-116075000D01*
X127523796Y-116099504D01*
X127520196Y-116123773D01*
X127514235Y-116147571D01*
X127505970Y-116170671D01*
X127495480Y-116192849D01*
X127482867Y-116213893D01*
X127468253Y-116233598D01*
X127451777Y-116251777D01*
X127433598Y-116268253D01*
X127413893Y-116282867D01*
X127392849Y-116295480D01*
X127370671Y-116305970D01*
X127347571Y-116314235D01*
X127323773Y-116320196D01*
X127299504Y-116323796D01*
X127275000Y-116325000D01*
X126525000Y-116325000D01*
X126500496Y-116323796D01*
X126476227Y-116320196D01*
X126452429Y-116314235D01*
X126429329Y-116305970D01*
X126407151Y-116295480D01*
X126386107Y-116282867D01*
X126366402Y-116268253D01*
X126348223Y-116251777D01*
X126331747Y-116233598D01*
X126317133Y-116213893D01*
X126304520Y-116192849D01*
X126294030Y-116170671D01*
X126285765Y-116147571D01*
X126279804Y-116123773D01*
X126276204Y-116099504D01*
X126275000Y-116075000D01*
X126275000Y-113925000D01*
X126276204Y-113900496D01*
X126279804Y-113876227D01*
X126285765Y-113852429D01*
X126294030Y-113829329D01*
X126304520Y-113807151D01*
X126317133Y-113786107D01*
X126331747Y-113766402D01*
X126348223Y-113748223D01*
X126366402Y-113731747D01*
X126386107Y-113717133D01*
X126407151Y-113704520D01*
X126429329Y-113694030D01*
X126452429Y-113685765D01*
X126476227Y-113679804D01*
X126500496Y-113676204D01*
X126525000Y-113675000D01*
X127275000Y-113675000D01*
X127299504Y-113676204D01*
X127299504Y-113676204D01*
G37*
D13*
X126900000Y-115000000D03*
D10*
G36*
X124499504Y-113676204D02*
G01*
X124523773Y-113679804D01*
X124547571Y-113685765D01*
X124570671Y-113694030D01*
X124592849Y-113704520D01*
X124613893Y-113717133D01*
X124633598Y-113731747D01*
X124651777Y-113748223D01*
X124668253Y-113766402D01*
X124682867Y-113786107D01*
X124695480Y-113807151D01*
X124705970Y-113829329D01*
X124714235Y-113852429D01*
X124720196Y-113876227D01*
X124723796Y-113900496D01*
X124725000Y-113925000D01*
X124725000Y-116075000D01*
X124723796Y-116099504D01*
X124720196Y-116123773D01*
X124714235Y-116147571D01*
X124705970Y-116170671D01*
X124695480Y-116192849D01*
X124682867Y-116213893D01*
X124668253Y-116233598D01*
X124651777Y-116251777D01*
X124633598Y-116268253D01*
X124613893Y-116282867D01*
X124592849Y-116295480D01*
X124570671Y-116305970D01*
X124547571Y-116314235D01*
X124523773Y-116320196D01*
X124499504Y-116323796D01*
X124475000Y-116325000D01*
X123725000Y-116325000D01*
X123700496Y-116323796D01*
X123676227Y-116320196D01*
X123652429Y-116314235D01*
X123629329Y-116305970D01*
X123607151Y-116295480D01*
X123586107Y-116282867D01*
X123566402Y-116268253D01*
X123548223Y-116251777D01*
X123531747Y-116233598D01*
X123517133Y-116213893D01*
X123504520Y-116192849D01*
X123494030Y-116170671D01*
X123485765Y-116147571D01*
X123479804Y-116123773D01*
X123476204Y-116099504D01*
X123475000Y-116075000D01*
X123475000Y-113925000D01*
X123476204Y-113900496D01*
X123479804Y-113876227D01*
X123485765Y-113852429D01*
X123494030Y-113829329D01*
X123504520Y-113807151D01*
X123517133Y-113786107D01*
X123531747Y-113766402D01*
X123548223Y-113748223D01*
X123566402Y-113731747D01*
X123586107Y-113717133D01*
X123607151Y-113704520D01*
X123629329Y-113694030D01*
X123652429Y-113685765D01*
X123676227Y-113679804D01*
X123700496Y-113676204D01*
X123725000Y-113675000D01*
X124475000Y-113675000D01*
X124499504Y-113676204D01*
X124499504Y-113676204D01*
G37*
D13*
X124100000Y-115000000D03*
D10*
G36*
X127299504Y-110176204D02*
G01*
X127323773Y-110179804D01*
X127347571Y-110185765D01*
X127370671Y-110194030D01*
X127392849Y-110204520D01*
X127413893Y-110217133D01*
X127433598Y-110231747D01*
X127451777Y-110248223D01*
X127468253Y-110266402D01*
X127482867Y-110286107D01*
X127495480Y-110307151D01*
X127505970Y-110329329D01*
X127514235Y-110352429D01*
X127520196Y-110376227D01*
X127523796Y-110400496D01*
X127525000Y-110425000D01*
X127525000Y-112575000D01*
X127523796Y-112599504D01*
X127520196Y-112623773D01*
X127514235Y-112647571D01*
X127505970Y-112670671D01*
X127495480Y-112692849D01*
X127482867Y-112713893D01*
X127468253Y-112733598D01*
X127451777Y-112751777D01*
X127433598Y-112768253D01*
X127413893Y-112782867D01*
X127392849Y-112795480D01*
X127370671Y-112805970D01*
X127347571Y-112814235D01*
X127323773Y-112820196D01*
X127299504Y-112823796D01*
X127275000Y-112825000D01*
X126525000Y-112825000D01*
X126500496Y-112823796D01*
X126476227Y-112820196D01*
X126452429Y-112814235D01*
X126429329Y-112805970D01*
X126407151Y-112795480D01*
X126386107Y-112782867D01*
X126366402Y-112768253D01*
X126348223Y-112751777D01*
X126331747Y-112733598D01*
X126317133Y-112713893D01*
X126304520Y-112692849D01*
X126294030Y-112670671D01*
X126285765Y-112647571D01*
X126279804Y-112623773D01*
X126276204Y-112599504D01*
X126275000Y-112575000D01*
X126275000Y-110425000D01*
X126276204Y-110400496D01*
X126279804Y-110376227D01*
X126285765Y-110352429D01*
X126294030Y-110329329D01*
X126304520Y-110307151D01*
X126317133Y-110286107D01*
X126331747Y-110266402D01*
X126348223Y-110248223D01*
X126366402Y-110231747D01*
X126386107Y-110217133D01*
X126407151Y-110204520D01*
X126429329Y-110194030D01*
X126452429Y-110185765D01*
X126476227Y-110179804D01*
X126500496Y-110176204D01*
X126525000Y-110175000D01*
X127275000Y-110175000D01*
X127299504Y-110176204D01*
X127299504Y-110176204D01*
G37*
D13*
X126900000Y-111500000D03*
D10*
G36*
X124499504Y-110176204D02*
G01*
X124523773Y-110179804D01*
X124547571Y-110185765D01*
X124570671Y-110194030D01*
X124592849Y-110204520D01*
X124613893Y-110217133D01*
X124633598Y-110231747D01*
X124651777Y-110248223D01*
X124668253Y-110266402D01*
X124682867Y-110286107D01*
X124695480Y-110307151D01*
X124705970Y-110329329D01*
X124714235Y-110352429D01*
X124720196Y-110376227D01*
X124723796Y-110400496D01*
X124725000Y-110425000D01*
X124725000Y-112575000D01*
X124723796Y-112599504D01*
X124720196Y-112623773D01*
X124714235Y-112647571D01*
X124705970Y-112670671D01*
X124695480Y-112692849D01*
X124682867Y-112713893D01*
X124668253Y-112733598D01*
X124651777Y-112751777D01*
X124633598Y-112768253D01*
X124613893Y-112782867D01*
X124592849Y-112795480D01*
X124570671Y-112805970D01*
X124547571Y-112814235D01*
X124523773Y-112820196D01*
X124499504Y-112823796D01*
X124475000Y-112825000D01*
X123725000Y-112825000D01*
X123700496Y-112823796D01*
X123676227Y-112820196D01*
X123652429Y-112814235D01*
X123629329Y-112805970D01*
X123607151Y-112795480D01*
X123586107Y-112782867D01*
X123566402Y-112768253D01*
X123548223Y-112751777D01*
X123531747Y-112733598D01*
X123517133Y-112713893D01*
X123504520Y-112692849D01*
X123494030Y-112670671D01*
X123485765Y-112647571D01*
X123479804Y-112623773D01*
X123476204Y-112599504D01*
X123475000Y-112575000D01*
X123475000Y-110425000D01*
X123476204Y-110400496D01*
X123479804Y-110376227D01*
X123485765Y-110352429D01*
X123494030Y-110329329D01*
X123504520Y-110307151D01*
X123517133Y-110286107D01*
X123531747Y-110266402D01*
X123548223Y-110248223D01*
X123566402Y-110231747D01*
X123586107Y-110217133D01*
X123607151Y-110204520D01*
X123629329Y-110194030D01*
X123652429Y-110185765D01*
X123676227Y-110179804D01*
X123700496Y-110176204D01*
X123725000Y-110175000D01*
X124475000Y-110175000D01*
X124499504Y-110176204D01*
X124499504Y-110176204D01*
G37*
D13*
X124100000Y-111500000D03*
D14*
X128425000Y-117500000D03*
D15*
X129575000Y-117100000D03*
X129575000Y-117900000D03*
D14*
X128425000Y-115500000D03*
D15*
X129575000Y-115100000D03*
X129575000Y-115900000D03*
D14*
X128425000Y-110500000D03*
D15*
X129575000Y-110100000D03*
X129575000Y-110900000D03*
D16*
X108780000Y-116700000D03*
X108780000Y-115000000D03*
X108780000Y-113300000D03*
D17*
X115000000Y-115000000D03*
D16*
X121220000Y-113300000D03*
X121220000Y-115000000D03*
X121220000Y-116700000D03*
D10*
G36*
X126527691Y-128526053D02*
G01*
X126548926Y-128529203D01*
X126569750Y-128534419D01*
X126589962Y-128541651D01*
X126609368Y-128550830D01*
X126627781Y-128561866D01*
X126645024Y-128574654D01*
X126660930Y-128589070D01*
X126675346Y-128604976D01*
X126688134Y-128622219D01*
X126699170Y-128640632D01*
X126708349Y-128660038D01*
X126715581Y-128680250D01*
X126720797Y-128701074D01*
X126723947Y-128722309D01*
X126725000Y-128743750D01*
X126725000Y-129256250D01*
X126723947Y-129277691D01*
X126720797Y-129298926D01*
X126715581Y-129319750D01*
X126708349Y-129339962D01*
X126699170Y-129359368D01*
X126688134Y-129377781D01*
X126675346Y-129395024D01*
X126660930Y-129410930D01*
X126645024Y-129425346D01*
X126627781Y-129438134D01*
X126609368Y-129449170D01*
X126589962Y-129458349D01*
X126569750Y-129465581D01*
X126548926Y-129470797D01*
X126527691Y-129473947D01*
X126506250Y-129475000D01*
X126068750Y-129475000D01*
X126047309Y-129473947D01*
X126026074Y-129470797D01*
X126005250Y-129465581D01*
X125985038Y-129458349D01*
X125965632Y-129449170D01*
X125947219Y-129438134D01*
X125929976Y-129425346D01*
X125914070Y-129410930D01*
X125899654Y-129395024D01*
X125886866Y-129377781D01*
X125875830Y-129359368D01*
X125866651Y-129339962D01*
X125859419Y-129319750D01*
X125854203Y-129298926D01*
X125851053Y-129277691D01*
X125850000Y-129256250D01*
X125850000Y-128743750D01*
X125851053Y-128722309D01*
X125854203Y-128701074D01*
X125859419Y-128680250D01*
X125866651Y-128660038D01*
X125875830Y-128640632D01*
X125886866Y-128622219D01*
X125899654Y-128604976D01*
X125914070Y-128589070D01*
X125929976Y-128574654D01*
X125947219Y-128561866D01*
X125965632Y-128550830D01*
X125985038Y-128541651D01*
X126005250Y-128534419D01*
X126026074Y-128529203D01*
X126047309Y-128526053D01*
X126068750Y-128525000D01*
X126506250Y-128525000D01*
X126527691Y-128526053D01*
X126527691Y-128526053D01*
G37*
D12*
X126287500Y-129000000D03*
D10*
G36*
X124952691Y-128526053D02*
G01*
X124973926Y-128529203D01*
X124994750Y-128534419D01*
X125014962Y-128541651D01*
X125034368Y-128550830D01*
X125052781Y-128561866D01*
X125070024Y-128574654D01*
X125085930Y-128589070D01*
X125100346Y-128604976D01*
X125113134Y-128622219D01*
X125124170Y-128640632D01*
X125133349Y-128660038D01*
X125140581Y-128680250D01*
X125145797Y-128701074D01*
X125148947Y-128722309D01*
X125150000Y-128743750D01*
X125150000Y-129256250D01*
X125148947Y-129277691D01*
X125145797Y-129298926D01*
X125140581Y-129319750D01*
X125133349Y-129339962D01*
X125124170Y-129359368D01*
X125113134Y-129377781D01*
X125100346Y-129395024D01*
X125085930Y-129410930D01*
X125070024Y-129425346D01*
X125052781Y-129438134D01*
X125034368Y-129449170D01*
X125014962Y-129458349D01*
X124994750Y-129465581D01*
X124973926Y-129470797D01*
X124952691Y-129473947D01*
X124931250Y-129475000D01*
X124493750Y-129475000D01*
X124472309Y-129473947D01*
X124451074Y-129470797D01*
X124430250Y-129465581D01*
X124410038Y-129458349D01*
X124390632Y-129449170D01*
X124372219Y-129438134D01*
X124354976Y-129425346D01*
X124339070Y-129410930D01*
X124324654Y-129395024D01*
X124311866Y-129377781D01*
X124300830Y-129359368D01*
X124291651Y-129339962D01*
X124284419Y-129319750D01*
X124279203Y-129298926D01*
X124276053Y-129277691D01*
X124275000Y-129256250D01*
X124275000Y-128743750D01*
X124276053Y-128722309D01*
X124279203Y-128701074D01*
X124284419Y-128680250D01*
X124291651Y-128660038D01*
X124300830Y-128640632D01*
X124311866Y-128622219D01*
X124324654Y-128604976D01*
X124339070Y-128589070D01*
X124354976Y-128574654D01*
X124372219Y-128561866D01*
X124390632Y-128550830D01*
X124410038Y-128541651D01*
X124430250Y-128534419D01*
X124451074Y-128529203D01*
X124472309Y-128526053D01*
X124493750Y-128525000D01*
X124931250Y-128525000D01*
X124952691Y-128526053D01*
X124952691Y-128526053D01*
G37*
D12*
X124712500Y-129000000D03*
D10*
G36*
X125952691Y-120526053D02*
G01*
X125973926Y-120529203D01*
X125994750Y-120534419D01*
X126014962Y-120541651D01*
X126034368Y-120550830D01*
X126052781Y-120561866D01*
X126070024Y-120574654D01*
X126085930Y-120589070D01*
X126100346Y-120604976D01*
X126113134Y-120622219D01*
X126124170Y-120640632D01*
X126133349Y-120660038D01*
X126140581Y-120680250D01*
X126145797Y-120701074D01*
X126148947Y-120722309D01*
X126150000Y-120743750D01*
X126150000Y-121256250D01*
X126148947Y-121277691D01*
X126145797Y-121298926D01*
X126140581Y-121319750D01*
X126133349Y-121339962D01*
X126124170Y-121359368D01*
X126113134Y-121377781D01*
X126100346Y-121395024D01*
X126085930Y-121410930D01*
X126070024Y-121425346D01*
X126052781Y-121438134D01*
X126034368Y-121449170D01*
X126014962Y-121458349D01*
X125994750Y-121465581D01*
X125973926Y-121470797D01*
X125952691Y-121473947D01*
X125931250Y-121475000D01*
X125493750Y-121475000D01*
X125472309Y-121473947D01*
X125451074Y-121470797D01*
X125430250Y-121465581D01*
X125410038Y-121458349D01*
X125390632Y-121449170D01*
X125372219Y-121438134D01*
X125354976Y-121425346D01*
X125339070Y-121410930D01*
X125324654Y-121395024D01*
X125311866Y-121377781D01*
X125300830Y-121359368D01*
X125291651Y-121339962D01*
X125284419Y-121319750D01*
X125279203Y-121298926D01*
X125276053Y-121277691D01*
X125275000Y-121256250D01*
X125275000Y-120743750D01*
X125276053Y-120722309D01*
X125279203Y-120701074D01*
X125284419Y-120680250D01*
X125291651Y-120660038D01*
X125300830Y-120640632D01*
X125311866Y-120622219D01*
X125324654Y-120604976D01*
X125339070Y-120589070D01*
X125354976Y-120574654D01*
X125372219Y-120561866D01*
X125390632Y-120550830D01*
X125410038Y-120541651D01*
X125430250Y-120534419D01*
X125451074Y-120529203D01*
X125472309Y-120526053D01*
X125493750Y-120525000D01*
X125931250Y-120525000D01*
X125952691Y-120526053D01*
X125952691Y-120526053D01*
G37*
D12*
X125712500Y-121000000D03*
D10*
G36*
X127527691Y-120526053D02*
G01*
X127548926Y-120529203D01*
X127569750Y-120534419D01*
X127589962Y-120541651D01*
X127609368Y-120550830D01*
X127627781Y-120561866D01*
X127645024Y-120574654D01*
X127660930Y-120589070D01*
X127675346Y-120604976D01*
X127688134Y-120622219D01*
X127699170Y-120640632D01*
X127708349Y-120660038D01*
X127715581Y-120680250D01*
X127720797Y-120701074D01*
X127723947Y-120722309D01*
X127725000Y-120743750D01*
X127725000Y-121256250D01*
X127723947Y-121277691D01*
X127720797Y-121298926D01*
X127715581Y-121319750D01*
X127708349Y-121339962D01*
X127699170Y-121359368D01*
X127688134Y-121377781D01*
X127675346Y-121395024D01*
X127660930Y-121410930D01*
X127645024Y-121425346D01*
X127627781Y-121438134D01*
X127609368Y-121449170D01*
X127589962Y-121458349D01*
X127569750Y-121465581D01*
X127548926Y-121470797D01*
X127527691Y-121473947D01*
X127506250Y-121475000D01*
X127068750Y-121475000D01*
X127047309Y-121473947D01*
X127026074Y-121470797D01*
X127005250Y-121465581D01*
X126985038Y-121458349D01*
X126965632Y-121449170D01*
X126947219Y-121438134D01*
X126929976Y-121425346D01*
X126914070Y-121410930D01*
X126899654Y-121395024D01*
X126886866Y-121377781D01*
X126875830Y-121359368D01*
X126866651Y-121339962D01*
X126859419Y-121319750D01*
X126854203Y-121298926D01*
X126851053Y-121277691D01*
X126850000Y-121256250D01*
X126850000Y-120743750D01*
X126851053Y-120722309D01*
X126854203Y-120701074D01*
X126859419Y-120680250D01*
X126866651Y-120660038D01*
X126875830Y-120640632D01*
X126886866Y-120622219D01*
X126899654Y-120604976D01*
X126914070Y-120589070D01*
X126929976Y-120574654D01*
X126947219Y-120561866D01*
X126965632Y-120550830D01*
X126985038Y-120541651D01*
X127005250Y-120534419D01*
X127026074Y-120529203D01*
X127047309Y-120526053D01*
X127068750Y-120525000D01*
X127506250Y-120525000D01*
X127527691Y-120526053D01*
X127527691Y-120526053D01*
G37*
D12*
X127287500Y-121000000D03*
D10*
G36*
X114330142Y-124301174D02*
G01*
X114353803Y-124304684D01*
X114377007Y-124310496D01*
X114399529Y-124318554D01*
X114421153Y-124328782D01*
X114441670Y-124341079D01*
X114460883Y-124355329D01*
X114478607Y-124371393D01*
X114494671Y-124389117D01*
X114508921Y-124408330D01*
X114521218Y-124428847D01*
X114531446Y-124450471D01*
X114539504Y-124472993D01*
X114545316Y-124496197D01*
X114548826Y-124519858D01*
X114550000Y-124543750D01*
X114550000Y-125456250D01*
X114548826Y-125480142D01*
X114545316Y-125503803D01*
X114539504Y-125527007D01*
X114531446Y-125549529D01*
X114521218Y-125571153D01*
X114508921Y-125591670D01*
X114494671Y-125610883D01*
X114478607Y-125628607D01*
X114460883Y-125644671D01*
X114441670Y-125658921D01*
X114421153Y-125671218D01*
X114399529Y-125681446D01*
X114377007Y-125689504D01*
X114353803Y-125695316D01*
X114330142Y-125698826D01*
X114306250Y-125700000D01*
X113818750Y-125700000D01*
X113794858Y-125698826D01*
X113771197Y-125695316D01*
X113747993Y-125689504D01*
X113725471Y-125681446D01*
X113703847Y-125671218D01*
X113683330Y-125658921D01*
X113664117Y-125644671D01*
X113646393Y-125628607D01*
X113630329Y-125610883D01*
X113616079Y-125591670D01*
X113603782Y-125571153D01*
X113593554Y-125549529D01*
X113585496Y-125527007D01*
X113579684Y-125503803D01*
X113576174Y-125480142D01*
X113575000Y-125456250D01*
X113575000Y-124543750D01*
X113576174Y-124519858D01*
X113579684Y-124496197D01*
X113585496Y-124472993D01*
X113593554Y-124450471D01*
X113603782Y-124428847D01*
X113616079Y-124408330D01*
X113630329Y-124389117D01*
X113646393Y-124371393D01*
X113664117Y-124355329D01*
X113683330Y-124341079D01*
X113703847Y-124328782D01*
X113725471Y-124318554D01*
X113747993Y-124310496D01*
X113771197Y-124304684D01*
X113794858Y-124301174D01*
X113818750Y-124300000D01*
X114306250Y-124300000D01*
X114330142Y-124301174D01*
X114330142Y-124301174D01*
G37*
D18*
X114062500Y-125000000D03*
D10*
G36*
X116205142Y-124301174D02*
G01*
X116228803Y-124304684D01*
X116252007Y-124310496D01*
X116274529Y-124318554D01*
X116296153Y-124328782D01*
X116316670Y-124341079D01*
X116335883Y-124355329D01*
X116353607Y-124371393D01*
X116369671Y-124389117D01*
X116383921Y-124408330D01*
X116396218Y-124428847D01*
X116406446Y-124450471D01*
X116414504Y-124472993D01*
X116420316Y-124496197D01*
X116423826Y-124519858D01*
X116425000Y-124543750D01*
X116425000Y-125456250D01*
X116423826Y-125480142D01*
X116420316Y-125503803D01*
X116414504Y-125527007D01*
X116406446Y-125549529D01*
X116396218Y-125571153D01*
X116383921Y-125591670D01*
X116369671Y-125610883D01*
X116353607Y-125628607D01*
X116335883Y-125644671D01*
X116316670Y-125658921D01*
X116296153Y-125671218D01*
X116274529Y-125681446D01*
X116252007Y-125689504D01*
X116228803Y-125695316D01*
X116205142Y-125698826D01*
X116181250Y-125700000D01*
X115693750Y-125700000D01*
X115669858Y-125698826D01*
X115646197Y-125695316D01*
X115622993Y-125689504D01*
X115600471Y-125681446D01*
X115578847Y-125671218D01*
X115558330Y-125658921D01*
X115539117Y-125644671D01*
X115521393Y-125628607D01*
X115505329Y-125610883D01*
X115491079Y-125591670D01*
X115478782Y-125571153D01*
X115468554Y-125549529D01*
X115460496Y-125527007D01*
X115454684Y-125503803D01*
X115451174Y-125480142D01*
X115450000Y-125456250D01*
X115450000Y-124543750D01*
X115451174Y-124519858D01*
X115454684Y-124496197D01*
X115460496Y-124472993D01*
X115468554Y-124450471D01*
X115478782Y-124428847D01*
X115491079Y-124408330D01*
X115505329Y-124389117D01*
X115521393Y-124371393D01*
X115539117Y-124355329D01*
X115558330Y-124341079D01*
X115578847Y-124328782D01*
X115600471Y-124318554D01*
X115622993Y-124310496D01*
X115646197Y-124304684D01*
X115669858Y-124301174D01*
X115693750Y-124300000D01*
X116181250Y-124300000D01*
X116205142Y-124301174D01*
X116205142Y-124301174D01*
G37*
D18*
X115937500Y-125000000D03*
M02*
