G04 #@! TF.GenerationSoftware,KiCad,Pcbnew,5.1.4-e60b266~84~ubuntu18.04.1*
G04 #@! TF.CreationDate,2019-11-06T20:36:44-07:00*
G04 #@! TF.ProjectId,cob_5x5_lowpower,636f625f-3578-4355-9f6c-6f77706f7765,rev?*
G04 #@! TF.SameCoordinates,Original*
G04 #@! TF.FileFunction,Legend,Top*
G04 #@! TF.FilePolarity,Positive*
%FSLAX46Y46*%
G04 Gerber Fmt 4.6, Leading zero omitted, Abs format (unit mm)*
G04 Created by KiCad (PCBNEW 5.1.4-e60b266~84~ubuntu18.04.1) date 2019-11-06 20:36:44*
%MOMM*%
%LPD*%
G04 APERTURE LIST*
%ADD10C,0.150000*%
%ADD11C,0.120000*%
G04 APERTURE END LIST*
D10*
X103904761Y-121404761D02*
X103952380Y-121500000D01*
X103952380Y-121690476D01*
X103904761Y-121785714D01*
X103857142Y-121833333D01*
X103761904Y-121880952D01*
X103476190Y-121880952D01*
X103380952Y-121833333D01*
X103333333Y-121785714D01*
X103285714Y-121690476D01*
X103285714Y-121500000D01*
X103333333Y-121404761D01*
X103952380Y-120833333D02*
X103904761Y-120928571D01*
X103857142Y-120976190D01*
X103761904Y-121023809D01*
X103476190Y-121023809D01*
X103380952Y-120976190D01*
X103333333Y-120928571D01*
X103285714Y-120833333D01*
X103285714Y-120690476D01*
X103333333Y-120595238D01*
X103380952Y-120547619D01*
X103476190Y-120500000D01*
X103761904Y-120500000D01*
X103857142Y-120547619D01*
X103904761Y-120595238D01*
X103952380Y-120690476D01*
X103952380Y-120833333D01*
X103952380Y-120071428D02*
X102952380Y-120071428D01*
X103333333Y-120071428D02*
X103285714Y-119976190D01*
X103285714Y-119785714D01*
X103333333Y-119690476D01*
X103380952Y-119642857D01*
X103476190Y-119595238D01*
X103761904Y-119595238D01*
X103857142Y-119642857D01*
X103904761Y-119690476D01*
X103952380Y-119785714D01*
X103952380Y-119976190D01*
X103904761Y-120071428D01*
X104047619Y-119404761D02*
X104047619Y-118642857D01*
X103952380Y-118261904D02*
X103904761Y-118357142D01*
X103809523Y-118404761D01*
X102952380Y-118404761D01*
X103952380Y-117738095D02*
X103904761Y-117833333D01*
X103857142Y-117880952D01*
X103761904Y-117928571D01*
X103476190Y-117928571D01*
X103380952Y-117880952D01*
X103333333Y-117833333D01*
X103285714Y-117738095D01*
X103285714Y-117595238D01*
X103333333Y-117500000D01*
X103380952Y-117452380D01*
X103476190Y-117404761D01*
X103761904Y-117404761D01*
X103857142Y-117452380D01*
X103904761Y-117500000D01*
X103952380Y-117595238D01*
X103952380Y-117738095D01*
X103285714Y-117071428D02*
X103952380Y-116880952D01*
X103476190Y-116690476D01*
X103952380Y-116500000D01*
X103285714Y-116309523D01*
X103285714Y-115928571D02*
X104285714Y-115928571D01*
X103333333Y-115928571D02*
X103285714Y-115833333D01*
X103285714Y-115642857D01*
X103333333Y-115547619D01*
X103380952Y-115500000D01*
X103476190Y-115452380D01*
X103761904Y-115452380D01*
X103857142Y-115500000D01*
X103904761Y-115547619D01*
X103952380Y-115642857D01*
X103952380Y-115833333D01*
X103904761Y-115928571D01*
X103952380Y-114880952D02*
X103904761Y-114976190D01*
X103857142Y-115023809D01*
X103761904Y-115071428D01*
X103476190Y-115071428D01*
X103380952Y-115023809D01*
X103333333Y-114976190D01*
X103285714Y-114880952D01*
X103285714Y-114738095D01*
X103333333Y-114642857D01*
X103380952Y-114595238D01*
X103476190Y-114547619D01*
X103761904Y-114547619D01*
X103857142Y-114595238D01*
X103904761Y-114642857D01*
X103952380Y-114738095D01*
X103952380Y-114880952D01*
X103285714Y-114214285D02*
X103952380Y-114023809D01*
X103476190Y-113833333D01*
X103952380Y-113642857D01*
X103285714Y-113452380D01*
X103904761Y-112690476D02*
X103952380Y-112785714D01*
X103952380Y-112976190D01*
X103904761Y-113071428D01*
X103809523Y-113119047D01*
X103428571Y-113119047D01*
X103333333Y-113071428D01*
X103285714Y-112976190D01*
X103285714Y-112785714D01*
X103333333Y-112690476D01*
X103428571Y-112642857D01*
X103523809Y-112642857D01*
X103619047Y-113119047D01*
X103952380Y-112214285D02*
X103285714Y-112214285D01*
X103476190Y-112214285D02*
X103380952Y-112166666D01*
X103333333Y-112119047D01*
X103285714Y-112023809D01*
X103285714Y-111928571D01*
X104047619Y-111833333D02*
X104047619Y-111071428D01*
X103285714Y-110928571D02*
X103952380Y-110690476D01*
X103285714Y-110452380D01*
X103952380Y-109547619D02*
X103952380Y-110119047D01*
X103952380Y-109833333D02*
X102952380Y-109833333D01*
X103095238Y-109928571D01*
X103190476Y-110023809D01*
X103238095Y-110119047D01*
X103857142Y-109119047D02*
X103904761Y-109071428D01*
X103952380Y-109119047D01*
X103904761Y-109166666D01*
X103857142Y-109119047D01*
X103952380Y-109119047D01*
X102952380Y-108452380D02*
X102952380Y-108357142D01*
X103000000Y-108261904D01*
X103047619Y-108214285D01*
X103142857Y-108166666D01*
X103333333Y-108119047D01*
X103571428Y-108119047D01*
X103761904Y-108166666D01*
X103857142Y-108214285D01*
X103904761Y-108261904D01*
X103952380Y-108357142D01*
X103952380Y-108452380D01*
X103904761Y-108547619D01*
X103857142Y-108595238D01*
X103761904Y-108642857D01*
X103571428Y-108690476D01*
X103333333Y-108690476D01*
X103142857Y-108642857D01*
X103047619Y-108595238D01*
X103000000Y-108547619D01*
X102952380Y-108452380D01*
X112761904Y-122000000D02*
X112666666Y-121952380D01*
X112523809Y-121952380D01*
X112380952Y-122000000D01*
X112285714Y-122095238D01*
X112238095Y-122190476D01*
X112190476Y-122380952D01*
X112190476Y-122523809D01*
X112238095Y-122714285D01*
X112285714Y-122809523D01*
X112380952Y-122904761D01*
X112523809Y-122952380D01*
X112619047Y-122952380D01*
X112761904Y-122904761D01*
X112809523Y-122857142D01*
X112809523Y-122523809D01*
X112619047Y-122523809D01*
X115000000Y-122952380D02*
X115000000Y-121952380D01*
X117309523Y-121952380D02*
X116833333Y-121952380D01*
X116785714Y-122428571D01*
X116833333Y-122380952D01*
X116928571Y-122333333D01*
X117166666Y-122333333D01*
X117261904Y-122380952D01*
X117309523Y-122428571D01*
X117357142Y-122523809D01*
X117357142Y-122761904D01*
X117309523Y-122857142D01*
X117261904Y-122904761D01*
X117166666Y-122952380D01*
X116928571Y-122952380D01*
X116833333Y-122904761D01*
X116785714Y-122857142D01*
X117642857Y-121952380D02*
X117976190Y-122952380D01*
X118309523Y-121952380D01*
X117309523Y-103952380D02*
X116833333Y-103952380D01*
X116785714Y-104428571D01*
X116833333Y-104380952D01*
X116928571Y-104333333D01*
X117166666Y-104333333D01*
X117261904Y-104380952D01*
X117309523Y-104428571D01*
X117357142Y-104523809D01*
X117357142Y-104761904D01*
X117309523Y-104857142D01*
X117261904Y-104904761D01*
X117166666Y-104952380D01*
X116928571Y-104952380D01*
X116833333Y-104904761D01*
X116785714Y-104857142D01*
X117642857Y-103952380D02*
X117976190Y-104952380D01*
X118309523Y-103952380D01*
X114904761Y-103952380D02*
X115095238Y-103952380D01*
X115190476Y-104000000D01*
X115285714Y-104095238D01*
X115333333Y-104285714D01*
X115333333Y-104619047D01*
X115285714Y-104809523D01*
X115190476Y-104904761D01*
X115095238Y-104952380D01*
X114904761Y-104952380D01*
X114809523Y-104904761D01*
X114714285Y-104809523D01*
X114666666Y-104619047D01*
X114666666Y-104285714D01*
X114714285Y-104095238D01*
X114809523Y-104000000D01*
X114904761Y-103952380D01*
X112761904Y-104000000D02*
X112666666Y-103952380D01*
X112523809Y-103952380D01*
X112380952Y-104000000D01*
X112285714Y-104095238D01*
X112238095Y-104190476D01*
X112190476Y-104380952D01*
X112190476Y-104523809D01*
X112238095Y-104714285D01*
X112285714Y-104809523D01*
X112380952Y-104904761D01*
X112523809Y-104952380D01*
X112619047Y-104952380D01*
X112761904Y-104904761D01*
X112809523Y-104857142D01*
X112809523Y-104523809D01*
X112619047Y-104523809D01*
D11*
X111170000Y-103330000D02*
X111170000Y-102000000D01*
X112500000Y-103330000D02*
X111170000Y-103330000D01*
X113770000Y-103330000D02*
X113770000Y-100670000D01*
X113770000Y-100670000D02*
X118910000Y-100670000D01*
X113770000Y-103330000D02*
X118910000Y-103330000D01*
X118910000Y-103330000D02*
X118910000Y-100670000D01*
X125500000Y-127590000D02*
X129025000Y-127590000D01*
X125500000Y-127590000D02*
X123620000Y-127590000D01*
X125500000Y-122410000D02*
X127380000Y-122410000D01*
X125500000Y-122410000D02*
X123620000Y-122410000D01*
X128490000Y-119837221D02*
X128490000Y-120162779D01*
X129510000Y-119837221D02*
X129510000Y-120162779D01*
X129510000Y-113162779D02*
X129510000Y-112837221D01*
X128490000Y-113162779D02*
X128490000Y-112837221D01*
X128490000Y-107837221D02*
X128490000Y-108162779D01*
X129510000Y-107837221D02*
X129510000Y-108162779D01*
X124897936Y-119860000D02*
X126102064Y-119860000D01*
X124897936Y-117140000D02*
X126102064Y-117140000D01*
X124897936Y-116360000D02*
X126102064Y-116360000D01*
X124897936Y-113640000D02*
X126102064Y-113640000D01*
X124897936Y-112860000D02*
X126102064Y-112860000D01*
X124897936Y-110140000D02*
X126102064Y-110140000D01*
X128700000Y-116800000D02*
X129300000Y-116800000D01*
X129700000Y-118200000D02*
X129700000Y-118200000D01*
X128500000Y-118200000D02*
X129700000Y-118200000D01*
X128700000Y-114800000D02*
X129300000Y-114800000D01*
X129700000Y-116200000D02*
X129700000Y-116200000D01*
X128500000Y-116200000D02*
X129700000Y-116200000D01*
X128700000Y-109800000D02*
X129300000Y-109800000D01*
X129700000Y-111200000D02*
X129700000Y-111200000D01*
X128500000Y-111200000D02*
X129700000Y-111200000D01*
X111170000Y-129330000D02*
X111170000Y-128000000D01*
X112500000Y-129330000D02*
X111170000Y-129330000D01*
X113770000Y-129330000D02*
X113770000Y-126670000D01*
X113770000Y-126670000D02*
X118910000Y-126670000D01*
X113770000Y-129330000D02*
X118910000Y-129330000D01*
X118910000Y-129330000D02*
X118910000Y-126670000D01*
X107250000Y-112450000D02*
X111600000Y-112450000D01*
X111600000Y-110700000D02*
X111600000Y-112450000D01*
X118400000Y-112450000D02*
X119700000Y-112450000D01*
X118400000Y-110700000D02*
X118400000Y-112450000D01*
X119700000Y-112450000D02*
X120100000Y-112450000D01*
X120100000Y-117550000D02*
X118400000Y-117550000D01*
X118400000Y-119300000D02*
X111600000Y-119300000D01*
X118400000Y-117550000D02*
X118400000Y-119300000D01*
X111600000Y-117550000D02*
X111600000Y-119300000D01*
X109900000Y-117550000D02*
X111600000Y-117550000D01*
X118400000Y-110700000D02*
X111600000Y-110700000D01*
X125337221Y-129510000D02*
X125662779Y-129510000D01*
X125337221Y-128490000D02*
X125662779Y-128490000D01*
X126662779Y-120490000D02*
X126337221Y-120490000D01*
X126662779Y-121510000D02*
X126337221Y-121510000D01*
X115258578Y-124290000D02*
X114741422Y-124290000D01*
X115258578Y-125710000D02*
X114741422Y-125710000D01*
M02*
