G04 #@! TF.GenerationSoftware,KiCad,Pcbnew,5.1.4-e60b266~84~ubuntu18.04.1*
G04 #@! TF.CreationDate,2019-11-17T20:01:52-07:00*
G04 #@! TF.ProjectId,cob_5x5_lowpower,636f625f-3578-4355-9f6c-6f77706f7765,rev?*
G04 #@! TF.SameCoordinates,Original*
G04 #@! TF.FileFunction,Legend,Top*
G04 #@! TF.FilePolarity,Positive*
%FSLAX46Y46*%
G04 Gerber Fmt 4.6, Leading zero omitted, Abs format (unit mm)*
G04 Created by KiCad (PCBNEW 5.1.4-e60b266~84~ubuntu18.04.1) date 2019-11-17 20:01:52*
%MOMM*%
%LPD*%
G04 APERTURE LIST*
%ADD10C,0.150000*%
%ADD11C,0.120000*%
G04 APERTURE END LIST*
D10*
X102904761Y-121404761D02*
X102952380Y-121500000D01*
X102952380Y-121690476D01*
X102904761Y-121785714D01*
X102857142Y-121833333D01*
X102761904Y-121880952D01*
X102476190Y-121880952D01*
X102380952Y-121833333D01*
X102333333Y-121785714D01*
X102285714Y-121690476D01*
X102285714Y-121500000D01*
X102333333Y-121404761D01*
X102952380Y-120833333D02*
X102904761Y-120928571D01*
X102857142Y-120976190D01*
X102761904Y-121023809D01*
X102476190Y-121023809D01*
X102380952Y-120976190D01*
X102333333Y-120928571D01*
X102285714Y-120833333D01*
X102285714Y-120690476D01*
X102333333Y-120595238D01*
X102380952Y-120547619D01*
X102476190Y-120500000D01*
X102761904Y-120500000D01*
X102857142Y-120547619D01*
X102904761Y-120595238D01*
X102952380Y-120690476D01*
X102952380Y-120833333D01*
X102952380Y-120071428D02*
X101952380Y-120071428D01*
X102333333Y-120071428D02*
X102285714Y-119976190D01*
X102285714Y-119785714D01*
X102333333Y-119690476D01*
X102380952Y-119642857D01*
X102476190Y-119595238D01*
X102761904Y-119595238D01*
X102857142Y-119642857D01*
X102904761Y-119690476D01*
X102952380Y-119785714D01*
X102952380Y-119976190D01*
X102904761Y-120071428D01*
X103047619Y-119404761D02*
X103047619Y-118642857D01*
X102952380Y-118261904D02*
X102904761Y-118357142D01*
X102809523Y-118404761D01*
X101952380Y-118404761D01*
X102952380Y-117738095D02*
X102904761Y-117833333D01*
X102857142Y-117880952D01*
X102761904Y-117928571D01*
X102476190Y-117928571D01*
X102380952Y-117880952D01*
X102333333Y-117833333D01*
X102285714Y-117738095D01*
X102285714Y-117595238D01*
X102333333Y-117500000D01*
X102380952Y-117452380D01*
X102476190Y-117404761D01*
X102761904Y-117404761D01*
X102857142Y-117452380D01*
X102904761Y-117500000D01*
X102952380Y-117595238D01*
X102952380Y-117738095D01*
X102285714Y-117071428D02*
X102952380Y-116880952D01*
X102476190Y-116690476D01*
X102952380Y-116500000D01*
X102285714Y-116309523D01*
X102285714Y-115928571D02*
X103285714Y-115928571D01*
X102333333Y-115928571D02*
X102285714Y-115833333D01*
X102285714Y-115642857D01*
X102333333Y-115547619D01*
X102380952Y-115500000D01*
X102476190Y-115452380D01*
X102761904Y-115452380D01*
X102857142Y-115500000D01*
X102904761Y-115547619D01*
X102952380Y-115642857D01*
X102952380Y-115833333D01*
X102904761Y-115928571D01*
X102952380Y-114880952D02*
X102904761Y-114976190D01*
X102857142Y-115023809D01*
X102761904Y-115071428D01*
X102476190Y-115071428D01*
X102380952Y-115023809D01*
X102333333Y-114976190D01*
X102285714Y-114880952D01*
X102285714Y-114738095D01*
X102333333Y-114642857D01*
X102380952Y-114595238D01*
X102476190Y-114547619D01*
X102761904Y-114547619D01*
X102857142Y-114595238D01*
X102904761Y-114642857D01*
X102952380Y-114738095D01*
X102952380Y-114880952D01*
X102285714Y-114214285D02*
X102952380Y-114023809D01*
X102476190Y-113833333D01*
X102952380Y-113642857D01*
X102285714Y-113452380D01*
X102904761Y-112690476D02*
X102952380Y-112785714D01*
X102952380Y-112976190D01*
X102904761Y-113071428D01*
X102809523Y-113119047D01*
X102428571Y-113119047D01*
X102333333Y-113071428D01*
X102285714Y-112976190D01*
X102285714Y-112785714D01*
X102333333Y-112690476D01*
X102428571Y-112642857D01*
X102523809Y-112642857D01*
X102619047Y-113119047D01*
X102952380Y-112214285D02*
X102285714Y-112214285D01*
X102476190Y-112214285D02*
X102380952Y-112166666D01*
X102333333Y-112119047D01*
X102285714Y-112023809D01*
X102285714Y-111928571D01*
X103047619Y-111833333D02*
X103047619Y-111071428D01*
X102285714Y-110928571D02*
X102952380Y-110690476D01*
X102285714Y-110452380D01*
X102952380Y-109547619D02*
X102952380Y-110119047D01*
X102952380Y-109833333D02*
X101952380Y-109833333D01*
X102095238Y-109928571D01*
X102190476Y-110023809D01*
X102238095Y-110119047D01*
X102857142Y-109119047D02*
X102904761Y-109071428D01*
X102952380Y-109119047D01*
X102904761Y-109166666D01*
X102857142Y-109119047D01*
X102952380Y-109119047D01*
X101952380Y-108452380D02*
X101952380Y-108357142D01*
X102000000Y-108261904D01*
X102047619Y-108214285D01*
X102142857Y-108166666D01*
X102333333Y-108119047D01*
X102571428Y-108119047D01*
X102761904Y-108166666D01*
X102857142Y-108214285D01*
X102904761Y-108261904D01*
X102952380Y-108357142D01*
X102952380Y-108452380D01*
X102904761Y-108547619D01*
X102857142Y-108595238D01*
X102761904Y-108642857D01*
X102571428Y-108690476D01*
X102333333Y-108690476D01*
X102142857Y-108642857D01*
X102047619Y-108595238D01*
X102000000Y-108547619D01*
X101952380Y-108452380D01*
X112761904Y-125000000D02*
X112666666Y-124952380D01*
X112523809Y-124952380D01*
X112380952Y-125000000D01*
X112285714Y-125095238D01*
X112238095Y-125190476D01*
X112190476Y-125380952D01*
X112190476Y-125523809D01*
X112238095Y-125714285D01*
X112285714Y-125809523D01*
X112380952Y-125904761D01*
X112523809Y-125952380D01*
X112619047Y-125952380D01*
X112761904Y-125904761D01*
X112809523Y-125857142D01*
X112809523Y-125523809D01*
X112619047Y-125523809D01*
X115000000Y-124452380D02*
X115000000Y-123452380D01*
X120309523Y-127452380D02*
X119833333Y-127452380D01*
X119785714Y-127928571D01*
X119833333Y-127880952D01*
X119928571Y-127833333D01*
X120166666Y-127833333D01*
X120261904Y-127880952D01*
X120309523Y-127928571D01*
X120357142Y-128023809D01*
X120357142Y-128261904D01*
X120309523Y-128357142D01*
X120261904Y-128404761D01*
X120166666Y-128452380D01*
X119928571Y-128452380D01*
X119833333Y-128404761D01*
X119785714Y-128357142D01*
X120642857Y-127452380D02*
X120976190Y-128452380D01*
X121309523Y-127452380D01*
X120309523Y-101452380D02*
X119833333Y-101452380D01*
X119785714Y-101928571D01*
X119833333Y-101880952D01*
X119928571Y-101833333D01*
X120166666Y-101833333D01*
X120261904Y-101880952D01*
X120309523Y-101928571D01*
X120357142Y-102023809D01*
X120357142Y-102261904D01*
X120309523Y-102357142D01*
X120261904Y-102404761D01*
X120166666Y-102452380D01*
X119928571Y-102452380D01*
X119833333Y-102404761D01*
X119785714Y-102357142D01*
X120642857Y-101452380D02*
X120976190Y-102452380D01*
X121309523Y-101452380D01*
X114904761Y-103952380D02*
X115095238Y-103952380D01*
X115190476Y-104000000D01*
X115285714Y-104095238D01*
X115333333Y-104285714D01*
X115333333Y-104619047D01*
X115285714Y-104809523D01*
X115190476Y-104904761D01*
X115095238Y-104952380D01*
X114904761Y-104952380D01*
X114809523Y-104904761D01*
X114714285Y-104809523D01*
X114666666Y-104619047D01*
X114666666Y-104285714D01*
X114714285Y-104095238D01*
X114809523Y-104000000D01*
X114904761Y-103952380D01*
X110261904Y-101500000D02*
X110166666Y-101452380D01*
X110023809Y-101452380D01*
X109880952Y-101500000D01*
X109785714Y-101595238D01*
X109738095Y-101690476D01*
X109690476Y-101880952D01*
X109690476Y-102023809D01*
X109738095Y-102214285D01*
X109785714Y-102309523D01*
X109880952Y-102404761D01*
X110023809Y-102452380D01*
X110119047Y-102452380D01*
X110261904Y-102404761D01*
X110309523Y-102357142D01*
X110309523Y-102023809D01*
X110119047Y-102023809D01*
X119000000Y-114700000D02*
X118400000Y-114700000D01*
X119000000Y-115300000D02*
X119000000Y-114700000D01*
X118400000Y-114700000D02*
X118400000Y-115300000D01*
X118400000Y-115300000D02*
X119000000Y-115300000D01*
X111600000Y-115400000D02*
X111000000Y-115400000D01*
X111600000Y-116000000D02*
X111600000Y-115400000D01*
X111000000Y-115400000D02*
X111000000Y-116000000D01*
X111000000Y-116000000D02*
X111600000Y-116000000D01*
X111600000Y-114000000D02*
X111000000Y-114000000D01*
X111600000Y-114600000D02*
X111600000Y-114000000D01*
X111000000Y-114600000D02*
X111600000Y-114600000D01*
X111000000Y-114000000D02*
X111000000Y-114600000D01*
X126000000Y-115000000D02*
G75*
G03X126000000Y-115000000I-11000000J0D01*
G01*
D11*
X107250000Y-112450000D02*
X111600000Y-112450000D01*
X111600000Y-110700000D02*
X111600000Y-112450000D01*
X118400000Y-112450000D02*
X119700000Y-112450000D01*
X118400000Y-110700000D02*
X118400000Y-112450000D01*
X119700000Y-112450000D02*
X120100000Y-112450000D01*
X120100000Y-117550000D02*
X118400000Y-117550000D01*
X118400000Y-119300000D02*
X111600000Y-119300000D01*
X118400000Y-117550000D02*
X118400000Y-119300000D01*
X111600000Y-117550000D02*
X111600000Y-119300000D01*
X109900000Y-117550000D02*
X111600000Y-117550000D01*
X118400000Y-110700000D02*
X111600000Y-110700000D01*
X111170000Y-103330000D02*
X111170000Y-102000000D01*
X112500000Y-103330000D02*
X111170000Y-103330000D01*
X113770000Y-103330000D02*
X113770000Y-100670000D01*
X113770000Y-100670000D02*
X118910000Y-100670000D01*
X113770000Y-103330000D02*
X118910000Y-103330000D01*
X118910000Y-103330000D02*
X118910000Y-100670000D01*
X128500000Y-127590000D02*
X132025000Y-127590000D01*
X128500000Y-127590000D02*
X126620000Y-127590000D01*
X128500000Y-122410000D02*
X130380000Y-122410000D01*
X128500000Y-122410000D02*
X126620000Y-122410000D01*
X133510000Y-119837221D02*
X133510000Y-120162779D01*
X132490000Y-119837221D02*
X132490000Y-120162779D01*
X132490000Y-113162779D02*
X132490000Y-112837221D01*
X133510000Y-113162779D02*
X133510000Y-112837221D01*
X133510000Y-107837221D02*
X133510000Y-108162779D01*
X132490000Y-107837221D02*
X132490000Y-108162779D01*
X128897936Y-117140000D02*
X130102064Y-117140000D01*
X128897936Y-119860000D02*
X130102064Y-119860000D01*
X128897936Y-113640000D02*
X130102064Y-113640000D01*
X128897936Y-116360000D02*
X130102064Y-116360000D01*
X128897936Y-110140000D02*
X130102064Y-110140000D01*
X128897936Y-112860000D02*
X130102064Y-112860000D01*
X132500000Y-118200000D02*
X133700000Y-118200000D01*
X133700000Y-118200000D02*
X133700000Y-118200000D01*
X132700000Y-116800000D02*
X133300000Y-116800000D01*
X132500000Y-116200000D02*
X133700000Y-116200000D01*
X133700000Y-116200000D02*
X133700000Y-116200000D01*
X132700000Y-114800000D02*
X133300000Y-114800000D01*
X132500000Y-111200000D02*
X133700000Y-111200000D01*
X133700000Y-111200000D02*
X133700000Y-111200000D01*
X132700000Y-109800000D02*
X133300000Y-109800000D01*
X111170000Y-129330000D02*
X111170000Y-128000000D01*
X112500000Y-129330000D02*
X111170000Y-129330000D01*
X113770000Y-129330000D02*
X113770000Y-126670000D01*
X113770000Y-126670000D02*
X118910000Y-126670000D01*
X113770000Y-129330000D02*
X118910000Y-129330000D01*
X118910000Y-129330000D02*
X118910000Y-126670000D01*
X125337221Y-129510000D02*
X125662779Y-129510000D01*
X125337221Y-128490000D02*
X125662779Y-128490000D01*
X127162779Y-121510000D02*
X126837221Y-121510000D01*
X127162779Y-120490000D02*
X126837221Y-120490000D01*
X108790000Y-127241422D02*
X108790000Y-127758578D01*
X110210000Y-127241422D02*
X110210000Y-127758578D01*
D10*
X123119047Y-113371428D02*
X123880952Y-113371428D01*
X123500000Y-113752380D02*
X123500000Y-112990476D01*
M02*
