G04 #@! TF.GenerationSoftware,KiCad,Pcbnew,5.1.4-e60b266~84~ubuntu18.04.1*
G04 #@! TF.CreationDate,2019-11-06T20:36:44-07:00*
G04 #@! TF.ProjectId,cob_5x5_lowpower,636f625f-3578-4355-9f6c-6f77706f7765,rev?*
G04 #@! TF.SameCoordinates,Original*
G04 #@! TF.FileFunction,Soldermask,Bot*
G04 #@! TF.FilePolarity,Negative*
%FSLAX46Y46*%
G04 Gerber Fmt 4.6, Leading zero omitted, Abs format (unit mm)*
G04 Created by KiCad (PCBNEW 5.1.4-e60b266~84~ubuntu18.04.1) date 2019-11-06 20:36:44*
%MOMM*%
%LPD*%
G04 APERTURE LIST*
%ADD10C,0.100000*%
G04 APERTURE END LIST*
D10*
G36*
X115150443Y-127105519D02*
G01*
X115216627Y-127112037D01*
X115386466Y-127163557D01*
X115542991Y-127247222D01*
X115578729Y-127276552D01*
X115680186Y-127359814D01*
X115763448Y-127461271D01*
X115792778Y-127497009D01*
X115876443Y-127653534D01*
X115927963Y-127823373D01*
X115945359Y-128000000D01*
X115927963Y-128176627D01*
X115876443Y-128346466D01*
X115792778Y-128502991D01*
X115763448Y-128538729D01*
X115680186Y-128640186D01*
X115578729Y-128723448D01*
X115542991Y-128752778D01*
X115386466Y-128836443D01*
X115216627Y-128887963D01*
X115150443Y-128894481D01*
X115084260Y-128901000D01*
X114995740Y-128901000D01*
X114929557Y-128894481D01*
X114863373Y-128887963D01*
X114693534Y-128836443D01*
X114537009Y-128752778D01*
X114501271Y-128723448D01*
X114399814Y-128640186D01*
X114316552Y-128538729D01*
X114287222Y-128502991D01*
X114203557Y-128346466D01*
X114152037Y-128176627D01*
X114134641Y-128000000D01*
X114152037Y-127823373D01*
X114203557Y-127653534D01*
X114287222Y-127497009D01*
X114316552Y-127461271D01*
X114399814Y-127359814D01*
X114501271Y-127276552D01*
X114537009Y-127247222D01*
X114693534Y-127163557D01*
X114863373Y-127112037D01*
X114929557Y-127105519D01*
X114995740Y-127099000D01*
X115084260Y-127099000D01*
X115150443Y-127105519D01*
X115150443Y-127105519D01*
G37*
G36*
X113401000Y-128901000D02*
G01*
X111599000Y-128901000D01*
X111599000Y-127099000D01*
X113401000Y-127099000D01*
X113401000Y-128901000D01*
X113401000Y-128901000D01*
G37*
G36*
X117690443Y-127105519D02*
G01*
X117756627Y-127112037D01*
X117926466Y-127163557D01*
X118082991Y-127247222D01*
X118118729Y-127276552D01*
X118220186Y-127359814D01*
X118303448Y-127461271D01*
X118332778Y-127497009D01*
X118416443Y-127653534D01*
X118467963Y-127823373D01*
X118485359Y-128000000D01*
X118467963Y-128176627D01*
X118416443Y-128346466D01*
X118332778Y-128502991D01*
X118303448Y-128538729D01*
X118220186Y-128640186D01*
X118118729Y-128723448D01*
X118082991Y-128752778D01*
X117926466Y-128836443D01*
X117756627Y-128887963D01*
X117690443Y-128894481D01*
X117624260Y-128901000D01*
X117535740Y-128901000D01*
X117469557Y-128894481D01*
X117403373Y-128887963D01*
X117233534Y-128836443D01*
X117077009Y-128752778D01*
X117041271Y-128723448D01*
X116939814Y-128640186D01*
X116856552Y-128538729D01*
X116827222Y-128502991D01*
X116743557Y-128346466D01*
X116692037Y-128176627D01*
X116674641Y-128000000D01*
X116692037Y-127823373D01*
X116743557Y-127653534D01*
X116827222Y-127497009D01*
X116856552Y-127461271D01*
X116939814Y-127359814D01*
X117041271Y-127276552D01*
X117077009Y-127247222D01*
X117233534Y-127163557D01*
X117403373Y-127112037D01*
X117469557Y-127105519D01*
X117535740Y-127099000D01*
X117624260Y-127099000D01*
X117690443Y-127105519D01*
X117690443Y-127105519D01*
G37*
G36*
X104318433Y-125634893D02*
G01*
X104408657Y-125652839D01*
X104514267Y-125696585D01*
X104663621Y-125758449D01*
X104663622Y-125758450D01*
X104893086Y-125911772D01*
X105088228Y-126106914D01*
X105190675Y-126260237D01*
X105241551Y-126336379D01*
X105347161Y-126591344D01*
X105401000Y-126862012D01*
X105401000Y-127137988D01*
X105347161Y-127408656D01*
X105241551Y-127663621D01*
X105241550Y-127663622D01*
X105088228Y-127893086D01*
X104893086Y-128088228D01*
X104760790Y-128176625D01*
X104663621Y-128241551D01*
X104514267Y-128303415D01*
X104408657Y-128347161D01*
X104318433Y-128365107D01*
X104137988Y-128401000D01*
X103862012Y-128401000D01*
X103681567Y-128365107D01*
X103591343Y-128347161D01*
X103485733Y-128303415D01*
X103336379Y-128241551D01*
X103239210Y-128176625D01*
X103106914Y-128088228D01*
X102911772Y-127893086D01*
X102758450Y-127663622D01*
X102758449Y-127663621D01*
X102652839Y-127408656D01*
X102599000Y-127137988D01*
X102599000Y-126862012D01*
X102652839Y-126591344D01*
X102758449Y-126336379D01*
X102809325Y-126260237D01*
X102911772Y-126106914D01*
X103106914Y-125911772D01*
X103336378Y-125758450D01*
X103336379Y-125758449D01*
X103485733Y-125696585D01*
X103591343Y-125652839D01*
X103681567Y-125634893D01*
X103862012Y-125599000D01*
X104137988Y-125599000D01*
X104318433Y-125634893D01*
X104318433Y-125634893D01*
G37*
G36*
X127318433Y-101634893D02*
G01*
X127408657Y-101652839D01*
X127514267Y-101696585D01*
X127663621Y-101758449D01*
X127663622Y-101758450D01*
X127893086Y-101911772D01*
X128088228Y-102106914D01*
X128134807Y-102176625D01*
X128241551Y-102336379D01*
X128347161Y-102591344D01*
X128401000Y-102862012D01*
X128401000Y-103137988D01*
X128347161Y-103408656D01*
X128241551Y-103663621D01*
X128241550Y-103663622D01*
X128088228Y-103893086D01*
X127893086Y-104088228D01*
X127739763Y-104190675D01*
X127663621Y-104241551D01*
X127514267Y-104303415D01*
X127408657Y-104347161D01*
X127318433Y-104365107D01*
X127137988Y-104401000D01*
X126862012Y-104401000D01*
X126681567Y-104365107D01*
X126591343Y-104347161D01*
X126485733Y-104303415D01*
X126336379Y-104241551D01*
X126260237Y-104190675D01*
X126106914Y-104088228D01*
X125911772Y-103893086D01*
X125758450Y-103663622D01*
X125758449Y-103663621D01*
X125652839Y-103408656D01*
X125599000Y-103137988D01*
X125599000Y-102862012D01*
X125652839Y-102591344D01*
X125758449Y-102336379D01*
X125865193Y-102176625D01*
X125911772Y-102106914D01*
X126106914Y-101911772D01*
X126336378Y-101758450D01*
X126336379Y-101758449D01*
X126485733Y-101696585D01*
X126591343Y-101652839D01*
X126681567Y-101634893D01*
X126862012Y-101599000D01*
X127137988Y-101599000D01*
X127318433Y-101634893D01*
X127318433Y-101634893D01*
G37*
G36*
X104318433Y-101634893D02*
G01*
X104408657Y-101652839D01*
X104514267Y-101696585D01*
X104663621Y-101758449D01*
X104663622Y-101758450D01*
X104893086Y-101911772D01*
X105088228Y-102106914D01*
X105134807Y-102176625D01*
X105241551Y-102336379D01*
X105347161Y-102591344D01*
X105401000Y-102862012D01*
X105401000Y-103137988D01*
X105347161Y-103408656D01*
X105241551Y-103663621D01*
X105241550Y-103663622D01*
X105088228Y-103893086D01*
X104893086Y-104088228D01*
X104739763Y-104190675D01*
X104663621Y-104241551D01*
X104514267Y-104303415D01*
X104408657Y-104347161D01*
X104318433Y-104365107D01*
X104137988Y-104401000D01*
X103862012Y-104401000D01*
X103681567Y-104365107D01*
X103591343Y-104347161D01*
X103485733Y-104303415D01*
X103336379Y-104241551D01*
X103260237Y-104190675D01*
X103106914Y-104088228D01*
X102911772Y-103893086D01*
X102758450Y-103663622D01*
X102758449Y-103663621D01*
X102652839Y-103408656D01*
X102599000Y-103137988D01*
X102599000Y-102862012D01*
X102652839Y-102591344D01*
X102758449Y-102336379D01*
X102865193Y-102176625D01*
X102911772Y-102106914D01*
X103106914Y-101911772D01*
X103336378Y-101758450D01*
X103336379Y-101758449D01*
X103485733Y-101696585D01*
X103591343Y-101652839D01*
X103681567Y-101634893D01*
X103862012Y-101599000D01*
X104137988Y-101599000D01*
X104318433Y-101634893D01*
X104318433Y-101634893D01*
G37*
G36*
X117690442Y-101105518D02*
G01*
X117756627Y-101112037D01*
X117926466Y-101163557D01*
X118082991Y-101247222D01*
X118118729Y-101276552D01*
X118220186Y-101359814D01*
X118303448Y-101461271D01*
X118332778Y-101497009D01*
X118416443Y-101653534D01*
X118467963Y-101823373D01*
X118485359Y-102000000D01*
X118467963Y-102176627D01*
X118416443Y-102346466D01*
X118332778Y-102502991D01*
X118303448Y-102538729D01*
X118220186Y-102640186D01*
X118118729Y-102723448D01*
X118082991Y-102752778D01*
X117926466Y-102836443D01*
X117756627Y-102887963D01*
X117690443Y-102894481D01*
X117624260Y-102901000D01*
X117535740Y-102901000D01*
X117469558Y-102894482D01*
X117403373Y-102887963D01*
X117233534Y-102836443D01*
X117077009Y-102752778D01*
X117041271Y-102723448D01*
X116939814Y-102640186D01*
X116856552Y-102538729D01*
X116827222Y-102502991D01*
X116743557Y-102346466D01*
X116692037Y-102176627D01*
X116674641Y-102000000D01*
X116692037Y-101823373D01*
X116743557Y-101653534D01*
X116827222Y-101497009D01*
X116856552Y-101461271D01*
X116939814Y-101359814D01*
X117041271Y-101276552D01*
X117077009Y-101247222D01*
X117233534Y-101163557D01*
X117403373Y-101112037D01*
X117469558Y-101105518D01*
X117535740Y-101099000D01*
X117624260Y-101099000D01*
X117690442Y-101105518D01*
X117690442Y-101105518D01*
G37*
G36*
X115150442Y-101105518D02*
G01*
X115216627Y-101112037D01*
X115386466Y-101163557D01*
X115542991Y-101247222D01*
X115578729Y-101276552D01*
X115680186Y-101359814D01*
X115763448Y-101461271D01*
X115792778Y-101497009D01*
X115876443Y-101653534D01*
X115927963Y-101823373D01*
X115945359Y-102000000D01*
X115927963Y-102176627D01*
X115876443Y-102346466D01*
X115792778Y-102502991D01*
X115763448Y-102538729D01*
X115680186Y-102640186D01*
X115578729Y-102723448D01*
X115542991Y-102752778D01*
X115386466Y-102836443D01*
X115216627Y-102887963D01*
X115150443Y-102894481D01*
X115084260Y-102901000D01*
X114995740Y-102901000D01*
X114929558Y-102894482D01*
X114863373Y-102887963D01*
X114693534Y-102836443D01*
X114537009Y-102752778D01*
X114501271Y-102723448D01*
X114399814Y-102640186D01*
X114316552Y-102538729D01*
X114287222Y-102502991D01*
X114203557Y-102346466D01*
X114152037Y-102176627D01*
X114134641Y-102000000D01*
X114152037Y-101823373D01*
X114203557Y-101653534D01*
X114287222Y-101497009D01*
X114316552Y-101461271D01*
X114399814Y-101359814D01*
X114501271Y-101276552D01*
X114537009Y-101247222D01*
X114693534Y-101163557D01*
X114863373Y-101112037D01*
X114929558Y-101105518D01*
X114995740Y-101099000D01*
X115084260Y-101099000D01*
X115150442Y-101105518D01*
X115150442Y-101105518D01*
G37*
G36*
X113401000Y-102901000D02*
G01*
X111599000Y-102901000D01*
X111599000Y-101099000D01*
X113401000Y-101099000D01*
X113401000Y-102901000D01*
X113401000Y-102901000D01*
G37*
M02*
