G04 #@! TF.GenerationSoftware,KiCad,Pcbnew,5.1.4-e60b266~84~ubuntu18.04.1*
G04 #@! TF.CreationDate,2019-11-17T20:01:52-07:00*
G04 #@! TF.ProjectId,cob_5x5_lowpower,636f625f-3578-4355-9f6c-6f77706f7765,rev?*
G04 #@! TF.SameCoordinates,Original*
G04 #@! TF.FileFunction,Copper,L2,Bot*
G04 #@! TF.FilePolarity,Positive*
%FSLAX46Y46*%
G04 Gerber Fmt 4.6, Leading zero omitted, Abs format (unit mm)*
G04 Created by KiCad (PCBNEW 5.1.4-e60b266~84~ubuntu18.04.1) date 2019-11-17 20:01:52*
%MOMM*%
%LPD*%
G04 APERTURE LIST*
%ADD10O,1.700000X1.700000*%
%ADD11R,1.700000X1.700000*%
%ADD12C,0.800000*%
%ADD13C,0.250000*%
%ADD14C,1.000000*%
%ADD15C,0.254000*%
G04 APERTURE END LIST*
D10*
X117580000Y-102000000D03*
X115040000Y-102000000D03*
D11*
X112500000Y-102000000D03*
D10*
X117580000Y-128000000D03*
X115040000Y-128000000D03*
D11*
X112500000Y-128000000D03*
D12*
X126000000Y-128005010D03*
X125000000Y-121500000D03*
X131000000Y-122000000D03*
X115000000Y-111500000D03*
X113000000Y-112000000D03*
X111500000Y-113500000D03*
X111500000Y-115000000D03*
X111500000Y-116500000D03*
X113000000Y-118000000D03*
X115000000Y-118500000D03*
X117000000Y-118000000D03*
X118500000Y-115000000D03*
X118500000Y-116500000D03*
X118500000Y-113500000D03*
X117000000Y-112000000D03*
X111500000Y-118500000D03*
X118500000Y-118500000D03*
X118500000Y-112000000D03*
X111500000Y-112000000D03*
X112000000Y-111000000D03*
X118000000Y-111000000D03*
X117500000Y-119000000D03*
X112500000Y-119000000D03*
X110000000Y-119000000D03*
X120000000Y-119000000D03*
X120000000Y-111000000D03*
X110000000Y-111000000D03*
X114000000Y-119500000D03*
X116000000Y-119500000D03*
X114000000Y-110500000D03*
X116000000Y-110500000D03*
X129000000Y-122000000D03*
X133034357Y-116789267D03*
X129500000Y-109000000D03*
X129287500Y-121000000D03*
X133000000Y-122000000D03*
X115000000Y-125349987D03*
X124500000Y-122500000D03*
X128000000Y-109000000D03*
X106000000Y-111000000D03*
X106000000Y-113000000D03*
X106000000Y-115000000D03*
X106000000Y-117500000D03*
X106000000Y-119500000D03*
X129000000Y-106000000D03*
X130000000Y-107000000D03*
X131500000Y-107500000D03*
D13*
X126000000Y-128005010D02*
X126000000Y-122500000D01*
X126000000Y-122500000D02*
X125000000Y-121500000D01*
X125600001Y-128405009D02*
X126000000Y-128005010D01*
X124830009Y-129175001D02*
X125600001Y-128405009D01*
X112575001Y-129175001D02*
X124830009Y-129175001D01*
X112500000Y-129100000D02*
X112575001Y-129175001D01*
X112500000Y-128000000D02*
X112500000Y-129100000D01*
X126000000Y-128005010D02*
X126000000Y-127000000D01*
X126000000Y-127000000D02*
X131000000Y-122000000D01*
D14*
X129000000Y-122000000D02*
X129000000Y-109500000D01*
X129000000Y-109500000D02*
X129500000Y-109000000D01*
D13*
X132000000Y-121000000D02*
X133000000Y-122000000D01*
X129287500Y-121000000D02*
X132000000Y-121000000D01*
X115040000Y-125389987D02*
X115000000Y-125349987D01*
X115040000Y-128000000D02*
X115040000Y-125389987D01*
X124500000Y-122500000D02*
X124000000Y-122000000D01*
X124000000Y-122000000D02*
X124000000Y-121000000D01*
X124000000Y-121000000D02*
X125000000Y-120000000D01*
X125000000Y-120000000D02*
X127500000Y-120000000D01*
X127500000Y-120000000D02*
X128000000Y-119500000D01*
X128000000Y-119500000D02*
X128000000Y-109000000D01*
D14*
X110000000Y-111000000D02*
X106000000Y-111000000D01*
D15*
G36*
X111204499Y-100704499D02*
G01*
X111126147Y-100799972D01*
X111067925Y-100908897D01*
X111032073Y-101027087D01*
X111019967Y-101150000D01*
X111019967Y-102850000D01*
X111032073Y-102972913D01*
X111067925Y-103091103D01*
X111126147Y-103200028D01*
X111204499Y-103295501D01*
X111299972Y-103373853D01*
X111408897Y-103432075D01*
X111527087Y-103467927D01*
X111650000Y-103480033D01*
X113350000Y-103480033D01*
X113472913Y-103467927D01*
X113591103Y-103432075D01*
X113700028Y-103373853D01*
X113795501Y-103295501D01*
X113873853Y-103200028D01*
X113932075Y-103091103D01*
X113957081Y-103008668D01*
X113990550Y-103049450D01*
X114215453Y-103234022D01*
X114472042Y-103371172D01*
X114750457Y-103455629D01*
X114967444Y-103477000D01*
X115112556Y-103477000D01*
X115329543Y-103455629D01*
X115607958Y-103371172D01*
X115864547Y-103234022D01*
X116089450Y-103049450D01*
X116274022Y-102824547D01*
X116310000Y-102757237D01*
X116345978Y-102824547D01*
X116530550Y-103049450D01*
X116755453Y-103234022D01*
X117012042Y-103371172D01*
X117290457Y-103455629D01*
X117507444Y-103477000D01*
X117652556Y-103477000D01*
X117869543Y-103455629D01*
X118147958Y-103371172D01*
X118404547Y-103234022D01*
X118629450Y-103049450D01*
X118814022Y-102824547D01*
X118824319Y-102805282D01*
X125023000Y-102805282D01*
X125023000Y-103194718D01*
X125098975Y-103576670D01*
X125248005Y-103936461D01*
X125464364Y-104260264D01*
X125739736Y-104535636D01*
X126063539Y-104751995D01*
X126423330Y-104901025D01*
X126805282Y-104977000D01*
X127194718Y-104977000D01*
X127576670Y-104901025D01*
X127936461Y-104751995D01*
X128260264Y-104535636D01*
X128535636Y-104260264D01*
X128751995Y-103936461D01*
X128901025Y-103576670D01*
X128977000Y-103194718D01*
X128977000Y-102805282D01*
X128901025Y-102423330D01*
X128751995Y-102063539D01*
X128535636Y-101739736D01*
X128260264Y-101464364D01*
X127936461Y-101248005D01*
X127576670Y-101098975D01*
X127194718Y-101023000D01*
X126805282Y-101023000D01*
X126423330Y-101098975D01*
X126063539Y-101248005D01*
X125739736Y-101464364D01*
X125464364Y-101739736D01*
X125248005Y-102063539D01*
X125098975Y-102423330D01*
X125023000Y-102805282D01*
X118824319Y-102805282D01*
X118951172Y-102567958D01*
X119035629Y-102289543D01*
X119064146Y-102000000D01*
X119035629Y-101710457D01*
X118951172Y-101432042D01*
X118814022Y-101175453D01*
X118629450Y-100950550D01*
X118404547Y-100765978D01*
X118191310Y-100652000D01*
X134848000Y-100652000D01*
X134848001Y-129348000D01*
X125720498Y-129348000D01*
X126036489Y-129032010D01*
X126101151Y-129032010D01*
X126299565Y-128992543D01*
X126486467Y-128915125D01*
X126654674Y-128802733D01*
X126797723Y-128659684D01*
X126910115Y-128491477D01*
X126987533Y-128304575D01*
X127027000Y-128106161D01*
X127027000Y-127903859D01*
X126987533Y-127705445D01*
X126910115Y-127518543D01*
X126797723Y-127350336D01*
X126755438Y-127308051D01*
X131036489Y-123027000D01*
X131101151Y-123027000D01*
X131299565Y-122987533D01*
X131486467Y-122910115D01*
X131654674Y-122797723D01*
X131797723Y-122654674D01*
X131910115Y-122486467D01*
X131987533Y-122299565D01*
X132000000Y-122236889D01*
X132012467Y-122299565D01*
X132089885Y-122486467D01*
X132202277Y-122654674D01*
X132345326Y-122797723D01*
X132513533Y-122910115D01*
X132700435Y-122987533D01*
X132898849Y-123027000D01*
X133101151Y-123027000D01*
X133299565Y-122987533D01*
X133486467Y-122910115D01*
X133654674Y-122797723D01*
X133797723Y-122654674D01*
X133910115Y-122486467D01*
X133987533Y-122299565D01*
X134027000Y-122101151D01*
X134027000Y-121898849D01*
X133987533Y-121700435D01*
X133910115Y-121513533D01*
X133797723Y-121345326D01*
X133654674Y-121202277D01*
X133486467Y-121089885D01*
X133299565Y-121012467D01*
X133101151Y-120973000D01*
X133036488Y-120973000D01*
X132557867Y-120494379D01*
X132534317Y-120465683D01*
X132419810Y-120371710D01*
X132289170Y-120301882D01*
X132147418Y-120258881D01*
X132036938Y-120248000D01*
X132036935Y-120248000D01*
X132000000Y-120244362D01*
X131963065Y-120248000D01*
X130127000Y-120248000D01*
X130127000Y-116688116D01*
X132007357Y-116688116D01*
X132007357Y-116890418D01*
X132046824Y-117088832D01*
X132124242Y-117275734D01*
X132236634Y-117443941D01*
X132379683Y-117586990D01*
X132547890Y-117699382D01*
X132734792Y-117776800D01*
X132933206Y-117816267D01*
X133135508Y-117816267D01*
X133333922Y-117776800D01*
X133520824Y-117699382D01*
X133689031Y-117586990D01*
X133832080Y-117443941D01*
X133944472Y-117275734D01*
X134021890Y-117088832D01*
X134061357Y-116890418D01*
X134061357Y-116688116D01*
X134021890Y-116489702D01*
X133944472Y-116302800D01*
X133832080Y-116134593D01*
X133689031Y-115991544D01*
X133520824Y-115879152D01*
X133333922Y-115801734D01*
X133135508Y-115762267D01*
X132933206Y-115762267D01*
X132734792Y-115801734D01*
X132547890Y-115879152D01*
X132379683Y-115991544D01*
X132236634Y-116134593D01*
X132124242Y-116302800D01*
X132046824Y-116489702D01*
X132007357Y-116688116D01*
X130127000Y-116688116D01*
X130127000Y-109966818D01*
X130336058Y-109757760D01*
X130441600Y-109629156D01*
X130546250Y-109433371D01*
X130610693Y-109220931D01*
X130632452Y-109000000D01*
X130610693Y-108779070D01*
X130546250Y-108566629D01*
X130441600Y-108370844D01*
X130300765Y-108199235D01*
X130129156Y-108058400D01*
X129933371Y-107953750D01*
X129720930Y-107889307D01*
X129500000Y-107867548D01*
X129279069Y-107889307D01*
X129066629Y-107953750D01*
X128870844Y-108058400D01*
X128742240Y-108163942D01*
X128679290Y-108226893D01*
X128654674Y-108202277D01*
X128486467Y-108089885D01*
X128299565Y-108012467D01*
X128101151Y-107973000D01*
X127898849Y-107973000D01*
X127700435Y-108012467D01*
X127513533Y-108089885D01*
X127345326Y-108202277D01*
X127202277Y-108345326D01*
X127089885Y-108513533D01*
X127012467Y-108700435D01*
X126973000Y-108898849D01*
X126973000Y-109101151D01*
X127012467Y-109299565D01*
X127089885Y-109486467D01*
X127202277Y-109654674D01*
X127248001Y-109700398D01*
X127248000Y-119188512D01*
X127188512Y-119248000D01*
X125036935Y-119248000D01*
X125000000Y-119244362D01*
X124963064Y-119248000D01*
X124963062Y-119248000D01*
X124852582Y-119258881D01*
X124710830Y-119301882D01*
X124580190Y-119371710D01*
X124465683Y-119465683D01*
X124442133Y-119494379D01*
X123494375Y-120442137D01*
X123465684Y-120465683D01*
X123442138Y-120494374D01*
X123442137Y-120494375D01*
X123371710Y-120580190D01*
X123301882Y-120710831D01*
X123258882Y-120852583D01*
X123244362Y-121000000D01*
X123248001Y-121036945D01*
X123248000Y-121963064D01*
X123244362Y-122000000D01*
X123248000Y-122036935D01*
X123248000Y-122036937D01*
X123258881Y-122147417D01*
X123281182Y-122220931D01*
X123301882Y-122289169D01*
X123371710Y-122419810D01*
X123407206Y-122463062D01*
X123465683Y-122534317D01*
X123473000Y-122540322D01*
X123473000Y-122601151D01*
X123512467Y-122799565D01*
X123589885Y-122986467D01*
X123702277Y-123154674D01*
X123845326Y-123297723D01*
X124013533Y-123410115D01*
X124200435Y-123487533D01*
X124398849Y-123527000D01*
X124601151Y-123527000D01*
X124799565Y-123487533D01*
X124986467Y-123410115D01*
X125154674Y-123297723D01*
X125248001Y-123204396D01*
X125248000Y-126963062D01*
X125244362Y-127000000D01*
X125248000Y-127036937D01*
X125248000Y-127304613D01*
X125202277Y-127350336D01*
X125089885Y-127518543D01*
X125012467Y-127705445D01*
X124973000Y-127903859D01*
X124973000Y-127968521D01*
X124518521Y-128423001D01*
X118995145Y-128423001D01*
X119035629Y-128289543D01*
X119064146Y-128000000D01*
X119035629Y-127710457D01*
X118951172Y-127432042D01*
X118814022Y-127175453D01*
X118629450Y-126950550D01*
X118404547Y-126765978D01*
X118147958Y-126628828D01*
X117869543Y-126544371D01*
X117652556Y-126523000D01*
X117507444Y-126523000D01*
X117290457Y-126544371D01*
X117012042Y-126628828D01*
X116755453Y-126765978D01*
X116530550Y-126950550D01*
X116345978Y-127175453D01*
X116310000Y-127242763D01*
X116274022Y-127175453D01*
X116089450Y-126950550D01*
X115864547Y-126765978D01*
X115792000Y-126727201D01*
X115792000Y-126010384D01*
X115797723Y-126004661D01*
X115910115Y-125836454D01*
X115987533Y-125649552D01*
X116027000Y-125451138D01*
X116027000Y-125248836D01*
X115987533Y-125050422D01*
X115910115Y-124863520D01*
X115797723Y-124695313D01*
X115654674Y-124552264D01*
X115486467Y-124439872D01*
X115299565Y-124362454D01*
X115101151Y-124322987D01*
X114898849Y-124322987D01*
X114700435Y-124362454D01*
X114513533Y-124439872D01*
X114345326Y-124552264D01*
X114202277Y-124695313D01*
X114089885Y-124863520D01*
X114012467Y-125050422D01*
X113973000Y-125248836D01*
X113973000Y-125451138D01*
X114012467Y-125649552D01*
X114089885Y-125836454D01*
X114202277Y-126004661D01*
X114288001Y-126090385D01*
X114288000Y-126727200D01*
X114215453Y-126765978D01*
X113990550Y-126950550D01*
X113957081Y-126991332D01*
X113932075Y-126908897D01*
X113873853Y-126799972D01*
X113795501Y-126704499D01*
X113700028Y-126626147D01*
X113591103Y-126567925D01*
X113472913Y-126532073D01*
X113350000Y-126519967D01*
X111650000Y-126519967D01*
X111527087Y-126532073D01*
X111408897Y-126567925D01*
X111299972Y-126626147D01*
X111204499Y-126704499D01*
X111126147Y-126799972D01*
X111067925Y-126908897D01*
X111032073Y-127027087D01*
X111019967Y-127150000D01*
X111019967Y-128850000D01*
X111032073Y-128972913D01*
X111067925Y-129091103D01*
X111126147Y-129200028D01*
X111204499Y-129295501D01*
X111268470Y-129348000D01*
X101652000Y-129348000D01*
X101652000Y-126805282D01*
X102023000Y-126805282D01*
X102023000Y-127194718D01*
X102098975Y-127576670D01*
X102248005Y-127936461D01*
X102464364Y-128260264D01*
X102739736Y-128535636D01*
X103063539Y-128751995D01*
X103423330Y-128901025D01*
X103805282Y-128977000D01*
X104194718Y-128977000D01*
X104576670Y-128901025D01*
X104936461Y-128751995D01*
X105260264Y-128535636D01*
X105535636Y-128260264D01*
X105751995Y-127936461D01*
X105901025Y-127576670D01*
X105977000Y-127194718D01*
X105977000Y-126805282D01*
X105901025Y-126423330D01*
X105751995Y-126063539D01*
X105535636Y-125739736D01*
X105260264Y-125464364D01*
X104936461Y-125248005D01*
X104576670Y-125098975D01*
X104194718Y-125023000D01*
X103805282Y-125023000D01*
X103423330Y-125098975D01*
X103063539Y-125248005D01*
X102739736Y-125464364D01*
X102464364Y-125739736D01*
X102248005Y-126063539D01*
X102098975Y-126423330D01*
X102023000Y-126805282D01*
X101652000Y-126805282D01*
X101652000Y-102805282D01*
X102023000Y-102805282D01*
X102023000Y-103194718D01*
X102098975Y-103576670D01*
X102248005Y-103936461D01*
X102464364Y-104260264D01*
X102739736Y-104535636D01*
X103063539Y-104751995D01*
X103423330Y-104901025D01*
X103805282Y-104977000D01*
X104194718Y-104977000D01*
X104576670Y-104901025D01*
X104936461Y-104751995D01*
X105260264Y-104535636D01*
X105535636Y-104260264D01*
X105751995Y-103936461D01*
X105901025Y-103576670D01*
X105977000Y-103194718D01*
X105977000Y-102805282D01*
X105901025Y-102423330D01*
X105751995Y-102063539D01*
X105535636Y-101739736D01*
X105260264Y-101464364D01*
X104936461Y-101248005D01*
X104576670Y-101098975D01*
X104194718Y-101023000D01*
X103805282Y-101023000D01*
X103423330Y-101098975D01*
X103063539Y-101248005D01*
X102739736Y-101464364D01*
X102464364Y-101739736D01*
X102248005Y-102063539D01*
X102098975Y-102423330D01*
X102023000Y-102805282D01*
X101652000Y-102805282D01*
X101652000Y-100652000D01*
X111268470Y-100652000D01*
X111204499Y-100704499D01*
X111204499Y-100704499D01*
G37*
X111204499Y-100704499D02*
X111126147Y-100799972D01*
X111067925Y-100908897D01*
X111032073Y-101027087D01*
X111019967Y-101150000D01*
X111019967Y-102850000D01*
X111032073Y-102972913D01*
X111067925Y-103091103D01*
X111126147Y-103200028D01*
X111204499Y-103295501D01*
X111299972Y-103373853D01*
X111408897Y-103432075D01*
X111527087Y-103467927D01*
X111650000Y-103480033D01*
X113350000Y-103480033D01*
X113472913Y-103467927D01*
X113591103Y-103432075D01*
X113700028Y-103373853D01*
X113795501Y-103295501D01*
X113873853Y-103200028D01*
X113932075Y-103091103D01*
X113957081Y-103008668D01*
X113990550Y-103049450D01*
X114215453Y-103234022D01*
X114472042Y-103371172D01*
X114750457Y-103455629D01*
X114967444Y-103477000D01*
X115112556Y-103477000D01*
X115329543Y-103455629D01*
X115607958Y-103371172D01*
X115864547Y-103234022D01*
X116089450Y-103049450D01*
X116274022Y-102824547D01*
X116310000Y-102757237D01*
X116345978Y-102824547D01*
X116530550Y-103049450D01*
X116755453Y-103234022D01*
X117012042Y-103371172D01*
X117290457Y-103455629D01*
X117507444Y-103477000D01*
X117652556Y-103477000D01*
X117869543Y-103455629D01*
X118147958Y-103371172D01*
X118404547Y-103234022D01*
X118629450Y-103049450D01*
X118814022Y-102824547D01*
X118824319Y-102805282D01*
X125023000Y-102805282D01*
X125023000Y-103194718D01*
X125098975Y-103576670D01*
X125248005Y-103936461D01*
X125464364Y-104260264D01*
X125739736Y-104535636D01*
X126063539Y-104751995D01*
X126423330Y-104901025D01*
X126805282Y-104977000D01*
X127194718Y-104977000D01*
X127576670Y-104901025D01*
X127936461Y-104751995D01*
X128260264Y-104535636D01*
X128535636Y-104260264D01*
X128751995Y-103936461D01*
X128901025Y-103576670D01*
X128977000Y-103194718D01*
X128977000Y-102805282D01*
X128901025Y-102423330D01*
X128751995Y-102063539D01*
X128535636Y-101739736D01*
X128260264Y-101464364D01*
X127936461Y-101248005D01*
X127576670Y-101098975D01*
X127194718Y-101023000D01*
X126805282Y-101023000D01*
X126423330Y-101098975D01*
X126063539Y-101248005D01*
X125739736Y-101464364D01*
X125464364Y-101739736D01*
X125248005Y-102063539D01*
X125098975Y-102423330D01*
X125023000Y-102805282D01*
X118824319Y-102805282D01*
X118951172Y-102567958D01*
X119035629Y-102289543D01*
X119064146Y-102000000D01*
X119035629Y-101710457D01*
X118951172Y-101432042D01*
X118814022Y-101175453D01*
X118629450Y-100950550D01*
X118404547Y-100765978D01*
X118191310Y-100652000D01*
X134848000Y-100652000D01*
X134848001Y-129348000D01*
X125720498Y-129348000D01*
X126036489Y-129032010D01*
X126101151Y-129032010D01*
X126299565Y-128992543D01*
X126486467Y-128915125D01*
X126654674Y-128802733D01*
X126797723Y-128659684D01*
X126910115Y-128491477D01*
X126987533Y-128304575D01*
X127027000Y-128106161D01*
X127027000Y-127903859D01*
X126987533Y-127705445D01*
X126910115Y-127518543D01*
X126797723Y-127350336D01*
X126755438Y-127308051D01*
X131036489Y-123027000D01*
X131101151Y-123027000D01*
X131299565Y-122987533D01*
X131486467Y-122910115D01*
X131654674Y-122797723D01*
X131797723Y-122654674D01*
X131910115Y-122486467D01*
X131987533Y-122299565D01*
X132000000Y-122236889D01*
X132012467Y-122299565D01*
X132089885Y-122486467D01*
X132202277Y-122654674D01*
X132345326Y-122797723D01*
X132513533Y-122910115D01*
X132700435Y-122987533D01*
X132898849Y-123027000D01*
X133101151Y-123027000D01*
X133299565Y-122987533D01*
X133486467Y-122910115D01*
X133654674Y-122797723D01*
X133797723Y-122654674D01*
X133910115Y-122486467D01*
X133987533Y-122299565D01*
X134027000Y-122101151D01*
X134027000Y-121898849D01*
X133987533Y-121700435D01*
X133910115Y-121513533D01*
X133797723Y-121345326D01*
X133654674Y-121202277D01*
X133486467Y-121089885D01*
X133299565Y-121012467D01*
X133101151Y-120973000D01*
X133036488Y-120973000D01*
X132557867Y-120494379D01*
X132534317Y-120465683D01*
X132419810Y-120371710D01*
X132289170Y-120301882D01*
X132147418Y-120258881D01*
X132036938Y-120248000D01*
X132036935Y-120248000D01*
X132000000Y-120244362D01*
X131963065Y-120248000D01*
X130127000Y-120248000D01*
X130127000Y-116688116D01*
X132007357Y-116688116D01*
X132007357Y-116890418D01*
X132046824Y-117088832D01*
X132124242Y-117275734D01*
X132236634Y-117443941D01*
X132379683Y-117586990D01*
X132547890Y-117699382D01*
X132734792Y-117776800D01*
X132933206Y-117816267D01*
X133135508Y-117816267D01*
X133333922Y-117776800D01*
X133520824Y-117699382D01*
X133689031Y-117586990D01*
X133832080Y-117443941D01*
X133944472Y-117275734D01*
X134021890Y-117088832D01*
X134061357Y-116890418D01*
X134061357Y-116688116D01*
X134021890Y-116489702D01*
X133944472Y-116302800D01*
X133832080Y-116134593D01*
X133689031Y-115991544D01*
X133520824Y-115879152D01*
X133333922Y-115801734D01*
X133135508Y-115762267D01*
X132933206Y-115762267D01*
X132734792Y-115801734D01*
X132547890Y-115879152D01*
X132379683Y-115991544D01*
X132236634Y-116134593D01*
X132124242Y-116302800D01*
X132046824Y-116489702D01*
X132007357Y-116688116D01*
X130127000Y-116688116D01*
X130127000Y-109966818D01*
X130336058Y-109757760D01*
X130441600Y-109629156D01*
X130546250Y-109433371D01*
X130610693Y-109220931D01*
X130632452Y-109000000D01*
X130610693Y-108779070D01*
X130546250Y-108566629D01*
X130441600Y-108370844D01*
X130300765Y-108199235D01*
X130129156Y-108058400D01*
X129933371Y-107953750D01*
X129720930Y-107889307D01*
X129500000Y-107867548D01*
X129279069Y-107889307D01*
X129066629Y-107953750D01*
X128870844Y-108058400D01*
X128742240Y-108163942D01*
X128679290Y-108226893D01*
X128654674Y-108202277D01*
X128486467Y-108089885D01*
X128299565Y-108012467D01*
X128101151Y-107973000D01*
X127898849Y-107973000D01*
X127700435Y-108012467D01*
X127513533Y-108089885D01*
X127345326Y-108202277D01*
X127202277Y-108345326D01*
X127089885Y-108513533D01*
X127012467Y-108700435D01*
X126973000Y-108898849D01*
X126973000Y-109101151D01*
X127012467Y-109299565D01*
X127089885Y-109486467D01*
X127202277Y-109654674D01*
X127248001Y-109700398D01*
X127248000Y-119188512D01*
X127188512Y-119248000D01*
X125036935Y-119248000D01*
X125000000Y-119244362D01*
X124963064Y-119248000D01*
X124963062Y-119248000D01*
X124852582Y-119258881D01*
X124710830Y-119301882D01*
X124580190Y-119371710D01*
X124465683Y-119465683D01*
X124442133Y-119494379D01*
X123494375Y-120442137D01*
X123465684Y-120465683D01*
X123442138Y-120494374D01*
X123442137Y-120494375D01*
X123371710Y-120580190D01*
X123301882Y-120710831D01*
X123258882Y-120852583D01*
X123244362Y-121000000D01*
X123248001Y-121036945D01*
X123248000Y-121963064D01*
X123244362Y-122000000D01*
X123248000Y-122036935D01*
X123248000Y-122036937D01*
X123258881Y-122147417D01*
X123281182Y-122220931D01*
X123301882Y-122289169D01*
X123371710Y-122419810D01*
X123407206Y-122463062D01*
X123465683Y-122534317D01*
X123473000Y-122540322D01*
X123473000Y-122601151D01*
X123512467Y-122799565D01*
X123589885Y-122986467D01*
X123702277Y-123154674D01*
X123845326Y-123297723D01*
X124013533Y-123410115D01*
X124200435Y-123487533D01*
X124398849Y-123527000D01*
X124601151Y-123527000D01*
X124799565Y-123487533D01*
X124986467Y-123410115D01*
X125154674Y-123297723D01*
X125248001Y-123204396D01*
X125248000Y-126963062D01*
X125244362Y-127000000D01*
X125248000Y-127036937D01*
X125248000Y-127304613D01*
X125202277Y-127350336D01*
X125089885Y-127518543D01*
X125012467Y-127705445D01*
X124973000Y-127903859D01*
X124973000Y-127968521D01*
X124518521Y-128423001D01*
X118995145Y-128423001D01*
X119035629Y-128289543D01*
X119064146Y-128000000D01*
X119035629Y-127710457D01*
X118951172Y-127432042D01*
X118814022Y-127175453D01*
X118629450Y-126950550D01*
X118404547Y-126765978D01*
X118147958Y-126628828D01*
X117869543Y-126544371D01*
X117652556Y-126523000D01*
X117507444Y-126523000D01*
X117290457Y-126544371D01*
X117012042Y-126628828D01*
X116755453Y-126765978D01*
X116530550Y-126950550D01*
X116345978Y-127175453D01*
X116310000Y-127242763D01*
X116274022Y-127175453D01*
X116089450Y-126950550D01*
X115864547Y-126765978D01*
X115792000Y-126727201D01*
X115792000Y-126010384D01*
X115797723Y-126004661D01*
X115910115Y-125836454D01*
X115987533Y-125649552D01*
X116027000Y-125451138D01*
X116027000Y-125248836D01*
X115987533Y-125050422D01*
X115910115Y-124863520D01*
X115797723Y-124695313D01*
X115654674Y-124552264D01*
X115486467Y-124439872D01*
X115299565Y-124362454D01*
X115101151Y-124322987D01*
X114898849Y-124322987D01*
X114700435Y-124362454D01*
X114513533Y-124439872D01*
X114345326Y-124552264D01*
X114202277Y-124695313D01*
X114089885Y-124863520D01*
X114012467Y-125050422D01*
X113973000Y-125248836D01*
X113973000Y-125451138D01*
X114012467Y-125649552D01*
X114089885Y-125836454D01*
X114202277Y-126004661D01*
X114288001Y-126090385D01*
X114288000Y-126727200D01*
X114215453Y-126765978D01*
X113990550Y-126950550D01*
X113957081Y-126991332D01*
X113932075Y-126908897D01*
X113873853Y-126799972D01*
X113795501Y-126704499D01*
X113700028Y-126626147D01*
X113591103Y-126567925D01*
X113472913Y-126532073D01*
X113350000Y-126519967D01*
X111650000Y-126519967D01*
X111527087Y-126532073D01*
X111408897Y-126567925D01*
X111299972Y-126626147D01*
X111204499Y-126704499D01*
X111126147Y-126799972D01*
X111067925Y-126908897D01*
X111032073Y-127027087D01*
X111019967Y-127150000D01*
X111019967Y-128850000D01*
X111032073Y-128972913D01*
X111067925Y-129091103D01*
X111126147Y-129200028D01*
X111204499Y-129295501D01*
X111268470Y-129348000D01*
X101652000Y-129348000D01*
X101652000Y-126805282D01*
X102023000Y-126805282D01*
X102023000Y-127194718D01*
X102098975Y-127576670D01*
X102248005Y-127936461D01*
X102464364Y-128260264D01*
X102739736Y-128535636D01*
X103063539Y-128751995D01*
X103423330Y-128901025D01*
X103805282Y-128977000D01*
X104194718Y-128977000D01*
X104576670Y-128901025D01*
X104936461Y-128751995D01*
X105260264Y-128535636D01*
X105535636Y-128260264D01*
X105751995Y-127936461D01*
X105901025Y-127576670D01*
X105977000Y-127194718D01*
X105977000Y-126805282D01*
X105901025Y-126423330D01*
X105751995Y-126063539D01*
X105535636Y-125739736D01*
X105260264Y-125464364D01*
X104936461Y-125248005D01*
X104576670Y-125098975D01*
X104194718Y-125023000D01*
X103805282Y-125023000D01*
X103423330Y-125098975D01*
X103063539Y-125248005D01*
X102739736Y-125464364D01*
X102464364Y-125739736D01*
X102248005Y-126063539D01*
X102098975Y-126423330D01*
X102023000Y-126805282D01*
X101652000Y-126805282D01*
X101652000Y-102805282D01*
X102023000Y-102805282D01*
X102023000Y-103194718D01*
X102098975Y-103576670D01*
X102248005Y-103936461D01*
X102464364Y-104260264D01*
X102739736Y-104535636D01*
X103063539Y-104751995D01*
X103423330Y-104901025D01*
X103805282Y-104977000D01*
X104194718Y-104977000D01*
X104576670Y-104901025D01*
X104936461Y-104751995D01*
X105260264Y-104535636D01*
X105535636Y-104260264D01*
X105751995Y-103936461D01*
X105901025Y-103576670D01*
X105977000Y-103194718D01*
X105977000Y-102805282D01*
X105901025Y-102423330D01*
X105751995Y-102063539D01*
X105535636Y-101739736D01*
X105260264Y-101464364D01*
X104936461Y-101248005D01*
X104576670Y-101098975D01*
X104194718Y-101023000D01*
X103805282Y-101023000D01*
X103423330Y-101098975D01*
X103063539Y-101248005D01*
X102739736Y-101464364D01*
X102464364Y-101739736D01*
X102248005Y-102063539D01*
X102098975Y-102423330D01*
X102023000Y-102805282D01*
X101652000Y-102805282D01*
X101652000Y-100652000D01*
X111268470Y-100652000D01*
X111204499Y-100704499D01*
M02*
