G04 #@! TF.GenerationSoftware,KiCad,Pcbnew,5.1.4-e60b266~84~ubuntu18.04.1*
G04 #@! TF.CreationDate,2019-11-06T20:36:44-07:00*
G04 #@! TF.ProjectId,cob_5x5_lowpower,636f625f-3578-4355-9f6c-6f77706f7765,rev?*
G04 #@! TF.SameCoordinates,Original*
G04 #@! TF.FileFunction,Other,Fab,Top*
%FSLAX46Y46*%
G04 Gerber Fmt 4.6, Leading zero omitted, Abs format (unit mm)*
G04 Created by KiCad (PCBNEW 5.1.4-e60b266~84~ubuntu18.04.1) date 2019-11-06 20:36:44*
%MOMM*%
%LPD*%
G04 APERTURE LIST*
%ADD10C,0.100000*%
G04 APERTURE END LIST*
D10*
X111865000Y-103270000D02*
X111230000Y-102635000D01*
X118850000Y-103270000D02*
X111865000Y-103270000D01*
X118850000Y-100730000D02*
X118850000Y-103270000D01*
X111230000Y-100730000D02*
X118850000Y-100730000D01*
X111230000Y-102635000D02*
X111230000Y-100730000D01*
X127380000Y-126540000D02*
X126440000Y-127480000D01*
X127380000Y-122520000D02*
X127380000Y-126540000D01*
X123620000Y-122520000D02*
X127380000Y-122520000D01*
X123620000Y-127480000D02*
X123620000Y-122520000D01*
X126440000Y-127480000D02*
X123620000Y-127480000D01*
X128600000Y-120800000D02*
X128600000Y-119200000D01*
X129400000Y-120800000D02*
X128600000Y-120800000D01*
X129400000Y-119200000D02*
X129400000Y-120800000D01*
X128600000Y-119200000D02*
X129400000Y-119200000D01*
X129400000Y-112200000D02*
X129400000Y-113800000D01*
X128600000Y-112200000D02*
X129400000Y-112200000D01*
X128600000Y-113800000D02*
X128600000Y-112200000D01*
X129400000Y-113800000D02*
X128600000Y-113800000D01*
X128600000Y-108800000D02*
X128600000Y-107200000D01*
X129400000Y-108800000D02*
X128600000Y-108800000D01*
X129400000Y-107200000D02*
X129400000Y-108800000D01*
X128600000Y-107200000D02*
X129400000Y-107200000D01*
X127100000Y-119750000D02*
X123900000Y-119750000D01*
X127100000Y-117250000D02*
X127100000Y-119750000D01*
X123900000Y-117250000D02*
X127100000Y-117250000D01*
X123900000Y-119750000D02*
X123900000Y-117250000D01*
X127100000Y-116250000D02*
X123900000Y-116250000D01*
X127100000Y-113750000D02*
X127100000Y-116250000D01*
X123900000Y-113750000D02*
X127100000Y-113750000D01*
X123900000Y-116250000D02*
X123900000Y-113750000D01*
X127100000Y-112750000D02*
X123900000Y-112750000D01*
X127100000Y-110250000D02*
X127100000Y-112750000D01*
X123900000Y-110250000D02*
X127100000Y-110250000D01*
X123900000Y-112750000D02*
X123900000Y-110250000D01*
X129100000Y-118100000D02*
X128600000Y-118100000D01*
X129400000Y-117800000D02*
X129100000Y-118100000D01*
X129400000Y-116900000D02*
X129400000Y-117800000D01*
X128600000Y-116900000D02*
X129400000Y-116900000D01*
X128600000Y-118100000D02*
X128600000Y-116900000D01*
X129100000Y-116100000D02*
X128600000Y-116100000D01*
X129400000Y-115800000D02*
X129100000Y-116100000D01*
X129400000Y-114900000D02*
X129400000Y-115800000D01*
X128600000Y-114900000D02*
X129400000Y-114900000D01*
X128600000Y-116100000D02*
X128600000Y-114900000D01*
X129100000Y-111100000D02*
X128600000Y-111100000D01*
X129400000Y-110800000D02*
X129100000Y-111100000D01*
X129400000Y-109900000D02*
X129400000Y-110800000D01*
X128600000Y-109900000D02*
X129400000Y-109900000D01*
X128600000Y-111100000D02*
X128600000Y-109900000D01*
X111865000Y-129270000D02*
X111230000Y-128635000D01*
X118850000Y-129270000D02*
X111865000Y-129270000D01*
X118850000Y-126730000D02*
X118850000Y-129270000D01*
X111230000Y-126730000D02*
X118850000Y-126730000D01*
X111230000Y-128635000D02*
X111230000Y-126730000D01*
X118625231Y-113309527D02*
G75*
G03X115000000Y-111000000I-3625231J-1690473D01*
G01*
X111374769Y-113309527D02*
G75*
G02X115000000Y-111000000I3625231J-1690473D01*
G01*
X111374769Y-116690473D02*
G75*
G03X115000000Y-119000000I3625231J1690473D01*
G01*
X118625231Y-116690473D02*
G75*
G02X115000000Y-119000000I-3625231J1690473D01*
G01*
X111400000Y-116800000D02*
X111400000Y-113200000D01*
X118600000Y-113200000D02*
X118600000Y-116800000D01*
X111400000Y-113300000D02*
X108800000Y-113300000D01*
X108800000Y-115000000D02*
X111400000Y-115000000D01*
X111400000Y-116700000D02*
X108800000Y-116700000D01*
X118600000Y-116700000D02*
X121300000Y-116700000D01*
X121300000Y-115000000D02*
X118600000Y-115000000D01*
X118600000Y-113300000D02*
X121300000Y-113300000D01*
X126300000Y-129400000D02*
X124700000Y-129400000D01*
X126300000Y-128600000D02*
X126300000Y-129400000D01*
X124700000Y-128600000D02*
X126300000Y-128600000D01*
X124700000Y-129400000D02*
X124700000Y-128600000D01*
X125700000Y-120600000D02*
X127300000Y-120600000D01*
X125700000Y-121400000D02*
X125700000Y-120600000D01*
X127300000Y-121400000D02*
X125700000Y-121400000D01*
X127300000Y-120600000D02*
X127300000Y-121400000D01*
X114000000Y-124400000D02*
X116000000Y-124400000D01*
X114000000Y-125600000D02*
X114000000Y-124400000D01*
X116000000Y-125600000D02*
X114000000Y-125600000D01*
X116000000Y-124400000D02*
X116000000Y-125600000D01*
M02*
