M48
; DRILL file {KiCad 5.1.4-e60b266~84~ubuntu18.04.1} date Wed 06 Nov 2019 08:36:46 PM MST
; FORMAT={-:-/ absolute / inch / decimal}
; #@! TF.CreationDate,2019-11-06T20:36:46-07:00
; #@! TF.GenerationSoftware,Kicad,Pcbnew,5.1.4-e60b266~84~ubuntu18.04.1
; #@! TF.FileFunction,Plated,1,2,PTH
FMAT,2
INCH
T1C0.0157
T2C0.0394
%
G90
G05
T1
X4.3307Y-4.3701
X4.3307Y-4.685
X4.3898Y-4.4094
X4.3898Y-4.4685
X4.3898Y-4.5276
X4.3898Y-4.5866
X4.3898Y-4.6654
X4.4094Y-4.3701
X4.4291Y-4.685
X4.4488Y-4.4094
X4.4488Y-4.6457
X4.4882Y-4.3504
X4.4882Y-4.7047
X4.5276Y-4.3898
X4.5276Y-4.6654
X4.5669Y-4.3504
X4.5669Y-4.7047
X4.6063Y-4.4094
X4.6063Y-4.6457
X4.626Y-4.685
X4.6457Y-4.3701
X4.6654Y-4.4094
X4.6654Y-4.4685
X4.6654Y-4.5276
X4.6654Y-4.5866
X4.6654Y-4.6654
X4.7244Y-4.3701
X4.7244Y-4.685
X4.7835Y-4.7835
X4.8228Y-4.3307
X4.8622Y-4.8031
X4.8777Y-4.7438
X4.9409Y-4.6023
X4.9606Y-5.0394
X4.9803Y-4.8819
X4.9803Y-4.9409
X5.0197Y-4.2913
X5.0787Y-4.8031
X5.0801Y-4.598
X5.0984Y-4.8622
X5.0984Y-5.0787
T2
X4.4291Y-4.0157
X4.5291Y-4.0157
X4.6291Y-4.0157
X4.4291Y-5.0394
X4.5291Y-5.0394
X4.6291Y-5.0394
T0
M30
