<?xml version="1.0" standalone="no"?>
 <!DOCTYPE svg PUBLIC "-//W3C//DTD SVG 1.1//EN" 
 "http://www.w3.org/Graphics/SVG/1.1/DTD/svg11.dtd"> 
<svg xmlns="http://www.w3.org/2000/svg" version="1.1" 
    width="4.29768cm" height="3.52298cm" viewBox="0 0 16920 13870 ">
<title>SVG Picture created as cob_5x5_lowpower-brd.svg date 2019/11/17 19:58:45 </title>
  <desc>Picture generated by PCBNEW </desc>
<g style="fill:#000000; fill-opacity:1;stroke:#000000; stroke-opacity:1;
stroke-linecap:round; stroke-linejoin:round; "
 transform="translate(0 0) scale(1 1)">
</g>
<g style="fill:#000000; fill-opacity:0.0; 
stroke:#000000; stroke-width:-0.000393701; stroke-opacity:1; 
stroke-linecap:round; stroke-linejoin:round;">
</g>
<g style="fill:#840084; fill-opacity:0.0; 
stroke:#840084; stroke-width:-0.000393701; stroke-opacity:1; 
stroke-linecap:round; stroke-linejoin:round;">
</g>
<g style="fill:#840084; fill-opacity:1.0; 
stroke:#840084; stroke-width:0; stroke-opacity:1; 
stroke-linecap:round; stroke-linejoin:round;">
<path style="fill:#840084; fill-opacity:1.0; 
stroke:#840084; stroke-width:0; stroke-opacity:1; 
stroke-linecap:round; stroke-linejoin:round;fill-rule:evenodd;"
d="M 10119,12244
10133,12248
10145,12255
10156,12263
10165,12274
10171,12287
10175,12300
10177,12316
10177,12582
10175,12599
10171,12612
10165,12625
10156,12635
10145,12644
10133,12651
10119,12655
10103,12656
9866,12656
9850,12655
9837,12651
9824,12644
9814,12635
9805,12625
9798,12612
9794,12599
9792,12582
9792,12316
9794,12300
9798,12287
9805,12274
9814,12263
9824,12255
9837,12248
9850,12244
9866,12242
10103,12242
10119,12244
Z" /> 
<path style="fill:#840084; fill-opacity:1.0; 
stroke:#840084; stroke-width:0; stroke-opacity:1; 
stroke-linecap:round; stroke-linejoin:round;fill-rule:evenodd;"
d="M 9499,12244
9513,12248
9525,12255
9536,12263
9545,12274
9551,12287
9555,12300
9557,12316
9557,12582
9555,12599
9551,12612
9545,12625
9536,12635
9525,12644
9513,12651
9499,12655
9483,12656
9246,12656
9230,12655
9217,12651
9204,12644
9193,12635
9185,12625
9178,12612
9174,12599
9172,12582
9172,12316
9174,12300
9178,12287
9185,12274
9193,12263
9204,12255
9217,12248
9230,12244
9246,12242
9483,12242
9499,12244
Z" /> 
<path style="fill:#840084; fill-opacity:1.0; 
stroke:#840084; stroke-width:0; stroke-opacity:1; 
stroke-linecap:round; stroke-linejoin:round;fill-rule:evenodd;"
d="M 3606,12018
3621,12022
3635,12030
3647,12040
3657,12052
3665,12066
3669,12081
3671,12100
3671,12356
3669,12374
3665,12390
3657,12404
3647,12416
3635,12426
3621,12433
3606,12438
3587,12440
3164,12440
3145,12438
3130,12433
3116,12426
3104,12416
3094,12404
3086,12390
3082,12374
3080,12356
3080,12100
3082,12081
3086,12066
3094,12052
3104,12040
3116,12030
3130,12022
3145,12018
3164,12016
3587,12016
3606,12018
Z" /> 
<path style="fill:#840084; fill-opacity:1.0; 
stroke:#840084; stroke-width:0; stroke-opacity:1; 
stroke-linecap:round; stroke-linejoin:round;fill-rule:evenodd;"
d="M 5600,11703
5626,11706
5693,11726
5755,11759
5760,11764
5809,11804
5841,11844
5853,11858
5886,11919
5906,11986
5913,12056
5906,12125
5886,12192
5853,12254
5845,12263
5809,12308
5777,12334
5755,12352
5693,12385
5626,12405
5600,12408
5574,12410
5539,12410
5513,12408
5487,12405
5420,12385
5359,12352
5336,12334
5305,12308
5268,12263
5260,12254
5227,12192
5207,12125
5200,12056
5207,11986
5227,11919
5260,11858
5272,11844
5305,11804
5353,11764
5359,11759
5420,11726
5487,11706
5513,11703
5539,11701
5574,11701
5600,11703
Z" /> 
<path style="fill:#840084; fill-opacity:1.0; 
stroke:#840084; stroke-width:0; stroke-opacity:1; 
stroke-linecap:round; stroke-linejoin:round;fill-rule:evenodd;"
d="M 4911,12410
4202,12410
4202,11701
4911,11701
4911,12410
Z" /> 
<path style="fill:#840084; fill-opacity:1.0; 
stroke:#840084; stroke-width:0; stroke-opacity:1; 
stroke-linecap:round; stroke-linejoin:round;fill-rule:evenodd;"
d="M 6600,11703
6626,11706
6693,11726
6755,11759
6760,11764
6809,11804
6841,11844
6853,11858
6886,11919
6906,11986
6913,12056
6906,12125
6886,12192
6853,12254
6845,12263
6809,12308
6777,12334
6755,12352
6693,12385
6626,12405
6600,12408
6574,12410
6539,12410
6513,12408
6487,12405
6420,12385
6359,12352
6336,12334
6305,12308
6268,12263
6260,12254
6227,12192
6207,12125
6200,12056
6207,11986
6227,11919
6260,11858
6272,11844
6305,11804
6353,11764
6359,11759
6420,11726
6487,11706
6513,11703
6539,11701
6574,11701
6600,11703
Z" /> 
<path style="fill:#840084; fill-opacity:1.0; 
stroke:#840084; stroke-width:0; stroke-opacity:1; 
stroke-linecap:round; stroke-linejoin:round;fill-rule:evenodd;"
d="M 1335,11125
1371,11132
1413,11149
1471,11173
1471,11173
1562,11234
1639,11310
1661,11343
1699,11401
1723,11459
1739,11499
1741,11501
1762,11608
1762,11716
1741,11823
1699,11923
1699,11923
1639,12014
1562,12090
1515,12122
1471,12151
1413,12175
1371,12192
1335,12199
1264,12214
1156,12214
1085,12199
1049,12192
1008,12175
949,12151
906,12122
859,12090
782,12014
721,11923
721,11923
680,11823
659,11716
659,11608
680,11501
681,11499
697,11459
721,11401
760,11343
782,11310
859,11234
949,11173
949,11173
1008,11149
1049,11132
1085,11125
1156,11110
1264,11110
1335,11125
Z" /> 
<path style="fill:#840084; fill-opacity:1.0; 
stroke:#840084; stroke-width:0; stroke-opacity:1; 
stroke-linecap:round; stroke-linejoin:round;fill-rule:evenodd;"
d="M 12224,11478
12233,11480
12242,11485
12249,11491
12255,11499
12260,11507
12262,11516
12264,11528
12264,11721
12262,11733
12260,11742
12255,11750
12249,11758
12242,11764
12233,11769
12224,11771
12212,11773
11498,11773
11486,11771
11477,11769
11468,11764
11461,11758
11454,11750
11450,11742
11447,11733
11446,11721
11446,11528
11447,11516
11450,11507
11454,11499
11461,11491
11468,11485
11477,11480
11486,11478
11498,11477
12212,11477
12224,11478
Z" /> 
<path style="fill:#840084; fill-opacity:1.0; 
stroke:#840084; stroke-width:0; stroke-opacity:1; 
stroke-linecap:round; stroke-linejoin:round;fill-rule:evenodd;"
d="M 10226,11478
10235,11480
10244,11485
10251,11491
10257,11499
10262,11507
10264,11516
10266,11528
10266,11721
10264,11733
10262,11742
10257,11750
10251,11758
10244,11764
10235,11769
10226,11771
10214,11773
9500,11773
9488,11771
9479,11769
9470,11764
9463,11758
9456,11750
9452,11742
9449,11733
9448,11721
9448,11528
9449,11516
9452,11507
9456,11499
9463,11491
9470,11485
9479,11480
9488,11478
9500,11477
10214,11477
10226,11478
Z" /> 
<path style="fill:#840084; fill-opacity:1.0; 
stroke:#840084; stroke-width:0; stroke-opacity:1; 
stroke-linecap:round; stroke-linejoin:round;fill-rule:evenodd;"
d="M 3606,11279
3621,11284
3635,11292
3647,11302
3657,11314
3665,11328
3669,11343
3671,11362
3671,11618
3669,11636
3665,11651
3657,11665
3647,11678
3635,11688
3621,11695
3606,11700
3587,11702
3164,11702
3145,11700
3130,11695
3116,11688
3104,11678
3094,11665
3086,11651
3082,11636
3080,11618
3080,11362
3082,11343
3086,11328
3094,11314
3104,11302
3116,11292
3130,11284
3145,11279
3164,11278
3587,11278
3606,11279
Z" /> 
<path style="fill:#840084; fill-opacity:1.0; 
stroke:#840084; stroke-width:0; stroke-opacity:1; 
stroke-linecap:round; stroke-linejoin:round;fill-rule:evenodd;"
d="M 12224,10978
12233,10980
12242,10985
12249,10991
12255,10999
12260,11007
12262,11016
12264,11028
12264,11221
12262,11233
12260,11242
12255,11250
12249,11258
12242,11264
12233,11269
12224,11271
12212,11273
11498,11273
11486,11271
11477,11269
11468,11264
11461,11258
11454,11250
11450,11242
11447,11233
11446,11221
11446,11028
11447,11016
11450,11007
11454,10999
11461,10991
11468,10985
11477,10980
11486,10978
11498,10977
12212,10977
12224,10978
Z" /> 
<path style="fill:#840084; fill-opacity:1.0; 
stroke:#840084; stroke-width:0; stroke-opacity:1; 
stroke-linecap:round; stroke-linejoin:round;fill-rule:evenodd;"
d="M 10226,10978
10235,10980
10244,10985
10251,10991
10257,10999
10262,11007
10264,11016
10266,11028
10266,11221
10264,11233
10262,11242
10257,11250
10251,11258
10244,11264
10235,11269
10226,11271
10214,11273
9500,11273
9488,11271
9479,11269
9470,11264
9463,11258
9456,11250
9452,11242
9449,11233
9448,11221
9448,11028
9449,11016
9452,11007
9456,10999
9463,10991
9470,10985
9479,10980
9488,10978
9500,10977
10214,10977
10226,10978
Z" /> 
<path style="fill:#840084; fill-opacity:1.0; 
stroke:#840084; stroke-width:0; stroke-opacity:1; 
stroke-linecap:round; stroke-linejoin:round;fill-rule:evenodd;"
d="M 10226,10478
10235,10480
10244,10485
10251,10491
10257,10499
10262,10507
10264,10516
10266,10528
10266,10721
10264,10733
10262,10742
10257,10750
10251,10758
10244,10764
10235,10769
10226,10771
10214,10773
9500,10773
9488,10771
9479,10769
9470,10764
9463,10758
9456,10750
9452,10742
9449,10733
9448,10721
9448,10528
9449,10516
9452,10507
9456,10499
9463,10491
9470,10485
9479,10480
9488,10478
9500,10477
10214,10477
10226,10478
Z" /> 
<path style="fill:#840084; fill-opacity:1.0; 
stroke:#840084; stroke-width:0; stroke-opacity:1; 
stroke-linecap:round; stroke-linejoin:round;fill-rule:evenodd;"
d="M 12224,10478
12233,10480
12242,10485
12249,10491
12255,10499
12260,10507
12262,10516
12264,10528
12264,10721
12262,10733
12260,10742
12255,10750
12249,10758
12242,10764
12233,10769
12224,10771
12212,10773
11498,10773
11486,10771
11477,10769
11468,10764
11461,10758
11454,10750
11450,10742
11447,10733
11446,10721
11446,10528
11447,10516
11450,10507
11454,10499
11461,10491
11468,10485
11477,10480
11486,10478
11498,10477
12212,10477
12224,10478
Z" /> 
<path style="fill:#840084; fill-opacity:1.0; 
stroke:#840084; stroke-width:0; stroke-opacity:1; 
stroke-linecap:round; stroke-linejoin:round;fill-rule:evenodd;"
d="M 10226,9978
10235,9980
10244,9985
10251,9991
10257,9999
10262,10007
10264,10016
10266,10028
10266,10221
10264,10233
10262,10242
10257,10250
10251,10258
10244,10264
10235,10269
10226,10271
10214,10273
9500,10273
9488,10271
9479,10269
9470,10264
9463,10258
9456,10250
9452,10242
9449,10233
9448,10221
9448,10028
9449,10016
9452,10007
9456,9999
9463,9991
9470,9985
9479,9980
9488,9978
9500,9977
10214,9977
10226,9978
Z" /> 
<path style="fill:#840084; fill-opacity:1.0; 
stroke:#840084; stroke-width:0; stroke-opacity:1; 
stroke-linecap:round; stroke-linejoin:round;fill-rule:evenodd;"
d="M 12224,9978
12233,9980
12242,9985
12249,9991
12255,9999
12260,10007
12262,10016
12264,10028
12264,10221
12262,10233
12260,10242
12255,10250
12249,10258
12242,10264
12233,10269
12224,10271
12212,10273
11498,10273
11486,10271
11477,10269
11468,10264
11461,10258
11454,10250
11450,10242
11447,10233
11446,10221
11446,10028
11447,10016
11450,10007
11454,9999
11461,9991
11468,9985
11477,9980
11486,9978
11498,9977
12212,9977
12224,9978
Z" /> 
<path style="fill:#840084; fill-opacity:1.0; 
stroke:#840084; stroke-width:0; stroke-opacity:1; 
stroke-linecap:round; stroke-linejoin:round;fill-rule:evenodd;"
d="M 10090,9094
10103,9098
10116,9105
10126,9114
10135,9125
10142,9137
10146,9150
10148,9167
10148,9433
10146,9449
10142,9463
10135,9475
10126,9486
10116,9495
10103,9501
10090,9505
10074,9507
9837,9507
9821,9505
9807,9501
9795,9495
9784,9486
9775,9475
9769,9463
9764,9449
9763,9433
9763,9167
9764,9150
9769,9137
9775,9125
9784,9114
9795,9105
9807,9098
9821,9094
9837,9093
10074,9093
10090,9094
Z" /> 
<path style="fill:#840084; fill-opacity:1.0; 
stroke:#840084; stroke-width:0; stroke-opacity:1; 
stroke-linecap:round; stroke-linejoin:round;fill-rule:evenodd;"
d="M 10710,9094
10723,9098
10736,9105
10746,9114
10755,9125
10762,9137
10766,9150
10768,9167
10768,9433
10766,9449
10762,9463
10755,9475
10746,9486
10736,9495
10723,9501
10710,9505
10694,9507
10457,9507
10441,9505
10427,9501
10415,9495
10404,9486
10395,9475
10389,9463
10385,9449
10383,9433
10383,9167
10385,9150
10389,9137
10395,9125
10404,9114
10415,9105
10427,9098
10441,9094
10457,9093
10694,9093
10710,9094
Z" /> 
<path style="fill:#840084; fill-opacity:1.0; 
stroke:#840084; stroke-width:0; stroke-opacity:1; 
stroke-linecap:round; stroke-linejoin:round;fill-rule:evenodd;"
d="M 12777,9025
12790,9029
12803,9036
12813,9045
12822,9056
12829,9068
12833,9081
12835,9098
12835,9334
12833,9351
12829,9364
12822,9376
12813,9387
12803,9396
12790,9403
12777,9407
12761,9408
12494,9408
12478,9407
12465,9403
12452,9396
12441,9387
12433,9376
12426,9364
12422,9351
12420,9334
12420,9098
12422,9081
12426,9068
12433,9056
12441,9045
12452,9036
12465,9029
12478,9025
12494,9024
12761,9024
12777,9025
Z" /> 
<path style="fill:#840084; fill-opacity:1.0; 
stroke:#840084; stroke-width:0; stroke-opacity:1; 
stroke-linecap:round; stroke-linejoin:round;fill-rule:evenodd;"
d="M 10902,7775
10917,7780
10930,7787
10942,7796
10951,7808
10958,7821
10963,7836
10964,7853
10964,8778
10963,8795
10958,8810
10951,8823
10942,8835
10930,8844
10917,8851
10902,8856
10885,8857
10512,8857
10494,8856
10480,8851
10467,8844
10455,8835
10445,8823
10438,8810
10434,8795
10432,8778
10432,7853
10434,7836
10438,7821
10445,7808
10455,7796
10467,7787
10480,7780
10494,7775
10512,7774
10885,7774
10902,7775
Z" /> 
<path style="fill:#840084; fill-opacity:1.0; 
stroke:#840084; stroke-width:0; stroke-opacity:1; 
stroke-linecap:round; stroke-linejoin:round;fill-rule:evenodd;"
d="M 12005,7775
12019,7780
12033,7787
12044,7796
12054,7808
12061,7821
12065,7836
12067,7853
12067,8778
12065,8795
12061,8810
12054,8823
12044,8835
12033,8844
12019,8851
12005,8856
11987,8857
11614,8857
11597,8856
11582,8851
11569,8844
11557,8835
11548,8823
11541,8810
11536,8795
11535,8778
11535,7853
11536,7836
11541,7821
11548,7808
11557,7796
11569,7787
11582,7780
11597,7775
11614,7774
11987,7774
12005,7775
Z" /> 
<path style="fill:#840084; fill-opacity:1.0; 
stroke:#840084; stroke-width:0; stroke-opacity:1; 
stroke-linecap:round; stroke-linejoin:round;fill-rule:evenodd;"
d="M 12777,8405
12790,8409
12803,8416
12813,8425
12822,8436
12829,8448
12833,8461
12835,8478
12835,8714
12833,8731
12829,8744
12822,8756
12813,8767
12803,8776
12790,8783
12777,8787
12761,8788
12494,8788
12478,8787
12465,8783
12452,8776
12441,8767
12433,8756
12426,8744
12422,8731
12420,8714
12420,8478
12422,8461
12426,8448
12433,8436
12441,8425
12452,8416
12465,8409
12478,8405
12494,8404
12761,8404
12777,8405
Z" /> 
<path style="fill:#840084; fill-opacity:1.0; 
stroke:#840084; stroke-width:0; stroke-opacity:1; 
stroke-linecap:round; stroke-linejoin:round;fill-rule:evenodd;"
d="M 12962,8178
12745,8178
12745,7980
12962,7980
12962,8178
Z" /> 
<path style="fill:#840084; fill-opacity:1.0; 
stroke:#840084; stroke-width:0; stroke-opacity:1; 
stroke-linecap:round; stroke-linejoin:round;fill-rule:evenodd;"
d="M 5874,5839
5874,5839
5874,5839
6082,5925
6269,6050
6428,6209
6553,6397
6553,6397
6639,6604
6683,6825
6683,7050
6639,7271
6553,7478
6553,7479
6428,7666
6269,7825
6082,7950
6082,7950
6082,7950
5874,8036
5653,8080
5428,8080
5208,8036
5000,7950
5000,7950
5000,7950
4813,7825
4654,7666
4529,7479
4528,7478
4443,7271
4399,7050
4399,6825
4443,6604
4529,6397
4529,6397
4654,6209
4813,6050
5000,5925
5208,5839
5208,5839
5208,5839
5428,5795
5653,5795
5874,5839
Z" /> 
<path style="fill:#840084; fill-opacity:1.0; 
stroke:#840084; stroke-width:0; stroke-opacity:1; 
stroke-linecap:round; stroke-linejoin:round;fill-rule:evenodd;"
d="M 12510,8040
12292,8040
12292,7803
12510,7803
12510,8040
Z" /> 
<path style="fill:#840084; fill-opacity:1.0; 
stroke:#840084; stroke-width:0; stroke-opacity:1; 
stroke-linecap:round; stroke-linejoin:round;fill-rule:evenodd;"
d="M 3722,7863
2462,7863
2462,7351
3722,7351
3722,7863
Z" /> 
<path style="fill:#840084; fill-opacity:1.0; 
stroke:#840084; stroke-width:0; stroke-opacity:1; 
stroke-linecap:round; stroke-linejoin:round;fill-rule:evenodd;"
d="M 12962,7863
12745,7863
12745,7665
12962,7665
12962,7863
Z" /> 
<path style="fill:#840084; fill-opacity:1.0; 
stroke:#840084; stroke-width:0; stroke-opacity:1; 
stroke-linecap:round; stroke-linejoin:round;fill-rule:evenodd;"
d="M 8620,7863
7359,7863
7359,7351
8620,7351
8620,7863
Z" /> 
<path style="fill:#840084; fill-opacity:1.0; 
stroke:#840084; stroke-width:0; stroke-opacity:1; 
stroke-linecap:round; stroke-linejoin:round;fill-rule:evenodd;"
d="M 12005,6398
12019,6402
12033,6409
12044,6419
12054,6430
12061,6443
12065,6458
12067,6475
12067,7400
12065,7417
12061,7432
12054,7445
12044,7457
12033,7466
12019,7473
12005,7478
11987,7479
11614,7479
11597,7478
11582,7473
11569,7466
11557,7457
11548,7445
11541,7432
11536,7417
11535,7400
11535,6475
11536,6458
11541,6443
11548,6430
11557,6419
11569,6409
11582,6402
11597,6398
11614,6396
11987,6396
12005,6398
Z" /> 
<path style="fill:#840084; fill-opacity:1.0; 
stroke:#840084; stroke-width:0; stroke-opacity:1; 
stroke-linecap:round; stroke-linejoin:round;fill-rule:evenodd;"
d="M 10902,6398
10917,6402
10930,6409
10942,6419
10951,6430
10958,6443
10963,6458
10964,6475
10964,7400
10963,7417
10958,7432
10951,7445
10942,7457
10930,7466
10917,7473
10902,7478
10885,7479
10512,7479
10494,7478
10480,7473
10467,7466
10455,7457
10445,7445
10438,7432
10434,7417
10432,7400
10432,6475
10434,6458
10438,6443
10445,6430
10455,6419
10467,6409
10480,6402
10494,6398
10512,6396
10885,6396
10902,6398
Z" /> 
<path style="fill:#840084; fill-opacity:1.0; 
stroke:#840084; stroke-width:0; stroke-opacity:1; 
stroke-linecap:round; stroke-linejoin:round;fill-rule:evenodd;"
d="M 12962,7391
12745,7391
12745,7193
12962,7193
12962,7391
Z" /> 
<path style="fill:#840084; fill-opacity:1.0; 
stroke:#840084; stroke-width:0; stroke-opacity:1; 
stroke-linecap:round; stroke-linejoin:round;fill-rule:evenodd;"
d="M 12510,7253
12292,7253
12292,7016
12510,7016
12510,7253
Z" /> 
<path style="fill:#840084; fill-opacity:1.0; 
stroke:#840084; stroke-width:0; stroke-opacity:1; 
stroke-linecap:round; stroke-linejoin:round;fill-rule:evenodd;"
d="M 8620,7194
7359,7194
7359,6681
8620,6681
8620,7194
Z" /> 
<path style="fill:#840084; fill-opacity:1.0; 
stroke:#840084; stroke-width:0; stroke-opacity:1; 
stroke-linecap:round; stroke-linejoin:round;fill-rule:evenodd;"
d="M 3722,7194
2462,7194
2462,6681
3722,6681
3722,7194
Z" /> 
<path style="fill:#840084; fill-opacity:1.0; 
stroke:#840084; stroke-width:0; stroke-opacity:1; 
stroke-linecap:round; stroke-linejoin:round;fill-rule:evenodd;"
d="M 12962,7076
12745,7076
12745,6878
12962,6878
12962,7076
Z" /> 
<path style="fill:#840084; fill-opacity:1.0; 
stroke:#840084; stroke-width:0; stroke-opacity:1; 
stroke-linecap:round; stroke-linejoin:round;fill-rule:evenodd;"
d="M 12777,6269
12790,6274
12803,6280
12813,6289
12822,6300
12829,6312
12833,6325
12835,6342
12835,6579
12833,6595
12829,6608
12822,6621
12813,6631
12803,6640
12790,6647
12777,6651
12761,6652
12494,6652
12478,6651
12465,6647
12452,6640
12441,6631
12433,6621
12426,6608
12422,6595
12420,6579
12420,6342
12422,6325
12426,6312
12433,6300
12441,6289
12452,6280
12465,6274
12478,6269
12494,6268
12761,6268
12777,6269
Z" /> 
<path style="fill:#840084; fill-opacity:1.0; 
stroke:#840084; stroke-width:0; stroke-opacity:1; 
stroke-linecap:round; stroke-linejoin:round;fill-rule:evenodd;"
d="M 8620,6525
7359,6525
7359,6012
8620,6012
8620,6525
Z" /> 
<path style="fill:#840084; fill-opacity:1.0; 
stroke:#840084; stroke-width:0; stroke-opacity:1; 
stroke-linecap:round; stroke-linejoin:round;fill-rule:evenodd;"
d="M 3722,6525
2462,6525
2462,6012
3722,6012
3722,6525
Z" /> 
<path style="fill:#840084; fill-opacity:1.0; 
stroke:#840084; stroke-width:0; stroke-opacity:1; 
stroke-linecap:round; stroke-linejoin:round;fill-rule:evenodd;"
d="M 12005,5020
12019,5024
12033,5031
12044,5041
12054,5052
12061,5065
12065,5080
12067,5097
12067,6022
12065,6039
12061,6054
12054,6067
12044,6079
12033,6088
12019,6095
12005,6100
11987,6101
11614,6101
11597,6100
11582,6095
11569,6088
11557,6079
11548,6067
11541,6054
11536,6039
11535,6022
11535,5097
11536,5080
11541,5065
11548,5052
11557,5041
11569,5031
11582,5024
11597,5020
11614,5018
11987,5018
12005,5020
Z" /> 
<path style="fill:#840084; fill-opacity:1.0; 
stroke:#840084; stroke-width:0; stroke-opacity:1; 
stroke-linecap:round; stroke-linejoin:round;fill-rule:evenodd;"
d="M 10902,5020
10917,5024
10930,5031
10942,5041
10951,5052
10958,5065
10963,5080
10964,5097
10964,6022
10963,6039
10958,6054
10951,6067
10942,6079
10930,6088
10917,6095
10902,6100
10885,6101
10512,6101
10494,6100
10480,6095
10467,6088
10455,6079
10445,6067
10438,6054
10434,6039
10432,6022
10432,5097
10434,5080
10438,5065
10445,5052
10455,5041
10467,5031
10480,5024
10494,5020
10512,5018
10885,5018
10902,5020
Z" /> 
<path style="fill:#840084; fill-opacity:1.0; 
stroke:#840084; stroke-width:0; stroke-opacity:1; 
stroke-linecap:round; stroke-linejoin:round;fill-rule:evenodd;"
d="M 12777,5649
12790,5653
12803,5660
12813,5669
12822,5680
12829,5692
12833,5705
12835,5722
12835,5958
12833,5975
12829,5988
12822,6000
12813,6011
12803,6020
12790,6027
12777,6031
12761,6032
12494,6032
12478,6031
12465,6027
12452,6020
12441,6011
12433,6000
12426,5988
12422,5975
12420,5958
12420,5722
12422,5705
12426,5692
12433,5680
12441,5669
12452,5660
12465,5653
12478,5649
12494,5648
12761,5648
12777,5649
Z" /> 
<path style="fill:#840084; fill-opacity:1.0; 
stroke:#840084; stroke-width:0; stroke-opacity:1; 
stroke-linecap:round; stroke-linejoin:round;fill-rule:evenodd;"
d="M 12962,5422
12745,5422
12745,5225
12962,5225
12962,5422
Z" /> 
<path style="fill:#840084; fill-opacity:1.0; 
stroke:#840084; stroke-width:0; stroke-opacity:1; 
stroke-linecap:round; stroke-linejoin:round;fill-rule:evenodd;"
d="M 12510,5284
12292,5284
12292,5047
12510,5047
12510,5284
Z" /> 
<path style="fill:#840084; fill-opacity:1.0; 
stroke:#840084; stroke-width:0; stroke-opacity:1; 
stroke-linecap:round; stroke-linejoin:round;fill-rule:evenodd;"
d="M 12962,5107
12745,5107
12745,4910
12962,4910
12962,5107
Z" /> 
<path style="fill:#840084; fill-opacity:1.0; 
stroke:#840084; stroke-width:0; stroke-opacity:1; 
stroke-linecap:round; stroke-linejoin:round;fill-rule:evenodd;"
d="M 12777,4301
12790,4305
12803,4312
12813,4320
12822,4331
12829,4344
12833,4357
12835,4373
12835,4610
12833,4626
12829,4640
12822,4652
12813,4663
12803,4672
12790,4678
12777,4682
12761,4684
12494,4684
12478,4682
12465,4678
12452,4672
12441,4663
12433,4652
12426,4640
12422,4626
12420,4610
12420,4373
12422,4357
12426,4344
12433,4331
12441,4320
12452,4312
12465,4305
12478,4301
12494,4299
12761,4299
12777,4301
Z" /> 
<path style="fill:#840084; fill-opacity:1.0; 
stroke:#840084; stroke-width:0; stroke-opacity:1; 
stroke-linecap:round; stroke-linejoin:round;fill-rule:evenodd;"
d="M 12777,3681
12790,3685
12803,3692
12813,3700
12822,3711
12829,3724
12833,3737
12835,3753
12835,3990
12833,4006
12829,4020
12822,4032
12813,4043
12803,4052
12790,4058
12777,4062
12761,4064
12494,4064
12478,4062
12465,4058
12452,4052
12441,4043
12433,4032
12426,4020
12422,4006
12420,3990
12420,3753
12422,3737
12426,3724
12433,3711
12441,3700
12452,3692
12465,3685
12478,3681
12494,3679
12761,3679
12777,3681
Z" /> 
<path style="fill:#840084; fill-opacity:1.0; 
stroke:#840084; stroke-width:0; stroke-opacity:1; 
stroke-linecap:round; stroke-linejoin:round;fill-rule:evenodd;"
d="M 10391,1676
10426,1683
10468,1700
10527,1724
10527,1724
10617,1785
10694,1862
10712,1889
10754,1952
10796,2052
10817,2159
10817,2267
10796,2374
10754,2474
10754,2474
10694,2565
10617,2642
10556,2682
10527,2702
10468,2726
10426,2744
10391,2751
10320,2765
10211,2765
10140,2751
10104,2744
10063,2726
10004,2702
9974,2682
9914,2642
9837,2565
9776,2474
9776,2474
9735,2374
9714,2267
9714,2159
9735,2052
9776,1952
9818,1889
9837,1862
9914,1785
10004,1724
10004,1724
10063,1700
10104,1683
10140,1676
10211,1662
10320,1662
10391,1676
Z" /> 
<path style="fill:#840084; fill-opacity:1.0; 
stroke:#840084; stroke-width:0; stroke-opacity:1; 
stroke-linecap:round; stroke-linejoin:round;fill-rule:evenodd;"
d="M 1335,1676
1371,1683
1413,1700
1471,1724
1471,1724
1562,1785
1639,1862
1657,1889
1699,1952
1741,2052
1762,2159
1762,2267
1741,2374
1699,2474
1699,2474
1639,2565
1562,2642
1501,2682
1471,2702
1413,2726
1371,2744
1335,2751
1264,2765
1156,2765
1085,2751
1049,2744
1008,2726
949,2702
919,2682
859,2642
782,2565
721,2474
721,2474
680,2374
659,2267
659,2159
680,2052
721,1952
763,1889
782,1862
859,1785
949,1724
949,1724
1008,1700
1049,1683
1085,1676
1156,1662
1264,1662
1335,1676
Z" /> 
<path style="fill:#840084; fill-opacity:1.0; 
stroke:#840084; stroke-width:0; stroke-opacity:1; 
stroke-linecap:round; stroke-linejoin:round;fill-rule:evenodd;"
d="M 6600,1467
6626,1470
6693,1490
6755,1523
6769,1535
6809,1567
6841,1607
6853,1621
6886,1683
6906,1750
6913,1819
6906,1889
6886,1956
6853,2017
6841,2032
6809,2071
6769,2104
6755,2116
6693,2149
6626,2169
6600,2172
6574,2174
6539,2174
6513,2172
6487,2169
6420,2149
6359,2116
6344,2104
6305,2071
6272,2032
6260,2017
6227,1956
6207,1889
6200,1819
6207,1750
6227,1683
6260,1621
6272,1607
6305,1567
6344,1535
6359,1523
6420,1490
6487,1470
6513,1467
6539,1465
6574,1465
6600,1467
Z" /> 
<path style="fill:#840084; fill-opacity:1.0; 
stroke:#840084; stroke-width:0; stroke-opacity:1; 
stroke-linecap:round; stroke-linejoin:round;fill-rule:evenodd;"
d="M 5600,1467
5626,1470
5693,1490
5755,1523
5769,1535
5809,1567
5841,1607
5853,1621
5886,1683
5906,1750
5913,1819
5906,1889
5886,1956
5853,2017
5841,2032
5809,2071
5769,2104
5755,2116
5693,2149
5626,2169
5600,2172
5574,2174
5539,2174
5513,2172
5487,2169
5420,2149
5359,2116
5344,2104
5305,2071
5272,2032
5260,2017
5227,1956
5207,1889
5200,1819
5207,1750
5227,1683
5260,1621
5272,1607
5305,1567
5344,1535
5359,1523
5420,1490
5487,1470
5513,1467
5539,1465
5574,1465
5600,1467
Z" /> 
<path style="fill:#840084; fill-opacity:1.0; 
stroke:#840084; stroke-width:0; stroke-opacity:1; 
stroke-linecap:round; stroke-linejoin:round;fill-rule:evenodd;"
d="M 4911,2174
4202,2174
4202,1465
4911,1465
4911,2174
Z" /> 
</g>
<g style="fill:#000000; fill-opacity:1.0; 
stroke:#000000; stroke-width:0; stroke-opacity:1; 
stroke-linecap:round; stroke-linejoin:round;">
</g>
<g style="fill:#FFEF00; fill-opacity:1.0; 
stroke:#FFEF00; stroke-width:0; stroke-opacity:1; 
stroke-linecap:round; stroke-linejoin:round;">
</g>
<g style="fill:#FFEF00; fill-opacity:0.0; 
stroke:#FFEF00; stroke-width:39.3701; stroke-opacity:1; 
stroke-linecap:round; stroke-linejoin:round;">
<path d="M6968.6 6272.5 A1574.8 1574.8 0.0 0 0 5541.34 5363.24 " />
<path d="M5541.34 5363.24 A1574.8 1574.8 0.0 0 0 4114.08 6272.5 " />
<path d="M4114.08 7603.58 A1574.8 1574.8 0.0 0 0 5541.34 8512.84 " />
<path d="M5541.34 8512.84 A1574.8 1574.8 0.0 0 0 6968.6 7603.58 " />
<path d="M4124 7646
L4124 6229
" />
<path d="M6958 6229
L6958 7646
" />
<path d="M4124 6268
L3100 6268
" />
<path d="M3100 6938
L4124 6938
" />
<path d="M4124 7607
L3100 7607
" />
<path d="M6958 7607
L8021 7607
" />
<path d="M8021 6938
L6958 6938
" />
<path d="M6958 6268
L8021 6268
" />
<path d="M4307 2319
L4057 2069
" />
<path d="M7057 2319
L4307 2319
" />
<path d="M7057 1319
L7057 2319
" />
<path d="M4057 1319
L7057 1319
" />
<path d="M4057 2069
L4057 1319
" />
<path d="M11596 11481
L11226 11851
" />
<path d="M11596 9898
L11596 11481
" />
<path d="M10116 9898
L11596 9898
" />
<path d="M10116 11851
L10116 9898
" />
<path d="M11226 11851
L10116 11851
" />
<path d="M12470 8591
L12785 8591
" />
<path d="M12785 8591
L12785 9221
" />
<path d="M12785 9221
L12470 9221
" />
<path d="M12470 9221
L12470 8591
" />
<path d="M12785 6465
L12470 6465
" />
<path d="M12470 6465
L12470 5835
" />
<path d="M12470 5835
L12785 5835
" />
<path d="M12785 5835
L12785 6465
" />
<path d="M12470 3867
L12785 3867
" />
<path d="M12785 3867
L12785 4497
" />
<path d="M12785 4497
L12470 4497
" />
<path d="M12470 4497
L12470 3867
" />
<path d="M10620 8808
L10620 7823
" />
<path d="M10620 7823
L11879 7823
" />
<path d="M11879 7823
L11879 8808
" />
<path d="M11879 8808
L10620 8808
" />
<path d="M10620 7430
L10620 6445
" />
<path d="M10620 6445
L11879 6445
" />
<path d="M11879 6445
L11879 7430
" />
<path d="M11879 7430
L10620 7430
" />
<path d="M10620 6052
L10620 5067
" />
<path d="M10620 5067
L11879 5067
" />
<path d="M11879 5067
L11879 6052
" />
<path d="M11879 6052
L10620 6052
" />
<path d="M12470 8158
L12470 7686
" />
<path d="M12470 7686
L12785 7686
" />
<path d="M12785 7686
L12785 8040
" />
<path d="M12785 8040
L12667 8158
" />
<path d="M12667 8158
L12470 8158
" />
<path d="M12470 7371
L12470 6898
" />
<path d="M12470 6898
L12785 6898
" />
<path d="M12785 6898
L12785 7252
" />
<path d="M12785 7252
L12667 7371
" />
<path d="M12667 7371
L12470 7371
" />
<path d="M12470 5402
L12470 4930
" />
<path d="M12470 4930
L12785 4930
" />
<path d="M12785 4930
L12785 5284
" />
<path d="M12785 5284
L12667 5402
" />
<path d="M12667 5402
L12470 5402
" />
<path d="M4307 12556
L4057 12306
" />
<path d="M7057 12556
L4307 12556
" />
<path d="M7057 11556
L7057 12556
" />
<path d="M4057 11556
L7057 11556
" />
<path d="M4057 12306
L4057 11556
" />
<path d="M9990 12607
L9360 12607
" />
<path d="M9990 12292
L9990 12607
" />
<path d="M9360 12292
L9990 12292
" />
<path d="M9360 12607
L9360 12292
" />
<path d="M10580 9142
L10580 9457
" />
<path d="M10580 9457
L9950 9457
" />
<path d="M9950 9457
L9950 9142
" />
<path d="M9950 9142
L10580 9142
" />
<path d="M3139 12252
L3139 11465
" />
<path d="M3612 12252
L3139 12252
" />
<path d="M3612 11465
L3612 12252
" />
<path d="M3139 11465
L3612 11465
" />
<g >
</g>
<g >
</g>
<g >
</g>
<g >
</g>
<g >
</g>
<g >
</g>
<g >
</g>
<g >
</g>
<g >
</g>
<g >
</g>
<g >
</g>
<g >
</g>
<g >
</g>
<g >
</g>
<g >
</g>
<g >
</g>
<g >
</g>
<g >
</g>
<g >
</g>
</g>
<g style="fill:#FFEF00; fill-opacity:0.0; 
stroke:#FFEF00; stroke-width:39.3701; stroke-opacity:1; 
stroke-linecap:round; stroke-linejoin:round;">
</g>
<g style="fill:#FFEF00; fill-opacity:0.0; 
stroke:#FFEF00; stroke-width:59.0551; stroke-opacity:1; 
stroke-linecap:round; stroke-linejoin:round;">
<path d="M4022 9320
L3835 9320
L3835 8927
" />
<path d="M4154 9114
L4285 9114
" />
<path d="M4341 9320
L4154 9320
L4154 8927
L4341 8927
" />
<path d="M4510 9320
L4510 8927
L4603 8927
L4660 8945
L4697 8983
L4716 9020
L4735 9095
L4735 9152
L4716 9227
L4697 9264
L4660 9302
L4603 9320
L4510 9320
" />
<path d="M4810 9358
L5110 9358
" />
<path d="M5428 9320
L5297 9133
" />
<path d="M5203 9320
L5203 8927
L5353 8927
L5391 8945
L5410 8964
L5428 9002
L5428 9058
L5410 9095
L5391 9114
L5353 9133
L5203 9133
" />
<path d="M5803 8945
L5766 8927
L5710 8927
L5653 8945
L5616 8983
L5597 9020
L5578 9095
L5578 9152
L5597 9227
L5616 9264
L5653 9302
L5710 9320
L5747 9320
L5803 9302
L5822 9283
L5822 9152
L5747 9152
" />
<path d="M6122 9114
L6178 9133
L6197 9152
L6216 9189
L6216 9245
L6197 9283
L6178 9302
L6141 9320
L5991 9320
L5991 8927
L6122 8927
L6160 8945
L6178 8964
L6197 9002
L6197 9039
L6178 9077
L6160 9095
L6122 9114
L5991 9114
" />
<path d="M6291 9358
L6591 9358
" />
<path d="M6684 9114
L6816 9114
" />
<path d="M6872 9320
L6684 9320
L6684 8927
L6872 8927
" />
<path d="M7041 9320
L7041 8927
L7191 8927
L7228 8945
L7247 8964
L7266 9002
L7266 9058
L7247 9095
L7228 9114
L7191 9133
L7041 9133
" />
<path d="M10083 2391
L10083 1998
" />
<path d="M10083 2185
L10308 2185
" />
<path d="M10308 2391
L10308 1998
" />
<path d="M10458 1998
L10702 1998
L10571 2148
L10627 2148
L10665 2166
L10683 2185
L10702 2223
L10702 2316
L10683 2354
L10665 2372
L10627 2391
L10515 2391
L10477 2372
L10458 2354
" />
<path d="M1028 11840
L1028 11446
" />
<path d="M1028 11634
L1253 11634
" />
<path d="M1253 11840
L1253 11446
" />
<path d="M1422 11484
L1441 11465
L1478 11446
L1572 11446
L1609 11465
L1628 11484
L1647 11521
L1647 11559
L1628 11615
L1403 11840
L1647 11840
" />
<path d="M1028 2391
L1028 1998
" />
<path d="M1028 2185
L1253 2185
" />
<path d="M1253 2391
L1253 1998
" />
<path d="M1647 2391
L1422 2391
" />
<path d="M1534 2391
L1534 1998
L1497 2054
L1459 2091
L1422 2110
" />
<path d="M5425 1604
L5425 1885
L5407 1941
L5369 1979
L5313 1998
L5275 1998
" />
<path d="M5594 1641
L5613 1623
L5650 1604
L5744 1604
L5782 1623
L5800 1641
L5819 1679
L5819 1716
L5800 1773
L5575 1998
L5819 1998
" />
<path d="M8869 12178
L9262 12084
L8981 12009
L9262 11934
L8869 11840
" />
<path d="M9244 11709
L9262 11653
L9262 11559
L9244 11521
L9225 11503
L9187 11484
L9150 11484
L9112 11503
L9094 11521
L9075 11559
L9056 11634
L9037 11671
L9019 11690
L8981 11709
L8944 11709
L8906 11690
L8887 11671
L8869 11634
L8869 11540
L8887 11484
" />
<path d="M8906 11334
L8887 11315
L8869 11278
L8869 11184
L8887 11146
L8906 11128
L8944 11109
L8981 11109
L9037 11128
L9262 11353
L9262 11109
" />
<path d="M9037 10884
L9019 10921
L9000 10940
L8962 10959
L8944 10959
L8906 10940
L8887 10921
L8869 10884
L8869 10809
L8887 10771
L8906 10753
L8944 10734
L8962 10734
L9000 10753
L9019 10771
L9037 10809
L9037 10884
L9056 10921
L9075 10940
L9112 10959
L9187 10959
L9225 10940
L9244 10921
L9262 10884
L9262 10809
L9244 10771
L9225 10753
L9187 10734
L9112 10734
L9075 10753
L9056 10771
L9037 10809
" />
<path d="M9262 10359
L9262 10584
" />
<path d="M9262 10471
L8869 10471
L8925 10509
L8962 10546
L8981 10584
" />
<path d="M9262 9984
L9262 10209
" />
<path d="M9262 10097
L8869 10097
L8925 10134
L8962 10172
L8981 10209
" />
<path d="M13396 9140
L13396 9365
" />
<path d="M13396 9253
L13002 9253
L13059 9290
L13096 9328
L13115 9365
" />
<path d="M13002 8897
L13002 8859
L13021 8822
L13040 8803
L13077 8784
L13152 8765
L13246 8765
L13321 8784
L13359 8803
L13377 8822
L13396 8859
L13396 8897
L13377 8934
L13359 8953
L13321 8972
L13246 8990
L13152 8990
L13077 8972
L13040 8953
L13021 8934
L13002 8897
" />
<path d="M13396 8597
L13002 8597
" />
<path d="M13246 8559
L13396 8447
" />
<path d="M13134 8447
L13284 8597
" />
</g>
<g style="fill:#FFEF00; fill-opacity:0.0; 
stroke:#FFEF00; stroke-width:23.622; stroke-opacity:1; 
stroke-linecap:round; stroke-linejoin:round;">
<path d="M12699 8932
L12624 8985
" />
<path d="M12699 9022
L12541 9022
L12541 8962
L12549 8947
L12556 8940
L12571 8932
L12594 8932
L12609 8940
L12616 8947
L12624 8962
L12624 9022
" />
<path d="M12541 8797
L12541 8827
L12549 8842
L12556 8850
L12579 8865
L12609 8872
L12669 8872
L12684 8865
L12691 8857
L12699 8842
L12699 8812
L12691 8797
L12684 8790
L12669 8782
L12631 8782
L12616 8790
L12609 8797
L12601 8812
L12601 8842
L12609 8857
L12616 8865
L12631 8872
" />
</g>
<g style="fill:#FFEF00; fill-opacity:0.0; 
stroke:#FFEF00; stroke-width:59.0551; stroke-opacity:1; 
stroke-linecap:round; stroke-linejoin:round;">
<path d="M13369 6384
L13369 6609
" />
<path d="M13369 6497
L12975 6497
L13031 6534
L13069 6572
L13087 6609
" />
<path d="M12975 6141
L12975 6103
L12994 6066
L13012 6047
L13050 6028
L13125 6010
L13219 6010
L13294 6028
L13331 6047
L13350 6066
L13369 6103
L13369 6141
L13350 6178
L13331 6197
L13294 6216
L13219 6235
L13125 6235
L13050 6216
L13012 6197
L12994 6178
L12975 6141
" />
<path d="M13369 5841
L12975 5841
" />
<path d="M13219 5803
L13369 5691
" />
<path d="M13106 5691
L13256 5841
" />
</g>
<g style="fill:#FFEF00; fill-opacity:0.0; 
stroke:#FFEF00; stroke-width:23.622; stroke-opacity:1; 
stroke-linecap:round; stroke-linejoin:round;">
<path d="M12699 6176
L12624 6229
" />
<path d="M12699 6266
L12541 6266
L12541 6206
L12549 6191
L12556 6184
L12571 6176
L12594 6176
L12609 6184
L12616 6191
L12624 6206
L12624 6266
" />
<path d="M12541 6034
L12541 6109
L12616 6116
L12609 6109
L12601 6094
L12601 6056
L12609 6041
L12616 6034
L12631 6026
L12669 6026
L12684 6034
L12691 6041
L12699 6056
L12699 6094
L12691 6109
L12684 6116
" />
</g>
<g style="fill:#FFEF00; fill-opacity:0.0; 
stroke:#FFEF00; stroke-width:59.0551; stroke-opacity:1; 
stroke-linecap:round; stroke-linejoin:round;">
<path d="M12243 4416
L12243 4641
" />
<path d="M12243 4528
L11849 4528
L11905 4566
L11943 4603
L11961 4641
" />
<path d="M11849 4172
L11849 4135
L11868 4097
L11886 4079
L11924 4060
L11999 4041
L12093 4041
L12168 4060
L12205 4079
L12224 4097
L12243 4135
L12243 4172
L12224 4210
L12205 4229
L12168 4247
L12093 4266
L11999 4266
L11924 4247
L11886 4229
L11868 4210
L11849 4172
" />
<path d="M12243 3872
L11849 3872
" />
<path d="M12093 3835
L12243 3722
" />
<path d="M11980 3722
L12130 3872
" />
</g>
<g style="fill:#FFEF00; fill-opacity:0.0; 
stroke:#FFEF00; stroke-width:23.622; stroke-opacity:1; 
stroke-linecap:round; stroke-linejoin:round;">
<path d="M12699 4208
L12624 4260
" />
<path d="M12699 4298
L12541 4298
L12541 4238
L12549 4223
L12556 4215
L12571 4208
L12594 4208
L12609 4215
L12616 4223
L12624 4238
L12624 4298
" />
<path d="M12594 4073
L12699 4073
" />
<path d="M12534 4110
L12646 4148
L12646 4050
" />
</g>
<g style="fill:#FFEF00; fill-opacity:0.0; 
stroke:#FFEF00; stroke-width:59.0551; stroke-opacity:1; 
stroke-linecap:round; stroke-linejoin:round;">
<path d="M11428 8390
L11428 8615
" />
<path d="M11428 8503
L11034 8503
L11090 8540
L11128 8578
L11146 8615
" />
<path d="M11428 8016
L11428 8241
" />
<path d="M11428 8128
L11034 8128
L11090 8166
L11128 8203
L11146 8241
" />
<path d="M11428 7013
L11428 7238
" />
<path d="M11428 7125
L11034 7125
L11090 7163
L11128 7200
L11146 7238
" />
<path d="M11428 6638
L11428 6863
" />
<path d="M11428 6750
L11034 6750
L11090 6788
L11128 6825
L11146 6863
" />
<path d="M11428 5635
L11428 5860
" />
<path d="M11428 5747
L11034 5747
L11090 5785
L11128 5822
L11146 5860
" />
<path d="M11203 5410
L11184 5447
L11165 5466
L11128 5485
L11109 5485
L11071 5466
L11053 5447
L11034 5410
L11034 5335
L11053 5297
L11071 5278
L11109 5260
L11128 5260
L11165 5278
L11184 5297
L11203 5335
L11203 5410
L11221 5447
L11240 5466
L11278 5485
L11353 5485
L11390 5466
L11409 5447
L11428 5410
L11428 5335
L11409 5297
L11390 5278
L11353 5260
L11278 5260
L11240 5278
L11221 5297
L11203 5335
" />
<path d="M13443 8137
L13405 8119
L13368 8081
L13312 8025
L13274 8006
L13237 8006
" />
<path d="M13255 8100
L13218 8081
L13181 8044
L13162 7969
L13162 7837
L13181 7762
L13218 7725
L13255 7706
L13330 7706
L13368 7725
L13405 7762
L13424 7837
L13424 7969
L13405 8044
L13368 8081
L13330 8100
L13255 8100
" />
<path d="M13499 8137
L13799 8137
" />
<path d="M13893 8100
L13893 7706
L14043 7706
L14080 7725
L14099 7744
L14118 7781
L14118 7837
L14099 7875
L14080 7894
L14043 7912
L13893 7912
" />
<path d="M14287 8100
L14287 7706
L14418 7987
L14549 7706
L14549 8100
" />
<path d="M14812 7706
L14887 7706
L14924 7725
L14962 7762
L14980 7837
L14980 7969
L14962 8044
L14924 8081
L14887 8100
L14812 8100
L14774 8081
L14737 8044
L14718 7969
L14718 7837
L14737 7762
L14774 7725
L14812 7706
" />
<path d="M15130 8081
L15187 8100
L15280 8100
L15318 8081
L15336 8062
L15355 8025
L15355 7987
L15336 7950
L15318 7931
L15280 7912
L15205 7894
L15168 7875
L15149 7856
L15130 7819
L15130 7781
L15149 7744
L15168 7725
L15205 7706
L15299 7706
L15355 7725
" />
<path d="M15430 8137
L15730 8137
" />
<path d="M16030 7725
L15993 7706
L15936 7706
L15880 7725
L15843 7762
L15824 7800
L15805 7875
L15805 7931
L15824 8006
L15843 8044
L15880 8081
L15936 8100
L15974 8100
L16030 8081
L16049 8062
L16049 7931
L15974 7931
" />
<path d="M16199 8081
L16255 8100
L16349 8100
L16386 8081
L16405 8062
L16424 8025
L16424 7987
L16405 7950
L16386 7931
L16349 7912
L16274 7894
L16236 7875
L16218 7856
L16199 7819
L16199 7781
L16218 7744
L16236 7725
L16274 7706
L16368 7706
L16424 7725
" />
<path d="M16593 8100
L16593 7706
L16686 7706
L16743 7725
L16780 7762
L16799 7800
L16818 7875
L16818 7931
L16799 8006
L16780 8044
L16743 8081
L16686 8100
L16593 8100
" />
</g>
<g style="fill:#FFEF00; fill-opacity:0.0; 
stroke:#FFEF00; stroke-width:11.811; stroke-opacity:1; 
stroke-linecap:round; stroke-linejoin:round;">
<path d="M12671 7929
L12667 7937
L12659 7944
L12648 7956
L12644 7963
L12644 7971
" />
<path d="M12663 7967
L12659 7974
L12652 7982
L12637 7986
L12611 7986
L12596 7982
L12588 7974
L12584 7967
L12584 7952
L12588 7944
L12596 7937
L12611 7933
L12637 7933
L12652 7937
L12659 7944
L12663 7952
L12663 7967
" />
<path d="M12584 7907
L12584 7858
L12614 7884
L12614 7873
L12618 7866
L12622 7862
L12629 7858
L12648 7858
L12656 7862
L12659 7866
L12663 7873
L12663 7896
L12659 7903
L12656 7907
" />
</g>
<g style="fill:#FFEF00; fill-opacity:0.0; 
stroke:#FFEF00; stroke-width:59.0551; stroke-opacity:1; 
stroke-linecap:round; stroke-linejoin:round;">
<path d="M13443 7350
L13405 7331
L13368 7294
L13312 7238
L13274 7219
L13237 7219
" />
<path d="M13255 7312
L13218 7294
L13181 7256
L13162 7181
L13162 7050
L13181 6975
L13218 6938
L13255 6919
L13330 6919
L13368 6938
L13405 6975
L13424 7050
L13424 7181
L13405 7256
L13368 7294
L13330 7312
L13255 7312
" />
<path d="M13499 7350
L13799 7350
" />
<path d="M13893 7312
L13893 6919
L14043 6919
L14080 6938
L14099 6956
L14118 6994
L14118 7050
L14099 7088
L14080 7106
L14043 7125
L13893 7125
" />
<path d="M14287 7312
L14287 6919
L14418 7200
L14549 6919
L14549 7312
" />
<path d="M14812 6919
L14887 6919
L14924 6938
L14962 6975
L14980 7050
L14980 7181
L14962 7256
L14924 7294
L14887 7312
L14812 7312
L14774 7294
L14737 7256
L14718 7181
L14718 7050
L14737 6975
L14774 6938
L14812 6919
" />
<path d="M15130 7294
L15187 7312
L15280 7312
L15318 7294
L15336 7275
L15355 7238
L15355 7200
L15336 7163
L15318 7144
L15280 7125
L15205 7106
L15168 7088
L15149 7069
L15130 7031
L15130 6994
L15149 6956
L15168 6938
L15205 6919
L15299 6919
L15355 6938
" />
<path d="M15430 7350
L15730 7350
" />
<path d="M16030 6938
L15993 6919
L15936 6919
L15880 6938
L15843 6975
L15824 7013
L15805 7088
L15805 7144
L15824 7219
L15843 7256
L15880 7294
L15936 7312
L15974 7312
L16030 7294
L16049 7275
L16049 7144
L15974 7144
" />
<path d="M16199 7294
L16255 7312
L16349 7312
L16386 7294
L16405 7275
L16424 7238
L16424 7200
L16405 7163
L16386 7144
L16349 7125
L16274 7106
L16236 7088
L16218 7069
L16199 7031
L16199 6994
L16218 6956
L16236 6938
L16274 6919
L16368 6919
L16424 6938
" />
<path d="M16593 7312
L16593 6919
L16686 6919
L16743 6938
L16780 6975
L16799 7013
L16818 7088
L16818 7144
L16799 7219
L16780 7256
L16743 7294
L16686 7312
L16593 7312
" />
</g>
<g style="fill:#FFEF00; fill-opacity:0.0; 
stroke:#FFEF00; stroke-width:11.811; stroke-opacity:1; 
stroke-linecap:round; stroke-linejoin:round;">
<path d="M12671 7142
L12667 7149
L12659 7157
L12648 7168
L12644 7176
L12644 7183
" />
<path d="M12663 7179
L12659 7187
L12652 7194
L12637 7198
L12611 7198
L12596 7194
L12588 7187
L12584 7179
L12584 7164
L12588 7157
L12596 7149
L12611 7146
L12637 7146
L12652 7149
L12659 7157
L12663 7164
L12663 7179
" />
<path d="M12592 7116
L12588 7112
L12584 7104
L12584 7086
L12588 7078
L12592 7074
L12599 7071
L12607 7071
L12618 7074
L12663 7119
L12663 7071
" />
</g>
<g style="fill:#FFEF00; fill-opacity:0.0; 
stroke:#FFEF00; stroke-width:59.0551; stroke-opacity:1; 
stroke-linecap:round; stroke-linejoin:round;">
<path d="M13443 5381
L13405 5363
L13368 5325
L13312 5269
L13274 5250
L13237 5250
" />
<path d="M13255 5344
L13218 5325
L13181 5288
L13162 5213
L13162 5082
L13181 5007
L13218 4969
L13255 4950
L13330 4950
L13368 4969
L13405 5007
L13424 5082
L13424 5213
L13405 5288
L13368 5325
L13330 5344
L13255 5344
" />
<path d="M13499 5381
L13799 5381
" />
<path d="M13893 5344
L13893 4950
L14043 4950
L14080 4969
L14099 4988
L14118 5025
L14118 5082
L14099 5119
L14080 5138
L14043 5157
L13893 5157
" />
<path d="M14287 5344
L14287 4950
L14418 5232
L14549 4950
L14549 5344
" />
<path d="M14812 4950
L14887 4950
L14924 4969
L14962 5007
L14980 5082
L14980 5213
L14962 5288
L14924 5325
L14887 5344
L14812 5344
L14774 5325
L14737 5288
L14718 5213
L14718 5082
L14737 5007
L14774 4969
L14812 4950
" />
<path d="M15130 5325
L15187 5344
L15280 5344
L15318 5325
L15336 5306
L15355 5269
L15355 5232
L15336 5194
L15318 5175
L15280 5157
L15205 5138
L15168 5119
L15149 5100
L15130 5063
L15130 5025
L15149 4988
L15168 4969
L15205 4950
L15299 4950
L15355 4969
" />
<path d="M15430 5381
L15730 5381
" />
<path d="M16030 4969
L15993 4950
L15936 4950
L15880 4969
L15843 5007
L15824 5044
L15805 5119
L15805 5175
L15824 5250
L15843 5288
L15880 5325
L15936 5344
L15974 5344
L16030 5325
L16049 5306
L16049 5175
L15974 5175
" />
<path d="M16199 5325
L16255 5344
L16349 5344
L16386 5325
L16405 5306
L16424 5269
L16424 5232
L16405 5194
L16386 5175
L16349 5157
L16274 5138
L16236 5119
L16218 5100
L16199 5063
L16199 5025
L16218 4988
L16236 4969
L16274 4950
L16368 4950
L16424 4969
" />
<path d="M16593 5344
L16593 4950
L16686 4950
L16743 4969
L16780 5007
L16799 5044
L16818 5119
L16818 5175
L16799 5250
L16780 5288
L16743 5325
L16686 5344
L16593 5344
" />
</g>
<g style="fill:#FFEF00; fill-opacity:0.0; 
stroke:#FFEF00; stroke-width:11.811; stroke-opacity:1; 
stroke-linecap:round; stroke-linejoin:round;">
<path d="M12671 5173
L12667 5181
L12659 5188
L12648 5200
L12644 5207
L12644 5215
" />
<path d="M12663 5211
L12659 5218
L12652 5226
L12637 5230
L12611 5230
L12596 5226
L12588 5218
L12584 5211
L12584 5196
L12588 5188
L12596 5181
L12611 5177
L12637 5177
L12652 5181
L12659 5188
L12663 5196
L12663 5211
" />
<path d="M12663 5102
L12663 5147
" />
<path d="M12663 5125
L12584 5125
L12596 5132
L12603 5140
L12607 5147
" />
</g>
<g style="fill:#FFEF00; fill-opacity:0.0; 
stroke:#FFEF00; stroke-width:59.0551; stroke-opacity:1; 
stroke-linecap:round; stroke-linejoin:round;">
<path d="M5425 11840
L5425 12121
L5407 12178
L5369 12215
L5313 12234
L5275 12234
" />
<path d="M5819 12234
L5594 12234
" />
<path d="M5707 12234
L5707 11840
L5669 11896
L5632 11934
L5594 11953
" />
<path d="M7959 12787
L7978 12806
L7959 12824
L7941 12806
L7959 12787
L7959 12824
" />
<path d="M8353 12824
L8128 12824
" />
<path d="M8241 12824
L8241 12431
L8203 12487
L8166 12524
L8128 12543
" />
<path d="M8690 12562
L8690 12824
" />
<path d="M8522 12562
L8522 12768
L8540 12806
L8578 12824
L8634 12824
L8672 12806
L8690 12787
" />
<path d="M9009 12618
L8878 12618
" />
<path d="M8878 12824
L8878 12431
L9065 12431
" />
</g>
<g style="fill:#FFEF00; fill-opacity:0.0; 
stroke:#FFEF00; stroke-width:23.622; stroke-opacity:1; 
stroke-linecap:round; stroke-linejoin:round;">
<path d="M9648 12506
L9641 12513
L9618 12521
L9603 12521
L9581 12513
L9566 12498
L9558 12483
L9551 12453
L9551 12431
L9558 12401
L9566 12386
L9581 12371
L9603 12363
L9618 12363
L9641 12371
L9648 12378
" />
<path d="M9701 12363
L9798 12363
L9746 12423
L9768 12423
L9783 12431
L9791 12438
L9798 12453
L9798 12491
L9791 12506
L9783 12513
L9768 12521
L9723 12521
L9708 12513
L9701 12506
" />
</g>
<g style="fill:#FFEF00; fill-opacity:0.0; 
stroke:#FFEF00; stroke-width:59.0551; stroke-opacity:1; 
stroke-linecap:round; stroke-linejoin:round;">
<path d="M8550 9440
L8569 9459
L8550 9478
L8531 9459
L8550 9440
L8550 9478
" />
<path d="M8944 9478
L8719 9478
" />
<path d="M8831 9478
L8831 9084
L8794 9140
L8756 9178
L8719 9197
" />
<path d="M9281 9215
L9281 9478
" />
<path d="M9112 9215
L9112 9422
L9131 9459
L9169 9478
L9225 9478
L9262 9459
L9281 9440
" />
<path d="M9600 9272
L9468 9272
" />
<path d="M9468 9478
L9468 9084
L9656 9084
" />
</g>
<g style="fill:#FFEF00; fill-opacity:0.0; 
stroke:#FFEF00; stroke-width:23.622; stroke-opacity:1; 
stroke-linecap:round; stroke-linejoin:round;">
<path d="M10239 9356
L10232 9363
L10209 9371
L10194 9371
L10172 9363
L10157 9348
L10149 9333
L10142 9303
L10142 9281
L10149 9251
L10157 9236
L10172 9221
L10194 9214
L10209 9214
L10232 9221
L10239 9229
" />
<path d="M10299 9229
L10306 9221
L10321 9214
L10359 9214
L10374 9221
L10381 9229
L10389 9244
L10389 9258
L10381 9281
L10291 9371
L10389 9371
" />
</g>
<g style="fill:#FFEF00; fill-opacity:0.0; 
stroke:#FFEF00; stroke-width:59.0551; stroke-opacity:1; 
stroke-linecap:round; stroke-linejoin:round;">
<path d="M2904 12281
L2904 12506
" />
<path d="M2904 12393
L2510 12393
L2567 12431
L2604 12468
L2623 12506
" />
<path d="M2510 12037
L2510 11999
L2529 11962
L2548 11943
L2585 11924
L2660 11906
L2754 11906
L2829 11924
L2866 11943
L2885 11962
L2904 11999
L2904 12037
L2885 12074
L2866 12093
L2829 12112
L2754 12131
L2660 12131
L2585 12112
L2548 12093
L2529 12074
L2510 12037
" />
<path d="M2642 11568
L2904 11568
" />
<path d="M2642 11737
L2848 11737
L2885 11718
L2904 11681
L2904 11624
L2885 11587
L2866 11568
" />
<path d="M2698 11249
L2698 11381
" />
<path d="M2904 11381
L2510 11381
L2510 11193
" />
</g>
<g style="fill:#FFEF00; fill-opacity:0.0; 
stroke:#FFEF00; stroke-width:31.4961; stroke-opacity:1; 
stroke-linecap:round; stroke-linejoin:round;">
<path d="M3446 11892
L3455 11901
L3465 11929
L3465 11948
L3455 11976
L3436 11995
L3418 12004
L3380 12013
L3352 12013
L3315 12004
L3296 11995
L3277 11976
L3268 11948
L3268 11929
L3277 11901
L3286 11892
" />
<path d="M3465 11704
L3465 11817
" />
<path d="M3465 11760
L3268 11760
L3296 11779
L3315 11798
L3324 11817
" />
<g >
</g>
</g>
<g style="fill:#000000; fill-opacity:0.0; 
stroke:#000000; stroke-width:31.4961; stroke-opacity:1; 
stroke-linecap:round; stroke-linejoin:round;">
</g>
<g style="fill:#C2C200; fill-opacity:0.0; 
stroke:#C2C200; stroke-width:31.4961; stroke-opacity:1; 
stroke-linecap:round; stroke-linejoin:round;">
</g>
<g style="fill:#C2C200; fill-opacity:0.0; 
stroke:#C2C200; stroke-width:19.685; stroke-opacity:1; 
stroke-linecap:round; stroke-linejoin:round;">
<path d="M29 12843
L29 1032
" />
<path d="M13612 12843
L29 12843
" />
<path d="M13612 1032
L13612 12843
" />
<path d="M29 1032
L13612 1032
" />
<g >
</g>
<g >
</g>
<g >
</g>
<g >
</g>
<g >
</g>
<g >
</g>
<g >
</g>
<g >
</g>
<g >
</g>
<g >
</g>
<g >
</g>
<g >
</g>
<g >
</g>
<g >
</g>
<g >
</g>
<g >
</g>
<g >
</g>
<g >
</g>
<g >
</g>
<g >
</g>
</g> 
</svg>
