G04 #@! TF.GenerationSoftware,KiCad,Pcbnew,5.1.5-52549c5~84~ubuntu18.04.1*
G04 #@! TF.CreationDate,2020-02-23T09:36:08-07:00*
G04 #@! TF.ProjectId,cob_2x2,636f625f-3278-4322-9e6b-696361645f70,rev?*
G04 #@! TF.SameCoordinates,Original*
G04 #@! TF.FileFunction,Soldermask,Top*
G04 #@! TF.FilePolarity,Negative*
%FSLAX46Y46*%
G04 Gerber Fmt 4.6, Leading zero omitted, Abs format (unit mm)*
G04 Created by KiCad (PCBNEW 5.1.5-52549c5~84~ubuntu18.04.1) date 2020-02-23 09:36:08*
%MOMM*%
%LPD*%
G04 APERTURE LIST*
%ADD10C,0.100000*%
G04 APERTURE END LIST*
D10*
G36*
X253417502Y-250380110D02*
G01*
X253773268Y-250450876D01*
X253973105Y-250533651D01*
X254255718Y-250650713D01*
X254255719Y-250650714D01*
X254689914Y-250940834D01*
X255059166Y-251310086D01*
X255059167Y-251310088D01*
X255349287Y-251744282D01*
X255392662Y-251849000D01*
X255549124Y-252226732D01*
X255651000Y-252738899D01*
X255651000Y-253261101D01*
X255549124Y-253773268D01*
X255466349Y-253973105D01*
X255349287Y-254255718D01*
X255349286Y-254255719D01*
X255059166Y-254689914D01*
X254689914Y-255059166D01*
X254471341Y-255205212D01*
X254255718Y-255349287D01*
X253973105Y-255466349D01*
X253773268Y-255549124D01*
X253517184Y-255600062D01*
X253261102Y-255651000D01*
X252738898Y-255651000D01*
X252482816Y-255600062D01*
X252226732Y-255549124D01*
X252026895Y-255466349D01*
X251744282Y-255349287D01*
X251528659Y-255205212D01*
X251310086Y-255059166D01*
X250940834Y-254689914D01*
X250650714Y-254255719D01*
X250650713Y-254255718D01*
X250533651Y-253973105D01*
X250450876Y-253773268D01*
X250349000Y-253261101D01*
X250349000Y-252738899D01*
X250450876Y-252226732D01*
X250607338Y-251849000D01*
X250650713Y-251744282D01*
X250940833Y-251310088D01*
X250940834Y-251310086D01*
X251310086Y-250940834D01*
X251744281Y-250650714D01*
X251744282Y-250650713D01*
X252026895Y-250533651D01*
X252226732Y-250450876D01*
X252582498Y-250380110D01*
X252738898Y-250349000D01*
X253261102Y-250349000D01*
X253417502Y-250380110D01*
G37*
G36*
X107417502Y-250380110D02*
G01*
X107773268Y-250450876D01*
X107973105Y-250533651D01*
X108255718Y-250650713D01*
X108255719Y-250650714D01*
X108689914Y-250940834D01*
X109059166Y-251310086D01*
X109059167Y-251310088D01*
X109349287Y-251744282D01*
X109392662Y-251849000D01*
X109549124Y-252226732D01*
X109651000Y-252738899D01*
X109651000Y-253261101D01*
X109549124Y-253773268D01*
X109466349Y-253973105D01*
X109349287Y-254255718D01*
X109349286Y-254255719D01*
X109059166Y-254689914D01*
X108689914Y-255059166D01*
X108471341Y-255205212D01*
X108255718Y-255349287D01*
X107973105Y-255466349D01*
X107773268Y-255549124D01*
X107517184Y-255600062D01*
X107261102Y-255651000D01*
X106738898Y-255651000D01*
X106482816Y-255600062D01*
X106226732Y-255549124D01*
X106026895Y-255466349D01*
X105744282Y-255349287D01*
X105528659Y-255205212D01*
X105310086Y-255059166D01*
X104940834Y-254689914D01*
X104650714Y-254255719D01*
X104650713Y-254255718D01*
X104533651Y-253973105D01*
X104450876Y-253773268D01*
X104349000Y-253261101D01*
X104349000Y-252738899D01*
X104450876Y-252226732D01*
X104607338Y-251849000D01*
X104650713Y-251744282D01*
X104940833Y-251310088D01*
X104940834Y-251310086D01*
X105310086Y-250940834D01*
X105744281Y-250650714D01*
X105744282Y-250650713D01*
X106026895Y-250533651D01*
X106226732Y-250450876D01*
X106582498Y-250380110D01*
X106738898Y-250349000D01*
X107261102Y-250349000D01*
X107417502Y-250380110D01*
G37*
G36*
X191573512Y-252103927D02*
G01*
X191722812Y-252133624D01*
X191886784Y-252201544D01*
X192034354Y-252300147D01*
X192159853Y-252425646D01*
X192258456Y-252573216D01*
X192326376Y-252737188D01*
X192361000Y-252911259D01*
X192361000Y-253088741D01*
X192326376Y-253262812D01*
X192258456Y-253426784D01*
X192159853Y-253574354D01*
X192034354Y-253699853D01*
X191886784Y-253798456D01*
X191722812Y-253866376D01*
X191573512Y-253896073D01*
X191548742Y-253901000D01*
X191371258Y-253901000D01*
X191346488Y-253896073D01*
X191197188Y-253866376D01*
X191033216Y-253798456D01*
X190885646Y-253699853D01*
X190760147Y-253574354D01*
X190661544Y-253426784D01*
X190593624Y-253262812D01*
X190559000Y-253088741D01*
X190559000Y-252911259D01*
X190593624Y-252737188D01*
X190661544Y-252573216D01*
X190760147Y-252425646D01*
X190885646Y-252300147D01*
X191033216Y-252201544D01*
X191197188Y-252133624D01*
X191346488Y-252103927D01*
X191371258Y-252099000D01*
X191548742Y-252099000D01*
X191573512Y-252103927D01*
G37*
G36*
X194901000Y-253901000D02*
G01*
X193099000Y-253901000D01*
X193099000Y-252099000D01*
X194901000Y-252099000D01*
X194901000Y-253901000D01*
G37*
G36*
X186463512Y-252103927D02*
G01*
X186612812Y-252133624D01*
X186776784Y-252201544D01*
X186924354Y-252300147D01*
X187049853Y-252425646D01*
X187148456Y-252573216D01*
X187216376Y-252737188D01*
X187251000Y-252911259D01*
X187251000Y-253088741D01*
X187216376Y-253262812D01*
X187148456Y-253426784D01*
X187049853Y-253574354D01*
X186924354Y-253699853D01*
X186776784Y-253798456D01*
X186612812Y-253866376D01*
X186463512Y-253896073D01*
X186438742Y-253901000D01*
X186261258Y-253901000D01*
X186236488Y-253896073D01*
X186087188Y-253866376D01*
X185923216Y-253798456D01*
X185775646Y-253699853D01*
X185650147Y-253574354D01*
X185551544Y-253426784D01*
X185483624Y-253262812D01*
X185449000Y-253088741D01*
X185449000Y-252911259D01*
X185483624Y-252737188D01*
X185551544Y-252573216D01*
X185650147Y-252425646D01*
X185775646Y-252300147D01*
X185923216Y-252201544D01*
X186087188Y-252133624D01*
X186236488Y-252103927D01*
X186261258Y-252099000D01*
X186438742Y-252099000D01*
X186463512Y-252103927D01*
G37*
G36*
X183923512Y-252103927D02*
G01*
X184072812Y-252133624D01*
X184236784Y-252201544D01*
X184384354Y-252300147D01*
X184509853Y-252425646D01*
X184608456Y-252573216D01*
X184676376Y-252737188D01*
X184711000Y-252911259D01*
X184711000Y-253088741D01*
X184676376Y-253262812D01*
X184608456Y-253426784D01*
X184509853Y-253574354D01*
X184384354Y-253699853D01*
X184236784Y-253798456D01*
X184072812Y-253866376D01*
X183923512Y-253896073D01*
X183898742Y-253901000D01*
X183721258Y-253901000D01*
X183696488Y-253896073D01*
X183547188Y-253866376D01*
X183383216Y-253798456D01*
X183235646Y-253699853D01*
X183110147Y-253574354D01*
X183011544Y-253426784D01*
X182943624Y-253262812D01*
X182909000Y-253088741D01*
X182909000Y-252911259D01*
X182943624Y-252737188D01*
X183011544Y-252573216D01*
X183110147Y-252425646D01*
X183235646Y-252300147D01*
X183383216Y-252201544D01*
X183547188Y-252133624D01*
X183696488Y-252103927D01*
X183721258Y-252099000D01*
X183898742Y-252099000D01*
X183923512Y-252103927D01*
G37*
G36*
X181383512Y-252103927D02*
G01*
X181532812Y-252133624D01*
X181696784Y-252201544D01*
X181844354Y-252300147D01*
X181969853Y-252425646D01*
X182068456Y-252573216D01*
X182136376Y-252737188D01*
X182171000Y-252911259D01*
X182171000Y-253088741D01*
X182136376Y-253262812D01*
X182068456Y-253426784D01*
X181969853Y-253574354D01*
X181844354Y-253699853D01*
X181696784Y-253798456D01*
X181532812Y-253866376D01*
X181383512Y-253896073D01*
X181358742Y-253901000D01*
X181181258Y-253901000D01*
X181156488Y-253896073D01*
X181007188Y-253866376D01*
X180843216Y-253798456D01*
X180695646Y-253699853D01*
X180570147Y-253574354D01*
X180471544Y-253426784D01*
X180403624Y-253262812D01*
X180369000Y-253088741D01*
X180369000Y-252911259D01*
X180403624Y-252737188D01*
X180471544Y-252573216D01*
X180570147Y-252425646D01*
X180695646Y-252300147D01*
X180843216Y-252201544D01*
X181007188Y-252133624D01*
X181156488Y-252103927D01*
X181181258Y-252099000D01*
X181358742Y-252099000D01*
X181383512Y-252103927D01*
G37*
G36*
X178843512Y-252103927D02*
G01*
X178992812Y-252133624D01*
X179156784Y-252201544D01*
X179304354Y-252300147D01*
X179429853Y-252425646D01*
X179528456Y-252573216D01*
X179596376Y-252737188D01*
X179631000Y-252911259D01*
X179631000Y-253088741D01*
X179596376Y-253262812D01*
X179528456Y-253426784D01*
X179429853Y-253574354D01*
X179304354Y-253699853D01*
X179156784Y-253798456D01*
X178992812Y-253866376D01*
X178843512Y-253896073D01*
X178818742Y-253901000D01*
X178641258Y-253901000D01*
X178616488Y-253896073D01*
X178467188Y-253866376D01*
X178303216Y-253798456D01*
X178155646Y-253699853D01*
X178030147Y-253574354D01*
X177931544Y-253426784D01*
X177863624Y-253262812D01*
X177829000Y-253088741D01*
X177829000Y-252911259D01*
X177863624Y-252737188D01*
X177931544Y-252573216D01*
X178030147Y-252425646D01*
X178155646Y-252300147D01*
X178303216Y-252201544D01*
X178467188Y-252133624D01*
X178616488Y-252103927D01*
X178641258Y-252099000D01*
X178818742Y-252099000D01*
X178843512Y-252103927D01*
G37*
G36*
X176303512Y-252103927D02*
G01*
X176452812Y-252133624D01*
X176616784Y-252201544D01*
X176764354Y-252300147D01*
X176889853Y-252425646D01*
X176988456Y-252573216D01*
X177056376Y-252737188D01*
X177091000Y-252911259D01*
X177091000Y-253088741D01*
X177056376Y-253262812D01*
X176988456Y-253426784D01*
X176889853Y-253574354D01*
X176764354Y-253699853D01*
X176616784Y-253798456D01*
X176452812Y-253866376D01*
X176303512Y-253896073D01*
X176278742Y-253901000D01*
X176101258Y-253901000D01*
X176076488Y-253896073D01*
X175927188Y-253866376D01*
X175763216Y-253798456D01*
X175615646Y-253699853D01*
X175490147Y-253574354D01*
X175391544Y-253426784D01*
X175323624Y-253262812D01*
X175289000Y-253088741D01*
X175289000Y-252911259D01*
X175323624Y-252737188D01*
X175391544Y-252573216D01*
X175490147Y-252425646D01*
X175615646Y-252300147D01*
X175763216Y-252201544D01*
X175927188Y-252133624D01*
X176076488Y-252103927D01*
X176101258Y-252099000D01*
X176278742Y-252099000D01*
X176303512Y-252103927D01*
G37*
G36*
X174551000Y-253901000D02*
G01*
X172749000Y-253901000D01*
X172749000Y-252099000D01*
X174551000Y-252099000D01*
X174551000Y-253901000D01*
G37*
G36*
X201401000Y-252551000D02*
G01*
X200599000Y-252551000D01*
X200599000Y-251849000D01*
X201401000Y-251849000D01*
X201401000Y-252551000D01*
G37*
G36*
X156879591Y-250303085D02*
G01*
X156913569Y-250313393D01*
X156944890Y-250330134D01*
X156972339Y-250352661D01*
X156994866Y-250380110D01*
X157011607Y-250411431D01*
X157021915Y-250445409D01*
X157026000Y-250486890D01*
X157026000Y-251088110D01*
X157021915Y-251129591D01*
X157011607Y-251163569D01*
X156994866Y-251194890D01*
X156972339Y-251222339D01*
X156944890Y-251244866D01*
X156913569Y-251261607D01*
X156879591Y-251271915D01*
X156838110Y-251276000D01*
X156161890Y-251276000D01*
X156120409Y-251271915D01*
X156086431Y-251261607D01*
X156055110Y-251244866D01*
X156027661Y-251222339D01*
X156005134Y-251194890D01*
X155988393Y-251163569D01*
X155978085Y-251129591D01*
X155974000Y-251088110D01*
X155974000Y-250486890D01*
X155978085Y-250445409D01*
X155988393Y-250411431D01*
X156005134Y-250380110D01*
X156027661Y-250352661D01*
X156055110Y-250330134D01*
X156086431Y-250313393D01*
X156120409Y-250303085D01*
X156161890Y-250299000D01*
X156838110Y-250299000D01*
X156879591Y-250303085D01*
G37*
G36*
X199379591Y-250303085D02*
G01*
X199413569Y-250313393D01*
X199444890Y-250330134D01*
X199472339Y-250352661D01*
X199494866Y-250380110D01*
X199511607Y-250411431D01*
X199521915Y-250445409D01*
X199526000Y-250486890D01*
X199526000Y-251088110D01*
X199521915Y-251129591D01*
X199511607Y-251163569D01*
X199494866Y-251194890D01*
X199472339Y-251222339D01*
X199444890Y-251244866D01*
X199413569Y-251261607D01*
X199379591Y-251271915D01*
X199338110Y-251276000D01*
X198661890Y-251276000D01*
X198620409Y-251271915D01*
X198586431Y-251261607D01*
X198555110Y-251244866D01*
X198527661Y-251222339D01*
X198505134Y-251194890D01*
X198488393Y-251163569D01*
X198478085Y-251129591D01*
X198474000Y-251088110D01*
X198474000Y-250486890D01*
X198478085Y-250445409D01*
X198488393Y-250411431D01*
X198505134Y-250380110D01*
X198527661Y-250352661D01*
X198555110Y-250330134D01*
X198586431Y-250313393D01*
X198620409Y-250303085D01*
X198661890Y-250299000D01*
X199338110Y-250299000D01*
X199379591Y-250303085D01*
G37*
G36*
X201401000Y-251151000D02*
G01*
X200599000Y-251151000D01*
X200599000Y-250449000D01*
X201401000Y-250449000D01*
X201401000Y-251151000D01*
G37*
G36*
X186551000Y-250301000D02*
G01*
X185449000Y-250301000D01*
X185449000Y-249199000D01*
X186551000Y-249199000D01*
X186551000Y-250301000D01*
G37*
G36*
X167379591Y-248803085D02*
G01*
X167413569Y-248813393D01*
X167444890Y-248830134D01*
X167472339Y-248852661D01*
X167494866Y-248880110D01*
X167511607Y-248911431D01*
X167521915Y-248945409D01*
X167526000Y-248986890D01*
X167526000Y-249588110D01*
X167521915Y-249629591D01*
X167511607Y-249663569D01*
X167494866Y-249694890D01*
X167472339Y-249722339D01*
X167444890Y-249744866D01*
X167413569Y-249761607D01*
X167379591Y-249771915D01*
X167338110Y-249776000D01*
X166661890Y-249776000D01*
X166620409Y-249771915D01*
X166586431Y-249761607D01*
X166555110Y-249744866D01*
X166527661Y-249722339D01*
X166505134Y-249694890D01*
X166488393Y-249663569D01*
X166478085Y-249629591D01*
X166474000Y-249588110D01*
X166474000Y-248986890D01*
X166478085Y-248945409D01*
X166488393Y-248911431D01*
X166505134Y-248880110D01*
X166527661Y-248852661D01*
X166555110Y-248830134D01*
X166586431Y-248813393D01*
X166620409Y-248803085D01*
X166661890Y-248799000D01*
X167338110Y-248799000D01*
X167379591Y-248803085D01*
G37*
G36*
X199379591Y-248728085D02*
G01*
X199413569Y-248738393D01*
X199444890Y-248755134D01*
X199472339Y-248777661D01*
X199494866Y-248805110D01*
X199511607Y-248836431D01*
X199521915Y-248870409D01*
X199526000Y-248911890D01*
X199526000Y-249513110D01*
X199521915Y-249554591D01*
X199511607Y-249588569D01*
X199494866Y-249619890D01*
X199472339Y-249647339D01*
X199444890Y-249669866D01*
X199413569Y-249686607D01*
X199379591Y-249696915D01*
X199338110Y-249701000D01*
X198661890Y-249701000D01*
X198620409Y-249696915D01*
X198586431Y-249686607D01*
X198555110Y-249669866D01*
X198527661Y-249647339D01*
X198505134Y-249619890D01*
X198488393Y-249588569D01*
X198478085Y-249554591D01*
X198474000Y-249513110D01*
X198474000Y-248911890D01*
X198478085Y-248870409D01*
X198488393Y-248836431D01*
X198505134Y-248805110D01*
X198527661Y-248777661D01*
X198555110Y-248755134D01*
X198586431Y-248738393D01*
X198620409Y-248728085D01*
X198661890Y-248724000D01*
X199338110Y-248724000D01*
X199379591Y-248728085D01*
G37*
G36*
X156879591Y-248728085D02*
G01*
X156913569Y-248738393D01*
X156944890Y-248755134D01*
X156972339Y-248777661D01*
X156994866Y-248805110D01*
X157011607Y-248836431D01*
X157021915Y-248870409D01*
X157026000Y-248911890D01*
X157026000Y-249513110D01*
X157021915Y-249554591D01*
X157011607Y-249588569D01*
X156994866Y-249619890D01*
X156972339Y-249647339D01*
X156944890Y-249669866D01*
X156913569Y-249686607D01*
X156879591Y-249696915D01*
X156838110Y-249701000D01*
X156161890Y-249701000D01*
X156120409Y-249696915D01*
X156086431Y-249686607D01*
X156055110Y-249669866D01*
X156027661Y-249647339D01*
X156005134Y-249619890D01*
X155988393Y-249588569D01*
X155978085Y-249554591D01*
X155974000Y-249513110D01*
X155974000Y-248911890D01*
X155978085Y-248870409D01*
X155988393Y-248836431D01*
X156005134Y-248805110D01*
X156027661Y-248777661D01*
X156055110Y-248755134D01*
X156086431Y-248738393D01*
X156120409Y-248728085D01*
X156161890Y-248724000D01*
X156838110Y-248724000D01*
X156879591Y-248728085D01*
G37*
G36*
X189084468Y-248403565D02*
G01*
X189123138Y-248415296D01*
X189158777Y-248434346D01*
X189190017Y-248459983D01*
X189215654Y-248491223D01*
X189234704Y-248526862D01*
X189246435Y-248565532D01*
X189251000Y-248611888D01*
X189251000Y-249263112D01*
X189246435Y-249309468D01*
X189234704Y-249348138D01*
X189215654Y-249383777D01*
X189190017Y-249415017D01*
X189158777Y-249440654D01*
X189123138Y-249459704D01*
X189084468Y-249471435D01*
X189038112Y-249476000D01*
X187961888Y-249476000D01*
X187915532Y-249471435D01*
X187876862Y-249459704D01*
X187841223Y-249440654D01*
X187809983Y-249415017D01*
X187784346Y-249383777D01*
X187765296Y-249348138D01*
X187753565Y-249309468D01*
X187749000Y-249263112D01*
X187749000Y-248611888D01*
X187753565Y-248565532D01*
X187765296Y-248526862D01*
X187784346Y-248491223D01*
X187809983Y-248459983D01*
X187841223Y-248434346D01*
X187876862Y-248415296D01*
X187915532Y-248403565D01*
X187961888Y-248399000D01*
X189038112Y-248399000D01*
X189084468Y-248403565D01*
G37*
G36*
X159899867Y-248532004D02*
G01*
X159923292Y-248539110D01*
X159944889Y-248550654D01*
X159963814Y-248566186D01*
X159979346Y-248585111D01*
X159990890Y-248606708D01*
X159997996Y-248630133D01*
X160001000Y-248660638D01*
X160001000Y-249149362D01*
X159997996Y-249179867D01*
X159990890Y-249203292D01*
X159979346Y-249224889D01*
X159963814Y-249243814D01*
X159944889Y-249259346D01*
X159923292Y-249270890D01*
X159899867Y-249277996D01*
X159869362Y-249281000D01*
X158055638Y-249281000D01*
X158025133Y-249277996D01*
X158001708Y-249270890D01*
X157980111Y-249259346D01*
X157961186Y-249243814D01*
X157945654Y-249224889D01*
X157934110Y-249203292D01*
X157927004Y-249179867D01*
X157924000Y-249149362D01*
X157924000Y-248660638D01*
X157927004Y-248630133D01*
X157934110Y-248606708D01*
X157945654Y-248585111D01*
X157961186Y-248566186D01*
X157980111Y-248550654D01*
X158001708Y-248539110D01*
X158025133Y-248532004D01*
X158055638Y-248529000D01*
X159869362Y-248529000D01*
X159899867Y-248532004D01*
G37*
G36*
X164974867Y-248532004D02*
G01*
X164998292Y-248539110D01*
X165019889Y-248550654D01*
X165038814Y-248566186D01*
X165054346Y-248585111D01*
X165065890Y-248606708D01*
X165072996Y-248630133D01*
X165076000Y-248660638D01*
X165076000Y-249149362D01*
X165072996Y-249179867D01*
X165065890Y-249203292D01*
X165054346Y-249224889D01*
X165038814Y-249243814D01*
X165019889Y-249259346D01*
X164998292Y-249270890D01*
X164974867Y-249277996D01*
X164944362Y-249281000D01*
X163130638Y-249281000D01*
X163100133Y-249277996D01*
X163076708Y-249270890D01*
X163055111Y-249259346D01*
X163036186Y-249243814D01*
X163020654Y-249224889D01*
X163009110Y-249203292D01*
X163002004Y-249179867D01*
X162999000Y-249149362D01*
X162999000Y-248660638D01*
X163002004Y-248630133D01*
X163009110Y-248606708D01*
X163020654Y-248585111D01*
X163036186Y-248566186D01*
X163055111Y-248550654D01*
X163076708Y-248539110D01*
X163100133Y-248532004D01*
X163130638Y-248529000D01*
X164944362Y-248529000D01*
X164974867Y-248532004D01*
G37*
G36*
X167379591Y-247228085D02*
G01*
X167413569Y-247238393D01*
X167444890Y-247255134D01*
X167472339Y-247277661D01*
X167494866Y-247305110D01*
X167511607Y-247336431D01*
X167521915Y-247370409D01*
X167526000Y-247411890D01*
X167526000Y-248013110D01*
X167521915Y-248054591D01*
X167511607Y-248088569D01*
X167494866Y-248119890D01*
X167472339Y-248147339D01*
X167444890Y-248169866D01*
X167413569Y-248186607D01*
X167379591Y-248196915D01*
X167338110Y-248201000D01*
X166661890Y-248201000D01*
X166620409Y-248196915D01*
X166586431Y-248186607D01*
X166555110Y-248169866D01*
X166527661Y-248147339D01*
X166505134Y-248119890D01*
X166488393Y-248088569D01*
X166478085Y-248054591D01*
X166474000Y-248013110D01*
X166474000Y-247411890D01*
X166478085Y-247370409D01*
X166488393Y-247336431D01*
X166505134Y-247305110D01*
X166527661Y-247277661D01*
X166555110Y-247255134D01*
X166586431Y-247238393D01*
X166620409Y-247228085D01*
X166661890Y-247224000D01*
X167338110Y-247224000D01*
X167379591Y-247228085D01*
G37*
G36*
X156879591Y-247053085D02*
G01*
X156913569Y-247063393D01*
X156944890Y-247080134D01*
X156972339Y-247102661D01*
X156994866Y-247130110D01*
X157011607Y-247161431D01*
X157021915Y-247195409D01*
X157026000Y-247236890D01*
X157026000Y-247838110D01*
X157021915Y-247879591D01*
X157011607Y-247913569D01*
X156994866Y-247944890D01*
X156972339Y-247972339D01*
X156944890Y-247994866D01*
X156913569Y-248011607D01*
X156879591Y-248021915D01*
X156838110Y-248026000D01*
X156161890Y-248026000D01*
X156120409Y-248021915D01*
X156086431Y-248011607D01*
X156055110Y-247994866D01*
X156027661Y-247972339D01*
X156005134Y-247944890D01*
X155988393Y-247913569D01*
X155978085Y-247879591D01*
X155974000Y-247838110D01*
X155974000Y-247236890D01*
X155978085Y-247195409D01*
X155988393Y-247161431D01*
X156005134Y-247130110D01*
X156027661Y-247102661D01*
X156055110Y-247080134D01*
X156086431Y-247063393D01*
X156120409Y-247053085D01*
X156161890Y-247049000D01*
X156838110Y-247049000D01*
X156879591Y-247053085D01*
G37*
G36*
X159899867Y-247262004D02*
G01*
X159923292Y-247269110D01*
X159944889Y-247280654D01*
X159963814Y-247296186D01*
X159979346Y-247315111D01*
X159990890Y-247336708D01*
X159997996Y-247360133D01*
X160001000Y-247390638D01*
X160001000Y-247879362D01*
X159997996Y-247909867D01*
X159990890Y-247933292D01*
X159979346Y-247954889D01*
X159963814Y-247973814D01*
X159944889Y-247989346D01*
X159923292Y-248000890D01*
X159899867Y-248007996D01*
X159869362Y-248011000D01*
X158055638Y-248011000D01*
X158025133Y-248007996D01*
X158001708Y-248000890D01*
X157980111Y-247989346D01*
X157961186Y-247973814D01*
X157945654Y-247954889D01*
X157934110Y-247933292D01*
X157927004Y-247909867D01*
X157924000Y-247879362D01*
X157924000Y-247390638D01*
X157927004Y-247360133D01*
X157934110Y-247336708D01*
X157945654Y-247315111D01*
X157961186Y-247296186D01*
X157980111Y-247280654D01*
X158001708Y-247269110D01*
X158025133Y-247262004D01*
X158055638Y-247259000D01*
X159869362Y-247259000D01*
X159899867Y-247262004D01*
G37*
G36*
X164974867Y-247262004D02*
G01*
X164998292Y-247269110D01*
X165019889Y-247280654D01*
X165038814Y-247296186D01*
X165054346Y-247315111D01*
X165065890Y-247336708D01*
X165072996Y-247360133D01*
X165076000Y-247390638D01*
X165076000Y-247879362D01*
X165072996Y-247909867D01*
X165065890Y-247933292D01*
X165054346Y-247954889D01*
X165038814Y-247973814D01*
X165019889Y-247989346D01*
X164998292Y-248000890D01*
X164974867Y-248007996D01*
X164944362Y-248011000D01*
X163130638Y-248011000D01*
X163100133Y-248007996D01*
X163076708Y-248000890D01*
X163055111Y-247989346D01*
X163036186Y-247973814D01*
X163020654Y-247954889D01*
X163009110Y-247933292D01*
X163002004Y-247909867D01*
X162999000Y-247879362D01*
X162999000Y-247390638D01*
X163002004Y-247360133D01*
X163009110Y-247336708D01*
X163020654Y-247315111D01*
X163036186Y-247296186D01*
X163055111Y-247280654D01*
X163076708Y-247269110D01*
X163100133Y-247262004D01*
X163130638Y-247259000D01*
X164944362Y-247259000D01*
X164974867Y-247262004D01*
G37*
G36*
X197084468Y-246903565D02*
G01*
X197123138Y-246915296D01*
X197158777Y-246934346D01*
X197190017Y-246959983D01*
X197215654Y-246991223D01*
X197234704Y-247026862D01*
X197246435Y-247065532D01*
X197251000Y-247111888D01*
X197251000Y-247763112D01*
X197246435Y-247809468D01*
X197234704Y-247848138D01*
X197215654Y-247883777D01*
X197190017Y-247915017D01*
X197158777Y-247940654D01*
X197123138Y-247959704D01*
X197084468Y-247971435D01*
X197038112Y-247976000D01*
X195961888Y-247976000D01*
X195915532Y-247971435D01*
X195876862Y-247959704D01*
X195841223Y-247940654D01*
X195809983Y-247915017D01*
X195784346Y-247883777D01*
X195765296Y-247848138D01*
X195753565Y-247809468D01*
X195749000Y-247763112D01*
X195749000Y-247111888D01*
X195753565Y-247065532D01*
X195765296Y-247026862D01*
X195784346Y-246991223D01*
X195809983Y-246959983D01*
X195841223Y-246934346D01*
X195876862Y-246915296D01*
X195915532Y-246903565D01*
X195961888Y-246899000D01*
X197038112Y-246899000D01*
X197084468Y-246903565D01*
G37*
G36*
X199364499Y-246803445D02*
G01*
X199401995Y-246814820D01*
X199436554Y-246833292D01*
X199466847Y-246858153D01*
X199491708Y-246888446D01*
X199510180Y-246923005D01*
X199521555Y-246960501D01*
X199526000Y-247005638D01*
X199526000Y-247744362D01*
X199521555Y-247789499D01*
X199510180Y-247826995D01*
X199491708Y-247861554D01*
X199466847Y-247891847D01*
X199436554Y-247916708D01*
X199401995Y-247935180D01*
X199364499Y-247946555D01*
X199319362Y-247951000D01*
X198680638Y-247951000D01*
X198635501Y-247946555D01*
X198598005Y-247935180D01*
X198563446Y-247916708D01*
X198533153Y-247891847D01*
X198508292Y-247861554D01*
X198489820Y-247826995D01*
X198478445Y-247789499D01*
X198474000Y-247744362D01*
X198474000Y-247005638D01*
X198478445Y-246960501D01*
X198489820Y-246923005D01*
X198508292Y-246888446D01*
X198533153Y-246858153D01*
X198563446Y-246833292D01*
X198598005Y-246814820D01*
X198635501Y-246803445D01*
X198680638Y-246799000D01*
X199319362Y-246799000D01*
X199364499Y-246803445D01*
G37*
G36*
X192351000Y-247826000D02*
G01*
X191029000Y-247826000D01*
X191029000Y-245174000D01*
X192351000Y-245174000D01*
X192351000Y-247826000D01*
G37*
G36*
X194971000Y-247826000D02*
G01*
X193649000Y-247826000D01*
X193649000Y-247074000D01*
X194971000Y-247074000D01*
X194971000Y-247826000D01*
G37*
G36*
X186551000Y-247801000D02*
G01*
X185449000Y-247801000D01*
X185449000Y-246699000D01*
X186551000Y-246699000D01*
X186551000Y-247801000D01*
G37*
G36*
X179812307Y-244253498D02*
G01*
X179850318Y-244265029D01*
X179885342Y-244283749D01*
X179916049Y-244308951D01*
X179941251Y-244339658D01*
X179959971Y-244374682D01*
X179971502Y-244412693D01*
X179976000Y-244458363D01*
X179976000Y-247541637D01*
X179971502Y-247587307D01*
X179959971Y-247625318D01*
X179941251Y-247660342D01*
X179916049Y-247691049D01*
X179885342Y-247716251D01*
X179850318Y-247734971D01*
X179812307Y-247746502D01*
X179766637Y-247751000D01*
X178958363Y-247751000D01*
X178912693Y-247746502D01*
X178874682Y-247734971D01*
X178839658Y-247716251D01*
X178808951Y-247691049D01*
X178783749Y-247660342D01*
X178765029Y-247625318D01*
X178753498Y-247587307D01*
X178749000Y-247541637D01*
X178749000Y-244458363D01*
X178753498Y-244412693D01*
X178765029Y-244374682D01*
X178783749Y-244339658D01*
X178808951Y-244308951D01*
X178839658Y-244283749D01*
X178874682Y-244265029D01*
X178912693Y-244253498D01*
X178958363Y-244249000D01*
X179766637Y-244249000D01*
X179812307Y-244253498D01*
G37*
G36*
X184087307Y-244253498D02*
G01*
X184125318Y-244265029D01*
X184160342Y-244283749D01*
X184191049Y-244308951D01*
X184216251Y-244339658D01*
X184234971Y-244374682D01*
X184246502Y-244412693D01*
X184251000Y-244458363D01*
X184251000Y-247541637D01*
X184246502Y-247587307D01*
X184234971Y-247625318D01*
X184216251Y-247660342D01*
X184191049Y-247691049D01*
X184160342Y-247716251D01*
X184125318Y-247734971D01*
X184087307Y-247746502D01*
X184041637Y-247751000D01*
X183233363Y-247751000D01*
X183187693Y-247746502D01*
X183149682Y-247734971D01*
X183114658Y-247716251D01*
X183083951Y-247691049D01*
X183058749Y-247660342D01*
X183040029Y-247625318D01*
X183028498Y-247587307D01*
X183024000Y-247541637D01*
X183024000Y-244458363D01*
X183028498Y-244412693D01*
X183040029Y-244374682D01*
X183058749Y-244339658D01*
X183083951Y-244308951D01*
X183114658Y-244283749D01*
X183149682Y-244265029D01*
X183187693Y-244253498D01*
X183233363Y-244249000D01*
X184041637Y-244249000D01*
X184087307Y-244253498D01*
G37*
G36*
X189084468Y-246528565D02*
G01*
X189123138Y-246540296D01*
X189158777Y-246559346D01*
X189190017Y-246584983D01*
X189215654Y-246616223D01*
X189234704Y-246651862D01*
X189246435Y-246690532D01*
X189251000Y-246736888D01*
X189251000Y-247388112D01*
X189246435Y-247434468D01*
X189234704Y-247473138D01*
X189215654Y-247508777D01*
X189190017Y-247540017D01*
X189158777Y-247565654D01*
X189123138Y-247584704D01*
X189084468Y-247596435D01*
X189038112Y-247601000D01*
X187961888Y-247601000D01*
X187915532Y-247596435D01*
X187876862Y-247584704D01*
X187841223Y-247565654D01*
X187809983Y-247540017D01*
X187784346Y-247508777D01*
X187765296Y-247473138D01*
X187753565Y-247434468D01*
X187749000Y-247388112D01*
X187749000Y-246736888D01*
X187753565Y-246690532D01*
X187765296Y-246651862D01*
X187784346Y-246616223D01*
X187809983Y-246584983D01*
X187841223Y-246559346D01*
X187876862Y-246540296D01*
X187915532Y-246528565D01*
X187961888Y-246524000D01*
X189038112Y-246524000D01*
X189084468Y-246528565D01*
G37*
G36*
X100949082Y-244907000D02*
G01*
X101051981Y-244927468D01*
X101234151Y-245002926D01*
X101398100Y-245112473D01*
X101537527Y-245251900D01*
X101647074Y-245415849D01*
X101647075Y-245415851D01*
X101722532Y-245598020D01*
X101761000Y-245791409D01*
X101761000Y-245988591D01*
X101749757Y-246045111D01*
X101722532Y-246181981D01*
X101647074Y-246364151D01*
X101537527Y-246528100D01*
X101398100Y-246667527D01*
X101234151Y-246777074D01*
X101051981Y-246852532D01*
X101023722Y-246858153D01*
X100858591Y-246891000D01*
X100661409Y-246891000D01*
X100496278Y-246858153D01*
X100468019Y-246852532D01*
X100285849Y-246777074D01*
X100121900Y-246667527D01*
X99982473Y-246528100D01*
X99872926Y-246364151D01*
X99797468Y-246181981D01*
X99770243Y-246045111D01*
X99759000Y-245988591D01*
X99759000Y-245791409D01*
X99797468Y-245598020D01*
X99872925Y-245415851D01*
X99872926Y-245415849D01*
X99982473Y-245251900D01*
X100121900Y-245112473D01*
X100285849Y-245002926D01*
X100468019Y-244927468D01*
X100570918Y-244907000D01*
X100661409Y-244889000D01*
X100858591Y-244889000D01*
X100949082Y-244907000D01*
G37*
G36*
X164974867Y-245992004D02*
G01*
X164998292Y-245999110D01*
X165019889Y-246010654D01*
X165038814Y-246026186D01*
X165054346Y-246045111D01*
X165065890Y-246066708D01*
X165072996Y-246090133D01*
X165076000Y-246120638D01*
X165076000Y-246609362D01*
X165072996Y-246639867D01*
X165065890Y-246663292D01*
X165054346Y-246684889D01*
X165038814Y-246703814D01*
X165019889Y-246719346D01*
X164998292Y-246730890D01*
X164974867Y-246737996D01*
X164944362Y-246741000D01*
X163130638Y-246741000D01*
X163100133Y-246737996D01*
X163076708Y-246730890D01*
X163055111Y-246719346D01*
X163036186Y-246703814D01*
X163020654Y-246684889D01*
X163009110Y-246663292D01*
X163002004Y-246639867D01*
X162999000Y-246609362D01*
X162999000Y-246120638D01*
X163002004Y-246090133D01*
X163009110Y-246066708D01*
X163020654Y-246045111D01*
X163036186Y-246026186D01*
X163055111Y-246010654D01*
X163076708Y-245999110D01*
X163100133Y-245992004D01*
X163130638Y-245989000D01*
X164944362Y-245989000D01*
X164974867Y-245992004D01*
G37*
G36*
X159899867Y-245992004D02*
G01*
X159923292Y-245999110D01*
X159944889Y-246010654D01*
X159963814Y-246026186D01*
X159979346Y-246045111D01*
X159990890Y-246066708D01*
X159997996Y-246090133D01*
X160001000Y-246120638D01*
X160001000Y-246609362D01*
X159997996Y-246639867D01*
X159990890Y-246663292D01*
X159979346Y-246684889D01*
X159963814Y-246703814D01*
X159944889Y-246719346D01*
X159923292Y-246730890D01*
X159899867Y-246737996D01*
X159869362Y-246741000D01*
X158055638Y-246741000D01*
X158025133Y-246737996D01*
X158001708Y-246730890D01*
X157980111Y-246719346D01*
X157961186Y-246703814D01*
X157945654Y-246684889D01*
X157934110Y-246663292D01*
X157927004Y-246639867D01*
X157924000Y-246609362D01*
X157924000Y-246120638D01*
X157927004Y-246090133D01*
X157934110Y-246066708D01*
X157945654Y-246045111D01*
X157961186Y-246026186D01*
X157980111Y-246010654D01*
X158001708Y-245999110D01*
X158025133Y-245992004D01*
X158055638Y-245989000D01*
X159869362Y-245989000D01*
X159899867Y-245992004D01*
G37*
G36*
X156879591Y-245478085D02*
G01*
X156913569Y-245488393D01*
X156944890Y-245505134D01*
X156972339Y-245527661D01*
X156994866Y-245555110D01*
X157011607Y-245586431D01*
X157021915Y-245620409D01*
X157026000Y-245661890D01*
X157026000Y-246263110D01*
X157021915Y-246304591D01*
X157011607Y-246338569D01*
X156994866Y-246369890D01*
X156972339Y-246397339D01*
X156944890Y-246419866D01*
X156913569Y-246436607D01*
X156879591Y-246446915D01*
X156838110Y-246451000D01*
X156161890Y-246451000D01*
X156120409Y-246446915D01*
X156086431Y-246436607D01*
X156055110Y-246419866D01*
X156027661Y-246397339D01*
X156005134Y-246369890D01*
X155988393Y-246338569D01*
X155978085Y-246304591D01*
X155974000Y-246263110D01*
X155974000Y-245661890D01*
X155978085Y-245620409D01*
X155988393Y-245586431D01*
X156005134Y-245555110D01*
X156027661Y-245527661D01*
X156055110Y-245505134D01*
X156086431Y-245488393D01*
X156120409Y-245478085D01*
X156161890Y-245474000D01*
X156838110Y-245474000D01*
X156879591Y-245478085D01*
G37*
G36*
X199364499Y-245053445D02*
G01*
X199401995Y-245064820D01*
X199436554Y-245083292D01*
X199466847Y-245108153D01*
X199491708Y-245138446D01*
X199510180Y-245173005D01*
X199521555Y-245210501D01*
X199526000Y-245255638D01*
X199526000Y-245994362D01*
X199521555Y-246039499D01*
X199510180Y-246076995D01*
X199491708Y-246111554D01*
X199466847Y-246141847D01*
X199436554Y-246166708D01*
X199401995Y-246185180D01*
X199364499Y-246196555D01*
X199319362Y-246201000D01*
X198680638Y-246201000D01*
X198635501Y-246196555D01*
X198598005Y-246185180D01*
X198563446Y-246166708D01*
X198533153Y-246141847D01*
X198508292Y-246111554D01*
X198489820Y-246076995D01*
X198478445Y-246039499D01*
X198474000Y-245994362D01*
X198474000Y-245255638D01*
X198478445Y-245210501D01*
X198489820Y-245173005D01*
X198508292Y-245138446D01*
X198533153Y-245108153D01*
X198563446Y-245083292D01*
X198598005Y-245064820D01*
X198635501Y-245053445D01*
X198680638Y-245049000D01*
X199319362Y-245049000D01*
X199364499Y-245053445D01*
G37*
G36*
X197084468Y-245028565D02*
G01*
X197123138Y-245040296D01*
X197158777Y-245059346D01*
X197190017Y-245084983D01*
X197215654Y-245116223D01*
X197234704Y-245151862D01*
X197246435Y-245190532D01*
X197251000Y-245236888D01*
X197251000Y-245888112D01*
X197246435Y-245934468D01*
X197234704Y-245973138D01*
X197215654Y-246008777D01*
X197190017Y-246040017D01*
X197158777Y-246065654D01*
X197123138Y-246084704D01*
X197084468Y-246096435D01*
X197038112Y-246101000D01*
X195961888Y-246101000D01*
X195915532Y-246096435D01*
X195876862Y-246084704D01*
X195841223Y-246065654D01*
X195809983Y-246040017D01*
X195784346Y-246008777D01*
X195765296Y-245973138D01*
X195753565Y-245934468D01*
X195749000Y-245888112D01*
X195749000Y-245236888D01*
X195753565Y-245190532D01*
X195765296Y-245151862D01*
X195784346Y-245116223D01*
X195809983Y-245084983D01*
X195841223Y-245059346D01*
X195876862Y-245040296D01*
X195915532Y-245028565D01*
X195961888Y-245024000D01*
X197038112Y-245024000D01*
X197084468Y-245028565D01*
G37*
G36*
X175129591Y-244978085D02*
G01*
X175163569Y-244988393D01*
X175194890Y-245005134D01*
X175222339Y-245027661D01*
X175244866Y-245055110D01*
X175261607Y-245086431D01*
X175271915Y-245120409D01*
X175276000Y-245161890D01*
X175276000Y-245838110D01*
X175271915Y-245879591D01*
X175261607Y-245913569D01*
X175244866Y-245944890D01*
X175222339Y-245972339D01*
X175194890Y-245994866D01*
X175163569Y-246011607D01*
X175129591Y-246021915D01*
X175088110Y-246026000D01*
X174486890Y-246026000D01*
X174445409Y-246021915D01*
X174411431Y-246011607D01*
X174380110Y-245994866D01*
X174352661Y-245972339D01*
X174330134Y-245944890D01*
X174313393Y-245913569D01*
X174303085Y-245879591D01*
X174299000Y-245838110D01*
X174299000Y-245161890D01*
X174303085Y-245120409D01*
X174313393Y-245086431D01*
X174330134Y-245055110D01*
X174352661Y-245027661D01*
X174380110Y-245005134D01*
X174411431Y-244988393D01*
X174445409Y-244978085D01*
X174486890Y-244974000D01*
X175088110Y-244974000D01*
X175129591Y-244978085D01*
G37*
G36*
X173554591Y-244978085D02*
G01*
X173588569Y-244988393D01*
X173619890Y-245005134D01*
X173647339Y-245027661D01*
X173669866Y-245055110D01*
X173686607Y-245086431D01*
X173696915Y-245120409D01*
X173701000Y-245161890D01*
X173701000Y-245838110D01*
X173696915Y-245879591D01*
X173686607Y-245913569D01*
X173669866Y-245944890D01*
X173647339Y-245972339D01*
X173619890Y-245994866D01*
X173588569Y-246011607D01*
X173554591Y-246021915D01*
X173513110Y-246026000D01*
X172911890Y-246026000D01*
X172870409Y-246021915D01*
X172836431Y-246011607D01*
X172805110Y-245994866D01*
X172777661Y-245972339D01*
X172755134Y-245944890D01*
X172738393Y-245913569D01*
X172728085Y-245879591D01*
X172724000Y-245838110D01*
X172724000Y-245161890D01*
X172728085Y-245120409D01*
X172738393Y-245086431D01*
X172755134Y-245055110D01*
X172777661Y-245027661D01*
X172805110Y-245005134D01*
X172836431Y-244988393D01*
X172870409Y-244978085D01*
X172911890Y-244974000D01*
X173513110Y-244974000D01*
X173554591Y-244978085D01*
G37*
G36*
X194971000Y-245926000D02*
G01*
X193649000Y-245926000D01*
X193649000Y-245174000D01*
X194971000Y-245174000D01*
X194971000Y-245926000D01*
G37*
G36*
X168401000Y-245926000D02*
G01*
X166699000Y-245926000D01*
X166699000Y-243574000D01*
X168401000Y-243574000D01*
X168401000Y-245926000D01*
G37*
G36*
X171801000Y-245926000D02*
G01*
X170099000Y-245926000D01*
X170099000Y-243574000D01*
X171801000Y-243574000D01*
X171801000Y-245926000D01*
G37*
G36*
X119203088Y-239448990D02*
G01*
X119398380Y-239508231D01*
X119559883Y-239594557D01*
X119578355Y-239604430D01*
X119736107Y-239733893D01*
X119823321Y-239840164D01*
X119865571Y-239891646D01*
X119961769Y-240071619D01*
X120021010Y-240266911D01*
X120036000Y-240419109D01*
X120036000Y-244480891D01*
X120021010Y-244633089D01*
X119961769Y-244828381D01*
X119865571Y-245008354D01*
X119736107Y-245166107D01*
X119578354Y-245295571D01*
X119398381Y-245391769D01*
X119398378Y-245391770D01*
X119362025Y-245402798D01*
X119203089Y-245451010D01*
X119000000Y-245471012D01*
X118796912Y-245451010D01*
X118637976Y-245402798D01*
X118601623Y-245391770D01*
X118601620Y-245391769D01*
X118421647Y-245295571D01*
X118263894Y-245166107D01*
X118134430Y-245008354D01*
X118038232Y-244828381D01*
X117978991Y-244633089D01*
X117964001Y-244480891D01*
X117964000Y-240419110D01*
X117978990Y-240266912D01*
X118038231Y-240071620D01*
X118134429Y-239891647D01*
X118134430Y-239891645D01*
X118263893Y-239733893D01*
X118421645Y-239604430D01*
X118421644Y-239604430D01*
X118421646Y-239604429D01*
X118601619Y-239508231D01*
X118796911Y-239448990D01*
X119000000Y-239428988D01*
X119203088Y-239448990D01*
G37*
G36*
X164974867Y-244722004D02*
G01*
X164998292Y-244729110D01*
X165019889Y-244740654D01*
X165038814Y-244756186D01*
X165054346Y-244775111D01*
X165065890Y-244796708D01*
X165072996Y-244820133D01*
X165076000Y-244850638D01*
X165076000Y-245339362D01*
X165072996Y-245369867D01*
X165065890Y-245393292D01*
X165054346Y-245414889D01*
X165038814Y-245433814D01*
X165019889Y-245449346D01*
X164998292Y-245460890D01*
X164974867Y-245467996D01*
X164944362Y-245471000D01*
X163130638Y-245471000D01*
X163100133Y-245467996D01*
X163076708Y-245460890D01*
X163055111Y-245449346D01*
X163036186Y-245433814D01*
X163020654Y-245414889D01*
X163009110Y-245393292D01*
X163002004Y-245369867D01*
X162999000Y-245339362D01*
X162999000Y-244850638D01*
X163002004Y-244820133D01*
X163009110Y-244796708D01*
X163020654Y-244775111D01*
X163036186Y-244756186D01*
X163055111Y-244740654D01*
X163076708Y-244729110D01*
X163100133Y-244722004D01*
X163130638Y-244719000D01*
X164944362Y-244719000D01*
X164974867Y-244722004D01*
G37*
G36*
X159899867Y-244722004D02*
G01*
X159923292Y-244729110D01*
X159944889Y-244740654D01*
X159963814Y-244756186D01*
X159979346Y-244775111D01*
X159990890Y-244796708D01*
X159997996Y-244820133D01*
X160001000Y-244850638D01*
X160001000Y-245339362D01*
X159997996Y-245369867D01*
X159990890Y-245393292D01*
X159979346Y-245414889D01*
X159963814Y-245433814D01*
X159944889Y-245449346D01*
X159923292Y-245460890D01*
X159899867Y-245467996D01*
X159869362Y-245471000D01*
X158055638Y-245471000D01*
X158025133Y-245467996D01*
X158001708Y-245460890D01*
X157980111Y-245449346D01*
X157961186Y-245433814D01*
X157945654Y-245414889D01*
X157934110Y-245393292D01*
X157927004Y-245369867D01*
X157924000Y-245339362D01*
X157924000Y-244850638D01*
X157927004Y-244820133D01*
X157934110Y-244796708D01*
X157945654Y-244775111D01*
X157961186Y-244756186D01*
X157980111Y-244740654D01*
X158001708Y-244729110D01*
X158025133Y-244722004D01*
X158055638Y-244719000D01*
X159869362Y-244719000D01*
X159899867Y-244722004D01*
G37*
G36*
X174342091Y-243228085D02*
G01*
X174376069Y-243238393D01*
X174407390Y-243255134D01*
X174434839Y-243277661D01*
X174457366Y-243305110D01*
X174474107Y-243336431D01*
X174484415Y-243370409D01*
X174488500Y-243411890D01*
X174488500Y-244088110D01*
X174484415Y-244129591D01*
X174474107Y-244163569D01*
X174457366Y-244194890D01*
X174434839Y-244222339D01*
X174407390Y-244244866D01*
X174376069Y-244261607D01*
X174342091Y-244271915D01*
X174300610Y-244276000D01*
X173699390Y-244276000D01*
X173657909Y-244271915D01*
X173623931Y-244261607D01*
X173592610Y-244244866D01*
X173565161Y-244222339D01*
X173542634Y-244194890D01*
X173525893Y-244163569D01*
X173515585Y-244129591D01*
X173511500Y-244088110D01*
X173511500Y-243411890D01*
X173515585Y-243370409D01*
X173525893Y-243336431D01*
X173542634Y-243305110D01*
X173565161Y-243277661D01*
X173592610Y-243255134D01*
X173623931Y-243238393D01*
X173657909Y-243228085D01*
X173699390Y-243224000D01*
X174300610Y-243224000D01*
X174342091Y-243228085D01*
G37*
G36*
X175917091Y-243228085D02*
G01*
X175951069Y-243238393D01*
X175982390Y-243255134D01*
X176009839Y-243277661D01*
X176032366Y-243305110D01*
X176049107Y-243336431D01*
X176059415Y-243370409D01*
X176063500Y-243411890D01*
X176063500Y-244088110D01*
X176059415Y-244129591D01*
X176049107Y-244163569D01*
X176032366Y-244194890D01*
X176009839Y-244222339D01*
X175982390Y-244244866D01*
X175951069Y-244261607D01*
X175917091Y-244271915D01*
X175875610Y-244276000D01*
X175274390Y-244276000D01*
X175232909Y-244271915D01*
X175198931Y-244261607D01*
X175167610Y-244244866D01*
X175140161Y-244222339D01*
X175117634Y-244194890D01*
X175100893Y-244163569D01*
X175090585Y-244129591D01*
X175086500Y-244088110D01*
X175086500Y-243411890D01*
X175090585Y-243370409D01*
X175100893Y-243336431D01*
X175117634Y-243305110D01*
X175140161Y-243277661D01*
X175167610Y-243255134D01*
X175198931Y-243238393D01*
X175232909Y-243228085D01*
X175274390Y-243224000D01*
X175875610Y-243224000D01*
X175917091Y-243228085D01*
G37*
G36*
X165129591Y-242728085D02*
G01*
X165163569Y-242738393D01*
X165194890Y-242755134D01*
X165222339Y-242777661D01*
X165244866Y-242805110D01*
X165261607Y-242836431D01*
X165271915Y-242870409D01*
X165276000Y-242911890D01*
X165276000Y-243588110D01*
X165271915Y-243629591D01*
X165261607Y-243663569D01*
X165244866Y-243694890D01*
X165222339Y-243722339D01*
X165194890Y-243744866D01*
X165163569Y-243761607D01*
X165129591Y-243771915D01*
X165088110Y-243776000D01*
X164486890Y-243776000D01*
X164445409Y-243771915D01*
X164411431Y-243761607D01*
X164380110Y-243744866D01*
X164352661Y-243722339D01*
X164330134Y-243694890D01*
X164313393Y-243663569D01*
X164303085Y-243629591D01*
X164299000Y-243588110D01*
X164299000Y-242911890D01*
X164303085Y-242870409D01*
X164313393Y-242836431D01*
X164330134Y-242805110D01*
X164352661Y-242777661D01*
X164380110Y-242755134D01*
X164411431Y-242738393D01*
X164445409Y-242728085D01*
X164486890Y-242724000D01*
X165088110Y-242724000D01*
X165129591Y-242728085D01*
G37*
G36*
X163554591Y-242728085D02*
G01*
X163588569Y-242738393D01*
X163619890Y-242755134D01*
X163647339Y-242777661D01*
X163669866Y-242805110D01*
X163686607Y-242836431D01*
X163696915Y-242870409D01*
X163701000Y-242911890D01*
X163701000Y-243588110D01*
X163696915Y-243629591D01*
X163686607Y-243663569D01*
X163669866Y-243694890D01*
X163647339Y-243722339D01*
X163619890Y-243744866D01*
X163588569Y-243761607D01*
X163554591Y-243771915D01*
X163513110Y-243776000D01*
X162911890Y-243776000D01*
X162870409Y-243771915D01*
X162836431Y-243761607D01*
X162805110Y-243744866D01*
X162777661Y-243722339D01*
X162755134Y-243694890D01*
X162738393Y-243663569D01*
X162728085Y-243629591D01*
X162724000Y-243588110D01*
X162724000Y-242911890D01*
X162728085Y-242870409D01*
X162738393Y-242836431D01*
X162755134Y-242805110D01*
X162777661Y-242777661D01*
X162805110Y-242755134D01*
X162836431Y-242738393D01*
X162870409Y-242728085D01*
X162911890Y-242724000D01*
X163513110Y-242724000D01*
X163554591Y-242728085D01*
G37*
G36*
X185629591Y-241978085D02*
G01*
X185663569Y-241988393D01*
X185694890Y-242005134D01*
X185722339Y-242027661D01*
X185744866Y-242055110D01*
X185761607Y-242086431D01*
X185771915Y-242120409D01*
X185776000Y-242161890D01*
X185776000Y-242838110D01*
X185771915Y-242879591D01*
X185761607Y-242913569D01*
X185744866Y-242944890D01*
X185722339Y-242972339D01*
X185694890Y-242994866D01*
X185663569Y-243011607D01*
X185629591Y-243021915D01*
X185588110Y-243026000D01*
X184986890Y-243026000D01*
X184945409Y-243021915D01*
X184911431Y-243011607D01*
X184880110Y-242994866D01*
X184852661Y-242972339D01*
X184830134Y-242944890D01*
X184813393Y-242913569D01*
X184803085Y-242879591D01*
X184799000Y-242838110D01*
X184799000Y-242161890D01*
X184803085Y-242120409D01*
X184813393Y-242086431D01*
X184830134Y-242055110D01*
X184852661Y-242027661D01*
X184880110Y-242005134D01*
X184911431Y-241988393D01*
X184945409Y-241978085D01*
X184986890Y-241974000D01*
X185588110Y-241974000D01*
X185629591Y-241978085D01*
G37*
G36*
X184054591Y-241978085D02*
G01*
X184088569Y-241988393D01*
X184119890Y-242005134D01*
X184147339Y-242027661D01*
X184169866Y-242055110D01*
X184186607Y-242086431D01*
X184196915Y-242120409D01*
X184201000Y-242161890D01*
X184201000Y-242838110D01*
X184196915Y-242879591D01*
X184186607Y-242913569D01*
X184169866Y-242944890D01*
X184147339Y-242972339D01*
X184119890Y-242994866D01*
X184088569Y-243011607D01*
X184054591Y-243021915D01*
X184013110Y-243026000D01*
X183411890Y-243026000D01*
X183370409Y-243021915D01*
X183336431Y-243011607D01*
X183305110Y-242994866D01*
X183277661Y-242972339D01*
X183255134Y-242944890D01*
X183238393Y-242913569D01*
X183228085Y-242879591D01*
X183224000Y-242838110D01*
X183224000Y-242161890D01*
X183228085Y-242120409D01*
X183238393Y-242086431D01*
X183255134Y-242055110D01*
X183277661Y-242027661D01*
X183305110Y-242005134D01*
X183336431Y-241988393D01*
X183370409Y-241978085D01*
X183411890Y-241974000D01*
X184013110Y-241974000D01*
X184054591Y-241978085D01*
G37*
G36*
X173001000Y-241101000D02*
G01*
X171799000Y-241101000D01*
X171799000Y-239899000D01*
X173001000Y-239899000D01*
X173001000Y-241101000D01*
G37*
G36*
X170201000Y-241101000D02*
G01*
X168999000Y-241101000D01*
X168999000Y-239899000D01*
X170201000Y-239899000D01*
X170201000Y-241101000D01*
G37*
G36*
X176084468Y-239903565D02*
G01*
X176123138Y-239915296D01*
X176158777Y-239934346D01*
X176190017Y-239959983D01*
X176215654Y-239991223D01*
X176234704Y-240026862D01*
X176246435Y-240065532D01*
X176251000Y-240111888D01*
X176251000Y-240763112D01*
X176246435Y-240809468D01*
X176234704Y-240848138D01*
X176215654Y-240883777D01*
X176190017Y-240915017D01*
X176158777Y-240940654D01*
X176123138Y-240959704D01*
X176084468Y-240971435D01*
X176038112Y-240976000D01*
X174961888Y-240976000D01*
X174915532Y-240971435D01*
X174876862Y-240959704D01*
X174841223Y-240940654D01*
X174809983Y-240915017D01*
X174784346Y-240883777D01*
X174765296Y-240848138D01*
X174753565Y-240809468D01*
X174749000Y-240763112D01*
X174749000Y-240111888D01*
X174753565Y-240065532D01*
X174765296Y-240026862D01*
X174784346Y-239991223D01*
X174809983Y-239959983D01*
X174841223Y-239934346D01*
X174876862Y-239915296D01*
X174915532Y-239903565D01*
X174961888Y-239899000D01*
X176038112Y-239899000D01*
X176084468Y-239903565D01*
G37*
G36*
X188879591Y-239803085D02*
G01*
X188913569Y-239813393D01*
X188944890Y-239830134D01*
X188972339Y-239852661D01*
X188994866Y-239880110D01*
X189011607Y-239911431D01*
X189021915Y-239945409D01*
X189026000Y-239986890D01*
X189026000Y-240588110D01*
X189021915Y-240629591D01*
X189011607Y-240663569D01*
X188994866Y-240694890D01*
X188972339Y-240722339D01*
X188944890Y-240744866D01*
X188913569Y-240761607D01*
X188879591Y-240771915D01*
X188838110Y-240776000D01*
X188161890Y-240776000D01*
X188120409Y-240771915D01*
X188086431Y-240761607D01*
X188055110Y-240744866D01*
X188027661Y-240722339D01*
X188005134Y-240694890D01*
X187988393Y-240663569D01*
X187978085Y-240629591D01*
X187974000Y-240588110D01*
X187974000Y-239986890D01*
X187978085Y-239945409D01*
X187988393Y-239911431D01*
X188005134Y-239880110D01*
X188027661Y-239852661D01*
X188055110Y-239830134D01*
X188086431Y-239813393D01*
X188120409Y-239803085D01*
X188161890Y-239799000D01*
X188838110Y-239799000D01*
X188879591Y-239803085D01*
G37*
G36*
X183539867Y-238502004D02*
G01*
X183563292Y-238509110D01*
X183584889Y-238520654D01*
X183603814Y-238536186D01*
X183619346Y-238555111D01*
X183630890Y-238576708D01*
X183637996Y-238600133D01*
X183641000Y-238630638D01*
X183641000Y-240444362D01*
X183637996Y-240474867D01*
X183630890Y-240498292D01*
X183619346Y-240519889D01*
X183603814Y-240538814D01*
X183584889Y-240554346D01*
X183563292Y-240565890D01*
X183539867Y-240572996D01*
X183509362Y-240576000D01*
X183020638Y-240576000D01*
X182990133Y-240572996D01*
X182966708Y-240565890D01*
X182945111Y-240554346D01*
X182926186Y-240538814D01*
X182910654Y-240519889D01*
X182899110Y-240498292D01*
X182892004Y-240474867D01*
X182889000Y-240444362D01*
X182889000Y-238630638D01*
X182892004Y-238600133D01*
X182899110Y-238576708D01*
X182910654Y-238555111D01*
X182926186Y-238536186D01*
X182945111Y-238520654D01*
X182966708Y-238509110D01*
X182990133Y-238502004D01*
X183020638Y-238499000D01*
X183509362Y-238499000D01*
X183539867Y-238502004D01*
G37*
G36*
X182269867Y-238502004D02*
G01*
X182293292Y-238509110D01*
X182314889Y-238520654D01*
X182333814Y-238536186D01*
X182349346Y-238555111D01*
X182360890Y-238576708D01*
X182367996Y-238600133D01*
X182371000Y-238630638D01*
X182371000Y-240444362D01*
X182367996Y-240474867D01*
X182360890Y-240498292D01*
X182349346Y-240519889D01*
X182333814Y-240538814D01*
X182314889Y-240554346D01*
X182293292Y-240565890D01*
X182269867Y-240572996D01*
X182239362Y-240576000D01*
X181750638Y-240576000D01*
X181720133Y-240572996D01*
X181696708Y-240565890D01*
X181675111Y-240554346D01*
X181656186Y-240538814D01*
X181640654Y-240519889D01*
X181629110Y-240498292D01*
X181622004Y-240474867D01*
X181619000Y-240444362D01*
X181619000Y-238630638D01*
X181622004Y-238600133D01*
X181629110Y-238576708D01*
X181640654Y-238555111D01*
X181656186Y-238536186D01*
X181675111Y-238520654D01*
X181696708Y-238509110D01*
X181720133Y-238502004D01*
X181750638Y-238499000D01*
X182239362Y-238499000D01*
X182269867Y-238502004D01*
G37*
G36*
X184809867Y-238502004D02*
G01*
X184833292Y-238509110D01*
X184854889Y-238520654D01*
X184873814Y-238536186D01*
X184889346Y-238555111D01*
X184900890Y-238576708D01*
X184907996Y-238600133D01*
X184911000Y-238630638D01*
X184911000Y-240444362D01*
X184907996Y-240474867D01*
X184900890Y-240498292D01*
X184889346Y-240519889D01*
X184873814Y-240538814D01*
X184854889Y-240554346D01*
X184833292Y-240565890D01*
X184809867Y-240572996D01*
X184779362Y-240576000D01*
X184290638Y-240576000D01*
X184260133Y-240572996D01*
X184236708Y-240565890D01*
X184215111Y-240554346D01*
X184196186Y-240538814D01*
X184180654Y-240519889D01*
X184169110Y-240498292D01*
X184162004Y-240474867D01*
X184159000Y-240444362D01*
X184159000Y-238630638D01*
X184162004Y-238600133D01*
X184169110Y-238576708D01*
X184180654Y-238555111D01*
X184196186Y-238536186D01*
X184215111Y-238520654D01*
X184236708Y-238509110D01*
X184260133Y-238502004D01*
X184290638Y-238499000D01*
X184779362Y-238499000D01*
X184809867Y-238502004D01*
G37*
G36*
X186079867Y-238502004D02*
G01*
X186103292Y-238509110D01*
X186124889Y-238520654D01*
X186143814Y-238536186D01*
X186159346Y-238555111D01*
X186170890Y-238576708D01*
X186177996Y-238600133D01*
X186181000Y-238630638D01*
X186181000Y-240444362D01*
X186177996Y-240474867D01*
X186170890Y-240498292D01*
X186159346Y-240519889D01*
X186143814Y-240538814D01*
X186124889Y-240554346D01*
X186103292Y-240565890D01*
X186079867Y-240572996D01*
X186049362Y-240576000D01*
X185560638Y-240576000D01*
X185530133Y-240572996D01*
X185506708Y-240565890D01*
X185485111Y-240554346D01*
X185466186Y-240538814D01*
X185450654Y-240519889D01*
X185439110Y-240498292D01*
X185432004Y-240474867D01*
X185429000Y-240444362D01*
X185429000Y-238630638D01*
X185432004Y-238600133D01*
X185439110Y-238576708D01*
X185450654Y-238555111D01*
X185466186Y-238536186D01*
X185485111Y-238520654D01*
X185506708Y-238509110D01*
X185530133Y-238502004D01*
X185560638Y-238499000D01*
X186049362Y-238499000D01*
X186079867Y-238502004D01*
G37*
G36*
X188879591Y-238228085D02*
G01*
X188913569Y-238238393D01*
X188944890Y-238255134D01*
X188972339Y-238277661D01*
X188994866Y-238305110D01*
X189011607Y-238336431D01*
X189021915Y-238370409D01*
X189026000Y-238411890D01*
X189026000Y-239013110D01*
X189021915Y-239054591D01*
X189011607Y-239088569D01*
X188994866Y-239119890D01*
X188972339Y-239147339D01*
X188944890Y-239169866D01*
X188913569Y-239186607D01*
X188879591Y-239196915D01*
X188838110Y-239201000D01*
X188161890Y-239201000D01*
X188120409Y-239196915D01*
X188086431Y-239186607D01*
X188055110Y-239169866D01*
X188027661Y-239147339D01*
X188005134Y-239119890D01*
X187988393Y-239088569D01*
X187978085Y-239054591D01*
X187974000Y-239013110D01*
X187974000Y-238411890D01*
X187978085Y-238370409D01*
X187988393Y-238336431D01*
X188005134Y-238305110D01*
X188027661Y-238277661D01*
X188055110Y-238255134D01*
X188086431Y-238238393D01*
X188120409Y-238228085D01*
X188161890Y-238224000D01*
X188838110Y-238224000D01*
X188879591Y-238228085D01*
G37*
G36*
X176084468Y-238028565D02*
G01*
X176123138Y-238040296D01*
X176158777Y-238059346D01*
X176190017Y-238084983D01*
X176215654Y-238116223D01*
X176234704Y-238151862D01*
X176246435Y-238190532D01*
X176251000Y-238236888D01*
X176251000Y-238888112D01*
X176246435Y-238934468D01*
X176234704Y-238973138D01*
X176215654Y-239008777D01*
X176190017Y-239040017D01*
X176158777Y-239065654D01*
X176123138Y-239084704D01*
X176084468Y-239096435D01*
X176038112Y-239101000D01*
X174961888Y-239101000D01*
X174915532Y-239096435D01*
X174876862Y-239084704D01*
X174841223Y-239065654D01*
X174809983Y-239040017D01*
X174784346Y-239008777D01*
X174765296Y-238973138D01*
X174753565Y-238934468D01*
X174749000Y-238888112D01*
X174749000Y-238236888D01*
X174753565Y-238190532D01*
X174765296Y-238151862D01*
X174784346Y-238116223D01*
X174809983Y-238084983D01*
X174841223Y-238059346D01*
X174876862Y-238040296D01*
X174915532Y-238028565D01*
X174961888Y-238024000D01*
X176038112Y-238024000D01*
X176084468Y-238028565D01*
G37*
G36*
X170751000Y-238526000D02*
G01*
X169849000Y-238526000D01*
X169849000Y-237874000D01*
X170751000Y-237874000D01*
X170751000Y-238526000D01*
G37*
G36*
X173151000Y-238526000D02*
G01*
X172249000Y-238526000D01*
X172249000Y-237874000D01*
X173151000Y-237874000D01*
X173151000Y-238526000D01*
G37*
G36*
X193851000Y-238501000D02*
G01*
X192149000Y-238501000D01*
X192149000Y-232499000D01*
X193851000Y-232499000D01*
X193851000Y-238501000D01*
G37*
G36*
X198551000Y-238501000D02*
G01*
X196849000Y-238501000D01*
X196849000Y-232499000D01*
X198551000Y-232499000D01*
X198551000Y-238501000D01*
G37*
G36*
X168584468Y-237403565D02*
G01*
X168623138Y-237415296D01*
X168658777Y-237434346D01*
X168690017Y-237459983D01*
X168715654Y-237491223D01*
X168734704Y-237526862D01*
X168746435Y-237565532D01*
X168751000Y-237611888D01*
X168751000Y-238263112D01*
X168746435Y-238309468D01*
X168734704Y-238348138D01*
X168715654Y-238383777D01*
X168690017Y-238415017D01*
X168658777Y-238440654D01*
X168623138Y-238459704D01*
X168584468Y-238471435D01*
X168538112Y-238476000D01*
X167461888Y-238476000D01*
X167415532Y-238471435D01*
X167376862Y-238459704D01*
X167341223Y-238440654D01*
X167309983Y-238415017D01*
X167284346Y-238383777D01*
X167265296Y-238348138D01*
X167253565Y-238309468D01*
X167249000Y-238263112D01*
X167249000Y-237611888D01*
X167253565Y-237565532D01*
X167265296Y-237526862D01*
X167284346Y-237491223D01*
X167309983Y-237459983D01*
X167341223Y-237434346D01*
X167376862Y-237415296D01*
X167415532Y-237403565D01*
X167461888Y-237399000D01*
X168538112Y-237399000D01*
X168584468Y-237403565D01*
G37*
G36*
X173151000Y-237576000D02*
G01*
X172249000Y-237576000D01*
X172249000Y-236924000D01*
X173151000Y-236924000D01*
X173151000Y-237576000D01*
G37*
G36*
X119203088Y-231548990D02*
G01*
X119398380Y-231608231D01*
X119559883Y-231694557D01*
X119578355Y-231704430D01*
X119736107Y-231833893D01*
X119797192Y-231908326D01*
X119865571Y-231991646D01*
X119961769Y-232171619D01*
X120021010Y-232366911D01*
X120036000Y-232519109D01*
X120036000Y-236580891D01*
X120021010Y-236733089D01*
X119961769Y-236928381D01*
X119865571Y-237108354D01*
X119736107Y-237266107D01*
X119578354Y-237395571D01*
X119398381Y-237491769D01*
X119203089Y-237551010D01*
X119000000Y-237571012D01*
X118796912Y-237551010D01*
X118601620Y-237491769D01*
X118421647Y-237395571D01*
X118263894Y-237266107D01*
X118134430Y-237108354D01*
X118038232Y-236928381D01*
X117978991Y-236733089D01*
X117964001Y-236580891D01*
X117964000Y-232519110D01*
X117978990Y-232366912D01*
X118038231Y-232171620D01*
X118134429Y-231991647D01*
X118134430Y-231991645D01*
X118263893Y-231833893D01*
X118421645Y-231704430D01*
X118421644Y-231704430D01*
X118421646Y-231704429D01*
X118601619Y-231608231D01*
X118796911Y-231548990D01*
X119000000Y-231528988D01*
X119203088Y-231548990D01*
G37*
G36*
X173151000Y-236626000D02*
G01*
X172249000Y-236626000D01*
X172249000Y-235974000D01*
X173151000Y-235974000D01*
X173151000Y-236626000D01*
G37*
G36*
X170751000Y-236626000D02*
G01*
X169849000Y-236626000D01*
X169849000Y-235974000D01*
X170751000Y-235974000D01*
X170751000Y-236626000D01*
G37*
G36*
X168584468Y-235528565D02*
G01*
X168623138Y-235540296D01*
X168658777Y-235559346D01*
X168690017Y-235584983D01*
X168715654Y-235616223D01*
X168734704Y-235651862D01*
X168746435Y-235690532D01*
X168751000Y-235736888D01*
X168751000Y-236388112D01*
X168746435Y-236434468D01*
X168734704Y-236473138D01*
X168715654Y-236508777D01*
X168690017Y-236540017D01*
X168658777Y-236565654D01*
X168623138Y-236584704D01*
X168584468Y-236596435D01*
X168538112Y-236601000D01*
X167461888Y-236601000D01*
X167415532Y-236596435D01*
X167376862Y-236584704D01*
X167341223Y-236565654D01*
X167309983Y-236540017D01*
X167284346Y-236508777D01*
X167265296Y-236473138D01*
X167253565Y-236434468D01*
X167249000Y-236388112D01*
X167249000Y-235736888D01*
X167253565Y-235690532D01*
X167265296Y-235651862D01*
X167284346Y-235616223D01*
X167309983Y-235584983D01*
X167341223Y-235559346D01*
X167376862Y-235540296D01*
X167415532Y-235528565D01*
X167461888Y-235524000D01*
X168538112Y-235524000D01*
X168584468Y-235528565D01*
G37*
G36*
X186079867Y-233427004D02*
G01*
X186103292Y-233434110D01*
X186124889Y-233445654D01*
X186143814Y-233461186D01*
X186159346Y-233480111D01*
X186170890Y-233501708D01*
X186177996Y-233525133D01*
X186181000Y-233555638D01*
X186181000Y-235369362D01*
X186177996Y-235399867D01*
X186170890Y-235423292D01*
X186159346Y-235444889D01*
X186143814Y-235463814D01*
X186124889Y-235479346D01*
X186103292Y-235490890D01*
X186079867Y-235497996D01*
X186049362Y-235501000D01*
X185560638Y-235501000D01*
X185530133Y-235497996D01*
X185506708Y-235490890D01*
X185485111Y-235479346D01*
X185466186Y-235463814D01*
X185450654Y-235444889D01*
X185439110Y-235423292D01*
X185432004Y-235399867D01*
X185429000Y-235369362D01*
X185429000Y-233555638D01*
X185432004Y-233525133D01*
X185439110Y-233501708D01*
X185450654Y-233480111D01*
X185466186Y-233461186D01*
X185485111Y-233445654D01*
X185506708Y-233434110D01*
X185530133Y-233427004D01*
X185560638Y-233424000D01*
X186049362Y-233424000D01*
X186079867Y-233427004D01*
G37*
G36*
X182269867Y-233427004D02*
G01*
X182293292Y-233434110D01*
X182314889Y-233445654D01*
X182333814Y-233461186D01*
X182349346Y-233480111D01*
X182360890Y-233501708D01*
X182367996Y-233525133D01*
X182371000Y-233555638D01*
X182371000Y-235369362D01*
X182367996Y-235399867D01*
X182360890Y-235423292D01*
X182349346Y-235444889D01*
X182333814Y-235463814D01*
X182314889Y-235479346D01*
X182293292Y-235490890D01*
X182269867Y-235497996D01*
X182239362Y-235501000D01*
X181750638Y-235501000D01*
X181720133Y-235497996D01*
X181696708Y-235490890D01*
X181675111Y-235479346D01*
X181656186Y-235463814D01*
X181640654Y-235444889D01*
X181629110Y-235423292D01*
X181622004Y-235399867D01*
X181619000Y-235369362D01*
X181619000Y-233555638D01*
X181622004Y-233525133D01*
X181629110Y-233501708D01*
X181640654Y-233480111D01*
X181656186Y-233461186D01*
X181675111Y-233445654D01*
X181696708Y-233434110D01*
X181720133Y-233427004D01*
X181750638Y-233424000D01*
X182239362Y-233424000D01*
X182269867Y-233427004D01*
G37*
G36*
X183539867Y-233427004D02*
G01*
X183563292Y-233434110D01*
X183584889Y-233445654D01*
X183603814Y-233461186D01*
X183619346Y-233480111D01*
X183630890Y-233501708D01*
X183637996Y-233525133D01*
X183641000Y-233555638D01*
X183641000Y-235369362D01*
X183637996Y-235399867D01*
X183630890Y-235423292D01*
X183619346Y-235444889D01*
X183603814Y-235463814D01*
X183584889Y-235479346D01*
X183563292Y-235490890D01*
X183539867Y-235497996D01*
X183509362Y-235501000D01*
X183020638Y-235501000D01*
X182990133Y-235497996D01*
X182966708Y-235490890D01*
X182945111Y-235479346D01*
X182926186Y-235463814D01*
X182910654Y-235444889D01*
X182899110Y-235423292D01*
X182892004Y-235399867D01*
X182889000Y-235369362D01*
X182889000Y-233555638D01*
X182892004Y-233525133D01*
X182899110Y-233501708D01*
X182910654Y-233480111D01*
X182926186Y-233461186D01*
X182945111Y-233445654D01*
X182966708Y-233434110D01*
X182990133Y-233427004D01*
X183020638Y-233424000D01*
X183509362Y-233424000D01*
X183539867Y-233427004D01*
G37*
G36*
X184809867Y-233427004D02*
G01*
X184833292Y-233434110D01*
X184854889Y-233445654D01*
X184873814Y-233461186D01*
X184889346Y-233480111D01*
X184900890Y-233501708D01*
X184907996Y-233525133D01*
X184911000Y-233555638D01*
X184911000Y-235369362D01*
X184907996Y-235399867D01*
X184900890Y-235423292D01*
X184889346Y-235444889D01*
X184873814Y-235463814D01*
X184854889Y-235479346D01*
X184833292Y-235490890D01*
X184809867Y-235497996D01*
X184779362Y-235501000D01*
X184290638Y-235501000D01*
X184260133Y-235497996D01*
X184236708Y-235490890D01*
X184215111Y-235479346D01*
X184196186Y-235463814D01*
X184180654Y-235444889D01*
X184169110Y-235423292D01*
X184162004Y-235399867D01*
X184159000Y-235369362D01*
X184159000Y-233555638D01*
X184162004Y-233525133D01*
X184169110Y-233501708D01*
X184180654Y-233480111D01*
X184196186Y-233461186D01*
X184215111Y-233445654D01*
X184236708Y-233434110D01*
X184260133Y-233427004D01*
X184290638Y-233424000D01*
X184779362Y-233424000D01*
X184809867Y-233427004D01*
G37*
G36*
X171001000Y-234501000D02*
G01*
X169299000Y-234501000D01*
X169299000Y-228499000D01*
X171001000Y-228499000D01*
X171001000Y-234501000D01*
G37*
G36*
X175701000Y-234501000D02*
G01*
X173999000Y-234501000D01*
X173999000Y-228499000D01*
X175701000Y-228499000D01*
X175701000Y-234501000D01*
G37*
G36*
X186579591Y-231303085D02*
G01*
X186613569Y-231313393D01*
X186644890Y-231330134D01*
X186672339Y-231352661D01*
X186694866Y-231380110D01*
X186711607Y-231411431D01*
X186721915Y-231445409D01*
X186726000Y-231486890D01*
X186726000Y-232088110D01*
X186721915Y-232129591D01*
X186711607Y-232163569D01*
X186694866Y-232194890D01*
X186672339Y-232222339D01*
X186644890Y-232244866D01*
X186613569Y-232261607D01*
X186579591Y-232271915D01*
X186538110Y-232276000D01*
X185861890Y-232276000D01*
X185820409Y-232271915D01*
X185786431Y-232261607D01*
X185755110Y-232244866D01*
X185727661Y-232222339D01*
X185705134Y-232194890D01*
X185688393Y-232163569D01*
X185678085Y-232129591D01*
X185674000Y-232088110D01*
X185674000Y-231486890D01*
X185678085Y-231445409D01*
X185688393Y-231411431D01*
X185705134Y-231380110D01*
X185727661Y-231352661D01*
X185755110Y-231330134D01*
X185786431Y-231313393D01*
X185820409Y-231303085D01*
X185861890Y-231299000D01*
X186538110Y-231299000D01*
X186579591Y-231303085D01*
G37*
G36*
X184579591Y-231303085D02*
G01*
X184613569Y-231313393D01*
X184644890Y-231330134D01*
X184672339Y-231352661D01*
X184694866Y-231380110D01*
X184711607Y-231411431D01*
X184721915Y-231445409D01*
X184726000Y-231486890D01*
X184726000Y-232088110D01*
X184721915Y-232129591D01*
X184711607Y-232163569D01*
X184694866Y-232194890D01*
X184672339Y-232222339D01*
X184644890Y-232244866D01*
X184613569Y-232261607D01*
X184579591Y-232271915D01*
X184538110Y-232276000D01*
X183861890Y-232276000D01*
X183820409Y-232271915D01*
X183786431Y-232261607D01*
X183755110Y-232244866D01*
X183727661Y-232222339D01*
X183705134Y-232194890D01*
X183688393Y-232163569D01*
X183678085Y-232129591D01*
X183674000Y-232088110D01*
X183674000Y-231486890D01*
X183678085Y-231445409D01*
X183688393Y-231411431D01*
X183705134Y-231380110D01*
X183727661Y-231352661D01*
X183755110Y-231330134D01*
X183786431Y-231313393D01*
X183820409Y-231303085D01*
X183861890Y-231299000D01*
X184538110Y-231299000D01*
X184579591Y-231303085D01*
G37*
G36*
X182579591Y-231303085D02*
G01*
X182613569Y-231313393D01*
X182644890Y-231330134D01*
X182672339Y-231352661D01*
X182694866Y-231380110D01*
X182711607Y-231411431D01*
X182721915Y-231445409D01*
X182726000Y-231486890D01*
X182726000Y-232088110D01*
X182721915Y-232129591D01*
X182711607Y-232163569D01*
X182694866Y-232194890D01*
X182672339Y-232222339D01*
X182644890Y-232244866D01*
X182613569Y-232261607D01*
X182579591Y-232271915D01*
X182538110Y-232276000D01*
X181861890Y-232276000D01*
X181820409Y-232271915D01*
X181786431Y-232261607D01*
X181755110Y-232244866D01*
X181727661Y-232222339D01*
X181705134Y-232194890D01*
X181688393Y-232163569D01*
X181678085Y-232129591D01*
X181674000Y-232088110D01*
X181674000Y-231486890D01*
X181678085Y-231445409D01*
X181688393Y-231411431D01*
X181705134Y-231380110D01*
X181727661Y-231352661D01*
X181755110Y-231330134D01*
X181786431Y-231313393D01*
X181820409Y-231303085D01*
X181861890Y-231299000D01*
X182538110Y-231299000D01*
X182579591Y-231303085D01*
G37*
G36*
X101051981Y-230147468D02*
G01*
X101234151Y-230222926D01*
X101398100Y-230332473D01*
X101537527Y-230471900D01*
X101647074Y-230635849D01*
X101722532Y-230818019D01*
X101730285Y-230856995D01*
X101761000Y-231011409D01*
X101761000Y-231208591D01*
X101750155Y-231263112D01*
X101722532Y-231401981D01*
X101647074Y-231584151D01*
X101537527Y-231748100D01*
X101398100Y-231887527D01*
X101234151Y-231997074D01*
X101051981Y-232072532D01*
X101017448Y-232079401D01*
X100858591Y-232111000D01*
X100661409Y-232111000D01*
X100502552Y-232079401D01*
X100468019Y-232072532D01*
X100285849Y-231997074D01*
X100121900Y-231887527D01*
X99982473Y-231748100D01*
X99872926Y-231584151D01*
X99797468Y-231401981D01*
X99769845Y-231263112D01*
X99759000Y-231208591D01*
X99759000Y-231011409D01*
X99789715Y-230856995D01*
X99797468Y-230818019D01*
X99872926Y-230635849D01*
X99982473Y-230471900D01*
X100121900Y-230332473D01*
X100285849Y-230222926D01*
X100468019Y-230147468D01*
X100661409Y-230109000D01*
X100858591Y-230109000D01*
X101051981Y-230147468D01*
G37*
G36*
X191084468Y-230841065D02*
G01*
X191123138Y-230852796D01*
X191158777Y-230871846D01*
X191190017Y-230897483D01*
X191215654Y-230928723D01*
X191234704Y-230964362D01*
X191246435Y-231003032D01*
X191251000Y-231049388D01*
X191251000Y-231700612D01*
X191246435Y-231746968D01*
X191234704Y-231785638D01*
X191215654Y-231821277D01*
X191190017Y-231852517D01*
X191158777Y-231878154D01*
X191123138Y-231897204D01*
X191084468Y-231908935D01*
X191038112Y-231913500D01*
X189961888Y-231913500D01*
X189915532Y-231908935D01*
X189876862Y-231897204D01*
X189841223Y-231878154D01*
X189809983Y-231852517D01*
X189784346Y-231821277D01*
X189765296Y-231785638D01*
X189753565Y-231746968D01*
X189749000Y-231700612D01*
X189749000Y-231049388D01*
X189753565Y-231003032D01*
X189765296Y-230964362D01*
X189784346Y-230928723D01*
X189809983Y-230897483D01*
X189841223Y-230871846D01*
X189876862Y-230852796D01*
X189915532Y-230841065D01*
X189961888Y-230836500D01*
X191038112Y-230836500D01*
X191084468Y-230841065D01*
G37*
G36*
X198584468Y-230403565D02*
G01*
X198623138Y-230415296D01*
X198658777Y-230434346D01*
X198690017Y-230459983D01*
X198715654Y-230491223D01*
X198734704Y-230526862D01*
X198746435Y-230565532D01*
X198751000Y-230611888D01*
X198751000Y-231263112D01*
X198746435Y-231309468D01*
X198734704Y-231348138D01*
X198715654Y-231383777D01*
X198690017Y-231415017D01*
X198658777Y-231440654D01*
X198623138Y-231459704D01*
X198584468Y-231471435D01*
X198538112Y-231476000D01*
X197461888Y-231476000D01*
X197415532Y-231471435D01*
X197376862Y-231459704D01*
X197341223Y-231440654D01*
X197309983Y-231415017D01*
X197284346Y-231383777D01*
X197265296Y-231348138D01*
X197253565Y-231309468D01*
X197249000Y-231263112D01*
X197249000Y-230611888D01*
X197253565Y-230565532D01*
X197265296Y-230526862D01*
X197284346Y-230491223D01*
X197309983Y-230459983D01*
X197341223Y-230434346D01*
X197376862Y-230415296D01*
X197415532Y-230403565D01*
X197461888Y-230399000D01*
X198538112Y-230399000D01*
X198584468Y-230403565D01*
G37*
G36*
X196001000Y-231101000D02*
G01*
X194799000Y-231101000D01*
X194799000Y-229899000D01*
X196001000Y-229899000D01*
X196001000Y-231101000D01*
G37*
G36*
X193201000Y-231101000D02*
G01*
X191999000Y-231101000D01*
X191999000Y-229899000D01*
X193201000Y-229899000D01*
X193201000Y-231101000D01*
G37*
G36*
X184579591Y-229728085D02*
G01*
X184613569Y-229738393D01*
X184644890Y-229755134D01*
X184672339Y-229777661D01*
X184694866Y-229805110D01*
X184711607Y-229836431D01*
X184721915Y-229870409D01*
X184726000Y-229911890D01*
X184726000Y-230513110D01*
X184721915Y-230554591D01*
X184711607Y-230588569D01*
X184694866Y-230619890D01*
X184672339Y-230647339D01*
X184644890Y-230669866D01*
X184613569Y-230686607D01*
X184579591Y-230696915D01*
X184538110Y-230701000D01*
X183861890Y-230701000D01*
X183820409Y-230696915D01*
X183786431Y-230686607D01*
X183755110Y-230669866D01*
X183727661Y-230647339D01*
X183705134Y-230619890D01*
X183688393Y-230588569D01*
X183678085Y-230554591D01*
X183674000Y-230513110D01*
X183674000Y-229911890D01*
X183678085Y-229870409D01*
X183688393Y-229836431D01*
X183705134Y-229805110D01*
X183727661Y-229777661D01*
X183755110Y-229755134D01*
X183786431Y-229738393D01*
X183820409Y-229728085D01*
X183861890Y-229724000D01*
X184538110Y-229724000D01*
X184579591Y-229728085D01*
G37*
G36*
X186579591Y-229728085D02*
G01*
X186613569Y-229738393D01*
X186644890Y-229755134D01*
X186672339Y-229777661D01*
X186694866Y-229805110D01*
X186711607Y-229836431D01*
X186721915Y-229870409D01*
X186726000Y-229911890D01*
X186726000Y-230513110D01*
X186721915Y-230554591D01*
X186711607Y-230588569D01*
X186694866Y-230619890D01*
X186672339Y-230647339D01*
X186644890Y-230669866D01*
X186613569Y-230686607D01*
X186579591Y-230696915D01*
X186538110Y-230701000D01*
X185861890Y-230701000D01*
X185820409Y-230696915D01*
X185786431Y-230686607D01*
X185755110Y-230669866D01*
X185727661Y-230647339D01*
X185705134Y-230619890D01*
X185688393Y-230588569D01*
X185678085Y-230554591D01*
X185674000Y-230513110D01*
X185674000Y-229911890D01*
X185678085Y-229870409D01*
X185688393Y-229836431D01*
X185705134Y-229805110D01*
X185727661Y-229777661D01*
X185755110Y-229755134D01*
X185786431Y-229738393D01*
X185820409Y-229728085D01*
X185861890Y-229724000D01*
X186538110Y-229724000D01*
X186579591Y-229728085D01*
G37*
G36*
X182579591Y-229728085D02*
G01*
X182613569Y-229738393D01*
X182644890Y-229755134D01*
X182672339Y-229777661D01*
X182694866Y-229805110D01*
X182711607Y-229836431D01*
X182721915Y-229870409D01*
X182726000Y-229911890D01*
X182726000Y-230513110D01*
X182721915Y-230554591D01*
X182711607Y-230588569D01*
X182694866Y-230619890D01*
X182672339Y-230647339D01*
X182644890Y-230669866D01*
X182613569Y-230686607D01*
X182579591Y-230696915D01*
X182538110Y-230701000D01*
X181861890Y-230701000D01*
X181820409Y-230696915D01*
X181786431Y-230686607D01*
X181755110Y-230669866D01*
X181727661Y-230647339D01*
X181705134Y-230619890D01*
X181688393Y-230588569D01*
X181678085Y-230554591D01*
X181674000Y-230513110D01*
X181674000Y-229911890D01*
X181678085Y-229870409D01*
X181688393Y-229836431D01*
X181705134Y-229805110D01*
X181727661Y-229777661D01*
X181755110Y-229755134D01*
X181786431Y-229738393D01*
X181820409Y-229728085D01*
X181861890Y-229724000D01*
X182538110Y-229724000D01*
X182579591Y-229728085D01*
G37*
G36*
X191084468Y-228966065D02*
G01*
X191123138Y-228977796D01*
X191158777Y-228996846D01*
X191190017Y-229022483D01*
X191215654Y-229053723D01*
X191234704Y-229089362D01*
X191246435Y-229128032D01*
X191251000Y-229174388D01*
X191251000Y-229825612D01*
X191246435Y-229871968D01*
X191234704Y-229910638D01*
X191215654Y-229946277D01*
X191190017Y-229977517D01*
X191158777Y-230003154D01*
X191123138Y-230022204D01*
X191084468Y-230033935D01*
X191038112Y-230038500D01*
X189961888Y-230038500D01*
X189915532Y-230033935D01*
X189876862Y-230022204D01*
X189841223Y-230003154D01*
X189809983Y-229977517D01*
X189784346Y-229946277D01*
X189765296Y-229910638D01*
X189753565Y-229871968D01*
X189749000Y-229825612D01*
X189749000Y-229174388D01*
X189753565Y-229128032D01*
X189765296Y-229089362D01*
X189784346Y-229053723D01*
X189809983Y-229022483D01*
X189841223Y-228996846D01*
X189876862Y-228977796D01*
X189915532Y-228966065D01*
X189961888Y-228961500D01*
X191038112Y-228961500D01*
X191084468Y-228966065D01*
G37*
G36*
X198584468Y-228528565D02*
G01*
X198623138Y-228540296D01*
X198658777Y-228559346D01*
X198690017Y-228584983D01*
X198715654Y-228616223D01*
X198734704Y-228651862D01*
X198746435Y-228690532D01*
X198751000Y-228736888D01*
X198751000Y-229388112D01*
X198746435Y-229434468D01*
X198734704Y-229473138D01*
X198715654Y-229508777D01*
X198690017Y-229540017D01*
X198658777Y-229565654D01*
X198623138Y-229584704D01*
X198584468Y-229596435D01*
X198538112Y-229601000D01*
X197461888Y-229601000D01*
X197415532Y-229596435D01*
X197376862Y-229584704D01*
X197341223Y-229565654D01*
X197309983Y-229540017D01*
X197284346Y-229508777D01*
X197265296Y-229473138D01*
X197253565Y-229434468D01*
X197249000Y-229388112D01*
X197249000Y-228736888D01*
X197253565Y-228690532D01*
X197265296Y-228651862D01*
X197284346Y-228616223D01*
X197309983Y-228584983D01*
X197341223Y-228559346D01*
X197376862Y-228540296D01*
X197415532Y-228528565D01*
X197461888Y-228524000D01*
X198538112Y-228524000D01*
X198584468Y-228528565D01*
G37*
G36*
X186579591Y-227803085D02*
G01*
X186613569Y-227813393D01*
X186644890Y-227830134D01*
X186672339Y-227852661D01*
X186694866Y-227880110D01*
X186711607Y-227911431D01*
X186721915Y-227945409D01*
X186726000Y-227986890D01*
X186726000Y-228588110D01*
X186721915Y-228629591D01*
X186711607Y-228663569D01*
X186694866Y-228694890D01*
X186672339Y-228722339D01*
X186644890Y-228744866D01*
X186613569Y-228761607D01*
X186579591Y-228771915D01*
X186538110Y-228776000D01*
X185861890Y-228776000D01*
X185820409Y-228771915D01*
X185786431Y-228761607D01*
X185755110Y-228744866D01*
X185727661Y-228722339D01*
X185705134Y-228694890D01*
X185688393Y-228663569D01*
X185678085Y-228629591D01*
X185674000Y-228588110D01*
X185674000Y-227986890D01*
X185678085Y-227945409D01*
X185688393Y-227911431D01*
X185705134Y-227880110D01*
X185727661Y-227852661D01*
X185755110Y-227830134D01*
X185786431Y-227813393D01*
X185820409Y-227803085D01*
X185861890Y-227799000D01*
X186538110Y-227799000D01*
X186579591Y-227803085D01*
G37*
G36*
X103801000Y-228701000D02*
G01*
X101999000Y-228701000D01*
X101999000Y-226899000D01*
X103801000Y-226899000D01*
X103801000Y-228701000D01*
G37*
G36*
X184076000Y-228551000D02*
G01*
X181724000Y-228551000D01*
X181724000Y-226849000D01*
X184076000Y-226849000D01*
X184076000Y-228551000D01*
G37*
G36*
X195651000Y-228276000D02*
G01*
X194749000Y-228276000D01*
X194749000Y-227624000D01*
X195651000Y-227624000D01*
X195651000Y-228276000D01*
G37*
G36*
X193251000Y-228276000D02*
G01*
X192349000Y-228276000D01*
X192349000Y-227624000D01*
X193251000Y-227624000D01*
X193251000Y-228276000D01*
G37*
G36*
X222351000Y-227821000D02*
G01*
X221049000Y-227821000D01*
X221049000Y-224619000D01*
X222351000Y-224619000D01*
X222351000Y-227821000D01*
G37*
G36*
X138951000Y-227821000D02*
G01*
X137649000Y-227821000D01*
X137649000Y-224619000D01*
X138951000Y-224619000D01*
X138951000Y-227821000D01*
G37*
G36*
X142351000Y-227821000D02*
G01*
X141049000Y-227821000D01*
X141049000Y-224619000D01*
X142351000Y-224619000D01*
X142351000Y-227821000D01*
G37*
G36*
X140651000Y-227821000D02*
G01*
X139349000Y-227821000D01*
X139349000Y-224619000D01*
X140651000Y-224619000D01*
X140651000Y-227821000D01*
G37*
G36*
X218951000Y-227821000D02*
G01*
X217649000Y-227821000D01*
X217649000Y-224619000D01*
X218951000Y-224619000D01*
X218951000Y-227821000D01*
G37*
G36*
X220651000Y-227821000D02*
G01*
X219349000Y-227821000D01*
X219349000Y-224619000D01*
X220651000Y-224619000D01*
X220651000Y-227821000D01*
G37*
G36*
X176834468Y-226403565D02*
G01*
X176873138Y-226415296D01*
X176908777Y-226434346D01*
X176940017Y-226459983D01*
X176965654Y-226491223D01*
X176984704Y-226526862D01*
X176996435Y-226565532D01*
X177001000Y-226611888D01*
X177001000Y-227263112D01*
X176996435Y-227309468D01*
X176984704Y-227348138D01*
X176965654Y-227383777D01*
X176940017Y-227415017D01*
X176908777Y-227440654D01*
X176873138Y-227459704D01*
X176834468Y-227471435D01*
X176788112Y-227476000D01*
X175711888Y-227476000D01*
X175665532Y-227471435D01*
X175626862Y-227459704D01*
X175591223Y-227440654D01*
X175559983Y-227415017D01*
X175534346Y-227383777D01*
X175515296Y-227348138D01*
X175503565Y-227309468D01*
X175499000Y-227263112D01*
X175499000Y-226611888D01*
X175503565Y-226565532D01*
X175515296Y-226526862D01*
X175534346Y-226491223D01*
X175559983Y-226459983D01*
X175591223Y-226434346D01*
X175626862Y-226415296D01*
X175665532Y-226403565D01*
X175711888Y-226399000D01*
X176788112Y-226399000D01*
X176834468Y-226403565D01*
G37*
G36*
X193251000Y-227326000D02*
G01*
X192349000Y-227326000D01*
X192349000Y-226674000D01*
X193251000Y-226674000D01*
X193251000Y-227326000D01*
G37*
G36*
X186579591Y-226228085D02*
G01*
X186613569Y-226238393D01*
X186644890Y-226255134D01*
X186672339Y-226277661D01*
X186694866Y-226305110D01*
X186711607Y-226336431D01*
X186721915Y-226370409D01*
X186726000Y-226411890D01*
X186726000Y-227013110D01*
X186721915Y-227054591D01*
X186711607Y-227088569D01*
X186694866Y-227119890D01*
X186672339Y-227147339D01*
X186644890Y-227169866D01*
X186613569Y-227186607D01*
X186579591Y-227196915D01*
X186538110Y-227201000D01*
X185861890Y-227201000D01*
X185820409Y-227196915D01*
X185786431Y-227186607D01*
X185755110Y-227169866D01*
X185727661Y-227147339D01*
X185705134Y-227119890D01*
X185688393Y-227088569D01*
X185678085Y-227054591D01*
X185674000Y-227013110D01*
X185674000Y-226411890D01*
X185678085Y-226370409D01*
X185688393Y-226336431D01*
X185705134Y-226305110D01*
X185727661Y-226277661D01*
X185755110Y-226255134D01*
X185786431Y-226238393D01*
X185820409Y-226228085D01*
X185861890Y-226224000D01*
X186538110Y-226224000D01*
X186579591Y-226228085D01*
G37*
G36*
X174001000Y-226851000D02*
G01*
X172799000Y-226851000D01*
X172799000Y-225649000D01*
X174001000Y-225649000D01*
X174001000Y-226851000D01*
G37*
G36*
X171201000Y-226851000D02*
G01*
X169999000Y-226851000D01*
X169999000Y-225649000D01*
X171201000Y-225649000D01*
X171201000Y-226851000D01*
G37*
G36*
X195651000Y-226376000D02*
G01*
X194749000Y-226376000D01*
X194749000Y-225724000D01*
X195651000Y-225724000D01*
X195651000Y-226376000D01*
G37*
G36*
X193251000Y-226376000D02*
G01*
X192349000Y-226376000D01*
X192349000Y-225724000D01*
X193251000Y-225724000D01*
X193251000Y-226376000D01*
G37*
G36*
X103013512Y-224363927D02*
G01*
X103162812Y-224393624D01*
X103326784Y-224461544D01*
X103474354Y-224560147D01*
X103599853Y-224685646D01*
X103698456Y-224833216D01*
X103766376Y-224997188D01*
X103801000Y-225171259D01*
X103801000Y-225348741D01*
X103766376Y-225522812D01*
X103698456Y-225686784D01*
X103599853Y-225834354D01*
X103474354Y-225959853D01*
X103326784Y-226058456D01*
X103162812Y-226126376D01*
X103013512Y-226156073D01*
X102988742Y-226161000D01*
X102811258Y-226161000D01*
X102786488Y-226156073D01*
X102637188Y-226126376D01*
X102473216Y-226058456D01*
X102325646Y-225959853D01*
X102200147Y-225834354D01*
X102101544Y-225686784D01*
X102033624Y-225522812D01*
X101999000Y-225348741D01*
X101999000Y-225171259D01*
X102033624Y-224997188D01*
X102101544Y-224833216D01*
X102200147Y-224685646D01*
X102325646Y-224560147D01*
X102473216Y-224461544D01*
X102637188Y-224393624D01*
X102786488Y-224363927D01*
X102811258Y-224359000D01*
X102988742Y-224359000D01*
X103013512Y-224363927D01*
G37*
G36*
X176834468Y-224528565D02*
G01*
X176873138Y-224540296D01*
X176908777Y-224559346D01*
X176940017Y-224584983D01*
X176965654Y-224616223D01*
X176984704Y-224651862D01*
X176996435Y-224690532D01*
X177001000Y-224736888D01*
X177001000Y-225388112D01*
X176996435Y-225434468D01*
X176984704Y-225473138D01*
X176965654Y-225508777D01*
X176940017Y-225540017D01*
X176908777Y-225565654D01*
X176873138Y-225584704D01*
X176834468Y-225596435D01*
X176788112Y-225601000D01*
X175711888Y-225601000D01*
X175665532Y-225596435D01*
X175626862Y-225584704D01*
X175591223Y-225565654D01*
X175559983Y-225540017D01*
X175534346Y-225508777D01*
X175515296Y-225473138D01*
X175503565Y-225434468D01*
X175499000Y-225388112D01*
X175499000Y-224736888D01*
X175503565Y-224690532D01*
X175515296Y-224651862D01*
X175534346Y-224616223D01*
X175559983Y-224584983D01*
X175591223Y-224559346D01*
X175626862Y-224540296D01*
X175665532Y-224528565D01*
X175711888Y-224524000D01*
X176788112Y-224524000D01*
X176834468Y-224528565D01*
G37*
G36*
X184076000Y-225151000D02*
G01*
X181724000Y-225151000D01*
X181724000Y-223449000D01*
X184076000Y-223449000D01*
X184076000Y-225151000D01*
G37*
G36*
X170334468Y-223653565D02*
G01*
X170373138Y-223665296D01*
X170408777Y-223684346D01*
X170440017Y-223709983D01*
X170465654Y-223741223D01*
X170484704Y-223776862D01*
X170496435Y-223815532D01*
X170501000Y-223861888D01*
X170501000Y-224513112D01*
X170496435Y-224559468D01*
X170484704Y-224598138D01*
X170465654Y-224633777D01*
X170440017Y-224665017D01*
X170408777Y-224690654D01*
X170373138Y-224709704D01*
X170334468Y-224721435D01*
X170288112Y-224726000D01*
X169211888Y-224726000D01*
X169165532Y-224721435D01*
X169126862Y-224709704D01*
X169091223Y-224690654D01*
X169059983Y-224665017D01*
X169034346Y-224633777D01*
X169015296Y-224598138D01*
X169003565Y-224559468D01*
X168999000Y-224513112D01*
X168999000Y-223861888D01*
X169003565Y-223815532D01*
X169015296Y-223776862D01*
X169034346Y-223741223D01*
X169059983Y-223709983D01*
X169091223Y-223684346D01*
X169126862Y-223665296D01*
X169165532Y-223653565D01*
X169211888Y-223649000D01*
X170288112Y-223649000D01*
X170334468Y-223653565D01*
G37*
G36*
X189001000Y-224501000D02*
G01*
X187299000Y-224501000D01*
X187299000Y-218499000D01*
X189001000Y-218499000D01*
X189001000Y-224501000D01*
G37*
G36*
X193701000Y-224501000D02*
G01*
X191999000Y-224501000D01*
X191999000Y-218499000D01*
X193701000Y-218499000D01*
X193701000Y-224501000D01*
G37*
G36*
X174651000Y-224276000D02*
G01*
X173749000Y-224276000D01*
X173749000Y-223624000D01*
X174651000Y-223624000D01*
X174651000Y-224276000D01*
G37*
G36*
X172251000Y-224276000D02*
G01*
X171349000Y-224276000D01*
X171349000Y-223624000D01*
X172251000Y-223624000D01*
X172251000Y-224276000D01*
G37*
G36*
X174651000Y-223326000D02*
G01*
X173749000Y-223326000D01*
X173749000Y-222674000D01*
X174651000Y-222674000D01*
X174651000Y-223326000D01*
G37*
G36*
X220846189Y-217210483D02*
G01*
X221339978Y-217415017D01*
X221374139Y-217429167D01*
X221849280Y-217746646D01*
X222253354Y-218150720D01*
X222486067Y-218499000D01*
X222570834Y-218625863D01*
X222789517Y-219153811D01*
X222901000Y-219714275D01*
X222901000Y-220285725D01*
X222789517Y-220846189D01*
X222789516Y-220846191D01*
X222570833Y-221374139D01*
X222253354Y-221849280D01*
X221849280Y-222253354D01*
X221374139Y-222570833D01*
X221374138Y-222570834D01*
X221374137Y-222570834D01*
X220846189Y-222789517D01*
X220285725Y-222901000D01*
X219714275Y-222901000D01*
X219153811Y-222789517D01*
X218625863Y-222570834D01*
X218625862Y-222570834D01*
X218625861Y-222570833D01*
X218150720Y-222253354D01*
X217746646Y-221849280D01*
X217429167Y-221374139D01*
X217210484Y-220846191D01*
X217210483Y-220846189D01*
X217099000Y-220285725D01*
X217099000Y-219714275D01*
X217210483Y-219153811D01*
X217429166Y-218625863D01*
X217513933Y-218499000D01*
X217746646Y-218150720D01*
X218150720Y-217746646D01*
X218625861Y-217429167D01*
X218660022Y-217415017D01*
X219153811Y-217210483D01*
X219714275Y-217099000D01*
X220285725Y-217099000D01*
X220846189Y-217210483D01*
G37*
G36*
X140846189Y-217210483D02*
G01*
X141339978Y-217415017D01*
X141374139Y-217429167D01*
X141849280Y-217746646D01*
X142253354Y-218150720D01*
X142486067Y-218499000D01*
X142570834Y-218625863D01*
X142789517Y-219153811D01*
X142901000Y-219714275D01*
X142901000Y-220285725D01*
X142789517Y-220846189D01*
X142789516Y-220846191D01*
X142570833Y-221374139D01*
X142253354Y-221849280D01*
X141849280Y-222253354D01*
X141374139Y-222570833D01*
X141374138Y-222570834D01*
X141374137Y-222570834D01*
X140846189Y-222789517D01*
X140285725Y-222901000D01*
X139714275Y-222901000D01*
X139153811Y-222789517D01*
X138625863Y-222570834D01*
X138625862Y-222570834D01*
X138625861Y-222570833D01*
X138150720Y-222253354D01*
X137746646Y-221849280D01*
X137429167Y-221374139D01*
X137210484Y-220846191D01*
X137210483Y-220846189D01*
X137099000Y-220285725D01*
X137099000Y-219714275D01*
X137210483Y-219153811D01*
X137429166Y-218625863D01*
X137513933Y-218499000D01*
X137746646Y-218150720D01*
X138150720Y-217746646D01*
X138625861Y-217429167D01*
X138660022Y-217415017D01*
X139153811Y-217210483D01*
X139714275Y-217099000D01*
X140285725Y-217099000D01*
X140846189Y-217210483D01*
G37*
G36*
X170334468Y-221778565D02*
G01*
X170373138Y-221790296D01*
X170408777Y-221809346D01*
X170440017Y-221834983D01*
X170465654Y-221866223D01*
X170484704Y-221901862D01*
X170496435Y-221940532D01*
X170501000Y-221986888D01*
X170501000Y-222638112D01*
X170496435Y-222684468D01*
X170484704Y-222723138D01*
X170465654Y-222758777D01*
X170440017Y-222790017D01*
X170408777Y-222815654D01*
X170373138Y-222834704D01*
X170334468Y-222846435D01*
X170288112Y-222851000D01*
X169211888Y-222851000D01*
X169165532Y-222846435D01*
X169126862Y-222834704D01*
X169091223Y-222815654D01*
X169059983Y-222790017D01*
X169034346Y-222758777D01*
X169015296Y-222723138D01*
X169003565Y-222684468D01*
X168999000Y-222638112D01*
X168999000Y-221986888D01*
X169003565Y-221940532D01*
X169015296Y-221901862D01*
X169034346Y-221866223D01*
X169059983Y-221834983D01*
X169091223Y-221809346D01*
X169126862Y-221790296D01*
X169165532Y-221778565D01*
X169211888Y-221774000D01*
X170288112Y-221774000D01*
X170334468Y-221778565D01*
G37*
G36*
X174651000Y-222376000D02*
G01*
X173749000Y-222376000D01*
X173749000Y-221724000D01*
X174651000Y-221724000D01*
X174651000Y-222376000D01*
G37*
G36*
X172251000Y-222376000D02*
G01*
X171349000Y-222376000D01*
X171349000Y-221724000D01*
X172251000Y-221724000D01*
X172251000Y-222376000D01*
G37*
G36*
X171751000Y-220501000D02*
G01*
X170049000Y-220501000D01*
X170049000Y-214499000D01*
X171751000Y-214499000D01*
X171751000Y-220501000D01*
G37*
G36*
X176451000Y-220501000D02*
G01*
X174749000Y-220501000D01*
X174749000Y-214499000D01*
X176451000Y-214499000D01*
X176451000Y-220501000D01*
G37*
G36*
X185584468Y-216903565D02*
G01*
X185623138Y-216915296D01*
X185658777Y-216934346D01*
X185690017Y-216959983D01*
X185715654Y-216991223D01*
X185734704Y-217026862D01*
X185746435Y-217065532D01*
X185751000Y-217111888D01*
X185751000Y-217763112D01*
X185746435Y-217809468D01*
X185734704Y-217848138D01*
X185715654Y-217883777D01*
X185690017Y-217915017D01*
X185658777Y-217940654D01*
X185623138Y-217959704D01*
X185584468Y-217971435D01*
X185538112Y-217976000D01*
X184461888Y-217976000D01*
X184415532Y-217971435D01*
X184376862Y-217959704D01*
X184341223Y-217940654D01*
X184309983Y-217915017D01*
X184284346Y-217883777D01*
X184265296Y-217848138D01*
X184253565Y-217809468D01*
X184249000Y-217763112D01*
X184249000Y-217111888D01*
X184253565Y-217065532D01*
X184265296Y-217026862D01*
X184284346Y-216991223D01*
X184309983Y-216959983D01*
X184341223Y-216934346D01*
X184376862Y-216915296D01*
X184415532Y-216903565D01*
X184461888Y-216899000D01*
X185538112Y-216899000D01*
X185584468Y-216903565D01*
G37*
G36*
X193584468Y-216403565D02*
G01*
X193623138Y-216415296D01*
X193658777Y-216434346D01*
X193690017Y-216459983D01*
X193715654Y-216491223D01*
X193734704Y-216526862D01*
X193746435Y-216565532D01*
X193751000Y-216611888D01*
X193751000Y-217263112D01*
X193746435Y-217309468D01*
X193734704Y-217348138D01*
X193715654Y-217383777D01*
X193690017Y-217415017D01*
X193658777Y-217440654D01*
X193623138Y-217459704D01*
X193584468Y-217471435D01*
X193538112Y-217476000D01*
X192461888Y-217476000D01*
X192415532Y-217471435D01*
X192376862Y-217459704D01*
X192341223Y-217440654D01*
X192309983Y-217415017D01*
X192284346Y-217383777D01*
X192265296Y-217348138D01*
X192253565Y-217309468D01*
X192249000Y-217263112D01*
X192249000Y-216611888D01*
X192253565Y-216565532D01*
X192265296Y-216526862D01*
X192284346Y-216491223D01*
X192309983Y-216459983D01*
X192341223Y-216434346D01*
X192376862Y-216415296D01*
X192415532Y-216403565D01*
X192461888Y-216399000D01*
X193538112Y-216399000D01*
X193584468Y-216403565D01*
G37*
G36*
X188201000Y-217101000D02*
G01*
X186999000Y-217101000D01*
X186999000Y-215899000D01*
X188201000Y-215899000D01*
X188201000Y-217101000D01*
G37*
G36*
X191001000Y-217101000D02*
G01*
X189799000Y-217101000D01*
X189799000Y-215899000D01*
X191001000Y-215899000D01*
X191001000Y-217101000D01*
G37*
G36*
X185584468Y-215028565D02*
G01*
X185623138Y-215040296D01*
X185658777Y-215059346D01*
X185690017Y-215084983D01*
X185715654Y-215116223D01*
X185734704Y-215151862D01*
X185746435Y-215190532D01*
X185751000Y-215236888D01*
X185751000Y-215888112D01*
X185746435Y-215934468D01*
X185734704Y-215973138D01*
X185715654Y-216008777D01*
X185690017Y-216040017D01*
X185658777Y-216065654D01*
X185623138Y-216084704D01*
X185584468Y-216096435D01*
X185538112Y-216101000D01*
X184461888Y-216101000D01*
X184415532Y-216096435D01*
X184376862Y-216084704D01*
X184341223Y-216065654D01*
X184309983Y-216040017D01*
X184284346Y-216008777D01*
X184265296Y-215973138D01*
X184253565Y-215934468D01*
X184249000Y-215888112D01*
X184249000Y-215236888D01*
X184253565Y-215190532D01*
X184265296Y-215151862D01*
X184284346Y-215116223D01*
X184309983Y-215084983D01*
X184341223Y-215059346D01*
X184376862Y-215040296D01*
X184415532Y-215028565D01*
X184461888Y-215024000D01*
X185538112Y-215024000D01*
X185584468Y-215028565D01*
G37*
G36*
X193584468Y-214528565D02*
G01*
X193623138Y-214540296D01*
X193658777Y-214559346D01*
X193690017Y-214584983D01*
X193715654Y-214616223D01*
X193734704Y-214651862D01*
X193746435Y-214690532D01*
X193751000Y-214736888D01*
X193751000Y-215388112D01*
X193746435Y-215434468D01*
X193734704Y-215473138D01*
X193715654Y-215508777D01*
X193690017Y-215540017D01*
X193658777Y-215565654D01*
X193623138Y-215584704D01*
X193584468Y-215596435D01*
X193538112Y-215601000D01*
X192461888Y-215601000D01*
X192415532Y-215596435D01*
X192376862Y-215584704D01*
X192341223Y-215565654D01*
X192309983Y-215540017D01*
X192284346Y-215508777D01*
X192265296Y-215473138D01*
X192253565Y-215434468D01*
X192249000Y-215388112D01*
X192249000Y-214736888D01*
X192253565Y-214690532D01*
X192265296Y-214651862D01*
X192284346Y-214616223D01*
X192309983Y-214584983D01*
X192341223Y-214559346D01*
X192376862Y-214540296D01*
X192415532Y-214528565D01*
X192461888Y-214524000D01*
X193538112Y-214524000D01*
X193584468Y-214528565D01*
G37*
G36*
X222351000Y-215381000D02*
G01*
X221049000Y-215381000D01*
X221049000Y-212179000D01*
X222351000Y-212179000D01*
X222351000Y-215381000D01*
G37*
G36*
X220651000Y-215381000D02*
G01*
X219349000Y-215381000D01*
X219349000Y-212179000D01*
X220651000Y-212179000D01*
X220651000Y-215381000D01*
G37*
G36*
X218951000Y-215381000D02*
G01*
X217649000Y-215381000D01*
X217649000Y-212179000D01*
X218951000Y-212179000D01*
X218951000Y-215381000D01*
G37*
G36*
X138951000Y-215381000D02*
G01*
X137649000Y-215381000D01*
X137649000Y-212179000D01*
X138951000Y-212179000D01*
X138951000Y-215381000D01*
G37*
G36*
X140651000Y-215381000D02*
G01*
X139349000Y-215381000D01*
X139349000Y-212179000D01*
X140651000Y-212179000D01*
X140651000Y-215381000D01*
G37*
G36*
X142351000Y-215381000D02*
G01*
X141049000Y-215381000D01*
X141049000Y-212179000D01*
X142351000Y-212179000D01*
X142351000Y-215381000D01*
G37*
G36*
X191151000Y-214276000D02*
G01*
X190249000Y-214276000D01*
X190249000Y-213624000D01*
X191151000Y-213624000D01*
X191151000Y-214276000D01*
G37*
G36*
X188751000Y-214276000D02*
G01*
X187849000Y-214276000D01*
X187849000Y-213624000D01*
X188751000Y-213624000D01*
X188751000Y-214276000D01*
G37*
G36*
X176834468Y-212403565D02*
G01*
X176873138Y-212415296D01*
X176908777Y-212434346D01*
X176940017Y-212459983D01*
X176965654Y-212491223D01*
X176984704Y-212526862D01*
X176996435Y-212565532D01*
X177001000Y-212611888D01*
X177001000Y-213263112D01*
X176996435Y-213309468D01*
X176984704Y-213348138D01*
X176965654Y-213383777D01*
X176940017Y-213415017D01*
X176908777Y-213440654D01*
X176873138Y-213459704D01*
X176834468Y-213471435D01*
X176788112Y-213476000D01*
X175711888Y-213476000D01*
X175665532Y-213471435D01*
X175626862Y-213459704D01*
X175591223Y-213440654D01*
X175559983Y-213415017D01*
X175534346Y-213383777D01*
X175515296Y-213348138D01*
X175503565Y-213309468D01*
X175499000Y-213263112D01*
X175499000Y-212611888D01*
X175503565Y-212565532D01*
X175515296Y-212526862D01*
X175534346Y-212491223D01*
X175559983Y-212459983D01*
X175591223Y-212434346D01*
X175626862Y-212415296D01*
X175665532Y-212403565D01*
X175711888Y-212399000D01*
X176788112Y-212399000D01*
X176834468Y-212403565D01*
G37*
G36*
X188751000Y-213326000D02*
G01*
X187849000Y-213326000D01*
X187849000Y-212674000D01*
X188751000Y-212674000D01*
X188751000Y-213326000D01*
G37*
G36*
X174001000Y-212851000D02*
G01*
X172799000Y-212851000D01*
X172799000Y-211649000D01*
X174001000Y-211649000D01*
X174001000Y-212851000D01*
G37*
G36*
X171201000Y-212851000D02*
G01*
X169999000Y-212851000D01*
X169999000Y-211649000D01*
X171201000Y-211649000D01*
X171201000Y-212851000D01*
G37*
G36*
X191151000Y-212376000D02*
G01*
X190249000Y-212376000D01*
X190249000Y-211724000D01*
X191151000Y-211724000D01*
X191151000Y-212376000D01*
G37*
G36*
X188751000Y-212376000D02*
G01*
X187849000Y-212376000D01*
X187849000Y-211724000D01*
X188751000Y-211724000D01*
X188751000Y-212376000D01*
G37*
G36*
X176834468Y-210528565D02*
G01*
X176873138Y-210540296D01*
X176908777Y-210559346D01*
X176940017Y-210584983D01*
X176965654Y-210616223D01*
X176984704Y-210651862D01*
X176996435Y-210690532D01*
X177001000Y-210736888D01*
X177001000Y-211388112D01*
X176996435Y-211434468D01*
X176984704Y-211473138D01*
X176965654Y-211508777D01*
X176940017Y-211540017D01*
X176908777Y-211565654D01*
X176873138Y-211584704D01*
X176834468Y-211596435D01*
X176788112Y-211601000D01*
X175711888Y-211601000D01*
X175665532Y-211596435D01*
X175626862Y-211584704D01*
X175591223Y-211565654D01*
X175559983Y-211540017D01*
X175534346Y-211508777D01*
X175515296Y-211473138D01*
X175503565Y-211434468D01*
X175499000Y-211388112D01*
X175499000Y-210736888D01*
X175503565Y-210690532D01*
X175515296Y-210651862D01*
X175534346Y-210616223D01*
X175559983Y-210584983D01*
X175591223Y-210559346D01*
X175626862Y-210540296D01*
X175665532Y-210528565D01*
X175711888Y-210524000D01*
X176788112Y-210524000D01*
X176834468Y-210528565D01*
G37*
G36*
X189001000Y-211001000D02*
G01*
X187299000Y-211001000D01*
X187299000Y-204999000D01*
X189001000Y-204999000D01*
X189001000Y-211001000D01*
G37*
G36*
X193701000Y-211001000D02*
G01*
X191999000Y-211001000D01*
X191999000Y-204999000D01*
X193701000Y-204999000D01*
X193701000Y-211001000D01*
G37*
G36*
X170334468Y-209653565D02*
G01*
X170373138Y-209665296D01*
X170408777Y-209684346D01*
X170440017Y-209709983D01*
X170465654Y-209741223D01*
X170484704Y-209776862D01*
X170496435Y-209815532D01*
X170501000Y-209861888D01*
X170501000Y-210513112D01*
X170496435Y-210559468D01*
X170484704Y-210598138D01*
X170465654Y-210633777D01*
X170440017Y-210665017D01*
X170408777Y-210690654D01*
X170373138Y-210709704D01*
X170334468Y-210721435D01*
X170288112Y-210726000D01*
X169211888Y-210726000D01*
X169165532Y-210721435D01*
X169126862Y-210709704D01*
X169091223Y-210690654D01*
X169059983Y-210665017D01*
X169034346Y-210633777D01*
X169015296Y-210598138D01*
X169003565Y-210559468D01*
X168999000Y-210513112D01*
X168999000Y-209861888D01*
X169003565Y-209815532D01*
X169015296Y-209776862D01*
X169034346Y-209741223D01*
X169059983Y-209709983D01*
X169091223Y-209684346D01*
X169126862Y-209665296D01*
X169165532Y-209653565D01*
X169211888Y-209649000D01*
X170288112Y-209649000D01*
X170334468Y-209653565D01*
G37*
G36*
X174651000Y-210276000D02*
G01*
X173749000Y-210276000D01*
X173749000Y-209624000D01*
X174651000Y-209624000D01*
X174651000Y-210276000D01*
G37*
G36*
X172251000Y-210276000D02*
G01*
X171349000Y-210276000D01*
X171349000Y-209624000D01*
X172251000Y-209624000D01*
X172251000Y-210276000D01*
G37*
G36*
X174651000Y-209326000D02*
G01*
X173749000Y-209326000D01*
X173749000Y-208674000D01*
X174651000Y-208674000D01*
X174651000Y-209326000D01*
G37*
G36*
X170334468Y-207778565D02*
G01*
X170373138Y-207790296D01*
X170408777Y-207809346D01*
X170440017Y-207834983D01*
X170465654Y-207866223D01*
X170484704Y-207901862D01*
X170496435Y-207940532D01*
X170501000Y-207986888D01*
X170501000Y-208638112D01*
X170496435Y-208684468D01*
X170484704Y-208723138D01*
X170465654Y-208758777D01*
X170440017Y-208790017D01*
X170408777Y-208815654D01*
X170373138Y-208834704D01*
X170334468Y-208846435D01*
X170288112Y-208851000D01*
X169211888Y-208851000D01*
X169165532Y-208846435D01*
X169126862Y-208834704D01*
X169091223Y-208815654D01*
X169059983Y-208790017D01*
X169034346Y-208758777D01*
X169015296Y-208723138D01*
X169003565Y-208684468D01*
X168999000Y-208638112D01*
X168999000Y-207986888D01*
X169003565Y-207940532D01*
X169015296Y-207901862D01*
X169034346Y-207866223D01*
X169059983Y-207834983D01*
X169091223Y-207809346D01*
X169126862Y-207790296D01*
X169165532Y-207778565D01*
X169211888Y-207774000D01*
X170288112Y-207774000D01*
X170334468Y-207778565D01*
G37*
G36*
X174651000Y-208376000D02*
G01*
X173749000Y-208376000D01*
X173749000Y-207724000D01*
X174651000Y-207724000D01*
X174651000Y-208376000D01*
G37*
G36*
X172251000Y-208376000D02*
G01*
X171349000Y-208376000D01*
X171349000Y-207724000D01*
X172251000Y-207724000D01*
X172251000Y-208376000D01*
G37*
G36*
X171651000Y-206501000D02*
G01*
X169949000Y-206501000D01*
X169949000Y-200499000D01*
X171651000Y-200499000D01*
X171651000Y-206501000D01*
G37*
G36*
X176351000Y-206501000D02*
G01*
X174649000Y-206501000D01*
X174649000Y-200499000D01*
X176351000Y-200499000D01*
X176351000Y-206501000D01*
G37*
G36*
X185584468Y-203341065D02*
G01*
X185623138Y-203352796D01*
X185658777Y-203371846D01*
X185690017Y-203397483D01*
X185715654Y-203428723D01*
X185734704Y-203464362D01*
X185746435Y-203503032D01*
X185751000Y-203549388D01*
X185751000Y-204200612D01*
X185746435Y-204246968D01*
X185734704Y-204285638D01*
X185715654Y-204321277D01*
X185690017Y-204352517D01*
X185658777Y-204378154D01*
X185623138Y-204397204D01*
X185584468Y-204408935D01*
X185538112Y-204413500D01*
X184461888Y-204413500D01*
X184415532Y-204408935D01*
X184376862Y-204397204D01*
X184341223Y-204378154D01*
X184309983Y-204352517D01*
X184284346Y-204321277D01*
X184265296Y-204285638D01*
X184253565Y-204246968D01*
X184249000Y-204200612D01*
X184249000Y-203549388D01*
X184253565Y-203503032D01*
X184265296Y-203464362D01*
X184284346Y-203428723D01*
X184309983Y-203397483D01*
X184341223Y-203371846D01*
X184376862Y-203352796D01*
X184415532Y-203341065D01*
X184461888Y-203336500D01*
X185538112Y-203336500D01*
X185584468Y-203341065D01*
G37*
G36*
X193584468Y-202903565D02*
G01*
X193623138Y-202915296D01*
X193658777Y-202934346D01*
X193690017Y-202959983D01*
X193715654Y-202991223D01*
X193734704Y-203026862D01*
X193746435Y-203065532D01*
X193751000Y-203111888D01*
X193751000Y-203763112D01*
X193746435Y-203809468D01*
X193734704Y-203848138D01*
X193715654Y-203883777D01*
X193690017Y-203915017D01*
X193658777Y-203940654D01*
X193623138Y-203959704D01*
X193584468Y-203971435D01*
X193538112Y-203976000D01*
X192461888Y-203976000D01*
X192415532Y-203971435D01*
X192376862Y-203959704D01*
X192341223Y-203940654D01*
X192309983Y-203915017D01*
X192284346Y-203883777D01*
X192265296Y-203848138D01*
X192253565Y-203809468D01*
X192249000Y-203763112D01*
X192249000Y-203111888D01*
X192253565Y-203065532D01*
X192265296Y-203026862D01*
X192284346Y-202991223D01*
X192309983Y-202959983D01*
X192341223Y-202934346D01*
X192376862Y-202915296D01*
X192415532Y-202903565D01*
X192461888Y-202899000D01*
X193538112Y-202899000D01*
X193584468Y-202903565D01*
G37*
G36*
X191001000Y-203601000D02*
G01*
X189799000Y-203601000D01*
X189799000Y-202399000D01*
X191001000Y-202399000D01*
X191001000Y-203601000D01*
G37*
G36*
X188201000Y-203601000D02*
G01*
X186999000Y-203601000D01*
X186999000Y-202399000D01*
X188201000Y-202399000D01*
X188201000Y-203601000D01*
G37*
G36*
X185584468Y-201466065D02*
G01*
X185623138Y-201477796D01*
X185658777Y-201496846D01*
X185690017Y-201522483D01*
X185715654Y-201553723D01*
X185734704Y-201589362D01*
X185746435Y-201628032D01*
X185751000Y-201674388D01*
X185751000Y-202325612D01*
X185746435Y-202371968D01*
X185734704Y-202410638D01*
X185715654Y-202446277D01*
X185690017Y-202477517D01*
X185658777Y-202503154D01*
X185623138Y-202522204D01*
X185584468Y-202533935D01*
X185538112Y-202538500D01*
X184461888Y-202538500D01*
X184415532Y-202533935D01*
X184376862Y-202522204D01*
X184341223Y-202503154D01*
X184309983Y-202477517D01*
X184284346Y-202446277D01*
X184265296Y-202410638D01*
X184253565Y-202371968D01*
X184249000Y-202325612D01*
X184249000Y-201674388D01*
X184253565Y-201628032D01*
X184265296Y-201589362D01*
X184284346Y-201553723D01*
X184309983Y-201522483D01*
X184341223Y-201496846D01*
X184376862Y-201477796D01*
X184415532Y-201466065D01*
X184461888Y-201461500D01*
X185538112Y-201461500D01*
X185584468Y-201466065D01*
G37*
G36*
X193584468Y-201028565D02*
G01*
X193623138Y-201040296D01*
X193658777Y-201059346D01*
X193690017Y-201084983D01*
X193715654Y-201116223D01*
X193734704Y-201151862D01*
X193746435Y-201190532D01*
X193751000Y-201236888D01*
X193751000Y-201888112D01*
X193746435Y-201934468D01*
X193734704Y-201973138D01*
X193715654Y-202008777D01*
X193690017Y-202040017D01*
X193658777Y-202065654D01*
X193623138Y-202084704D01*
X193584468Y-202096435D01*
X193538112Y-202101000D01*
X192461888Y-202101000D01*
X192415532Y-202096435D01*
X192376862Y-202084704D01*
X192341223Y-202065654D01*
X192309983Y-202040017D01*
X192284346Y-202008777D01*
X192265296Y-201973138D01*
X192253565Y-201934468D01*
X192249000Y-201888112D01*
X192249000Y-201236888D01*
X192253565Y-201190532D01*
X192265296Y-201151862D01*
X192284346Y-201116223D01*
X192309983Y-201084983D01*
X192341223Y-201059346D01*
X192376862Y-201040296D01*
X192415532Y-201028565D01*
X192461888Y-201024000D01*
X193538112Y-201024000D01*
X193584468Y-201028565D01*
G37*
G36*
X188751000Y-200776000D02*
G01*
X187849000Y-200776000D01*
X187849000Y-200124000D01*
X188751000Y-200124000D01*
X188751000Y-200776000D01*
G37*
G36*
X191151000Y-200776000D02*
G01*
X190249000Y-200776000D01*
X190249000Y-200124000D01*
X191151000Y-200124000D01*
X191151000Y-200776000D01*
G37*
G36*
X188751000Y-199826000D02*
G01*
X187849000Y-199826000D01*
X187849000Y-199174000D01*
X188751000Y-199174000D01*
X188751000Y-199826000D01*
G37*
G36*
X191151000Y-198876000D02*
G01*
X190249000Y-198876000D01*
X190249000Y-198224000D01*
X191151000Y-198224000D01*
X191151000Y-198876000D01*
G37*
G36*
X188751000Y-198876000D02*
G01*
X187849000Y-198876000D01*
X187849000Y-198224000D01*
X188751000Y-198224000D01*
X188751000Y-198876000D01*
G37*
G36*
X253003512Y-185453927D02*
G01*
X253152812Y-185483624D01*
X253316784Y-185551544D01*
X253464354Y-185650147D01*
X253589853Y-185775646D01*
X253688456Y-185923216D01*
X253756376Y-186087188D01*
X253791000Y-186261259D01*
X253791000Y-186438741D01*
X253756376Y-186612812D01*
X253688456Y-186776784D01*
X253589853Y-186924354D01*
X253464354Y-187049853D01*
X253316784Y-187148456D01*
X253152812Y-187216376D01*
X253003512Y-187246073D01*
X252978742Y-187251000D01*
X252801258Y-187251000D01*
X252776488Y-187246073D01*
X252627188Y-187216376D01*
X252463216Y-187148456D01*
X252315646Y-187049853D01*
X252190147Y-186924354D01*
X252091544Y-186776784D01*
X252023624Y-186612812D01*
X251989000Y-186438741D01*
X251989000Y-186261259D01*
X252023624Y-186087188D01*
X252091544Y-185923216D01*
X252190147Y-185775646D01*
X252315646Y-185650147D01*
X252463216Y-185551544D01*
X252627188Y-185483624D01*
X252776488Y-185453927D01*
X252801258Y-185449000D01*
X252978742Y-185449000D01*
X253003512Y-185453927D01*
G37*
G36*
X253003512Y-182913927D02*
G01*
X253152812Y-182943624D01*
X253316784Y-183011544D01*
X253464354Y-183110147D01*
X253589853Y-183235646D01*
X253688456Y-183383216D01*
X253756376Y-183547188D01*
X253791000Y-183721259D01*
X253791000Y-183898741D01*
X253756376Y-184072812D01*
X253688456Y-184236784D01*
X253589853Y-184384354D01*
X253464354Y-184509853D01*
X253316784Y-184608456D01*
X253152812Y-184676376D01*
X253003512Y-184706073D01*
X252978742Y-184711000D01*
X252801258Y-184711000D01*
X252776488Y-184706073D01*
X252627188Y-184676376D01*
X252463216Y-184608456D01*
X252315646Y-184509853D01*
X252190147Y-184384354D01*
X252091544Y-184236784D01*
X252023624Y-184072812D01*
X251989000Y-183898741D01*
X251989000Y-183721259D01*
X252023624Y-183547188D01*
X252091544Y-183383216D01*
X252190147Y-183235646D01*
X252315646Y-183110147D01*
X252463216Y-183011544D01*
X252627188Y-182943624D01*
X252776488Y-182913927D01*
X252801258Y-182909000D01*
X252978742Y-182909000D01*
X253003512Y-182913927D01*
G37*
G36*
X253003512Y-180373927D02*
G01*
X253152812Y-180403624D01*
X253316784Y-180471544D01*
X253464354Y-180570147D01*
X253589853Y-180695646D01*
X253688456Y-180843216D01*
X253756376Y-181007188D01*
X253791000Y-181181259D01*
X253791000Y-181358741D01*
X253756376Y-181532812D01*
X253688456Y-181696784D01*
X253589853Y-181844354D01*
X253464354Y-181969853D01*
X253316784Y-182068456D01*
X253152812Y-182136376D01*
X253003512Y-182166073D01*
X252978742Y-182171000D01*
X252801258Y-182171000D01*
X252776488Y-182166073D01*
X252627188Y-182136376D01*
X252463216Y-182068456D01*
X252315646Y-181969853D01*
X252190147Y-181844354D01*
X252091544Y-181696784D01*
X252023624Y-181532812D01*
X251989000Y-181358741D01*
X251989000Y-181181259D01*
X252023624Y-181007188D01*
X252091544Y-180843216D01*
X252190147Y-180695646D01*
X252315646Y-180570147D01*
X252463216Y-180471544D01*
X252627188Y-180403624D01*
X252776488Y-180373927D01*
X252801258Y-180369000D01*
X252978742Y-180369000D01*
X253003512Y-180373927D01*
G37*
G36*
X252992567Y-177831750D02*
G01*
X253152812Y-177863624D01*
X253316784Y-177931544D01*
X253464354Y-178030147D01*
X253589853Y-178155646D01*
X253688456Y-178303216D01*
X253756376Y-178467188D01*
X253791000Y-178641259D01*
X253791000Y-178818741D01*
X253756376Y-178992812D01*
X253688456Y-179156784D01*
X253589853Y-179304354D01*
X253464354Y-179429853D01*
X253316784Y-179528456D01*
X253152812Y-179596376D01*
X253003512Y-179626073D01*
X252978742Y-179631000D01*
X252801258Y-179631000D01*
X252776488Y-179626073D01*
X252627188Y-179596376D01*
X252463216Y-179528456D01*
X252315646Y-179429853D01*
X252190147Y-179304354D01*
X252091544Y-179156784D01*
X252023624Y-178992812D01*
X251989000Y-178818741D01*
X251989000Y-178641259D01*
X252023624Y-178467188D01*
X252091544Y-178303216D01*
X252190147Y-178155646D01*
X252315646Y-178030147D01*
X252463216Y-177931544D01*
X252627188Y-177863624D01*
X252787433Y-177831750D01*
X252801258Y-177829000D01*
X252978742Y-177829000D01*
X252992567Y-177831750D01*
G37*
G36*
X183629591Y-178303085D02*
G01*
X183663569Y-178313393D01*
X183694890Y-178330134D01*
X183722339Y-178352661D01*
X183744866Y-178380110D01*
X183761607Y-178411431D01*
X183771915Y-178445409D01*
X183776000Y-178486890D01*
X183776000Y-179088110D01*
X183771915Y-179129591D01*
X183761607Y-179163569D01*
X183744866Y-179194890D01*
X183722339Y-179222339D01*
X183694890Y-179244866D01*
X183663569Y-179261607D01*
X183629591Y-179271915D01*
X183588110Y-179276000D01*
X182911890Y-179276000D01*
X182870409Y-179271915D01*
X182836431Y-179261607D01*
X182805110Y-179244866D01*
X182777661Y-179222339D01*
X182755134Y-179194890D01*
X182738393Y-179163569D01*
X182728085Y-179129591D01*
X182724000Y-179088110D01*
X182724000Y-178486890D01*
X182728085Y-178445409D01*
X182738393Y-178411431D01*
X182755134Y-178380110D01*
X182777661Y-178352661D01*
X182805110Y-178330134D01*
X182836431Y-178313393D01*
X182870409Y-178303085D01*
X182911890Y-178299000D01*
X183588110Y-178299000D01*
X183629591Y-178303085D01*
G37*
G36*
X175379591Y-178303085D02*
G01*
X175413569Y-178313393D01*
X175444890Y-178330134D01*
X175472339Y-178352661D01*
X175494866Y-178380110D01*
X175511607Y-178411431D01*
X175521915Y-178445409D01*
X175526000Y-178486890D01*
X175526000Y-179088110D01*
X175521915Y-179129591D01*
X175511607Y-179163569D01*
X175494866Y-179194890D01*
X175472339Y-179222339D01*
X175444890Y-179244866D01*
X175413569Y-179261607D01*
X175379591Y-179271915D01*
X175338110Y-179276000D01*
X174661890Y-179276000D01*
X174620409Y-179271915D01*
X174586431Y-179261607D01*
X174555110Y-179244866D01*
X174527661Y-179222339D01*
X174505134Y-179194890D01*
X174488393Y-179163569D01*
X174478085Y-179129591D01*
X174474000Y-179088110D01*
X174474000Y-178486890D01*
X174478085Y-178445409D01*
X174488393Y-178411431D01*
X174505134Y-178380110D01*
X174527661Y-178352661D01*
X174555110Y-178330134D01*
X174586431Y-178313393D01*
X174620409Y-178303085D01*
X174661890Y-178299000D01*
X175338110Y-178299000D01*
X175379591Y-178303085D01*
G37*
G36*
X155379591Y-177553085D02*
G01*
X155413569Y-177563393D01*
X155444890Y-177580134D01*
X155472339Y-177602661D01*
X155494866Y-177630110D01*
X155511607Y-177661431D01*
X155521915Y-177695409D01*
X155526000Y-177736890D01*
X155526000Y-178338110D01*
X155521915Y-178379591D01*
X155511607Y-178413569D01*
X155494866Y-178444890D01*
X155472339Y-178472339D01*
X155444890Y-178494866D01*
X155413569Y-178511607D01*
X155379591Y-178521915D01*
X155338110Y-178526000D01*
X154661890Y-178526000D01*
X154620409Y-178521915D01*
X154586431Y-178511607D01*
X154555110Y-178494866D01*
X154527661Y-178472339D01*
X154505134Y-178444890D01*
X154488393Y-178413569D01*
X154478085Y-178379591D01*
X154474000Y-178338110D01*
X154474000Y-177736890D01*
X154478085Y-177695409D01*
X154488393Y-177661431D01*
X154505134Y-177630110D01*
X154527661Y-177602661D01*
X154555110Y-177580134D01*
X154586431Y-177563393D01*
X154620409Y-177553085D01*
X154661890Y-177549000D01*
X155338110Y-177549000D01*
X155379591Y-177553085D01*
G37*
G36*
X194129591Y-177228085D02*
G01*
X194163569Y-177238393D01*
X194194890Y-177255134D01*
X194222339Y-177277661D01*
X194244866Y-177305110D01*
X194261607Y-177336431D01*
X194271915Y-177370409D01*
X194276000Y-177411890D01*
X194276000Y-178088110D01*
X194271915Y-178129591D01*
X194261607Y-178163569D01*
X194244866Y-178194890D01*
X194222339Y-178222339D01*
X194194890Y-178244866D01*
X194163569Y-178261607D01*
X194129591Y-178271915D01*
X194088110Y-178276000D01*
X193486890Y-178276000D01*
X193445409Y-178271915D01*
X193411431Y-178261607D01*
X193380110Y-178244866D01*
X193352661Y-178222339D01*
X193330134Y-178194890D01*
X193313393Y-178163569D01*
X193303085Y-178129591D01*
X193299000Y-178088110D01*
X193299000Y-177411890D01*
X193303085Y-177370409D01*
X193313393Y-177336431D01*
X193330134Y-177305110D01*
X193352661Y-177277661D01*
X193380110Y-177255134D01*
X193411431Y-177238393D01*
X193445409Y-177228085D01*
X193486890Y-177224000D01*
X194088110Y-177224000D01*
X194129591Y-177228085D01*
G37*
G36*
X192554591Y-177228085D02*
G01*
X192588569Y-177238393D01*
X192619890Y-177255134D01*
X192647339Y-177277661D01*
X192669866Y-177305110D01*
X192686607Y-177336431D01*
X192696915Y-177370409D01*
X192701000Y-177411890D01*
X192701000Y-178088110D01*
X192696915Y-178129591D01*
X192686607Y-178163569D01*
X192669866Y-178194890D01*
X192647339Y-178222339D01*
X192619890Y-178244866D01*
X192588569Y-178261607D01*
X192554591Y-178271915D01*
X192513110Y-178276000D01*
X191911890Y-178276000D01*
X191870409Y-178271915D01*
X191836431Y-178261607D01*
X191805110Y-178244866D01*
X191777661Y-178222339D01*
X191755134Y-178194890D01*
X191738393Y-178163569D01*
X191728085Y-178129591D01*
X191724000Y-178088110D01*
X191724000Y-177411890D01*
X191728085Y-177370409D01*
X191738393Y-177336431D01*
X191755134Y-177305110D01*
X191777661Y-177277661D01*
X191805110Y-177255134D01*
X191836431Y-177238393D01*
X191870409Y-177228085D01*
X191911890Y-177224000D01*
X192513110Y-177224000D01*
X192554591Y-177228085D01*
G37*
G36*
X204779591Y-177103085D02*
G01*
X204813569Y-177113393D01*
X204844890Y-177130134D01*
X204872339Y-177152661D01*
X204894866Y-177180110D01*
X204911607Y-177211431D01*
X204921915Y-177245409D01*
X204926000Y-177286890D01*
X204926000Y-177888110D01*
X204921915Y-177929591D01*
X204911607Y-177963569D01*
X204894866Y-177994890D01*
X204872339Y-178022339D01*
X204844890Y-178044866D01*
X204813569Y-178061607D01*
X204779591Y-178071915D01*
X204738110Y-178076000D01*
X204061890Y-178076000D01*
X204020409Y-178071915D01*
X203986431Y-178061607D01*
X203955110Y-178044866D01*
X203927661Y-178022339D01*
X203905134Y-177994890D01*
X203888393Y-177963569D01*
X203878085Y-177929591D01*
X203874000Y-177888110D01*
X203874000Y-177286890D01*
X203878085Y-177245409D01*
X203888393Y-177211431D01*
X203905134Y-177180110D01*
X203927661Y-177152661D01*
X203955110Y-177130134D01*
X203986431Y-177113393D01*
X204020409Y-177103085D01*
X204061890Y-177099000D01*
X204738110Y-177099000D01*
X204779591Y-177103085D01*
G37*
G36*
X166879591Y-176978085D02*
G01*
X166913569Y-176988393D01*
X166944890Y-177005134D01*
X166972339Y-177027661D01*
X166994866Y-177055110D01*
X167011607Y-177086431D01*
X167021915Y-177120409D01*
X167026000Y-177161890D01*
X167026000Y-177838110D01*
X167021915Y-177879591D01*
X167011607Y-177913569D01*
X166994866Y-177944890D01*
X166972339Y-177972339D01*
X166944890Y-177994866D01*
X166913569Y-178011607D01*
X166879591Y-178021915D01*
X166838110Y-178026000D01*
X166236890Y-178026000D01*
X166195409Y-178021915D01*
X166161431Y-178011607D01*
X166130110Y-177994866D01*
X166102661Y-177972339D01*
X166080134Y-177944890D01*
X166063393Y-177913569D01*
X166053085Y-177879591D01*
X166049000Y-177838110D01*
X166049000Y-177161890D01*
X166053085Y-177120409D01*
X166063393Y-177086431D01*
X166080134Y-177055110D01*
X166102661Y-177027661D01*
X166130110Y-177005134D01*
X166161431Y-176988393D01*
X166195409Y-176978085D01*
X166236890Y-176974000D01*
X166838110Y-176974000D01*
X166879591Y-176978085D01*
G37*
G36*
X165304591Y-176978085D02*
G01*
X165338569Y-176988393D01*
X165369890Y-177005134D01*
X165397339Y-177027661D01*
X165419866Y-177055110D01*
X165436607Y-177086431D01*
X165446915Y-177120409D01*
X165451000Y-177161890D01*
X165451000Y-177838110D01*
X165446915Y-177879591D01*
X165436607Y-177913569D01*
X165419866Y-177944890D01*
X165397339Y-177972339D01*
X165369890Y-177994866D01*
X165338569Y-178011607D01*
X165304591Y-178021915D01*
X165263110Y-178026000D01*
X164661890Y-178026000D01*
X164620409Y-178021915D01*
X164586431Y-178011607D01*
X164555110Y-177994866D01*
X164527661Y-177972339D01*
X164505134Y-177944890D01*
X164488393Y-177913569D01*
X164478085Y-177879591D01*
X164474000Y-177838110D01*
X164474000Y-177161890D01*
X164478085Y-177120409D01*
X164488393Y-177086431D01*
X164505134Y-177055110D01*
X164527661Y-177027661D01*
X164555110Y-177005134D01*
X164586431Y-176988393D01*
X164620409Y-176978085D01*
X164661890Y-176974000D01*
X165263110Y-176974000D01*
X165304591Y-176978085D01*
G37*
G36*
X202674867Y-176967004D02*
G01*
X202698292Y-176974110D01*
X202719889Y-176985654D01*
X202738814Y-177001186D01*
X202754346Y-177020111D01*
X202765890Y-177041708D01*
X202772996Y-177065133D01*
X202776000Y-177095638D01*
X202776000Y-177584362D01*
X202772996Y-177614867D01*
X202765890Y-177638292D01*
X202754346Y-177659889D01*
X202738814Y-177678814D01*
X202719889Y-177694346D01*
X202698292Y-177705890D01*
X202674867Y-177712996D01*
X202644362Y-177716000D01*
X200830638Y-177716000D01*
X200800133Y-177712996D01*
X200776708Y-177705890D01*
X200755111Y-177694346D01*
X200736186Y-177678814D01*
X200720654Y-177659889D01*
X200709110Y-177638292D01*
X200702004Y-177614867D01*
X200699000Y-177584362D01*
X200699000Y-177095638D01*
X200702004Y-177065133D01*
X200709110Y-177041708D01*
X200720654Y-177020111D01*
X200736186Y-177001186D01*
X200755111Y-176985654D01*
X200776708Y-176974110D01*
X200800133Y-176967004D01*
X200830638Y-176964000D01*
X202644362Y-176964000D01*
X202674867Y-176967004D01*
G37*
G36*
X197599867Y-176967004D02*
G01*
X197623292Y-176974110D01*
X197644889Y-176985654D01*
X197663814Y-177001186D01*
X197679346Y-177020111D01*
X197690890Y-177041708D01*
X197697996Y-177065133D01*
X197701000Y-177095638D01*
X197701000Y-177584362D01*
X197697996Y-177614867D01*
X197690890Y-177638292D01*
X197679346Y-177659889D01*
X197663814Y-177678814D01*
X197644889Y-177694346D01*
X197623292Y-177705890D01*
X197599867Y-177712996D01*
X197569362Y-177716000D01*
X195755638Y-177716000D01*
X195725133Y-177712996D01*
X195701708Y-177705890D01*
X195680111Y-177694346D01*
X195661186Y-177678814D01*
X195645654Y-177659889D01*
X195634110Y-177638292D01*
X195627004Y-177614867D01*
X195624000Y-177584362D01*
X195624000Y-177095638D01*
X195627004Y-177065133D01*
X195634110Y-177041708D01*
X195645654Y-177020111D01*
X195661186Y-177001186D01*
X195680111Y-176985654D01*
X195701708Y-176974110D01*
X195725133Y-176967004D01*
X195755638Y-176964000D01*
X197569362Y-176964000D01*
X197599867Y-176967004D01*
G37*
G36*
X183629591Y-176728085D02*
G01*
X183663569Y-176738393D01*
X183694890Y-176755134D01*
X183722339Y-176777661D01*
X183744866Y-176805110D01*
X183761607Y-176836431D01*
X183771915Y-176870409D01*
X183776000Y-176911890D01*
X183776000Y-177513110D01*
X183771915Y-177554591D01*
X183761607Y-177588569D01*
X183744866Y-177619890D01*
X183722339Y-177647339D01*
X183694890Y-177669866D01*
X183663569Y-177686607D01*
X183629591Y-177696915D01*
X183588110Y-177701000D01*
X182911890Y-177701000D01*
X182870409Y-177696915D01*
X182836431Y-177686607D01*
X182805110Y-177669866D01*
X182777661Y-177647339D01*
X182755134Y-177619890D01*
X182738393Y-177588569D01*
X182728085Y-177554591D01*
X182724000Y-177513110D01*
X182724000Y-176911890D01*
X182728085Y-176870409D01*
X182738393Y-176836431D01*
X182755134Y-176805110D01*
X182777661Y-176777661D01*
X182805110Y-176755134D01*
X182836431Y-176738393D01*
X182870409Y-176728085D01*
X182911890Y-176724000D01*
X183588110Y-176724000D01*
X183629591Y-176728085D01*
G37*
G36*
X175379591Y-176728085D02*
G01*
X175413569Y-176738393D01*
X175444890Y-176755134D01*
X175472339Y-176777661D01*
X175494866Y-176805110D01*
X175511607Y-176836431D01*
X175521915Y-176870409D01*
X175526000Y-176911890D01*
X175526000Y-177513110D01*
X175521915Y-177554591D01*
X175511607Y-177588569D01*
X175494866Y-177619890D01*
X175472339Y-177647339D01*
X175444890Y-177669866D01*
X175413569Y-177686607D01*
X175379591Y-177696915D01*
X175338110Y-177701000D01*
X174661890Y-177701000D01*
X174620409Y-177696915D01*
X174586431Y-177686607D01*
X174555110Y-177669866D01*
X174527661Y-177647339D01*
X174505134Y-177619890D01*
X174488393Y-177588569D01*
X174478085Y-177554591D01*
X174474000Y-177513110D01*
X174474000Y-176911890D01*
X174478085Y-176870409D01*
X174488393Y-176836431D01*
X174505134Y-176805110D01*
X174527661Y-176777661D01*
X174555110Y-176755134D01*
X174586431Y-176738393D01*
X174620409Y-176728085D01*
X174661890Y-176724000D01*
X175338110Y-176724000D01*
X175379591Y-176728085D01*
G37*
G36*
X187151000Y-177426000D02*
G01*
X185449000Y-177426000D01*
X185449000Y-175074000D01*
X187151000Y-175074000D01*
X187151000Y-177426000D01*
G37*
G36*
X190551000Y-177426000D02*
G01*
X188849000Y-177426000D01*
X188849000Y-175074000D01*
X190551000Y-175074000D01*
X190551000Y-177426000D01*
G37*
G36*
X163474867Y-176532004D02*
G01*
X163498292Y-176539110D01*
X163519889Y-176550654D01*
X163538814Y-176566186D01*
X163554346Y-176585111D01*
X163565890Y-176606708D01*
X163572996Y-176630133D01*
X163576000Y-176660638D01*
X163576000Y-177149362D01*
X163572996Y-177179867D01*
X163565890Y-177203292D01*
X163554346Y-177224889D01*
X163538814Y-177243814D01*
X163519889Y-177259346D01*
X163498292Y-177270890D01*
X163474867Y-177277996D01*
X163444362Y-177281000D01*
X161630638Y-177281000D01*
X161600133Y-177277996D01*
X161576708Y-177270890D01*
X161555111Y-177259346D01*
X161536186Y-177243814D01*
X161520654Y-177224889D01*
X161509110Y-177203292D01*
X161502004Y-177179867D01*
X161499000Y-177149362D01*
X161499000Y-176660638D01*
X161502004Y-176630133D01*
X161509110Y-176606708D01*
X161520654Y-176585111D01*
X161536186Y-176566186D01*
X161555111Y-176550654D01*
X161576708Y-176539110D01*
X161600133Y-176532004D01*
X161630638Y-176529000D01*
X163444362Y-176529000D01*
X163474867Y-176532004D01*
G37*
G36*
X158399867Y-176532004D02*
G01*
X158423292Y-176539110D01*
X158444889Y-176550654D01*
X158463814Y-176566186D01*
X158479346Y-176585111D01*
X158490890Y-176606708D01*
X158497996Y-176630133D01*
X158501000Y-176660638D01*
X158501000Y-177149362D01*
X158497996Y-177179867D01*
X158490890Y-177203292D01*
X158479346Y-177224889D01*
X158463814Y-177243814D01*
X158444889Y-177259346D01*
X158423292Y-177270890D01*
X158399867Y-177277996D01*
X158369362Y-177281000D01*
X156555638Y-177281000D01*
X156525133Y-177277996D01*
X156501708Y-177270890D01*
X156480111Y-177259346D01*
X156461186Y-177243814D01*
X156445654Y-177224889D01*
X156434110Y-177203292D01*
X156427004Y-177179867D01*
X156424000Y-177149362D01*
X156424000Y-176660638D01*
X156427004Y-176630133D01*
X156434110Y-176606708D01*
X156445654Y-176585111D01*
X156461186Y-176566186D01*
X156480111Y-176550654D01*
X156501708Y-176539110D01*
X156525133Y-176532004D01*
X156555638Y-176529000D01*
X158369362Y-176529000D01*
X158399867Y-176532004D01*
G37*
G36*
X169901000Y-177176000D02*
G01*
X168199000Y-177176000D01*
X168199000Y-174824000D01*
X169901000Y-174824000D01*
X169901000Y-177176000D01*
G37*
G36*
X173301000Y-177176000D02*
G01*
X171599000Y-177176000D01*
X171599000Y-174824000D01*
X173301000Y-174824000D01*
X173301000Y-177176000D01*
G37*
G36*
X252996800Y-175292592D02*
G01*
X253152812Y-175323624D01*
X253316784Y-175391544D01*
X253464354Y-175490147D01*
X253589853Y-175615646D01*
X253688456Y-175763216D01*
X253756376Y-175927188D01*
X253791000Y-176101259D01*
X253791000Y-176278741D01*
X253756376Y-176452812D01*
X253688456Y-176616784D01*
X253589853Y-176764354D01*
X253464354Y-176889853D01*
X253316784Y-176988456D01*
X253152812Y-177056376D01*
X253003512Y-177086073D01*
X252978742Y-177091000D01*
X252801258Y-177091000D01*
X252776488Y-177086073D01*
X252627188Y-177056376D01*
X252463216Y-176988456D01*
X252315646Y-176889853D01*
X252190147Y-176764354D01*
X252091544Y-176616784D01*
X252023624Y-176452812D01*
X251989000Y-176278741D01*
X251989000Y-176101259D01*
X252023624Y-175927188D01*
X252091544Y-175763216D01*
X252190147Y-175615646D01*
X252315646Y-175490147D01*
X252463216Y-175391544D01*
X252627188Y-175323624D01*
X252783200Y-175292592D01*
X252801258Y-175289000D01*
X252978742Y-175289000D01*
X252996800Y-175292592D01*
G37*
G36*
X155379591Y-175978085D02*
G01*
X155413569Y-175988393D01*
X155444890Y-176005134D01*
X155472339Y-176027661D01*
X155494866Y-176055110D01*
X155511607Y-176086431D01*
X155521915Y-176120409D01*
X155526000Y-176161890D01*
X155526000Y-176763110D01*
X155521915Y-176804591D01*
X155511607Y-176838569D01*
X155494866Y-176869890D01*
X155472339Y-176897339D01*
X155444890Y-176919866D01*
X155413569Y-176936607D01*
X155379591Y-176946915D01*
X155338110Y-176951000D01*
X154661890Y-176951000D01*
X154620409Y-176946915D01*
X154586431Y-176936607D01*
X154555110Y-176919866D01*
X154527661Y-176897339D01*
X154505134Y-176869890D01*
X154488393Y-176838569D01*
X154478085Y-176804591D01*
X154474000Y-176763110D01*
X154474000Y-176161890D01*
X154478085Y-176120409D01*
X154488393Y-176086431D01*
X154505134Y-176055110D01*
X154527661Y-176027661D01*
X154555110Y-176005134D01*
X154586431Y-175988393D01*
X154620409Y-175978085D01*
X154661890Y-175974000D01*
X155338110Y-175974000D01*
X155379591Y-175978085D01*
G37*
G36*
X204779591Y-175528085D02*
G01*
X204813569Y-175538393D01*
X204844890Y-175555134D01*
X204872339Y-175577661D01*
X204894866Y-175605110D01*
X204911607Y-175636431D01*
X204921915Y-175670409D01*
X204926000Y-175711890D01*
X204926000Y-176313110D01*
X204921915Y-176354591D01*
X204911607Y-176388569D01*
X204894866Y-176419890D01*
X204872339Y-176447339D01*
X204844890Y-176469866D01*
X204813569Y-176486607D01*
X204779591Y-176496915D01*
X204738110Y-176501000D01*
X204061890Y-176501000D01*
X204020409Y-176496915D01*
X203986431Y-176486607D01*
X203955110Y-176469866D01*
X203927661Y-176447339D01*
X203905134Y-176419890D01*
X203888393Y-176388569D01*
X203878085Y-176354591D01*
X203874000Y-176313110D01*
X203874000Y-175711890D01*
X203878085Y-175670409D01*
X203888393Y-175636431D01*
X203905134Y-175605110D01*
X203927661Y-175577661D01*
X203955110Y-175555134D01*
X203986431Y-175538393D01*
X204020409Y-175528085D01*
X204061890Y-175524000D01*
X204738110Y-175524000D01*
X204779591Y-175528085D01*
G37*
G36*
X202674867Y-175697004D02*
G01*
X202698292Y-175704110D01*
X202719889Y-175715654D01*
X202738814Y-175731186D01*
X202754346Y-175750111D01*
X202765890Y-175771708D01*
X202772996Y-175795133D01*
X202776000Y-175825638D01*
X202776000Y-176314362D01*
X202772996Y-176344867D01*
X202765890Y-176368292D01*
X202754346Y-176389889D01*
X202738814Y-176408814D01*
X202719889Y-176424346D01*
X202698292Y-176435890D01*
X202674867Y-176442996D01*
X202644362Y-176446000D01*
X200830638Y-176446000D01*
X200800133Y-176442996D01*
X200776708Y-176435890D01*
X200755111Y-176424346D01*
X200736186Y-176408814D01*
X200720654Y-176389889D01*
X200709110Y-176368292D01*
X200702004Y-176344867D01*
X200699000Y-176314362D01*
X200699000Y-175825638D01*
X200702004Y-175795133D01*
X200709110Y-175771708D01*
X200720654Y-175750111D01*
X200736186Y-175731186D01*
X200755111Y-175715654D01*
X200776708Y-175704110D01*
X200800133Y-175697004D01*
X200830638Y-175694000D01*
X202644362Y-175694000D01*
X202674867Y-175697004D01*
G37*
G36*
X197599867Y-175697004D02*
G01*
X197623292Y-175704110D01*
X197644889Y-175715654D01*
X197663814Y-175731186D01*
X197679346Y-175750111D01*
X197690890Y-175771708D01*
X197697996Y-175795133D01*
X197701000Y-175825638D01*
X197701000Y-176314362D01*
X197697996Y-176344867D01*
X197690890Y-176368292D01*
X197679346Y-176389889D01*
X197663814Y-176408814D01*
X197644889Y-176424346D01*
X197623292Y-176435890D01*
X197599867Y-176442996D01*
X197569362Y-176446000D01*
X195755638Y-176446000D01*
X195725133Y-176442996D01*
X195701708Y-176435890D01*
X195680111Y-176424346D01*
X195661186Y-176408814D01*
X195645654Y-176389889D01*
X195634110Y-176368292D01*
X195627004Y-176344867D01*
X195624000Y-176314362D01*
X195624000Y-175825638D01*
X195627004Y-175795133D01*
X195634110Y-175771708D01*
X195645654Y-175750111D01*
X195661186Y-175731186D01*
X195680111Y-175715654D01*
X195701708Y-175704110D01*
X195725133Y-175697004D01*
X195755638Y-175694000D01*
X197569362Y-175694000D01*
X197599867Y-175697004D01*
G37*
G36*
X192554591Y-175278085D02*
G01*
X192588569Y-175288393D01*
X192619890Y-175305134D01*
X192647339Y-175327661D01*
X192669866Y-175355110D01*
X192686607Y-175386431D01*
X192696915Y-175420409D01*
X192701000Y-175461890D01*
X192701000Y-176138110D01*
X192696915Y-176179591D01*
X192686607Y-176213569D01*
X192669866Y-176244890D01*
X192647339Y-176272339D01*
X192619890Y-176294866D01*
X192588569Y-176311607D01*
X192554591Y-176321915D01*
X192513110Y-176326000D01*
X191911890Y-176326000D01*
X191870409Y-176321915D01*
X191836431Y-176311607D01*
X191805110Y-176294866D01*
X191777661Y-176272339D01*
X191755134Y-176244890D01*
X191738393Y-176213569D01*
X191728085Y-176179591D01*
X191724000Y-176138110D01*
X191724000Y-175461890D01*
X191728085Y-175420409D01*
X191738393Y-175386431D01*
X191755134Y-175355110D01*
X191777661Y-175327661D01*
X191805110Y-175305134D01*
X191836431Y-175288393D01*
X191870409Y-175278085D01*
X191911890Y-175274000D01*
X192513110Y-175274000D01*
X192554591Y-175278085D01*
G37*
G36*
X194129591Y-175278085D02*
G01*
X194163569Y-175288393D01*
X194194890Y-175305134D01*
X194222339Y-175327661D01*
X194244866Y-175355110D01*
X194261607Y-175386431D01*
X194271915Y-175420409D01*
X194276000Y-175461890D01*
X194276000Y-176138110D01*
X194271915Y-176179591D01*
X194261607Y-176213569D01*
X194244866Y-176244890D01*
X194222339Y-176272339D01*
X194194890Y-176294866D01*
X194163569Y-176311607D01*
X194129591Y-176321915D01*
X194088110Y-176326000D01*
X193486890Y-176326000D01*
X193445409Y-176321915D01*
X193411431Y-176311607D01*
X193380110Y-176294866D01*
X193352661Y-176272339D01*
X193330134Y-176244890D01*
X193313393Y-176213569D01*
X193303085Y-176179591D01*
X193299000Y-176138110D01*
X193299000Y-175461890D01*
X193303085Y-175420409D01*
X193313393Y-175386431D01*
X193330134Y-175355110D01*
X193352661Y-175327661D01*
X193380110Y-175305134D01*
X193411431Y-175288393D01*
X193445409Y-175278085D01*
X193486890Y-175274000D01*
X194088110Y-175274000D01*
X194129591Y-175278085D01*
G37*
G36*
X165304591Y-175228085D02*
G01*
X165338569Y-175238393D01*
X165369890Y-175255134D01*
X165397339Y-175277661D01*
X165419866Y-175305110D01*
X165436607Y-175336431D01*
X165446915Y-175370409D01*
X165451000Y-175411890D01*
X165451000Y-176088110D01*
X165446915Y-176129591D01*
X165436607Y-176163569D01*
X165419866Y-176194890D01*
X165397339Y-176222339D01*
X165369890Y-176244866D01*
X165338569Y-176261607D01*
X165304591Y-176271915D01*
X165263110Y-176276000D01*
X164661890Y-176276000D01*
X164620409Y-176271915D01*
X164586431Y-176261607D01*
X164555110Y-176244866D01*
X164527661Y-176222339D01*
X164505134Y-176194890D01*
X164488393Y-176163569D01*
X164478085Y-176129591D01*
X164474000Y-176088110D01*
X164474000Y-175411890D01*
X164478085Y-175370409D01*
X164488393Y-175336431D01*
X164505134Y-175305110D01*
X164527661Y-175277661D01*
X164555110Y-175255134D01*
X164586431Y-175238393D01*
X164620409Y-175228085D01*
X164661890Y-175224000D01*
X165263110Y-175224000D01*
X165304591Y-175228085D01*
G37*
G36*
X166879591Y-175228085D02*
G01*
X166913569Y-175238393D01*
X166944890Y-175255134D01*
X166972339Y-175277661D01*
X166994866Y-175305110D01*
X167011607Y-175336431D01*
X167021915Y-175370409D01*
X167026000Y-175411890D01*
X167026000Y-176088110D01*
X167021915Y-176129591D01*
X167011607Y-176163569D01*
X166994866Y-176194890D01*
X166972339Y-176222339D01*
X166944890Y-176244866D01*
X166913569Y-176261607D01*
X166879591Y-176271915D01*
X166838110Y-176276000D01*
X166236890Y-176276000D01*
X166195409Y-176271915D01*
X166161431Y-176261607D01*
X166130110Y-176244866D01*
X166102661Y-176222339D01*
X166080134Y-176194890D01*
X166063393Y-176163569D01*
X166053085Y-176129591D01*
X166049000Y-176088110D01*
X166049000Y-175411890D01*
X166053085Y-175370409D01*
X166063393Y-175336431D01*
X166080134Y-175305110D01*
X166102661Y-175277661D01*
X166130110Y-175255134D01*
X166161431Y-175238393D01*
X166195409Y-175228085D01*
X166236890Y-175224000D01*
X166838110Y-175224000D01*
X166879591Y-175228085D01*
G37*
G36*
X163474867Y-175262004D02*
G01*
X163498292Y-175269110D01*
X163519889Y-175280654D01*
X163538814Y-175296186D01*
X163554346Y-175315111D01*
X163565890Y-175336708D01*
X163572996Y-175360133D01*
X163576000Y-175390638D01*
X163576000Y-175879362D01*
X163572996Y-175909867D01*
X163565890Y-175933292D01*
X163554346Y-175954889D01*
X163538814Y-175973814D01*
X163519889Y-175989346D01*
X163498292Y-176000890D01*
X163474867Y-176007996D01*
X163444362Y-176011000D01*
X161630638Y-176011000D01*
X161600133Y-176007996D01*
X161576708Y-176000890D01*
X161555111Y-175989346D01*
X161536186Y-175973814D01*
X161520654Y-175954889D01*
X161509110Y-175933292D01*
X161502004Y-175909867D01*
X161499000Y-175879362D01*
X161499000Y-175390638D01*
X161502004Y-175360133D01*
X161509110Y-175336708D01*
X161520654Y-175315111D01*
X161536186Y-175296186D01*
X161555111Y-175280654D01*
X161576708Y-175269110D01*
X161600133Y-175262004D01*
X161630638Y-175259000D01*
X163444362Y-175259000D01*
X163474867Y-175262004D01*
G37*
G36*
X158399867Y-175262004D02*
G01*
X158423292Y-175269110D01*
X158444889Y-175280654D01*
X158463814Y-175296186D01*
X158479346Y-175315111D01*
X158490890Y-175336708D01*
X158497996Y-175360133D01*
X158501000Y-175390638D01*
X158501000Y-175879362D01*
X158497996Y-175909867D01*
X158490890Y-175933292D01*
X158479346Y-175954889D01*
X158463814Y-175973814D01*
X158444889Y-175989346D01*
X158423292Y-176000890D01*
X158399867Y-176007996D01*
X158369362Y-176011000D01*
X156555638Y-176011000D01*
X156525133Y-176007996D01*
X156501708Y-176000890D01*
X156480111Y-175989346D01*
X156461186Y-175973814D01*
X156445654Y-175954889D01*
X156434110Y-175933292D01*
X156427004Y-175909867D01*
X156424000Y-175879362D01*
X156424000Y-175390638D01*
X156427004Y-175360133D01*
X156434110Y-175336708D01*
X156445654Y-175315111D01*
X156461186Y-175296186D01*
X156480111Y-175280654D01*
X156501708Y-175269110D01*
X156525133Y-175262004D01*
X156555638Y-175259000D01*
X158369362Y-175259000D01*
X158399867Y-175262004D01*
G37*
G36*
X197599867Y-174427004D02*
G01*
X197623292Y-174434110D01*
X197644889Y-174445654D01*
X197663814Y-174461186D01*
X197679346Y-174480111D01*
X197690890Y-174501708D01*
X197697996Y-174525133D01*
X197701000Y-174555638D01*
X197701000Y-175044362D01*
X197697996Y-175074867D01*
X197690890Y-175098292D01*
X197679346Y-175119889D01*
X197663814Y-175138814D01*
X197644889Y-175154346D01*
X197623292Y-175165890D01*
X197599867Y-175172996D01*
X197569362Y-175176000D01*
X195755638Y-175176000D01*
X195725133Y-175172996D01*
X195701708Y-175165890D01*
X195680111Y-175154346D01*
X195661186Y-175138814D01*
X195645654Y-175119889D01*
X195634110Y-175098292D01*
X195627004Y-175074867D01*
X195624000Y-175044362D01*
X195624000Y-174555638D01*
X195627004Y-174525133D01*
X195634110Y-174501708D01*
X195645654Y-174480111D01*
X195661186Y-174461186D01*
X195680111Y-174445654D01*
X195701708Y-174434110D01*
X195725133Y-174427004D01*
X195755638Y-174424000D01*
X197569362Y-174424000D01*
X197599867Y-174427004D01*
G37*
G36*
X202674867Y-174427004D02*
G01*
X202698292Y-174434110D01*
X202719889Y-174445654D01*
X202738814Y-174461186D01*
X202754346Y-174480111D01*
X202765890Y-174501708D01*
X202772996Y-174525133D01*
X202776000Y-174555638D01*
X202776000Y-175044362D01*
X202772996Y-175074867D01*
X202765890Y-175098292D01*
X202754346Y-175119889D01*
X202738814Y-175138814D01*
X202719889Y-175154346D01*
X202698292Y-175165890D01*
X202674867Y-175172996D01*
X202644362Y-175176000D01*
X200830638Y-175176000D01*
X200800133Y-175172996D01*
X200776708Y-175165890D01*
X200755111Y-175154346D01*
X200736186Y-175138814D01*
X200720654Y-175119889D01*
X200709110Y-175098292D01*
X200702004Y-175074867D01*
X200699000Y-175044362D01*
X200699000Y-174555638D01*
X200702004Y-174525133D01*
X200709110Y-174501708D01*
X200720654Y-174480111D01*
X200736186Y-174461186D01*
X200755111Y-174445654D01*
X200776708Y-174434110D01*
X200800133Y-174427004D01*
X200830638Y-174424000D01*
X202644362Y-174424000D01*
X202674867Y-174427004D01*
G37*
G36*
X155379591Y-174053085D02*
G01*
X155413569Y-174063393D01*
X155444890Y-174080134D01*
X155472339Y-174102661D01*
X155494866Y-174130110D01*
X155511607Y-174161431D01*
X155521915Y-174195409D01*
X155526000Y-174236890D01*
X155526000Y-174838110D01*
X155521915Y-174879591D01*
X155511607Y-174913569D01*
X155494866Y-174944890D01*
X155472339Y-174972339D01*
X155444890Y-174994866D01*
X155413569Y-175011607D01*
X155379591Y-175021915D01*
X155338110Y-175026000D01*
X154661890Y-175026000D01*
X154620409Y-175021915D01*
X154586431Y-175011607D01*
X154555110Y-174994866D01*
X154527661Y-174972339D01*
X154505134Y-174944890D01*
X154488393Y-174913569D01*
X154478085Y-174879591D01*
X154474000Y-174838110D01*
X154474000Y-174236890D01*
X154478085Y-174195409D01*
X154488393Y-174161431D01*
X154505134Y-174130110D01*
X154527661Y-174102661D01*
X154555110Y-174080134D01*
X154586431Y-174063393D01*
X154620409Y-174053085D01*
X154661890Y-174049000D01*
X155338110Y-174049000D01*
X155379591Y-174053085D01*
G37*
G36*
X204779591Y-173903085D02*
G01*
X204813569Y-173913393D01*
X204844890Y-173930134D01*
X204872339Y-173952661D01*
X204894866Y-173980110D01*
X204911607Y-174011431D01*
X204921915Y-174045409D01*
X204926000Y-174086890D01*
X204926000Y-174688110D01*
X204921915Y-174729591D01*
X204911607Y-174763569D01*
X204894866Y-174794890D01*
X204872339Y-174822339D01*
X204844890Y-174844866D01*
X204813569Y-174861607D01*
X204779591Y-174871915D01*
X204738110Y-174876000D01*
X204061890Y-174876000D01*
X204020409Y-174871915D01*
X203986431Y-174861607D01*
X203955110Y-174844866D01*
X203927661Y-174822339D01*
X203905134Y-174794890D01*
X203888393Y-174763569D01*
X203878085Y-174729591D01*
X203874000Y-174688110D01*
X203874000Y-174086890D01*
X203878085Y-174045409D01*
X203888393Y-174011431D01*
X203905134Y-173980110D01*
X203927661Y-173952661D01*
X203955110Y-173930134D01*
X203986431Y-173913393D01*
X204020409Y-173903085D01*
X204061890Y-173899000D01*
X204738110Y-173899000D01*
X204779591Y-173903085D01*
G37*
G36*
X163474867Y-173992004D02*
G01*
X163498292Y-173999110D01*
X163519889Y-174010654D01*
X163538814Y-174026186D01*
X163554346Y-174045111D01*
X163565890Y-174066708D01*
X163572996Y-174090133D01*
X163576000Y-174120638D01*
X163576000Y-174609362D01*
X163572996Y-174639867D01*
X163565890Y-174663292D01*
X163554346Y-174684889D01*
X163538814Y-174703814D01*
X163519889Y-174719346D01*
X163498292Y-174730890D01*
X163474867Y-174737996D01*
X163444362Y-174741000D01*
X161630638Y-174741000D01*
X161600133Y-174737996D01*
X161576708Y-174730890D01*
X161555111Y-174719346D01*
X161536186Y-174703814D01*
X161520654Y-174684889D01*
X161509110Y-174663292D01*
X161502004Y-174639867D01*
X161499000Y-174609362D01*
X161499000Y-174120638D01*
X161502004Y-174090133D01*
X161509110Y-174066708D01*
X161520654Y-174045111D01*
X161536186Y-174026186D01*
X161555111Y-174010654D01*
X161576708Y-173999110D01*
X161600133Y-173992004D01*
X161630638Y-173989000D01*
X163444362Y-173989000D01*
X163474867Y-173992004D01*
G37*
G36*
X158399867Y-173992004D02*
G01*
X158423292Y-173999110D01*
X158444889Y-174010654D01*
X158463814Y-174026186D01*
X158479346Y-174045111D01*
X158490890Y-174066708D01*
X158497996Y-174090133D01*
X158501000Y-174120638D01*
X158501000Y-174609362D01*
X158497996Y-174639867D01*
X158490890Y-174663292D01*
X158479346Y-174684889D01*
X158463814Y-174703814D01*
X158444889Y-174719346D01*
X158423292Y-174730890D01*
X158399867Y-174737996D01*
X158369362Y-174741000D01*
X156555638Y-174741000D01*
X156525133Y-174737996D01*
X156501708Y-174730890D01*
X156480111Y-174719346D01*
X156461186Y-174703814D01*
X156445654Y-174684889D01*
X156434110Y-174663292D01*
X156427004Y-174639867D01*
X156424000Y-174609362D01*
X156424000Y-174120638D01*
X156427004Y-174090133D01*
X156434110Y-174066708D01*
X156445654Y-174045111D01*
X156461186Y-174026186D01*
X156480111Y-174010654D01*
X156501708Y-173999110D01*
X156525133Y-173992004D01*
X156555638Y-173989000D01*
X158369362Y-173989000D01*
X158399867Y-173992004D01*
G37*
G36*
X253791000Y-174551000D02*
G01*
X251989000Y-174551000D01*
X251989000Y-172749000D01*
X253791000Y-172749000D01*
X253791000Y-174551000D01*
G37*
G36*
X165304591Y-173478085D02*
G01*
X165338569Y-173488393D01*
X165369890Y-173505134D01*
X165397339Y-173527661D01*
X165419866Y-173555110D01*
X165436607Y-173586431D01*
X165446915Y-173620409D01*
X165451000Y-173661890D01*
X165451000Y-174338110D01*
X165446915Y-174379591D01*
X165436607Y-174413569D01*
X165419866Y-174444890D01*
X165397339Y-174472339D01*
X165369890Y-174494866D01*
X165338569Y-174511607D01*
X165304591Y-174521915D01*
X165263110Y-174526000D01*
X164661890Y-174526000D01*
X164620409Y-174521915D01*
X164586431Y-174511607D01*
X164555110Y-174494866D01*
X164527661Y-174472339D01*
X164505134Y-174444890D01*
X164488393Y-174413569D01*
X164478085Y-174379591D01*
X164474000Y-174338110D01*
X164474000Y-173661890D01*
X164478085Y-173620409D01*
X164488393Y-173586431D01*
X164505134Y-173555110D01*
X164527661Y-173527661D01*
X164555110Y-173505134D01*
X164586431Y-173488393D01*
X164620409Y-173478085D01*
X164661890Y-173474000D01*
X165263110Y-173474000D01*
X165304591Y-173478085D01*
G37*
G36*
X166879591Y-173478085D02*
G01*
X166913569Y-173488393D01*
X166944890Y-173505134D01*
X166972339Y-173527661D01*
X166994866Y-173555110D01*
X167011607Y-173586431D01*
X167021915Y-173620409D01*
X167026000Y-173661890D01*
X167026000Y-174338110D01*
X167021915Y-174379591D01*
X167011607Y-174413569D01*
X166994866Y-174444890D01*
X166972339Y-174472339D01*
X166944890Y-174494866D01*
X166913569Y-174511607D01*
X166879591Y-174521915D01*
X166838110Y-174526000D01*
X166236890Y-174526000D01*
X166195409Y-174521915D01*
X166161431Y-174511607D01*
X166130110Y-174494866D01*
X166102661Y-174472339D01*
X166080134Y-174444890D01*
X166063393Y-174413569D01*
X166053085Y-174379591D01*
X166049000Y-174338110D01*
X166049000Y-173661890D01*
X166053085Y-173620409D01*
X166063393Y-173586431D01*
X166080134Y-173555110D01*
X166102661Y-173527661D01*
X166130110Y-173505134D01*
X166161431Y-173488393D01*
X166195409Y-173478085D01*
X166236890Y-173474000D01*
X166838110Y-173474000D01*
X166879591Y-173478085D01*
G37*
G36*
X192554591Y-173278085D02*
G01*
X192588569Y-173288393D01*
X192619890Y-173305134D01*
X192647339Y-173327661D01*
X192669866Y-173355110D01*
X192686607Y-173386431D01*
X192696915Y-173420409D01*
X192701000Y-173461890D01*
X192701000Y-174138110D01*
X192696915Y-174179591D01*
X192686607Y-174213569D01*
X192669866Y-174244890D01*
X192647339Y-174272339D01*
X192619890Y-174294866D01*
X192588569Y-174311607D01*
X192554591Y-174321915D01*
X192513110Y-174326000D01*
X191911890Y-174326000D01*
X191870409Y-174321915D01*
X191836431Y-174311607D01*
X191805110Y-174294866D01*
X191777661Y-174272339D01*
X191755134Y-174244890D01*
X191738393Y-174213569D01*
X191728085Y-174179591D01*
X191724000Y-174138110D01*
X191724000Y-173461890D01*
X191728085Y-173420409D01*
X191738393Y-173386431D01*
X191755134Y-173355110D01*
X191777661Y-173327661D01*
X191805110Y-173305134D01*
X191836431Y-173288393D01*
X191870409Y-173278085D01*
X191911890Y-173274000D01*
X192513110Y-173274000D01*
X192554591Y-173278085D01*
G37*
G36*
X194129591Y-173278085D02*
G01*
X194163569Y-173288393D01*
X194194890Y-173305134D01*
X194222339Y-173327661D01*
X194244866Y-173355110D01*
X194261607Y-173386431D01*
X194271915Y-173420409D01*
X194276000Y-173461890D01*
X194276000Y-174138110D01*
X194271915Y-174179591D01*
X194261607Y-174213569D01*
X194244866Y-174244890D01*
X194222339Y-174272339D01*
X194194890Y-174294866D01*
X194163569Y-174311607D01*
X194129591Y-174321915D01*
X194088110Y-174326000D01*
X193486890Y-174326000D01*
X193445409Y-174321915D01*
X193411431Y-174311607D01*
X193380110Y-174294866D01*
X193352661Y-174272339D01*
X193330134Y-174244890D01*
X193313393Y-174213569D01*
X193303085Y-174179591D01*
X193299000Y-174138110D01*
X193299000Y-173461890D01*
X193303085Y-173420409D01*
X193313393Y-173386431D01*
X193330134Y-173355110D01*
X193352661Y-173327661D01*
X193380110Y-173305134D01*
X193411431Y-173288393D01*
X193445409Y-173278085D01*
X193486890Y-173274000D01*
X194088110Y-173274000D01*
X194129591Y-173278085D01*
G37*
G36*
X202674867Y-173157004D02*
G01*
X202698292Y-173164110D01*
X202719889Y-173175654D01*
X202738814Y-173191186D01*
X202754346Y-173210111D01*
X202765890Y-173231708D01*
X202772996Y-173255133D01*
X202776000Y-173285638D01*
X202776000Y-173774362D01*
X202772996Y-173804867D01*
X202765890Y-173828292D01*
X202754346Y-173849889D01*
X202738814Y-173868814D01*
X202719889Y-173884346D01*
X202698292Y-173895890D01*
X202674867Y-173902996D01*
X202644362Y-173906000D01*
X200830638Y-173906000D01*
X200800133Y-173902996D01*
X200776708Y-173895890D01*
X200755111Y-173884346D01*
X200736186Y-173868814D01*
X200720654Y-173849889D01*
X200709110Y-173828292D01*
X200702004Y-173804867D01*
X200699000Y-173774362D01*
X200699000Y-173285638D01*
X200702004Y-173255133D01*
X200709110Y-173231708D01*
X200720654Y-173210111D01*
X200736186Y-173191186D01*
X200755111Y-173175654D01*
X200776708Y-173164110D01*
X200800133Y-173157004D01*
X200830638Y-173154000D01*
X202644362Y-173154000D01*
X202674867Y-173157004D01*
G37*
G36*
X197599867Y-173157004D02*
G01*
X197623292Y-173164110D01*
X197644889Y-173175654D01*
X197663814Y-173191186D01*
X197679346Y-173210111D01*
X197690890Y-173231708D01*
X197697996Y-173255133D01*
X197701000Y-173285638D01*
X197701000Y-173774362D01*
X197697996Y-173804867D01*
X197690890Y-173828292D01*
X197679346Y-173849889D01*
X197663814Y-173868814D01*
X197644889Y-173884346D01*
X197623292Y-173895890D01*
X197599867Y-173902996D01*
X197569362Y-173906000D01*
X195755638Y-173906000D01*
X195725133Y-173902996D01*
X195701708Y-173895890D01*
X195680111Y-173884346D01*
X195661186Y-173868814D01*
X195645654Y-173849889D01*
X195634110Y-173828292D01*
X195627004Y-173804867D01*
X195624000Y-173774362D01*
X195624000Y-173285638D01*
X195627004Y-173255133D01*
X195634110Y-173231708D01*
X195645654Y-173210111D01*
X195661186Y-173191186D01*
X195680111Y-173175654D01*
X195701708Y-173164110D01*
X195725133Y-173157004D01*
X195755638Y-173154000D01*
X197569362Y-173154000D01*
X197599867Y-173157004D01*
G37*
G36*
X158399867Y-172722004D02*
G01*
X158423292Y-172729110D01*
X158444889Y-172740654D01*
X158463814Y-172756186D01*
X158479346Y-172775111D01*
X158490890Y-172796708D01*
X158497996Y-172820133D01*
X158501000Y-172850638D01*
X158501000Y-173339362D01*
X158497996Y-173369867D01*
X158490890Y-173393292D01*
X158479346Y-173414889D01*
X158463814Y-173433814D01*
X158444889Y-173449346D01*
X158423292Y-173460890D01*
X158399867Y-173467996D01*
X158369362Y-173471000D01*
X156555638Y-173471000D01*
X156525133Y-173467996D01*
X156501708Y-173460890D01*
X156480111Y-173449346D01*
X156461186Y-173433814D01*
X156445654Y-173414889D01*
X156434110Y-173393292D01*
X156427004Y-173369867D01*
X156424000Y-173339362D01*
X156424000Y-172850638D01*
X156427004Y-172820133D01*
X156434110Y-172796708D01*
X156445654Y-172775111D01*
X156461186Y-172756186D01*
X156480111Y-172740654D01*
X156501708Y-172729110D01*
X156525133Y-172722004D01*
X156555638Y-172719000D01*
X158369362Y-172719000D01*
X158399867Y-172722004D01*
G37*
G36*
X163474867Y-172722004D02*
G01*
X163498292Y-172729110D01*
X163519889Y-172740654D01*
X163538814Y-172756186D01*
X163554346Y-172775111D01*
X163565890Y-172796708D01*
X163572996Y-172820133D01*
X163576000Y-172850638D01*
X163576000Y-173339362D01*
X163572996Y-173369867D01*
X163565890Y-173393292D01*
X163554346Y-173414889D01*
X163538814Y-173433814D01*
X163519889Y-173449346D01*
X163498292Y-173460890D01*
X163474867Y-173467996D01*
X163444362Y-173471000D01*
X161630638Y-173471000D01*
X161600133Y-173467996D01*
X161576708Y-173460890D01*
X161555111Y-173449346D01*
X161536186Y-173433814D01*
X161520654Y-173414889D01*
X161509110Y-173393292D01*
X161502004Y-173369867D01*
X161499000Y-173339362D01*
X161499000Y-172850638D01*
X161502004Y-172820133D01*
X161509110Y-172796708D01*
X161520654Y-172775111D01*
X161536186Y-172756186D01*
X161555111Y-172740654D01*
X161576708Y-172729110D01*
X161600133Y-172722004D01*
X161630638Y-172719000D01*
X163444362Y-172719000D01*
X163474867Y-172722004D01*
G37*
G36*
X155379591Y-172478085D02*
G01*
X155413569Y-172488393D01*
X155444890Y-172505134D01*
X155472339Y-172527661D01*
X155494866Y-172555110D01*
X155511607Y-172586431D01*
X155521915Y-172620409D01*
X155526000Y-172661890D01*
X155526000Y-173263110D01*
X155521915Y-173304591D01*
X155511607Y-173338569D01*
X155494866Y-173369890D01*
X155472339Y-173397339D01*
X155444890Y-173419866D01*
X155413569Y-173436607D01*
X155379591Y-173446915D01*
X155338110Y-173451000D01*
X154661890Y-173451000D01*
X154620409Y-173446915D01*
X154586431Y-173436607D01*
X154555110Y-173419866D01*
X154527661Y-173397339D01*
X154505134Y-173369890D01*
X154488393Y-173338569D01*
X154478085Y-173304591D01*
X154474000Y-173263110D01*
X154474000Y-172661890D01*
X154478085Y-172620409D01*
X154488393Y-172586431D01*
X154505134Y-172555110D01*
X154527661Y-172527661D01*
X154555110Y-172505134D01*
X154586431Y-172488393D01*
X154620409Y-172478085D01*
X154661890Y-172474000D01*
X155338110Y-172474000D01*
X155379591Y-172478085D01*
G37*
G36*
X204779591Y-172328085D02*
G01*
X204813569Y-172338393D01*
X204844890Y-172355134D01*
X204872339Y-172377661D01*
X204894866Y-172405110D01*
X204911607Y-172436431D01*
X204921915Y-172470409D01*
X204926000Y-172511890D01*
X204926000Y-173113110D01*
X204921915Y-173154591D01*
X204911607Y-173188569D01*
X204894866Y-173219890D01*
X204872339Y-173247339D01*
X204844890Y-173269866D01*
X204813569Y-173286607D01*
X204779591Y-173296915D01*
X204738110Y-173301000D01*
X204061890Y-173301000D01*
X204020409Y-173296915D01*
X203986431Y-173286607D01*
X203955110Y-173269866D01*
X203927661Y-173247339D01*
X203905134Y-173219890D01*
X203888393Y-173188569D01*
X203878085Y-173154591D01*
X203874000Y-173113110D01*
X203874000Y-172511890D01*
X203878085Y-172470409D01*
X203888393Y-172436431D01*
X203905134Y-172405110D01*
X203927661Y-172377661D01*
X203955110Y-172355134D01*
X203986431Y-172338393D01*
X204020409Y-172328085D01*
X204061890Y-172324000D01*
X204738110Y-172324000D01*
X204779591Y-172328085D01*
G37*
G36*
X183084468Y-160153565D02*
G01*
X183123138Y-160165296D01*
X183158777Y-160184346D01*
X183190017Y-160209983D01*
X183215654Y-160241223D01*
X183234704Y-160276862D01*
X183246435Y-160315532D01*
X183251000Y-160361888D01*
X183251000Y-161013112D01*
X183246435Y-161059468D01*
X183234704Y-161098138D01*
X183215654Y-161133777D01*
X183190017Y-161165017D01*
X183158777Y-161190654D01*
X183123138Y-161209704D01*
X183084468Y-161221435D01*
X183038112Y-161226000D01*
X181961888Y-161226000D01*
X181915532Y-161221435D01*
X181876862Y-161209704D01*
X181841223Y-161190654D01*
X181809983Y-161165017D01*
X181784346Y-161133777D01*
X181765296Y-161098138D01*
X181753565Y-161059468D01*
X181749000Y-161013112D01*
X181749000Y-160361888D01*
X181753565Y-160315532D01*
X181765296Y-160276862D01*
X181784346Y-160241223D01*
X181809983Y-160209983D01*
X181841223Y-160184346D01*
X181876862Y-160165296D01*
X181915532Y-160153565D01*
X181961888Y-160149000D01*
X183038112Y-160149000D01*
X183084468Y-160153565D01*
G37*
G36*
X189834468Y-160153565D02*
G01*
X189873138Y-160165296D01*
X189908777Y-160184346D01*
X189940017Y-160209983D01*
X189965654Y-160241223D01*
X189984704Y-160276862D01*
X189996435Y-160315532D01*
X190001000Y-160361888D01*
X190001000Y-161013112D01*
X189996435Y-161059468D01*
X189984704Y-161098138D01*
X189965654Y-161133777D01*
X189940017Y-161165017D01*
X189908777Y-161190654D01*
X189873138Y-161209704D01*
X189834468Y-161221435D01*
X189788112Y-161226000D01*
X188711888Y-161226000D01*
X188665532Y-161221435D01*
X188626862Y-161209704D01*
X188591223Y-161190654D01*
X188559983Y-161165017D01*
X188534346Y-161133777D01*
X188515296Y-161098138D01*
X188503565Y-161059468D01*
X188499000Y-161013112D01*
X188499000Y-160361888D01*
X188503565Y-160315532D01*
X188515296Y-160276862D01*
X188534346Y-160241223D01*
X188559983Y-160209983D01*
X188591223Y-160184346D01*
X188626862Y-160165296D01*
X188665532Y-160153565D01*
X188711888Y-160149000D01*
X189788112Y-160149000D01*
X189834468Y-160153565D01*
G37*
G36*
X185251000Y-161026000D02*
G01*
X184349000Y-161026000D01*
X184349000Y-160374000D01*
X185251000Y-160374000D01*
X185251000Y-161026000D01*
G37*
G36*
X187651000Y-161026000D02*
G01*
X186749000Y-161026000D01*
X186749000Y-160374000D01*
X187651000Y-160374000D01*
X187651000Y-161026000D01*
G37*
G36*
X177201000Y-161001000D02*
G01*
X175499000Y-161001000D01*
X175499000Y-154999000D01*
X177201000Y-154999000D01*
X177201000Y-161001000D01*
G37*
G36*
X172501000Y-161001000D02*
G01*
X170799000Y-161001000D01*
X170799000Y-154999000D01*
X172501000Y-154999000D01*
X172501000Y-161001000D01*
G37*
G36*
X185251000Y-160076000D02*
G01*
X184349000Y-160076000D01*
X184349000Y-159424000D01*
X185251000Y-159424000D01*
X185251000Y-160076000D01*
G37*
G36*
X189834468Y-158278565D02*
G01*
X189873138Y-158290296D01*
X189908777Y-158309346D01*
X189940017Y-158334983D01*
X189965654Y-158366223D01*
X189984704Y-158401862D01*
X189996435Y-158440532D01*
X190001000Y-158486888D01*
X190001000Y-159138112D01*
X189996435Y-159184468D01*
X189984704Y-159223138D01*
X189965654Y-159258777D01*
X189940017Y-159290017D01*
X189908777Y-159315654D01*
X189873138Y-159334704D01*
X189834468Y-159346435D01*
X189788112Y-159351000D01*
X188711888Y-159351000D01*
X188665532Y-159346435D01*
X188626862Y-159334704D01*
X188591223Y-159315654D01*
X188559983Y-159290017D01*
X188534346Y-159258777D01*
X188515296Y-159223138D01*
X188503565Y-159184468D01*
X188499000Y-159138112D01*
X188499000Y-158486888D01*
X188503565Y-158440532D01*
X188515296Y-158401862D01*
X188534346Y-158366223D01*
X188559983Y-158334983D01*
X188591223Y-158309346D01*
X188626862Y-158290296D01*
X188665532Y-158278565D01*
X188711888Y-158274000D01*
X189788112Y-158274000D01*
X189834468Y-158278565D01*
G37*
G36*
X183084468Y-158278565D02*
G01*
X183123138Y-158290296D01*
X183158777Y-158309346D01*
X183190017Y-158334983D01*
X183215654Y-158366223D01*
X183234704Y-158401862D01*
X183246435Y-158440532D01*
X183251000Y-158486888D01*
X183251000Y-159138112D01*
X183246435Y-159184468D01*
X183234704Y-159223138D01*
X183215654Y-159258777D01*
X183190017Y-159290017D01*
X183158777Y-159315654D01*
X183123138Y-159334704D01*
X183084468Y-159346435D01*
X183038112Y-159351000D01*
X181961888Y-159351000D01*
X181915532Y-159346435D01*
X181876862Y-159334704D01*
X181841223Y-159315654D01*
X181809983Y-159290017D01*
X181784346Y-159258777D01*
X181765296Y-159223138D01*
X181753565Y-159184468D01*
X181749000Y-159138112D01*
X181749000Y-158486888D01*
X181753565Y-158440532D01*
X181765296Y-158401862D01*
X181784346Y-158366223D01*
X181809983Y-158334983D01*
X181841223Y-158309346D01*
X181876862Y-158290296D01*
X181915532Y-158278565D01*
X181961888Y-158274000D01*
X183038112Y-158274000D01*
X183084468Y-158278565D01*
G37*
G36*
X187651000Y-159126000D02*
G01*
X186749000Y-159126000D01*
X186749000Y-158474000D01*
X187651000Y-158474000D01*
X187651000Y-159126000D01*
G37*
G36*
X185251000Y-159126000D02*
G01*
X184349000Y-159126000D01*
X184349000Y-158474000D01*
X185251000Y-158474000D01*
X185251000Y-159126000D01*
G37*
G36*
X186501000Y-157101000D02*
G01*
X185299000Y-157101000D01*
X185299000Y-155899000D01*
X186501000Y-155899000D01*
X186501000Y-157101000D01*
G37*
G36*
X183701000Y-157101000D02*
G01*
X182499000Y-157101000D01*
X182499000Y-155899000D01*
X183701000Y-155899000D01*
X183701000Y-157101000D01*
G37*
G36*
X184251000Y-154751000D02*
G01*
X182549000Y-154751000D01*
X182549000Y-148749000D01*
X184251000Y-148749000D01*
X184251000Y-154751000D01*
G37*
G36*
X188951000Y-154751000D02*
G01*
X187249000Y-154751000D01*
X187249000Y-148749000D01*
X188951000Y-148749000D01*
X188951000Y-154751000D01*
G37*
G36*
X171951000Y-153851000D02*
G01*
X170749000Y-153851000D01*
X170749000Y-152649000D01*
X171951000Y-152649000D01*
X171951000Y-153851000D01*
G37*
G36*
X174751000Y-153851000D02*
G01*
X173549000Y-153851000D01*
X173549000Y-152649000D01*
X174751000Y-152649000D01*
X174751000Y-153851000D01*
G37*
G36*
X177584468Y-151903565D02*
G01*
X177623138Y-151915296D01*
X177658777Y-151934346D01*
X177690017Y-151959983D01*
X177715654Y-151991223D01*
X177734704Y-152026862D01*
X177746435Y-152065532D01*
X177751000Y-152111888D01*
X177751000Y-152763112D01*
X177746435Y-152809468D01*
X177734704Y-152848138D01*
X177715654Y-152883777D01*
X177690017Y-152915017D01*
X177658777Y-152940654D01*
X177623138Y-152959704D01*
X177584468Y-152971435D01*
X177538112Y-152976000D01*
X176461888Y-152976000D01*
X176415532Y-152971435D01*
X176376862Y-152959704D01*
X176341223Y-152940654D01*
X176309983Y-152915017D01*
X176284346Y-152883777D01*
X176265296Y-152848138D01*
X176253565Y-152809468D01*
X176249000Y-152763112D01*
X176249000Y-152111888D01*
X176253565Y-152065532D01*
X176265296Y-152026862D01*
X176284346Y-151991223D01*
X176309983Y-151959983D01*
X176341223Y-151934346D01*
X176376862Y-151915296D01*
X176415532Y-151903565D01*
X176461888Y-151899000D01*
X177538112Y-151899000D01*
X177584468Y-151903565D01*
G37*
G36*
X171084468Y-150403565D02*
G01*
X171123138Y-150415296D01*
X171158777Y-150434346D01*
X171190017Y-150459983D01*
X171215654Y-150491223D01*
X171234704Y-150526862D01*
X171246435Y-150565532D01*
X171251000Y-150611888D01*
X171251000Y-151263112D01*
X171246435Y-151309468D01*
X171234704Y-151348138D01*
X171215654Y-151383777D01*
X171190017Y-151415017D01*
X171158777Y-151440654D01*
X171123138Y-151459704D01*
X171084468Y-151471435D01*
X171038112Y-151476000D01*
X169961888Y-151476000D01*
X169915532Y-151471435D01*
X169876862Y-151459704D01*
X169841223Y-151440654D01*
X169809983Y-151415017D01*
X169784346Y-151383777D01*
X169765296Y-151348138D01*
X169753565Y-151309468D01*
X169749000Y-151263112D01*
X169749000Y-150611888D01*
X169753565Y-150565532D01*
X169765296Y-150526862D01*
X169784346Y-150491223D01*
X169809983Y-150459983D01*
X169841223Y-150434346D01*
X169876862Y-150415296D01*
X169915532Y-150403565D01*
X169961888Y-150399000D01*
X171038112Y-150399000D01*
X171084468Y-150403565D01*
G37*
G36*
X175401000Y-151276000D02*
G01*
X174499000Y-151276000D01*
X174499000Y-150624000D01*
X175401000Y-150624000D01*
X175401000Y-151276000D01*
G37*
G36*
X173001000Y-151276000D02*
G01*
X172099000Y-151276000D01*
X172099000Y-150624000D01*
X173001000Y-150624000D01*
X173001000Y-151276000D01*
G37*
G36*
X177584468Y-150028565D02*
G01*
X177623138Y-150040296D01*
X177658777Y-150059346D01*
X177690017Y-150084983D01*
X177715654Y-150116223D01*
X177734704Y-150151862D01*
X177746435Y-150190532D01*
X177751000Y-150236888D01*
X177751000Y-150888112D01*
X177746435Y-150934468D01*
X177734704Y-150973138D01*
X177715654Y-151008777D01*
X177690017Y-151040017D01*
X177658777Y-151065654D01*
X177623138Y-151084704D01*
X177584468Y-151096435D01*
X177538112Y-151101000D01*
X176461888Y-151101000D01*
X176415532Y-151096435D01*
X176376862Y-151084704D01*
X176341223Y-151065654D01*
X176309983Y-151040017D01*
X176284346Y-151008777D01*
X176265296Y-150973138D01*
X176253565Y-150934468D01*
X176249000Y-150888112D01*
X176249000Y-150236888D01*
X176253565Y-150190532D01*
X176265296Y-150151862D01*
X176284346Y-150116223D01*
X176309983Y-150084983D01*
X176341223Y-150059346D01*
X176376862Y-150040296D01*
X176415532Y-150028565D01*
X176461888Y-150024000D01*
X177538112Y-150024000D01*
X177584468Y-150028565D01*
G37*
G36*
X175401000Y-150326000D02*
G01*
X174499000Y-150326000D01*
X174499000Y-149674000D01*
X175401000Y-149674000D01*
X175401000Y-150326000D01*
G37*
G36*
X171084468Y-148528565D02*
G01*
X171123138Y-148540296D01*
X171158777Y-148559346D01*
X171190017Y-148584983D01*
X171215654Y-148616223D01*
X171234704Y-148651862D01*
X171246435Y-148690532D01*
X171251000Y-148736888D01*
X171251000Y-149388112D01*
X171246435Y-149434468D01*
X171234704Y-149473138D01*
X171215654Y-149508777D01*
X171190017Y-149540017D01*
X171158777Y-149565654D01*
X171123138Y-149584704D01*
X171084468Y-149596435D01*
X171038112Y-149601000D01*
X169961888Y-149601000D01*
X169915532Y-149596435D01*
X169876862Y-149584704D01*
X169841223Y-149565654D01*
X169809983Y-149540017D01*
X169784346Y-149508777D01*
X169765296Y-149473138D01*
X169753565Y-149434468D01*
X169749000Y-149388112D01*
X169749000Y-148736888D01*
X169753565Y-148690532D01*
X169765296Y-148651862D01*
X169784346Y-148616223D01*
X169809983Y-148584983D01*
X169841223Y-148559346D01*
X169876862Y-148540296D01*
X169915532Y-148528565D01*
X169961888Y-148524000D01*
X171038112Y-148524000D01*
X171084468Y-148528565D01*
G37*
G36*
X173001000Y-149376000D02*
G01*
X172099000Y-149376000D01*
X172099000Y-148724000D01*
X173001000Y-148724000D01*
X173001000Y-149376000D01*
G37*
G36*
X175401000Y-149376000D02*
G01*
X174499000Y-149376000D01*
X174499000Y-148724000D01*
X175401000Y-148724000D01*
X175401000Y-149376000D01*
G37*
G36*
X222351000Y-147821000D02*
G01*
X221049000Y-147821000D01*
X221049000Y-144619000D01*
X222351000Y-144619000D01*
X222351000Y-147821000D01*
G37*
G36*
X142351000Y-147821000D02*
G01*
X141049000Y-147821000D01*
X141049000Y-144619000D01*
X142351000Y-144619000D01*
X142351000Y-147821000D01*
G37*
G36*
X140651000Y-147821000D02*
G01*
X139349000Y-147821000D01*
X139349000Y-144619000D01*
X140651000Y-144619000D01*
X140651000Y-147821000D01*
G37*
G36*
X138951000Y-147821000D02*
G01*
X137649000Y-147821000D01*
X137649000Y-144619000D01*
X138951000Y-144619000D01*
X138951000Y-147821000D01*
G37*
G36*
X220651000Y-147821000D02*
G01*
X219349000Y-147821000D01*
X219349000Y-144619000D01*
X220651000Y-144619000D01*
X220651000Y-147821000D01*
G37*
G36*
X218951000Y-147821000D02*
G01*
X217649000Y-147821000D01*
X217649000Y-144619000D01*
X218951000Y-144619000D01*
X218951000Y-147821000D01*
G37*
G36*
X172501000Y-147251000D02*
G01*
X170799000Y-147251000D01*
X170799000Y-141249000D01*
X172501000Y-141249000D01*
X172501000Y-147251000D01*
G37*
G36*
X177201000Y-147251000D02*
G01*
X175499000Y-147251000D01*
X175499000Y-141249000D01*
X177201000Y-141249000D01*
X177201000Y-147251000D01*
G37*
G36*
X183084468Y-146153565D02*
G01*
X183123138Y-146165296D01*
X183158777Y-146184346D01*
X183190017Y-146209983D01*
X183215654Y-146241223D01*
X183234704Y-146276862D01*
X183246435Y-146315532D01*
X183251000Y-146361888D01*
X183251000Y-147013112D01*
X183246435Y-147059468D01*
X183234704Y-147098138D01*
X183215654Y-147133777D01*
X183190017Y-147165017D01*
X183158777Y-147190654D01*
X183123138Y-147209704D01*
X183084468Y-147221435D01*
X183038112Y-147226000D01*
X181961888Y-147226000D01*
X181915532Y-147221435D01*
X181876862Y-147209704D01*
X181841223Y-147190654D01*
X181809983Y-147165017D01*
X181784346Y-147133777D01*
X181765296Y-147098138D01*
X181753565Y-147059468D01*
X181749000Y-147013112D01*
X181749000Y-146361888D01*
X181753565Y-146315532D01*
X181765296Y-146276862D01*
X181784346Y-146241223D01*
X181809983Y-146209983D01*
X181841223Y-146184346D01*
X181876862Y-146165296D01*
X181915532Y-146153565D01*
X181961888Y-146149000D01*
X183038112Y-146149000D01*
X183084468Y-146153565D01*
G37*
G36*
X189834468Y-146153565D02*
G01*
X189873138Y-146165296D01*
X189908777Y-146184346D01*
X189940017Y-146209983D01*
X189965654Y-146241223D01*
X189984704Y-146276862D01*
X189996435Y-146315532D01*
X190001000Y-146361888D01*
X190001000Y-147013112D01*
X189996435Y-147059468D01*
X189984704Y-147098138D01*
X189965654Y-147133777D01*
X189940017Y-147165017D01*
X189908777Y-147190654D01*
X189873138Y-147209704D01*
X189834468Y-147221435D01*
X189788112Y-147226000D01*
X188711888Y-147226000D01*
X188665532Y-147221435D01*
X188626862Y-147209704D01*
X188591223Y-147190654D01*
X188559983Y-147165017D01*
X188534346Y-147133777D01*
X188515296Y-147098138D01*
X188503565Y-147059468D01*
X188499000Y-147013112D01*
X188499000Y-146361888D01*
X188503565Y-146315532D01*
X188515296Y-146276862D01*
X188534346Y-146241223D01*
X188559983Y-146209983D01*
X188591223Y-146184346D01*
X188626862Y-146165296D01*
X188665532Y-146153565D01*
X188711888Y-146149000D01*
X189788112Y-146149000D01*
X189834468Y-146153565D01*
G37*
G36*
X187651000Y-147026000D02*
G01*
X186749000Y-147026000D01*
X186749000Y-146374000D01*
X187651000Y-146374000D01*
X187651000Y-147026000D01*
G37*
G36*
X185251000Y-147026000D02*
G01*
X184349000Y-147026000D01*
X184349000Y-146374000D01*
X185251000Y-146374000D01*
X185251000Y-147026000D01*
G37*
G36*
X185251000Y-146076000D02*
G01*
X184349000Y-146076000D01*
X184349000Y-145424000D01*
X185251000Y-145424000D01*
X185251000Y-146076000D01*
G37*
G36*
X189834468Y-144278565D02*
G01*
X189873138Y-144290296D01*
X189908777Y-144309346D01*
X189940017Y-144334983D01*
X189965654Y-144366223D01*
X189984704Y-144401862D01*
X189996435Y-144440532D01*
X190001000Y-144486888D01*
X190001000Y-145138112D01*
X189996435Y-145184468D01*
X189984704Y-145223138D01*
X189965654Y-145258777D01*
X189940017Y-145290017D01*
X189908777Y-145315654D01*
X189873138Y-145334704D01*
X189834468Y-145346435D01*
X189788112Y-145351000D01*
X188711888Y-145351000D01*
X188665532Y-145346435D01*
X188626862Y-145334704D01*
X188591223Y-145315654D01*
X188559983Y-145290017D01*
X188534346Y-145258777D01*
X188515296Y-145223138D01*
X188503565Y-145184468D01*
X188499000Y-145138112D01*
X188499000Y-144486888D01*
X188503565Y-144440532D01*
X188515296Y-144401862D01*
X188534346Y-144366223D01*
X188559983Y-144334983D01*
X188591223Y-144309346D01*
X188626862Y-144290296D01*
X188665532Y-144278565D01*
X188711888Y-144274000D01*
X189788112Y-144274000D01*
X189834468Y-144278565D01*
G37*
G36*
X183084468Y-144278565D02*
G01*
X183123138Y-144290296D01*
X183158777Y-144309346D01*
X183190017Y-144334983D01*
X183215654Y-144366223D01*
X183234704Y-144401862D01*
X183246435Y-144440532D01*
X183251000Y-144486888D01*
X183251000Y-145138112D01*
X183246435Y-145184468D01*
X183234704Y-145223138D01*
X183215654Y-145258777D01*
X183190017Y-145290017D01*
X183158777Y-145315654D01*
X183123138Y-145334704D01*
X183084468Y-145346435D01*
X183038112Y-145351000D01*
X181961888Y-145351000D01*
X181915532Y-145346435D01*
X181876862Y-145334704D01*
X181841223Y-145315654D01*
X181809983Y-145290017D01*
X181784346Y-145258777D01*
X181765296Y-145223138D01*
X181753565Y-145184468D01*
X181749000Y-145138112D01*
X181749000Y-144486888D01*
X181753565Y-144440532D01*
X181765296Y-144401862D01*
X181784346Y-144366223D01*
X181809983Y-144334983D01*
X181841223Y-144309346D01*
X181876862Y-144290296D01*
X181915532Y-144278565D01*
X181961888Y-144274000D01*
X183038112Y-144274000D01*
X183084468Y-144278565D01*
G37*
G36*
X187651000Y-145126000D02*
G01*
X186749000Y-145126000D01*
X186749000Y-144474000D01*
X187651000Y-144474000D01*
X187651000Y-145126000D01*
G37*
G36*
X185251000Y-145126000D02*
G01*
X184349000Y-145126000D01*
X184349000Y-144474000D01*
X185251000Y-144474000D01*
X185251000Y-145126000D01*
G37*
G36*
X186501000Y-143101000D02*
G01*
X185299000Y-143101000D01*
X185299000Y-141899000D01*
X186501000Y-141899000D01*
X186501000Y-143101000D01*
G37*
G36*
X183701000Y-143101000D02*
G01*
X182499000Y-143101000D01*
X182499000Y-141899000D01*
X183701000Y-141899000D01*
X183701000Y-143101000D01*
G37*
G36*
X140846189Y-137210483D02*
G01*
X141135948Y-137330505D01*
X141374139Y-137429167D01*
X141849280Y-137746646D01*
X142253354Y-138150720D01*
X142570833Y-138625861D01*
X142570834Y-138625863D01*
X142789517Y-139153811D01*
X142901000Y-139714275D01*
X142901000Y-140285725D01*
X142789517Y-140846189D01*
X142789516Y-140846191D01*
X142570833Y-141374139D01*
X142253354Y-141849280D01*
X141849280Y-142253354D01*
X141374139Y-142570833D01*
X141374138Y-142570834D01*
X141374137Y-142570834D01*
X140846189Y-142789517D01*
X140285725Y-142901000D01*
X139714275Y-142901000D01*
X139153811Y-142789517D01*
X138625863Y-142570834D01*
X138625862Y-142570834D01*
X138625861Y-142570833D01*
X138150720Y-142253354D01*
X137746646Y-141849280D01*
X137429167Y-141374139D01*
X137210484Y-140846191D01*
X137210483Y-140846189D01*
X137099000Y-140285725D01*
X137099000Y-139714275D01*
X137210483Y-139153811D01*
X137429166Y-138625863D01*
X137429167Y-138625861D01*
X137746646Y-138150720D01*
X138150720Y-137746646D01*
X138625861Y-137429167D01*
X138864052Y-137330505D01*
X139153811Y-137210483D01*
X139714275Y-137099000D01*
X140285725Y-137099000D01*
X140846189Y-137210483D01*
G37*
G36*
X220846189Y-137210483D02*
G01*
X221135948Y-137330505D01*
X221374139Y-137429167D01*
X221849280Y-137746646D01*
X222253354Y-138150720D01*
X222570833Y-138625861D01*
X222570834Y-138625863D01*
X222789517Y-139153811D01*
X222901000Y-139714275D01*
X222901000Y-140285725D01*
X222789517Y-140846189D01*
X222789516Y-140846191D01*
X222570833Y-141374139D01*
X222253354Y-141849280D01*
X221849280Y-142253354D01*
X221374139Y-142570833D01*
X221374138Y-142570834D01*
X221374137Y-142570834D01*
X220846189Y-142789517D01*
X220285725Y-142901000D01*
X219714275Y-142901000D01*
X219153811Y-142789517D01*
X218625863Y-142570834D01*
X218625862Y-142570834D01*
X218625861Y-142570833D01*
X218150720Y-142253354D01*
X217746646Y-141849280D01*
X217429167Y-141374139D01*
X217210484Y-140846191D01*
X217210483Y-140846189D01*
X217099000Y-140285725D01*
X217099000Y-139714275D01*
X217210483Y-139153811D01*
X217429166Y-138625863D01*
X217429167Y-138625861D01*
X217746646Y-138150720D01*
X218150720Y-137746646D01*
X218625861Y-137429167D01*
X218864052Y-137330505D01*
X219153811Y-137210483D01*
X219714275Y-137099000D01*
X220285725Y-137099000D01*
X220846189Y-137210483D01*
G37*
G36*
X184251000Y-140751000D02*
G01*
X182549000Y-140751000D01*
X182549000Y-134749000D01*
X184251000Y-134749000D01*
X184251000Y-140751000D01*
G37*
G36*
X188951000Y-140751000D02*
G01*
X187249000Y-140751000D01*
X187249000Y-134749000D01*
X188951000Y-134749000D01*
X188951000Y-140751000D01*
G37*
G36*
X174751000Y-140101000D02*
G01*
X173549000Y-140101000D01*
X173549000Y-138899000D01*
X174751000Y-138899000D01*
X174751000Y-140101000D01*
G37*
G36*
X171951000Y-140101000D02*
G01*
X170749000Y-140101000D01*
X170749000Y-138899000D01*
X171951000Y-138899000D01*
X171951000Y-140101000D01*
G37*
G36*
X177584468Y-138153565D02*
G01*
X177623138Y-138165296D01*
X177658777Y-138184346D01*
X177690017Y-138209983D01*
X177715654Y-138241223D01*
X177734704Y-138276862D01*
X177746435Y-138315532D01*
X177751000Y-138361888D01*
X177751000Y-139013112D01*
X177746435Y-139059468D01*
X177734704Y-139098138D01*
X177715654Y-139133777D01*
X177690017Y-139165017D01*
X177658777Y-139190654D01*
X177623138Y-139209704D01*
X177584468Y-139221435D01*
X177538112Y-139226000D01*
X176461888Y-139226000D01*
X176415532Y-139221435D01*
X176376862Y-139209704D01*
X176341223Y-139190654D01*
X176309983Y-139165017D01*
X176284346Y-139133777D01*
X176265296Y-139098138D01*
X176253565Y-139059468D01*
X176249000Y-139013112D01*
X176249000Y-138361888D01*
X176253565Y-138315532D01*
X176265296Y-138276862D01*
X176284346Y-138241223D01*
X176309983Y-138209983D01*
X176341223Y-138184346D01*
X176376862Y-138165296D01*
X176415532Y-138153565D01*
X176461888Y-138149000D01*
X177538112Y-138149000D01*
X177584468Y-138153565D01*
G37*
G36*
X171084468Y-136653565D02*
G01*
X171123138Y-136665296D01*
X171158777Y-136684346D01*
X171190017Y-136709983D01*
X171215654Y-136741223D01*
X171234704Y-136776862D01*
X171246435Y-136815532D01*
X171251000Y-136861888D01*
X171251000Y-137513112D01*
X171246435Y-137559468D01*
X171234704Y-137598138D01*
X171215654Y-137633777D01*
X171190017Y-137665017D01*
X171158777Y-137690654D01*
X171123138Y-137709704D01*
X171084468Y-137721435D01*
X171038112Y-137726000D01*
X169961888Y-137726000D01*
X169915532Y-137721435D01*
X169876862Y-137709704D01*
X169841223Y-137690654D01*
X169809983Y-137665017D01*
X169784346Y-137633777D01*
X169765296Y-137598138D01*
X169753565Y-137559468D01*
X169749000Y-137513112D01*
X169749000Y-136861888D01*
X169753565Y-136815532D01*
X169765296Y-136776862D01*
X169784346Y-136741223D01*
X169809983Y-136709983D01*
X169841223Y-136684346D01*
X169876862Y-136665296D01*
X169915532Y-136653565D01*
X169961888Y-136649000D01*
X171038112Y-136649000D01*
X171084468Y-136653565D01*
G37*
G36*
X175401000Y-137526000D02*
G01*
X174499000Y-137526000D01*
X174499000Y-136874000D01*
X175401000Y-136874000D01*
X175401000Y-137526000D01*
G37*
G36*
X173001000Y-137526000D02*
G01*
X172099000Y-137526000D01*
X172099000Y-136874000D01*
X173001000Y-136874000D01*
X173001000Y-137526000D01*
G37*
G36*
X177584468Y-136278565D02*
G01*
X177623138Y-136290296D01*
X177658777Y-136309346D01*
X177690017Y-136334983D01*
X177715654Y-136366223D01*
X177734704Y-136401862D01*
X177746435Y-136440532D01*
X177751000Y-136486888D01*
X177751000Y-137138112D01*
X177746435Y-137184468D01*
X177734704Y-137223138D01*
X177715654Y-137258777D01*
X177690017Y-137290017D01*
X177658777Y-137315654D01*
X177623138Y-137334704D01*
X177584468Y-137346435D01*
X177538112Y-137351000D01*
X176461888Y-137351000D01*
X176415532Y-137346435D01*
X176376862Y-137334704D01*
X176341223Y-137315654D01*
X176309983Y-137290017D01*
X176284346Y-137258777D01*
X176265296Y-137223138D01*
X176253565Y-137184468D01*
X176249000Y-137138112D01*
X176249000Y-136486888D01*
X176253565Y-136440532D01*
X176265296Y-136401862D01*
X176284346Y-136366223D01*
X176309983Y-136334983D01*
X176341223Y-136309346D01*
X176376862Y-136290296D01*
X176415532Y-136278565D01*
X176461888Y-136274000D01*
X177538112Y-136274000D01*
X177584468Y-136278565D01*
G37*
G36*
X175401000Y-136576000D02*
G01*
X174499000Y-136576000D01*
X174499000Y-135924000D01*
X175401000Y-135924000D01*
X175401000Y-136576000D01*
G37*
G36*
X171084468Y-134778565D02*
G01*
X171123138Y-134790296D01*
X171158777Y-134809346D01*
X171190017Y-134834983D01*
X171215654Y-134866223D01*
X171234704Y-134901862D01*
X171246435Y-134940532D01*
X171251000Y-134986888D01*
X171251000Y-135638112D01*
X171246435Y-135684468D01*
X171234704Y-135723138D01*
X171215654Y-135758777D01*
X171190017Y-135790017D01*
X171158777Y-135815654D01*
X171123138Y-135834704D01*
X171084468Y-135846435D01*
X171038112Y-135851000D01*
X169961888Y-135851000D01*
X169915532Y-135846435D01*
X169876862Y-135834704D01*
X169841223Y-135815654D01*
X169809983Y-135790017D01*
X169784346Y-135758777D01*
X169765296Y-135723138D01*
X169753565Y-135684468D01*
X169749000Y-135638112D01*
X169749000Y-134986888D01*
X169753565Y-134940532D01*
X169765296Y-134901862D01*
X169784346Y-134866223D01*
X169809983Y-134834983D01*
X169841223Y-134809346D01*
X169876862Y-134790296D01*
X169915532Y-134778565D01*
X169961888Y-134774000D01*
X171038112Y-134774000D01*
X171084468Y-134778565D01*
G37*
G36*
X173001000Y-135626000D02*
G01*
X172099000Y-135626000D01*
X172099000Y-134974000D01*
X173001000Y-134974000D01*
X173001000Y-135626000D01*
G37*
G36*
X175401000Y-135626000D02*
G01*
X174499000Y-135626000D01*
X174499000Y-134974000D01*
X175401000Y-134974000D01*
X175401000Y-135626000D01*
G37*
G36*
X140651000Y-135381000D02*
G01*
X139349000Y-135381000D01*
X139349000Y-132179000D01*
X140651000Y-132179000D01*
X140651000Y-135381000D01*
G37*
G36*
X138951000Y-135381000D02*
G01*
X137649000Y-135381000D01*
X137649000Y-132179000D01*
X138951000Y-132179000D01*
X138951000Y-135381000D01*
G37*
G36*
X142351000Y-135381000D02*
G01*
X141049000Y-135381000D01*
X141049000Y-132179000D01*
X142351000Y-132179000D01*
X142351000Y-135381000D01*
G37*
G36*
X218951000Y-135381000D02*
G01*
X217649000Y-135381000D01*
X217649000Y-132179000D01*
X218951000Y-132179000D01*
X218951000Y-135381000D01*
G37*
G36*
X220651000Y-135381000D02*
G01*
X219349000Y-135381000D01*
X219349000Y-132179000D01*
X220651000Y-132179000D01*
X220651000Y-135381000D01*
G37*
G36*
X222351000Y-135381000D02*
G01*
X221049000Y-135381000D01*
X221049000Y-132179000D01*
X222351000Y-132179000D01*
X222351000Y-135381000D01*
G37*
G36*
X172501000Y-133501000D02*
G01*
X170799000Y-133501000D01*
X170799000Y-127499000D01*
X172501000Y-127499000D01*
X172501000Y-133501000D01*
G37*
G36*
X177201000Y-133501000D02*
G01*
X175499000Y-133501000D01*
X175499000Y-127499000D01*
X177201000Y-127499000D01*
X177201000Y-133501000D01*
G37*
G36*
X189834468Y-132153565D02*
G01*
X189873138Y-132165296D01*
X189908777Y-132184346D01*
X189940017Y-132209983D01*
X189965654Y-132241223D01*
X189984704Y-132276862D01*
X189996435Y-132315532D01*
X190001000Y-132361888D01*
X190001000Y-133013112D01*
X189996435Y-133059468D01*
X189984704Y-133098138D01*
X189965654Y-133133777D01*
X189940017Y-133165017D01*
X189908777Y-133190654D01*
X189873138Y-133209704D01*
X189834468Y-133221435D01*
X189788112Y-133226000D01*
X188711888Y-133226000D01*
X188665532Y-133221435D01*
X188626862Y-133209704D01*
X188591223Y-133190654D01*
X188559983Y-133165017D01*
X188534346Y-133133777D01*
X188515296Y-133098138D01*
X188503565Y-133059468D01*
X188499000Y-133013112D01*
X188499000Y-132361888D01*
X188503565Y-132315532D01*
X188515296Y-132276862D01*
X188534346Y-132241223D01*
X188559983Y-132209983D01*
X188591223Y-132184346D01*
X188626862Y-132165296D01*
X188665532Y-132153565D01*
X188711888Y-132149000D01*
X189788112Y-132149000D01*
X189834468Y-132153565D01*
G37*
G36*
X183084468Y-132153565D02*
G01*
X183123138Y-132165296D01*
X183158777Y-132184346D01*
X183190017Y-132209983D01*
X183215654Y-132241223D01*
X183234704Y-132276862D01*
X183246435Y-132315532D01*
X183251000Y-132361888D01*
X183251000Y-133013112D01*
X183246435Y-133059468D01*
X183234704Y-133098138D01*
X183215654Y-133133777D01*
X183190017Y-133165017D01*
X183158777Y-133190654D01*
X183123138Y-133209704D01*
X183084468Y-133221435D01*
X183038112Y-133226000D01*
X181961888Y-133226000D01*
X181915532Y-133221435D01*
X181876862Y-133209704D01*
X181841223Y-133190654D01*
X181809983Y-133165017D01*
X181784346Y-133133777D01*
X181765296Y-133098138D01*
X181753565Y-133059468D01*
X181749000Y-133013112D01*
X181749000Y-132361888D01*
X181753565Y-132315532D01*
X181765296Y-132276862D01*
X181784346Y-132241223D01*
X181809983Y-132209983D01*
X181841223Y-132184346D01*
X181876862Y-132165296D01*
X181915532Y-132153565D01*
X181961888Y-132149000D01*
X183038112Y-132149000D01*
X183084468Y-132153565D01*
G37*
G36*
X187651000Y-133026000D02*
G01*
X186749000Y-133026000D01*
X186749000Y-132374000D01*
X187651000Y-132374000D01*
X187651000Y-133026000D01*
G37*
G36*
X185251000Y-133026000D02*
G01*
X184349000Y-133026000D01*
X184349000Y-132374000D01*
X185251000Y-132374000D01*
X185251000Y-133026000D01*
G37*
G36*
X185251000Y-132076000D02*
G01*
X184349000Y-132076000D01*
X184349000Y-131424000D01*
X185251000Y-131424000D01*
X185251000Y-132076000D01*
G37*
G36*
X189834468Y-130278565D02*
G01*
X189873138Y-130290296D01*
X189908777Y-130309346D01*
X189940017Y-130334983D01*
X189965654Y-130366223D01*
X189984704Y-130401862D01*
X189996435Y-130440532D01*
X190001000Y-130486888D01*
X190001000Y-131138112D01*
X189996435Y-131184468D01*
X189984704Y-131223138D01*
X189965654Y-131258777D01*
X189940017Y-131290017D01*
X189908777Y-131315654D01*
X189873138Y-131334704D01*
X189834468Y-131346435D01*
X189788112Y-131351000D01*
X188711888Y-131351000D01*
X188665532Y-131346435D01*
X188626862Y-131334704D01*
X188591223Y-131315654D01*
X188559983Y-131290017D01*
X188534346Y-131258777D01*
X188515296Y-131223138D01*
X188503565Y-131184468D01*
X188499000Y-131138112D01*
X188499000Y-130486888D01*
X188503565Y-130440532D01*
X188515296Y-130401862D01*
X188534346Y-130366223D01*
X188559983Y-130334983D01*
X188591223Y-130309346D01*
X188626862Y-130290296D01*
X188665532Y-130278565D01*
X188711888Y-130274000D01*
X189788112Y-130274000D01*
X189834468Y-130278565D01*
G37*
G36*
X183084468Y-130278565D02*
G01*
X183123138Y-130290296D01*
X183158777Y-130309346D01*
X183190017Y-130334983D01*
X183215654Y-130366223D01*
X183234704Y-130401862D01*
X183246435Y-130440532D01*
X183251000Y-130486888D01*
X183251000Y-131138112D01*
X183246435Y-131184468D01*
X183234704Y-131223138D01*
X183215654Y-131258777D01*
X183190017Y-131290017D01*
X183158777Y-131315654D01*
X183123138Y-131334704D01*
X183084468Y-131346435D01*
X183038112Y-131351000D01*
X181961888Y-131351000D01*
X181915532Y-131346435D01*
X181876862Y-131334704D01*
X181841223Y-131315654D01*
X181809983Y-131290017D01*
X181784346Y-131258777D01*
X181765296Y-131223138D01*
X181753565Y-131184468D01*
X181749000Y-131138112D01*
X181749000Y-130486888D01*
X181753565Y-130440532D01*
X181765296Y-130401862D01*
X181784346Y-130366223D01*
X181809983Y-130334983D01*
X181841223Y-130309346D01*
X181876862Y-130290296D01*
X181915532Y-130278565D01*
X181961888Y-130274000D01*
X183038112Y-130274000D01*
X183084468Y-130278565D01*
G37*
G36*
X185251000Y-131126000D02*
G01*
X184349000Y-131126000D01*
X184349000Y-130474000D01*
X185251000Y-130474000D01*
X185251000Y-131126000D01*
G37*
G36*
X187651000Y-131126000D02*
G01*
X186749000Y-131126000D01*
X186749000Y-130474000D01*
X187651000Y-130474000D01*
X187651000Y-131126000D01*
G37*
G36*
X186501000Y-129101000D02*
G01*
X185299000Y-129101000D01*
X185299000Y-127899000D01*
X186501000Y-127899000D01*
X186501000Y-129101000D01*
G37*
G36*
X183701000Y-129101000D02*
G01*
X182499000Y-129101000D01*
X182499000Y-127899000D01*
X183701000Y-127899000D01*
X183701000Y-129101000D01*
G37*
G36*
X188951000Y-126751000D02*
G01*
X187249000Y-126751000D01*
X187249000Y-120749000D01*
X188951000Y-120749000D01*
X188951000Y-126751000D01*
G37*
G36*
X184251000Y-126751000D02*
G01*
X182549000Y-126751000D01*
X182549000Y-120749000D01*
X184251000Y-120749000D01*
X184251000Y-126751000D01*
G37*
G36*
X171951000Y-126351000D02*
G01*
X170749000Y-126351000D01*
X170749000Y-125149000D01*
X171951000Y-125149000D01*
X171951000Y-126351000D01*
G37*
G36*
X174751000Y-126351000D02*
G01*
X173549000Y-126351000D01*
X173549000Y-125149000D01*
X174751000Y-125149000D01*
X174751000Y-126351000D01*
G37*
G36*
X177584468Y-124403565D02*
G01*
X177623138Y-124415296D01*
X177658777Y-124434346D01*
X177690017Y-124459983D01*
X177715654Y-124491223D01*
X177734704Y-124526862D01*
X177746435Y-124565532D01*
X177751000Y-124611888D01*
X177751000Y-125263112D01*
X177746435Y-125309468D01*
X177734704Y-125348138D01*
X177715654Y-125383777D01*
X177690017Y-125415017D01*
X177658777Y-125440654D01*
X177623138Y-125459704D01*
X177584468Y-125471435D01*
X177538112Y-125476000D01*
X176461888Y-125476000D01*
X176415532Y-125471435D01*
X176376862Y-125459704D01*
X176341223Y-125440654D01*
X176309983Y-125415017D01*
X176284346Y-125383777D01*
X176265296Y-125348138D01*
X176253565Y-125309468D01*
X176249000Y-125263112D01*
X176249000Y-124611888D01*
X176253565Y-124565532D01*
X176265296Y-124526862D01*
X176284346Y-124491223D01*
X176309983Y-124459983D01*
X176341223Y-124434346D01*
X176376862Y-124415296D01*
X176415532Y-124403565D01*
X176461888Y-124399000D01*
X177538112Y-124399000D01*
X177584468Y-124403565D01*
G37*
G36*
X171084468Y-122903565D02*
G01*
X171123138Y-122915296D01*
X171158777Y-122934346D01*
X171190017Y-122959983D01*
X171215654Y-122991223D01*
X171234704Y-123026862D01*
X171246435Y-123065532D01*
X171251000Y-123111888D01*
X171251000Y-123763112D01*
X171246435Y-123809468D01*
X171234704Y-123848138D01*
X171215654Y-123883777D01*
X171190017Y-123915017D01*
X171158777Y-123940654D01*
X171123138Y-123959704D01*
X171084468Y-123971435D01*
X171038112Y-123976000D01*
X169961888Y-123976000D01*
X169915532Y-123971435D01*
X169876862Y-123959704D01*
X169841223Y-123940654D01*
X169809983Y-123915017D01*
X169784346Y-123883777D01*
X169765296Y-123848138D01*
X169753565Y-123809468D01*
X169749000Y-123763112D01*
X169749000Y-123111888D01*
X169753565Y-123065532D01*
X169765296Y-123026862D01*
X169784346Y-122991223D01*
X169809983Y-122959983D01*
X169841223Y-122934346D01*
X169876862Y-122915296D01*
X169915532Y-122903565D01*
X169961888Y-122899000D01*
X171038112Y-122899000D01*
X171084468Y-122903565D01*
G37*
G36*
X173001000Y-123776000D02*
G01*
X172099000Y-123776000D01*
X172099000Y-123124000D01*
X173001000Y-123124000D01*
X173001000Y-123776000D01*
G37*
G36*
X175401000Y-123776000D02*
G01*
X174499000Y-123776000D01*
X174499000Y-123124000D01*
X175401000Y-123124000D01*
X175401000Y-123776000D01*
G37*
G36*
X177584468Y-122528565D02*
G01*
X177623138Y-122540296D01*
X177658777Y-122559346D01*
X177690017Y-122584983D01*
X177715654Y-122616223D01*
X177734704Y-122651862D01*
X177746435Y-122690532D01*
X177751000Y-122736888D01*
X177751000Y-123388112D01*
X177746435Y-123434468D01*
X177734704Y-123473138D01*
X177715654Y-123508777D01*
X177690017Y-123540017D01*
X177658777Y-123565654D01*
X177623138Y-123584704D01*
X177584468Y-123596435D01*
X177538112Y-123601000D01*
X176461888Y-123601000D01*
X176415532Y-123596435D01*
X176376862Y-123584704D01*
X176341223Y-123565654D01*
X176309983Y-123540017D01*
X176284346Y-123508777D01*
X176265296Y-123473138D01*
X176253565Y-123434468D01*
X176249000Y-123388112D01*
X176249000Y-122736888D01*
X176253565Y-122690532D01*
X176265296Y-122651862D01*
X176284346Y-122616223D01*
X176309983Y-122584983D01*
X176341223Y-122559346D01*
X176376862Y-122540296D01*
X176415532Y-122528565D01*
X176461888Y-122524000D01*
X177538112Y-122524000D01*
X177584468Y-122528565D01*
G37*
G36*
X175401000Y-122826000D02*
G01*
X174499000Y-122826000D01*
X174499000Y-122174000D01*
X175401000Y-122174000D01*
X175401000Y-122826000D01*
G37*
G36*
X171084468Y-121028565D02*
G01*
X171123138Y-121040296D01*
X171158777Y-121059346D01*
X171190017Y-121084983D01*
X171215654Y-121116223D01*
X171234704Y-121151862D01*
X171246435Y-121190532D01*
X171251000Y-121236888D01*
X171251000Y-121888112D01*
X171246435Y-121934468D01*
X171234704Y-121973138D01*
X171215654Y-122008777D01*
X171190017Y-122040017D01*
X171158777Y-122065654D01*
X171123138Y-122084704D01*
X171084468Y-122096435D01*
X171038112Y-122101000D01*
X169961888Y-122101000D01*
X169915532Y-122096435D01*
X169876862Y-122084704D01*
X169841223Y-122065654D01*
X169809983Y-122040017D01*
X169784346Y-122008777D01*
X169765296Y-121973138D01*
X169753565Y-121934468D01*
X169749000Y-121888112D01*
X169749000Y-121236888D01*
X169753565Y-121190532D01*
X169765296Y-121151862D01*
X169784346Y-121116223D01*
X169809983Y-121084983D01*
X169841223Y-121059346D01*
X169876862Y-121040296D01*
X169915532Y-121028565D01*
X169961888Y-121024000D01*
X171038112Y-121024000D01*
X171084468Y-121028565D01*
G37*
G36*
X173001000Y-121876000D02*
G01*
X172099000Y-121876000D01*
X172099000Y-121224000D01*
X173001000Y-121224000D01*
X173001000Y-121876000D01*
G37*
G36*
X175401000Y-121876000D02*
G01*
X174499000Y-121876000D01*
X174499000Y-121224000D01*
X175401000Y-121224000D01*
X175401000Y-121876000D01*
G37*
G36*
X107517184Y-104399938D02*
G01*
X107773268Y-104450876D01*
X107973105Y-104533651D01*
X108255718Y-104650713D01*
X108255719Y-104650714D01*
X108689914Y-104940834D01*
X109059166Y-105310086D01*
X109059167Y-105310088D01*
X109349287Y-105744282D01*
X109549124Y-106226733D01*
X109651000Y-106738898D01*
X109651000Y-107261102D01*
X109549124Y-107773267D01*
X109349287Y-108255718D01*
X109349286Y-108255719D01*
X109059166Y-108689914D01*
X108689914Y-109059166D01*
X108471341Y-109205212D01*
X108255718Y-109349287D01*
X107973105Y-109466349D01*
X107773268Y-109549124D01*
X107261102Y-109651000D01*
X106738898Y-109651000D01*
X106226732Y-109549124D01*
X106026895Y-109466349D01*
X105744282Y-109349287D01*
X105528659Y-109205212D01*
X105310086Y-109059166D01*
X104940834Y-108689914D01*
X104650714Y-108255719D01*
X104650713Y-108255718D01*
X104450876Y-107773267D01*
X104349000Y-107261102D01*
X104349000Y-106738898D01*
X104450876Y-106226733D01*
X104650713Y-105744282D01*
X104940833Y-105310088D01*
X104940834Y-105310086D01*
X105310086Y-104940834D01*
X105744281Y-104650714D01*
X105744282Y-104650713D01*
X106026895Y-104533651D01*
X106226732Y-104450876D01*
X106482816Y-104399938D01*
X106738898Y-104349000D01*
X107261102Y-104349000D01*
X107517184Y-104399938D01*
G37*
G36*
X253517184Y-104399938D02*
G01*
X253773268Y-104450876D01*
X253973105Y-104533651D01*
X254255718Y-104650713D01*
X254255719Y-104650714D01*
X254689914Y-104940834D01*
X255059166Y-105310086D01*
X255059167Y-105310088D01*
X255349287Y-105744282D01*
X255549124Y-106226733D01*
X255651000Y-106738898D01*
X255651000Y-107261102D01*
X255549124Y-107773267D01*
X255349287Y-108255718D01*
X255349286Y-108255719D01*
X255059166Y-108689914D01*
X254689914Y-109059166D01*
X254471341Y-109205212D01*
X254255718Y-109349287D01*
X253973105Y-109466349D01*
X253773268Y-109549124D01*
X253261102Y-109651000D01*
X252738898Y-109651000D01*
X252226732Y-109549124D01*
X252026895Y-109466349D01*
X251744282Y-109349287D01*
X251528659Y-109205212D01*
X251310086Y-109059166D01*
X250940834Y-108689914D01*
X250650714Y-108255719D01*
X250650713Y-108255718D01*
X250450876Y-107773267D01*
X250349000Y-107261102D01*
X250349000Y-106738898D01*
X250450876Y-106226733D01*
X250650713Y-105744282D01*
X250940833Y-105310088D01*
X250940834Y-105310086D01*
X251310086Y-104940834D01*
X251744281Y-104650714D01*
X251744282Y-104650713D01*
X252026895Y-104533651D01*
X252226732Y-104450876D01*
X252482816Y-104399938D01*
X252738898Y-104349000D01*
X253261102Y-104349000D01*
X253517184Y-104399938D01*
G37*
M02*
