G04 #@! TF.GenerationSoftware,KiCad,Pcbnew,5.1.5-52549c5~84~ubuntu18.04.1*
G04 #@! TF.CreationDate,2020-02-23T09:36:08-07:00*
G04 #@! TF.ProjectId,cob_2x2,636f625f-3278-4322-9e6b-696361645f70,rev?*
G04 #@! TF.SameCoordinates,Original*
G04 #@! TF.FileFunction,Soldermask,Bot*
G04 #@! TF.FilePolarity,Negative*
%FSLAX46Y46*%
G04 Gerber Fmt 4.6, Leading zero omitted, Abs format (unit mm)*
G04 Created by KiCad (PCBNEW 5.1.5-52549c5~84~ubuntu18.04.1) date 2020-02-23 09:36:08*
%MOMM*%
%LPD*%
G04 APERTURE LIST*
%ADD10C,0.100000*%
G04 APERTURE END LIST*
D10*
G36*
X253773268Y-250450876D02*
G01*
X253973105Y-250533651D01*
X254255718Y-250650713D01*
X254255719Y-250650714D01*
X254689914Y-250940834D01*
X255059166Y-251310086D01*
X255059167Y-251310088D01*
X255349287Y-251744282D01*
X255466349Y-252026895D01*
X255549124Y-252226732D01*
X255651000Y-252738899D01*
X255651000Y-253261101D01*
X255549124Y-253773268D01*
X255466349Y-253973105D01*
X255349287Y-254255718D01*
X255349286Y-254255719D01*
X255059166Y-254689914D01*
X254689914Y-255059166D01*
X254471341Y-255205212D01*
X254255718Y-255349287D01*
X253973105Y-255466349D01*
X253773268Y-255549124D01*
X253517184Y-255600062D01*
X253261102Y-255651000D01*
X252738898Y-255651000D01*
X252482816Y-255600062D01*
X252226732Y-255549124D01*
X252026895Y-255466349D01*
X251744282Y-255349287D01*
X251528659Y-255205212D01*
X251310086Y-255059166D01*
X250940834Y-254689914D01*
X250650714Y-254255719D01*
X250650713Y-254255718D01*
X250533651Y-253973105D01*
X250450876Y-253773268D01*
X250349000Y-253261101D01*
X250349000Y-252738899D01*
X250450876Y-252226732D01*
X250533651Y-252026895D01*
X250650713Y-251744282D01*
X250940833Y-251310088D01*
X250940834Y-251310086D01*
X251310086Y-250940834D01*
X251744281Y-250650714D01*
X251744282Y-250650713D01*
X252026895Y-250533651D01*
X252226732Y-250450876D01*
X252738898Y-250349000D01*
X253261102Y-250349000D01*
X253773268Y-250450876D01*
G37*
G36*
X107773268Y-250450876D02*
G01*
X107973105Y-250533651D01*
X108255718Y-250650713D01*
X108255719Y-250650714D01*
X108689914Y-250940834D01*
X109059166Y-251310086D01*
X109059167Y-251310088D01*
X109349287Y-251744282D01*
X109466349Y-252026895D01*
X109549124Y-252226732D01*
X109651000Y-252738899D01*
X109651000Y-253261101D01*
X109549124Y-253773268D01*
X109466349Y-253973105D01*
X109349287Y-254255718D01*
X109349286Y-254255719D01*
X109059166Y-254689914D01*
X108689914Y-255059166D01*
X108471341Y-255205212D01*
X108255718Y-255349287D01*
X107973105Y-255466349D01*
X107773268Y-255549124D01*
X107517184Y-255600062D01*
X107261102Y-255651000D01*
X106738898Y-255651000D01*
X106482816Y-255600062D01*
X106226732Y-255549124D01*
X106026895Y-255466349D01*
X105744282Y-255349287D01*
X105528659Y-255205212D01*
X105310086Y-255059166D01*
X104940834Y-254689914D01*
X104650714Y-254255719D01*
X104650713Y-254255718D01*
X104533651Y-253973105D01*
X104450876Y-253773268D01*
X104349000Y-253261101D01*
X104349000Y-252738899D01*
X104450876Y-252226732D01*
X104533651Y-252026895D01*
X104650713Y-251744282D01*
X104940833Y-251310088D01*
X104940834Y-251310086D01*
X105310086Y-250940834D01*
X105744281Y-250650714D01*
X105744282Y-250650713D01*
X106026895Y-250533651D01*
X106226732Y-250450876D01*
X106738898Y-250349000D01*
X107261102Y-250349000D01*
X107773268Y-250450876D01*
G37*
G36*
X186463512Y-252103927D02*
G01*
X186612812Y-252133624D01*
X186776784Y-252201544D01*
X186924354Y-252300147D01*
X187049853Y-252425646D01*
X187148456Y-252573216D01*
X187216376Y-252737188D01*
X187251000Y-252911259D01*
X187251000Y-253088741D01*
X187216376Y-253262812D01*
X187148456Y-253426784D01*
X187049853Y-253574354D01*
X186924354Y-253699853D01*
X186776784Y-253798456D01*
X186612812Y-253866376D01*
X186463512Y-253896073D01*
X186438742Y-253901000D01*
X186261258Y-253901000D01*
X186236488Y-253896073D01*
X186087188Y-253866376D01*
X185923216Y-253798456D01*
X185775646Y-253699853D01*
X185650147Y-253574354D01*
X185551544Y-253426784D01*
X185483624Y-253262812D01*
X185449000Y-253088741D01*
X185449000Y-252911259D01*
X185483624Y-252737188D01*
X185551544Y-252573216D01*
X185650147Y-252425646D01*
X185775646Y-252300147D01*
X185923216Y-252201544D01*
X186087188Y-252133624D01*
X186236488Y-252103927D01*
X186261258Y-252099000D01*
X186438742Y-252099000D01*
X186463512Y-252103927D01*
G37*
G36*
X174551000Y-253901000D02*
G01*
X172749000Y-253901000D01*
X172749000Y-252099000D01*
X174551000Y-252099000D01*
X174551000Y-253901000D01*
G37*
G36*
X176303512Y-252103927D02*
G01*
X176452812Y-252133624D01*
X176616784Y-252201544D01*
X176764354Y-252300147D01*
X176889853Y-252425646D01*
X176988456Y-252573216D01*
X177056376Y-252737188D01*
X177091000Y-252911259D01*
X177091000Y-253088741D01*
X177056376Y-253262812D01*
X176988456Y-253426784D01*
X176889853Y-253574354D01*
X176764354Y-253699853D01*
X176616784Y-253798456D01*
X176452812Y-253866376D01*
X176303512Y-253896073D01*
X176278742Y-253901000D01*
X176101258Y-253901000D01*
X176076488Y-253896073D01*
X175927188Y-253866376D01*
X175763216Y-253798456D01*
X175615646Y-253699853D01*
X175490147Y-253574354D01*
X175391544Y-253426784D01*
X175323624Y-253262812D01*
X175289000Y-253088741D01*
X175289000Y-252911259D01*
X175323624Y-252737188D01*
X175391544Y-252573216D01*
X175490147Y-252425646D01*
X175615646Y-252300147D01*
X175763216Y-252201544D01*
X175927188Y-252133624D01*
X176076488Y-252103927D01*
X176101258Y-252099000D01*
X176278742Y-252099000D01*
X176303512Y-252103927D01*
G37*
G36*
X178843512Y-252103927D02*
G01*
X178992812Y-252133624D01*
X179156784Y-252201544D01*
X179304354Y-252300147D01*
X179429853Y-252425646D01*
X179528456Y-252573216D01*
X179596376Y-252737188D01*
X179631000Y-252911259D01*
X179631000Y-253088741D01*
X179596376Y-253262812D01*
X179528456Y-253426784D01*
X179429853Y-253574354D01*
X179304354Y-253699853D01*
X179156784Y-253798456D01*
X178992812Y-253866376D01*
X178843512Y-253896073D01*
X178818742Y-253901000D01*
X178641258Y-253901000D01*
X178616488Y-253896073D01*
X178467188Y-253866376D01*
X178303216Y-253798456D01*
X178155646Y-253699853D01*
X178030147Y-253574354D01*
X177931544Y-253426784D01*
X177863624Y-253262812D01*
X177829000Y-253088741D01*
X177829000Y-252911259D01*
X177863624Y-252737188D01*
X177931544Y-252573216D01*
X178030147Y-252425646D01*
X178155646Y-252300147D01*
X178303216Y-252201544D01*
X178467188Y-252133624D01*
X178616488Y-252103927D01*
X178641258Y-252099000D01*
X178818742Y-252099000D01*
X178843512Y-252103927D01*
G37*
G36*
X181383512Y-252103927D02*
G01*
X181532812Y-252133624D01*
X181696784Y-252201544D01*
X181844354Y-252300147D01*
X181969853Y-252425646D01*
X182068456Y-252573216D01*
X182136376Y-252737188D01*
X182171000Y-252911259D01*
X182171000Y-253088741D01*
X182136376Y-253262812D01*
X182068456Y-253426784D01*
X181969853Y-253574354D01*
X181844354Y-253699853D01*
X181696784Y-253798456D01*
X181532812Y-253866376D01*
X181383512Y-253896073D01*
X181358742Y-253901000D01*
X181181258Y-253901000D01*
X181156488Y-253896073D01*
X181007188Y-253866376D01*
X180843216Y-253798456D01*
X180695646Y-253699853D01*
X180570147Y-253574354D01*
X180471544Y-253426784D01*
X180403624Y-253262812D01*
X180369000Y-253088741D01*
X180369000Y-252911259D01*
X180403624Y-252737188D01*
X180471544Y-252573216D01*
X180570147Y-252425646D01*
X180695646Y-252300147D01*
X180843216Y-252201544D01*
X181007188Y-252133624D01*
X181156488Y-252103927D01*
X181181258Y-252099000D01*
X181358742Y-252099000D01*
X181383512Y-252103927D01*
G37*
G36*
X183923512Y-252103927D02*
G01*
X184072812Y-252133624D01*
X184236784Y-252201544D01*
X184384354Y-252300147D01*
X184509853Y-252425646D01*
X184608456Y-252573216D01*
X184676376Y-252737188D01*
X184711000Y-252911259D01*
X184711000Y-253088741D01*
X184676376Y-253262812D01*
X184608456Y-253426784D01*
X184509853Y-253574354D01*
X184384354Y-253699853D01*
X184236784Y-253798456D01*
X184072812Y-253866376D01*
X183923512Y-253896073D01*
X183898742Y-253901000D01*
X183721258Y-253901000D01*
X183696488Y-253896073D01*
X183547188Y-253866376D01*
X183383216Y-253798456D01*
X183235646Y-253699853D01*
X183110147Y-253574354D01*
X183011544Y-253426784D01*
X182943624Y-253262812D01*
X182909000Y-253088741D01*
X182909000Y-252911259D01*
X182943624Y-252737188D01*
X183011544Y-252573216D01*
X183110147Y-252425646D01*
X183235646Y-252300147D01*
X183383216Y-252201544D01*
X183547188Y-252133624D01*
X183696488Y-252103927D01*
X183721258Y-252099000D01*
X183898742Y-252099000D01*
X183923512Y-252103927D01*
G37*
G36*
X194901000Y-253901000D02*
G01*
X193099000Y-253901000D01*
X193099000Y-252099000D01*
X194901000Y-252099000D01*
X194901000Y-253901000D01*
G37*
G36*
X191573512Y-252103927D02*
G01*
X191722812Y-252133624D01*
X191886784Y-252201544D01*
X192034354Y-252300147D01*
X192159853Y-252425646D01*
X192258456Y-252573216D01*
X192326376Y-252737188D01*
X192361000Y-252911259D01*
X192361000Y-253088741D01*
X192326376Y-253262812D01*
X192258456Y-253426784D01*
X192159853Y-253574354D01*
X192034354Y-253699853D01*
X191886784Y-253798456D01*
X191722812Y-253866376D01*
X191573512Y-253896073D01*
X191548742Y-253901000D01*
X191371258Y-253901000D01*
X191346488Y-253896073D01*
X191197188Y-253866376D01*
X191033216Y-253798456D01*
X190885646Y-253699853D01*
X190760147Y-253574354D01*
X190661544Y-253426784D01*
X190593624Y-253262812D01*
X190559000Y-253088741D01*
X190559000Y-252911259D01*
X190593624Y-252737188D01*
X190661544Y-252573216D01*
X190760147Y-252425646D01*
X190885646Y-252300147D01*
X191033216Y-252201544D01*
X191197188Y-252133624D01*
X191346488Y-252103927D01*
X191371258Y-252099000D01*
X191548742Y-252099000D01*
X191573512Y-252103927D01*
G37*
G36*
X101051981Y-244927468D02*
G01*
X101234151Y-245002926D01*
X101398100Y-245112473D01*
X101537527Y-245251900D01*
X101647074Y-245415849D01*
X101722532Y-245598019D01*
X101761000Y-245791410D01*
X101761000Y-245988590D01*
X101722532Y-246181981D01*
X101647074Y-246364151D01*
X101537527Y-246528100D01*
X101398100Y-246667527D01*
X101234151Y-246777074D01*
X101051981Y-246852532D01*
X100858591Y-246891000D01*
X100661409Y-246891000D01*
X100468019Y-246852532D01*
X100285849Y-246777074D01*
X100121900Y-246667527D01*
X99982473Y-246528100D01*
X99872926Y-246364151D01*
X99797468Y-246181981D01*
X99759000Y-245988590D01*
X99759000Y-245791410D01*
X99797468Y-245598019D01*
X99872926Y-245415849D01*
X99982473Y-245251900D01*
X100121900Y-245112473D01*
X100285849Y-245002926D01*
X100468019Y-244927468D01*
X100661409Y-244889000D01*
X100858591Y-244889000D01*
X101051981Y-244927468D01*
G37*
G36*
X119203088Y-239448990D02*
G01*
X119398380Y-239508231D01*
X119559883Y-239594557D01*
X119578355Y-239604430D01*
X119736107Y-239733893D01*
X119842355Y-239863357D01*
X119865571Y-239891646D01*
X119961769Y-240071619D01*
X120021010Y-240266911D01*
X120036000Y-240419109D01*
X120036000Y-244480891D01*
X120021010Y-244633089D01*
X119961769Y-244828381D01*
X119865571Y-245008354D01*
X119736107Y-245166107D01*
X119578354Y-245295571D01*
X119398381Y-245391769D01*
X119203089Y-245451010D01*
X119000000Y-245471012D01*
X118796912Y-245451010D01*
X118601620Y-245391769D01*
X118421647Y-245295571D01*
X118263894Y-245166107D01*
X118134430Y-245008354D01*
X118038232Y-244828381D01*
X117978991Y-244633089D01*
X117964001Y-244480891D01*
X117964000Y-240419110D01*
X117978990Y-240266912D01*
X118038231Y-240071620D01*
X118134429Y-239891647D01*
X118134430Y-239891645D01*
X118263893Y-239733893D01*
X118421645Y-239604430D01*
X118421644Y-239604430D01*
X118421646Y-239604429D01*
X118601619Y-239508231D01*
X118796911Y-239448990D01*
X119000000Y-239428988D01*
X119203088Y-239448990D01*
G37*
G36*
X119203088Y-231548990D02*
G01*
X119398380Y-231608231D01*
X119559883Y-231694557D01*
X119578355Y-231704430D01*
X119736107Y-231833893D01*
X119780123Y-231887527D01*
X119865571Y-231991646D01*
X119961769Y-232171619D01*
X120021010Y-232366911D01*
X120036000Y-232519109D01*
X120036000Y-236580891D01*
X120021010Y-236733089D01*
X119961769Y-236928381D01*
X119865571Y-237108354D01*
X119736107Y-237266107D01*
X119578354Y-237395571D01*
X119398381Y-237491769D01*
X119203089Y-237551010D01*
X119000000Y-237571012D01*
X118796912Y-237551010D01*
X118601620Y-237491769D01*
X118421647Y-237395571D01*
X118263894Y-237266107D01*
X118134430Y-237108354D01*
X118038232Y-236928381D01*
X117978991Y-236733089D01*
X117964001Y-236580891D01*
X117964000Y-232519110D01*
X117978990Y-232366912D01*
X118038231Y-232171620D01*
X118134429Y-231991647D01*
X118134430Y-231991645D01*
X118263893Y-231833893D01*
X118421645Y-231704430D01*
X118421644Y-231704430D01*
X118421646Y-231704429D01*
X118601619Y-231608231D01*
X118796911Y-231548990D01*
X119000000Y-231528988D01*
X119203088Y-231548990D01*
G37*
G36*
X101051981Y-230147468D02*
G01*
X101234151Y-230222926D01*
X101398100Y-230332473D01*
X101537527Y-230471900D01*
X101647074Y-230635849D01*
X101722532Y-230818019D01*
X101761000Y-231011410D01*
X101761000Y-231208590D01*
X101722532Y-231401981D01*
X101647074Y-231584151D01*
X101537527Y-231748100D01*
X101398100Y-231887527D01*
X101234151Y-231997074D01*
X101051981Y-232072532D01*
X100955285Y-232091766D01*
X100858591Y-232111000D01*
X100661409Y-232111000D01*
X100564715Y-232091766D01*
X100468019Y-232072532D01*
X100285849Y-231997074D01*
X100121900Y-231887527D01*
X99982473Y-231748100D01*
X99872926Y-231584151D01*
X99797468Y-231401981D01*
X99759000Y-231208590D01*
X99759000Y-231011410D01*
X99797468Y-230818019D01*
X99872926Y-230635849D01*
X99982473Y-230471900D01*
X100121900Y-230332473D01*
X100285849Y-230222926D01*
X100468019Y-230147468D01*
X100661409Y-230109000D01*
X100858591Y-230109000D01*
X101051981Y-230147468D01*
G37*
G36*
X103801000Y-228701000D02*
G01*
X101999000Y-228701000D01*
X101999000Y-226899000D01*
X103801000Y-226899000D01*
X103801000Y-228701000D01*
G37*
G36*
X103013512Y-224363927D02*
G01*
X103162812Y-224393624D01*
X103326784Y-224461544D01*
X103474354Y-224560147D01*
X103599853Y-224685646D01*
X103698456Y-224833216D01*
X103766376Y-224997188D01*
X103801000Y-225171259D01*
X103801000Y-225348741D01*
X103766376Y-225522812D01*
X103698456Y-225686784D01*
X103599853Y-225834354D01*
X103474354Y-225959853D01*
X103326784Y-226058456D01*
X103162812Y-226126376D01*
X103013512Y-226156073D01*
X102988742Y-226161000D01*
X102811258Y-226161000D01*
X102786488Y-226156073D01*
X102637188Y-226126376D01*
X102473216Y-226058456D01*
X102325646Y-225959853D01*
X102200147Y-225834354D01*
X102101544Y-225686784D01*
X102033624Y-225522812D01*
X101999000Y-225348741D01*
X101999000Y-225171259D01*
X102033624Y-224997188D01*
X102101544Y-224833216D01*
X102200147Y-224685646D01*
X102325646Y-224560147D01*
X102473216Y-224461544D01*
X102637188Y-224393624D01*
X102786488Y-224363927D01*
X102811258Y-224359000D01*
X102988742Y-224359000D01*
X103013512Y-224363927D01*
G37*
G36*
X253003512Y-185453927D02*
G01*
X253152812Y-185483624D01*
X253316784Y-185551544D01*
X253464354Y-185650147D01*
X253589853Y-185775646D01*
X253688456Y-185923216D01*
X253756376Y-186087188D01*
X253791000Y-186261259D01*
X253791000Y-186438741D01*
X253756376Y-186612812D01*
X253688456Y-186776784D01*
X253589853Y-186924354D01*
X253464354Y-187049853D01*
X253316784Y-187148456D01*
X253152812Y-187216376D01*
X253003512Y-187246073D01*
X252978742Y-187251000D01*
X252801258Y-187251000D01*
X252776488Y-187246073D01*
X252627188Y-187216376D01*
X252463216Y-187148456D01*
X252315646Y-187049853D01*
X252190147Y-186924354D01*
X252091544Y-186776784D01*
X252023624Y-186612812D01*
X251989000Y-186438741D01*
X251989000Y-186261259D01*
X252023624Y-186087188D01*
X252091544Y-185923216D01*
X252190147Y-185775646D01*
X252315646Y-185650147D01*
X252463216Y-185551544D01*
X252627188Y-185483624D01*
X252776488Y-185453927D01*
X252801258Y-185449000D01*
X252978742Y-185449000D01*
X253003512Y-185453927D01*
G37*
G36*
X253003512Y-182913927D02*
G01*
X253152812Y-182943624D01*
X253316784Y-183011544D01*
X253464354Y-183110147D01*
X253589853Y-183235646D01*
X253688456Y-183383216D01*
X253756376Y-183547188D01*
X253791000Y-183721259D01*
X253791000Y-183898741D01*
X253756376Y-184072812D01*
X253688456Y-184236784D01*
X253589853Y-184384354D01*
X253464354Y-184509853D01*
X253316784Y-184608456D01*
X253152812Y-184676376D01*
X253003512Y-184706073D01*
X252978742Y-184711000D01*
X252801258Y-184711000D01*
X252776488Y-184706073D01*
X252627188Y-184676376D01*
X252463216Y-184608456D01*
X252315646Y-184509853D01*
X252190147Y-184384354D01*
X252091544Y-184236784D01*
X252023624Y-184072812D01*
X251989000Y-183898741D01*
X251989000Y-183721259D01*
X252023624Y-183547188D01*
X252091544Y-183383216D01*
X252190147Y-183235646D01*
X252315646Y-183110147D01*
X252463216Y-183011544D01*
X252627188Y-182943624D01*
X252776488Y-182913927D01*
X252801258Y-182909000D01*
X252978742Y-182909000D01*
X253003512Y-182913927D01*
G37*
G36*
X253003512Y-180373927D02*
G01*
X253152812Y-180403624D01*
X253316784Y-180471544D01*
X253464354Y-180570147D01*
X253589853Y-180695646D01*
X253688456Y-180843216D01*
X253756376Y-181007188D01*
X253791000Y-181181259D01*
X253791000Y-181358741D01*
X253756376Y-181532812D01*
X253688456Y-181696784D01*
X253589853Y-181844354D01*
X253464354Y-181969853D01*
X253316784Y-182068456D01*
X253152812Y-182136376D01*
X253003512Y-182166073D01*
X252978742Y-182171000D01*
X252801258Y-182171000D01*
X252776488Y-182166073D01*
X252627188Y-182136376D01*
X252463216Y-182068456D01*
X252315646Y-181969853D01*
X252190147Y-181844354D01*
X252091544Y-181696784D01*
X252023624Y-181532812D01*
X251989000Y-181358741D01*
X251989000Y-181181259D01*
X252023624Y-181007188D01*
X252091544Y-180843216D01*
X252190147Y-180695646D01*
X252315646Y-180570147D01*
X252463216Y-180471544D01*
X252627188Y-180403624D01*
X252776488Y-180373927D01*
X252801258Y-180369000D01*
X252978742Y-180369000D01*
X253003512Y-180373927D01*
G37*
G36*
X253003512Y-177833927D02*
G01*
X253152812Y-177863624D01*
X253316784Y-177931544D01*
X253464354Y-178030147D01*
X253589853Y-178155646D01*
X253688456Y-178303216D01*
X253756376Y-178467188D01*
X253791000Y-178641259D01*
X253791000Y-178818741D01*
X253756376Y-178992812D01*
X253688456Y-179156784D01*
X253589853Y-179304354D01*
X253464354Y-179429853D01*
X253316784Y-179528456D01*
X253152812Y-179596376D01*
X253003512Y-179626073D01*
X252978742Y-179631000D01*
X252801258Y-179631000D01*
X252776488Y-179626073D01*
X252627188Y-179596376D01*
X252463216Y-179528456D01*
X252315646Y-179429853D01*
X252190147Y-179304354D01*
X252091544Y-179156784D01*
X252023624Y-178992812D01*
X251989000Y-178818741D01*
X251989000Y-178641259D01*
X252023624Y-178467188D01*
X252091544Y-178303216D01*
X252190147Y-178155646D01*
X252315646Y-178030147D01*
X252463216Y-177931544D01*
X252627188Y-177863624D01*
X252776488Y-177833927D01*
X252801258Y-177829000D01*
X252978742Y-177829000D01*
X253003512Y-177833927D01*
G37*
G36*
X253003512Y-175293927D02*
G01*
X253152812Y-175323624D01*
X253316784Y-175391544D01*
X253464354Y-175490147D01*
X253589853Y-175615646D01*
X253688456Y-175763216D01*
X253756376Y-175927188D01*
X253791000Y-176101259D01*
X253791000Y-176278741D01*
X253756376Y-176452812D01*
X253688456Y-176616784D01*
X253589853Y-176764354D01*
X253464354Y-176889853D01*
X253316784Y-176988456D01*
X253152812Y-177056376D01*
X253003512Y-177086073D01*
X252978742Y-177091000D01*
X252801258Y-177091000D01*
X252776488Y-177086073D01*
X252627188Y-177056376D01*
X252463216Y-176988456D01*
X252315646Y-176889853D01*
X252190147Y-176764354D01*
X252091544Y-176616784D01*
X252023624Y-176452812D01*
X251989000Y-176278741D01*
X251989000Y-176101259D01*
X252023624Y-175927188D01*
X252091544Y-175763216D01*
X252190147Y-175615646D01*
X252315646Y-175490147D01*
X252463216Y-175391544D01*
X252627188Y-175323624D01*
X252776488Y-175293927D01*
X252801258Y-175289000D01*
X252978742Y-175289000D01*
X253003512Y-175293927D01*
G37*
G36*
X253791000Y-174551000D02*
G01*
X251989000Y-174551000D01*
X251989000Y-172749000D01*
X253791000Y-172749000D01*
X253791000Y-174551000D01*
G37*
G36*
X107517184Y-104399938D02*
G01*
X107773268Y-104450876D01*
X107973105Y-104533651D01*
X108255718Y-104650713D01*
X108255719Y-104650714D01*
X108689914Y-104940834D01*
X109059166Y-105310086D01*
X109059167Y-105310088D01*
X109349287Y-105744282D01*
X109549124Y-106226733D01*
X109651000Y-106738898D01*
X109651000Y-107261102D01*
X109549124Y-107773267D01*
X109349287Y-108255718D01*
X109349286Y-108255719D01*
X109059166Y-108689914D01*
X108689914Y-109059166D01*
X108471341Y-109205212D01*
X108255718Y-109349287D01*
X107973105Y-109466349D01*
X107773268Y-109549124D01*
X107261102Y-109651000D01*
X106738898Y-109651000D01*
X106226732Y-109549124D01*
X106026895Y-109466349D01*
X105744282Y-109349287D01*
X105528659Y-109205212D01*
X105310086Y-109059166D01*
X104940834Y-108689914D01*
X104650714Y-108255719D01*
X104650713Y-108255718D01*
X104450876Y-107773267D01*
X104349000Y-107261102D01*
X104349000Y-106738898D01*
X104450876Y-106226733D01*
X104650713Y-105744282D01*
X104940833Y-105310088D01*
X104940834Y-105310086D01*
X105310086Y-104940834D01*
X105744281Y-104650714D01*
X105744282Y-104650713D01*
X106026895Y-104533651D01*
X106226732Y-104450876D01*
X106482816Y-104399938D01*
X106738898Y-104349000D01*
X107261102Y-104349000D01*
X107517184Y-104399938D01*
G37*
G36*
X253517184Y-104399938D02*
G01*
X253773268Y-104450876D01*
X253973105Y-104533651D01*
X254255718Y-104650713D01*
X254255719Y-104650714D01*
X254689914Y-104940834D01*
X255059166Y-105310086D01*
X255059167Y-105310088D01*
X255349287Y-105744282D01*
X255549124Y-106226733D01*
X255651000Y-106738898D01*
X255651000Y-107261102D01*
X255549124Y-107773267D01*
X255349287Y-108255718D01*
X255349286Y-108255719D01*
X255059166Y-108689914D01*
X254689914Y-109059166D01*
X254471341Y-109205212D01*
X254255718Y-109349287D01*
X253973105Y-109466349D01*
X253773268Y-109549124D01*
X253261102Y-109651000D01*
X252738898Y-109651000D01*
X252226732Y-109549124D01*
X252026895Y-109466349D01*
X251744282Y-109349287D01*
X251528659Y-109205212D01*
X251310086Y-109059166D01*
X250940834Y-108689914D01*
X250650714Y-108255719D01*
X250650713Y-108255718D01*
X250450876Y-107773267D01*
X250349000Y-107261102D01*
X250349000Y-106738898D01*
X250450876Y-106226733D01*
X250650713Y-105744282D01*
X250940833Y-105310088D01*
X250940834Y-105310086D01*
X251310086Y-104940834D01*
X251744281Y-104650714D01*
X251744282Y-104650713D01*
X252026895Y-104533651D01*
X252226732Y-104450876D01*
X252482816Y-104399938D01*
X252738898Y-104349000D01*
X253261102Y-104349000D01*
X253517184Y-104399938D01*
G37*
M02*
