G04 #@! TF.GenerationSoftware,KiCad,Pcbnew,5.1.5-52549c5~84~ubuntu18.04.1*
G04 #@! TF.CreationDate,2020-02-23T09:36:08-07:00*
G04 #@! TF.ProjectId,cob_2x2,636f625f-3278-4322-9e6b-696361645f70,rev?*
G04 #@! TF.SameCoordinates,Original*
G04 #@! TF.FileFunction,Legend,Bot*
G04 #@! TF.FilePolarity,Positive*
%FSLAX46Y46*%
G04 Gerber Fmt 4.6, Leading zero omitted, Abs format (unit mm)*
G04 Created by KiCad (PCBNEW 5.1.5-52549c5~84~ubuntu18.04.1) date 2020-02-23 09:36:08*
%MOMM*%
%LPD*%
G04 APERTURE LIST*
%ADD10C,0.300000*%
%ADD11C,0.150000*%
%ADD12C,0.120000*%
G04 APERTURE END LIST*
D10*
X123178571Y-235452380D02*
X123178571Y-233547619D01*
D11*
X111923809Y-225704761D02*
X111780952Y-225752380D01*
X111542857Y-225752380D01*
X111447619Y-225704761D01*
X111400000Y-225657142D01*
X111352380Y-225561904D01*
X111352380Y-225466666D01*
X111400000Y-225371428D01*
X111447619Y-225323809D01*
X111542857Y-225276190D01*
X111733333Y-225228571D01*
X111828571Y-225180952D01*
X111876190Y-225133333D01*
X111923809Y-225038095D01*
X111923809Y-224942857D01*
X111876190Y-224847619D01*
X111828571Y-224800000D01*
X111733333Y-224752380D01*
X111495238Y-224752380D01*
X111352380Y-224800000D01*
X110923809Y-225752380D02*
X110923809Y-224752380D01*
X109923809Y-224800000D02*
X110019047Y-224752380D01*
X110161904Y-224752380D01*
X110304761Y-224800000D01*
X110400000Y-224895238D01*
X110447619Y-224990476D01*
X110495238Y-225180952D01*
X110495238Y-225323809D01*
X110447619Y-225514285D01*
X110400000Y-225609523D01*
X110304761Y-225704761D01*
X110161904Y-225752380D01*
X110066666Y-225752380D01*
X109923809Y-225704761D01*
X109876190Y-225657142D01*
X109876190Y-225323809D01*
X110066666Y-225323809D01*
X109447619Y-225752380D02*
X109447619Y-224752380D01*
X108876190Y-225752380D01*
X108876190Y-224752380D01*
X108447619Y-225466666D02*
X107971428Y-225466666D01*
X108542857Y-225752380D02*
X108209523Y-224752380D01*
X107876190Y-225752380D01*
X107066666Y-225752380D02*
X107542857Y-225752380D01*
X107542857Y-224752380D01*
X106971428Y-225847619D02*
X106209523Y-225847619D01*
X105971428Y-225752380D02*
X105971428Y-224752380D01*
X105495238Y-225752380D02*
X105495238Y-224752380D01*
X104923809Y-225752380D01*
X104923809Y-224752380D01*
X106911904Y-227550000D02*
X107007142Y-227502380D01*
X107150000Y-227502380D01*
X107292857Y-227550000D01*
X107388095Y-227645238D01*
X107435714Y-227740476D01*
X107483333Y-227930952D01*
X107483333Y-228073809D01*
X107435714Y-228264285D01*
X107388095Y-228359523D01*
X107292857Y-228454761D01*
X107150000Y-228502380D01*
X107054761Y-228502380D01*
X106911904Y-228454761D01*
X106864285Y-228407142D01*
X106864285Y-228073809D01*
X107054761Y-228073809D01*
X106435714Y-228502380D02*
X106435714Y-227502380D01*
X105864285Y-228502380D01*
X105864285Y-227502380D01*
X105388095Y-228502380D02*
X105388095Y-227502380D01*
X105150000Y-227502380D01*
X105007142Y-227550000D01*
X104911904Y-227645238D01*
X104864285Y-227740476D01*
X104816666Y-227930952D01*
X104816666Y-228073809D01*
X104864285Y-228264285D01*
X104911904Y-228359523D01*
X105007142Y-228454761D01*
X105150000Y-228502380D01*
X105388095Y-228502380D01*
D10*
X123178571Y-243952380D02*
X123178571Y-242047619D01*
X124130952Y-243000000D02*
X122226190Y-243000000D01*
D11*
X186654761Y-246083333D02*
X186702380Y-246226190D01*
X186702380Y-246464285D01*
X186654761Y-246559523D01*
X186607142Y-246607142D01*
X186511904Y-246654761D01*
X186416666Y-246654761D01*
X186321428Y-246607142D01*
X186273809Y-246559523D01*
X186226190Y-246464285D01*
X186178571Y-246273809D01*
X186130952Y-246178571D01*
X186083333Y-246130952D01*
X185988095Y-246083333D01*
X185892857Y-246083333D01*
X185797619Y-246130952D01*
X185750000Y-246178571D01*
X185702380Y-246273809D01*
X185702380Y-246511904D01*
X185750000Y-246654761D01*
X186702380Y-247083333D02*
X185702380Y-247083333D01*
X185750000Y-248083333D02*
X185702380Y-247988095D01*
X185702380Y-247845238D01*
X185750000Y-247702380D01*
X185845238Y-247607142D01*
X185940476Y-247559523D01*
X186130952Y-247511904D01*
X186273809Y-247511904D01*
X186464285Y-247559523D01*
X186559523Y-247607142D01*
X186654761Y-247702380D01*
X186702380Y-247845238D01*
X186702380Y-247940476D01*
X186654761Y-248083333D01*
X186607142Y-248130952D01*
X186273809Y-248130952D01*
X186273809Y-247940476D01*
X186797619Y-248321428D02*
X186797619Y-249083333D01*
X186702380Y-249321428D02*
X185702380Y-249321428D01*
X186702380Y-249797619D02*
X185702380Y-249797619D01*
X186702380Y-250369047D01*
X185702380Y-250369047D01*
D12*
X177000000Y-251500000D02*
X177000000Y-251750000D01*
D11*
X180761904Y-250250000D02*
X180857142Y-250202380D01*
X181000000Y-250202380D01*
X181142857Y-250250000D01*
X181238095Y-250345238D01*
X181285714Y-250440476D01*
X181333333Y-250630952D01*
X181333333Y-250773809D01*
X181285714Y-250964285D01*
X181238095Y-251059523D01*
X181142857Y-251154761D01*
X181000000Y-251202380D01*
X180904761Y-251202380D01*
X180761904Y-251154761D01*
X180714285Y-251107142D01*
X180714285Y-250773809D01*
X180904761Y-250773809D01*
X180285714Y-251202380D02*
X180285714Y-250202380D01*
X179714285Y-251202380D01*
X179714285Y-250202380D01*
X179238095Y-251202380D02*
X179238095Y-250202380D01*
X179000000Y-250202380D01*
X178857142Y-250250000D01*
X178761904Y-250345238D01*
X178714285Y-250440476D01*
X178666666Y-250630952D01*
X178666666Y-250773809D01*
X178714285Y-250964285D01*
X178761904Y-251059523D01*
X178857142Y-251154761D01*
X179000000Y-251202380D01*
X179238095Y-251202380D01*
D12*
X172750000Y-251500000D02*
X177000000Y-251500000D01*
D11*
X175321428Y-250952380D02*
X175892857Y-250952380D01*
X175607142Y-250952380D02*
X175607142Y-249952380D01*
X175702380Y-250095238D01*
X175797619Y-250190476D01*
X175892857Y-250238095D01*
X174940476Y-250047619D02*
X174892857Y-250000000D01*
X174797619Y-249952380D01*
X174559523Y-249952380D01*
X174464285Y-250000000D01*
X174416666Y-250047619D01*
X174369047Y-250142857D01*
X174369047Y-250238095D01*
X174416666Y-250380952D01*
X174988095Y-250952380D01*
X174369047Y-250952380D01*
X174035714Y-250285714D02*
X173797619Y-250952380D01*
X173559523Y-250285714D01*
D12*
X182000000Y-251500000D02*
X182000000Y-251750000D01*
X250500000Y-178250000D02*
X250750000Y-178250000D01*
X250500000Y-182250000D02*
X250750000Y-182250000D01*
X250500000Y-177000000D02*
X250750000Y-177000000D01*
X250500000Y-172750000D02*
X250500000Y-177000000D01*
X250500000Y-178250000D02*
X250500000Y-182250000D01*
X250500000Y-172750000D02*
X250750000Y-172750000D01*
D11*
X249952380Y-174178571D02*
X249952380Y-173607142D01*
X249952380Y-173892857D02*
X248952380Y-173892857D01*
X249095238Y-173797619D01*
X249190476Y-173702380D01*
X249238095Y-173607142D01*
X249047619Y-174559523D02*
X249000000Y-174607142D01*
X248952380Y-174702380D01*
X248952380Y-174940476D01*
X249000000Y-175035714D01*
X249047619Y-175083333D01*
X249142857Y-175130952D01*
X249238095Y-175130952D01*
X249380952Y-175083333D01*
X249952380Y-174511904D01*
X249952380Y-175130952D01*
X249285714Y-175464285D02*
X249952380Y-175702380D01*
X249285714Y-175940476D01*
X249000000Y-179488095D02*
X248952380Y-179392857D01*
X248952380Y-179250000D01*
X249000000Y-179107142D01*
X249095238Y-179011904D01*
X249190476Y-178964285D01*
X249380952Y-178916666D01*
X249523809Y-178916666D01*
X249714285Y-178964285D01*
X249809523Y-179011904D01*
X249904761Y-179107142D01*
X249952380Y-179250000D01*
X249952380Y-179345238D01*
X249904761Y-179488095D01*
X249857142Y-179535714D01*
X249523809Y-179535714D01*
X249523809Y-179345238D01*
X249952380Y-179964285D02*
X248952380Y-179964285D01*
X249952380Y-180535714D01*
X248952380Y-180535714D01*
X249952380Y-181011904D02*
X248952380Y-181011904D01*
X248952380Y-181250000D01*
X249000000Y-181392857D01*
X249095238Y-181488095D01*
X249190476Y-181535714D01*
X249380952Y-181583333D01*
X249523809Y-181583333D01*
X249714285Y-181535714D01*
X249809523Y-181488095D01*
X249904761Y-181392857D01*
X249952380Y-181250000D01*
X249952380Y-181011904D01*
X250333333Y-186904761D02*
X250190476Y-186952380D01*
X249952380Y-186952380D01*
X249857142Y-186904761D01*
X249809523Y-186857142D01*
X249761904Y-186761904D01*
X249761904Y-186666666D01*
X249809523Y-186571428D01*
X249857142Y-186523809D01*
X249952380Y-186476190D01*
X250142857Y-186428571D01*
X250238095Y-186380952D01*
X250285714Y-186333333D01*
X250333333Y-186238095D01*
X250333333Y-186142857D01*
X250285714Y-186047619D01*
X250238095Y-186000000D01*
X250142857Y-185952380D01*
X249904761Y-185952380D01*
X249761904Y-186000000D01*
X249333333Y-186952380D02*
X249333333Y-185952380D01*
X248333333Y-186000000D02*
X248428571Y-185952380D01*
X248571428Y-185952380D01*
X248714285Y-186000000D01*
X248809523Y-186095238D01*
X248857142Y-186190476D01*
X248904761Y-186380952D01*
X248904761Y-186523809D01*
X248857142Y-186714285D01*
X248809523Y-186809523D01*
X248714285Y-186904761D01*
X248571428Y-186952380D01*
X248476190Y-186952380D01*
X248333333Y-186904761D01*
X248285714Y-186857142D01*
X248285714Y-186523809D01*
X248476190Y-186523809D01*
X248095238Y-187047619D02*
X247333333Y-187047619D01*
X246904761Y-185952380D02*
X246714285Y-185952380D01*
X246619047Y-186000000D01*
X246523809Y-186095238D01*
X246476190Y-186285714D01*
X246476190Y-186619047D01*
X246523809Y-186809523D01*
X246619047Y-186904761D01*
X246714285Y-186952380D01*
X246904761Y-186952380D01*
X247000000Y-186904761D01*
X247095238Y-186809523D01*
X247142857Y-186619047D01*
X247142857Y-186285714D01*
X247095238Y-186095238D01*
X247000000Y-186000000D01*
X246904761Y-185952380D01*
X246047619Y-185952380D02*
X246047619Y-186761904D01*
X246000000Y-186857142D01*
X245952380Y-186904761D01*
X245857142Y-186952380D01*
X245666666Y-186952380D01*
X245571428Y-186904761D01*
X245523809Y-186857142D01*
X245476190Y-186761904D01*
X245476190Y-185952380D01*
X245142857Y-185952380D02*
X244571428Y-185952380D01*
X244857142Y-186952380D02*
X244857142Y-185952380D01*
D12*
X178000000Y-251500000D02*
X178000000Y-251750000D01*
X178000000Y-251500000D02*
X182000000Y-251500000D01*
D11*
X112000000Y-253000000D02*
G75*
G03X112000000Y-253000000I-5000000J0D01*
G01*
X258000000Y-253000000D02*
G75*
G03X258000000Y-253000000I-5000000J0D01*
G01*
X258000000Y-107000000D02*
G75*
G03X258000000Y-107000000I-5000000J0D01*
G01*
X112000000Y-107000000D02*
G75*
G03X112000000Y-107000000I-5000000J0D01*
G01*
M02*
