M48
; DRILL file {KiCad 5.1.5-52549c5~84~ubuntu18.04.1} date Mon 06 Jan 2020 07:21:01 PM MST
; FORMAT={-:-/ absolute / inch / decimal}
; #@! TF.CreationDate,2020-01-06T19:21:01-07:00
; #@! TF.GenerationSoftware,Kicad,Pcbnew,5.1.5-52549c5~84~ubuntu18.04.1
; #@! TF.FileFunction,Plated,1,2,PTH
FMAT,2
INCH
T1C0.0118
T2C0.0157
T3C0.0394
T4C0.0472
T5C0.0500
T6C0.1969
%
G90
G05
T1
X5.3543Y-5.3543
X5.3543Y-5.3937
X5.3543Y-5.4331
X5.3543Y-5.4724
X5.3543Y-5.5118
X5.3543Y-5.5512
X5.3543Y-5.5906
X5.3543Y-5.6299
X5.3543Y-5.6693
X5.3543Y-8.5039
X5.3543Y-8.5433
X5.3543Y-8.5827
X5.3543Y-8.622
X5.3543Y-8.6614
X5.3543Y-8.7008
X5.3543Y-8.7402
X5.3543Y-8.7795
X5.3543Y-8.8189
X5.3937Y-5.3543
X5.3937Y-5.3937
X5.3937Y-5.4331
X5.3937Y-5.5906
X5.3937Y-5.6299
X5.3937Y-5.6693
X5.3937Y-8.5039
X5.3937Y-8.5433
X5.3937Y-8.5827
X5.3937Y-8.7402
X5.3937Y-8.7795
X5.3937Y-8.8189
X5.4331Y-5.3543
X5.4331Y-5.3937
X5.4331Y-5.4724
X5.4331Y-5.5118
X5.4331Y-5.5512
X5.4331Y-5.6299
X5.4331Y-5.6693
X5.4331Y-8.5039
X5.4331Y-8.5433
X5.4331Y-8.622
X5.4331Y-8.6614
X5.4331Y-8.7008
X5.4331Y-8.7795
X5.4331Y-8.8189
X5.4724Y-5.3543
X5.4724Y-5.4331
X5.4724Y-5.4724
X5.4724Y-5.5118
X5.4724Y-5.5512
X5.4724Y-5.5906
X5.4724Y-5.6693
X5.4724Y-8.5039
X5.4724Y-8.5827
X5.4724Y-8.622
X5.4724Y-8.6614
X5.4724Y-8.7008
X5.4724Y-8.7402
X5.4724Y-8.8189
X5.5118Y-5.3543
X5.5118Y-5.4331
X5.5118Y-5.4724
X5.5118Y-5.4724
X5.5118Y-5.5118
X5.5118Y-5.5512
X5.5118Y-5.5906
X5.5118Y-5.6693
X5.5118Y-8.5039
X5.5118Y-8.5827
X5.5118Y-8.622
X5.5118Y-8.6614
X5.5118Y-8.7008
X5.5118Y-8.7402
X5.5118Y-8.8189
X5.5512Y-5.3543
X5.5512Y-5.4331
X5.5512Y-5.4724
X5.5512Y-5.5118
X5.5512Y-5.5512
X5.5512Y-5.5906
X5.5512Y-5.6693
X5.5512Y-8.5039
X5.5512Y-8.5827
X5.5512Y-8.622
X5.5512Y-8.6614
X5.5512Y-8.7008
X5.5512Y-8.7402
X5.5512Y-8.8189
X5.5906Y-5.3543
X5.5906Y-5.3937
X5.5906Y-5.4724
X5.5906Y-5.5118
X5.5906Y-5.5512
X5.5906Y-5.6299
X5.5906Y-5.6693
X5.5906Y-8.5039
X5.5906Y-8.5433
X5.5906Y-8.622
X5.5906Y-8.6614
X5.5906Y-8.7008
X5.5906Y-8.7795
X5.5906Y-8.8189
X5.6299Y-5.3543
X5.6299Y-5.3937
X5.6299Y-5.4331
X5.6299Y-5.5906
X5.6299Y-5.6299
X5.6299Y-5.6693
X5.6299Y-8.5039
X5.6299Y-8.5433
X5.6299Y-8.5827
X5.6299Y-8.7402
X5.6299Y-8.7795
X5.6299Y-8.8189
X5.6693Y-5.3543
X5.6693Y-5.3937
X5.6693Y-5.4331
X5.6693Y-5.4724
X5.6693Y-5.5118
X5.6693Y-5.5512
X5.6693Y-5.5906
X5.6693Y-5.6299
X5.6693Y-5.6693
X5.6693Y-8.5039
X5.6693Y-8.5433
X5.6693Y-8.5827
X5.6693Y-8.622
X5.6693Y-8.6614
X5.6693Y-8.7008
X5.6693Y-8.7402
X5.6693Y-8.7795
X5.6693Y-8.8189
X6.998Y-6.7815
X7.0472Y-6.3681
X7.2343Y-6.3386
X7.2343Y-6.4567
X7.3425Y-6.4075
X7.3622Y-6.378
X7.9921Y-6.7766
X8.5039Y-5.3543
X8.5039Y-5.3937
X8.5039Y-5.4331
X8.5039Y-5.4724
X8.5039Y-5.5118
X8.5039Y-5.5512
X8.5039Y-5.5906
X8.5039Y-5.6299
X8.5039Y-5.6693
X8.5039Y-8.5039
X8.5039Y-8.5433
X8.5039Y-8.5827
X8.5039Y-8.622
X8.5039Y-8.6614
X8.5039Y-8.7008
X8.5039Y-8.7402
X8.5039Y-8.7795
X8.5039Y-8.8189
X8.5433Y-5.3543
X8.5433Y-5.3937
X8.5433Y-5.4331
X8.5433Y-5.5906
X8.5433Y-5.6299
X8.5433Y-5.6693
X8.5433Y-8.5039
X8.5433Y-8.5039
X8.5433Y-8.5433
X8.5433Y-8.5827
X8.5433Y-8.7402
X8.5433Y-8.7795
X8.5433Y-8.8189
X8.5827Y-5.3543
X8.5827Y-5.3937
X8.5827Y-5.4724
X8.5827Y-5.5118
X8.5827Y-5.5512
X8.5827Y-5.6299
X8.5827Y-5.6693
X8.5827Y-8.5039
X8.5827Y-8.5433
X8.5827Y-8.5433
X8.5827Y-8.622
X8.5827Y-8.6614
X8.5827Y-8.7008
X8.5827Y-8.7795
X8.5827Y-8.8189
X8.622Y-5.3543
X8.622Y-5.3543
X8.622Y-5.4331
X8.622Y-5.4724
X8.622Y-5.5118
X8.622Y-5.5512
X8.622Y-5.5906
X8.622Y-5.6693
X8.622Y-8.5039
X8.622Y-8.5827
X8.622Y-8.622
X8.622Y-8.6614
X8.622Y-8.7008
X8.622Y-8.7402
X8.622Y-8.8189
X8.6614Y-5.3543
X8.6614Y-5.4331
X8.6614Y-5.4724
X8.6614Y-5.5118
X8.6614Y-5.5512
X8.6614Y-5.5906
X8.6614Y-5.6693
X8.6614Y-8.5039
X8.6614Y-8.5827
X8.6614Y-8.622
X8.6614Y-8.6614
X8.6614Y-8.7008
X8.6614Y-8.7402
X8.6614Y-8.8189
X8.7008Y-5.3543
X8.7008Y-5.4331
X8.7008Y-5.4724
X8.7008Y-5.5118
X8.7008Y-5.5512
X8.7008Y-5.5906
X8.7008Y-5.6693
X8.7008Y-8.5039
X8.7008Y-8.5827
X8.7008Y-8.622
X8.7008Y-8.6614
X8.7008Y-8.7008
X8.7008Y-8.7402
X8.7008Y-8.8189
X8.7402Y-5.3543
X8.7402Y-5.3937
X8.7402Y-5.4724
X8.7402Y-5.5118
X8.7402Y-5.5512
X8.7402Y-5.6299
X8.7402Y-5.6693
X8.7402Y-8.5039
X8.7402Y-8.5433
X8.7402Y-8.622
X8.7402Y-8.6614
X8.7402Y-8.7008
X8.7402Y-8.7795
X8.7402Y-8.8189
X8.7795Y-5.3543
X8.7795Y-5.3937
X8.7795Y-5.4331
X8.7795Y-5.5906
X8.7795Y-5.6299
X8.7795Y-5.6693
X8.7795Y-8.5039
X8.7795Y-8.5433
X8.7795Y-8.5827
X8.7795Y-8.7402
X8.7795Y-8.7795
X8.7795Y-8.8189
X8.8189Y-5.3543
X8.8189Y-5.3937
X8.8189Y-5.4331
X8.8189Y-5.4724
X8.8189Y-5.5118
X8.8189Y-5.5512
X8.8189Y-5.5906
X8.8189Y-5.6299
X8.8189Y-5.6693
X8.8189Y-8.5039
X8.8189Y-8.5433
X8.8189Y-8.5827
X8.8189Y-8.622
X8.8189Y-8.6614
X8.8189Y-8.7008
X8.8189Y-8.7402
X8.8189Y-8.7795
X8.8189Y-8.8189
X9.6161Y-7.0866
T2
X6.0433Y-7.0669
X6.1024Y-7.0571
X6.1122Y-9.7638
X6.3386Y-7.0079
X6.3681Y-9.6358
X6.3864Y-9.8341
X6.3878Y-9.6752
X6.5157Y-9.6949
X6.5234Y-9.5996
X6.5256Y-7.8839
X6.5256Y-8.1594
X6.5256Y-9.7441
X6.5256Y-9.813
X6.5311Y-9.6419
X6.5348Y-7.03
X6.5453Y-5.8268
X6.5748Y-8.563
X6.5748Y-8.7106
X6.5846Y-9.5669
X6.6043Y-4.6063
X6.6043Y-4.7638
X6.6152Y-6.8559
X6.624Y-9.626
X6.6339Y-7.0079
X6.6437Y-9.5571
X6.6437Y-9.6949
X6.6535Y-4.8031
X6.6535Y-5.1772
X6.6732Y-7.8839
X6.6732Y-8.563
X6.6732Y-8.7106
X6.6831Y-8.1594
X6.6831Y-9.7343
X6.6929Y-5.2854
X6.6929Y-5.8268
X6.7028Y-9.6654
X6.7087Y-6.9134
X6.7126Y-4.7146
X6.7323Y-6.9606
X6.7421Y-9.4685
X6.7552Y-9.3767
X6.761Y-9.3211
X6.7677Y-6.9142
X6.7913Y-9.5866
X6.7913Y-9.7343
X6.8012Y-8.248
X6.8012Y-8.7008
X6.8012Y-8.8091
X6.8031Y-4.9606
X6.8031Y-6.0394
X6.811Y-5.502
X6.811Y-8.1594
X6.811Y-8.75
X6.82Y-8.2089
X6.8406Y-9.4685
X6.8425Y-4.7874
X6.8425Y-5.3307
X6.8425Y-5.8661
X6.8455Y-9.2805
X6.8602Y-6.8209
X6.8602Y-6.939
X6.8709Y-9.5468
X6.9094Y-9.3504
X6.9291Y-6.9882
X6.9685Y-5.502
X6.9685Y-6.0472
X6.9685Y-8.2677
X6.9685Y-8.8189
X6.9685Y-8.9764
X6.9764Y-4.9606
X6.9783Y-8.4252
X6.9882Y-9.2028
X6.9921Y-6.9764
X7.0079Y-9.685
X7.0276Y-9.5945
X7.0472Y-5.2657
X7.0472Y-5.8169
X7.0472Y-7.0669
X7.0472Y-7.9528
X7.0472Y-8.2087
X7.0472Y-8.4843
X7.0472Y-8.7402
X7.0472Y-8.9764
X7.0472Y-9.3504
X7.1142Y-9.3071
X7.1142Y-4.9646
X7.1142Y-5.5039
X7.1142Y-6.0512
X7.1161Y-8.8189
X7.1201Y-8.2815
X7.1732Y-7.0709
X7.1795Y-9.3311
X7.1811Y-6.9449
X7.185Y-5.2657
X7.185Y-5.8169
X7.185Y-6.3681
X7.185Y-7.9528
X7.185Y-8.4843
X7.185Y-8.7205
X7.185Y-8.937
X7.185Y-9.4882
X7.2096Y-9.0394
X7.2126Y-9.1732
X7.2205Y-6.8268
X7.2323Y-8.9022
X7.2441Y-8.7598
X7.2539Y-5.0591
X7.2539Y-5.6102
X7.2539Y-6.1614
X7.2598Y-7.0394
X7.2704Y-8.8923
X7.2717Y-9.1732
X7.2835Y-8.937
X7.2913Y-9.0354
X7.3124Y-6.2604
X7.313Y-5.1575
X7.3132Y-5.7184
X7.3228Y-5.2264
X7.3228Y-5.7776
X7.3307Y-9.1732
X7.3425Y-9.561
X7.3622Y-9.2126
X7.3701Y-9.0354
X7.378Y-6.9213
X7.3819Y-8.4646
X7.4016Y-5.2756
X7.4016Y-5.8268
X7.4213Y-8.5236
X7.4379Y-7.9891
X7.4409Y-7.9331
X7.4409Y-8.9961
X7.4606Y-8.0906
X7.4606Y-8.622
X7.4803Y-7.9528
X7.4803Y-9.5276
X7.4882Y-6.8425
X7.5Y-9.1732
X7.5098Y-6.2697
X7.5197Y-5.2657
X7.5197Y-6.3681
X7.5394Y-8.5236
X7.5591Y-6.2697
X7.5591Y-7.874
X7.5591Y-8.3661
X7.5591Y-9.0157
X7.5689Y-5.7776
X7.5787Y-6.437
X7.5909Y-6.959
X7.5984Y-6.8819
X7.6236Y-9.1284
X7.6299Y-6.8031
X7.6476Y-8.2972
X7.7165Y-8.4547
X7.7362Y-8.8189
X7.7362Y-8.8976
X7.8051Y-6.9882
X7.8543Y-8.8189
X7.8543Y-9.4193
X7.8642Y-9.5177
X7.8727Y-6.8297
X7.881Y-6.8858
X7.8819Y-6.9528
X7.9035Y-9.4193
X7.9134Y-9.5669
X7.9134Y-9.8425
X8.0413Y-7.0374
X8.0907Y-6.8385
X6.6634Y-7.2736
X6.7067Y-7.1693
X6.7067Y-7.378
X6.811Y-7.126
X6.811Y-7.4213
X6.9154Y-7.1693
X6.9154Y-7.378
X6.9587Y-7.2736
X4.0256Y-4.1732
X4.0689Y-4.0689
X4.0689Y-4.2776
X4.1732Y-4.0256
X4.1732Y-4.3209
X4.2776Y-4.0689
X4.2776Y-4.2776
X4.3209Y-4.1732
X9.8524Y-10.0
X9.8957Y-9.8957
X9.8957Y-10.1043
X10.0Y-9.8524
X10.0Y-10.1476
X10.1043Y-9.8957
X10.1043Y-10.1043
X10.1476Y-10.0
X4.0256Y-8.9173
X4.0689Y-8.813
X4.0689Y-9.0217
X4.1732Y-8.7697
X4.1732Y-9.065
X4.2776Y-8.813
X4.2776Y-9.0217
X4.3209Y-8.9173
X9.8524Y-4.1732
X9.8957Y-4.0689
X9.8957Y-4.2776
X10.0Y-4.0256
X10.0Y-4.3209
X10.1043Y-4.0689
X10.1043Y-4.2776
X10.1476Y-4.1732
T3
X9.9563Y-6.8366
X9.9563Y-6.9366
X9.9563Y-7.0366
X9.9563Y-7.1366
X9.9563Y-7.2366
X9.9563Y-7.3366
X4.0551Y-9.3094
X4.0551Y-9.4094
X7.5378Y-9.9606
X7.6378Y-9.9606
X6.8366Y-9.9606
X6.9366Y-9.9606
X7.0366Y-9.9606
X7.1366Y-9.9606
X7.2366Y-9.9606
X7.3366Y-9.9606
T4
X4.0811Y-9.5555
X4.0811Y-10.1374
T6
X10.0Y-4.1732
X6.811Y-7.2736
X4.1732Y-4.1732
X10.0Y-10.0
X4.1732Y-8.9173
T5
G00X4.7992Y-9.7689
M15
G01X4.7992Y-9.613
M16
G05
G00X4.7992Y-10.0799
M15
G01X4.7992Y-9.924
M16
G05
T0
M30
