M48
; DRILL file {KiCad 5.1.4-e60b266~84~ubuntu18.04.1} date Sat 26 Oct 2019 02:37:51 PM MDT
; FORMAT={-:-/ absolute / inch / decimal}
; #@! TF.CreationDate,2019-10-26T14:37:51-06:00
; #@! TF.GenerationSoftware,Kicad,Pcbnew,5.1.4-e60b266~84~ubuntu18.04.1
; #@! TF.FileFunction,Plated,1,2,PTH
FMAT,2
INCH
T1C0.0157
T2C0.0394
T3C0.1063
%
G90
G05
T1
X5.9301Y-4.4488
X5.9646Y-4.3898
X6.0236Y-4.3307
X6.063Y-4.252
X6.0827Y-4.311
X6.122Y-4.0551
X6.1417Y-3.937
X6.1486Y-4.3396
X6.1811Y-3.9567
X6.2008Y-4.3701
X6.2008Y-4.6457
X6.2223Y-3.7282
X6.2402Y-4.5079
X6.2707Y-3.3511
X6.2707Y-3.4843
X6.2707Y-3.9567
X6.2795Y-4.3504
X6.2992Y-3.4449
X6.3189Y-3.2677
X6.3189Y-3.9764
X6.3189Y-4.2717
X6.3278Y-3.7123
X6.3976Y-4.311
X6.437Y-3.2283
X6.437Y-4.1535
X6.4567Y-4.3898
X6.5748Y-4.5669
X6.5748Y-4.6457
X6.6142Y-3.8976
X6.6142Y-4.0157
X6.6142Y-4.6063
X6.6339Y-3.4252
X6.6449Y-3.5051
X6.6449Y-3.5717
X6.6535Y-3.9567
X6.6535Y-4.0748
X6.6732Y-3.3858
X6.6929Y-3.8976
X6.7126Y-4.0157
X6.7323Y-3.4252
X6.7323Y-3.4843
X6.7323Y-3.5827
X6.752Y-3.5236
X6.752Y-3.6417
X6.752Y-3.7205
X6.752Y-3.7992
X6.752Y-3.9567
X6.752Y-4.0748
X6.752Y-4.1732
X6.7913Y-3.3661
X6.7913Y-3.8583
X6.811Y-3.6024
X6.8307Y-3.4252
X6.8307Y-3.4843
X6.8307Y-4.0157
X6.8504Y-4.0748
X6.8701Y-3.3858
X6.8701Y-3.5236
X6.8701Y-3.9567
X6.8898Y-3.5827
X6.8898Y-3.8976
X6.9291Y-3.4252
X6.9291Y-4.0157
X6.9488Y-3.4843
X6.9488Y-4.0748
X6.9685Y-3.3858
X6.9685Y-3.6024
X6.9685Y-3.9567
X6.9882Y-3.5236
X6.9882Y-3.8583
X7.0276Y-3.4252
X7.0276Y-3.5827
X7.0276Y-3.6417
X7.0276Y-3.7205
X7.0276Y-3.7992
X7.0276Y-3.8976
X7.0276Y-4.0157
X7.0472Y-3.4843
X7.0472Y-3.9567
X7.0472Y-4.0748
X7.0669Y-3.3858
X7.0866Y-3.5236
X7.0866Y-3.8976
X7.2244Y-3.8976
T2
X6.7882Y-2.8346
X6.8882Y-2.8346
X6.9882Y-2.8346
X6.7913Y-4.6457
X6.8913Y-4.6457
X6.9913Y-4.6457
T3
X6.0433Y-4.5866
X7.7362Y-4.5866
X6.0433Y-2.8937
X7.7362Y-2.8937
T0
M30
