M48
; DRILL file {KiCad 5.1.4-e60b266~84~ubuntu18.04.1} date Fri 01 Nov 2019 10:23:47 PM MDT
; FORMAT={-:-/ absolute / inch / decimal}
; #@! TF.CreationDate,2019-11-01T22:23:47-06:00
; #@! TF.GenerationSoftware,Kicad,Pcbnew,5.1.4-e60b266~84~ubuntu18.04.1
; #@! TF.FileFunction,Plated,1,2,PTH
FMAT,2
INCH
T1C0.0157
T2C0.0394
T3C0.1063
%
G90
G05
T1
X5.9301Y-4.4488
X5.9547Y-3.4154
X5.9646Y-3.4646
X5.9646Y-4.3898
X5.9744Y-3.9075
X6.0236Y-4.3307
X6.0433Y-3.563
X6.0433Y-3.9567
X6.061Y-4.2535
X6.0827Y-4.311
X6.1024Y-4.0748
X6.1075Y-3.5292
X6.1122Y-4.2224
X6.122Y-3.8681
X6.1329Y-3.9377
X6.1486Y-4.3396
X6.1612Y-4.0708
X6.1614Y-4.1339
X6.1713Y-3.9567
X6.2008Y-4.3701
X6.2008Y-4.6457
X6.2205Y-3.8681
X6.2402Y-4.5079
X6.25Y-4.2421
X6.2598Y-3.2185
X6.2795Y-4.3504
X6.2894Y-3.5236
X6.3189Y-3.4646
X6.3189Y-4.2717
X6.3976Y-4.311
X6.437Y-4.1535
X6.4469Y-3.6024
X6.4567Y-3.1496
X6.4567Y-3.7992
X6.4567Y-4.3898
X6.4764Y-3.4055
X6.5059Y-3.563
X6.5059Y-3.7402
X6.55Y-4.0603
X6.5551Y-3.4469
X6.5551Y-3.4862
X6.5659Y-4.5316
X6.5741Y-4.6545
X6.6142Y-3.9567
X6.6535Y-3.878
X6.6624Y-4.5678
X6.6929Y-3.5236
X6.6929Y-3.9567
X6.7323Y-3.6024
X6.7323Y-3.6811
X6.7323Y-3.7402
X6.7323Y-3.7992
X6.7323Y-3.878
X6.7717Y-3.5236
X6.7717Y-3.6417
X6.7717Y-3.8386
X6.7717Y-3.9567
X6.811Y-3.6024
X6.811Y-3.878
X6.8504Y-3.2087
X6.8504Y-3.5236
X6.8504Y-3.9567
X6.8898Y-3.6024
X6.8898Y-3.878
X6.9291Y-3.5236
X6.9291Y-3.9567
X6.9685Y-3.6024
X6.9685Y-3.878
X7.0079Y-3.5236
X7.0079Y-3.6417
X7.0079Y-3.8386
X7.0079Y-3.9567
X7.0472Y-3.6024
X7.0472Y-3.6811
X7.0472Y-3.7402
X7.0472Y-3.7992
X7.0472Y-3.878
X7.0768Y-4.5571
X7.0866Y-3.5236
X7.0866Y-3.9567
X7.126Y-3.878
X7.1654Y-3.9567
X7.1654Y-4.5571
X7.2441Y-3.4646
X7.2835Y-3.4252
T2
X6.7913Y-4.6457
X6.8913Y-4.6457
X6.9913Y-4.6457
X6.7882Y-2.8346
X6.8882Y-2.8346
X6.9882Y-2.8346
T3
X6.0433Y-4.5866
X6.0433Y-2.8937
X7.7362Y-4.5866
X7.7362Y-2.8937
T0
M30
