G04 #@! TF.GenerationSoftware,KiCad,Pcbnew,5.1.4-e60b266~84~ubuntu18.04.1*
G04 #@! TF.CreationDate,2019-11-17T15:23:13-07:00*
G04 #@! TF.ProjectId,cob_single,636f625f-7369-46e6-976c-652e6b696361,rev?*
G04 #@! TF.SameCoordinates,Original*
G04 #@! TF.FileFunction,Copper,L1,Top*
G04 #@! TF.FilePolarity,Positive*
%FSLAX46Y46*%
G04 Gerber Fmt 4.6, Leading zero omitted, Abs format (unit mm)*
G04 Created by KiCad (PCBNEW 5.1.4-e60b266~84~ubuntu18.04.1) date 2019-11-17 15:23:13*
%MOMM*%
%LPD*%
G04 APERTURE LIST*
%ADD10R,1.100000X1.100000*%
%ADD11R,3.100000X1.200000*%
%ADD12C,5.700000*%
%ADD13C,0.100000*%
%ADD14C,0.975000*%
%ADD15R,0.550000X0.800000*%
%ADD16R,0.650000X1.220000*%
%ADD17R,1.600000X5.900000*%
%ADD18C,0.875000*%
%ADD19O,1.700000X1.700000*%
%ADD20R,1.700000X1.700000*%
%ADD21C,0.650000*%
%ADD22R,0.400000X1.100000*%
%ADD23C,2.700000*%
%ADD24C,0.800000*%
%ADD25C,0.250000*%
%ADD26C,0.500000*%
%ADD27C,1.000000*%
%ADD28C,0.750000*%
%ADD29C,0.254000*%
G04 APERTURE END LIST*
D10*
X186500000Y-81600000D03*
X186500000Y-84400000D03*
X166000000Y-83100000D03*
X166000000Y-85900000D03*
X157000000Y-93600000D03*
X157000000Y-96400000D03*
D11*
X168780000Y-96700000D03*
X168780000Y-95000000D03*
X168780000Y-93300000D03*
D12*
X175000000Y-95000000D03*
D11*
X181220000Y-93300000D03*
X181220000Y-95000000D03*
X181220000Y-96700000D03*
D13*
G36*
X152830142Y-92551174D02*
G01*
X152853803Y-92554684D01*
X152877007Y-92560496D01*
X152899529Y-92568554D01*
X152921153Y-92578782D01*
X152941670Y-92591079D01*
X152960883Y-92605329D01*
X152978607Y-92621393D01*
X152994671Y-92639117D01*
X153008921Y-92658330D01*
X153021218Y-92678847D01*
X153031446Y-92700471D01*
X153039504Y-92722993D01*
X153045316Y-92746197D01*
X153048826Y-92769858D01*
X153050000Y-92793750D01*
X153050000Y-93706250D01*
X153048826Y-93730142D01*
X153045316Y-93753803D01*
X153039504Y-93777007D01*
X153031446Y-93799529D01*
X153021218Y-93821153D01*
X153008921Y-93841670D01*
X152994671Y-93860883D01*
X152978607Y-93878607D01*
X152960883Y-93894671D01*
X152941670Y-93908921D01*
X152921153Y-93921218D01*
X152899529Y-93931446D01*
X152877007Y-93939504D01*
X152853803Y-93945316D01*
X152830142Y-93948826D01*
X152806250Y-93950000D01*
X152318750Y-93950000D01*
X152294858Y-93948826D01*
X152271197Y-93945316D01*
X152247993Y-93939504D01*
X152225471Y-93931446D01*
X152203847Y-93921218D01*
X152183330Y-93908921D01*
X152164117Y-93894671D01*
X152146393Y-93878607D01*
X152130329Y-93860883D01*
X152116079Y-93841670D01*
X152103782Y-93821153D01*
X152093554Y-93799529D01*
X152085496Y-93777007D01*
X152079684Y-93753803D01*
X152076174Y-93730142D01*
X152075000Y-93706250D01*
X152075000Y-92793750D01*
X152076174Y-92769858D01*
X152079684Y-92746197D01*
X152085496Y-92722993D01*
X152093554Y-92700471D01*
X152103782Y-92678847D01*
X152116079Y-92658330D01*
X152130329Y-92639117D01*
X152146393Y-92621393D01*
X152164117Y-92605329D01*
X152183330Y-92591079D01*
X152203847Y-92578782D01*
X152225471Y-92568554D01*
X152247993Y-92560496D01*
X152271197Y-92554684D01*
X152294858Y-92551174D01*
X152318750Y-92550000D01*
X152806250Y-92550000D01*
X152830142Y-92551174D01*
X152830142Y-92551174D01*
G37*
D14*
X152562500Y-93250000D03*
D13*
G36*
X154705142Y-92551174D02*
G01*
X154728803Y-92554684D01*
X154752007Y-92560496D01*
X154774529Y-92568554D01*
X154796153Y-92578782D01*
X154816670Y-92591079D01*
X154835883Y-92605329D01*
X154853607Y-92621393D01*
X154869671Y-92639117D01*
X154883921Y-92658330D01*
X154896218Y-92678847D01*
X154906446Y-92700471D01*
X154914504Y-92722993D01*
X154920316Y-92746197D01*
X154923826Y-92769858D01*
X154925000Y-92793750D01*
X154925000Y-93706250D01*
X154923826Y-93730142D01*
X154920316Y-93753803D01*
X154914504Y-93777007D01*
X154906446Y-93799529D01*
X154896218Y-93821153D01*
X154883921Y-93841670D01*
X154869671Y-93860883D01*
X154853607Y-93878607D01*
X154835883Y-93894671D01*
X154816670Y-93908921D01*
X154796153Y-93921218D01*
X154774529Y-93931446D01*
X154752007Y-93939504D01*
X154728803Y-93945316D01*
X154705142Y-93948826D01*
X154681250Y-93950000D01*
X154193750Y-93950000D01*
X154169858Y-93948826D01*
X154146197Y-93945316D01*
X154122993Y-93939504D01*
X154100471Y-93931446D01*
X154078847Y-93921218D01*
X154058330Y-93908921D01*
X154039117Y-93894671D01*
X154021393Y-93878607D01*
X154005329Y-93860883D01*
X153991079Y-93841670D01*
X153978782Y-93821153D01*
X153968554Y-93799529D01*
X153960496Y-93777007D01*
X153954684Y-93753803D01*
X153951174Y-93730142D01*
X153950000Y-93706250D01*
X153950000Y-92793750D01*
X153951174Y-92769858D01*
X153954684Y-92746197D01*
X153960496Y-92722993D01*
X153968554Y-92700471D01*
X153978782Y-92678847D01*
X153991079Y-92658330D01*
X154005329Y-92639117D01*
X154021393Y-92621393D01*
X154039117Y-92605329D01*
X154058330Y-92591079D01*
X154078847Y-92578782D01*
X154100471Y-92568554D01*
X154122993Y-92560496D01*
X154146197Y-92554684D01*
X154169858Y-92551174D01*
X154193750Y-92550000D01*
X154681250Y-92550000D01*
X154705142Y-92551174D01*
X154705142Y-92551174D01*
G37*
D14*
X154437500Y-93250000D03*
D13*
G36*
X156980142Y-89076174D02*
G01*
X157003803Y-89079684D01*
X157027007Y-89085496D01*
X157049529Y-89093554D01*
X157071153Y-89103782D01*
X157091670Y-89116079D01*
X157110883Y-89130329D01*
X157128607Y-89146393D01*
X157144671Y-89164117D01*
X157158921Y-89183330D01*
X157171218Y-89203847D01*
X157181446Y-89225471D01*
X157189504Y-89247993D01*
X157195316Y-89271197D01*
X157198826Y-89294858D01*
X157200000Y-89318750D01*
X157200000Y-89806250D01*
X157198826Y-89830142D01*
X157195316Y-89853803D01*
X157189504Y-89877007D01*
X157181446Y-89899529D01*
X157171218Y-89921153D01*
X157158921Y-89941670D01*
X157144671Y-89960883D01*
X157128607Y-89978607D01*
X157110883Y-89994671D01*
X157091670Y-90008921D01*
X157071153Y-90021218D01*
X157049529Y-90031446D01*
X157027007Y-90039504D01*
X157003803Y-90045316D01*
X156980142Y-90048826D01*
X156956250Y-90050000D01*
X156043750Y-90050000D01*
X156019858Y-90048826D01*
X155996197Y-90045316D01*
X155972993Y-90039504D01*
X155950471Y-90031446D01*
X155928847Y-90021218D01*
X155908330Y-90008921D01*
X155889117Y-89994671D01*
X155871393Y-89978607D01*
X155855329Y-89960883D01*
X155841079Y-89941670D01*
X155828782Y-89921153D01*
X155818554Y-89899529D01*
X155810496Y-89877007D01*
X155804684Y-89853803D01*
X155801174Y-89830142D01*
X155800000Y-89806250D01*
X155800000Y-89318750D01*
X155801174Y-89294858D01*
X155804684Y-89271197D01*
X155810496Y-89247993D01*
X155818554Y-89225471D01*
X155828782Y-89203847D01*
X155841079Y-89183330D01*
X155855329Y-89164117D01*
X155871393Y-89146393D01*
X155889117Y-89130329D01*
X155908330Y-89116079D01*
X155928847Y-89103782D01*
X155950471Y-89093554D01*
X155972993Y-89085496D01*
X155996197Y-89079684D01*
X156019858Y-89076174D01*
X156043750Y-89075000D01*
X156956250Y-89075000D01*
X156980142Y-89076174D01*
X156980142Y-89076174D01*
G37*
D14*
X156500000Y-89562500D03*
D13*
G36*
X156980142Y-90951174D02*
G01*
X157003803Y-90954684D01*
X157027007Y-90960496D01*
X157049529Y-90968554D01*
X157071153Y-90978782D01*
X157091670Y-90991079D01*
X157110883Y-91005329D01*
X157128607Y-91021393D01*
X157144671Y-91039117D01*
X157158921Y-91058330D01*
X157171218Y-91078847D01*
X157181446Y-91100471D01*
X157189504Y-91122993D01*
X157195316Y-91146197D01*
X157198826Y-91169858D01*
X157200000Y-91193750D01*
X157200000Y-91681250D01*
X157198826Y-91705142D01*
X157195316Y-91728803D01*
X157189504Y-91752007D01*
X157181446Y-91774529D01*
X157171218Y-91796153D01*
X157158921Y-91816670D01*
X157144671Y-91835883D01*
X157128607Y-91853607D01*
X157110883Y-91869671D01*
X157091670Y-91883921D01*
X157071153Y-91896218D01*
X157049529Y-91906446D01*
X157027007Y-91914504D01*
X157003803Y-91920316D01*
X156980142Y-91923826D01*
X156956250Y-91925000D01*
X156043750Y-91925000D01*
X156019858Y-91923826D01*
X155996197Y-91920316D01*
X155972993Y-91914504D01*
X155950471Y-91906446D01*
X155928847Y-91896218D01*
X155908330Y-91883921D01*
X155889117Y-91869671D01*
X155871393Y-91853607D01*
X155855329Y-91835883D01*
X155841079Y-91816670D01*
X155828782Y-91796153D01*
X155818554Y-91774529D01*
X155810496Y-91752007D01*
X155804684Y-91728803D01*
X155801174Y-91705142D01*
X155800000Y-91681250D01*
X155800000Y-91193750D01*
X155801174Y-91169858D01*
X155804684Y-91146197D01*
X155810496Y-91122993D01*
X155818554Y-91100471D01*
X155828782Y-91078847D01*
X155841079Y-91058330D01*
X155855329Y-91039117D01*
X155871393Y-91021393D01*
X155889117Y-91005329D01*
X155908330Y-90991079D01*
X155928847Y-90978782D01*
X155950471Y-90968554D01*
X155972993Y-90960496D01*
X155996197Y-90954684D01*
X156019858Y-90951174D01*
X156043750Y-90950000D01*
X156956250Y-90950000D01*
X156980142Y-90951174D01*
X156980142Y-90951174D01*
G37*
D14*
X156500000Y-91437500D03*
D15*
X181950000Y-83950000D03*
X180050000Y-83950000D03*
X181950000Y-81550000D03*
X180050000Y-81550000D03*
X181000000Y-81550000D03*
X163450000Y-81200000D03*
X161550000Y-81200000D03*
X163450000Y-78800000D03*
X161550000Y-78800000D03*
X162500000Y-78800000D03*
X154450000Y-91200000D03*
X152550000Y-91200000D03*
X154450000Y-88800000D03*
X152550000Y-88800000D03*
X153500000Y-88800000D03*
D16*
X169050000Y-112190000D03*
X170950000Y-112190000D03*
X170950000Y-114810000D03*
X170000000Y-114810000D03*
X169050000Y-114810000D03*
D13*
G36*
X187980142Y-87951174D02*
G01*
X188003803Y-87954684D01*
X188027007Y-87960496D01*
X188049529Y-87968554D01*
X188071153Y-87978782D01*
X188091670Y-87991079D01*
X188110883Y-88005329D01*
X188128607Y-88021393D01*
X188144671Y-88039117D01*
X188158921Y-88058330D01*
X188171218Y-88078847D01*
X188181446Y-88100471D01*
X188189504Y-88122993D01*
X188195316Y-88146197D01*
X188198826Y-88169858D01*
X188200000Y-88193750D01*
X188200000Y-88681250D01*
X188198826Y-88705142D01*
X188195316Y-88728803D01*
X188189504Y-88752007D01*
X188181446Y-88774529D01*
X188171218Y-88796153D01*
X188158921Y-88816670D01*
X188144671Y-88835883D01*
X188128607Y-88853607D01*
X188110883Y-88869671D01*
X188091670Y-88883921D01*
X188071153Y-88896218D01*
X188049529Y-88906446D01*
X188027007Y-88914504D01*
X188003803Y-88920316D01*
X187980142Y-88923826D01*
X187956250Y-88925000D01*
X187043750Y-88925000D01*
X187019858Y-88923826D01*
X186996197Y-88920316D01*
X186972993Y-88914504D01*
X186950471Y-88906446D01*
X186928847Y-88896218D01*
X186908330Y-88883921D01*
X186889117Y-88869671D01*
X186871393Y-88853607D01*
X186855329Y-88835883D01*
X186841079Y-88816670D01*
X186828782Y-88796153D01*
X186818554Y-88774529D01*
X186810496Y-88752007D01*
X186804684Y-88728803D01*
X186801174Y-88705142D01*
X186800000Y-88681250D01*
X186800000Y-88193750D01*
X186801174Y-88169858D01*
X186804684Y-88146197D01*
X186810496Y-88122993D01*
X186818554Y-88100471D01*
X186828782Y-88078847D01*
X186841079Y-88058330D01*
X186855329Y-88039117D01*
X186871393Y-88021393D01*
X186889117Y-88005329D01*
X186908330Y-87991079D01*
X186928847Y-87978782D01*
X186950471Y-87968554D01*
X186972993Y-87960496D01*
X186996197Y-87954684D01*
X187019858Y-87951174D01*
X187043750Y-87950000D01*
X187956250Y-87950000D01*
X187980142Y-87951174D01*
X187980142Y-87951174D01*
G37*
D14*
X187500000Y-88437500D03*
D13*
G36*
X187980142Y-86076174D02*
G01*
X188003803Y-86079684D01*
X188027007Y-86085496D01*
X188049529Y-86093554D01*
X188071153Y-86103782D01*
X188091670Y-86116079D01*
X188110883Y-86130329D01*
X188128607Y-86146393D01*
X188144671Y-86164117D01*
X188158921Y-86183330D01*
X188171218Y-86203847D01*
X188181446Y-86225471D01*
X188189504Y-86247993D01*
X188195316Y-86271197D01*
X188198826Y-86294858D01*
X188200000Y-86318750D01*
X188200000Y-86806250D01*
X188198826Y-86830142D01*
X188195316Y-86853803D01*
X188189504Y-86877007D01*
X188181446Y-86899529D01*
X188171218Y-86921153D01*
X188158921Y-86941670D01*
X188144671Y-86960883D01*
X188128607Y-86978607D01*
X188110883Y-86994671D01*
X188091670Y-87008921D01*
X188071153Y-87021218D01*
X188049529Y-87031446D01*
X188027007Y-87039504D01*
X188003803Y-87045316D01*
X187980142Y-87048826D01*
X187956250Y-87050000D01*
X187043750Y-87050000D01*
X187019858Y-87048826D01*
X186996197Y-87045316D01*
X186972993Y-87039504D01*
X186950471Y-87031446D01*
X186928847Y-87021218D01*
X186908330Y-87008921D01*
X186889117Y-86994671D01*
X186871393Y-86978607D01*
X186855329Y-86960883D01*
X186841079Y-86941670D01*
X186828782Y-86921153D01*
X186818554Y-86899529D01*
X186810496Y-86877007D01*
X186804684Y-86853803D01*
X186801174Y-86830142D01*
X186800000Y-86806250D01*
X186800000Y-86318750D01*
X186801174Y-86294858D01*
X186804684Y-86271197D01*
X186810496Y-86247993D01*
X186818554Y-86225471D01*
X186828782Y-86203847D01*
X186841079Y-86183330D01*
X186855329Y-86164117D01*
X186871393Y-86146393D01*
X186889117Y-86130329D01*
X186908330Y-86116079D01*
X186928847Y-86103782D01*
X186950471Y-86093554D01*
X186972993Y-86085496D01*
X186996197Y-86079684D01*
X187019858Y-86076174D01*
X187043750Y-86075000D01*
X187956250Y-86075000D01*
X187980142Y-86076174D01*
X187980142Y-86076174D01*
G37*
D14*
X187500000Y-86562500D03*
D13*
G36*
X161830142Y-82801174D02*
G01*
X161853803Y-82804684D01*
X161877007Y-82810496D01*
X161899529Y-82818554D01*
X161921153Y-82828782D01*
X161941670Y-82841079D01*
X161960883Y-82855329D01*
X161978607Y-82871393D01*
X161994671Y-82889117D01*
X162008921Y-82908330D01*
X162021218Y-82928847D01*
X162031446Y-82950471D01*
X162039504Y-82972993D01*
X162045316Y-82996197D01*
X162048826Y-83019858D01*
X162050000Y-83043750D01*
X162050000Y-83956250D01*
X162048826Y-83980142D01*
X162045316Y-84003803D01*
X162039504Y-84027007D01*
X162031446Y-84049529D01*
X162021218Y-84071153D01*
X162008921Y-84091670D01*
X161994671Y-84110883D01*
X161978607Y-84128607D01*
X161960883Y-84144671D01*
X161941670Y-84158921D01*
X161921153Y-84171218D01*
X161899529Y-84181446D01*
X161877007Y-84189504D01*
X161853803Y-84195316D01*
X161830142Y-84198826D01*
X161806250Y-84200000D01*
X161318750Y-84200000D01*
X161294858Y-84198826D01*
X161271197Y-84195316D01*
X161247993Y-84189504D01*
X161225471Y-84181446D01*
X161203847Y-84171218D01*
X161183330Y-84158921D01*
X161164117Y-84144671D01*
X161146393Y-84128607D01*
X161130329Y-84110883D01*
X161116079Y-84091670D01*
X161103782Y-84071153D01*
X161093554Y-84049529D01*
X161085496Y-84027007D01*
X161079684Y-84003803D01*
X161076174Y-83980142D01*
X161075000Y-83956250D01*
X161075000Y-83043750D01*
X161076174Y-83019858D01*
X161079684Y-82996197D01*
X161085496Y-82972993D01*
X161093554Y-82950471D01*
X161103782Y-82928847D01*
X161116079Y-82908330D01*
X161130329Y-82889117D01*
X161146393Y-82871393D01*
X161164117Y-82855329D01*
X161183330Y-82841079D01*
X161203847Y-82828782D01*
X161225471Y-82818554D01*
X161247993Y-82810496D01*
X161271197Y-82804684D01*
X161294858Y-82801174D01*
X161318750Y-82800000D01*
X161806250Y-82800000D01*
X161830142Y-82801174D01*
X161830142Y-82801174D01*
G37*
D14*
X161562500Y-83500000D03*
D13*
G36*
X163705142Y-82801174D02*
G01*
X163728803Y-82804684D01*
X163752007Y-82810496D01*
X163774529Y-82818554D01*
X163796153Y-82828782D01*
X163816670Y-82841079D01*
X163835883Y-82855329D01*
X163853607Y-82871393D01*
X163869671Y-82889117D01*
X163883921Y-82908330D01*
X163896218Y-82928847D01*
X163906446Y-82950471D01*
X163914504Y-82972993D01*
X163920316Y-82996197D01*
X163923826Y-83019858D01*
X163925000Y-83043750D01*
X163925000Y-83956250D01*
X163923826Y-83980142D01*
X163920316Y-84003803D01*
X163914504Y-84027007D01*
X163906446Y-84049529D01*
X163896218Y-84071153D01*
X163883921Y-84091670D01*
X163869671Y-84110883D01*
X163853607Y-84128607D01*
X163835883Y-84144671D01*
X163816670Y-84158921D01*
X163796153Y-84171218D01*
X163774529Y-84181446D01*
X163752007Y-84189504D01*
X163728803Y-84195316D01*
X163705142Y-84198826D01*
X163681250Y-84200000D01*
X163193750Y-84200000D01*
X163169858Y-84198826D01*
X163146197Y-84195316D01*
X163122993Y-84189504D01*
X163100471Y-84181446D01*
X163078847Y-84171218D01*
X163058330Y-84158921D01*
X163039117Y-84144671D01*
X163021393Y-84128607D01*
X163005329Y-84110883D01*
X162991079Y-84091670D01*
X162978782Y-84071153D01*
X162968554Y-84049529D01*
X162960496Y-84027007D01*
X162954684Y-84003803D01*
X162951174Y-83980142D01*
X162950000Y-83956250D01*
X162950000Y-83043750D01*
X162951174Y-83019858D01*
X162954684Y-82996197D01*
X162960496Y-82972993D01*
X162968554Y-82950471D01*
X162978782Y-82928847D01*
X162991079Y-82908330D01*
X163005329Y-82889117D01*
X163021393Y-82871393D01*
X163039117Y-82855329D01*
X163058330Y-82841079D01*
X163078847Y-82828782D01*
X163100471Y-82818554D01*
X163122993Y-82810496D01*
X163146197Y-82804684D01*
X163169858Y-82801174D01*
X163193750Y-82800000D01*
X163681250Y-82800000D01*
X163705142Y-82801174D01*
X163705142Y-82801174D01*
G37*
D14*
X163437500Y-83500000D03*
D17*
X184350000Y-77250000D03*
X179650000Y-77250000D03*
X161650000Y-74500000D03*
X166350000Y-74500000D03*
X152650000Y-84500000D03*
X157350000Y-84500000D03*
D13*
G36*
X184480142Y-81076174D02*
G01*
X184503803Y-81079684D01*
X184527007Y-81085496D01*
X184549529Y-81093554D01*
X184571153Y-81103782D01*
X184591670Y-81116079D01*
X184610883Y-81130329D01*
X184628607Y-81146393D01*
X184644671Y-81164117D01*
X184658921Y-81183330D01*
X184671218Y-81203847D01*
X184681446Y-81225471D01*
X184689504Y-81247993D01*
X184695316Y-81271197D01*
X184698826Y-81294858D01*
X184700000Y-81318750D01*
X184700000Y-81806250D01*
X184698826Y-81830142D01*
X184695316Y-81853803D01*
X184689504Y-81877007D01*
X184681446Y-81899529D01*
X184671218Y-81921153D01*
X184658921Y-81941670D01*
X184644671Y-81960883D01*
X184628607Y-81978607D01*
X184610883Y-81994671D01*
X184591670Y-82008921D01*
X184571153Y-82021218D01*
X184549529Y-82031446D01*
X184527007Y-82039504D01*
X184503803Y-82045316D01*
X184480142Y-82048826D01*
X184456250Y-82050000D01*
X183543750Y-82050000D01*
X183519858Y-82048826D01*
X183496197Y-82045316D01*
X183472993Y-82039504D01*
X183450471Y-82031446D01*
X183428847Y-82021218D01*
X183408330Y-82008921D01*
X183389117Y-81994671D01*
X183371393Y-81978607D01*
X183355329Y-81960883D01*
X183341079Y-81941670D01*
X183328782Y-81921153D01*
X183318554Y-81899529D01*
X183310496Y-81877007D01*
X183304684Y-81853803D01*
X183301174Y-81830142D01*
X183300000Y-81806250D01*
X183300000Y-81318750D01*
X183301174Y-81294858D01*
X183304684Y-81271197D01*
X183310496Y-81247993D01*
X183318554Y-81225471D01*
X183328782Y-81203847D01*
X183341079Y-81183330D01*
X183355329Y-81164117D01*
X183371393Y-81146393D01*
X183389117Y-81130329D01*
X183408330Y-81116079D01*
X183428847Y-81103782D01*
X183450471Y-81093554D01*
X183472993Y-81085496D01*
X183496197Y-81079684D01*
X183519858Y-81076174D01*
X183543750Y-81075000D01*
X184456250Y-81075000D01*
X184480142Y-81076174D01*
X184480142Y-81076174D01*
G37*
D14*
X184000000Y-81562500D03*
D13*
G36*
X184480142Y-82951174D02*
G01*
X184503803Y-82954684D01*
X184527007Y-82960496D01*
X184549529Y-82968554D01*
X184571153Y-82978782D01*
X184591670Y-82991079D01*
X184610883Y-83005329D01*
X184628607Y-83021393D01*
X184644671Y-83039117D01*
X184658921Y-83058330D01*
X184671218Y-83078847D01*
X184681446Y-83100471D01*
X184689504Y-83122993D01*
X184695316Y-83146197D01*
X184698826Y-83169858D01*
X184700000Y-83193750D01*
X184700000Y-83681250D01*
X184698826Y-83705142D01*
X184695316Y-83728803D01*
X184689504Y-83752007D01*
X184681446Y-83774529D01*
X184671218Y-83796153D01*
X184658921Y-83816670D01*
X184644671Y-83835883D01*
X184628607Y-83853607D01*
X184610883Y-83869671D01*
X184591670Y-83883921D01*
X184571153Y-83896218D01*
X184549529Y-83906446D01*
X184527007Y-83914504D01*
X184503803Y-83920316D01*
X184480142Y-83923826D01*
X184456250Y-83925000D01*
X183543750Y-83925000D01*
X183519858Y-83923826D01*
X183496197Y-83920316D01*
X183472993Y-83914504D01*
X183450471Y-83906446D01*
X183428847Y-83896218D01*
X183408330Y-83883921D01*
X183389117Y-83869671D01*
X183371393Y-83853607D01*
X183355329Y-83835883D01*
X183341079Y-83816670D01*
X183328782Y-83796153D01*
X183318554Y-83774529D01*
X183310496Y-83752007D01*
X183304684Y-83728803D01*
X183301174Y-83705142D01*
X183300000Y-83681250D01*
X183300000Y-83193750D01*
X183301174Y-83169858D01*
X183304684Y-83146197D01*
X183310496Y-83122993D01*
X183318554Y-83100471D01*
X183328782Y-83078847D01*
X183341079Y-83058330D01*
X183355329Y-83039117D01*
X183371393Y-83021393D01*
X183389117Y-83005329D01*
X183408330Y-82991079D01*
X183428847Y-82978782D01*
X183450471Y-82968554D01*
X183472993Y-82960496D01*
X183496197Y-82954684D01*
X183519858Y-82951174D01*
X183543750Y-82950000D01*
X184456250Y-82950000D01*
X184480142Y-82951174D01*
X184480142Y-82951174D01*
G37*
D14*
X184000000Y-83437500D03*
D13*
G36*
X171205142Y-109301174D02*
G01*
X171228803Y-109304684D01*
X171252007Y-109310496D01*
X171274529Y-109318554D01*
X171296153Y-109328782D01*
X171316670Y-109341079D01*
X171335883Y-109355329D01*
X171353607Y-109371393D01*
X171369671Y-109389117D01*
X171383921Y-109408330D01*
X171396218Y-109428847D01*
X171406446Y-109450471D01*
X171414504Y-109472993D01*
X171420316Y-109496197D01*
X171423826Y-109519858D01*
X171425000Y-109543750D01*
X171425000Y-110456250D01*
X171423826Y-110480142D01*
X171420316Y-110503803D01*
X171414504Y-110527007D01*
X171406446Y-110549529D01*
X171396218Y-110571153D01*
X171383921Y-110591670D01*
X171369671Y-110610883D01*
X171353607Y-110628607D01*
X171335883Y-110644671D01*
X171316670Y-110658921D01*
X171296153Y-110671218D01*
X171274529Y-110681446D01*
X171252007Y-110689504D01*
X171228803Y-110695316D01*
X171205142Y-110698826D01*
X171181250Y-110700000D01*
X170693750Y-110700000D01*
X170669858Y-110698826D01*
X170646197Y-110695316D01*
X170622993Y-110689504D01*
X170600471Y-110681446D01*
X170578847Y-110671218D01*
X170558330Y-110658921D01*
X170539117Y-110644671D01*
X170521393Y-110628607D01*
X170505329Y-110610883D01*
X170491079Y-110591670D01*
X170478782Y-110571153D01*
X170468554Y-110549529D01*
X170460496Y-110527007D01*
X170454684Y-110503803D01*
X170451174Y-110480142D01*
X170450000Y-110456250D01*
X170450000Y-109543750D01*
X170451174Y-109519858D01*
X170454684Y-109496197D01*
X170460496Y-109472993D01*
X170468554Y-109450471D01*
X170478782Y-109428847D01*
X170491079Y-109408330D01*
X170505329Y-109389117D01*
X170521393Y-109371393D01*
X170539117Y-109355329D01*
X170558330Y-109341079D01*
X170578847Y-109328782D01*
X170600471Y-109318554D01*
X170622993Y-109310496D01*
X170646197Y-109304684D01*
X170669858Y-109301174D01*
X170693750Y-109300000D01*
X171181250Y-109300000D01*
X171205142Y-109301174D01*
X171205142Y-109301174D01*
G37*
D14*
X170937500Y-110000000D03*
D13*
G36*
X169330142Y-109301174D02*
G01*
X169353803Y-109304684D01*
X169377007Y-109310496D01*
X169399529Y-109318554D01*
X169421153Y-109328782D01*
X169441670Y-109341079D01*
X169460883Y-109355329D01*
X169478607Y-109371393D01*
X169494671Y-109389117D01*
X169508921Y-109408330D01*
X169521218Y-109428847D01*
X169531446Y-109450471D01*
X169539504Y-109472993D01*
X169545316Y-109496197D01*
X169548826Y-109519858D01*
X169550000Y-109543750D01*
X169550000Y-110456250D01*
X169548826Y-110480142D01*
X169545316Y-110503803D01*
X169539504Y-110527007D01*
X169531446Y-110549529D01*
X169521218Y-110571153D01*
X169508921Y-110591670D01*
X169494671Y-110610883D01*
X169478607Y-110628607D01*
X169460883Y-110644671D01*
X169441670Y-110658921D01*
X169421153Y-110671218D01*
X169399529Y-110681446D01*
X169377007Y-110689504D01*
X169353803Y-110695316D01*
X169330142Y-110698826D01*
X169306250Y-110700000D01*
X168818750Y-110700000D01*
X168794858Y-110698826D01*
X168771197Y-110695316D01*
X168747993Y-110689504D01*
X168725471Y-110681446D01*
X168703847Y-110671218D01*
X168683330Y-110658921D01*
X168664117Y-110644671D01*
X168646393Y-110628607D01*
X168630329Y-110610883D01*
X168616079Y-110591670D01*
X168603782Y-110571153D01*
X168593554Y-110549529D01*
X168585496Y-110527007D01*
X168579684Y-110503803D01*
X168576174Y-110480142D01*
X168575000Y-110456250D01*
X168575000Y-109543750D01*
X168576174Y-109519858D01*
X168579684Y-109496197D01*
X168585496Y-109472993D01*
X168593554Y-109450471D01*
X168603782Y-109428847D01*
X168616079Y-109408330D01*
X168630329Y-109389117D01*
X168646393Y-109371393D01*
X168664117Y-109355329D01*
X168683330Y-109341079D01*
X168703847Y-109328782D01*
X168725471Y-109318554D01*
X168747993Y-109310496D01*
X168771197Y-109304684D01*
X168794858Y-109301174D01*
X168818750Y-109300000D01*
X169306250Y-109300000D01*
X169330142Y-109301174D01*
X169330142Y-109301174D01*
G37*
D14*
X169062500Y-110000000D03*
D13*
G36*
X165980142Y-79076174D02*
G01*
X166003803Y-79079684D01*
X166027007Y-79085496D01*
X166049529Y-79093554D01*
X166071153Y-79103782D01*
X166091670Y-79116079D01*
X166110883Y-79130329D01*
X166128607Y-79146393D01*
X166144671Y-79164117D01*
X166158921Y-79183330D01*
X166171218Y-79203847D01*
X166181446Y-79225471D01*
X166189504Y-79247993D01*
X166195316Y-79271197D01*
X166198826Y-79294858D01*
X166200000Y-79318750D01*
X166200000Y-79806250D01*
X166198826Y-79830142D01*
X166195316Y-79853803D01*
X166189504Y-79877007D01*
X166181446Y-79899529D01*
X166171218Y-79921153D01*
X166158921Y-79941670D01*
X166144671Y-79960883D01*
X166128607Y-79978607D01*
X166110883Y-79994671D01*
X166091670Y-80008921D01*
X166071153Y-80021218D01*
X166049529Y-80031446D01*
X166027007Y-80039504D01*
X166003803Y-80045316D01*
X165980142Y-80048826D01*
X165956250Y-80050000D01*
X165043750Y-80050000D01*
X165019858Y-80048826D01*
X164996197Y-80045316D01*
X164972993Y-80039504D01*
X164950471Y-80031446D01*
X164928847Y-80021218D01*
X164908330Y-80008921D01*
X164889117Y-79994671D01*
X164871393Y-79978607D01*
X164855329Y-79960883D01*
X164841079Y-79941670D01*
X164828782Y-79921153D01*
X164818554Y-79899529D01*
X164810496Y-79877007D01*
X164804684Y-79853803D01*
X164801174Y-79830142D01*
X164800000Y-79806250D01*
X164800000Y-79318750D01*
X164801174Y-79294858D01*
X164804684Y-79271197D01*
X164810496Y-79247993D01*
X164818554Y-79225471D01*
X164828782Y-79203847D01*
X164841079Y-79183330D01*
X164855329Y-79164117D01*
X164871393Y-79146393D01*
X164889117Y-79130329D01*
X164908330Y-79116079D01*
X164928847Y-79103782D01*
X164950471Y-79093554D01*
X164972993Y-79085496D01*
X164996197Y-79079684D01*
X165019858Y-79076174D01*
X165043750Y-79075000D01*
X165956250Y-79075000D01*
X165980142Y-79076174D01*
X165980142Y-79076174D01*
G37*
D14*
X165500000Y-79562500D03*
D13*
G36*
X165980142Y-80951174D02*
G01*
X166003803Y-80954684D01*
X166027007Y-80960496D01*
X166049529Y-80968554D01*
X166071153Y-80978782D01*
X166091670Y-80991079D01*
X166110883Y-81005329D01*
X166128607Y-81021393D01*
X166144671Y-81039117D01*
X166158921Y-81058330D01*
X166171218Y-81078847D01*
X166181446Y-81100471D01*
X166189504Y-81122993D01*
X166195316Y-81146197D01*
X166198826Y-81169858D01*
X166200000Y-81193750D01*
X166200000Y-81681250D01*
X166198826Y-81705142D01*
X166195316Y-81728803D01*
X166189504Y-81752007D01*
X166181446Y-81774529D01*
X166171218Y-81796153D01*
X166158921Y-81816670D01*
X166144671Y-81835883D01*
X166128607Y-81853607D01*
X166110883Y-81869671D01*
X166091670Y-81883921D01*
X166071153Y-81896218D01*
X166049529Y-81906446D01*
X166027007Y-81914504D01*
X166003803Y-81920316D01*
X165980142Y-81923826D01*
X165956250Y-81925000D01*
X165043750Y-81925000D01*
X165019858Y-81923826D01*
X164996197Y-81920316D01*
X164972993Y-81914504D01*
X164950471Y-81906446D01*
X164928847Y-81896218D01*
X164908330Y-81883921D01*
X164889117Y-81869671D01*
X164871393Y-81853607D01*
X164855329Y-81835883D01*
X164841079Y-81816670D01*
X164828782Y-81796153D01*
X164818554Y-81774529D01*
X164810496Y-81752007D01*
X164804684Y-81728803D01*
X164801174Y-81705142D01*
X164800000Y-81681250D01*
X164800000Y-81193750D01*
X164801174Y-81169858D01*
X164804684Y-81146197D01*
X164810496Y-81122993D01*
X164818554Y-81100471D01*
X164828782Y-81078847D01*
X164841079Y-81058330D01*
X164855329Y-81039117D01*
X164871393Y-81021393D01*
X164889117Y-81005329D01*
X164908330Y-80991079D01*
X164928847Y-80978782D01*
X164950471Y-80968554D01*
X164972993Y-80960496D01*
X164996197Y-80954684D01*
X165019858Y-80951174D01*
X165043750Y-80950000D01*
X165956250Y-80950000D01*
X165980142Y-80951174D01*
X165980142Y-80951174D01*
G37*
D14*
X165500000Y-81437500D03*
D13*
G36*
X166027691Y-117526053D02*
G01*
X166048926Y-117529203D01*
X166069750Y-117534419D01*
X166089962Y-117541651D01*
X166109368Y-117550830D01*
X166127781Y-117561866D01*
X166145024Y-117574654D01*
X166160930Y-117589070D01*
X166175346Y-117604976D01*
X166188134Y-117622219D01*
X166199170Y-117640632D01*
X166208349Y-117660038D01*
X166215581Y-117680250D01*
X166220797Y-117701074D01*
X166223947Y-117722309D01*
X166225000Y-117743750D01*
X166225000Y-118256250D01*
X166223947Y-118277691D01*
X166220797Y-118298926D01*
X166215581Y-118319750D01*
X166208349Y-118339962D01*
X166199170Y-118359368D01*
X166188134Y-118377781D01*
X166175346Y-118395024D01*
X166160930Y-118410930D01*
X166145024Y-118425346D01*
X166127781Y-118438134D01*
X166109368Y-118449170D01*
X166089962Y-118458349D01*
X166069750Y-118465581D01*
X166048926Y-118470797D01*
X166027691Y-118473947D01*
X166006250Y-118475000D01*
X165568750Y-118475000D01*
X165547309Y-118473947D01*
X165526074Y-118470797D01*
X165505250Y-118465581D01*
X165485038Y-118458349D01*
X165465632Y-118449170D01*
X165447219Y-118438134D01*
X165429976Y-118425346D01*
X165414070Y-118410930D01*
X165399654Y-118395024D01*
X165386866Y-118377781D01*
X165375830Y-118359368D01*
X165366651Y-118339962D01*
X165359419Y-118319750D01*
X165354203Y-118298926D01*
X165351053Y-118277691D01*
X165350000Y-118256250D01*
X165350000Y-117743750D01*
X165351053Y-117722309D01*
X165354203Y-117701074D01*
X165359419Y-117680250D01*
X165366651Y-117660038D01*
X165375830Y-117640632D01*
X165386866Y-117622219D01*
X165399654Y-117604976D01*
X165414070Y-117589070D01*
X165429976Y-117574654D01*
X165447219Y-117561866D01*
X165465632Y-117550830D01*
X165485038Y-117541651D01*
X165505250Y-117534419D01*
X165526074Y-117529203D01*
X165547309Y-117526053D01*
X165568750Y-117525000D01*
X166006250Y-117525000D01*
X166027691Y-117526053D01*
X166027691Y-117526053D01*
G37*
D18*
X165787500Y-118000000D03*
D13*
G36*
X164452691Y-117526053D02*
G01*
X164473926Y-117529203D01*
X164494750Y-117534419D01*
X164514962Y-117541651D01*
X164534368Y-117550830D01*
X164552781Y-117561866D01*
X164570024Y-117574654D01*
X164585930Y-117589070D01*
X164600346Y-117604976D01*
X164613134Y-117622219D01*
X164624170Y-117640632D01*
X164633349Y-117660038D01*
X164640581Y-117680250D01*
X164645797Y-117701074D01*
X164648947Y-117722309D01*
X164650000Y-117743750D01*
X164650000Y-118256250D01*
X164648947Y-118277691D01*
X164645797Y-118298926D01*
X164640581Y-118319750D01*
X164633349Y-118339962D01*
X164624170Y-118359368D01*
X164613134Y-118377781D01*
X164600346Y-118395024D01*
X164585930Y-118410930D01*
X164570024Y-118425346D01*
X164552781Y-118438134D01*
X164534368Y-118449170D01*
X164514962Y-118458349D01*
X164494750Y-118465581D01*
X164473926Y-118470797D01*
X164452691Y-118473947D01*
X164431250Y-118475000D01*
X163993750Y-118475000D01*
X163972309Y-118473947D01*
X163951074Y-118470797D01*
X163930250Y-118465581D01*
X163910038Y-118458349D01*
X163890632Y-118449170D01*
X163872219Y-118438134D01*
X163854976Y-118425346D01*
X163839070Y-118410930D01*
X163824654Y-118395024D01*
X163811866Y-118377781D01*
X163800830Y-118359368D01*
X163791651Y-118339962D01*
X163784419Y-118319750D01*
X163779203Y-118298926D01*
X163776053Y-118277691D01*
X163775000Y-118256250D01*
X163775000Y-117743750D01*
X163776053Y-117722309D01*
X163779203Y-117701074D01*
X163784419Y-117680250D01*
X163791651Y-117660038D01*
X163800830Y-117640632D01*
X163811866Y-117622219D01*
X163824654Y-117604976D01*
X163839070Y-117589070D01*
X163854976Y-117574654D01*
X163872219Y-117561866D01*
X163890632Y-117550830D01*
X163910038Y-117541651D01*
X163930250Y-117534419D01*
X163951074Y-117529203D01*
X163972309Y-117526053D01*
X163993750Y-117525000D01*
X164431250Y-117525000D01*
X164452691Y-117526053D01*
X164452691Y-117526053D01*
G37*
D18*
X164212500Y-118000000D03*
D13*
G36*
X162277691Y-106351053D02*
G01*
X162298926Y-106354203D01*
X162319750Y-106359419D01*
X162339962Y-106366651D01*
X162359368Y-106375830D01*
X162377781Y-106386866D01*
X162395024Y-106399654D01*
X162410930Y-106414070D01*
X162425346Y-106429976D01*
X162438134Y-106447219D01*
X162449170Y-106465632D01*
X162458349Y-106485038D01*
X162465581Y-106505250D01*
X162470797Y-106526074D01*
X162473947Y-106547309D01*
X162475000Y-106568750D01*
X162475000Y-107006250D01*
X162473947Y-107027691D01*
X162470797Y-107048926D01*
X162465581Y-107069750D01*
X162458349Y-107089962D01*
X162449170Y-107109368D01*
X162438134Y-107127781D01*
X162425346Y-107145024D01*
X162410930Y-107160930D01*
X162395024Y-107175346D01*
X162377781Y-107188134D01*
X162359368Y-107199170D01*
X162339962Y-107208349D01*
X162319750Y-107215581D01*
X162298926Y-107220797D01*
X162277691Y-107223947D01*
X162256250Y-107225000D01*
X161743750Y-107225000D01*
X161722309Y-107223947D01*
X161701074Y-107220797D01*
X161680250Y-107215581D01*
X161660038Y-107208349D01*
X161640632Y-107199170D01*
X161622219Y-107188134D01*
X161604976Y-107175346D01*
X161589070Y-107160930D01*
X161574654Y-107145024D01*
X161561866Y-107127781D01*
X161550830Y-107109368D01*
X161541651Y-107089962D01*
X161534419Y-107069750D01*
X161529203Y-107048926D01*
X161526053Y-107027691D01*
X161525000Y-107006250D01*
X161525000Y-106568750D01*
X161526053Y-106547309D01*
X161529203Y-106526074D01*
X161534419Y-106505250D01*
X161541651Y-106485038D01*
X161550830Y-106465632D01*
X161561866Y-106447219D01*
X161574654Y-106429976D01*
X161589070Y-106414070D01*
X161604976Y-106399654D01*
X161622219Y-106386866D01*
X161640632Y-106375830D01*
X161660038Y-106366651D01*
X161680250Y-106359419D01*
X161701074Y-106354203D01*
X161722309Y-106351053D01*
X161743750Y-106350000D01*
X162256250Y-106350000D01*
X162277691Y-106351053D01*
X162277691Y-106351053D01*
G37*
D18*
X162000000Y-106787500D03*
D13*
G36*
X162277691Y-104776053D02*
G01*
X162298926Y-104779203D01*
X162319750Y-104784419D01*
X162339962Y-104791651D01*
X162359368Y-104800830D01*
X162377781Y-104811866D01*
X162395024Y-104824654D01*
X162410930Y-104839070D01*
X162425346Y-104854976D01*
X162438134Y-104872219D01*
X162449170Y-104890632D01*
X162458349Y-104910038D01*
X162465581Y-104930250D01*
X162470797Y-104951074D01*
X162473947Y-104972309D01*
X162475000Y-104993750D01*
X162475000Y-105431250D01*
X162473947Y-105452691D01*
X162470797Y-105473926D01*
X162465581Y-105494750D01*
X162458349Y-105514962D01*
X162449170Y-105534368D01*
X162438134Y-105552781D01*
X162425346Y-105570024D01*
X162410930Y-105585930D01*
X162395024Y-105600346D01*
X162377781Y-105613134D01*
X162359368Y-105624170D01*
X162339962Y-105633349D01*
X162319750Y-105640581D01*
X162298926Y-105645797D01*
X162277691Y-105648947D01*
X162256250Y-105650000D01*
X161743750Y-105650000D01*
X161722309Y-105648947D01*
X161701074Y-105645797D01*
X161680250Y-105640581D01*
X161660038Y-105633349D01*
X161640632Y-105624170D01*
X161622219Y-105613134D01*
X161604976Y-105600346D01*
X161589070Y-105585930D01*
X161574654Y-105570024D01*
X161561866Y-105552781D01*
X161550830Y-105534368D01*
X161541651Y-105514962D01*
X161534419Y-105494750D01*
X161529203Y-105473926D01*
X161526053Y-105452691D01*
X161525000Y-105431250D01*
X161525000Y-104993750D01*
X161526053Y-104972309D01*
X161529203Y-104951074D01*
X161534419Y-104930250D01*
X161541651Y-104910038D01*
X161550830Y-104890632D01*
X161561866Y-104872219D01*
X161574654Y-104854976D01*
X161589070Y-104839070D01*
X161604976Y-104824654D01*
X161622219Y-104811866D01*
X161640632Y-104800830D01*
X161660038Y-104791651D01*
X161680250Y-104784419D01*
X161701074Y-104779203D01*
X161722309Y-104776053D01*
X161743750Y-104775000D01*
X162256250Y-104775000D01*
X162277691Y-104776053D01*
X162277691Y-104776053D01*
G37*
D18*
X162000000Y-105212500D03*
D13*
G36*
X177705142Y-114301174D02*
G01*
X177728803Y-114304684D01*
X177752007Y-114310496D01*
X177774529Y-114318554D01*
X177796153Y-114328782D01*
X177816670Y-114341079D01*
X177835883Y-114355329D01*
X177853607Y-114371393D01*
X177869671Y-114389117D01*
X177883921Y-114408330D01*
X177896218Y-114428847D01*
X177906446Y-114450471D01*
X177914504Y-114472993D01*
X177920316Y-114496197D01*
X177923826Y-114519858D01*
X177925000Y-114543750D01*
X177925000Y-115456250D01*
X177923826Y-115480142D01*
X177920316Y-115503803D01*
X177914504Y-115527007D01*
X177906446Y-115549529D01*
X177896218Y-115571153D01*
X177883921Y-115591670D01*
X177869671Y-115610883D01*
X177853607Y-115628607D01*
X177835883Y-115644671D01*
X177816670Y-115658921D01*
X177796153Y-115671218D01*
X177774529Y-115681446D01*
X177752007Y-115689504D01*
X177728803Y-115695316D01*
X177705142Y-115698826D01*
X177681250Y-115700000D01*
X177193750Y-115700000D01*
X177169858Y-115698826D01*
X177146197Y-115695316D01*
X177122993Y-115689504D01*
X177100471Y-115681446D01*
X177078847Y-115671218D01*
X177058330Y-115658921D01*
X177039117Y-115644671D01*
X177021393Y-115628607D01*
X177005329Y-115610883D01*
X176991079Y-115591670D01*
X176978782Y-115571153D01*
X176968554Y-115549529D01*
X176960496Y-115527007D01*
X176954684Y-115503803D01*
X176951174Y-115480142D01*
X176950000Y-115456250D01*
X176950000Y-114543750D01*
X176951174Y-114519858D01*
X176954684Y-114496197D01*
X176960496Y-114472993D01*
X176968554Y-114450471D01*
X176978782Y-114428847D01*
X176991079Y-114408330D01*
X177005329Y-114389117D01*
X177021393Y-114371393D01*
X177039117Y-114355329D01*
X177058330Y-114341079D01*
X177078847Y-114328782D01*
X177100471Y-114318554D01*
X177122993Y-114310496D01*
X177146197Y-114304684D01*
X177169858Y-114301174D01*
X177193750Y-114300000D01*
X177681250Y-114300000D01*
X177705142Y-114301174D01*
X177705142Y-114301174D01*
G37*
D14*
X177437500Y-115000000D03*
D13*
G36*
X175830142Y-114301174D02*
G01*
X175853803Y-114304684D01*
X175877007Y-114310496D01*
X175899529Y-114318554D01*
X175921153Y-114328782D01*
X175941670Y-114341079D01*
X175960883Y-114355329D01*
X175978607Y-114371393D01*
X175994671Y-114389117D01*
X176008921Y-114408330D01*
X176021218Y-114428847D01*
X176031446Y-114450471D01*
X176039504Y-114472993D01*
X176045316Y-114496197D01*
X176048826Y-114519858D01*
X176050000Y-114543750D01*
X176050000Y-115456250D01*
X176048826Y-115480142D01*
X176045316Y-115503803D01*
X176039504Y-115527007D01*
X176031446Y-115549529D01*
X176021218Y-115571153D01*
X176008921Y-115591670D01*
X175994671Y-115610883D01*
X175978607Y-115628607D01*
X175960883Y-115644671D01*
X175941670Y-115658921D01*
X175921153Y-115671218D01*
X175899529Y-115681446D01*
X175877007Y-115689504D01*
X175853803Y-115695316D01*
X175830142Y-115698826D01*
X175806250Y-115700000D01*
X175318750Y-115700000D01*
X175294858Y-115698826D01*
X175271197Y-115695316D01*
X175247993Y-115689504D01*
X175225471Y-115681446D01*
X175203847Y-115671218D01*
X175183330Y-115658921D01*
X175164117Y-115644671D01*
X175146393Y-115628607D01*
X175130329Y-115610883D01*
X175116079Y-115591670D01*
X175103782Y-115571153D01*
X175093554Y-115549529D01*
X175085496Y-115527007D01*
X175079684Y-115503803D01*
X175076174Y-115480142D01*
X175075000Y-115456250D01*
X175075000Y-114543750D01*
X175076174Y-114519858D01*
X175079684Y-114496197D01*
X175085496Y-114472993D01*
X175093554Y-114450471D01*
X175103782Y-114428847D01*
X175116079Y-114408330D01*
X175130329Y-114389117D01*
X175146393Y-114371393D01*
X175164117Y-114355329D01*
X175183330Y-114341079D01*
X175203847Y-114328782D01*
X175225471Y-114318554D01*
X175247993Y-114310496D01*
X175271197Y-114304684D01*
X175294858Y-114301174D01*
X175318750Y-114300000D01*
X175806250Y-114300000D01*
X175830142Y-114301174D01*
X175830142Y-114301174D01*
G37*
D14*
X175562500Y-115000000D03*
D19*
X177580000Y-118000000D03*
X175040000Y-118000000D03*
D20*
X172500000Y-118000000D03*
X177500000Y-72000000D03*
D19*
X174960000Y-72000000D03*
X172420000Y-72000000D03*
D13*
G36*
X164452691Y-113526053D02*
G01*
X164473926Y-113529203D01*
X164494750Y-113534419D01*
X164514962Y-113541651D01*
X164534368Y-113550830D01*
X164552781Y-113561866D01*
X164570024Y-113574654D01*
X164585930Y-113589070D01*
X164600346Y-113604976D01*
X164613134Y-113622219D01*
X164624170Y-113640632D01*
X164633349Y-113660038D01*
X164640581Y-113680250D01*
X164645797Y-113701074D01*
X164648947Y-113722309D01*
X164650000Y-113743750D01*
X164650000Y-114256250D01*
X164648947Y-114277691D01*
X164645797Y-114298926D01*
X164640581Y-114319750D01*
X164633349Y-114339962D01*
X164624170Y-114359368D01*
X164613134Y-114377781D01*
X164600346Y-114395024D01*
X164585930Y-114410930D01*
X164570024Y-114425346D01*
X164552781Y-114438134D01*
X164534368Y-114449170D01*
X164514962Y-114458349D01*
X164494750Y-114465581D01*
X164473926Y-114470797D01*
X164452691Y-114473947D01*
X164431250Y-114475000D01*
X163993750Y-114475000D01*
X163972309Y-114473947D01*
X163951074Y-114470797D01*
X163930250Y-114465581D01*
X163910038Y-114458349D01*
X163890632Y-114449170D01*
X163872219Y-114438134D01*
X163854976Y-114425346D01*
X163839070Y-114410930D01*
X163824654Y-114395024D01*
X163811866Y-114377781D01*
X163800830Y-114359368D01*
X163791651Y-114339962D01*
X163784419Y-114319750D01*
X163779203Y-114298926D01*
X163776053Y-114277691D01*
X163775000Y-114256250D01*
X163775000Y-113743750D01*
X163776053Y-113722309D01*
X163779203Y-113701074D01*
X163784419Y-113680250D01*
X163791651Y-113660038D01*
X163800830Y-113640632D01*
X163811866Y-113622219D01*
X163824654Y-113604976D01*
X163839070Y-113589070D01*
X163854976Y-113574654D01*
X163872219Y-113561866D01*
X163890632Y-113550830D01*
X163910038Y-113541651D01*
X163930250Y-113534419D01*
X163951074Y-113529203D01*
X163972309Y-113526053D01*
X163993750Y-113525000D01*
X164431250Y-113525000D01*
X164452691Y-113526053D01*
X164452691Y-113526053D01*
G37*
D18*
X164212500Y-114000000D03*
D13*
G36*
X166027691Y-113526053D02*
G01*
X166048926Y-113529203D01*
X166069750Y-113534419D01*
X166089962Y-113541651D01*
X166109368Y-113550830D01*
X166127781Y-113561866D01*
X166145024Y-113574654D01*
X166160930Y-113589070D01*
X166175346Y-113604976D01*
X166188134Y-113622219D01*
X166199170Y-113640632D01*
X166208349Y-113660038D01*
X166215581Y-113680250D01*
X166220797Y-113701074D01*
X166223947Y-113722309D01*
X166225000Y-113743750D01*
X166225000Y-114256250D01*
X166223947Y-114277691D01*
X166220797Y-114298926D01*
X166215581Y-114319750D01*
X166208349Y-114339962D01*
X166199170Y-114359368D01*
X166188134Y-114377781D01*
X166175346Y-114395024D01*
X166160930Y-114410930D01*
X166145024Y-114425346D01*
X166127781Y-114438134D01*
X166109368Y-114449170D01*
X166089962Y-114458349D01*
X166069750Y-114465581D01*
X166048926Y-114470797D01*
X166027691Y-114473947D01*
X166006250Y-114475000D01*
X165568750Y-114475000D01*
X165547309Y-114473947D01*
X165526074Y-114470797D01*
X165505250Y-114465581D01*
X165485038Y-114458349D01*
X165465632Y-114449170D01*
X165447219Y-114438134D01*
X165429976Y-114425346D01*
X165414070Y-114410930D01*
X165399654Y-114395024D01*
X165386866Y-114377781D01*
X165375830Y-114359368D01*
X165366651Y-114339962D01*
X165359419Y-114319750D01*
X165354203Y-114298926D01*
X165351053Y-114277691D01*
X165350000Y-114256250D01*
X165350000Y-113743750D01*
X165351053Y-113722309D01*
X165354203Y-113701074D01*
X165359419Y-113680250D01*
X165366651Y-113660038D01*
X165375830Y-113640632D01*
X165386866Y-113622219D01*
X165399654Y-113604976D01*
X165414070Y-113589070D01*
X165429976Y-113574654D01*
X165447219Y-113561866D01*
X165465632Y-113550830D01*
X165485038Y-113541651D01*
X165505250Y-113534419D01*
X165526074Y-113529203D01*
X165547309Y-113526053D01*
X165568750Y-113525000D01*
X166006250Y-113525000D01*
X166027691Y-113526053D01*
X166027691Y-113526053D01*
G37*
D18*
X165787500Y-114000000D03*
D13*
G36*
X166027691Y-115526053D02*
G01*
X166048926Y-115529203D01*
X166069750Y-115534419D01*
X166089962Y-115541651D01*
X166109368Y-115550830D01*
X166127781Y-115561866D01*
X166145024Y-115574654D01*
X166160930Y-115589070D01*
X166175346Y-115604976D01*
X166188134Y-115622219D01*
X166199170Y-115640632D01*
X166208349Y-115660038D01*
X166215581Y-115680250D01*
X166220797Y-115701074D01*
X166223947Y-115722309D01*
X166225000Y-115743750D01*
X166225000Y-116256250D01*
X166223947Y-116277691D01*
X166220797Y-116298926D01*
X166215581Y-116319750D01*
X166208349Y-116339962D01*
X166199170Y-116359368D01*
X166188134Y-116377781D01*
X166175346Y-116395024D01*
X166160930Y-116410930D01*
X166145024Y-116425346D01*
X166127781Y-116438134D01*
X166109368Y-116449170D01*
X166089962Y-116458349D01*
X166069750Y-116465581D01*
X166048926Y-116470797D01*
X166027691Y-116473947D01*
X166006250Y-116475000D01*
X165568750Y-116475000D01*
X165547309Y-116473947D01*
X165526074Y-116470797D01*
X165505250Y-116465581D01*
X165485038Y-116458349D01*
X165465632Y-116449170D01*
X165447219Y-116438134D01*
X165429976Y-116425346D01*
X165414070Y-116410930D01*
X165399654Y-116395024D01*
X165386866Y-116377781D01*
X165375830Y-116359368D01*
X165366651Y-116339962D01*
X165359419Y-116319750D01*
X165354203Y-116298926D01*
X165351053Y-116277691D01*
X165350000Y-116256250D01*
X165350000Y-115743750D01*
X165351053Y-115722309D01*
X165354203Y-115701074D01*
X165359419Y-115680250D01*
X165366651Y-115660038D01*
X165375830Y-115640632D01*
X165386866Y-115622219D01*
X165399654Y-115604976D01*
X165414070Y-115589070D01*
X165429976Y-115574654D01*
X165447219Y-115561866D01*
X165465632Y-115550830D01*
X165485038Y-115541651D01*
X165505250Y-115534419D01*
X165526074Y-115529203D01*
X165547309Y-115526053D01*
X165568750Y-115525000D01*
X166006250Y-115525000D01*
X166027691Y-115526053D01*
X166027691Y-115526053D01*
G37*
D18*
X165787500Y-116000000D03*
D13*
G36*
X164452691Y-115526053D02*
G01*
X164473926Y-115529203D01*
X164494750Y-115534419D01*
X164514962Y-115541651D01*
X164534368Y-115550830D01*
X164552781Y-115561866D01*
X164570024Y-115574654D01*
X164585930Y-115589070D01*
X164600346Y-115604976D01*
X164613134Y-115622219D01*
X164624170Y-115640632D01*
X164633349Y-115660038D01*
X164640581Y-115680250D01*
X164645797Y-115701074D01*
X164648947Y-115722309D01*
X164650000Y-115743750D01*
X164650000Y-116256250D01*
X164648947Y-116277691D01*
X164645797Y-116298926D01*
X164640581Y-116319750D01*
X164633349Y-116339962D01*
X164624170Y-116359368D01*
X164613134Y-116377781D01*
X164600346Y-116395024D01*
X164585930Y-116410930D01*
X164570024Y-116425346D01*
X164552781Y-116438134D01*
X164534368Y-116449170D01*
X164514962Y-116458349D01*
X164494750Y-116465581D01*
X164473926Y-116470797D01*
X164452691Y-116473947D01*
X164431250Y-116475000D01*
X163993750Y-116475000D01*
X163972309Y-116473947D01*
X163951074Y-116470797D01*
X163930250Y-116465581D01*
X163910038Y-116458349D01*
X163890632Y-116449170D01*
X163872219Y-116438134D01*
X163854976Y-116425346D01*
X163839070Y-116410930D01*
X163824654Y-116395024D01*
X163811866Y-116377781D01*
X163800830Y-116359368D01*
X163791651Y-116339962D01*
X163784419Y-116319750D01*
X163779203Y-116298926D01*
X163776053Y-116277691D01*
X163775000Y-116256250D01*
X163775000Y-115743750D01*
X163776053Y-115722309D01*
X163779203Y-115701074D01*
X163784419Y-115680250D01*
X163791651Y-115660038D01*
X163800830Y-115640632D01*
X163811866Y-115622219D01*
X163824654Y-115604976D01*
X163839070Y-115589070D01*
X163854976Y-115574654D01*
X163872219Y-115561866D01*
X163890632Y-115550830D01*
X163910038Y-115541651D01*
X163930250Y-115534419D01*
X163951074Y-115529203D01*
X163972309Y-115526053D01*
X163993750Y-115525000D01*
X164431250Y-115525000D01*
X164452691Y-115526053D01*
X164452691Y-115526053D01*
G37*
D18*
X164212500Y-116000000D03*
D13*
G36*
X151452691Y-106026053D02*
G01*
X151473926Y-106029203D01*
X151494750Y-106034419D01*
X151514962Y-106041651D01*
X151534368Y-106050830D01*
X151552781Y-106061866D01*
X151570024Y-106074654D01*
X151585930Y-106089070D01*
X151600346Y-106104976D01*
X151613134Y-106122219D01*
X151624170Y-106140632D01*
X151633349Y-106160038D01*
X151640581Y-106180250D01*
X151645797Y-106201074D01*
X151648947Y-106222309D01*
X151650000Y-106243750D01*
X151650000Y-106756250D01*
X151648947Y-106777691D01*
X151645797Y-106798926D01*
X151640581Y-106819750D01*
X151633349Y-106839962D01*
X151624170Y-106859368D01*
X151613134Y-106877781D01*
X151600346Y-106895024D01*
X151585930Y-106910930D01*
X151570024Y-106925346D01*
X151552781Y-106938134D01*
X151534368Y-106949170D01*
X151514962Y-106958349D01*
X151494750Y-106965581D01*
X151473926Y-106970797D01*
X151452691Y-106973947D01*
X151431250Y-106975000D01*
X150993750Y-106975000D01*
X150972309Y-106973947D01*
X150951074Y-106970797D01*
X150930250Y-106965581D01*
X150910038Y-106958349D01*
X150890632Y-106949170D01*
X150872219Y-106938134D01*
X150854976Y-106925346D01*
X150839070Y-106910930D01*
X150824654Y-106895024D01*
X150811866Y-106877781D01*
X150800830Y-106859368D01*
X150791651Y-106839962D01*
X150784419Y-106819750D01*
X150779203Y-106798926D01*
X150776053Y-106777691D01*
X150775000Y-106756250D01*
X150775000Y-106243750D01*
X150776053Y-106222309D01*
X150779203Y-106201074D01*
X150784419Y-106180250D01*
X150791651Y-106160038D01*
X150800830Y-106140632D01*
X150811866Y-106122219D01*
X150824654Y-106104976D01*
X150839070Y-106089070D01*
X150854976Y-106074654D01*
X150872219Y-106061866D01*
X150890632Y-106050830D01*
X150910038Y-106041651D01*
X150930250Y-106034419D01*
X150951074Y-106029203D01*
X150972309Y-106026053D01*
X150993750Y-106025000D01*
X151431250Y-106025000D01*
X151452691Y-106026053D01*
X151452691Y-106026053D01*
G37*
D18*
X151212500Y-106500000D03*
D13*
G36*
X153027691Y-106026053D02*
G01*
X153048926Y-106029203D01*
X153069750Y-106034419D01*
X153089962Y-106041651D01*
X153109368Y-106050830D01*
X153127781Y-106061866D01*
X153145024Y-106074654D01*
X153160930Y-106089070D01*
X153175346Y-106104976D01*
X153188134Y-106122219D01*
X153199170Y-106140632D01*
X153208349Y-106160038D01*
X153215581Y-106180250D01*
X153220797Y-106201074D01*
X153223947Y-106222309D01*
X153225000Y-106243750D01*
X153225000Y-106756250D01*
X153223947Y-106777691D01*
X153220797Y-106798926D01*
X153215581Y-106819750D01*
X153208349Y-106839962D01*
X153199170Y-106859368D01*
X153188134Y-106877781D01*
X153175346Y-106895024D01*
X153160930Y-106910930D01*
X153145024Y-106925346D01*
X153127781Y-106938134D01*
X153109368Y-106949170D01*
X153089962Y-106958349D01*
X153069750Y-106965581D01*
X153048926Y-106970797D01*
X153027691Y-106973947D01*
X153006250Y-106975000D01*
X152568750Y-106975000D01*
X152547309Y-106973947D01*
X152526074Y-106970797D01*
X152505250Y-106965581D01*
X152485038Y-106958349D01*
X152465632Y-106949170D01*
X152447219Y-106938134D01*
X152429976Y-106925346D01*
X152414070Y-106910930D01*
X152399654Y-106895024D01*
X152386866Y-106877781D01*
X152375830Y-106859368D01*
X152366651Y-106839962D01*
X152359419Y-106819750D01*
X152354203Y-106798926D01*
X152351053Y-106777691D01*
X152350000Y-106756250D01*
X152350000Y-106243750D01*
X152351053Y-106222309D01*
X152354203Y-106201074D01*
X152359419Y-106180250D01*
X152366651Y-106160038D01*
X152375830Y-106140632D01*
X152386866Y-106122219D01*
X152399654Y-106104976D01*
X152414070Y-106089070D01*
X152429976Y-106074654D01*
X152447219Y-106061866D01*
X152465632Y-106050830D01*
X152485038Y-106041651D01*
X152505250Y-106034419D01*
X152526074Y-106029203D01*
X152547309Y-106026053D01*
X152568750Y-106025000D01*
X153006250Y-106025000D01*
X153027691Y-106026053D01*
X153027691Y-106026053D01*
G37*
D18*
X152787500Y-106500000D03*
D13*
G36*
X153027691Y-104026053D02*
G01*
X153048926Y-104029203D01*
X153069750Y-104034419D01*
X153089962Y-104041651D01*
X153109368Y-104050830D01*
X153127781Y-104061866D01*
X153145024Y-104074654D01*
X153160930Y-104089070D01*
X153175346Y-104104976D01*
X153188134Y-104122219D01*
X153199170Y-104140632D01*
X153208349Y-104160038D01*
X153215581Y-104180250D01*
X153220797Y-104201074D01*
X153223947Y-104222309D01*
X153225000Y-104243750D01*
X153225000Y-104756250D01*
X153223947Y-104777691D01*
X153220797Y-104798926D01*
X153215581Y-104819750D01*
X153208349Y-104839962D01*
X153199170Y-104859368D01*
X153188134Y-104877781D01*
X153175346Y-104895024D01*
X153160930Y-104910930D01*
X153145024Y-104925346D01*
X153127781Y-104938134D01*
X153109368Y-104949170D01*
X153089962Y-104958349D01*
X153069750Y-104965581D01*
X153048926Y-104970797D01*
X153027691Y-104973947D01*
X153006250Y-104975000D01*
X152568750Y-104975000D01*
X152547309Y-104973947D01*
X152526074Y-104970797D01*
X152505250Y-104965581D01*
X152485038Y-104958349D01*
X152465632Y-104949170D01*
X152447219Y-104938134D01*
X152429976Y-104925346D01*
X152414070Y-104910930D01*
X152399654Y-104895024D01*
X152386866Y-104877781D01*
X152375830Y-104859368D01*
X152366651Y-104839962D01*
X152359419Y-104819750D01*
X152354203Y-104798926D01*
X152351053Y-104777691D01*
X152350000Y-104756250D01*
X152350000Y-104243750D01*
X152351053Y-104222309D01*
X152354203Y-104201074D01*
X152359419Y-104180250D01*
X152366651Y-104160038D01*
X152375830Y-104140632D01*
X152386866Y-104122219D01*
X152399654Y-104104976D01*
X152414070Y-104089070D01*
X152429976Y-104074654D01*
X152447219Y-104061866D01*
X152465632Y-104050830D01*
X152485038Y-104041651D01*
X152505250Y-104034419D01*
X152526074Y-104029203D01*
X152547309Y-104026053D01*
X152568750Y-104025000D01*
X153006250Y-104025000D01*
X153027691Y-104026053D01*
X153027691Y-104026053D01*
G37*
D18*
X152787500Y-104500000D03*
D13*
G36*
X151452691Y-104026053D02*
G01*
X151473926Y-104029203D01*
X151494750Y-104034419D01*
X151514962Y-104041651D01*
X151534368Y-104050830D01*
X151552781Y-104061866D01*
X151570024Y-104074654D01*
X151585930Y-104089070D01*
X151600346Y-104104976D01*
X151613134Y-104122219D01*
X151624170Y-104140632D01*
X151633349Y-104160038D01*
X151640581Y-104180250D01*
X151645797Y-104201074D01*
X151648947Y-104222309D01*
X151650000Y-104243750D01*
X151650000Y-104756250D01*
X151648947Y-104777691D01*
X151645797Y-104798926D01*
X151640581Y-104819750D01*
X151633349Y-104839962D01*
X151624170Y-104859368D01*
X151613134Y-104877781D01*
X151600346Y-104895024D01*
X151585930Y-104910930D01*
X151570024Y-104925346D01*
X151552781Y-104938134D01*
X151534368Y-104949170D01*
X151514962Y-104958349D01*
X151494750Y-104965581D01*
X151473926Y-104970797D01*
X151452691Y-104973947D01*
X151431250Y-104975000D01*
X150993750Y-104975000D01*
X150972309Y-104973947D01*
X150951074Y-104970797D01*
X150930250Y-104965581D01*
X150910038Y-104958349D01*
X150890632Y-104949170D01*
X150872219Y-104938134D01*
X150854976Y-104925346D01*
X150839070Y-104910930D01*
X150824654Y-104895024D01*
X150811866Y-104877781D01*
X150800830Y-104859368D01*
X150791651Y-104839962D01*
X150784419Y-104819750D01*
X150779203Y-104798926D01*
X150776053Y-104777691D01*
X150775000Y-104756250D01*
X150775000Y-104243750D01*
X150776053Y-104222309D01*
X150779203Y-104201074D01*
X150784419Y-104180250D01*
X150791651Y-104160038D01*
X150800830Y-104140632D01*
X150811866Y-104122219D01*
X150824654Y-104104976D01*
X150839070Y-104089070D01*
X150854976Y-104074654D01*
X150872219Y-104061866D01*
X150890632Y-104050830D01*
X150910038Y-104041651D01*
X150930250Y-104034419D01*
X150951074Y-104029203D01*
X150972309Y-104026053D01*
X150993750Y-104025000D01*
X151431250Y-104025000D01*
X151452691Y-104026053D01*
X151452691Y-104026053D01*
G37*
D18*
X151212500Y-104500000D03*
D13*
G36*
X151452691Y-102026053D02*
G01*
X151473926Y-102029203D01*
X151494750Y-102034419D01*
X151514962Y-102041651D01*
X151534368Y-102050830D01*
X151552781Y-102061866D01*
X151570024Y-102074654D01*
X151585930Y-102089070D01*
X151600346Y-102104976D01*
X151613134Y-102122219D01*
X151624170Y-102140632D01*
X151633349Y-102160038D01*
X151640581Y-102180250D01*
X151645797Y-102201074D01*
X151648947Y-102222309D01*
X151650000Y-102243750D01*
X151650000Y-102756250D01*
X151648947Y-102777691D01*
X151645797Y-102798926D01*
X151640581Y-102819750D01*
X151633349Y-102839962D01*
X151624170Y-102859368D01*
X151613134Y-102877781D01*
X151600346Y-102895024D01*
X151585930Y-102910930D01*
X151570024Y-102925346D01*
X151552781Y-102938134D01*
X151534368Y-102949170D01*
X151514962Y-102958349D01*
X151494750Y-102965581D01*
X151473926Y-102970797D01*
X151452691Y-102973947D01*
X151431250Y-102975000D01*
X150993750Y-102975000D01*
X150972309Y-102973947D01*
X150951074Y-102970797D01*
X150930250Y-102965581D01*
X150910038Y-102958349D01*
X150890632Y-102949170D01*
X150872219Y-102938134D01*
X150854976Y-102925346D01*
X150839070Y-102910930D01*
X150824654Y-102895024D01*
X150811866Y-102877781D01*
X150800830Y-102859368D01*
X150791651Y-102839962D01*
X150784419Y-102819750D01*
X150779203Y-102798926D01*
X150776053Y-102777691D01*
X150775000Y-102756250D01*
X150775000Y-102243750D01*
X150776053Y-102222309D01*
X150779203Y-102201074D01*
X150784419Y-102180250D01*
X150791651Y-102160038D01*
X150800830Y-102140632D01*
X150811866Y-102122219D01*
X150824654Y-102104976D01*
X150839070Y-102089070D01*
X150854976Y-102074654D01*
X150872219Y-102061866D01*
X150890632Y-102050830D01*
X150910038Y-102041651D01*
X150930250Y-102034419D01*
X150951074Y-102029203D01*
X150972309Y-102026053D01*
X150993750Y-102025000D01*
X151431250Y-102025000D01*
X151452691Y-102026053D01*
X151452691Y-102026053D01*
G37*
D18*
X151212500Y-102500000D03*
D13*
G36*
X153027691Y-102026053D02*
G01*
X153048926Y-102029203D01*
X153069750Y-102034419D01*
X153089962Y-102041651D01*
X153109368Y-102050830D01*
X153127781Y-102061866D01*
X153145024Y-102074654D01*
X153160930Y-102089070D01*
X153175346Y-102104976D01*
X153188134Y-102122219D01*
X153199170Y-102140632D01*
X153208349Y-102160038D01*
X153215581Y-102180250D01*
X153220797Y-102201074D01*
X153223947Y-102222309D01*
X153225000Y-102243750D01*
X153225000Y-102756250D01*
X153223947Y-102777691D01*
X153220797Y-102798926D01*
X153215581Y-102819750D01*
X153208349Y-102839962D01*
X153199170Y-102859368D01*
X153188134Y-102877781D01*
X153175346Y-102895024D01*
X153160930Y-102910930D01*
X153145024Y-102925346D01*
X153127781Y-102938134D01*
X153109368Y-102949170D01*
X153089962Y-102958349D01*
X153069750Y-102965581D01*
X153048926Y-102970797D01*
X153027691Y-102973947D01*
X153006250Y-102975000D01*
X152568750Y-102975000D01*
X152547309Y-102973947D01*
X152526074Y-102970797D01*
X152505250Y-102965581D01*
X152485038Y-102958349D01*
X152465632Y-102949170D01*
X152447219Y-102938134D01*
X152429976Y-102925346D01*
X152414070Y-102910930D01*
X152399654Y-102895024D01*
X152386866Y-102877781D01*
X152375830Y-102859368D01*
X152366651Y-102839962D01*
X152359419Y-102819750D01*
X152354203Y-102798926D01*
X152351053Y-102777691D01*
X152350000Y-102756250D01*
X152350000Y-102243750D01*
X152351053Y-102222309D01*
X152354203Y-102201074D01*
X152359419Y-102180250D01*
X152366651Y-102160038D01*
X152375830Y-102140632D01*
X152386866Y-102122219D01*
X152399654Y-102104976D01*
X152414070Y-102089070D01*
X152429976Y-102074654D01*
X152447219Y-102061866D01*
X152465632Y-102050830D01*
X152485038Y-102041651D01*
X152505250Y-102034419D01*
X152526074Y-102029203D01*
X152547309Y-102026053D01*
X152568750Y-102025000D01*
X153006250Y-102025000D01*
X153027691Y-102026053D01*
X153027691Y-102026053D01*
G37*
D18*
X152787500Y-102500000D03*
D13*
G36*
X162583428Y-111475782D02*
G01*
X162599202Y-111478122D01*
X162614671Y-111481997D01*
X162629686Y-111487370D01*
X162644102Y-111494188D01*
X162657780Y-111502386D01*
X162670589Y-111511886D01*
X162682405Y-111522595D01*
X162693114Y-111534411D01*
X162702614Y-111547220D01*
X162710812Y-111560898D01*
X162717630Y-111575314D01*
X162723003Y-111590329D01*
X162726878Y-111605798D01*
X162729218Y-111621572D01*
X162730000Y-111637500D01*
X162730000Y-113287500D01*
X162729218Y-113303428D01*
X162726878Y-113319202D01*
X162723003Y-113334671D01*
X162717630Y-113349686D01*
X162710812Y-113364102D01*
X162702614Y-113377780D01*
X162693114Y-113390589D01*
X162682405Y-113402405D01*
X162670589Y-113413114D01*
X162657780Y-113422614D01*
X162644102Y-113430812D01*
X162629686Y-113437630D01*
X162614671Y-113443003D01*
X162599202Y-113446878D01*
X162583428Y-113449218D01*
X162567500Y-113450000D01*
X162242500Y-113450000D01*
X162226572Y-113449218D01*
X162210798Y-113446878D01*
X162195329Y-113443003D01*
X162180314Y-113437630D01*
X162165898Y-113430812D01*
X162152220Y-113422614D01*
X162139411Y-113413114D01*
X162127595Y-113402405D01*
X162116886Y-113390589D01*
X162107386Y-113377780D01*
X162099188Y-113364102D01*
X162092370Y-113349686D01*
X162086997Y-113334671D01*
X162083122Y-113319202D01*
X162080782Y-113303428D01*
X162080000Y-113287500D01*
X162080000Y-111637500D01*
X162080782Y-111621572D01*
X162083122Y-111605798D01*
X162086997Y-111590329D01*
X162092370Y-111575314D01*
X162099188Y-111560898D01*
X162107386Y-111547220D01*
X162116886Y-111534411D01*
X162127595Y-111522595D01*
X162139411Y-111511886D01*
X162152220Y-111502386D01*
X162165898Y-111494188D01*
X162180314Y-111487370D01*
X162195329Y-111481997D01*
X162210798Y-111478122D01*
X162226572Y-111475782D01*
X162242500Y-111475000D01*
X162567500Y-111475000D01*
X162583428Y-111475782D01*
X162583428Y-111475782D01*
G37*
D21*
X162405000Y-112462500D03*
D13*
G36*
X161313428Y-111475782D02*
G01*
X161329202Y-111478122D01*
X161344671Y-111481997D01*
X161359686Y-111487370D01*
X161374102Y-111494188D01*
X161387780Y-111502386D01*
X161400589Y-111511886D01*
X161412405Y-111522595D01*
X161423114Y-111534411D01*
X161432614Y-111547220D01*
X161440812Y-111560898D01*
X161447630Y-111575314D01*
X161453003Y-111590329D01*
X161456878Y-111605798D01*
X161459218Y-111621572D01*
X161460000Y-111637500D01*
X161460000Y-113287500D01*
X161459218Y-113303428D01*
X161456878Y-113319202D01*
X161453003Y-113334671D01*
X161447630Y-113349686D01*
X161440812Y-113364102D01*
X161432614Y-113377780D01*
X161423114Y-113390589D01*
X161412405Y-113402405D01*
X161400589Y-113413114D01*
X161387780Y-113422614D01*
X161374102Y-113430812D01*
X161359686Y-113437630D01*
X161344671Y-113443003D01*
X161329202Y-113446878D01*
X161313428Y-113449218D01*
X161297500Y-113450000D01*
X160972500Y-113450000D01*
X160956572Y-113449218D01*
X160940798Y-113446878D01*
X160925329Y-113443003D01*
X160910314Y-113437630D01*
X160895898Y-113430812D01*
X160882220Y-113422614D01*
X160869411Y-113413114D01*
X160857595Y-113402405D01*
X160846886Y-113390589D01*
X160837386Y-113377780D01*
X160829188Y-113364102D01*
X160822370Y-113349686D01*
X160816997Y-113334671D01*
X160813122Y-113319202D01*
X160810782Y-113303428D01*
X160810000Y-113287500D01*
X160810000Y-111637500D01*
X160810782Y-111621572D01*
X160813122Y-111605798D01*
X160816997Y-111590329D01*
X160822370Y-111575314D01*
X160829188Y-111560898D01*
X160837386Y-111547220D01*
X160846886Y-111534411D01*
X160857595Y-111522595D01*
X160869411Y-111511886D01*
X160882220Y-111502386D01*
X160895898Y-111494188D01*
X160910314Y-111487370D01*
X160925329Y-111481997D01*
X160940798Y-111478122D01*
X160956572Y-111475782D01*
X160972500Y-111475000D01*
X161297500Y-111475000D01*
X161313428Y-111475782D01*
X161313428Y-111475782D01*
G37*
D21*
X161135000Y-112462500D03*
D13*
G36*
X160043428Y-111475782D02*
G01*
X160059202Y-111478122D01*
X160074671Y-111481997D01*
X160089686Y-111487370D01*
X160104102Y-111494188D01*
X160117780Y-111502386D01*
X160130589Y-111511886D01*
X160142405Y-111522595D01*
X160153114Y-111534411D01*
X160162614Y-111547220D01*
X160170812Y-111560898D01*
X160177630Y-111575314D01*
X160183003Y-111590329D01*
X160186878Y-111605798D01*
X160189218Y-111621572D01*
X160190000Y-111637500D01*
X160190000Y-113287500D01*
X160189218Y-113303428D01*
X160186878Y-113319202D01*
X160183003Y-113334671D01*
X160177630Y-113349686D01*
X160170812Y-113364102D01*
X160162614Y-113377780D01*
X160153114Y-113390589D01*
X160142405Y-113402405D01*
X160130589Y-113413114D01*
X160117780Y-113422614D01*
X160104102Y-113430812D01*
X160089686Y-113437630D01*
X160074671Y-113443003D01*
X160059202Y-113446878D01*
X160043428Y-113449218D01*
X160027500Y-113450000D01*
X159702500Y-113450000D01*
X159686572Y-113449218D01*
X159670798Y-113446878D01*
X159655329Y-113443003D01*
X159640314Y-113437630D01*
X159625898Y-113430812D01*
X159612220Y-113422614D01*
X159599411Y-113413114D01*
X159587595Y-113402405D01*
X159576886Y-113390589D01*
X159567386Y-113377780D01*
X159559188Y-113364102D01*
X159552370Y-113349686D01*
X159546997Y-113334671D01*
X159543122Y-113319202D01*
X159540782Y-113303428D01*
X159540000Y-113287500D01*
X159540000Y-111637500D01*
X159540782Y-111621572D01*
X159543122Y-111605798D01*
X159546997Y-111590329D01*
X159552370Y-111575314D01*
X159559188Y-111560898D01*
X159567386Y-111547220D01*
X159576886Y-111534411D01*
X159587595Y-111522595D01*
X159599411Y-111511886D01*
X159612220Y-111502386D01*
X159625898Y-111494188D01*
X159640314Y-111487370D01*
X159655329Y-111481997D01*
X159670798Y-111478122D01*
X159686572Y-111475782D01*
X159702500Y-111475000D01*
X160027500Y-111475000D01*
X160043428Y-111475782D01*
X160043428Y-111475782D01*
G37*
D21*
X159865000Y-112462500D03*
D13*
G36*
X158773428Y-111475782D02*
G01*
X158789202Y-111478122D01*
X158804671Y-111481997D01*
X158819686Y-111487370D01*
X158834102Y-111494188D01*
X158847780Y-111502386D01*
X158860589Y-111511886D01*
X158872405Y-111522595D01*
X158883114Y-111534411D01*
X158892614Y-111547220D01*
X158900812Y-111560898D01*
X158907630Y-111575314D01*
X158913003Y-111590329D01*
X158916878Y-111605798D01*
X158919218Y-111621572D01*
X158920000Y-111637500D01*
X158920000Y-113287500D01*
X158919218Y-113303428D01*
X158916878Y-113319202D01*
X158913003Y-113334671D01*
X158907630Y-113349686D01*
X158900812Y-113364102D01*
X158892614Y-113377780D01*
X158883114Y-113390589D01*
X158872405Y-113402405D01*
X158860589Y-113413114D01*
X158847780Y-113422614D01*
X158834102Y-113430812D01*
X158819686Y-113437630D01*
X158804671Y-113443003D01*
X158789202Y-113446878D01*
X158773428Y-113449218D01*
X158757500Y-113450000D01*
X158432500Y-113450000D01*
X158416572Y-113449218D01*
X158400798Y-113446878D01*
X158385329Y-113443003D01*
X158370314Y-113437630D01*
X158355898Y-113430812D01*
X158342220Y-113422614D01*
X158329411Y-113413114D01*
X158317595Y-113402405D01*
X158306886Y-113390589D01*
X158297386Y-113377780D01*
X158289188Y-113364102D01*
X158282370Y-113349686D01*
X158276997Y-113334671D01*
X158273122Y-113319202D01*
X158270782Y-113303428D01*
X158270000Y-113287500D01*
X158270000Y-111637500D01*
X158270782Y-111621572D01*
X158273122Y-111605798D01*
X158276997Y-111590329D01*
X158282370Y-111575314D01*
X158289188Y-111560898D01*
X158297386Y-111547220D01*
X158306886Y-111534411D01*
X158317595Y-111522595D01*
X158329411Y-111511886D01*
X158342220Y-111502386D01*
X158355898Y-111494188D01*
X158370314Y-111487370D01*
X158385329Y-111481997D01*
X158400798Y-111478122D01*
X158416572Y-111475782D01*
X158432500Y-111475000D01*
X158757500Y-111475000D01*
X158773428Y-111475782D01*
X158773428Y-111475782D01*
G37*
D21*
X158595000Y-112462500D03*
D13*
G36*
X158773428Y-116550782D02*
G01*
X158789202Y-116553122D01*
X158804671Y-116556997D01*
X158819686Y-116562370D01*
X158834102Y-116569188D01*
X158847780Y-116577386D01*
X158860589Y-116586886D01*
X158872405Y-116597595D01*
X158883114Y-116609411D01*
X158892614Y-116622220D01*
X158900812Y-116635898D01*
X158907630Y-116650314D01*
X158913003Y-116665329D01*
X158916878Y-116680798D01*
X158919218Y-116696572D01*
X158920000Y-116712500D01*
X158920000Y-118362500D01*
X158919218Y-118378428D01*
X158916878Y-118394202D01*
X158913003Y-118409671D01*
X158907630Y-118424686D01*
X158900812Y-118439102D01*
X158892614Y-118452780D01*
X158883114Y-118465589D01*
X158872405Y-118477405D01*
X158860589Y-118488114D01*
X158847780Y-118497614D01*
X158834102Y-118505812D01*
X158819686Y-118512630D01*
X158804671Y-118518003D01*
X158789202Y-118521878D01*
X158773428Y-118524218D01*
X158757500Y-118525000D01*
X158432500Y-118525000D01*
X158416572Y-118524218D01*
X158400798Y-118521878D01*
X158385329Y-118518003D01*
X158370314Y-118512630D01*
X158355898Y-118505812D01*
X158342220Y-118497614D01*
X158329411Y-118488114D01*
X158317595Y-118477405D01*
X158306886Y-118465589D01*
X158297386Y-118452780D01*
X158289188Y-118439102D01*
X158282370Y-118424686D01*
X158276997Y-118409671D01*
X158273122Y-118394202D01*
X158270782Y-118378428D01*
X158270000Y-118362500D01*
X158270000Y-116712500D01*
X158270782Y-116696572D01*
X158273122Y-116680798D01*
X158276997Y-116665329D01*
X158282370Y-116650314D01*
X158289188Y-116635898D01*
X158297386Y-116622220D01*
X158306886Y-116609411D01*
X158317595Y-116597595D01*
X158329411Y-116586886D01*
X158342220Y-116577386D01*
X158355898Y-116569188D01*
X158370314Y-116562370D01*
X158385329Y-116556997D01*
X158400798Y-116553122D01*
X158416572Y-116550782D01*
X158432500Y-116550000D01*
X158757500Y-116550000D01*
X158773428Y-116550782D01*
X158773428Y-116550782D01*
G37*
D21*
X158595000Y-117537500D03*
D13*
G36*
X160043428Y-116550782D02*
G01*
X160059202Y-116553122D01*
X160074671Y-116556997D01*
X160089686Y-116562370D01*
X160104102Y-116569188D01*
X160117780Y-116577386D01*
X160130589Y-116586886D01*
X160142405Y-116597595D01*
X160153114Y-116609411D01*
X160162614Y-116622220D01*
X160170812Y-116635898D01*
X160177630Y-116650314D01*
X160183003Y-116665329D01*
X160186878Y-116680798D01*
X160189218Y-116696572D01*
X160190000Y-116712500D01*
X160190000Y-118362500D01*
X160189218Y-118378428D01*
X160186878Y-118394202D01*
X160183003Y-118409671D01*
X160177630Y-118424686D01*
X160170812Y-118439102D01*
X160162614Y-118452780D01*
X160153114Y-118465589D01*
X160142405Y-118477405D01*
X160130589Y-118488114D01*
X160117780Y-118497614D01*
X160104102Y-118505812D01*
X160089686Y-118512630D01*
X160074671Y-118518003D01*
X160059202Y-118521878D01*
X160043428Y-118524218D01*
X160027500Y-118525000D01*
X159702500Y-118525000D01*
X159686572Y-118524218D01*
X159670798Y-118521878D01*
X159655329Y-118518003D01*
X159640314Y-118512630D01*
X159625898Y-118505812D01*
X159612220Y-118497614D01*
X159599411Y-118488114D01*
X159587595Y-118477405D01*
X159576886Y-118465589D01*
X159567386Y-118452780D01*
X159559188Y-118439102D01*
X159552370Y-118424686D01*
X159546997Y-118409671D01*
X159543122Y-118394202D01*
X159540782Y-118378428D01*
X159540000Y-118362500D01*
X159540000Y-116712500D01*
X159540782Y-116696572D01*
X159543122Y-116680798D01*
X159546997Y-116665329D01*
X159552370Y-116650314D01*
X159559188Y-116635898D01*
X159567386Y-116622220D01*
X159576886Y-116609411D01*
X159587595Y-116597595D01*
X159599411Y-116586886D01*
X159612220Y-116577386D01*
X159625898Y-116569188D01*
X159640314Y-116562370D01*
X159655329Y-116556997D01*
X159670798Y-116553122D01*
X159686572Y-116550782D01*
X159702500Y-116550000D01*
X160027500Y-116550000D01*
X160043428Y-116550782D01*
X160043428Y-116550782D01*
G37*
D21*
X159865000Y-117537500D03*
D13*
G36*
X161313428Y-116550782D02*
G01*
X161329202Y-116553122D01*
X161344671Y-116556997D01*
X161359686Y-116562370D01*
X161374102Y-116569188D01*
X161387780Y-116577386D01*
X161400589Y-116586886D01*
X161412405Y-116597595D01*
X161423114Y-116609411D01*
X161432614Y-116622220D01*
X161440812Y-116635898D01*
X161447630Y-116650314D01*
X161453003Y-116665329D01*
X161456878Y-116680798D01*
X161459218Y-116696572D01*
X161460000Y-116712500D01*
X161460000Y-118362500D01*
X161459218Y-118378428D01*
X161456878Y-118394202D01*
X161453003Y-118409671D01*
X161447630Y-118424686D01*
X161440812Y-118439102D01*
X161432614Y-118452780D01*
X161423114Y-118465589D01*
X161412405Y-118477405D01*
X161400589Y-118488114D01*
X161387780Y-118497614D01*
X161374102Y-118505812D01*
X161359686Y-118512630D01*
X161344671Y-118518003D01*
X161329202Y-118521878D01*
X161313428Y-118524218D01*
X161297500Y-118525000D01*
X160972500Y-118525000D01*
X160956572Y-118524218D01*
X160940798Y-118521878D01*
X160925329Y-118518003D01*
X160910314Y-118512630D01*
X160895898Y-118505812D01*
X160882220Y-118497614D01*
X160869411Y-118488114D01*
X160857595Y-118477405D01*
X160846886Y-118465589D01*
X160837386Y-118452780D01*
X160829188Y-118439102D01*
X160822370Y-118424686D01*
X160816997Y-118409671D01*
X160813122Y-118394202D01*
X160810782Y-118378428D01*
X160810000Y-118362500D01*
X160810000Y-116712500D01*
X160810782Y-116696572D01*
X160813122Y-116680798D01*
X160816997Y-116665329D01*
X160822370Y-116650314D01*
X160829188Y-116635898D01*
X160837386Y-116622220D01*
X160846886Y-116609411D01*
X160857595Y-116597595D01*
X160869411Y-116586886D01*
X160882220Y-116577386D01*
X160895898Y-116569188D01*
X160910314Y-116562370D01*
X160925329Y-116556997D01*
X160940798Y-116553122D01*
X160956572Y-116550782D01*
X160972500Y-116550000D01*
X161297500Y-116550000D01*
X161313428Y-116550782D01*
X161313428Y-116550782D01*
G37*
D21*
X161135000Y-117537500D03*
D13*
G36*
X162583428Y-116550782D02*
G01*
X162599202Y-116553122D01*
X162614671Y-116556997D01*
X162629686Y-116562370D01*
X162644102Y-116569188D01*
X162657780Y-116577386D01*
X162670589Y-116586886D01*
X162682405Y-116597595D01*
X162693114Y-116609411D01*
X162702614Y-116622220D01*
X162710812Y-116635898D01*
X162717630Y-116650314D01*
X162723003Y-116665329D01*
X162726878Y-116680798D01*
X162729218Y-116696572D01*
X162730000Y-116712500D01*
X162730000Y-118362500D01*
X162729218Y-118378428D01*
X162726878Y-118394202D01*
X162723003Y-118409671D01*
X162717630Y-118424686D01*
X162710812Y-118439102D01*
X162702614Y-118452780D01*
X162693114Y-118465589D01*
X162682405Y-118477405D01*
X162670589Y-118488114D01*
X162657780Y-118497614D01*
X162644102Y-118505812D01*
X162629686Y-118512630D01*
X162614671Y-118518003D01*
X162599202Y-118521878D01*
X162583428Y-118524218D01*
X162567500Y-118525000D01*
X162242500Y-118525000D01*
X162226572Y-118524218D01*
X162210798Y-118521878D01*
X162195329Y-118518003D01*
X162180314Y-118512630D01*
X162165898Y-118505812D01*
X162152220Y-118497614D01*
X162139411Y-118488114D01*
X162127595Y-118477405D01*
X162116886Y-118465589D01*
X162107386Y-118452780D01*
X162099188Y-118439102D01*
X162092370Y-118424686D01*
X162086997Y-118409671D01*
X162083122Y-118394202D01*
X162080782Y-118378428D01*
X162080000Y-118362500D01*
X162080000Y-116712500D01*
X162080782Y-116696572D01*
X162083122Y-116680798D01*
X162086997Y-116665329D01*
X162092370Y-116650314D01*
X162099188Y-116635898D01*
X162107386Y-116622220D01*
X162116886Y-116609411D01*
X162127595Y-116597595D01*
X162139411Y-116586886D01*
X162152220Y-116577386D01*
X162165898Y-116569188D01*
X162180314Y-116562370D01*
X162195329Y-116556997D01*
X162210798Y-116553122D01*
X162226572Y-116550782D01*
X162242500Y-116550000D01*
X162567500Y-116550000D01*
X162583428Y-116550782D01*
X162583428Y-116550782D01*
G37*
D21*
X162405000Y-117537500D03*
D22*
X157475000Y-101850000D03*
X156825000Y-101850000D03*
X156175000Y-101850000D03*
X155525000Y-101850000D03*
X155525000Y-106150000D03*
X156175000Y-106150000D03*
X156825000Y-106150000D03*
X157475000Y-106150000D03*
D23*
X196500000Y-116500000D03*
X153500000Y-116500000D03*
X153500000Y-73500000D03*
X196500000Y-73500000D03*
D24*
X157500000Y-118000000D03*
X156494929Y-103399297D03*
X175000000Y-91500000D03*
X173000000Y-91500000D03*
X177000000Y-91500000D03*
X179000000Y-91500000D03*
X171000000Y-91500000D03*
X170000000Y-89500000D03*
X172000000Y-89500000D03*
X174000000Y-89500000D03*
X176000000Y-89500000D03*
X178000000Y-89500000D03*
X180000000Y-89500000D03*
X172000000Y-92500000D03*
X178000000Y-92500000D03*
X171000000Y-93500000D03*
X171000000Y-95000000D03*
X171000000Y-96500000D03*
X179000000Y-93500000D03*
X179000000Y-95000000D03*
X179000000Y-96500000D03*
X175000000Y-98500000D03*
X173000000Y-98500000D03*
X171000000Y-98500000D03*
X169000000Y-98500000D03*
X177000000Y-98500000D03*
X179000000Y-98500000D03*
X181000000Y-98500000D03*
X178000000Y-97500000D03*
X172000000Y-97500000D03*
X168000000Y-100500000D03*
X170000000Y-100500000D03*
X172000000Y-100500000D03*
X174000000Y-100500000D03*
X176000000Y-100500000D03*
X178000000Y-100500000D03*
X180000000Y-100500000D03*
X182000000Y-100500000D03*
X166982102Y-118224790D03*
X155130436Y-89642294D03*
X164000000Y-80000000D03*
X155500000Y-98250000D03*
X158000000Y-98250000D03*
X179750000Y-115750000D03*
X182000000Y-115750000D03*
X174075000Y-115075000D03*
X194000000Y-113500000D03*
X190000000Y-73500000D03*
X194000000Y-85000000D03*
X191000000Y-83000000D03*
X160106250Y-107106250D03*
X166774990Y-115103793D03*
X158500000Y-114500000D03*
X150625000Y-113000000D03*
X153500000Y-90500000D03*
X153500000Y-100500000D03*
X155000000Y-103500000D03*
X156500000Y-105000000D03*
X151250000Y-86750000D03*
X151750000Y-99250000D03*
X155250000Y-107250000D03*
X158631273Y-107555908D03*
X159000000Y-81750000D03*
X159750000Y-89500000D03*
X156750000Y-100500000D03*
X172000000Y-81500000D03*
X156175000Y-110225010D03*
X153000000Y-110000000D03*
X159715720Y-110487340D03*
X155774990Y-100017898D03*
X153949361Y-108038775D03*
X160525636Y-108499683D03*
X162500000Y-109500000D03*
X154500000Y-109500000D03*
X169224658Y-116022607D03*
X166368750Y-103131250D03*
X164500000Y-86500000D03*
X164000000Y-111500000D03*
X157500000Y-111000000D03*
X151500000Y-111500000D03*
X166500000Y-87550002D03*
X184841813Y-87158187D03*
X151500000Y-88000000D03*
X184000000Y-88000000D03*
X160500000Y-88000000D03*
X166500000Y-88550015D03*
X165250000Y-95000000D03*
X165250000Y-90500000D03*
X164000000Y-96500000D03*
X163750000Y-91500000D03*
X170500000Y-85000000D03*
X172500000Y-85000000D03*
X175000000Y-85000000D03*
X177500000Y-85000000D03*
X171500000Y-83500000D03*
X174000000Y-83500000D03*
X176500000Y-83500000D03*
D25*
X166000000Y-118212500D02*
X165787500Y-118000000D01*
D26*
X174975000Y-115000000D02*
X175562500Y-115000000D01*
X172500000Y-116650000D02*
X174075000Y-115075000D01*
X172500000Y-118000000D02*
X172500000Y-116650000D01*
D25*
X157500000Y-113557500D02*
X158595000Y-112462500D01*
X157500000Y-118000000D02*
X157500000Y-113557500D01*
X162287500Y-105500000D02*
X162000000Y-105212500D01*
X156094930Y-102999298D02*
X156494929Y-103399297D01*
X155525000Y-101850000D02*
X155525000Y-102429368D01*
X155525000Y-102429368D02*
X156094930Y-102999298D01*
D26*
X174150000Y-115000000D02*
X174975000Y-115000000D01*
D25*
X170000000Y-113950000D02*
X170000000Y-114810000D01*
X174437499Y-113874999D02*
X170075001Y-113874999D01*
X170075001Y-113874999D02*
X170000000Y-113950000D01*
X175562500Y-115000000D02*
X174437499Y-113874999D01*
X170075001Y-110862499D02*
X170075001Y-113874999D01*
X170937500Y-110000000D02*
X170075001Y-110862499D01*
X165787500Y-118000000D02*
X166757312Y-118000000D01*
X166757312Y-118000000D02*
X166982102Y-118224790D01*
D26*
X153814999Y-89650001D02*
X155122729Y-89650001D01*
X155122729Y-89650001D02*
X155130436Y-89642294D01*
X153500000Y-88800000D02*
X153500000Y-89335002D01*
X153500000Y-89335002D02*
X153814999Y-89650001D01*
X156420206Y-89642294D02*
X156500000Y-89562500D01*
X155130436Y-89642294D02*
X156420206Y-89642294D01*
X165500000Y-79562500D02*
X164437500Y-79562500D01*
X164437500Y-79562500D02*
X164000000Y-80000000D01*
X162800000Y-80000000D02*
X162500000Y-79700000D01*
X162500000Y-79700000D02*
X162500000Y-78800000D01*
X164000000Y-80000000D02*
X162800000Y-80000000D01*
D27*
X155500000Y-98250000D02*
X158000000Y-98250000D01*
D28*
X170925210Y-118224790D02*
X166982102Y-118224790D01*
X172500000Y-116650000D02*
X170925210Y-118224790D01*
D25*
X158990710Y-112066790D02*
X158990710Y-108221790D01*
X158595000Y-112462500D02*
X158990710Y-112066790D01*
X161538388Y-105674112D02*
X162000000Y-105212500D01*
D26*
X174075000Y-115075000D02*
X174150000Y-115000000D01*
D27*
X194000000Y-77500000D02*
X190000000Y-73500000D01*
X194000000Y-83500000D02*
X194000000Y-85000000D01*
X194000000Y-83500000D02*
X194000000Y-77500000D01*
X194000000Y-113500000D02*
X194000000Y-85000000D01*
D28*
X191000000Y-83000000D02*
X185437500Y-83000000D01*
X185437500Y-83000000D02*
X184000000Y-81562500D01*
X181000000Y-82310002D02*
X181000000Y-81550000D01*
X181214999Y-82525001D02*
X181000000Y-82310002D01*
X183037499Y-82525001D02*
X181214999Y-82525001D01*
X184000000Y-81562500D02*
X183037499Y-82525001D01*
D25*
X158990710Y-108221790D02*
X160106250Y-107106250D01*
X160106250Y-107106250D02*
X161538388Y-105674112D01*
X162867500Y-118000000D02*
X162405000Y-117537500D01*
X164212500Y-118000000D02*
X162867500Y-118000000D01*
X164212500Y-118000000D02*
X164212500Y-116000000D01*
X166774990Y-114987490D02*
X166774990Y-115103793D01*
X165787500Y-114000000D02*
X166774990Y-114987490D01*
X158595000Y-117537500D02*
X158595000Y-114595000D01*
X158595000Y-114595000D02*
X158500000Y-114500000D01*
X173460000Y-70500000D02*
X174960000Y-72000000D01*
X150449990Y-112259305D02*
X150625000Y-112434315D01*
X150449990Y-79550010D02*
X150449990Y-112259305D01*
X150625000Y-112434315D02*
X150625000Y-113000000D01*
X159500000Y-70500000D02*
X150449990Y-79550010D01*
X173460000Y-70500000D02*
X159500000Y-70500000D01*
X152550000Y-88800000D02*
X152550000Y-89550000D01*
X152550000Y-89550000D02*
X153500000Y-90500000D01*
X153500000Y-100500000D02*
X153500000Y-102000000D01*
X153500000Y-102000000D02*
X155000000Y-103500000D01*
X156825000Y-105325000D02*
X156825000Y-106150000D01*
X156500000Y-105000000D02*
X156825000Y-105325000D01*
X151250000Y-81564998D02*
X151250000Y-86750000D01*
X161550000Y-78800000D02*
X154014998Y-78800000D01*
X154014998Y-78800000D02*
X151250000Y-81564998D01*
X155250000Y-106425000D02*
X155525000Y-106150000D01*
X155250000Y-107250000D02*
X155250000Y-106425000D01*
X151750000Y-99250000D02*
X156573002Y-99250000D01*
X158631273Y-101308271D02*
X158631273Y-106990223D01*
X156573002Y-99250000D02*
X158631273Y-101308271D01*
X158631273Y-106990223D02*
X158631273Y-107555908D01*
X159000000Y-81750000D02*
X159750000Y-82500000D01*
X159750000Y-82500000D02*
X159750000Y-89500000D01*
X156750000Y-101775000D02*
X156825000Y-101850000D01*
X156750000Y-100500000D02*
X156750000Y-101775000D01*
X180000000Y-81500000D02*
X180050000Y-81550000D01*
X172000000Y-81500000D02*
X180000000Y-81500000D01*
X153000000Y-106712500D02*
X152787500Y-106500000D01*
X153000000Y-110000000D02*
X153000000Y-106712500D01*
X156175000Y-106950000D02*
X156175000Y-110225010D01*
X156175000Y-106150000D02*
X156175000Y-106950000D01*
X159865000Y-110636620D02*
X159715720Y-110487340D01*
X159865000Y-112462500D02*
X159865000Y-110636620D01*
X152787500Y-104500000D02*
X153949361Y-105661861D01*
X153949361Y-107473090D02*
X153949361Y-108038775D01*
X153949361Y-105661861D02*
X153949361Y-107473090D01*
X156175000Y-101850000D02*
X156175000Y-101248002D01*
X155774990Y-100583583D02*
X155774990Y-100017898D01*
X155774990Y-100847992D02*
X155774990Y-100583583D01*
X156175000Y-101248002D02*
X155774990Y-100847992D01*
X161135000Y-112462500D02*
X161135000Y-109109047D01*
X161135000Y-109109047D02*
X160925635Y-108899682D01*
X160925635Y-108899682D02*
X160525636Y-108499683D01*
X162405000Y-112462500D02*
X162405000Y-110595000D01*
X162405000Y-109595000D02*
X162500000Y-109500000D01*
X153249112Y-102961612D02*
X152787500Y-102500000D01*
X154500000Y-104500000D02*
X154500000Y-104212500D01*
X157475000Y-103492230D02*
X156692231Y-104274999D01*
X154725001Y-104274999D02*
X154500000Y-104500000D01*
X156692231Y-104274999D02*
X154725001Y-104274999D01*
X157475000Y-101850000D02*
X157475000Y-103492230D01*
X154500000Y-104212500D02*
X153249112Y-102961612D01*
X162405000Y-110595000D02*
X162405000Y-109595000D01*
X154524999Y-104524999D02*
X154500000Y-104500000D01*
X154899999Y-109100001D02*
X154899999Y-107973001D01*
X154500000Y-109500000D02*
X154899999Y-109100001D01*
X154899999Y-107973001D02*
X154524999Y-107598001D01*
X154524999Y-107598001D02*
X154524999Y-104524999D01*
D27*
X192500000Y-78000000D02*
X186500000Y-72000000D01*
X190000000Y-118000000D02*
X192500000Y-115500000D01*
D26*
X177580000Y-118000000D02*
X177580000Y-115142500D01*
X177580000Y-115142500D02*
X177437500Y-115000000D01*
D27*
X177580000Y-118000000D02*
X190000000Y-118000000D01*
X186500000Y-72000000D02*
X177500000Y-72000000D01*
D25*
X169050000Y-114810000D02*
X169050000Y-115847949D01*
X169050000Y-115847949D02*
X169224658Y-116022607D01*
D28*
X159637500Y-96400000D02*
X157000000Y-96400000D01*
X177437500Y-115000000D02*
X177437500Y-114200000D01*
D26*
X157000000Y-96400000D02*
X157000000Y-95562500D01*
X154437500Y-91212500D02*
X154450000Y-91200000D01*
X154450000Y-93237500D02*
X154437500Y-93250000D01*
X154450000Y-91200000D02*
X154450000Y-93237500D01*
X154437500Y-93837500D02*
X157000000Y-96400000D01*
X154437500Y-93250000D02*
X154437500Y-93837500D01*
X156250000Y-91437500D02*
X154437500Y-93250000D01*
X156500000Y-91437500D02*
X156250000Y-91437500D01*
X163437500Y-81212500D02*
X163450000Y-81200000D01*
X163437500Y-83500000D02*
X163437500Y-81212500D01*
X163687500Y-81437500D02*
X163450000Y-81200000D01*
X165500000Y-81437500D02*
X163687500Y-81437500D01*
X166000000Y-86062500D02*
X163437500Y-83500000D01*
X166000000Y-86400000D02*
X166000000Y-86062500D01*
D28*
X166368750Y-103131250D02*
X159637500Y-96400000D01*
X166868750Y-103631250D02*
X166368750Y-103131250D01*
X177437500Y-114200000D02*
X166868750Y-103631250D01*
X165900000Y-86500000D02*
X166000000Y-86400000D01*
X164500000Y-86500000D02*
X165900000Y-86500000D01*
D27*
X192500000Y-85250000D02*
X192500000Y-78000000D01*
D28*
X183487500Y-83950000D02*
X184000000Y-83437500D01*
X181950000Y-83950000D02*
X183487500Y-83950000D01*
X186500000Y-85562500D02*
X187500000Y-86562500D01*
X186500000Y-84400000D02*
X186500000Y-85562500D01*
X191118737Y-87118737D02*
X192500000Y-88500000D01*
X187500000Y-86562500D02*
X188056237Y-87118737D01*
D27*
X192500000Y-115500000D02*
X192500000Y-88500000D01*
D28*
X188056237Y-87118737D02*
X191118737Y-87118737D01*
D27*
X192500000Y-88500000D02*
X192500000Y-85250000D01*
D28*
X184962500Y-84400000D02*
X185200000Y-84400000D01*
X184000000Y-83437500D02*
X184962500Y-84400000D01*
X185200000Y-84400000D02*
X186500000Y-84400000D01*
D25*
X164000000Y-111500000D02*
X164000000Y-108787500D01*
X151500000Y-106787500D02*
X151212500Y-106500000D01*
X151500000Y-111500000D02*
X151500000Y-106787500D01*
X157500000Y-106175000D02*
X157475000Y-106150000D01*
X164000000Y-108787500D02*
X162000000Y-106787500D01*
X151212500Y-104500000D02*
X151212500Y-102500000D01*
X151212500Y-106500000D02*
X151212500Y-104500000D01*
X157500000Y-111000000D02*
X157500000Y-106175000D01*
X169062500Y-112177500D02*
X169050000Y-112190000D01*
X169062500Y-110000000D02*
X169062500Y-112177500D01*
X169050000Y-113050000D02*
X167500000Y-114600000D01*
X169050000Y-112190000D02*
X169050000Y-113050000D01*
X167500000Y-114600000D02*
X167500000Y-115500000D01*
X167000000Y-116000000D02*
X165787500Y-116000000D01*
X167500000Y-115500000D02*
X167000000Y-116000000D01*
X164690000Y-112190000D02*
X164000000Y-111500000D01*
X169050000Y-112190000D02*
X164690000Y-112190000D01*
D28*
X180050000Y-84075000D02*
X181975000Y-86000000D01*
X180050000Y-83950000D02*
X180050000Y-84075000D01*
X185062500Y-86000000D02*
X187500000Y-88437500D01*
X181975000Y-86000000D02*
X185062500Y-86000000D01*
X183520000Y-96700000D02*
X181220000Y-96700000D01*
X187500000Y-92720000D02*
X183520000Y-96700000D01*
X187500000Y-88437500D02*
X187500000Y-92720000D01*
D26*
X161550000Y-83487500D02*
X161562500Y-83500000D01*
X161550000Y-81200000D02*
X161550000Y-83487500D01*
D28*
X161562500Y-83500000D02*
X161562500Y-86812500D01*
X161562500Y-86812500D02*
X161750000Y-87000000D01*
X162300002Y-87550002D02*
X161750000Y-87000000D01*
X166500000Y-87550002D02*
X162300002Y-87550002D01*
X183520000Y-95000000D02*
X185241812Y-93278188D01*
X185241812Y-93278188D02*
X185241812Y-87558186D01*
X185241812Y-87558186D02*
X184841813Y-87158187D01*
X181220000Y-95000000D02*
X183520000Y-95000000D01*
X183270000Y-93300000D02*
X184000000Y-92570000D01*
X151500000Y-88000000D02*
X151500000Y-90150000D01*
X151500000Y-90150000D02*
X152550000Y-91200000D01*
X184000000Y-92570000D02*
X184000000Y-88500000D01*
X181220000Y-93300000D02*
X183270000Y-93300000D01*
X184000000Y-88500000D02*
X184000000Y-88000000D01*
D26*
X152562500Y-91212500D02*
X152550000Y-91200000D01*
X152562500Y-93250000D02*
X152562500Y-91212500D01*
D28*
X161050015Y-88550015D02*
X165934315Y-88550015D01*
X165934315Y-88550015D02*
X166500000Y-88550015D01*
X160500000Y-88000000D02*
X161050015Y-88550015D01*
X161300000Y-93300000D02*
X166480000Y-93300000D01*
X166480000Y-93300000D02*
X168780000Y-93300000D01*
X158774998Y-85924998D02*
X158774998Y-90774998D01*
X157350000Y-84500000D02*
X158774998Y-85924998D01*
X158774998Y-90774998D02*
X161300000Y-93300000D01*
X165250000Y-95000000D02*
X168780000Y-95000000D01*
X166350000Y-74500000D02*
X166350000Y-76650000D01*
X166350000Y-76650000D02*
X167650000Y-77950000D01*
X167650000Y-77950000D02*
X167650000Y-89600000D01*
X167650000Y-89600000D02*
X167350021Y-89899979D01*
X165850021Y-89899979D02*
X165250000Y-90500000D01*
X167350021Y-89899979D02*
X165850021Y-89899979D01*
X168580000Y-96500000D02*
X168780000Y-96700000D01*
X164000000Y-96500000D02*
X168580000Y-96500000D01*
X163774998Y-91475002D02*
X167118515Y-91475002D01*
X163750000Y-91500000D02*
X163774998Y-91475002D01*
X179500000Y-77400000D02*
X179650000Y-77250000D01*
X167118515Y-91475002D02*
X168600010Y-89993507D01*
X179500000Y-80000000D02*
X179500000Y-77400000D01*
X172000000Y-80000000D02*
X179500000Y-80000000D01*
X168600010Y-89993507D02*
X168600010Y-83399990D01*
X168600010Y-83399990D02*
X172000000Y-80000000D01*
D26*
X152650000Y-84500000D02*
X152650000Y-86150000D01*
X152650000Y-86150000D02*
X154500000Y-88000000D01*
X154450000Y-88050000D02*
X154450000Y-88800000D01*
X154500000Y-88000000D02*
X154450000Y-88050000D01*
X156618626Y-88000000D02*
X154500000Y-88000000D01*
X157650010Y-89031384D02*
X156618626Y-88000000D01*
X157650010Y-92949990D02*
X157650010Y-89031384D01*
X157000000Y-93600000D02*
X157650010Y-92949990D01*
X163450000Y-77900000D02*
X162550000Y-77000000D01*
X163450000Y-78800000D02*
X163450000Y-77900000D01*
X162550000Y-75400000D02*
X161650000Y-74500000D01*
X162550000Y-77000000D02*
X162550000Y-75400000D01*
X163450000Y-78800000D02*
X163625010Y-78624990D01*
X166650010Y-81968616D02*
X166000000Y-82618626D01*
X163625010Y-78624990D02*
X166243616Y-78624990D01*
X166650010Y-80906384D02*
X166650010Y-81968616D01*
X166243626Y-80500000D02*
X166650010Y-80906384D01*
X166650010Y-79031384D02*
X166650010Y-80093616D01*
X166650010Y-80093616D02*
X166243626Y-80500000D01*
X166243616Y-78624990D02*
X166650010Y-79031384D01*
X166000000Y-83100000D02*
X166000000Y-82618626D01*
D28*
X184350000Y-79450000D02*
X186500000Y-81600000D01*
X184350000Y-77250000D02*
X184350000Y-79450000D01*
X184350000Y-79150000D02*
X181950000Y-81550000D01*
X184350000Y-77250000D02*
X184350000Y-79150000D01*
D25*
X162315000Y-114000000D02*
X159865000Y-116450000D01*
X159865000Y-116450000D02*
X159865000Y-117537500D01*
X164212500Y-114000000D02*
X162315000Y-114000000D01*
D29*
G36*
X171340226Y-82303937D02*
G01*
X171509744Y-82417205D01*
X171698102Y-82495226D01*
X171898061Y-82535000D01*
X172101939Y-82535000D01*
X172301898Y-82495226D01*
X172490256Y-82417205D01*
X172659774Y-82303937D01*
X172703711Y-82260000D01*
X179220680Y-82260000D01*
X179244463Y-82304494D01*
X179323815Y-82401185D01*
X179420506Y-82480537D01*
X179530820Y-82539502D01*
X179650518Y-82575812D01*
X179775000Y-82588072D01*
X180028906Y-82588072D01*
X180038879Y-82620947D01*
X180062368Y-82698381D01*
X180156153Y-82873842D01*
X180187409Y-82911928D01*
X179775000Y-82911928D01*
X179650518Y-82924188D01*
X179530820Y-82960498D01*
X179420506Y-83019463D01*
X179323815Y-83098815D01*
X179244463Y-83195506D01*
X179185498Y-83305820D01*
X179149188Y-83425518D01*
X179141073Y-83507918D01*
X179112368Y-83561621D01*
X179054615Y-83752007D01*
X179040000Y-83900393D01*
X179040000Y-84025392D01*
X179035114Y-84075000D01*
X179040000Y-84124607D01*
X179040000Y-84124608D01*
X179054615Y-84272994D01*
X179112368Y-84463380D01*
X179206153Y-84638840D01*
X179215378Y-84650081D01*
X179244463Y-84704494D01*
X179323815Y-84801185D01*
X179420506Y-84880537D01*
X179434848Y-84888203D01*
X181225739Y-86679094D01*
X181257367Y-86717633D01*
X181411160Y-86843847D01*
X181586620Y-86937632D01*
X181777006Y-86995385D01*
X181925392Y-87010000D01*
X181925394Y-87010000D01*
X181974999Y-87014886D01*
X182024604Y-87010000D01*
X183685485Y-87010000D01*
X183509744Y-87082795D01*
X183340226Y-87196063D01*
X183196063Y-87340226D01*
X183082795Y-87509744D01*
X183004774Y-87698102D01*
X182965000Y-87898061D01*
X182965000Y-88101939D01*
X182990000Y-88227623D01*
X182990000Y-88549607D01*
X182990001Y-88549617D01*
X182990000Y-92103163D01*
X182894482Y-92074188D01*
X182770000Y-92061928D01*
X179670000Y-92061928D01*
X179545518Y-92074188D01*
X179425820Y-92110498D01*
X179315506Y-92169463D01*
X179218815Y-92248815D01*
X179139463Y-92345506D01*
X179080498Y-92455820D01*
X179044188Y-92575518D01*
X179031928Y-92700000D01*
X179031928Y-93900000D01*
X179044188Y-94024482D01*
X179080498Y-94144180D01*
X179083609Y-94150000D01*
X179080498Y-94155820D01*
X179044188Y-94275518D01*
X179031928Y-94400000D01*
X179031928Y-95600000D01*
X179044188Y-95724482D01*
X179080498Y-95844180D01*
X179083609Y-95850000D01*
X179080498Y-95855820D01*
X179044188Y-95975518D01*
X179031928Y-96100000D01*
X179031928Y-97300000D01*
X179044188Y-97424482D01*
X179080498Y-97544180D01*
X179139463Y-97654494D01*
X179218815Y-97751185D01*
X179315506Y-97830537D01*
X179425820Y-97889502D01*
X179545518Y-97925812D01*
X179670000Y-97938072D01*
X182770000Y-97938072D01*
X182894482Y-97925812D01*
X183014180Y-97889502D01*
X183124494Y-97830537D01*
X183221185Y-97751185D01*
X183254985Y-97710000D01*
X183470392Y-97710000D01*
X183520000Y-97714886D01*
X183717994Y-97695385D01*
X183852793Y-97654494D01*
X183908380Y-97637632D01*
X184083840Y-97543847D01*
X184237633Y-97417633D01*
X184269261Y-97379094D01*
X188179100Y-93469256D01*
X188217633Y-93437633D01*
X188343847Y-93283840D01*
X188437632Y-93108380D01*
X188483134Y-92958380D01*
X188495385Y-92917995D01*
X188514886Y-92720000D01*
X188510000Y-92670392D01*
X188510000Y-89362069D01*
X188579792Y-89304792D01*
X188689458Y-89171164D01*
X188770947Y-89018709D01*
X188821128Y-88853285D01*
X188838072Y-88681250D01*
X188838072Y-88193750D01*
X188831669Y-88128737D01*
X190700382Y-88128737D01*
X191365001Y-88793357D01*
X191365000Y-115029868D01*
X189529869Y-116865000D01*
X178537817Y-116865000D01*
X178465000Y-116805241D01*
X178465000Y-115851607D01*
X178495947Y-115793709D01*
X178540128Y-115648061D01*
X178715000Y-115648061D01*
X178715000Y-115851939D01*
X178754774Y-116051898D01*
X178832795Y-116240256D01*
X178946063Y-116409774D01*
X179090226Y-116553937D01*
X179259744Y-116667205D01*
X179448102Y-116745226D01*
X179648061Y-116785000D01*
X179851939Y-116785000D01*
X180051898Y-116745226D01*
X180240256Y-116667205D01*
X180409774Y-116553937D01*
X180553937Y-116409774D01*
X180667205Y-116240256D01*
X180745226Y-116051898D01*
X180785000Y-115851939D01*
X180785000Y-115648061D01*
X180965000Y-115648061D01*
X180965000Y-115851939D01*
X181004774Y-116051898D01*
X181082795Y-116240256D01*
X181196063Y-116409774D01*
X181340226Y-116553937D01*
X181509744Y-116667205D01*
X181698102Y-116745226D01*
X181898061Y-116785000D01*
X182101939Y-116785000D01*
X182301898Y-116745226D01*
X182490256Y-116667205D01*
X182659774Y-116553937D01*
X182803937Y-116409774D01*
X182917205Y-116240256D01*
X182995226Y-116051898D01*
X183035000Y-115851939D01*
X183035000Y-115648061D01*
X182995226Y-115448102D01*
X182917205Y-115259744D01*
X182803937Y-115090226D01*
X182659774Y-114946063D01*
X182490256Y-114832795D01*
X182301898Y-114754774D01*
X182101939Y-114715000D01*
X181898061Y-114715000D01*
X181698102Y-114754774D01*
X181509744Y-114832795D01*
X181340226Y-114946063D01*
X181196063Y-115090226D01*
X181082795Y-115259744D01*
X181004774Y-115448102D01*
X180965000Y-115648061D01*
X180785000Y-115648061D01*
X180745226Y-115448102D01*
X180667205Y-115259744D01*
X180553937Y-115090226D01*
X180409774Y-114946063D01*
X180240256Y-114832795D01*
X180051898Y-114754774D01*
X179851939Y-114715000D01*
X179648061Y-114715000D01*
X179448102Y-114754774D01*
X179259744Y-114832795D01*
X179090226Y-114946063D01*
X178946063Y-115090226D01*
X178832795Y-115259744D01*
X178754774Y-115448102D01*
X178715000Y-115648061D01*
X178540128Y-115648061D01*
X178546128Y-115628285D01*
X178563072Y-115456250D01*
X178563072Y-114543750D01*
X178546128Y-114371715D01*
X178495947Y-114206291D01*
X178443306Y-114107806D01*
X178432885Y-114002005D01*
X178375132Y-113811620D01*
X178374556Y-113810542D01*
X178281347Y-113636160D01*
X178155133Y-113482367D01*
X178116600Y-113450744D01*
X167547849Y-102881994D01*
X167243882Y-102578027D01*
X167172687Y-102471476D01*
X167028524Y-102327313D01*
X166921973Y-102256118D01*
X160386761Y-95720906D01*
X160355133Y-95682367D01*
X160201340Y-95556153D01*
X160025880Y-95462368D01*
X159835494Y-95404615D01*
X159687108Y-95390000D01*
X159637500Y-95385114D01*
X159587892Y-95390000D01*
X158127000Y-95390000D01*
X158127000Y-94417569D01*
X158139502Y-94394180D01*
X158175812Y-94274482D01*
X158188072Y-94150000D01*
X158188072Y-93663507D01*
X158245060Y-93606519D01*
X158278827Y-93578807D01*
X158337240Y-93507632D01*
X158389420Y-93444050D01*
X158389421Y-93444049D01*
X158471599Y-93290303D01*
X158519062Y-93133841D01*
X158522205Y-93123481D01*
X158529442Y-93050000D01*
X158535010Y-92993467D01*
X158535010Y-92993459D01*
X158539291Y-92949990D01*
X158535010Y-92906521D01*
X158535010Y-91963365D01*
X160550739Y-93979094D01*
X160582367Y-94017633D01*
X160736160Y-94143847D01*
X160911620Y-94237632D01*
X161102006Y-94295385D01*
X161250392Y-94310000D01*
X161250394Y-94310000D01*
X161299999Y-94314886D01*
X161349604Y-94310000D01*
X164476289Y-94310000D01*
X164446063Y-94340226D01*
X164332795Y-94509744D01*
X164254774Y-94698102D01*
X164215000Y-94898061D01*
X164215000Y-95101939D01*
X164254774Y-95301898D01*
X164332689Y-95490000D01*
X164227623Y-95490000D01*
X164101939Y-95465000D01*
X163898061Y-95465000D01*
X163698102Y-95504774D01*
X163509744Y-95582795D01*
X163340226Y-95696063D01*
X163196063Y-95840226D01*
X163082795Y-96009744D01*
X163004774Y-96198102D01*
X162965000Y-96398061D01*
X162965000Y-96601939D01*
X163004774Y-96801898D01*
X163082795Y-96990256D01*
X163196063Y-97159774D01*
X163340226Y-97303937D01*
X163509744Y-97417205D01*
X163698102Y-97495226D01*
X163898061Y-97535000D01*
X164101939Y-97535000D01*
X164227623Y-97510000D01*
X166630130Y-97510000D01*
X166640498Y-97544180D01*
X166699463Y-97654494D01*
X166778815Y-97751185D01*
X166875506Y-97830537D01*
X166985820Y-97889502D01*
X167105518Y-97925812D01*
X167230000Y-97938072D01*
X170330000Y-97938072D01*
X170454482Y-97925812D01*
X170574180Y-97889502D01*
X170684494Y-97830537D01*
X170781185Y-97751185D01*
X170860537Y-97654494D01*
X170919502Y-97544180D01*
X170955812Y-97424482D01*
X170968072Y-97300000D01*
X170968072Y-96100000D01*
X170955812Y-95975518D01*
X170919502Y-95855820D01*
X170916391Y-95850000D01*
X170919502Y-95844180D01*
X170955812Y-95724482D01*
X170968072Y-95600000D01*
X170968072Y-94400000D01*
X170955812Y-94275518D01*
X170919502Y-94155820D01*
X170916391Y-94150000D01*
X170919502Y-94144180D01*
X170955812Y-94024482D01*
X170968072Y-93900000D01*
X170968072Y-92700000D01*
X170955812Y-92575518D01*
X170919502Y-92455820D01*
X170860537Y-92345506D01*
X170781185Y-92248815D01*
X170684494Y-92169463D01*
X170574180Y-92110498D01*
X170454482Y-92074188D01*
X170330000Y-92061928D01*
X167959944Y-92061928D01*
X169279104Y-90742768D01*
X169317643Y-90711140D01*
X169443857Y-90557347D01*
X169537642Y-90381887D01*
X169595395Y-90191501D01*
X169610010Y-90043115D01*
X169610010Y-90043113D01*
X169614896Y-89993508D01*
X169610010Y-89943903D01*
X169610010Y-83818345D01*
X171232322Y-82196033D01*
X171340226Y-82303937D01*
X171340226Y-82303937D01*
G37*
X171340226Y-82303937D02*
X171509744Y-82417205D01*
X171698102Y-82495226D01*
X171898061Y-82535000D01*
X172101939Y-82535000D01*
X172301898Y-82495226D01*
X172490256Y-82417205D01*
X172659774Y-82303937D01*
X172703711Y-82260000D01*
X179220680Y-82260000D01*
X179244463Y-82304494D01*
X179323815Y-82401185D01*
X179420506Y-82480537D01*
X179530820Y-82539502D01*
X179650518Y-82575812D01*
X179775000Y-82588072D01*
X180028906Y-82588072D01*
X180038879Y-82620947D01*
X180062368Y-82698381D01*
X180156153Y-82873842D01*
X180187409Y-82911928D01*
X179775000Y-82911928D01*
X179650518Y-82924188D01*
X179530820Y-82960498D01*
X179420506Y-83019463D01*
X179323815Y-83098815D01*
X179244463Y-83195506D01*
X179185498Y-83305820D01*
X179149188Y-83425518D01*
X179141073Y-83507918D01*
X179112368Y-83561621D01*
X179054615Y-83752007D01*
X179040000Y-83900393D01*
X179040000Y-84025392D01*
X179035114Y-84075000D01*
X179040000Y-84124607D01*
X179040000Y-84124608D01*
X179054615Y-84272994D01*
X179112368Y-84463380D01*
X179206153Y-84638840D01*
X179215378Y-84650081D01*
X179244463Y-84704494D01*
X179323815Y-84801185D01*
X179420506Y-84880537D01*
X179434848Y-84888203D01*
X181225739Y-86679094D01*
X181257367Y-86717633D01*
X181411160Y-86843847D01*
X181586620Y-86937632D01*
X181777006Y-86995385D01*
X181925392Y-87010000D01*
X181925394Y-87010000D01*
X181974999Y-87014886D01*
X182024604Y-87010000D01*
X183685485Y-87010000D01*
X183509744Y-87082795D01*
X183340226Y-87196063D01*
X183196063Y-87340226D01*
X183082795Y-87509744D01*
X183004774Y-87698102D01*
X182965000Y-87898061D01*
X182965000Y-88101939D01*
X182990000Y-88227623D01*
X182990000Y-88549607D01*
X182990001Y-88549617D01*
X182990000Y-92103163D01*
X182894482Y-92074188D01*
X182770000Y-92061928D01*
X179670000Y-92061928D01*
X179545518Y-92074188D01*
X179425820Y-92110498D01*
X179315506Y-92169463D01*
X179218815Y-92248815D01*
X179139463Y-92345506D01*
X179080498Y-92455820D01*
X179044188Y-92575518D01*
X179031928Y-92700000D01*
X179031928Y-93900000D01*
X179044188Y-94024482D01*
X179080498Y-94144180D01*
X179083609Y-94150000D01*
X179080498Y-94155820D01*
X179044188Y-94275518D01*
X179031928Y-94400000D01*
X179031928Y-95600000D01*
X179044188Y-95724482D01*
X179080498Y-95844180D01*
X179083609Y-95850000D01*
X179080498Y-95855820D01*
X179044188Y-95975518D01*
X179031928Y-96100000D01*
X179031928Y-97300000D01*
X179044188Y-97424482D01*
X179080498Y-97544180D01*
X179139463Y-97654494D01*
X179218815Y-97751185D01*
X179315506Y-97830537D01*
X179425820Y-97889502D01*
X179545518Y-97925812D01*
X179670000Y-97938072D01*
X182770000Y-97938072D01*
X182894482Y-97925812D01*
X183014180Y-97889502D01*
X183124494Y-97830537D01*
X183221185Y-97751185D01*
X183254985Y-97710000D01*
X183470392Y-97710000D01*
X183520000Y-97714886D01*
X183717994Y-97695385D01*
X183852793Y-97654494D01*
X183908380Y-97637632D01*
X184083840Y-97543847D01*
X184237633Y-97417633D01*
X184269261Y-97379094D01*
X188179100Y-93469256D01*
X188217633Y-93437633D01*
X188343847Y-93283840D01*
X188437632Y-93108380D01*
X188483134Y-92958380D01*
X188495385Y-92917995D01*
X188514886Y-92720000D01*
X188510000Y-92670392D01*
X188510000Y-89362069D01*
X188579792Y-89304792D01*
X188689458Y-89171164D01*
X188770947Y-89018709D01*
X188821128Y-88853285D01*
X188838072Y-88681250D01*
X188838072Y-88193750D01*
X188831669Y-88128737D01*
X190700382Y-88128737D01*
X191365001Y-88793357D01*
X191365000Y-115029868D01*
X189529869Y-116865000D01*
X178537817Y-116865000D01*
X178465000Y-116805241D01*
X178465000Y-115851607D01*
X178495947Y-115793709D01*
X178540128Y-115648061D01*
X178715000Y-115648061D01*
X178715000Y-115851939D01*
X178754774Y-116051898D01*
X178832795Y-116240256D01*
X178946063Y-116409774D01*
X179090226Y-116553937D01*
X179259744Y-116667205D01*
X179448102Y-116745226D01*
X179648061Y-116785000D01*
X179851939Y-116785000D01*
X180051898Y-116745226D01*
X180240256Y-116667205D01*
X180409774Y-116553937D01*
X180553937Y-116409774D01*
X180667205Y-116240256D01*
X180745226Y-116051898D01*
X180785000Y-115851939D01*
X180785000Y-115648061D01*
X180965000Y-115648061D01*
X180965000Y-115851939D01*
X181004774Y-116051898D01*
X181082795Y-116240256D01*
X181196063Y-116409774D01*
X181340226Y-116553937D01*
X181509744Y-116667205D01*
X181698102Y-116745226D01*
X181898061Y-116785000D01*
X182101939Y-116785000D01*
X182301898Y-116745226D01*
X182490256Y-116667205D01*
X182659774Y-116553937D01*
X182803937Y-116409774D01*
X182917205Y-116240256D01*
X182995226Y-116051898D01*
X183035000Y-115851939D01*
X183035000Y-115648061D01*
X182995226Y-115448102D01*
X182917205Y-115259744D01*
X182803937Y-115090226D01*
X182659774Y-114946063D01*
X182490256Y-114832795D01*
X182301898Y-114754774D01*
X182101939Y-114715000D01*
X181898061Y-114715000D01*
X181698102Y-114754774D01*
X181509744Y-114832795D01*
X181340226Y-114946063D01*
X181196063Y-115090226D01*
X181082795Y-115259744D01*
X181004774Y-115448102D01*
X180965000Y-115648061D01*
X180785000Y-115648061D01*
X180745226Y-115448102D01*
X180667205Y-115259744D01*
X180553937Y-115090226D01*
X180409774Y-114946063D01*
X180240256Y-114832795D01*
X180051898Y-114754774D01*
X179851939Y-114715000D01*
X179648061Y-114715000D01*
X179448102Y-114754774D01*
X179259744Y-114832795D01*
X179090226Y-114946063D01*
X178946063Y-115090226D01*
X178832795Y-115259744D01*
X178754774Y-115448102D01*
X178715000Y-115648061D01*
X178540128Y-115648061D01*
X178546128Y-115628285D01*
X178563072Y-115456250D01*
X178563072Y-114543750D01*
X178546128Y-114371715D01*
X178495947Y-114206291D01*
X178443306Y-114107806D01*
X178432885Y-114002005D01*
X178375132Y-113811620D01*
X178374556Y-113810542D01*
X178281347Y-113636160D01*
X178155133Y-113482367D01*
X178116600Y-113450744D01*
X167547849Y-102881994D01*
X167243882Y-102578027D01*
X167172687Y-102471476D01*
X167028524Y-102327313D01*
X166921973Y-102256118D01*
X160386761Y-95720906D01*
X160355133Y-95682367D01*
X160201340Y-95556153D01*
X160025880Y-95462368D01*
X159835494Y-95404615D01*
X159687108Y-95390000D01*
X159637500Y-95385114D01*
X159587892Y-95390000D01*
X158127000Y-95390000D01*
X158127000Y-94417569D01*
X158139502Y-94394180D01*
X158175812Y-94274482D01*
X158188072Y-94150000D01*
X158188072Y-93663507D01*
X158245060Y-93606519D01*
X158278827Y-93578807D01*
X158337240Y-93507632D01*
X158389420Y-93444050D01*
X158389421Y-93444049D01*
X158471599Y-93290303D01*
X158519062Y-93133841D01*
X158522205Y-93123481D01*
X158529442Y-93050000D01*
X158535010Y-92993467D01*
X158535010Y-92993459D01*
X158539291Y-92949990D01*
X158535010Y-92906521D01*
X158535010Y-91963365D01*
X160550739Y-93979094D01*
X160582367Y-94017633D01*
X160736160Y-94143847D01*
X160911620Y-94237632D01*
X161102006Y-94295385D01*
X161250392Y-94310000D01*
X161250394Y-94310000D01*
X161299999Y-94314886D01*
X161349604Y-94310000D01*
X164476289Y-94310000D01*
X164446063Y-94340226D01*
X164332795Y-94509744D01*
X164254774Y-94698102D01*
X164215000Y-94898061D01*
X164215000Y-95101939D01*
X164254774Y-95301898D01*
X164332689Y-95490000D01*
X164227623Y-95490000D01*
X164101939Y-95465000D01*
X163898061Y-95465000D01*
X163698102Y-95504774D01*
X163509744Y-95582795D01*
X163340226Y-95696063D01*
X163196063Y-95840226D01*
X163082795Y-96009744D01*
X163004774Y-96198102D01*
X162965000Y-96398061D01*
X162965000Y-96601939D01*
X163004774Y-96801898D01*
X163082795Y-96990256D01*
X163196063Y-97159774D01*
X163340226Y-97303937D01*
X163509744Y-97417205D01*
X163698102Y-97495226D01*
X163898061Y-97535000D01*
X164101939Y-97535000D01*
X164227623Y-97510000D01*
X166630130Y-97510000D01*
X166640498Y-97544180D01*
X166699463Y-97654494D01*
X166778815Y-97751185D01*
X166875506Y-97830537D01*
X166985820Y-97889502D01*
X167105518Y-97925812D01*
X167230000Y-97938072D01*
X170330000Y-97938072D01*
X170454482Y-97925812D01*
X170574180Y-97889502D01*
X170684494Y-97830537D01*
X170781185Y-97751185D01*
X170860537Y-97654494D01*
X170919502Y-97544180D01*
X170955812Y-97424482D01*
X170968072Y-97300000D01*
X170968072Y-96100000D01*
X170955812Y-95975518D01*
X170919502Y-95855820D01*
X170916391Y-95850000D01*
X170919502Y-95844180D01*
X170955812Y-95724482D01*
X170968072Y-95600000D01*
X170968072Y-94400000D01*
X170955812Y-94275518D01*
X170919502Y-94155820D01*
X170916391Y-94150000D01*
X170919502Y-94144180D01*
X170955812Y-94024482D01*
X170968072Y-93900000D01*
X170968072Y-92700000D01*
X170955812Y-92575518D01*
X170919502Y-92455820D01*
X170860537Y-92345506D01*
X170781185Y-92248815D01*
X170684494Y-92169463D01*
X170574180Y-92110498D01*
X170454482Y-92074188D01*
X170330000Y-92061928D01*
X167959944Y-92061928D01*
X169279104Y-90742768D01*
X169317643Y-90711140D01*
X169443857Y-90557347D01*
X169537642Y-90381887D01*
X169595395Y-90191501D01*
X169610010Y-90043115D01*
X169610010Y-90043113D01*
X169614896Y-89993508D01*
X169610010Y-89943903D01*
X169610010Y-83818345D01*
X171232322Y-82196033D01*
X171340226Y-82303937D01*
M02*
