G04 #@! TF.GenerationSoftware,KiCad,Pcbnew,5.1.4-e60b266~84~ubuntu18.04.1*
G04 #@! TF.CreationDate,2019-10-26T14:37:49-06:00*
G04 #@! TF.ProjectId,cob_single,636f625f-7369-46e6-976c-652e6b696361,rev?*
G04 #@! TF.SameCoordinates,Original*
G04 #@! TF.FileFunction,Legend,Top*
G04 #@! TF.FilePolarity,Positive*
%FSLAX46Y46*%
G04 Gerber Fmt 4.6, Leading zero omitted, Abs format (unit mm)*
G04 Created by KiCad (PCBNEW 5.1.4-e60b266~84~ubuntu18.04.1) date 2019-10-26 14:37:49*
%MOMM*%
%LPD*%
G04 APERTURE LIST*
%ADD10C,0.150000*%
%ADD11C,0.300000*%
%ADD12C,0.120000*%
G04 APERTURE END LIST*
D10*
X174476190Y-111452380D02*
X174476190Y-110452380D01*
X174952380Y-111452380D02*
X174952380Y-110452380D01*
X175523809Y-111452380D01*
X175523809Y-110452380D01*
X174000000Y-77452380D02*
X174190476Y-77452380D01*
X174285714Y-77500000D01*
X174380952Y-77595238D01*
X174428571Y-77785714D01*
X174428571Y-78119047D01*
X174380952Y-78309523D01*
X174285714Y-78404761D01*
X174190476Y-78452380D01*
X174000000Y-78452380D01*
X173904761Y-78404761D01*
X173809523Y-78309523D01*
X173761904Y-78119047D01*
X173761904Y-77785714D01*
X173809523Y-77595238D01*
X173904761Y-77500000D01*
X174000000Y-77452380D01*
X174857142Y-77452380D02*
X174857142Y-78261904D01*
X174904761Y-78357142D01*
X174952380Y-78404761D01*
X175047619Y-78452380D01*
X175238095Y-78452380D01*
X175333333Y-78404761D01*
X175380952Y-78357142D01*
X175428571Y-78261904D01*
X175428571Y-77452380D01*
X175761904Y-77452380D02*
X176333333Y-77452380D01*
X176047619Y-78452380D02*
X176047619Y-77452380D01*
X177166666Y-74452380D02*
X177500000Y-75452380D01*
X177833333Y-74452380D01*
X174904761Y-74452380D02*
X175095238Y-74452380D01*
X175190476Y-74500000D01*
X175285714Y-74595238D01*
X175333333Y-74785714D01*
X175333333Y-75119047D01*
X175285714Y-75309523D01*
X175190476Y-75404761D01*
X175095238Y-75452380D01*
X174904761Y-75452380D01*
X174809523Y-75404761D01*
X174714285Y-75309523D01*
X174666666Y-75119047D01*
X174666666Y-74785714D01*
X174714285Y-74595238D01*
X174809523Y-74500000D01*
X174904761Y-74452380D01*
X172761904Y-74500000D02*
X172666666Y-74452380D01*
X172523809Y-74452380D01*
X172380952Y-74500000D01*
X172285714Y-74595238D01*
X172238095Y-74690476D01*
X172190476Y-74880952D01*
X172190476Y-75023809D01*
X172238095Y-75214285D01*
X172285714Y-75309523D01*
X172380952Y-75404761D01*
X172523809Y-75452380D01*
X172619047Y-75452380D01*
X172761904Y-75404761D01*
X172809523Y-75357142D01*
X172809523Y-75023809D01*
X172619047Y-75023809D01*
X174000000Y-115952380D02*
X174000000Y-114952380D01*
X179666666Y-117452380D02*
X180000000Y-118452380D01*
X180333333Y-117452380D01*
X172761904Y-115000000D02*
X172666666Y-114952380D01*
X172523809Y-114952380D01*
X172380952Y-115000000D01*
X172285714Y-115095238D01*
X172238095Y-115190476D01*
X172190476Y-115380952D01*
X172190476Y-115523809D01*
X172238095Y-115714285D01*
X172285714Y-115809523D01*
X172380952Y-115904761D01*
X172523809Y-115952380D01*
X172619047Y-115952380D01*
X172761904Y-115904761D01*
X172809523Y-115857142D01*
X172809523Y-115523809D01*
X172619047Y-115523809D01*
D11*
X181642857Y-108607142D02*
X181500000Y-108678571D01*
X181214285Y-108678571D01*
X181071428Y-108607142D01*
X181000000Y-108535714D01*
X180928571Y-108392857D01*
X180928571Y-107964285D01*
X181000000Y-107821428D01*
X181071428Y-107750000D01*
X181214285Y-107678571D01*
X181500000Y-107678571D01*
X181642857Y-107750000D01*
X182500000Y-108678571D02*
X182357142Y-108607142D01*
X182285714Y-108535714D01*
X182214285Y-108392857D01*
X182214285Y-107964285D01*
X182285714Y-107821428D01*
X182357142Y-107750000D01*
X182500000Y-107678571D01*
X182714285Y-107678571D01*
X182857142Y-107750000D01*
X182928571Y-107821428D01*
X183000000Y-107964285D01*
X183000000Y-108392857D01*
X182928571Y-108535714D01*
X182857142Y-108607142D01*
X182714285Y-108678571D01*
X182500000Y-108678571D01*
X183642857Y-108678571D02*
X183642857Y-107178571D01*
X183642857Y-107750000D02*
X183785714Y-107678571D01*
X184071428Y-107678571D01*
X184214285Y-107750000D01*
X184285714Y-107821428D01*
X184357142Y-107964285D01*
X184357142Y-108392857D01*
X184285714Y-108535714D01*
X184214285Y-108607142D01*
X184071428Y-108678571D01*
X183785714Y-108678571D01*
X183642857Y-108607142D01*
X184642857Y-108821428D02*
X185785714Y-108821428D01*
X186071428Y-108607142D02*
X186214285Y-108678571D01*
X186500000Y-108678571D01*
X186642857Y-108607142D01*
X186714285Y-108464285D01*
X186714285Y-108392857D01*
X186642857Y-108250000D01*
X186500000Y-108178571D01*
X186285714Y-108178571D01*
X186142857Y-108107142D01*
X186071428Y-107964285D01*
X186071428Y-107892857D01*
X186142857Y-107750000D01*
X186285714Y-107678571D01*
X186500000Y-107678571D01*
X186642857Y-107750000D01*
X187357142Y-108678571D02*
X187357142Y-107678571D01*
X187357142Y-107178571D02*
X187285714Y-107250000D01*
X187357142Y-107321428D01*
X187428571Y-107250000D01*
X187357142Y-107178571D01*
X187357142Y-107321428D01*
X188071428Y-107678571D02*
X188071428Y-108678571D01*
X188071428Y-107821428D02*
X188142857Y-107750000D01*
X188285714Y-107678571D01*
X188500000Y-107678571D01*
X188642857Y-107750000D01*
X188714285Y-107892857D01*
X188714285Y-108678571D01*
X190071428Y-107678571D02*
X190071428Y-108892857D01*
X190000000Y-109035714D01*
X189928571Y-109107142D01*
X189785714Y-109178571D01*
X189571428Y-109178571D01*
X189428571Y-109107142D01*
X190071428Y-108607142D02*
X189928571Y-108678571D01*
X189642857Y-108678571D01*
X189500000Y-108607142D01*
X189428571Y-108535714D01*
X189357142Y-108392857D01*
X189357142Y-107964285D01*
X189428571Y-107821428D01*
X189500000Y-107750000D01*
X189642857Y-107678571D01*
X189928571Y-107678571D01*
X190071428Y-107750000D01*
X191000000Y-108678571D02*
X190857142Y-108607142D01*
X190785714Y-108464285D01*
X190785714Y-107178571D01*
X192142857Y-108607142D02*
X192000000Y-108678571D01*
X191714285Y-108678571D01*
X191571428Y-108607142D01*
X191500000Y-108464285D01*
X191500000Y-107892857D01*
X191571428Y-107750000D01*
X191714285Y-107678571D01*
X192000000Y-107678571D01*
X192142857Y-107750000D01*
X192214285Y-107892857D01*
X192214285Y-108035714D01*
X191500000Y-108178571D01*
X193857142Y-107678571D02*
X194214285Y-108678571D01*
X194571428Y-107678571D01*
X195928571Y-108678571D02*
X195071428Y-108678571D01*
X195500000Y-108678571D02*
X195500000Y-107178571D01*
X195357142Y-107392857D01*
X195214285Y-107535714D01*
X195071428Y-107607142D01*
X196571428Y-108535714D02*
X196642857Y-108607142D01*
X196571428Y-108678571D01*
X196500000Y-108607142D01*
X196571428Y-108535714D01*
X196571428Y-108678571D01*
X197571428Y-107178571D02*
X197714285Y-107178571D01*
X197857142Y-107250000D01*
X197928571Y-107321428D01*
X198000000Y-107464285D01*
X198071428Y-107750000D01*
X198071428Y-108107142D01*
X198000000Y-108392857D01*
X197928571Y-108535714D01*
X197857142Y-108607142D01*
X197714285Y-108678571D01*
X197571428Y-108678571D01*
X197428571Y-108607142D01*
X197357142Y-108535714D01*
X197285714Y-108392857D01*
X197214285Y-108107142D01*
X197214285Y-107750000D01*
X197285714Y-107464285D01*
X197357142Y-107321428D01*
X197428571Y-107250000D01*
X197571428Y-107178571D01*
D12*
X178400000Y-90700000D02*
X171600000Y-90700000D01*
X169900000Y-97550000D02*
X171600000Y-97550000D01*
X171600000Y-97550000D02*
X171600000Y-99300000D01*
X178400000Y-97550000D02*
X178400000Y-99300000D01*
X178400000Y-99300000D02*
X171600000Y-99300000D01*
X180100000Y-97550000D02*
X178400000Y-97550000D01*
X179700000Y-92450000D02*
X180100000Y-92450000D01*
X178400000Y-90700000D02*
X178400000Y-92450000D01*
X178400000Y-92450000D02*
X179700000Y-92450000D01*
X171600000Y-90700000D02*
X171600000Y-92450000D01*
X167250000Y-92450000D02*
X171600000Y-92450000D01*
X184290000Y-97741422D02*
X184290000Y-98258578D01*
X185710000Y-97741422D02*
X185710000Y-98258578D01*
X164837221Y-118510000D02*
X165162779Y-118510000D01*
X164837221Y-117490000D02*
X165162779Y-117490000D01*
X161490000Y-106162779D02*
X161490000Y-105837221D01*
X162510000Y-106162779D02*
X162510000Y-105837221D01*
X176758578Y-115710000D02*
X176241422Y-115710000D01*
X176758578Y-114290000D02*
X176241422Y-114290000D01*
X171170000Y-119330000D02*
X171170000Y-118000000D01*
X172500000Y-119330000D02*
X171170000Y-119330000D01*
X173770000Y-119330000D02*
X173770000Y-116670000D01*
X173770000Y-116670000D02*
X178910000Y-116670000D01*
X173770000Y-119330000D02*
X178910000Y-119330000D01*
X178910000Y-119330000D02*
X178910000Y-116670000D01*
X171090000Y-70670000D02*
X171090000Y-73330000D01*
X176230000Y-70670000D02*
X171090000Y-70670000D01*
X176230000Y-73330000D02*
X171090000Y-73330000D01*
X176230000Y-70670000D02*
X176230000Y-73330000D01*
X177500000Y-70670000D02*
X178830000Y-70670000D01*
X178830000Y-70670000D02*
X178830000Y-72000000D01*
X162580000Y-75740000D02*
X161650000Y-75740000D01*
X159420000Y-75740000D02*
X160350000Y-75740000D01*
X159420000Y-75740000D02*
X159420000Y-77900000D01*
X162580000Y-75740000D02*
X162580000Y-77200000D01*
X156580000Y-83240000D02*
X156580000Y-84700000D01*
X153420000Y-83240000D02*
X153420000Y-85400000D01*
X153420000Y-83240000D02*
X154350000Y-83240000D01*
X156580000Y-83240000D02*
X155650000Y-83240000D01*
X156580000Y-92240000D02*
X155650000Y-92240000D01*
X153420000Y-92240000D02*
X154350000Y-92240000D01*
X153420000Y-92240000D02*
X153420000Y-94400000D01*
X156580000Y-92240000D02*
X156580000Y-93700000D01*
X163510000Y-79837221D02*
X163510000Y-80162779D01*
X162490000Y-79837221D02*
X162490000Y-80162779D01*
X158710000Y-76261252D02*
X158710000Y-75738748D01*
X157290000Y-76261252D02*
X157290000Y-75738748D01*
X164837221Y-113490000D02*
X165162779Y-113490000D01*
X164837221Y-114510000D02*
X165162779Y-114510000D01*
X156490000Y-87337221D02*
X156490000Y-87662779D01*
X157510000Y-87337221D02*
X157510000Y-87662779D01*
X165162779Y-116510000D02*
X164837221Y-116510000D01*
X165162779Y-115490000D02*
X164837221Y-115490000D01*
X151290000Y-83761252D02*
X151290000Y-83238748D01*
X152710000Y-83761252D02*
X152710000Y-83238748D01*
X157510000Y-96337221D02*
X157510000Y-96662779D01*
X156490000Y-96337221D02*
X156490000Y-96662779D01*
X151290000Y-92761252D02*
X151290000Y-92238748D01*
X152710000Y-92761252D02*
X152710000Y-92238748D01*
X151837221Y-105990000D02*
X152162779Y-105990000D01*
X151837221Y-107010000D02*
X152162779Y-107010000D01*
X151837221Y-105010000D02*
X152162779Y-105010000D01*
X151837221Y-103990000D02*
X152162779Y-103990000D01*
X151837221Y-101990000D02*
X152162779Y-101990000D01*
X151837221Y-103010000D02*
X152162779Y-103010000D01*
D10*
X161000000Y-82100000D02*
G75*
G03X161000000Y-82100000I-100000J0D01*
G01*
X160400000Y-79900000D02*
X160400000Y-79800000D01*
X158600000Y-79900000D02*
X158600000Y-79800000D01*
X160400000Y-82000000D02*
X158600000Y-82000000D01*
X160400000Y-78600000D02*
X158600000Y-78600000D01*
X154400000Y-86100000D02*
X152600000Y-86100000D01*
X154400000Y-89500000D02*
X152600000Y-89500000D01*
X152600000Y-87400000D02*
X152600000Y-87300000D01*
X154400000Y-87400000D02*
X154400000Y-87300000D01*
X155000000Y-89600000D02*
G75*
G03X155000000Y-89600000I-100000J0D01*
G01*
X154400000Y-95100000D02*
X152600000Y-95100000D01*
X154400000Y-98500000D02*
X152600000Y-98500000D01*
X152600000Y-96400000D02*
X152600000Y-96300000D01*
X154400000Y-96400000D02*
X154400000Y-96300000D01*
X155000000Y-98600000D02*
G75*
G03X155000000Y-98600000I-100000J0D01*
G01*
D12*
X157910000Y-115000000D02*
X157910000Y-116880000D01*
X157910000Y-115000000D02*
X157910000Y-113120000D01*
X163090000Y-115000000D02*
X163090000Y-116880000D01*
X163090000Y-115000000D02*
X163090000Y-111475000D01*
D10*
X158125000Y-102375000D02*
X158000000Y-102375000D01*
X158125000Y-105625000D02*
X157900000Y-105625000D01*
X154875000Y-105625000D02*
X155100000Y-105625000D01*
X154875000Y-102375000D02*
X155100000Y-102375000D01*
X158125000Y-102375000D02*
X158125000Y-105625000D01*
X154875000Y-102375000D02*
X154875000Y-105625000D01*
X158000000Y-102375000D02*
X158000000Y-101300000D01*
M02*
