G04 #@! TF.GenerationSoftware,KiCad,Pcbnew,5.1.4-e60b266~84~ubuntu18.04.1*
G04 #@! TF.CreationDate,2019-10-26T14:37:49-06:00*
G04 #@! TF.ProjectId,cob_single,636f625f-7369-46e6-976c-652e6b696361,rev?*
G04 #@! TF.SameCoordinates,Original*
G04 #@! TF.FileFunction,Legend,Bot*
G04 #@! TF.FilePolarity,Positive*
%FSLAX46Y46*%
G04 Gerber Fmt 4.6, Leading zero omitted, Abs format (unit mm)*
G04 Created by KiCad (PCBNEW 5.1.4-e60b266~84~ubuntu18.04.1) date 2019-10-26 14:37:49*
%MOMM*%
%LPD*%
G04 APERTURE LIST*
%ADD10C,0.150000*%
%ADD11C,0.120000*%
G04 APERTURE END LIST*
D10*
X172238095Y-115000000D02*
X172333333Y-114952380D01*
X172476190Y-114952380D01*
X172619047Y-115000000D01*
X172714285Y-115095238D01*
X172761904Y-115190476D01*
X172809523Y-115380952D01*
X172809523Y-115523809D01*
X172761904Y-115714285D01*
X172714285Y-115809523D01*
X172619047Y-115904761D01*
X172476190Y-115952380D01*
X172380952Y-115952380D01*
X172238095Y-115904761D01*
X172190476Y-115857142D01*
X172190476Y-115523809D01*
X172380952Y-115523809D01*
X175000000Y-115452380D02*
X175000000Y-114452380D01*
X177833333Y-114452380D02*
X177500000Y-115452380D01*
X177166666Y-114452380D01*
D11*
X175000000Y-77500000D02*
X176000000Y-78500000D01*
X174000000Y-78500000D02*
X175000000Y-77500000D01*
X175000000Y-82500000D02*
X175000000Y-77500000D01*
X176000000Y-108500000D02*
X175000000Y-107500000D01*
X174000000Y-108500000D02*
X175000000Y-107500000D01*
X175000000Y-112500000D02*
X175000000Y-107500000D01*
D10*
X177833333Y-74452380D02*
X177500000Y-75452380D01*
X177166666Y-74452380D01*
X175095238Y-74452380D02*
X174904761Y-74452380D01*
X174809523Y-74500000D01*
X174714285Y-74595238D01*
X174666666Y-74785714D01*
X174666666Y-75119047D01*
X174714285Y-75309523D01*
X174809523Y-75404761D01*
X174904761Y-75452380D01*
X175095238Y-75452380D01*
X175190476Y-75404761D01*
X175285714Y-75309523D01*
X175333333Y-75119047D01*
X175333333Y-74785714D01*
X175285714Y-74595238D01*
X175190476Y-74500000D01*
X175095238Y-74452380D01*
X172238095Y-74500000D02*
X172333333Y-74452380D01*
X172476190Y-74452380D01*
X172619047Y-74500000D01*
X172714285Y-74595238D01*
X172761904Y-74690476D01*
X172809523Y-74880952D01*
X172809523Y-75023809D01*
X172761904Y-75214285D01*
X172714285Y-75309523D01*
X172619047Y-75404761D01*
X172476190Y-75452380D01*
X172380952Y-75452380D01*
X172238095Y-75404761D01*
X172190476Y-75357142D01*
X172190476Y-75023809D01*
X172380952Y-75023809D01*
M02*
