G04 #@! TF.GenerationSoftware,KiCad,Pcbnew,5.1.4-e60b266~84~ubuntu18.04.1*
G04 #@! TF.CreationDate,2019-10-26T14:37:49-06:00*
G04 #@! TF.ProjectId,cob_single,636f625f-7369-46e6-976c-652e6b696361,rev?*
G04 #@! TF.SameCoordinates,Original*
G04 #@! TF.FileFunction,Copper,L2,Bot*
G04 #@! TF.FilePolarity,Positive*
%FSLAX46Y46*%
G04 Gerber Fmt 4.6, Leading zero omitted, Abs format (unit mm)*
G04 Created by KiCad (PCBNEW 5.1.4-e60b266~84~ubuntu18.04.1) date 2019-10-26 14:37:49*
%MOMM*%
%LPD*%
G04 APERTURE LIST*
%ADD10O,1.700000X1.700000*%
%ADD11R,1.700000X1.700000*%
%ADD12C,2.700000*%
%ADD13C,0.800000*%
%ADD14C,0.250000*%
%ADD15C,0.500000*%
%ADD16C,1.000000*%
%ADD17C,0.254000*%
G04 APERTURE END LIST*
D10*
X177580000Y-118000000D03*
X175040000Y-118000000D03*
D11*
X172500000Y-118000000D03*
X177500000Y-72000000D03*
D10*
X174960000Y-72000000D03*
X172420000Y-72000000D03*
D12*
X196500000Y-116500000D03*
X153500000Y-116500000D03*
X153500000Y-73500000D03*
X196500000Y-73500000D03*
D13*
X167000000Y-118000000D03*
X157500000Y-118000000D03*
X171500000Y-106000000D03*
X163500000Y-105500000D03*
X155500000Y-103000000D03*
X160725010Y-94292885D03*
X159274990Y-85119135D03*
X183500000Y-99000000D03*
X175000000Y-91000000D03*
X177000000Y-91500000D03*
X178500000Y-92500000D03*
X173000000Y-91500000D03*
X171500000Y-92500000D03*
X171500000Y-94500000D03*
X171500000Y-96500000D03*
X172500000Y-98000000D03*
X175000000Y-99000000D03*
X177500000Y-98000000D03*
X178500000Y-96500000D03*
X178500000Y-94500000D03*
X168000000Y-99000000D03*
X180000000Y-99000000D03*
X178500000Y-99000000D03*
X170000000Y-99000000D03*
X169000000Y-100500000D03*
X171500000Y-100500000D03*
X174500000Y-100500000D03*
X177000000Y-100500000D03*
X179000000Y-100500000D03*
X168000000Y-102000000D03*
X170500000Y-102000000D03*
X173500000Y-102000000D03*
X176000000Y-102000000D03*
X178500000Y-102000000D03*
X169000000Y-103500000D03*
X171500000Y-103500000D03*
X174000000Y-103500000D03*
X176500000Y-103500000D03*
X179000000Y-103500000D03*
X171000000Y-91000000D03*
X178500000Y-91000000D03*
X180000000Y-89500000D03*
X177500000Y-89500000D03*
X174500000Y-89500000D03*
X171500000Y-89500000D03*
X179000000Y-88500000D03*
X176500000Y-88500000D03*
X173500000Y-88500000D03*
X171000000Y-88500000D03*
X168500000Y-87000000D03*
X171000000Y-87000000D03*
X173500000Y-87000000D03*
X176000000Y-87000000D03*
X178500000Y-87000000D03*
X179500000Y-86000000D03*
X177000000Y-86000000D03*
X174500000Y-86000000D03*
X172500000Y-85500000D03*
X169500000Y-86000000D03*
X167000000Y-116000000D03*
X151500000Y-111500000D03*
X164000000Y-111500000D03*
X157500000Y-111000000D03*
X168780000Y-90720000D03*
X168780000Y-89030000D03*
X168000000Y-117000000D03*
X158500000Y-114500000D03*
X150625000Y-113000000D03*
X160500000Y-101000000D03*
X160000000Y-87500000D03*
X163500000Y-82000000D03*
X160500000Y-83000000D03*
X159274990Y-100500000D03*
X159274990Y-88500000D03*
X157000000Y-100500000D03*
X158046863Y-94697420D03*
X159500000Y-110500000D03*
X156175000Y-110225010D03*
X153000000Y-110000000D03*
X160500000Y-108500000D03*
X154000000Y-108000000D03*
X156000000Y-100000000D03*
X162500000Y-109500000D03*
X154500000Y-109500000D03*
D14*
X172500000Y-118000000D02*
X167375000Y-118000000D01*
X167375000Y-118000000D02*
X167000000Y-118000000D01*
X167000000Y-118000000D02*
X157500000Y-118000000D01*
X171500000Y-106000000D02*
X171000000Y-105500000D01*
X171000000Y-105500000D02*
X163500000Y-105500000D01*
X163500000Y-105500000D02*
X158000000Y-105500000D01*
X158000000Y-105500000D02*
X155500000Y-103000000D01*
D15*
X160725010Y-98861422D02*
X160725010Y-94858570D01*
X167863588Y-106000000D02*
X160725010Y-98861422D01*
X160725010Y-94858570D02*
X160725010Y-94292885D01*
X171500000Y-106000000D02*
X167863588Y-106000000D01*
X160725010Y-94292885D02*
X161125009Y-93892886D01*
X159674989Y-85519134D02*
X159274990Y-85119135D01*
X161125009Y-86969154D02*
X159674989Y-85519134D01*
X161125009Y-93892886D02*
X161125009Y-86969154D01*
D16*
X183500000Y-99000000D02*
X183200010Y-99000000D01*
D14*
X177580000Y-118000000D02*
X175580000Y-116000000D01*
X170500000Y-116000000D02*
X166000000Y-111500000D01*
X171500000Y-116000000D02*
X170500000Y-116000000D01*
X175580000Y-116000000D02*
X171500000Y-116000000D01*
X171500000Y-116000000D02*
X167000000Y-116000000D01*
X166000000Y-111500000D02*
X164000000Y-111500000D01*
X164000000Y-111500000D02*
X161500000Y-111500000D01*
X161500000Y-111500000D02*
X159500000Y-111500000D01*
X159500000Y-111500000D02*
X158500000Y-111500000D01*
X158500000Y-111500000D02*
X158000000Y-111500000D01*
X158000000Y-111500000D02*
X151500000Y-111500000D01*
X158000000Y-111500000D02*
X157500000Y-111000000D01*
X168175001Y-116824999D02*
X168000000Y-117000000D01*
X175040000Y-118000000D02*
X173864999Y-116824999D01*
X173864999Y-116824999D02*
X168175001Y-116824999D01*
X158500000Y-114500000D02*
X157000000Y-113000000D01*
X157000000Y-113000000D02*
X150625000Y-113000000D01*
X160000000Y-100500000D02*
X160000000Y-87500000D01*
X160500000Y-101000000D02*
X160000000Y-100500000D01*
X161500000Y-82000000D02*
X163500000Y-82000000D01*
X160500000Y-83000000D02*
X161500000Y-82000000D01*
X159274990Y-100500000D02*
X159274990Y-99934315D01*
X159274990Y-99934315D02*
X159274990Y-88500000D01*
X158046863Y-99453137D02*
X158046863Y-95263105D01*
X157000000Y-100500000D02*
X158046863Y-99453137D01*
X158046863Y-95263105D02*
X158046863Y-94697420D01*
X158659325Y-110225010D02*
X156740685Y-110225010D01*
X156740685Y-110225010D02*
X156175000Y-110225010D01*
X159500000Y-110500000D02*
X158934315Y-110500000D01*
X158934315Y-110500000D02*
X158659325Y-110225010D01*
X156175000Y-110225010D02*
X153225010Y-110225010D01*
X153225010Y-110225010D02*
X153000000Y-110000000D01*
X160500000Y-108500000D02*
X160000000Y-108000000D01*
X160000000Y-108000000D02*
X154000000Y-108000000D01*
X154000000Y-108000000D02*
X154000000Y-102000000D01*
X154000000Y-102000000D02*
X156000000Y-100000000D01*
X162500000Y-109500000D02*
X154500000Y-109500000D01*
D17*
G36*
X158000000Y-112263676D02*
G01*
X158037325Y-112260000D01*
X163296289Y-112260000D01*
X163340226Y-112303937D01*
X163509744Y-112417205D01*
X163698102Y-112495226D01*
X163898061Y-112535000D01*
X164101939Y-112535000D01*
X164301898Y-112495226D01*
X164490256Y-112417205D01*
X164659774Y-112303937D01*
X164703711Y-112260000D01*
X165685199Y-112260000D01*
X168665198Y-115240000D01*
X167703711Y-115240000D01*
X167659774Y-115196063D01*
X167490256Y-115082795D01*
X167301898Y-115004774D01*
X167101939Y-114965000D01*
X166898061Y-114965000D01*
X166698102Y-115004774D01*
X166509744Y-115082795D01*
X166340226Y-115196063D01*
X166196063Y-115340226D01*
X166082795Y-115509744D01*
X166004774Y-115698102D01*
X165965000Y-115898061D01*
X165965000Y-116101939D01*
X166004774Y-116301898D01*
X166082795Y-116490256D01*
X166196063Y-116659774D01*
X166340226Y-116803937D01*
X166509744Y-116917205D01*
X166698102Y-116995226D01*
X166898061Y-117035000D01*
X166965000Y-117035000D01*
X166965000Y-117101939D01*
X167004774Y-117301898D01*
X167082795Y-117490256D01*
X167196063Y-117659774D01*
X167340226Y-117803937D01*
X167509744Y-117917205D01*
X167698102Y-117995226D01*
X167898061Y-118035000D01*
X168101939Y-118035000D01*
X168301898Y-117995226D01*
X168490256Y-117917205D01*
X168659774Y-117803937D01*
X168803937Y-117659774D01*
X168853900Y-117584999D01*
X171014296Y-117584999D01*
X171015000Y-117714250D01*
X171173750Y-117873000D01*
X172373000Y-117873000D01*
X172373000Y-117853000D01*
X172627000Y-117853000D01*
X172627000Y-117873000D01*
X172647000Y-117873000D01*
X172647000Y-118127000D01*
X172627000Y-118127000D01*
X172627000Y-118147000D01*
X172373000Y-118147000D01*
X172373000Y-118127000D01*
X171173750Y-118127000D01*
X171015000Y-118285750D01*
X171011928Y-118850000D01*
X171024188Y-118974482D01*
X171060498Y-119094180D01*
X171119463Y-119204494D01*
X171198815Y-119301185D01*
X171246111Y-119340000D01*
X150660000Y-119340000D01*
X150660000Y-116304495D01*
X151515000Y-116304495D01*
X151515000Y-116695505D01*
X151591282Y-117079003D01*
X151740915Y-117440250D01*
X151958149Y-117765364D01*
X152234636Y-118041851D01*
X152559750Y-118259085D01*
X152920997Y-118408718D01*
X153304495Y-118485000D01*
X153695505Y-118485000D01*
X154079003Y-118408718D01*
X154440250Y-118259085D01*
X154765364Y-118041851D01*
X155041851Y-117765364D01*
X155259085Y-117440250D01*
X155408718Y-117079003D01*
X155485000Y-116695505D01*
X155485000Y-116304495D01*
X155408718Y-115920997D01*
X155259085Y-115559750D01*
X155041851Y-115234636D01*
X154765364Y-114958149D01*
X154440250Y-114740915D01*
X154079003Y-114591282D01*
X153695505Y-114515000D01*
X153304495Y-114515000D01*
X152920997Y-114591282D01*
X152559750Y-114740915D01*
X152234636Y-114958149D01*
X151958149Y-115234636D01*
X151740915Y-115559750D01*
X151591282Y-115920997D01*
X151515000Y-116304495D01*
X150660000Y-116304495D01*
X150660000Y-114035000D01*
X150726939Y-114035000D01*
X150926898Y-113995226D01*
X151115256Y-113917205D01*
X151284774Y-113803937D01*
X151328711Y-113760000D01*
X156685199Y-113760000D01*
X157465000Y-114539802D01*
X157465000Y-114601939D01*
X157504774Y-114801898D01*
X157582795Y-114990256D01*
X157696063Y-115159774D01*
X157840226Y-115303937D01*
X158009744Y-115417205D01*
X158198102Y-115495226D01*
X158398061Y-115535000D01*
X158601939Y-115535000D01*
X158801898Y-115495226D01*
X158990256Y-115417205D01*
X159159774Y-115303937D01*
X159303937Y-115159774D01*
X159417205Y-114990256D01*
X159495226Y-114801898D01*
X159535000Y-114601939D01*
X159535000Y-114398061D01*
X159495226Y-114198102D01*
X159417205Y-114009744D01*
X159303937Y-113840226D01*
X159159774Y-113696063D01*
X158990256Y-113582795D01*
X158801898Y-113504774D01*
X158601939Y-113465000D01*
X158539802Y-113465000D01*
X157563804Y-112489003D01*
X157540001Y-112459999D01*
X157424276Y-112365026D01*
X157292247Y-112294454D01*
X157178665Y-112260000D01*
X157962675Y-112260000D01*
X158000000Y-112263676D01*
X158000000Y-112263676D01*
G37*
X158000000Y-112263676D02*
X158037325Y-112260000D01*
X163296289Y-112260000D01*
X163340226Y-112303937D01*
X163509744Y-112417205D01*
X163698102Y-112495226D01*
X163898061Y-112535000D01*
X164101939Y-112535000D01*
X164301898Y-112495226D01*
X164490256Y-112417205D01*
X164659774Y-112303937D01*
X164703711Y-112260000D01*
X165685199Y-112260000D01*
X168665198Y-115240000D01*
X167703711Y-115240000D01*
X167659774Y-115196063D01*
X167490256Y-115082795D01*
X167301898Y-115004774D01*
X167101939Y-114965000D01*
X166898061Y-114965000D01*
X166698102Y-115004774D01*
X166509744Y-115082795D01*
X166340226Y-115196063D01*
X166196063Y-115340226D01*
X166082795Y-115509744D01*
X166004774Y-115698102D01*
X165965000Y-115898061D01*
X165965000Y-116101939D01*
X166004774Y-116301898D01*
X166082795Y-116490256D01*
X166196063Y-116659774D01*
X166340226Y-116803937D01*
X166509744Y-116917205D01*
X166698102Y-116995226D01*
X166898061Y-117035000D01*
X166965000Y-117035000D01*
X166965000Y-117101939D01*
X167004774Y-117301898D01*
X167082795Y-117490256D01*
X167196063Y-117659774D01*
X167340226Y-117803937D01*
X167509744Y-117917205D01*
X167698102Y-117995226D01*
X167898061Y-118035000D01*
X168101939Y-118035000D01*
X168301898Y-117995226D01*
X168490256Y-117917205D01*
X168659774Y-117803937D01*
X168803937Y-117659774D01*
X168853900Y-117584999D01*
X171014296Y-117584999D01*
X171015000Y-117714250D01*
X171173750Y-117873000D01*
X172373000Y-117873000D01*
X172373000Y-117853000D01*
X172627000Y-117853000D01*
X172627000Y-117873000D01*
X172647000Y-117873000D01*
X172647000Y-118127000D01*
X172627000Y-118127000D01*
X172627000Y-118147000D01*
X172373000Y-118147000D01*
X172373000Y-118127000D01*
X171173750Y-118127000D01*
X171015000Y-118285750D01*
X171011928Y-118850000D01*
X171024188Y-118974482D01*
X171060498Y-119094180D01*
X171119463Y-119204494D01*
X171198815Y-119301185D01*
X171246111Y-119340000D01*
X150660000Y-119340000D01*
X150660000Y-116304495D01*
X151515000Y-116304495D01*
X151515000Y-116695505D01*
X151591282Y-117079003D01*
X151740915Y-117440250D01*
X151958149Y-117765364D01*
X152234636Y-118041851D01*
X152559750Y-118259085D01*
X152920997Y-118408718D01*
X153304495Y-118485000D01*
X153695505Y-118485000D01*
X154079003Y-118408718D01*
X154440250Y-118259085D01*
X154765364Y-118041851D01*
X155041851Y-117765364D01*
X155259085Y-117440250D01*
X155408718Y-117079003D01*
X155485000Y-116695505D01*
X155485000Y-116304495D01*
X155408718Y-115920997D01*
X155259085Y-115559750D01*
X155041851Y-115234636D01*
X154765364Y-114958149D01*
X154440250Y-114740915D01*
X154079003Y-114591282D01*
X153695505Y-114515000D01*
X153304495Y-114515000D01*
X152920997Y-114591282D01*
X152559750Y-114740915D01*
X152234636Y-114958149D01*
X151958149Y-115234636D01*
X151740915Y-115559750D01*
X151591282Y-115920997D01*
X151515000Y-116304495D01*
X150660000Y-116304495D01*
X150660000Y-114035000D01*
X150726939Y-114035000D01*
X150926898Y-113995226D01*
X151115256Y-113917205D01*
X151284774Y-113803937D01*
X151328711Y-113760000D01*
X156685199Y-113760000D01*
X157465000Y-114539802D01*
X157465000Y-114601939D01*
X157504774Y-114801898D01*
X157582795Y-114990256D01*
X157696063Y-115159774D01*
X157840226Y-115303937D01*
X158009744Y-115417205D01*
X158198102Y-115495226D01*
X158398061Y-115535000D01*
X158601939Y-115535000D01*
X158801898Y-115495226D01*
X158990256Y-115417205D01*
X159159774Y-115303937D01*
X159303937Y-115159774D01*
X159417205Y-114990256D01*
X159495226Y-114801898D01*
X159535000Y-114601939D01*
X159535000Y-114398061D01*
X159495226Y-114198102D01*
X159417205Y-114009744D01*
X159303937Y-113840226D01*
X159159774Y-113696063D01*
X158990256Y-113582795D01*
X158801898Y-113504774D01*
X158601939Y-113465000D01*
X158539802Y-113465000D01*
X157563804Y-112489003D01*
X157540001Y-112459999D01*
X157424276Y-112365026D01*
X157292247Y-112294454D01*
X157178665Y-112260000D01*
X157962675Y-112260000D01*
X158000000Y-112263676D01*
G36*
X171653080Y-70728359D02*
G01*
X171419731Y-70902412D01*
X171224822Y-71118645D01*
X171075843Y-71368748D01*
X170978519Y-71643109D01*
X171099186Y-71873000D01*
X172293000Y-71873000D01*
X172293000Y-71853000D01*
X172547000Y-71853000D01*
X172547000Y-71873000D01*
X172567000Y-71873000D01*
X172567000Y-72127000D01*
X172547000Y-72127000D01*
X172547000Y-73320155D01*
X172776890Y-73441476D01*
X172924099Y-73396825D01*
X173186920Y-73271641D01*
X173420269Y-73097588D01*
X173615178Y-72881355D01*
X173684799Y-72764477D01*
X173719294Y-72829014D01*
X173904866Y-73055134D01*
X174130986Y-73240706D01*
X174388966Y-73378599D01*
X174668889Y-73463513D01*
X174887050Y-73485000D01*
X175032950Y-73485000D01*
X175251111Y-73463513D01*
X175531034Y-73378599D01*
X175789014Y-73240706D01*
X176015134Y-73055134D01*
X176039607Y-73025313D01*
X176060498Y-73094180D01*
X176119463Y-73204494D01*
X176198815Y-73301185D01*
X176295506Y-73380537D01*
X176405820Y-73439502D01*
X176525518Y-73475812D01*
X176650000Y-73488072D01*
X178350000Y-73488072D01*
X178474482Y-73475812D01*
X178594180Y-73439502D01*
X178704494Y-73380537D01*
X178797151Y-73304495D01*
X194515000Y-73304495D01*
X194515000Y-73695505D01*
X194591282Y-74079003D01*
X194740915Y-74440250D01*
X194958149Y-74765364D01*
X195234636Y-75041851D01*
X195559750Y-75259085D01*
X195920997Y-75408718D01*
X196304495Y-75485000D01*
X196695505Y-75485000D01*
X197079003Y-75408718D01*
X197440250Y-75259085D01*
X197765364Y-75041851D01*
X198041851Y-74765364D01*
X198259085Y-74440250D01*
X198408718Y-74079003D01*
X198485000Y-73695505D01*
X198485000Y-73304495D01*
X198408718Y-72920997D01*
X198259085Y-72559750D01*
X198041851Y-72234636D01*
X197765364Y-71958149D01*
X197440250Y-71740915D01*
X197079003Y-71591282D01*
X196695505Y-71515000D01*
X196304495Y-71515000D01*
X195920997Y-71591282D01*
X195559750Y-71740915D01*
X195234636Y-71958149D01*
X194958149Y-72234636D01*
X194740915Y-72559750D01*
X194591282Y-72920997D01*
X194515000Y-73304495D01*
X178797151Y-73304495D01*
X178801185Y-73301185D01*
X178880537Y-73204494D01*
X178939502Y-73094180D01*
X178975812Y-72974482D01*
X178988072Y-72850000D01*
X178988072Y-71150000D01*
X178975812Y-71025518D01*
X178939502Y-70905820D01*
X178880537Y-70795506D01*
X178801185Y-70698815D01*
X178753889Y-70660000D01*
X199340001Y-70660000D01*
X199340000Y-119340000D01*
X178223248Y-119340000D01*
X178409014Y-119240706D01*
X178635134Y-119055134D01*
X178820706Y-118829014D01*
X178958599Y-118571034D01*
X179043513Y-118291111D01*
X179072185Y-118000000D01*
X179043513Y-117708889D01*
X178958599Y-117428966D01*
X178820706Y-117170986D01*
X178635134Y-116944866D01*
X178409014Y-116759294D01*
X178151034Y-116621401D01*
X177871111Y-116536487D01*
X177652950Y-116515000D01*
X177507050Y-116515000D01*
X177288889Y-116536487D01*
X177214005Y-116559203D01*
X176959297Y-116304495D01*
X194515000Y-116304495D01*
X194515000Y-116695505D01*
X194591282Y-117079003D01*
X194740915Y-117440250D01*
X194958149Y-117765364D01*
X195234636Y-118041851D01*
X195559750Y-118259085D01*
X195920997Y-118408718D01*
X196304495Y-118485000D01*
X196695505Y-118485000D01*
X197079003Y-118408718D01*
X197440250Y-118259085D01*
X197765364Y-118041851D01*
X198041851Y-117765364D01*
X198259085Y-117440250D01*
X198408718Y-117079003D01*
X198485000Y-116695505D01*
X198485000Y-116304495D01*
X198408718Y-115920997D01*
X198259085Y-115559750D01*
X198041851Y-115234636D01*
X197765364Y-114958149D01*
X197440250Y-114740915D01*
X197079003Y-114591282D01*
X196695505Y-114515000D01*
X196304495Y-114515000D01*
X195920997Y-114591282D01*
X195559750Y-114740915D01*
X195234636Y-114958149D01*
X194958149Y-115234636D01*
X194740915Y-115559750D01*
X194591282Y-115920997D01*
X194515000Y-116304495D01*
X176959297Y-116304495D01*
X176143804Y-115489003D01*
X176120001Y-115459999D01*
X176004276Y-115365026D01*
X175872247Y-115294454D01*
X175728986Y-115250997D01*
X175617333Y-115240000D01*
X175617322Y-115240000D01*
X175580000Y-115236324D01*
X175542678Y-115240000D01*
X170814802Y-115240000D01*
X166563804Y-110989003D01*
X166540001Y-110959999D01*
X166424276Y-110865026D01*
X166292247Y-110794454D01*
X166148986Y-110750997D01*
X166037333Y-110740000D01*
X166037322Y-110740000D01*
X166000000Y-110736324D01*
X165962678Y-110740000D01*
X164703711Y-110740000D01*
X164659774Y-110696063D01*
X164490256Y-110582795D01*
X164301898Y-110504774D01*
X164101939Y-110465000D01*
X163898061Y-110465000D01*
X163698102Y-110504774D01*
X163509744Y-110582795D01*
X163340226Y-110696063D01*
X163296289Y-110740000D01*
X160507538Y-110740000D01*
X160535000Y-110601939D01*
X160535000Y-110398061D01*
X160507538Y-110260000D01*
X161796289Y-110260000D01*
X161840226Y-110303937D01*
X162009744Y-110417205D01*
X162198102Y-110495226D01*
X162398061Y-110535000D01*
X162601939Y-110535000D01*
X162801898Y-110495226D01*
X162990256Y-110417205D01*
X163159774Y-110303937D01*
X163303937Y-110159774D01*
X163417205Y-109990256D01*
X163495226Y-109801898D01*
X163535000Y-109601939D01*
X163535000Y-109398061D01*
X163495226Y-109198102D01*
X163417205Y-109009744D01*
X163303937Y-108840226D01*
X163159774Y-108696063D01*
X162990256Y-108582795D01*
X162801898Y-108504774D01*
X162601939Y-108465000D01*
X162398061Y-108465000D01*
X162198102Y-108504774D01*
X162009744Y-108582795D01*
X161840226Y-108696063D01*
X161796289Y-108740000D01*
X161507538Y-108740000D01*
X161535000Y-108601939D01*
X161535000Y-108398061D01*
X161495226Y-108198102D01*
X161417205Y-108009744D01*
X161303937Y-107840226D01*
X161159774Y-107696063D01*
X160990256Y-107582795D01*
X160801898Y-107504774D01*
X160601939Y-107465000D01*
X160544105Y-107465000D01*
X160540001Y-107459999D01*
X160424276Y-107365026D01*
X160292247Y-107294454D01*
X160148986Y-107250997D01*
X160037333Y-107240000D01*
X160037322Y-107240000D01*
X160000000Y-107236324D01*
X159962678Y-107240000D01*
X154760000Y-107240000D01*
X154760000Y-102314801D01*
X156039802Y-101035000D01*
X156101939Y-101035000D01*
X156111430Y-101033112D01*
X156196063Y-101159774D01*
X156340226Y-101303937D01*
X156509744Y-101417205D01*
X156698102Y-101495226D01*
X156898061Y-101535000D01*
X157101939Y-101535000D01*
X157301898Y-101495226D01*
X157490256Y-101417205D01*
X157659774Y-101303937D01*
X157803937Y-101159774D01*
X157917205Y-100990256D01*
X157995226Y-100801898D01*
X158035000Y-100601939D01*
X158035000Y-100539801D01*
X158255695Y-100319107D01*
X158239990Y-100398061D01*
X158239990Y-100601939D01*
X158279764Y-100801898D01*
X158357785Y-100990256D01*
X158471053Y-101159774D01*
X158615216Y-101303937D01*
X158784734Y-101417205D01*
X158973092Y-101495226D01*
X159173051Y-101535000D01*
X159376929Y-101535000D01*
X159576888Y-101495226D01*
X159584115Y-101492232D01*
X159696063Y-101659774D01*
X159840226Y-101803937D01*
X160009744Y-101917205D01*
X160198102Y-101995226D01*
X160398061Y-102035000D01*
X160601939Y-102035000D01*
X160801898Y-101995226D01*
X160990256Y-101917205D01*
X161159774Y-101803937D01*
X161303937Y-101659774D01*
X161417205Y-101490256D01*
X161495226Y-101301898D01*
X161535000Y-101101939D01*
X161535000Y-100898061D01*
X161495226Y-100698102D01*
X161417205Y-100509744D01*
X161303937Y-100340226D01*
X161159774Y-100196063D01*
X160990256Y-100082795D01*
X160801898Y-100004774D01*
X160760000Y-99996440D01*
X160760000Y-88928061D01*
X167745000Y-88928061D01*
X167745000Y-89131939D01*
X167784774Y-89331898D01*
X167862795Y-89520256D01*
X167976063Y-89689774D01*
X168120226Y-89833937D01*
X168181681Y-89875000D01*
X168120226Y-89916063D01*
X167976063Y-90060226D01*
X167862795Y-90229744D01*
X167784774Y-90418102D01*
X167745000Y-90618061D01*
X167745000Y-90821939D01*
X167784774Y-91021898D01*
X167862795Y-91210256D01*
X167976063Y-91379774D01*
X168120226Y-91523937D01*
X168289744Y-91637205D01*
X168478102Y-91715226D01*
X168678061Y-91755000D01*
X168881939Y-91755000D01*
X169081898Y-91715226D01*
X169270256Y-91637205D01*
X169439774Y-91523937D01*
X169583937Y-91379774D01*
X169697205Y-91210256D01*
X169775226Y-91021898D01*
X169815000Y-90821939D01*
X169815000Y-90618061D01*
X169775226Y-90418102D01*
X169697205Y-90229744D01*
X169583937Y-90060226D01*
X169439774Y-89916063D01*
X169378319Y-89875000D01*
X169439774Y-89833937D01*
X169583937Y-89689774D01*
X169697205Y-89520256D01*
X169775226Y-89331898D01*
X169815000Y-89131939D01*
X169815000Y-88928061D01*
X169775226Y-88728102D01*
X169697205Y-88539744D01*
X169583937Y-88370226D01*
X169439774Y-88226063D01*
X169270256Y-88112795D01*
X169081898Y-88034774D01*
X168881939Y-87995000D01*
X168678061Y-87995000D01*
X168478102Y-88034774D01*
X168289744Y-88112795D01*
X168120226Y-88226063D01*
X167976063Y-88370226D01*
X167862795Y-88539744D01*
X167784774Y-88728102D01*
X167745000Y-88928061D01*
X160760000Y-88928061D01*
X160760000Y-88203711D01*
X160803937Y-88159774D01*
X160917205Y-87990256D01*
X160995226Y-87801898D01*
X161035000Y-87601939D01*
X161035000Y-87398061D01*
X160995226Y-87198102D01*
X160917205Y-87009744D01*
X160803937Y-86840226D01*
X160659774Y-86696063D01*
X160490256Y-86582795D01*
X160301898Y-86504774D01*
X160101939Y-86465000D01*
X159898061Y-86465000D01*
X159698102Y-86504774D01*
X159509744Y-86582795D01*
X159340226Y-86696063D01*
X159196063Y-86840226D01*
X159082795Y-87009744D01*
X159004774Y-87198102D01*
X158965000Y-87398061D01*
X158965000Y-87508126D01*
X158784734Y-87582795D01*
X158615216Y-87696063D01*
X158471053Y-87840226D01*
X158357785Y-88009744D01*
X158279764Y-88198102D01*
X158239990Y-88398061D01*
X158239990Y-88601939D01*
X158279764Y-88801898D01*
X158357785Y-88990256D01*
X158471053Y-89159774D01*
X158514991Y-89203712D01*
X158514991Y-93771049D01*
X158348761Y-93702194D01*
X158148802Y-93662420D01*
X157944924Y-93662420D01*
X157744965Y-93702194D01*
X157556607Y-93780215D01*
X157387089Y-93893483D01*
X157242926Y-94037646D01*
X157129658Y-94207164D01*
X157051637Y-94395522D01*
X157011863Y-94595481D01*
X157011863Y-94799359D01*
X157051637Y-94999318D01*
X157129658Y-95187676D01*
X157242926Y-95357194D01*
X157286864Y-95401132D01*
X157286863Y-99138335D01*
X156960199Y-99465000D01*
X156898061Y-99465000D01*
X156888570Y-99466888D01*
X156803937Y-99340226D01*
X156659774Y-99196063D01*
X156490256Y-99082795D01*
X156301898Y-99004774D01*
X156101939Y-98965000D01*
X155898061Y-98965000D01*
X155698102Y-99004774D01*
X155509744Y-99082795D01*
X155340226Y-99196063D01*
X155196063Y-99340226D01*
X155082795Y-99509744D01*
X155004774Y-99698102D01*
X154965000Y-99898061D01*
X154965000Y-99960198D01*
X153488998Y-101436201D01*
X153460000Y-101459999D01*
X153436202Y-101488997D01*
X153436201Y-101488998D01*
X153365026Y-101575724D01*
X153294454Y-101707754D01*
X153250998Y-101851015D01*
X153236324Y-102000000D01*
X153240001Y-102037332D01*
X153240000Y-107296289D01*
X153196063Y-107340226D01*
X153082795Y-107509744D01*
X153004774Y-107698102D01*
X152965000Y-107898061D01*
X152965000Y-108101939D01*
X153004774Y-108301898D01*
X153082795Y-108490256D01*
X153196063Y-108659774D01*
X153340226Y-108803937D01*
X153509744Y-108917205D01*
X153615388Y-108960965D01*
X153582795Y-109009744D01*
X153539035Y-109115388D01*
X153490256Y-109082795D01*
X153301898Y-109004774D01*
X153101939Y-108965000D01*
X152898061Y-108965000D01*
X152698102Y-109004774D01*
X152509744Y-109082795D01*
X152340226Y-109196063D01*
X152196063Y-109340226D01*
X152082795Y-109509744D01*
X152004774Y-109698102D01*
X151965000Y-109898061D01*
X151965000Y-110101939D01*
X152004774Y-110301898D01*
X152082795Y-110490256D01*
X152196063Y-110659774D01*
X152276289Y-110740000D01*
X152203711Y-110740000D01*
X152159774Y-110696063D01*
X151990256Y-110582795D01*
X151801898Y-110504774D01*
X151601939Y-110465000D01*
X151398061Y-110465000D01*
X151198102Y-110504774D01*
X151009744Y-110582795D01*
X150840226Y-110696063D01*
X150696063Y-110840226D01*
X150660000Y-110894198D01*
X150660000Y-82898061D01*
X159465000Y-82898061D01*
X159465000Y-83101939D01*
X159504774Y-83301898D01*
X159582795Y-83490256D01*
X159696063Y-83659774D01*
X159840226Y-83803937D01*
X160009744Y-83917205D01*
X160198102Y-83995226D01*
X160398061Y-84035000D01*
X160601939Y-84035000D01*
X160801898Y-83995226D01*
X160990256Y-83917205D01*
X161159774Y-83803937D01*
X161303937Y-83659774D01*
X161417205Y-83490256D01*
X161495226Y-83301898D01*
X161535000Y-83101939D01*
X161535000Y-83039801D01*
X161814802Y-82760000D01*
X162796289Y-82760000D01*
X162840226Y-82803937D01*
X163009744Y-82917205D01*
X163198102Y-82995226D01*
X163398061Y-83035000D01*
X163601939Y-83035000D01*
X163801898Y-82995226D01*
X163990256Y-82917205D01*
X164159774Y-82803937D01*
X164303937Y-82659774D01*
X164417205Y-82490256D01*
X164495226Y-82301898D01*
X164535000Y-82101939D01*
X164535000Y-81898061D01*
X164495226Y-81698102D01*
X164417205Y-81509744D01*
X164303937Y-81340226D01*
X164159774Y-81196063D01*
X163990256Y-81082795D01*
X163801898Y-81004774D01*
X163601939Y-80965000D01*
X163398061Y-80965000D01*
X163198102Y-81004774D01*
X163009744Y-81082795D01*
X162840226Y-81196063D01*
X162796289Y-81240000D01*
X161537333Y-81240000D01*
X161500000Y-81236323D01*
X161462667Y-81240000D01*
X161351014Y-81250997D01*
X161207753Y-81294454D01*
X161075724Y-81365026D01*
X160959999Y-81459999D01*
X160936201Y-81488997D01*
X160460199Y-81965000D01*
X160398061Y-81965000D01*
X160198102Y-82004774D01*
X160009744Y-82082795D01*
X159840226Y-82196063D01*
X159696063Y-82340226D01*
X159582795Y-82509744D01*
X159504774Y-82698102D01*
X159465000Y-82898061D01*
X150660000Y-82898061D01*
X150660000Y-73304495D01*
X151515000Y-73304495D01*
X151515000Y-73695505D01*
X151591282Y-74079003D01*
X151740915Y-74440250D01*
X151958149Y-74765364D01*
X152234636Y-75041851D01*
X152559750Y-75259085D01*
X152920997Y-75408718D01*
X153304495Y-75485000D01*
X153695505Y-75485000D01*
X154079003Y-75408718D01*
X154440250Y-75259085D01*
X154765364Y-75041851D01*
X155041851Y-74765364D01*
X155259085Y-74440250D01*
X155408718Y-74079003D01*
X155485000Y-73695505D01*
X155485000Y-73304495D01*
X155408718Y-72920997D01*
X155259085Y-72559750D01*
X155123540Y-72356891D01*
X170978519Y-72356891D01*
X171075843Y-72631252D01*
X171224822Y-72881355D01*
X171419731Y-73097588D01*
X171653080Y-73271641D01*
X171915901Y-73396825D01*
X172063110Y-73441476D01*
X172293000Y-73320155D01*
X172293000Y-72127000D01*
X171099186Y-72127000D01*
X170978519Y-72356891D01*
X155123540Y-72356891D01*
X155041851Y-72234636D01*
X154765364Y-71958149D01*
X154440250Y-71740915D01*
X154079003Y-71591282D01*
X153695505Y-71515000D01*
X153304495Y-71515000D01*
X152920997Y-71591282D01*
X152559750Y-71740915D01*
X152234636Y-71958149D01*
X151958149Y-72234636D01*
X151740915Y-72559750D01*
X151591282Y-72920997D01*
X151515000Y-73304495D01*
X150660000Y-73304495D01*
X150660000Y-70660000D01*
X171796598Y-70660000D01*
X171653080Y-70728359D01*
X171653080Y-70728359D01*
G37*
X171653080Y-70728359D02*
X171419731Y-70902412D01*
X171224822Y-71118645D01*
X171075843Y-71368748D01*
X170978519Y-71643109D01*
X171099186Y-71873000D01*
X172293000Y-71873000D01*
X172293000Y-71853000D01*
X172547000Y-71853000D01*
X172547000Y-71873000D01*
X172567000Y-71873000D01*
X172567000Y-72127000D01*
X172547000Y-72127000D01*
X172547000Y-73320155D01*
X172776890Y-73441476D01*
X172924099Y-73396825D01*
X173186920Y-73271641D01*
X173420269Y-73097588D01*
X173615178Y-72881355D01*
X173684799Y-72764477D01*
X173719294Y-72829014D01*
X173904866Y-73055134D01*
X174130986Y-73240706D01*
X174388966Y-73378599D01*
X174668889Y-73463513D01*
X174887050Y-73485000D01*
X175032950Y-73485000D01*
X175251111Y-73463513D01*
X175531034Y-73378599D01*
X175789014Y-73240706D01*
X176015134Y-73055134D01*
X176039607Y-73025313D01*
X176060498Y-73094180D01*
X176119463Y-73204494D01*
X176198815Y-73301185D01*
X176295506Y-73380537D01*
X176405820Y-73439502D01*
X176525518Y-73475812D01*
X176650000Y-73488072D01*
X178350000Y-73488072D01*
X178474482Y-73475812D01*
X178594180Y-73439502D01*
X178704494Y-73380537D01*
X178797151Y-73304495D01*
X194515000Y-73304495D01*
X194515000Y-73695505D01*
X194591282Y-74079003D01*
X194740915Y-74440250D01*
X194958149Y-74765364D01*
X195234636Y-75041851D01*
X195559750Y-75259085D01*
X195920997Y-75408718D01*
X196304495Y-75485000D01*
X196695505Y-75485000D01*
X197079003Y-75408718D01*
X197440250Y-75259085D01*
X197765364Y-75041851D01*
X198041851Y-74765364D01*
X198259085Y-74440250D01*
X198408718Y-74079003D01*
X198485000Y-73695505D01*
X198485000Y-73304495D01*
X198408718Y-72920997D01*
X198259085Y-72559750D01*
X198041851Y-72234636D01*
X197765364Y-71958149D01*
X197440250Y-71740915D01*
X197079003Y-71591282D01*
X196695505Y-71515000D01*
X196304495Y-71515000D01*
X195920997Y-71591282D01*
X195559750Y-71740915D01*
X195234636Y-71958149D01*
X194958149Y-72234636D01*
X194740915Y-72559750D01*
X194591282Y-72920997D01*
X194515000Y-73304495D01*
X178797151Y-73304495D01*
X178801185Y-73301185D01*
X178880537Y-73204494D01*
X178939502Y-73094180D01*
X178975812Y-72974482D01*
X178988072Y-72850000D01*
X178988072Y-71150000D01*
X178975812Y-71025518D01*
X178939502Y-70905820D01*
X178880537Y-70795506D01*
X178801185Y-70698815D01*
X178753889Y-70660000D01*
X199340001Y-70660000D01*
X199340000Y-119340000D01*
X178223248Y-119340000D01*
X178409014Y-119240706D01*
X178635134Y-119055134D01*
X178820706Y-118829014D01*
X178958599Y-118571034D01*
X179043513Y-118291111D01*
X179072185Y-118000000D01*
X179043513Y-117708889D01*
X178958599Y-117428966D01*
X178820706Y-117170986D01*
X178635134Y-116944866D01*
X178409014Y-116759294D01*
X178151034Y-116621401D01*
X177871111Y-116536487D01*
X177652950Y-116515000D01*
X177507050Y-116515000D01*
X177288889Y-116536487D01*
X177214005Y-116559203D01*
X176959297Y-116304495D01*
X194515000Y-116304495D01*
X194515000Y-116695505D01*
X194591282Y-117079003D01*
X194740915Y-117440250D01*
X194958149Y-117765364D01*
X195234636Y-118041851D01*
X195559750Y-118259085D01*
X195920997Y-118408718D01*
X196304495Y-118485000D01*
X196695505Y-118485000D01*
X197079003Y-118408718D01*
X197440250Y-118259085D01*
X197765364Y-118041851D01*
X198041851Y-117765364D01*
X198259085Y-117440250D01*
X198408718Y-117079003D01*
X198485000Y-116695505D01*
X198485000Y-116304495D01*
X198408718Y-115920997D01*
X198259085Y-115559750D01*
X198041851Y-115234636D01*
X197765364Y-114958149D01*
X197440250Y-114740915D01*
X197079003Y-114591282D01*
X196695505Y-114515000D01*
X196304495Y-114515000D01*
X195920997Y-114591282D01*
X195559750Y-114740915D01*
X195234636Y-114958149D01*
X194958149Y-115234636D01*
X194740915Y-115559750D01*
X194591282Y-115920997D01*
X194515000Y-116304495D01*
X176959297Y-116304495D01*
X176143804Y-115489003D01*
X176120001Y-115459999D01*
X176004276Y-115365026D01*
X175872247Y-115294454D01*
X175728986Y-115250997D01*
X175617333Y-115240000D01*
X175617322Y-115240000D01*
X175580000Y-115236324D01*
X175542678Y-115240000D01*
X170814802Y-115240000D01*
X166563804Y-110989003D01*
X166540001Y-110959999D01*
X166424276Y-110865026D01*
X166292247Y-110794454D01*
X166148986Y-110750997D01*
X166037333Y-110740000D01*
X166037322Y-110740000D01*
X166000000Y-110736324D01*
X165962678Y-110740000D01*
X164703711Y-110740000D01*
X164659774Y-110696063D01*
X164490256Y-110582795D01*
X164301898Y-110504774D01*
X164101939Y-110465000D01*
X163898061Y-110465000D01*
X163698102Y-110504774D01*
X163509744Y-110582795D01*
X163340226Y-110696063D01*
X163296289Y-110740000D01*
X160507538Y-110740000D01*
X160535000Y-110601939D01*
X160535000Y-110398061D01*
X160507538Y-110260000D01*
X161796289Y-110260000D01*
X161840226Y-110303937D01*
X162009744Y-110417205D01*
X162198102Y-110495226D01*
X162398061Y-110535000D01*
X162601939Y-110535000D01*
X162801898Y-110495226D01*
X162990256Y-110417205D01*
X163159774Y-110303937D01*
X163303937Y-110159774D01*
X163417205Y-109990256D01*
X163495226Y-109801898D01*
X163535000Y-109601939D01*
X163535000Y-109398061D01*
X163495226Y-109198102D01*
X163417205Y-109009744D01*
X163303937Y-108840226D01*
X163159774Y-108696063D01*
X162990256Y-108582795D01*
X162801898Y-108504774D01*
X162601939Y-108465000D01*
X162398061Y-108465000D01*
X162198102Y-108504774D01*
X162009744Y-108582795D01*
X161840226Y-108696063D01*
X161796289Y-108740000D01*
X161507538Y-108740000D01*
X161535000Y-108601939D01*
X161535000Y-108398061D01*
X161495226Y-108198102D01*
X161417205Y-108009744D01*
X161303937Y-107840226D01*
X161159774Y-107696063D01*
X160990256Y-107582795D01*
X160801898Y-107504774D01*
X160601939Y-107465000D01*
X160544105Y-107465000D01*
X160540001Y-107459999D01*
X160424276Y-107365026D01*
X160292247Y-107294454D01*
X160148986Y-107250997D01*
X160037333Y-107240000D01*
X160037322Y-107240000D01*
X160000000Y-107236324D01*
X159962678Y-107240000D01*
X154760000Y-107240000D01*
X154760000Y-102314801D01*
X156039802Y-101035000D01*
X156101939Y-101035000D01*
X156111430Y-101033112D01*
X156196063Y-101159774D01*
X156340226Y-101303937D01*
X156509744Y-101417205D01*
X156698102Y-101495226D01*
X156898061Y-101535000D01*
X157101939Y-101535000D01*
X157301898Y-101495226D01*
X157490256Y-101417205D01*
X157659774Y-101303937D01*
X157803937Y-101159774D01*
X157917205Y-100990256D01*
X157995226Y-100801898D01*
X158035000Y-100601939D01*
X158035000Y-100539801D01*
X158255695Y-100319107D01*
X158239990Y-100398061D01*
X158239990Y-100601939D01*
X158279764Y-100801898D01*
X158357785Y-100990256D01*
X158471053Y-101159774D01*
X158615216Y-101303937D01*
X158784734Y-101417205D01*
X158973092Y-101495226D01*
X159173051Y-101535000D01*
X159376929Y-101535000D01*
X159576888Y-101495226D01*
X159584115Y-101492232D01*
X159696063Y-101659774D01*
X159840226Y-101803937D01*
X160009744Y-101917205D01*
X160198102Y-101995226D01*
X160398061Y-102035000D01*
X160601939Y-102035000D01*
X160801898Y-101995226D01*
X160990256Y-101917205D01*
X161159774Y-101803937D01*
X161303937Y-101659774D01*
X161417205Y-101490256D01*
X161495226Y-101301898D01*
X161535000Y-101101939D01*
X161535000Y-100898061D01*
X161495226Y-100698102D01*
X161417205Y-100509744D01*
X161303937Y-100340226D01*
X161159774Y-100196063D01*
X160990256Y-100082795D01*
X160801898Y-100004774D01*
X160760000Y-99996440D01*
X160760000Y-88928061D01*
X167745000Y-88928061D01*
X167745000Y-89131939D01*
X167784774Y-89331898D01*
X167862795Y-89520256D01*
X167976063Y-89689774D01*
X168120226Y-89833937D01*
X168181681Y-89875000D01*
X168120226Y-89916063D01*
X167976063Y-90060226D01*
X167862795Y-90229744D01*
X167784774Y-90418102D01*
X167745000Y-90618061D01*
X167745000Y-90821939D01*
X167784774Y-91021898D01*
X167862795Y-91210256D01*
X167976063Y-91379774D01*
X168120226Y-91523937D01*
X168289744Y-91637205D01*
X168478102Y-91715226D01*
X168678061Y-91755000D01*
X168881939Y-91755000D01*
X169081898Y-91715226D01*
X169270256Y-91637205D01*
X169439774Y-91523937D01*
X169583937Y-91379774D01*
X169697205Y-91210256D01*
X169775226Y-91021898D01*
X169815000Y-90821939D01*
X169815000Y-90618061D01*
X169775226Y-90418102D01*
X169697205Y-90229744D01*
X169583937Y-90060226D01*
X169439774Y-89916063D01*
X169378319Y-89875000D01*
X169439774Y-89833937D01*
X169583937Y-89689774D01*
X169697205Y-89520256D01*
X169775226Y-89331898D01*
X169815000Y-89131939D01*
X169815000Y-88928061D01*
X169775226Y-88728102D01*
X169697205Y-88539744D01*
X169583937Y-88370226D01*
X169439774Y-88226063D01*
X169270256Y-88112795D01*
X169081898Y-88034774D01*
X168881939Y-87995000D01*
X168678061Y-87995000D01*
X168478102Y-88034774D01*
X168289744Y-88112795D01*
X168120226Y-88226063D01*
X167976063Y-88370226D01*
X167862795Y-88539744D01*
X167784774Y-88728102D01*
X167745000Y-88928061D01*
X160760000Y-88928061D01*
X160760000Y-88203711D01*
X160803937Y-88159774D01*
X160917205Y-87990256D01*
X160995226Y-87801898D01*
X161035000Y-87601939D01*
X161035000Y-87398061D01*
X160995226Y-87198102D01*
X160917205Y-87009744D01*
X160803937Y-86840226D01*
X160659774Y-86696063D01*
X160490256Y-86582795D01*
X160301898Y-86504774D01*
X160101939Y-86465000D01*
X159898061Y-86465000D01*
X159698102Y-86504774D01*
X159509744Y-86582795D01*
X159340226Y-86696063D01*
X159196063Y-86840226D01*
X159082795Y-87009744D01*
X159004774Y-87198102D01*
X158965000Y-87398061D01*
X158965000Y-87508126D01*
X158784734Y-87582795D01*
X158615216Y-87696063D01*
X158471053Y-87840226D01*
X158357785Y-88009744D01*
X158279764Y-88198102D01*
X158239990Y-88398061D01*
X158239990Y-88601939D01*
X158279764Y-88801898D01*
X158357785Y-88990256D01*
X158471053Y-89159774D01*
X158514991Y-89203712D01*
X158514991Y-93771049D01*
X158348761Y-93702194D01*
X158148802Y-93662420D01*
X157944924Y-93662420D01*
X157744965Y-93702194D01*
X157556607Y-93780215D01*
X157387089Y-93893483D01*
X157242926Y-94037646D01*
X157129658Y-94207164D01*
X157051637Y-94395522D01*
X157011863Y-94595481D01*
X157011863Y-94799359D01*
X157051637Y-94999318D01*
X157129658Y-95187676D01*
X157242926Y-95357194D01*
X157286864Y-95401132D01*
X157286863Y-99138335D01*
X156960199Y-99465000D01*
X156898061Y-99465000D01*
X156888570Y-99466888D01*
X156803937Y-99340226D01*
X156659774Y-99196063D01*
X156490256Y-99082795D01*
X156301898Y-99004774D01*
X156101939Y-98965000D01*
X155898061Y-98965000D01*
X155698102Y-99004774D01*
X155509744Y-99082795D01*
X155340226Y-99196063D01*
X155196063Y-99340226D01*
X155082795Y-99509744D01*
X155004774Y-99698102D01*
X154965000Y-99898061D01*
X154965000Y-99960198D01*
X153488998Y-101436201D01*
X153460000Y-101459999D01*
X153436202Y-101488997D01*
X153436201Y-101488998D01*
X153365026Y-101575724D01*
X153294454Y-101707754D01*
X153250998Y-101851015D01*
X153236324Y-102000000D01*
X153240001Y-102037332D01*
X153240000Y-107296289D01*
X153196063Y-107340226D01*
X153082795Y-107509744D01*
X153004774Y-107698102D01*
X152965000Y-107898061D01*
X152965000Y-108101939D01*
X153004774Y-108301898D01*
X153082795Y-108490256D01*
X153196063Y-108659774D01*
X153340226Y-108803937D01*
X153509744Y-108917205D01*
X153615388Y-108960965D01*
X153582795Y-109009744D01*
X153539035Y-109115388D01*
X153490256Y-109082795D01*
X153301898Y-109004774D01*
X153101939Y-108965000D01*
X152898061Y-108965000D01*
X152698102Y-109004774D01*
X152509744Y-109082795D01*
X152340226Y-109196063D01*
X152196063Y-109340226D01*
X152082795Y-109509744D01*
X152004774Y-109698102D01*
X151965000Y-109898061D01*
X151965000Y-110101939D01*
X152004774Y-110301898D01*
X152082795Y-110490256D01*
X152196063Y-110659774D01*
X152276289Y-110740000D01*
X152203711Y-110740000D01*
X152159774Y-110696063D01*
X151990256Y-110582795D01*
X151801898Y-110504774D01*
X151601939Y-110465000D01*
X151398061Y-110465000D01*
X151198102Y-110504774D01*
X151009744Y-110582795D01*
X150840226Y-110696063D01*
X150696063Y-110840226D01*
X150660000Y-110894198D01*
X150660000Y-82898061D01*
X159465000Y-82898061D01*
X159465000Y-83101939D01*
X159504774Y-83301898D01*
X159582795Y-83490256D01*
X159696063Y-83659774D01*
X159840226Y-83803937D01*
X160009744Y-83917205D01*
X160198102Y-83995226D01*
X160398061Y-84035000D01*
X160601939Y-84035000D01*
X160801898Y-83995226D01*
X160990256Y-83917205D01*
X161159774Y-83803937D01*
X161303937Y-83659774D01*
X161417205Y-83490256D01*
X161495226Y-83301898D01*
X161535000Y-83101939D01*
X161535000Y-83039801D01*
X161814802Y-82760000D01*
X162796289Y-82760000D01*
X162840226Y-82803937D01*
X163009744Y-82917205D01*
X163198102Y-82995226D01*
X163398061Y-83035000D01*
X163601939Y-83035000D01*
X163801898Y-82995226D01*
X163990256Y-82917205D01*
X164159774Y-82803937D01*
X164303937Y-82659774D01*
X164417205Y-82490256D01*
X164495226Y-82301898D01*
X164535000Y-82101939D01*
X164535000Y-81898061D01*
X164495226Y-81698102D01*
X164417205Y-81509744D01*
X164303937Y-81340226D01*
X164159774Y-81196063D01*
X163990256Y-81082795D01*
X163801898Y-81004774D01*
X163601939Y-80965000D01*
X163398061Y-80965000D01*
X163198102Y-81004774D01*
X163009744Y-81082795D01*
X162840226Y-81196063D01*
X162796289Y-81240000D01*
X161537333Y-81240000D01*
X161500000Y-81236323D01*
X161462667Y-81240000D01*
X161351014Y-81250997D01*
X161207753Y-81294454D01*
X161075724Y-81365026D01*
X160959999Y-81459999D01*
X160936201Y-81488997D01*
X160460199Y-81965000D01*
X160398061Y-81965000D01*
X160198102Y-82004774D01*
X160009744Y-82082795D01*
X159840226Y-82196063D01*
X159696063Y-82340226D01*
X159582795Y-82509744D01*
X159504774Y-82698102D01*
X159465000Y-82898061D01*
X150660000Y-82898061D01*
X150660000Y-73304495D01*
X151515000Y-73304495D01*
X151515000Y-73695505D01*
X151591282Y-74079003D01*
X151740915Y-74440250D01*
X151958149Y-74765364D01*
X152234636Y-75041851D01*
X152559750Y-75259085D01*
X152920997Y-75408718D01*
X153304495Y-75485000D01*
X153695505Y-75485000D01*
X154079003Y-75408718D01*
X154440250Y-75259085D01*
X154765364Y-75041851D01*
X155041851Y-74765364D01*
X155259085Y-74440250D01*
X155408718Y-74079003D01*
X155485000Y-73695505D01*
X155485000Y-73304495D01*
X155408718Y-72920997D01*
X155259085Y-72559750D01*
X155123540Y-72356891D01*
X170978519Y-72356891D01*
X171075843Y-72631252D01*
X171224822Y-72881355D01*
X171419731Y-73097588D01*
X171653080Y-73271641D01*
X171915901Y-73396825D01*
X172063110Y-73441476D01*
X172293000Y-73320155D01*
X172293000Y-72127000D01*
X171099186Y-72127000D01*
X170978519Y-72356891D01*
X155123540Y-72356891D01*
X155041851Y-72234636D01*
X154765364Y-71958149D01*
X154440250Y-71740915D01*
X154079003Y-71591282D01*
X153695505Y-71515000D01*
X153304495Y-71515000D01*
X152920997Y-71591282D01*
X152559750Y-71740915D01*
X152234636Y-71958149D01*
X151958149Y-72234636D01*
X151740915Y-72559750D01*
X151591282Y-72920997D01*
X151515000Y-73304495D01*
X150660000Y-73304495D01*
X150660000Y-70660000D01*
X171796598Y-70660000D01*
X171653080Y-70728359D01*
M02*
