G04 #@! TF.GenerationSoftware,KiCad,Pcbnew,5.1.4-e60b266~84~ubuntu18.04.1*
G04 #@! TF.CreationDate,2019-11-01T22:23:45-06:00*
G04 #@! TF.ProjectId,cob_single,636f625f-7369-46e6-976c-652e6b696361,rev?*
G04 #@! TF.SameCoordinates,Original*
G04 #@! TF.FileFunction,Copper,L2,Bot*
G04 #@! TF.FilePolarity,Positive*
%FSLAX46Y46*%
G04 Gerber Fmt 4.6, Leading zero omitted, Abs format (unit mm)*
G04 Created by KiCad (PCBNEW 5.1.4-e60b266~84~ubuntu18.04.1) date 2019-11-01 22:23:45*
%MOMM*%
%LPD*%
G04 APERTURE LIST*
%ADD10O,1.700000X1.700000*%
%ADD11R,1.700000X1.700000*%
%ADD12C,2.700000*%
%ADD13C,0.800000*%
%ADD14C,0.250000*%
%ADD15C,0.750000*%
%ADD16C,0.254000*%
G04 APERTURE END LIST*
D10*
X177580000Y-118000000D03*
X175040000Y-118000000D03*
D11*
X172500000Y-118000000D03*
X177500000Y-72000000D03*
D10*
X174960000Y-72000000D03*
X172420000Y-72000000D03*
D12*
X196500000Y-116500000D03*
X153500000Y-116500000D03*
X153500000Y-73500000D03*
X196500000Y-73500000D03*
D13*
X157500000Y-118000000D03*
X163500000Y-105500000D03*
X156494929Y-103399297D03*
X175000000Y-91500000D03*
X173000000Y-91500000D03*
X177000000Y-91500000D03*
X179000000Y-91500000D03*
X171000000Y-91500000D03*
X170000000Y-89500000D03*
X172000000Y-89500000D03*
X174000000Y-89500000D03*
X176000000Y-89500000D03*
X178000000Y-89500000D03*
X180000000Y-89500000D03*
X172000000Y-92500000D03*
X178000000Y-92500000D03*
X171000000Y-93500000D03*
X171000000Y-95000000D03*
X171000000Y-96500000D03*
X179000000Y-93500000D03*
X179000000Y-95000000D03*
X179000000Y-96500000D03*
X175000000Y-98500000D03*
X173000000Y-98500000D03*
X171000000Y-98500000D03*
X169000000Y-98500000D03*
X177000000Y-98500000D03*
X179000000Y-98500000D03*
X181000000Y-98500000D03*
X178000000Y-97500000D03*
X172000000Y-97500000D03*
X168000000Y-100500000D03*
X170000000Y-100500000D03*
X172000000Y-100500000D03*
X174000000Y-100500000D03*
X176000000Y-100500000D03*
X178000000Y-100500000D03*
X180000000Y-100500000D03*
X182000000Y-100500000D03*
X166982102Y-118224790D03*
X155130436Y-89642294D03*
X164000000Y-80000000D03*
X155500000Y-98250000D03*
X158000000Y-98250000D03*
X179750000Y-115750000D03*
X182000000Y-115750000D03*
X166774990Y-115103793D03*
X158500000Y-114500000D03*
X150625000Y-113000000D03*
X153500000Y-90500000D03*
X153500000Y-100500000D03*
X155000000Y-103500000D03*
X156500000Y-105000000D03*
X151250000Y-86750000D03*
X151750000Y-99250000D03*
X158750000Y-107750000D03*
X155250000Y-107250000D03*
X174000000Y-81500000D03*
X159000000Y-81750000D03*
X159750000Y-89500000D03*
X156750000Y-100500000D03*
X159500000Y-110500000D03*
X156175000Y-110225010D03*
X153000000Y-110000000D03*
X160500000Y-108500000D03*
X155774990Y-100017898D03*
X153949361Y-108038775D03*
X162500000Y-109500000D03*
X154500000Y-109500000D03*
X169224658Y-116022607D03*
X166368750Y-103131250D03*
X164500000Y-86500000D03*
X164000000Y-111500000D03*
X157500000Y-111000000D03*
X151500000Y-111500000D03*
X185000000Y-87000000D03*
X166500000Y-87550002D03*
X151500000Y-88000000D03*
X184000000Y-88000000D03*
X160500000Y-88000000D03*
X166500000Y-88550015D03*
X165250000Y-95000000D03*
X165250000Y-90500000D03*
X164000000Y-96500000D03*
X163750000Y-91500000D03*
D14*
X156894928Y-103799296D02*
X156494929Y-103399297D01*
X163500000Y-105500000D02*
X158595632Y-105500000D01*
X158595632Y-105500000D02*
X156894928Y-103799296D01*
X167000000Y-118000000D02*
X166982102Y-118017898D01*
X166982102Y-118017898D02*
X166982102Y-118224790D01*
X157500000Y-118000000D02*
X166757312Y-118000000D01*
X166757312Y-118000000D02*
X166982102Y-118224790D01*
X172500000Y-118000000D02*
X167000000Y-118000000D01*
X173864999Y-116824999D02*
X168496196Y-116824999D01*
X168496196Y-116824999D02*
X167174989Y-115503792D01*
X175040000Y-118000000D02*
X173864999Y-116824999D01*
X167174989Y-115503792D02*
X166774990Y-115103793D01*
X158500000Y-114500000D02*
X157000000Y-113000000D01*
X157000000Y-113000000D02*
X150625000Y-113000000D01*
X153500000Y-90500000D02*
X153500000Y-100500000D01*
X155000000Y-103500000D02*
X156500000Y-105000000D01*
X150774999Y-88348001D02*
X151088499Y-88661501D01*
X150774999Y-87651999D02*
X150774999Y-88348001D01*
X151250000Y-86750000D02*
X151250000Y-87176998D01*
X151250000Y-87176998D02*
X150774999Y-87651999D01*
X151088499Y-88661501D02*
X151750000Y-89323002D01*
X151750000Y-89323002D02*
X151750000Y-99250000D01*
X155750000Y-107750000D02*
X155250000Y-107250000D01*
X158750000Y-107750000D02*
X155750000Y-107750000D01*
X174000000Y-81500000D02*
X159250000Y-81500000D01*
X159250000Y-81500000D02*
X159000000Y-81750000D01*
X156641217Y-92608783D02*
X156641217Y-100391217D01*
X159750000Y-89500000D02*
X156641217Y-92608783D01*
X156641217Y-100391217D02*
X156750000Y-100500000D01*
X158659325Y-110225010D02*
X156740685Y-110225010D01*
X159500000Y-110500000D02*
X158934315Y-110500000D01*
X158934315Y-110500000D02*
X158659325Y-110225010D01*
X156175000Y-110225010D02*
X153225010Y-110225010D01*
X153225010Y-110225010D02*
X153000000Y-110000000D01*
X156740685Y-110225010D02*
X156175000Y-110225010D01*
X155774990Y-100017898D02*
X153949361Y-101843527D01*
X154349360Y-108438774D02*
X153949361Y-108038775D01*
X160500000Y-108500000D02*
X154410586Y-108500000D01*
X153949361Y-101843527D02*
X153949361Y-108038775D01*
X154410586Y-108500000D02*
X154349360Y-108438774D01*
X162500000Y-109500000D02*
X154500000Y-109500000D01*
X169790343Y-116022607D02*
X169224658Y-116022607D01*
X175602607Y-116022607D02*
X169790343Y-116022607D01*
X177580000Y-118000000D02*
X175602607Y-116022607D01*
D15*
X165524999Y-89018016D02*
X165524999Y-87525000D01*
X166368750Y-103131250D02*
X166368750Y-89861767D01*
X166368750Y-89861767D02*
X165524999Y-89018016D01*
X165524999Y-87525000D02*
X164500000Y-86500001D01*
X164500000Y-86500001D02*
X164500000Y-86500000D01*
D14*
X164000000Y-111500000D02*
X158000000Y-111500000D01*
X158000000Y-111500000D02*
X157500000Y-111000000D01*
X158000000Y-111500000D02*
X151500000Y-111500000D01*
X158500000Y-111500000D02*
X158000000Y-111500000D01*
X164000000Y-111500000D02*
X159500000Y-111500000D01*
X161500000Y-111500000D02*
X159500000Y-111500000D01*
D15*
X167050002Y-87000000D02*
X166500000Y-87550002D01*
X185000000Y-87000000D02*
X167050002Y-87000000D01*
X160500000Y-88000000D02*
X151500000Y-88000000D01*
X166924987Y-88550015D02*
X166500000Y-88550015D01*
X167475002Y-88000000D02*
X166924987Y-88550015D01*
X184000000Y-88000000D02*
X167475002Y-88000000D01*
X165250000Y-90500000D02*
X165250000Y-95000000D01*
X163750000Y-96250000D02*
X164000000Y-96500000D01*
X163750000Y-91500000D02*
X163750000Y-96250000D01*
D16*
G36*
X171653080Y-70728359D02*
G01*
X171419731Y-70902412D01*
X171224822Y-71118645D01*
X171075843Y-71368748D01*
X170978519Y-71643109D01*
X171099186Y-71873000D01*
X172293000Y-71873000D01*
X172293000Y-71853000D01*
X172547000Y-71853000D01*
X172547000Y-71873000D01*
X172567000Y-71873000D01*
X172567000Y-72127000D01*
X172547000Y-72127000D01*
X172547000Y-73320155D01*
X172776890Y-73441476D01*
X172924099Y-73396825D01*
X173186920Y-73271641D01*
X173420269Y-73097588D01*
X173615178Y-72881355D01*
X173684799Y-72764477D01*
X173719294Y-72829014D01*
X173904866Y-73055134D01*
X174130986Y-73240706D01*
X174388966Y-73378599D01*
X174668889Y-73463513D01*
X174887050Y-73485000D01*
X175032950Y-73485000D01*
X175251111Y-73463513D01*
X175531034Y-73378599D01*
X175789014Y-73240706D01*
X176015134Y-73055134D01*
X176039607Y-73025313D01*
X176060498Y-73094180D01*
X176119463Y-73204494D01*
X176198815Y-73301185D01*
X176295506Y-73380537D01*
X176405820Y-73439502D01*
X176525518Y-73475812D01*
X176650000Y-73488072D01*
X178350000Y-73488072D01*
X178474482Y-73475812D01*
X178594180Y-73439502D01*
X178704494Y-73380537D01*
X178797151Y-73304495D01*
X194515000Y-73304495D01*
X194515000Y-73695505D01*
X194591282Y-74079003D01*
X194740915Y-74440250D01*
X194958149Y-74765364D01*
X195234636Y-75041851D01*
X195559750Y-75259085D01*
X195920997Y-75408718D01*
X196304495Y-75485000D01*
X196695505Y-75485000D01*
X197079003Y-75408718D01*
X197440250Y-75259085D01*
X197765364Y-75041851D01*
X198041851Y-74765364D01*
X198259085Y-74440250D01*
X198408718Y-74079003D01*
X198485000Y-73695505D01*
X198485000Y-73304495D01*
X198408718Y-72920997D01*
X198259085Y-72559750D01*
X198041851Y-72234636D01*
X197765364Y-71958149D01*
X197440250Y-71740915D01*
X197079003Y-71591282D01*
X196695505Y-71515000D01*
X196304495Y-71515000D01*
X195920997Y-71591282D01*
X195559750Y-71740915D01*
X195234636Y-71958149D01*
X194958149Y-72234636D01*
X194740915Y-72559750D01*
X194591282Y-72920997D01*
X194515000Y-73304495D01*
X178797151Y-73304495D01*
X178801185Y-73301185D01*
X178880537Y-73204494D01*
X178939502Y-73094180D01*
X178975812Y-72974482D01*
X178988072Y-72850000D01*
X178988072Y-71150000D01*
X178975812Y-71025518D01*
X178939502Y-70905820D01*
X178880537Y-70795506D01*
X178801185Y-70698815D01*
X178753889Y-70660000D01*
X199340001Y-70660000D01*
X199340000Y-119340000D01*
X178223248Y-119340000D01*
X178409014Y-119240706D01*
X178635134Y-119055134D01*
X178820706Y-118829014D01*
X178958599Y-118571034D01*
X179043513Y-118291111D01*
X179072185Y-118000000D01*
X179043513Y-117708889D01*
X178958599Y-117428966D01*
X178820706Y-117170986D01*
X178635134Y-116944866D01*
X178409014Y-116759294D01*
X178151034Y-116621401D01*
X177871111Y-116536487D01*
X177652950Y-116515000D01*
X177507050Y-116515000D01*
X177288889Y-116536487D01*
X177214005Y-116559203D01*
X176959297Y-116304495D01*
X194515000Y-116304495D01*
X194515000Y-116695505D01*
X194591282Y-117079003D01*
X194740915Y-117440250D01*
X194958149Y-117765364D01*
X195234636Y-118041851D01*
X195559750Y-118259085D01*
X195920997Y-118408718D01*
X196304495Y-118485000D01*
X196695505Y-118485000D01*
X197079003Y-118408718D01*
X197440250Y-118259085D01*
X197765364Y-118041851D01*
X198041851Y-117765364D01*
X198259085Y-117440250D01*
X198408718Y-117079003D01*
X198485000Y-116695505D01*
X198485000Y-116304495D01*
X198408718Y-115920997D01*
X198259085Y-115559750D01*
X198041851Y-115234636D01*
X197765364Y-114958149D01*
X197440250Y-114740915D01*
X197079003Y-114591282D01*
X196695505Y-114515000D01*
X196304495Y-114515000D01*
X195920997Y-114591282D01*
X195559750Y-114740915D01*
X195234636Y-114958149D01*
X194958149Y-115234636D01*
X194740915Y-115559750D01*
X194591282Y-115920997D01*
X194515000Y-116304495D01*
X176959297Y-116304495D01*
X176166411Y-115511610D01*
X176142608Y-115482606D01*
X176026883Y-115387633D01*
X175894854Y-115317061D01*
X175751593Y-115273604D01*
X175639940Y-115262607D01*
X175639929Y-115262607D01*
X175602607Y-115258931D01*
X175565285Y-115262607D01*
X169928369Y-115262607D01*
X169884432Y-115218670D01*
X169714914Y-115105402D01*
X169526556Y-115027381D01*
X169326597Y-114987607D01*
X169122719Y-114987607D01*
X168922760Y-115027381D01*
X168734402Y-115105402D01*
X168564884Y-115218670D01*
X168420721Y-115362833D01*
X168307453Y-115532351D01*
X168298929Y-115552930D01*
X167809990Y-115063992D01*
X167809990Y-115001854D01*
X167770216Y-114801895D01*
X167692195Y-114613537D01*
X167578927Y-114444019D01*
X167434764Y-114299856D01*
X167265246Y-114186588D01*
X167076888Y-114108567D01*
X166876929Y-114068793D01*
X166673051Y-114068793D01*
X166473092Y-114108567D01*
X166284734Y-114186588D01*
X166115216Y-114299856D01*
X165971053Y-114444019D01*
X165857785Y-114613537D01*
X165779764Y-114801895D01*
X165739990Y-115001854D01*
X165739990Y-115205732D01*
X165779764Y-115405691D01*
X165857785Y-115594049D01*
X165971053Y-115763567D01*
X166115216Y-115907730D01*
X166284734Y-116020998D01*
X166473092Y-116099019D01*
X166673051Y-116138793D01*
X166735189Y-116138793D01*
X167932396Y-117336001D01*
X167956195Y-117365000D01*
X168071920Y-117459973D01*
X168203949Y-117530545D01*
X168347210Y-117574002D01*
X168458863Y-117584999D01*
X168458873Y-117584999D01*
X168496196Y-117588675D01*
X168533519Y-117584999D01*
X171014296Y-117584999D01*
X171015000Y-117714250D01*
X171173750Y-117873000D01*
X172373000Y-117873000D01*
X172373000Y-117853000D01*
X172627000Y-117853000D01*
X172627000Y-117873000D01*
X172647000Y-117873000D01*
X172647000Y-118127000D01*
X172627000Y-118127000D01*
X172627000Y-118147000D01*
X172373000Y-118147000D01*
X172373000Y-118127000D01*
X171173750Y-118127000D01*
X171015000Y-118285750D01*
X171011928Y-118850000D01*
X171024188Y-118974482D01*
X171060498Y-119094180D01*
X171119463Y-119204494D01*
X171198815Y-119301185D01*
X171246111Y-119340000D01*
X150660000Y-119340000D01*
X150660000Y-116304495D01*
X151515000Y-116304495D01*
X151515000Y-116695505D01*
X151591282Y-117079003D01*
X151740915Y-117440250D01*
X151958149Y-117765364D01*
X152234636Y-118041851D01*
X152559750Y-118259085D01*
X152920997Y-118408718D01*
X153304495Y-118485000D01*
X153695505Y-118485000D01*
X154079003Y-118408718D01*
X154440250Y-118259085D01*
X154765364Y-118041851D01*
X155041851Y-117765364D01*
X155259085Y-117440250D01*
X155408718Y-117079003D01*
X155485000Y-116695505D01*
X155485000Y-116304495D01*
X155408718Y-115920997D01*
X155259085Y-115559750D01*
X155041851Y-115234636D01*
X154765364Y-114958149D01*
X154440250Y-114740915D01*
X154079003Y-114591282D01*
X153695505Y-114515000D01*
X153304495Y-114515000D01*
X152920997Y-114591282D01*
X152559750Y-114740915D01*
X152234636Y-114958149D01*
X151958149Y-115234636D01*
X151740915Y-115559750D01*
X151591282Y-115920997D01*
X151515000Y-116304495D01*
X150660000Y-116304495D01*
X150660000Y-114035000D01*
X150726939Y-114035000D01*
X150926898Y-113995226D01*
X151115256Y-113917205D01*
X151284774Y-113803937D01*
X151328711Y-113760000D01*
X156685199Y-113760000D01*
X157465000Y-114539802D01*
X157465000Y-114601939D01*
X157504774Y-114801898D01*
X157582795Y-114990256D01*
X157696063Y-115159774D01*
X157840226Y-115303937D01*
X158009744Y-115417205D01*
X158198102Y-115495226D01*
X158398061Y-115535000D01*
X158601939Y-115535000D01*
X158801898Y-115495226D01*
X158990256Y-115417205D01*
X159159774Y-115303937D01*
X159303937Y-115159774D01*
X159417205Y-114990256D01*
X159495226Y-114801898D01*
X159535000Y-114601939D01*
X159535000Y-114398061D01*
X159495226Y-114198102D01*
X159417205Y-114009744D01*
X159303937Y-113840226D01*
X159159774Y-113696063D01*
X158990256Y-113582795D01*
X158801898Y-113504774D01*
X158601939Y-113465000D01*
X158539802Y-113465000D01*
X157563804Y-112489003D01*
X157540001Y-112459999D01*
X157424276Y-112365026D01*
X157292247Y-112294454D01*
X157178665Y-112260000D01*
X157962675Y-112260000D01*
X158000000Y-112263676D01*
X158037325Y-112260000D01*
X163296289Y-112260000D01*
X163340226Y-112303937D01*
X163509744Y-112417205D01*
X163698102Y-112495226D01*
X163898061Y-112535000D01*
X164101939Y-112535000D01*
X164301898Y-112495226D01*
X164490256Y-112417205D01*
X164659774Y-112303937D01*
X164803937Y-112159774D01*
X164917205Y-111990256D01*
X164995226Y-111801898D01*
X165035000Y-111601939D01*
X165035000Y-111398061D01*
X164995226Y-111198102D01*
X164917205Y-111009744D01*
X164803937Y-110840226D01*
X164659774Y-110696063D01*
X164490256Y-110582795D01*
X164301898Y-110504774D01*
X164101939Y-110465000D01*
X163898061Y-110465000D01*
X163698102Y-110504774D01*
X163509744Y-110582795D01*
X163340226Y-110696063D01*
X163296289Y-110740000D01*
X160507538Y-110740000D01*
X160535000Y-110601939D01*
X160535000Y-110398061D01*
X160507538Y-110260000D01*
X161796289Y-110260000D01*
X161840226Y-110303937D01*
X162009744Y-110417205D01*
X162198102Y-110495226D01*
X162398061Y-110535000D01*
X162601939Y-110535000D01*
X162801898Y-110495226D01*
X162990256Y-110417205D01*
X163159774Y-110303937D01*
X163303937Y-110159774D01*
X163417205Y-109990256D01*
X163495226Y-109801898D01*
X163535000Y-109601939D01*
X163535000Y-109398061D01*
X163495226Y-109198102D01*
X163417205Y-109009744D01*
X163303937Y-108840226D01*
X163159774Y-108696063D01*
X162990256Y-108582795D01*
X162801898Y-108504774D01*
X162601939Y-108465000D01*
X162398061Y-108465000D01*
X162198102Y-108504774D01*
X162009744Y-108582795D01*
X161840226Y-108696063D01*
X161796289Y-108740000D01*
X161507538Y-108740000D01*
X161535000Y-108601939D01*
X161535000Y-108398061D01*
X161495226Y-108198102D01*
X161417205Y-108009744D01*
X161303937Y-107840226D01*
X161159774Y-107696063D01*
X160990256Y-107582795D01*
X160801898Y-107504774D01*
X160601939Y-107465000D01*
X160398061Y-107465000D01*
X160198102Y-107504774D01*
X160009744Y-107582795D01*
X159840226Y-107696063D01*
X159796289Y-107740000D01*
X159785000Y-107740000D01*
X159785000Y-107648061D01*
X159745226Y-107448102D01*
X159667205Y-107259744D01*
X159553937Y-107090226D01*
X159409774Y-106946063D01*
X159240256Y-106832795D01*
X159051898Y-106754774D01*
X158851939Y-106715000D01*
X158648061Y-106715000D01*
X158448102Y-106754774D01*
X158259744Y-106832795D01*
X158090226Y-106946063D01*
X158046289Y-106990000D01*
X156253560Y-106990000D01*
X156245226Y-106948102D01*
X156167205Y-106759744D01*
X156053937Y-106590226D01*
X155909774Y-106446063D01*
X155740256Y-106332795D01*
X155551898Y-106254774D01*
X155351939Y-106215000D01*
X155148061Y-106215000D01*
X154948102Y-106254774D01*
X154759744Y-106332795D01*
X154709361Y-106366460D01*
X154709361Y-104497466D01*
X154898061Y-104535000D01*
X154960199Y-104535000D01*
X155465000Y-105039802D01*
X155465000Y-105101939D01*
X155504774Y-105301898D01*
X155582795Y-105490256D01*
X155696063Y-105659774D01*
X155840226Y-105803937D01*
X156009744Y-105917205D01*
X156198102Y-105995226D01*
X156398061Y-106035000D01*
X156601939Y-106035000D01*
X156801898Y-105995226D01*
X156990256Y-105917205D01*
X157159774Y-105803937D01*
X157303937Y-105659774D01*
X157417205Y-105490256D01*
X157495226Y-105301898D01*
X157535000Y-105101939D01*
X157535000Y-104898061D01*
X157495226Y-104698102D01*
X157417205Y-104509744D01*
X157303937Y-104340226D01*
X157159774Y-104196063D01*
X156990256Y-104082795D01*
X156801898Y-104004774D01*
X156601939Y-103965000D01*
X156539802Y-103965000D01*
X156035000Y-103460199D01*
X156035000Y-103398061D01*
X155995226Y-103198102D01*
X155917205Y-103009744D01*
X155803937Y-102840226D01*
X155659774Y-102696063D01*
X155490256Y-102582795D01*
X155301898Y-102504774D01*
X155101939Y-102465000D01*
X154898061Y-102465000D01*
X154709361Y-102502534D01*
X154709361Y-102158328D01*
X155814792Y-101052898D01*
X155874651Y-101052898D01*
X155946063Y-101159774D01*
X156090226Y-101303937D01*
X156259744Y-101417205D01*
X156448102Y-101495226D01*
X156648061Y-101535000D01*
X156851939Y-101535000D01*
X157051898Y-101495226D01*
X157240256Y-101417205D01*
X157409774Y-101303937D01*
X157553937Y-101159774D01*
X157667205Y-100990256D01*
X157745226Y-100801898D01*
X157785000Y-100601939D01*
X157785000Y-100398061D01*
X157745226Y-100198102D01*
X157667205Y-100009744D01*
X157553937Y-99840226D01*
X157409774Y-99696063D01*
X157401217Y-99690345D01*
X157401217Y-92923584D01*
X158926740Y-91398061D01*
X162715000Y-91398061D01*
X162715000Y-91601939D01*
X162740000Y-91727624D01*
X162740001Y-96200382D01*
X162735114Y-96250000D01*
X162754615Y-96447994D01*
X162812368Y-96638379D01*
X162812369Y-96638380D01*
X162906154Y-96813840D01*
X163032368Y-96967633D01*
X163070903Y-96999257D01*
X163124867Y-97053222D01*
X163196063Y-97159774D01*
X163340226Y-97303937D01*
X163509744Y-97417205D01*
X163698102Y-97495226D01*
X163898061Y-97535000D01*
X164101939Y-97535000D01*
X164301898Y-97495226D01*
X164490256Y-97417205D01*
X164659774Y-97303937D01*
X164803937Y-97159774D01*
X164917205Y-96990256D01*
X164995226Y-96801898D01*
X165035000Y-96601939D01*
X165035000Y-96398061D01*
X164995226Y-96198102D01*
X164917205Y-96009744D01*
X164891968Y-95971974D01*
X164948102Y-95995226D01*
X165148061Y-96035000D01*
X165351939Y-96035000D01*
X165358751Y-96033645D01*
X165358750Y-102903626D01*
X165333750Y-103029311D01*
X165333750Y-103233189D01*
X165373524Y-103433148D01*
X165451545Y-103621506D01*
X165564813Y-103791024D01*
X165708976Y-103935187D01*
X165878494Y-104048455D01*
X166066852Y-104126476D01*
X166266811Y-104166250D01*
X166470689Y-104166250D01*
X166670648Y-104126476D01*
X166859006Y-104048455D01*
X167028524Y-103935187D01*
X167172687Y-103791024D01*
X167285955Y-103621506D01*
X167363976Y-103433148D01*
X167403750Y-103233189D01*
X167403750Y-103029311D01*
X167378750Y-102903627D01*
X167378750Y-89911371D01*
X167383636Y-89861766D01*
X167376789Y-89792247D01*
X167364135Y-89663773D01*
X167310932Y-89488386D01*
X167313367Y-89487647D01*
X167488827Y-89393862D01*
X167642620Y-89267648D01*
X167674248Y-89229109D01*
X167893357Y-89010000D01*
X183772377Y-89010000D01*
X183898061Y-89035000D01*
X184101939Y-89035000D01*
X184301898Y-88995226D01*
X184490256Y-88917205D01*
X184659774Y-88803937D01*
X184803937Y-88659774D01*
X184917205Y-88490256D01*
X184995226Y-88301898D01*
X185035000Y-88101939D01*
X185035000Y-88035000D01*
X185101939Y-88035000D01*
X185301898Y-87995226D01*
X185490256Y-87917205D01*
X185659774Y-87803937D01*
X185803937Y-87659774D01*
X185917205Y-87490256D01*
X185995226Y-87301898D01*
X186035000Y-87101939D01*
X186035000Y-86898061D01*
X185995226Y-86698102D01*
X185917205Y-86509744D01*
X185803937Y-86340226D01*
X185659774Y-86196063D01*
X185490256Y-86082795D01*
X185301898Y-86004774D01*
X185101939Y-85965000D01*
X184898061Y-85965000D01*
X184772377Y-85990000D01*
X167099606Y-85990000D01*
X167050001Y-85985114D01*
X167000396Y-85990000D01*
X167000394Y-85990000D01*
X166852008Y-86004615D01*
X166661622Y-86062368D01*
X166486162Y-86156153D01*
X166332369Y-86282367D01*
X166300737Y-86320911D01*
X166025001Y-86596646D01*
X165375133Y-85946779D01*
X165303937Y-85840226D01*
X165159774Y-85696063D01*
X164990256Y-85582795D01*
X164801898Y-85504774D01*
X164601939Y-85465000D01*
X164398061Y-85465000D01*
X164198102Y-85504774D01*
X164009744Y-85582795D01*
X163840226Y-85696063D01*
X163696063Y-85840226D01*
X163582795Y-86009744D01*
X163504774Y-86198102D01*
X163465000Y-86398061D01*
X163465000Y-86601939D01*
X163504774Y-86801898D01*
X163582795Y-86990256D01*
X163696063Y-87159774D01*
X163840226Y-87303937D01*
X163946773Y-87375129D01*
X164515000Y-87943356D01*
X164514999Y-88968408D01*
X164510113Y-89018016D01*
X164529614Y-89216010D01*
X164575431Y-89367047D01*
X164587367Y-89406395D01*
X164681152Y-89581856D01*
X164709483Y-89616378D01*
X164590226Y-89696063D01*
X164446063Y-89840226D01*
X164332795Y-90009744D01*
X164254774Y-90198102D01*
X164215000Y-90398061D01*
X164215000Y-90572334D01*
X164051898Y-90504774D01*
X163851939Y-90465000D01*
X163648061Y-90465000D01*
X163448102Y-90504774D01*
X163259744Y-90582795D01*
X163090226Y-90696063D01*
X162946063Y-90840226D01*
X162832795Y-91009744D01*
X162754774Y-91198102D01*
X162715000Y-91398061D01*
X158926740Y-91398061D01*
X159789802Y-90535000D01*
X159851939Y-90535000D01*
X160051898Y-90495226D01*
X160240256Y-90417205D01*
X160409774Y-90303937D01*
X160553937Y-90159774D01*
X160667205Y-89990256D01*
X160745226Y-89801898D01*
X160785000Y-89601939D01*
X160785000Y-89398061D01*
X160745226Y-89198102D01*
X160671902Y-89021084D01*
X160801898Y-88995226D01*
X160990256Y-88917205D01*
X161159774Y-88803937D01*
X161303937Y-88659774D01*
X161417205Y-88490256D01*
X161495226Y-88301898D01*
X161535000Y-88101939D01*
X161535000Y-87898061D01*
X161495226Y-87698102D01*
X161417205Y-87509744D01*
X161303937Y-87340226D01*
X161159774Y-87196063D01*
X160990256Y-87082795D01*
X160801898Y-87004774D01*
X160601939Y-86965000D01*
X160398061Y-86965000D01*
X160272377Y-86990000D01*
X152257538Y-86990000D01*
X152285000Y-86851939D01*
X152285000Y-86648061D01*
X152245226Y-86448102D01*
X152167205Y-86259744D01*
X152053937Y-86090226D01*
X151909774Y-85946063D01*
X151740256Y-85832795D01*
X151551898Y-85754774D01*
X151351939Y-85715000D01*
X151148061Y-85715000D01*
X150948102Y-85754774D01*
X150759744Y-85832795D01*
X150660000Y-85899442D01*
X150660000Y-81648061D01*
X157965000Y-81648061D01*
X157965000Y-81851939D01*
X158004774Y-82051898D01*
X158082795Y-82240256D01*
X158196063Y-82409774D01*
X158340226Y-82553937D01*
X158509744Y-82667205D01*
X158698102Y-82745226D01*
X158898061Y-82785000D01*
X159101939Y-82785000D01*
X159301898Y-82745226D01*
X159490256Y-82667205D01*
X159659774Y-82553937D01*
X159803937Y-82409774D01*
X159904013Y-82260000D01*
X173296289Y-82260000D01*
X173340226Y-82303937D01*
X173509744Y-82417205D01*
X173698102Y-82495226D01*
X173898061Y-82535000D01*
X174101939Y-82535000D01*
X174301898Y-82495226D01*
X174490256Y-82417205D01*
X174659774Y-82303937D01*
X174803937Y-82159774D01*
X174917205Y-81990256D01*
X174995226Y-81801898D01*
X175035000Y-81601939D01*
X175035000Y-81398061D01*
X174995226Y-81198102D01*
X174917205Y-81009744D01*
X174803937Y-80840226D01*
X174659774Y-80696063D01*
X174490256Y-80582795D01*
X174301898Y-80504774D01*
X174101939Y-80465000D01*
X173898061Y-80465000D01*
X173698102Y-80504774D01*
X173509744Y-80582795D01*
X173340226Y-80696063D01*
X173296289Y-80740000D01*
X159287322Y-80740000D01*
X159249999Y-80736324D01*
X159222673Y-80739015D01*
X159101939Y-80715000D01*
X158898061Y-80715000D01*
X158698102Y-80754774D01*
X158509744Y-80832795D01*
X158340226Y-80946063D01*
X158196063Y-81090226D01*
X158082795Y-81259744D01*
X158004774Y-81448102D01*
X157965000Y-81648061D01*
X150660000Y-81648061D01*
X150660000Y-73304495D01*
X151515000Y-73304495D01*
X151515000Y-73695505D01*
X151591282Y-74079003D01*
X151740915Y-74440250D01*
X151958149Y-74765364D01*
X152234636Y-75041851D01*
X152559750Y-75259085D01*
X152920997Y-75408718D01*
X153304495Y-75485000D01*
X153695505Y-75485000D01*
X154079003Y-75408718D01*
X154440250Y-75259085D01*
X154765364Y-75041851D01*
X155041851Y-74765364D01*
X155259085Y-74440250D01*
X155408718Y-74079003D01*
X155485000Y-73695505D01*
X155485000Y-73304495D01*
X155408718Y-72920997D01*
X155259085Y-72559750D01*
X155123540Y-72356891D01*
X170978519Y-72356891D01*
X171075843Y-72631252D01*
X171224822Y-72881355D01*
X171419731Y-73097588D01*
X171653080Y-73271641D01*
X171915901Y-73396825D01*
X172063110Y-73441476D01*
X172293000Y-73320155D01*
X172293000Y-72127000D01*
X171099186Y-72127000D01*
X170978519Y-72356891D01*
X155123540Y-72356891D01*
X155041851Y-72234636D01*
X154765364Y-71958149D01*
X154440250Y-71740915D01*
X154079003Y-71591282D01*
X153695505Y-71515000D01*
X153304495Y-71515000D01*
X152920997Y-71591282D01*
X152559750Y-71740915D01*
X152234636Y-71958149D01*
X151958149Y-72234636D01*
X151740915Y-72559750D01*
X151591282Y-72920997D01*
X151515000Y-73304495D01*
X150660000Y-73304495D01*
X150660000Y-70660000D01*
X171796598Y-70660000D01*
X171653080Y-70728359D01*
X171653080Y-70728359D01*
G37*
X171653080Y-70728359D02*
X171419731Y-70902412D01*
X171224822Y-71118645D01*
X171075843Y-71368748D01*
X170978519Y-71643109D01*
X171099186Y-71873000D01*
X172293000Y-71873000D01*
X172293000Y-71853000D01*
X172547000Y-71853000D01*
X172547000Y-71873000D01*
X172567000Y-71873000D01*
X172567000Y-72127000D01*
X172547000Y-72127000D01*
X172547000Y-73320155D01*
X172776890Y-73441476D01*
X172924099Y-73396825D01*
X173186920Y-73271641D01*
X173420269Y-73097588D01*
X173615178Y-72881355D01*
X173684799Y-72764477D01*
X173719294Y-72829014D01*
X173904866Y-73055134D01*
X174130986Y-73240706D01*
X174388966Y-73378599D01*
X174668889Y-73463513D01*
X174887050Y-73485000D01*
X175032950Y-73485000D01*
X175251111Y-73463513D01*
X175531034Y-73378599D01*
X175789014Y-73240706D01*
X176015134Y-73055134D01*
X176039607Y-73025313D01*
X176060498Y-73094180D01*
X176119463Y-73204494D01*
X176198815Y-73301185D01*
X176295506Y-73380537D01*
X176405820Y-73439502D01*
X176525518Y-73475812D01*
X176650000Y-73488072D01*
X178350000Y-73488072D01*
X178474482Y-73475812D01*
X178594180Y-73439502D01*
X178704494Y-73380537D01*
X178797151Y-73304495D01*
X194515000Y-73304495D01*
X194515000Y-73695505D01*
X194591282Y-74079003D01*
X194740915Y-74440250D01*
X194958149Y-74765364D01*
X195234636Y-75041851D01*
X195559750Y-75259085D01*
X195920997Y-75408718D01*
X196304495Y-75485000D01*
X196695505Y-75485000D01*
X197079003Y-75408718D01*
X197440250Y-75259085D01*
X197765364Y-75041851D01*
X198041851Y-74765364D01*
X198259085Y-74440250D01*
X198408718Y-74079003D01*
X198485000Y-73695505D01*
X198485000Y-73304495D01*
X198408718Y-72920997D01*
X198259085Y-72559750D01*
X198041851Y-72234636D01*
X197765364Y-71958149D01*
X197440250Y-71740915D01*
X197079003Y-71591282D01*
X196695505Y-71515000D01*
X196304495Y-71515000D01*
X195920997Y-71591282D01*
X195559750Y-71740915D01*
X195234636Y-71958149D01*
X194958149Y-72234636D01*
X194740915Y-72559750D01*
X194591282Y-72920997D01*
X194515000Y-73304495D01*
X178797151Y-73304495D01*
X178801185Y-73301185D01*
X178880537Y-73204494D01*
X178939502Y-73094180D01*
X178975812Y-72974482D01*
X178988072Y-72850000D01*
X178988072Y-71150000D01*
X178975812Y-71025518D01*
X178939502Y-70905820D01*
X178880537Y-70795506D01*
X178801185Y-70698815D01*
X178753889Y-70660000D01*
X199340001Y-70660000D01*
X199340000Y-119340000D01*
X178223248Y-119340000D01*
X178409014Y-119240706D01*
X178635134Y-119055134D01*
X178820706Y-118829014D01*
X178958599Y-118571034D01*
X179043513Y-118291111D01*
X179072185Y-118000000D01*
X179043513Y-117708889D01*
X178958599Y-117428966D01*
X178820706Y-117170986D01*
X178635134Y-116944866D01*
X178409014Y-116759294D01*
X178151034Y-116621401D01*
X177871111Y-116536487D01*
X177652950Y-116515000D01*
X177507050Y-116515000D01*
X177288889Y-116536487D01*
X177214005Y-116559203D01*
X176959297Y-116304495D01*
X194515000Y-116304495D01*
X194515000Y-116695505D01*
X194591282Y-117079003D01*
X194740915Y-117440250D01*
X194958149Y-117765364D01*
X195234636Y-118041851D01*
X195559750Y-118259085D01*
X195920997Y-118408718D01*
X196304495Y-118485000D01*
X196695505Y-118485000D01*
X197079003Y-118408718D01*
X197440250Y-118259085D01*
X197765364Y-118041851D01*
X198041851Y-117765364D01*
X198259085Y-117440250D01*
X198408718Y-117079003D01*
X198485000Y-116695505D01*
X198485000Y-116304495D01*
X198408718Y-115920997D01*
X198259085Y-115559750D01*
X198041851Y-115234636D01*
X197765364Y-114958149D01*
X197440250Y-114740915D01*
X197079003Y-114591282D01*
X196695505Y-114515000D01*
X196304495Y-114515000D01*
X195920997Y-114591282D01*
X195559750Y-114740915D01*
X195234636Y-114958149D01*
X194958149Y-115234636D01*
X194740915Y-115559750D01*
X194591282Y-115920997D01*
X194515000Y-116304495D01*
X176959297Y-116304495D01*
X176166411Y-115511610D01*
X176142608Y-115482606D01*
X176026883Y-115387633D01*
X175894854Y-115317061D01*
X175751593Y-115273604D01*
X175639940Y-115262607D01*
X175639929Y-115262607D01*
X175602607Y-115258931D01*
X175565285Y-115262607D01*
X169928369Y-115262607D01*
X169884432Y-115218670D01*
X169714914Y-115105402D01*
X169526556Y-115027381D01*
X169326597Y-114987607D01*
X169122719Y-114987607D01*
X168922760Y-115027381D01*
X168734402Y-115105402D01*
X168564884Y-115218670D01*
X168420721Y-115362833D01*
X168307453Y-115532351D01*
X168298929Y-115552930D01*
X167809990Y-115063992D01*
X167809990Y-115001854D01*
X167770216Y-114801895D01*
X167692195Y-114613537D01*
X167578927Y-114444019D01*
X167434764Y-114299856D01*
X167265246Y-114186588D01*
X167076888Y-114108567D01*
X166876929Y-114068793D01*
X166673051Y-114068793D01*
X166473092Y-114108567D01*
X166284734Y-114186588D01*
X166115216Y-114299856D01*
X165971053Y-114444019D01*
X165857785Y-114613537D01*
X165779764Y-114801895D01*
X165739990Y-115001854D01*
X165739990Y-115205732D01*
X165779764Y-115405691D01*
X165857785Y-115594049D01*
X165971053Y-115763567D01*
X166115216Y-115907730D01*
X166284734Y-116020998D01*
X166473092Y-116099019D01*
X166673051Y-116138793D01*
X166735189Y-116138793D01*
X167932396Y-117336001D01*
X167956195Y-117365000D01*
X168071920Y-117459973D01*
X168203949Y-117530545D01*
X168347210Y-117574002D01*
X168458863Y-117584999D01*
X168458873Y-117584999D01*
X168496196Y-117588675D01*
X168533519Y-117584999D01*
X171014296Y-117584999D01*
X171015000Y-117714250D01*
X171173750Y-117873000D01*
X172373000Y-117873000D01*
X172373000Y-117853000D01*
X172627000Y-117853000D01*
X172627000Y-117873000D01*
X172647000Y-117873000D01*
X172647000Y-118127000D01*
X172627000Y-118127000D01*
X172627000Y-118147000D01*
X172373000Y-118147000D01*
X172373000Y-118127000D01*
X171173750Y-118127000D01*
X171015000Y-118285750D01*
X171011928Y-118850000D01*
X171024188Y-118974482D01*
X171060498Y-119094180D01*
X171119463Y-119204494D01*
X171198815Y-119301185D01*
X171246111Y-119340000D01*
X150660000Y-119340000D01*
X150660000Y-116304495D01*
X151515000Y-116304495D01*
X151515000Y-116695505D01*
X151591282Y-117079003D01*
X151740915Y-117440250D01*
X151958149Y-117765364D01*
X152234636Y-118041851D01*
X152559750Y-118259085D01*
X152920997Y-118408718D01*
X153304495Y-118485000D01*
X153695505Y-118485000D01*
X154079003Y-118408718D01*
X154440250Y-118259085D01*
X154765364Y-118041851D01*
X155041851Y-117765364D01*
X155259085Y-117440250D01*
X155408718Y-117079003D01*
X155485000Y-116695505D01*
X155485000Y-116304495D01*
X155408718Y-115920997D01*
X155259085Y-115559750D01*
X155041851Y-115234636D01*
X154765364Y-114958149D01*
X154440250Y-114740915D01*
X154079003Y-114591282D01*
X153695505Y-114515000D01*
X153304495Y-114515000D01*
X152920997Y-114591282D01*
X152559750Y-114740915D01*
X152234636Y-114958149D01*
X151958149Y-115234636D01*
X151740915Y-115559750D01*
X151591282Y-115920997D01*
X151515000Y-116304495D01*
X150660000Y-116304495D01*
X150660000Y-114035000D01*
X150726939Y-114035000D01*
X150926898Y-113995226D01*
X151115256Y-113917205D01*
X151284774Y-113803937D01*
X151328711Y-113760000D01*
X156685199Y-113760000D01*
X157465000Y-114539802D01*
X157465000Y-114601939D01*
X157504774Y-114801898D01*
X157582795Y-114990256D01*
X157696063Y-115159774D01*
X157840226Y-115303937D01*
X158009744Y-115417205D01*
X158198102Y-115495226D01*
X158398061Y-115535000D01*
X158601939Y-115535000D01*
X158801898Y-115495226D01*
X158990256Y-115417205D01*
X159159774Y-115303937D01*
X159303937Y-115159774D01*
X159417205Y-114990256D01*
X159495226Y-114801898D01*
X159535000Y-114601939D01*
X159535000Y-114398061D01*
X159495226Y-114198102D01*
X159417205Y-114009744D01*
X159303937Y-113840226D01*
X159159774Y-113696063D01*
X158990256Y-113582795D01*
X158801898Y-113504774D01*
X158601939Y-113465000D01*
X158539802Y-113465000D01*
X157563804Y-112489003D01*
X157540001Y-112459999D01*
X157424276Y-112365026D01*
X157292247Y-112294454D01*
X157178665Y-112260000D01*
X157962675Y-112260000D01*
X158000000Y-112263676D01*
X158037325Y-112260000D01*
X163296289Y-112260000D01*
X163340226Y-112303937D01*
X163509744Y-112417205D01*
X163698102Y-112495226D01*
X163898061Y-112535000D01*
X164101939Y-112535000D01*
X164301898Y-112495226D01*
X164490256Y-112417205D01*
X164659774Y-112303937D01*
X164803937Y-112159774D01*
X164917205Y-111990256D01*
X164995226Y-111801898D01*
X165035000Y-111601939D01*
X165035000Y-111398061D01*
X164995226Y-111198102D01*
X164917205Y-111009744D01*
X164803937Y-110840226D01*
X164659774Y-110696063D01*
X164490256Y-110582795D01*
X164301898Y-110504774D01*
X164101939Y-110465000D01*
X163898061Y-110465000D01*
X163698102Y-110504774D01*
X163509744Y-110582795D01*
X163340226Y-110696063D01*
X163296289Y-110740000D01*
X160507538Y-110740000D01*
X160535000Y-110601939D01*
X160535000Y-110398061D01*
X160507538Y-110260000D01*
X161796289Y-110260000D01*
X161840226Y-110303937D01*
X162009744Y-110417205D01*
X162198102Y-110495226D01*
X162398061Y-110535000D01*
X162601939Y-110535000D01*
X162801898Y-110495226D01*
X162990256Y-110417205D01*
X163159774Y-110303937D01*
X163303937Y-110159774D01*
X163417205Y-109990256D01*
X163495226Y-109801898D01*
X163535000Y-109601939D01*
X163535000Y-109398061D01*
X163495226Y-109198102D01*
X163417205Y-109009744D01*
X163303937Y-108840226D01*
X163159774Y-108696063D01*
X162990256Y-108582795D01*
X162801898Y-108504774D01*
X162601939Y-108465000D01*
X162398061Y-108465000D01*
X162198102Y-108504774D01*
X162009744Y-108582795D01*
X161840226Y-108696063D01*
X161796289Y-108740000D01*
X161507538Y-108740000D01*
X161535000Y-108601939D01*
X161535000Y-108398061D01*
X161495226Y-108198102D01*
X161417205Y-108009744D01*
X161303937Y-107840226D01*
X161159774Y-107696063D01*
X160990256Y-107582795D01*
X160801898Y-107504774D01*
X160601939Y-107465000D01*
X160398061Y-107465000D01*
X160198102Y-107504774D01*
X160009744Y-107582795D01*
X159840226Y-107696063D01*
X159796289Y-107740000D01*
X159785000Y-107740000D01*
X159785000Y-107648061D01*
X159745226Y-107448102D01*
X159667205Y-107259744D01*
X159553937Y-107090226D01*
X159409774Y-106946063D01*
X159240256Y-106832795D01*
X159051898Y-106754774D01*
X158851939Y-106715000D01*
X158648061Y-106715000D01*
X158448102Y-106754774D01*
X158259744Y-106832795D01*
X158090226Y-106946063D01*
X158046289Y-106990000D01*
X156253560Y-106990000D01*
X156245226Y-106948102D01*
X156167205Y-106759744D01*
X156053937Y-106590226D01*
X155909774Y-106446063D01*
X155740256Y-106332795D01*
X155551898Y-106254774D01*
X155351939Y-106215000D01*
X155148061Y-106215000D01*
X154948102Y-106254774D01*
X154759744Y-106332795D01*
X154709361Y-106366460D01*
X154709361Y-104497466D01*
X154898061Y-104535000D01*
X154960199Y-104535000D01*
X155465000Y-105039802D01*
X155465000Y-105101939D01*
X155504774Y-105301898D01*
X155582795Y-105490256D01*
X155696063Y-105659774D01*
X155840226Y-105803937D01*
X156009744Y-105917205D01*
X156198102Y-105995226D01*
X156398061Y-106035000D01*
X156601939Y-106035000D01*
X156801898Y-105995226D01*
X156990256Y-105917205D01*
X157159774Y-105803937D01*
X157303937Y-105659774D01*
X157417205Y-105490256D01*
X157495226Y-105301898D01*
X157535000Y-105101939D01*
X157535000Y-104898061D01*
X157495226Y-104698102D01*
X157417205Y-104509744D01*
X157303937Y-104340226D01*
X157159774Y-104196063D01*
X156990256Y-104082795D01*
X156801898Y-104004774D01*
X156601939Y-103965000D01*
X156539802Y-103965000D01*
X156035000Y-103460199D01*
X156035000Y-103398061D01*
X155995226Y-103198102D01*
X155917205Y-103009744D01*
X155803937Y-102840226D01*
X155659774Y-102696063D01*
X155490256Y-102582795D01*
X155301898Y-102504774D01*
X155101939Y-102465000D01*
X154898061Y-102465000D01*
X154709361Y-102502534D01*
X154709361Y-102158328D01*
X155814792Y-101052898D01*
X155874651Y-101052898D01*
X155946063Y-101159774D01*
X156090226Y-101303937D01*
X156259744Y-101417205D01*
X156448102Y-101495226D01*
X156648061Y-101535000D01*
X156851939Y-101535000D01*
X157051898Y-101495226D01*
X157240256Y-101417205D01*
X157409774Y-101303937D01*
X157553937Y-101159774D01*
X157667205Y-100990256D01*
X157745226Y-100801898D01*
X157785000Y-100601939D01*
X157785000Y-100398061D01*
X157745226Y-100198102D01*
X157667205Y-100009744D01*
X157553937Y-99840226D01*
X157409774Y-99696063D01*
X157401217Y-99690345D01*
X157401217Y-92923584D01*
X158926740Y-91398061D01*
X162715000Y-91398061D01*
X162715000Y-91601939D01*
X162740000Y-91727624D01*
X162740001Y-96200382D01*
X162735114Y-96250000D01*
X162754615Y-96447994D01*
X162812368Y-96638379D01*
X162812369Y-96638380D01*
X162906154Y-96813840D01*
X163032368Y-96967633D01*
X163070903Y-96999257D01*
X163124867Y-97053222D01*
X163196063Y-97159774D01*
X163340226Y-97303937D01*
X163509744Y-97417205D01*
X163698102Y-97495226D01*
X163898061Y-97535000D01*
X164101939Y-97535000D01*
X164301898Y-97495226D01*
X164490256Y-97417205D01*
X164659774Y-97303937D01*
X164803937Y-97159774D01*
X164917205Y-96990256D01*
X164995226Y-96801898D01*
X165035000Y-96601939D01*
X165035000Y-96398061D01*
X164995226Y-96198102D01*
X164917205Y-96009744D01*
X164891968Y-95971974D01*
X164948102Y-95995226D01*
X165148061Y-96035000D01*
X165351939Y-96035000D01*
X165358751Y-96033645D01*
X165358750Y-102903626D01*
X165333750Y-103029311D01*
X165333750Y-103233189D01*
X165373524Y-103433148D01*
X165451545Y-103621506D01*
X165564813Y-103791024D01*
X165708976Y-103935187D01*
X165878494Y-104048455D01*
X166066852Y-104126476D01*
X166266811Y-104166250D01*
X166470689Y-104166250D01*
X166670648Y-104126476D01*
X166859006Y-104048455D01*
X167028524Y-103935187D01*
X167172687Y-103791024D01*
X167285955Y-103621506D01*
X167363976Y-103433148D01*
X167403750Y-103233189D01*
X167403750Y-103029311D01*
X167378750Y-102903627D01*
X167378750Y-89911371D01*
X167383636Y-89861766D01*
X167376789Y-89792247D01*
X167364135Y-89663773D01*
X167310932Y-89488386D01*
X167313367Y-89487647D01*
X167488827Y-89393862D01*
X167642620Y-89267648D01*
X167674248Y-89229109D01*
X167893357Y-89010000D01*
X183772377Y-89010000D01*
X183898061Y-89035000D01*
X184101939Y-89035000D01*
X184301898Y-88995226D01*
X184490256Y-88917205D01*
X184659774Y-88803937D01*
X184803937Y-88659774D01*
X184917205Y-88490256D01*
X184995226Y-88301898D01*
X185035000Y-88101939D01*
X185035000Y-88035000D01*
X185101939Y-88035000D01*
X185301898Y-87995226D01*
X185490256Y-87917205D01*
X185659774Y-87803937D01*
X185803937Y-87659774D01*
X185917205Y-87490256D01*
X185995226Y-87301898D01*
X186035000Y-87101939D01*
X186035000Y-86898061D01*
X185995226Y-86698102D01*
X185917205Y-86509744D01*
X185803937Y-86340226D01*
X185659774Y-86196063D01*
X185490256Y-86082795D01*
X185301898Y-86004774D01*
X185101939Y-85965000D01*
X184898061Y-85965000D01*
X184772377Y-85990000D01*
X167099606Y-85990000D01*
X167050001Y-85985114D01*
X167000396Y-85990000D01*
X167000394Y-85990000D01*
X166852008Y-86004615D01*
X166661622Y-86062368D01*
X166486162Y-86156153D01*
X166332369Y-86282367D01*
X166300737Y-86320911D01*
X166025001Y-86596646D01*
X165375133Y-85946779D01*
X165303937Y-85840226D01*
X165159774Y-85696063D01*
X164990256Y-85582795D01*
X164801898Y-85504774D01*
X164601939Y-85465000D01*
X164398061Y-85465000D01*
X164198102Y-85504774D01*
X164009744Y-85582795D01*
X163840226Y-85696063D01*
X163696063Y-85840226D01*
X163582795Y-86009744D01*
X163504774Y-86198102D01*
X163465000Y-86398061D01*
X163465000Y-86601939D01*
X163504774Y-86801898D01*
X163582795Y-86990256D01*
X163696063Y-87159774D01*
X163840226Y-87303937D01*
X163946773Y-87375129D01*
X164515000Y-87943356D01*
X164514999Y-88968408D01*
X164510113Y-89018016D01*
X164529614Y-89216010D01*
X164575431Y-89367047D01*
X164587367Y-89406395D01*
X164681152Y-89581856D01*
X164709483Y-89616378D01*
X164590226Y-89696063D01*
X164446063Y-89840226D01*
X164332795Y-90009744D01*
X164254774Y-90198102D01*
X164215000Y-90398061D01*
X164215000Y-90572334D01*
X164051898Y-90504774D01*
X163851939Y-90465000D01*
X163648061Y-90465000D01*
X163448102Y-90504774D01*
X163259744Y-90582795D01*
X163090226Y-90696063D01*
X162946063Y-90840226D01*
X162832795Y-91009744D01*
X162754774Y-91198102D01*
X162715000Y-91398061D01*
X158926740Y-91398061D01*
X159789802Y-90535000D01*
X159851939Y-90535000D01*
X160051898Y-90495226D01*
X160240256Y-90417205D01*
X160409774Y-90303937D01*
X160553937Y-90159774D01*
X160667205Y-89990256D01*
X160745226Y-89801898D01*
X160785000Y-89601939D01*
X160785000Y-89398061D01*
X160745226Y-89198102D01*
X160671902Y-89021084D01*
X160801898Y-88995226D01*
X160990256Y-88917205D01*
X161159774Y-88803937D01*
X161303937Y-88659774D01*
X161417205Y-88490256D01*
X161495226Y-88301898D01*
X161535000Y-88101939D01*
X161535000Y-87898061D01*
X161495226Y-87698102D01*
X161417205Y-87509744D01*
X161303937Y-87340226D01*
X161159774Y-87196063D01*
X160990256Y-87082795D01*
X160801898Y-87004774D01*
X160601939Y-86965000D01*
X160398061Y-86965000D01*
X160272377Y-86990000D01*
X152257538Y-86990000D01*
X152285000Y-86851939D01*
X152285000Y-86648061D01*
X152245226Y-86448102D01*
X152167205Y-86259744D01*
X152053937Y-86090226D01*
X151909774Y-85946063D01*
X151740256Y-85832795D01*
X151551898Y-85754774D01*
X151351939Y-85715000D01*
X151148061Y-85715000D01*
X150948102Y-85754774D01*
X150759744Y-85832795D01*
X150660000Y-85899442D01*
X150660000Y-81648061D01*
X157965000Y-81648061D01*
X157965000Y-81851939D01*
X158004774Y-82051898D01*
X158082795Y-82240256D01*
X158196063Y-82409774D01*
X158340226Y-82553937D01*
X158509744Y-82667205D01*
X158698102Y-82745226D01*
X158898061Y-82785000D01*
X159101939Y-82785000D01*
X159301898Y-82745226D01*
X159490256Y-82667205D01*
X159659774Y-82553937D01*
X159803937Y-82409774D01*
X159904013Y-82260000D01*
X173296289Y-82260000D01*
X173340226Y-82303937D01*
X173509744Y-82417205D01*
X173698102Y-82495226D01*
X173898061Y-82535000D01*
X174101939Y-82535000D01*
X174301898Y-82495226D01*
X174490256Y-82417205D01*
X174659774Y-82303937D01*
X174803937Y-82159774D01*
X174917205Y-81990256D01*
X174995226Y-81801898D01*
X175035000Y-81601939D01*
X175035000Y-81398061D01*
X174995226Y-81198102D01*
X174917205Y-81009744D01*
X174803937Y-80840226D01*
X174659774Y-80696063D01*
X174490256Y-80582795D01*
X174301898Y-80504774D01*
X174101939Y-80465000D01*
X173898061Y-80465000D01*
X173698102Y-80504774D01*
X173509744Y-80582795D01*
X173340226Y-80696063D01*
X173296289Y-80740000D01*
X159287322Y-80740000D01*
X159249999Y-80736324D01*
X159222673Y-80739015D01*
X159101939Y-80715000D01*
X158898061Y-80715000D01*
X158698102Y-80754774D01*
X158509744Y-80832795D01*
X158340226Y-80946063D01*
X158196063Y-81090226D01*
X158082795Y-81259744D01*
X158004774Y-81448102D01*
X157965000Y-81648061D01*
X150660000Y-81648061D01*
X150660000Y-73304495D01*
X151515000Y-73304495D01*
X151515000Y-73695505D01*
X151591282Y-74079003D01*
X151740915Y-74440250D01*
X151958149Y-74765364D01*
X152234636Y-75041851D01*
X152559750Y-75259085D01*
X152920997Y-75408718D01*
X153304495Y-75485000D01*
X153695505Y-75485000D01*
X154079003Y-75408718D01*
X154440250Y-75259085D01*
X154765364Y-75041851D01*
X155041851Y-74765364D01*
X155259085Y-74440250D01*
X155408718Y-74079003D01*
X155485000Y-73695505D01*
X155485000Y-73304495D01*
X155408718Y-72920997D01*
X155259085Y-72559750D01*
X155123540Y-72356891D01*
X170978519Y-72356891D01*
X171075843Y-72631252D01*
X171224822Y-72881355D01*
X171419731Y-73097588D01*
X171653080Y-73271641D01*
X171915901Y-73396825D01*
X172063110Y-73441476D01*
X172293000Y-73320155D01*
X172293000Y-72127000D01*
X171099186Y-72127000D01*
X170978519Y-72356891D01*
X155123540Y-72356891D01*
X155041851Y-72234636D01*
X154765364Y-71958149D01*
X154440250Y-71740915D01*
X154079003Y-71591282D01*
X153695505Y-71515000D01*
X153304495Y-71515000D01*
X152920997Y-71591282D01*
X152559750Y-71740915D01*
X152234636Y-71958149D01*
X151958149Y-72234636D01*
X151740915Y-72559750D01*
X151591282Y-72920997D01*
X151515000Y-73304495D01*
X150660000Y-73304495D01*
X150660000Y-70660000D01*
X171796598Y-70660000D01*
X171653080Y-70728359D01*
G36*
X158754774Y-89198102D02*
G01*
X158715000Y-89398061D01*
X158715000Y-89460198D01*
X156130220Y-92044979D01*
X156101216Y-92068782D01*
X156046088Y-92135957D01*
X156006243Y-92184507D01*
X155942406Y-92303937D01*
X155935671Y-92316537D01*
X155892214Y-92459798D01*
X155881217Y-92571451D01*
X155881217Y-92571461D01*
X155877541Y-92608783D01*
X155881217Y-92646105D01*
X155881218Y-98983751D01*
X155876929Y-98982898D01*
X155673051Y-98982898D01*
X155473092Y-99022672D01*
X155284734Y-99100693D01*
X155115216Y-99213961D01*
X154971053Y-99358124D01*
X154857785Y-99527642D01*
X154779764Y-99716000D01*
X154739990Y-99915959D01*
X154739990Y-99978096D01*
X154499334Y-100218753D01*
X154495226Y-100198102D01*
X154417205Y-100009744D01*
X154303937Y-99840226D01*
X154260000Y-99796289D01*
X154260000Y-91203711D01*
X154303937Y-91159774D01*
X154417205Y-90990256D01*
X154495226Y-90801898D01*
X154535000Y-90601939D01*
X154535000Y-90398061D01*
X154495226Y-90198102D01*
X154417205Y-90009744D01*
X154303937Y-89840226D01*
X154159774Y-89696063D01*
X153990256Y-89582795D01*
X153801898Y-89504774D01*
X153601939Y-89465000D01*
X153398061Y-89465000D01*
X153198102Y-89504774D01*
X153009744Y-89582795D01*
X152840226Y-89696063D01*
X152696063Y-89840226D01*
X152582795Y-90009744D01*
X152510000Y-90185485D01*
X152510000Y-89360327D01*
X152513676Y-89323002D01*
X152510000Y-89285677D01*
X152510000Y-89285669D01*
X152499003Y-89174016D01*
X152455546Y-89030755D01*
X152444452Y-89010000D01*
X158832689Y-89010000D01*
X158754774Y-89198102D01*
X158754774Y-89198102D01*
G37*
X158754774Y-89198102D02*
X158715000Y-89398061D01*
X158715000Y-89460198D01*
X156130220Y-92044979D01*
X156101216Y-92068782D01*
X156046088Y-92135957D01*
X156006243Y-92184507D01*
X155942406Y-92303937D01*
X155935671Y-92316537D01*
X155892214Y-92459798D01*
X155881217Y-92571451D01*
X155881217Y-92571461D01*
X155877541Y-92608783D01*
X155881217Y-92646105D01*
X155881218Y-98983751D01*
X155876929Y-98982898D01*
X155673051Y-98982898D01*
X155473092Y-99022672D01*
X155284734Y-99100693D01*
X155115216Y-99213961D01*
X154971053Y-99358124D01*
X154857785Y-99527642D01*
X154779764Y-99716000D01*
X154739990Y-99915959D01*
X154739990Y-99978096D01*
X154499334Y-100218753D01*
X154495226Y-100198102D01*
X154417205Y-100009744D01*
X154303937Y-99840226D01*
X154260000Y-99796289D01*
X154260000Y-91203711D01*
X154303937Y-91159774D01*
X154417205Y-90990256D01*
X154495226Y-90801898D01*
X154535000Y-90601939D01*
X154535000Y-90398061D01*
X154495226Y-90198102D01*
X154417205Y-90009744D01*
X154303937Y-89840226D01*
X154159774Y-89696063D01*
X153990256Y-89582795D01*
X153801898Y-89504774D01*
X153601939Y-89465000D01*
X153398061Y-89465000D01*
X153198102Y-89504774D01*
X153009744Y-89582795D01*
X152840226Y-89696063D01*
X152696063Y-89840226D01*
X152582795Y-90009744D01*
X152510000Y-90185485D01*
X152510000Y-89360327D01*
X152513676Y-89323002D01*
X152510000Y-89285677D01*
X152510000Y-89285669D01*
X152499003Y-89174016D01*
X152455546Y-89030755D01*
X152444452Y-89010000D01*
X158832689Y-89010000D01*
X158754774Y-89198102D01*
M02*
