G04 #@! TF.GenerationSoftware,KiCad,Pcbnew,5.1.4-e60b266~84~ubuntu18.04.1*
G04 #@! TF.CreationDate,2019-11-17T15:23:13-07:00*
G04 #@! TF.ProjectId,cob_single,636f625f-7369-46e6-976c-652e6b696361,rev?*
G04 #@! TF.SameCoordinates,Original*
G04 #@! TF.FileFunction,Soldermask,Bot*
G04 #@! TF.FilePolarity,Negative*
%FSLAX46Y46*%
G04 Gerber Fmt 4.6, Leading zero omitted, Abs format (unit mm)*
G04 Created by KiCad (PCBNEW 5.1.4-e60b266~84~ubuntu18.04.1) date 2019-11-17 15:23:13*
%MOMM*%
%LPD*%
G04 APERTURE LIST*
%ADD10C,0.100000*%
G04 APERTURE END LIST*
D10*
G36*
X175150443Y-117105519D02*
G01*
X175216627Y-117112037D01*
X175386466Y-117163557D01*
X175542991Y-117247222D01*
X175578729Y-117276552D01*
X175680186Y-117359814D01*
X175763448Y-117461271D01*
X175792778Y-117497009D01*
X175876443Y-117653534D01*
X175927963Y-117823373D01*
X175945359Y-118000000D01*
X175927963Y-118176627D01*
X175876443Y-118346466D01*
X175792778Y-118502991D01*
X175763448Y-118538729D01*
X175680186Y-118640186D01*
X175578729Y-118723448D01*
X175542991Y-118752778D01*
X175386466Y-118836443D01*
X175216627Y-118887963D01*
X175150442Y-118894482D01*
X175084260Y-118901000D01*
X174995740Y-118901000D01*
X174929558Y-118894482D01*
X174863373Y-118887963D01*
X174693534Y-118836443D01*
X174537009Y-118752778D01*
X174501271Y-118723448D01*
X174399814Y-118640186D01*
X174316552Y-118538729D01*
X174287222Y-118502991D01*
X174203557Y-118346466D01*
X174152037Y-118176627D01*
X174134641Y-118000000D01*
X174152037Y-117823373D01*
X174203557Y-117653534D01*
X174287222Y-117497009D01*
X174316552Y-117461271D01*
X174399814Y-117359814D01*
X174501271Y-117276552D01*
X174537009Y-117247222D01*
X174693534Y-117163557D01*
X174863373Y-117112037D01*
X174929557Y-117105519D01*
X174995740Y-117099000D01*
X175084260Y-117099000D01*
X175150443Y-117105519D01*
X175150443Y-117105519D01*
G37*
G36*
X173401000Y-118901000D02*
G01*
X171599000Y-118901000D01*
X171599000Y-117099000D01*
X173401000Y-117099000D01*
X173401000Y-118901000D01*
X173401000Y-118901000D01*
G37*
G36*
X177690443Y-117105519D02*
G01*
X177756627Y-117112037D01*
X177926466Y-117163557D01*
X178082991Y-117247222D01*
X178118729Y-117276552D01*
X178220186Y-117359814D01*
X178303448Y-117461271D01*
X178332778Y-117497009D01*
X178416443Y-117653534D01*
X178467963Y-117823373D01*
X178485359Y-118000000D01*
X178467963Y-118176627D01*
X178416443Y-118346466D01*
X178332778Y-118502991D01*
X178303448Y-118538729D01*
X178220186Y-118640186D01*
X178118729Y-118723448D01*
X178082991Y-118752778D01*
X177926466Y-118836443D01*
X177756627Y-118887963D01*
X177690442Y-118894482D01*
X177624260Y-118901000D01*
X177535740Y-118901000D01*
X177469558Y-118894482D01*
X177403373Y-118887963D01*
X177233534Y-118836443D01*
X177077009Y-118752778D01*
X177041271Y-118723448D01*
X176939814Y-118640186D01*
X176856552Y-118538729D01*
X176827222Y-118502991D01*
X176743557Y-118346466D01*
X176692037Y-118176627D01*
X176674641Y-118000000D01*
X176692037Y-117823373D01*
X176743557Y-117653534D01*
X176827222Y-117497009D01*
X176856552Y-117461271D01*
X176939814Y-117359814D01*
X177041271Y-117276552D01*
X177077009Y-117247222D01*
X177233534Y-117163557D01*
X177403373Y-117112037D01*
X177469557Y-117105519D01*
X177535740Y-117099000D01*
X177624260Y-117099000D01*
X177690443Y-117105519D01*
X177690443Y-117105519D01*
G37*
G36*
X153818433Y-115134893D02*
G01*
X153908657Y-115152839D01*
X154014267Y-115196585D01*
X154163621Y-115258449D01*
X154163622Y-115258450D01*
X154393086Y-115411772D01*
X154588228Y-115606914D01*
X154690675Y-115760237D01*
X154741551Y-115836379D01*
X154847161Y-116091344D01*
X154901000Y-116362012D01*
X154901000Y-116637988D01*
X154847161Y-116908656D01*
X154741551Y-117163621D01*
X154741550Y-117163622D01*
X154588228Y-117393086D01*
X154393086Y-117588228D01*
X154295351Y-117653532D01*
X154163621Y-117741551D01*
X154014267Y-117803415D01*
X153908657Y-117847161D01*
X153818433Y-117865107D01*
X153637988Y-117901000D01*
X153362012Y-117901000D01*
X153181567Y-117865107D01*
X153091343Y-117847161D01*
X152985733Y-117803415D01*
X152836379Y-117741551D01*
X152704649Y-117653532D01*
X152606914Y-117588228D01*
X152411772Y-117393086D01*
X152258450Y-117163622D01*
X152258449Y-117163621D01*
X152152839Y-116908656D01*
X152099000Y-116637988D01*
X152099000Y-116362012D01*
X152152839Y-116091344D01*
X152258449Y-115836379D01*
X152309325Y-115760237D01*
X152411772Y-115606914D01*
X152606914Y-115411772D01*
X152836378Y-115258450D01*
X152836379Y-115258449D01*
X152985733Y-115196585D01*
X153091343Y-115152839D01*
X153181567Y-115134893D01*
X153362012Y-115099000D01*
X153637988Y-115099000D01*
X153818433Y-115134893D01*
X153818433Y-115134893D01*
G37*
G36*
X196818433Y-115134893D02*
G01*
X196908657Y-115152839D01*
X197014267Y-115196585D01*
X197163621Y-115258449D01*
X197163622Y-115258450D01*
X197393086Y-115411772D01*
X197588228Y-115606914D01*
X197690675Y-115760237D01*
X197741551Y-115836379D01*
X197847161Y-116091344D01*
X197901000Y-116362012D01*
X197901000Y-116637988D01*
X197847161Y-116908656D01*
X197741551Y-117163621D01*
X197741550Y-117163622D01*
X197588228Y-117393086D01*
X197393086Y-117588228D01*
X197295351Y-117653532D01*
X197163621Y-117741551D01*
X197014267Y-117803415D01*
X196908657Y-117847161D01*
X196818433Y-117865107D01*
X196637988Y-117901000D01*
X196362012Y-117901000D01*
X196181567Y-117865107D01*
X196091343Y-117847161D01*
X195985733Y-117803415D01*
X195836379Y-117741551D01*
X195704649Y-117653532D01*
X195606914Y-117588228D01*
X195411772Y-117393086D01*
X195258450Y-117163622D01*
X195258449Y-117163621D01*
X195152839Y-116908656D01*
X195099000Y-116637988D01*
X195099000Y-116362012D01*
X195152839Y-116091344D01*
X195258449Y-115836379D01*
X195309325Y-115760237D01*
X195411772Y-115606914D01*
X195606914Y-115411772D01*
X195836378Y-115258450D01*
X195836379Y-115258449D01*
X195985733Y-115196585D01*
X196091343Y-115152839D01*
X196181567Y-115134893D01*
X196362012Y-115099000D01*
X196637988Y-115099000D01*
X196818433Y-115134893D01*
X196818433Y-115134893D01*
G37*
G36*
X196818433Y-72134893D02*
G01*
X196908657Y-72152839D01*
X197014267Y-72196585D01*
X197163621Y-72258449D01*
X197163622Y-72258450D01*
X197393086Y-72411772D01*
X197588228Y-72606914D01*
X197685691Y-72752778D01*
X197741551Y-72836379D01*
X197847161Y-73091344D01*
X197901000Y-73362012D01*
X197901000Y-73637988D01*
X197847161Y-73908656D01*
X197741551Y-74163621D01*
X197741550Y-74163622D01*
X197588228Y-74393086D01*
X197393086Y-74588228D01*
X197239763Y-74690675D01*
X197163621Y-74741551D01*
X197014267Y-74803415D01*
X196908657Y-74847161D01*
X196818433Y-74865107D01*
X196637988Y-74901000D01*
X196362012Y-74901000D01*
X196181567Y-74865107D01*
X196091343Y-74847161D01*
X195985733Y-74803415D01*
X195836379Y-74741551D01*
X195760237Y-74690675D01*
X195606914Y-74588228D01*
X195411772Y-74393086D01*
X195258450Y-74163622D01*
X195258449Y-74163621D01*
X195152839Y-73908656D01*
X195099000Y-73637988D01*
X195099000Y-73362012D01*
X195152839Y-73091344D01*
X195258449Y-72836379D01*
X195314309Y-72752778D01*
X195411772Y-72606914D01*
X195606914Y-72411772D01*
X195836378Y-72258450D01*
X195836379Y-72258449D01*
X195985733Y-72196585D01*
X196091343Y-72152839D01*
X196181567Y-72134893D01*
X196362012Y-72099000D01*
X196637988Y-72099000D01*
X196818433Y-72134893D01*
X196818433Y-72134893D01*
G37*
G36*
X153818433Y-72134893D02*
G01*
X153908657Y-72152839D01*
X154014267Y-72196585D01*
X154163621Y-72258449D01*
X154163622Y-72258450D01*
X154393086Y-72411772D01*
X154588228Y-72606914D01*
X154685691Y-72752778D01*
X154741551Y-72836379D01*
X154847161Y-73091344D01*
X154901000Y-73362012D01*
X154901000Y-73637988D01*
X154847161Y-73908656D01*
X154741551Y-74163621D01*
X154741550Y-74163622D01*
X154588228Y-74393086D01*
X154393086Y-74588228D01*
X154239763Y-74690675D01*
X154163621Y-74741551D01*
X154014267Y-74803415D01*
X153908657Y-74847161D01*
X153818433Y-74865107D01*
X153637988Y-74901000D01*
X153362012Y-74901000D01*
X153181567Y-74865107D01*
X153091343Y-74847161D01*
X152985733Y-74803415D01*
X152836379Y-74741551D01*
X152760237Y-74690675D01*
X152606914Y-74588228D01*
X152411772Y-74393086D01*
X152258450Y-74163622D01*
X152258449Y-74163621D01*
X152152839Y-73908656D01*
X152099000Y-73637988D01*
X152099000Y-73362012D01*
X152152839Y-73091344D01*
X152258449Y-72836379D01*
X152314309Y-72752778D01*
X152411772Y-72606914D01*
X152606914Y-72411772D01*
X152836378Y-72258450D01*
X152836379Y-72258449D01*
X152985733Y-72196585D01*
X153091343Y-72152839D01*
X153181567Y-72134893D01*
X153362012Y-72099000D01*
X153637988Y-72099000D01*
X153818433Y-72134893D01*
X153818433Y-72134893D01*
G37*
G36*
X178401000Y-72901000D02*
G01*
X176599000Y-72901000D01*
X176599000Y-71099000D01*
X178401000Y-71099000D01*
X178401000Y-72901000D01*
X178401000Y-72901000D01*
G37*
G36*
X175070443Y-71105519D02*
G01*
X175136627Y-71112037D01*
X175306466Y-71163557D01*
X175462991Y-71247222D01*
X175498729Y-71276552D01*
X175600186Y-71359814D01*
X175683448Y-71461271D01*
X175712778Y-71497009D01*
X175796443Y-71653534D01*
X175847963Y-71823373D01*
X175865359Y-72000000D01*
X175847963Y-72176627D01*
X175796443Y-72346466D01*
X175712778Y-72502991D01*
X175683448Y-72538729D01*
X175600186Y-72640186D01*
X175498729Y-72723448D01*
X175462991Y-72752778D01*
X175306466Y-72836443D01*
X175136627Y-72887963D01*
X175070443Y-72894481D01*
X175004260Y-72901000D01*
X174915740Y-72901000D01*
X174849557Y-72894481D01*
X174783373Y-72887963D01*
X174613534Y-72836443D01*
X174457009Y-72752778D01*
X174421271Y-72723448D01*
X174319814Y-72640186D01*
X174236552Y-72538729D01*
X174207222Y-72502991D01*
X174123557Y-72346466D01*
X174072037Y-72176627D01*
X174054641Y-72000000D01*
X174072037Y-71823373D01*
X174123557Y-71653534D01*
X174207222Y-71497009D01*
X174236552Y-71461271D01*
X174319814Y-71359814D01*
X174421271Y-71276552D01*
X174457009Y-71247222D01*
X174613534Y-71163557D01*
X174783373Y-71112037D01*
X174849557Y-71105519D01*
X174915740Y-71099000D01*
X175004260Y-71099000D01*
X175070443Y-71105519D01*
X175070443Y-71105519D01*
G37*
G36*
X172530443Y-71105519D02*
G01*
X172596627Y-71112037D01*
X172766466Y-71163557D01*
X172922991Y-71247222D01*
X172958729Y-71276552D01*
X173060186Y-71359814D01*
X173143448Y-71461271D01*
X173172778Y-71497009D01*
X173256443Y-71653534D01*
X173307963Y-71823373D01*
X173325359Y-72000000D01*
X173307963Y-72176627D01*
X173256443Y-72346466D01*
X173172778Y-72502991D01*
X173143448Y-72538729D01*
X173060186Y-72640186D01*
X172958729Y-72723448D01*
X172922991Y-72752778D01*
X172766466Y-72836443D01*
X172596627Y-72887963D01*
X172530443Y-72894481D01*
X172464260Y-72901000D01*
X172375740Y-72901000D01*
X172309557Y-72894481D01*
X172243373Y-72887963D01*
X172073534Y-72836443D01*
X171917009Y-72752778D01*
X171881271Y-72723448D01*
X171779814Y-72640186D01*
X171696552Y-72538729D01*
X171667222Y-72502991D01*
X171583557Y-72346466D01*
X171532037Y-72176627D01*
X171514641Y-72000000D01*
X171532037Y-71823373D01*
X171583557Y-71653534D01*
X171667222Y-71497009D01*
X171696552Y-71461271D01*
X171779814Y-71359814D01*
X171881271Y-71276552D01*
X171917009Y-71247222D01*
X172073534Y-71163557D01*
X172243373Y-71112037D01*
X172309557Y-71105519D01*
X172375740Y-71099000D01*
X172464260Y-71099000D01*
X172530443Y-71105519D01*
X172530443Y-71105519D01*
G37*
M02*
