G04 #@! TF.GenerationSoftware,KiCad,Pcbnew,5.1.4-e60b266~84~ubuntu18.04.1*
G04 #@! TF.CreationDate,2019-11-01T22:23:45-06:00*
G04 #@! TF.ProjectId,cob_single,636f625f-7369-46e6-976c-652e6b696361,rev?*
G04 #@! TF.SameCoordinates,Original*
G04 #@! TF.FileFunction,Soldermask,Top*
G04 #@! TF.FilePolarity,Negative*
%FSLAX46Y46*%
G04 Gerber Fmt 4.6, Leading zero omitted, Abs format (unit mm)*
G04 Created by KiCad (PCBNEW 5.1.4-e60b266~84~ubuntu18.04.1) date 2019-11-01 22:23:45*
%MOMM*%
%LPD*%
G04 APERTURE LIST*
%ADD10C,0.100000*%
G04 APERTURE END LIST*
D10*
G36*
X173401000Y-118901000D02*
G01*
X171599000Y-118901000D01*
X171599000Y-117099000D01*
X173401000Y-117099000D01*
X173401000Y-118901000D01*
X173401000Y-118901000D01*
G37*
G36*
X175150443Y-117105519D02*
G01*
X175216627Y-117112037D01*
X175386466Y-117163557D01*
X175542991Y-117247222D01*
X175578729Y-117276552D01*
X175680186Y-117359814D01*
X175763448Y-117461271D01*
X175792778Y-117497009D01*
X175876443Y-117653534D01*
X175927963Y-117823373D01*
X175945359Y-118000000D01*
X175927963Y-118176627D01*
X175876443Y-118346466D01*
X175792778Y-118502991D01*
X175777746Y-118521307D01*
X175680186Y-118640186D01*
X175578729Y-118723448D01*
X175542991Y-118752778D01*
X175386466Y-118836443D01*
X175216627Y-118887963D01*
X175150442Y-118894482D01*
X175084260Y-118901000D01*
X174995740Y-118901000D01*
X174929558Y-118894482D01*
X174863373Y-118887963D01*
X174693534Y-118836443D01*
X174537009Y-118752778D01*
X174501271Y-118723448D01*
X174399814Y-118640186D01*
X174302254Y-118521307D01*
X174287222Y-118502991D01*
X174203557Y-118346466D01*
X174152037Y-118176627D01*
X174134641Y-118000000D01*
X174152037Y-117823373D01*
X174203557Y-117653534D01*
X174287222Y-117497009D01*
X174316552Y-117461271D01*
X174399814Y-117359814D01*
X174501271Y-117276552D01*
X174537009Y-117247222D01*
X174693534Y-117163557D01*
X174863373Y-117112037D01*
X174929557Y-117105519D01*
X174995740Y-117099000D01*
X175084260Y-117099000D01*
X175150443Y-117105519D01*
X175150443Y-117105519D01*
G37*
G36*
X177690443Y-117105519D02*
G01*
X177756627Y-117112037D01*
X177926466Y-117163557D01*
X178082991Y-117247222D01*
X178118729Y-117276552D01*
X178220186Y-117359814D01*
X178303448Y-117461271D01*
X178332778Y-117497009D01*
X178416443Y-117653534D01*
X178467963Y-117823373D01*
X178485359Y-118000000D01*
X178467963Y-118176627D01*
X178416443Y-118346466D01*
X178332778Y-118502991D01*
X178317746Y-118521307D01*
X178220186Y-118640186D01*
X178118729Y-118723448D01*
X178082991Y-118752778D01*
X177926466Y-118836443D01*
X177756627Y-118887963D01*
X177690442Y-118894482D01*
X177624260Y-118901000D01*
X177535740Y-118901000D01*
X177469558Y-118894482D01*
X177403373Y-118887963D01*
X177233534Y-118836443D01*
X177077009Y-118752778D01*
X177041271Y-118723448D01*
X176939814Y-118640186D01*
X176842254Y-118521307D01*
X176827222Y-118502991D01*
X176743557Y-118346466D01*
X176692037Y-118176627D01*
X176674641Y-118000000D01*
X176692037Y-117823373D01*
X176743557Y-117653534D01*
X176827222Y-117497009D01*
X176856552Y-117461271D01*
X176939814Y-117359814D01*
X177041271Y-117276552D01*
X177077009Y-117247222D01*
X177233534Y-117163557D01*
X177403373Y-117112037D01*
X177469557Y-117105519D01*
X177535740Y-117099000D01*
X177624260Y-117099000D01*
X177690443Y-117105519D01*
X177690443Y-117105519D01*
G37*
G36*
X162679867Y-116502004D02*
G01*
X162703292Y-116509110D01*
X162724889Y-116520654D01*
X162743814Y-116536186D01*
X162759346Y-116555111D01*
X162770890Y-116576708D01*
X162777996Y-116600133D01*
X162781000Y-116630638D01*
X162781000Y-118444362D01*
X162777996Y-118474867D01*
X162770890Y-118498292D01*
X162759346Y-118519889D01*
X162743814Y-118538814D01*
X162724889Y-118554346D01*
X162703292Y-118565890D01*
X162679867Y-118572996D01*
X162649362Y-118576000D01*
X162160638Y-118576000D01*
X162130133Y-118572996D01*
X162106708Y-118565890D01*
X162085111Y-118554346D01*
X162066186Y-118538814D01*
X162050654Y-118519889D01*
X162039110Y-118498292D01*
X162032004Y-118474867D01*
X162029000Y-118444362D01*
X162029000Y-116630638D01*
X162032004Y-116600133D01*
X162039110Y-116576708D01*
X162050654Y-116555111D01*
X162066186Y-116536186D01*
X162085111Y-116520654D01*
X162106708Y-116509110D01*
X162130133Y-116502004D01*
X162160638Y-116499000D01*
X162649362Y-116499000D01*
X162679867Y-116502004D01*
X162679867Y-116502004D01*
G37*
G36*
X158869867Y-116502004D02*
G01*
X158893292Y-116509110D01*
X158914889Y-116520654D01*
X158933814Y-116536186D01*
X158949346Y-116555111D01*
X158960890Y-116576708D01*
X158967996Y-116600133D01*
X158971000Y-116630638D01*
X158971000Y-118444362D01*
X158967996Y-118474867D01*
X158960890Y-118498292D01*
X158949346Y-118519889D01*
X158933814Y-118538814D01*
X158914889Y-118554346D01*
X158893292Y-118565890D01*
X158869867Y-118572996D01*
X158839362Y-118576000D01*
X158350638Y-118576000D01*
X158320133Y-118572996D01*
X158296708Y-118565890D01*
X158275111Y-118554346D01*
X158256186Y-118538814D01*
X158240654Y-118519889D01*
X158229110Y-118498292D01*
X158222004Y-118474867D01*
X158219000Y-118444362D01*
X158219000Y-116630638D01*
X158222004Y-116600133D01*
X158229110Y-116576708D01*
X158240654Y-116555111D01*
X158256186Y-116536186D01*
X158275111Y-116520654D01*
X158296708Y-116509110D01*
X158320133Y-116502004D01*
X158350638Y-116499000D01*
X158839362Y-116499000D01*
X158869867Y-116502004D01*
X158869867Y-116502004D01*
G37*
G36*
X161409867Y-116502004D02*
G01*
X161433292Y-116509110D01*
X161454889Y-116520654D01*
X161473814Y-116536186D01*
X161489346Y-116555111D01*
X161500890Y-116576708D01*
X161507996Y-116600133D01*
X161511000Y-116630638D01*
X161511000Y-118444362D01*
X161507996Y-118474867D01*
X161500890Y-118498292D01*
X161489346Y-118519889D01*
X161473814Y-118538814D01*
X161454889Y-118554346D01*
X161433292Y-118565890D01*
X161409867Y-118572996D01*
X161379362Y-118576000D01*
X160890638Y-118576000D01*
X160860133Y-118572996D01*
X160836708Y-118565890D01*
X160815111Y-118554346D01*
X160796186Y-118538814D01*
X160780654Y-118519889D01*
X160769110Y-118498292D01*
X160762004Y-118474867D01*
X160759000Y-118444362D01*
X160759000Y-116630638D01*
X160762004Y-116600133D01*
X160769110Y-116576708D01*
X160780654Y-116555111D01*
X160796186Y-116536186D01*
X160815111Y-116520654D01*
X160836708Y-116509110D01*
X160860133Y-116502004D01*
X160890638Y-116499000D01*
X161379362Y-116499000D01*
X161409867Y-116502004D01*
X161409867Y-116502004D01*
G37*
G36*
X160139867Y-116502004D02*
G01*
X160163292Y-116509110D01*
X160184889Y-116520654D01*
X160203814Y-116536186D01*
X160219346Y-116555111D01*
X160230890Y-116576708D01*
X160237996Y-116600133D01*
X160241000Y-116630638D01*
X160241000Y-118444362D01*
X160237996Y-118474867D01*
X160230890Y-118498292D01*
X160219346Y-118519889D01*
X160203814Y-118538814D01*
X160184889Y-118554346D01*
X160163292Y-118565890D01*
X160139867Y-118572996D01*
X160109362Y-118576000D01*
X159620638Y-118576000D01*
X159590133Y-118572996D01*
X159566708Y-118565890D01*
X159545111Y-118554346D01*
X159526186Y-118538814D01*
X159510654Y-118519889D01*
X159499110Y-118498292D01*
X159492004Y-118474867D01*
X159489000Y-118444362D01*
X159489000Y-116630638D01*
X159492004Y-116600133D01*
X159499110Y-116576708D01*
X159510654Y-116555111D01*
X159526186Y-116536186D01*
X159545111Y-116520654D01*
X159566708Y-116509110D01*
X159590133Y-116502004D01*
X159620638Y-116499000D01*
X160109362Y-116499000D01*
X160139867Y-116502004D01*
X160139867Y-116502004D01*
G37*
G36*
X164554591Y-117478085D02*
G01*
X164588569Y-117488393D01*
X164619890Y-117505134D01*
X164647339Y-117527661D01*
X164669866Y-117555110D01*
X164686607Y-117586431D01*
X164696915Y-117620409D01*
X164701000Y-117661890D01*
X164701000Y-118338110D01*
X164696915Y-118379591D01*
X164686607Y-118413569D01*
X164669866Y-118444890D01*
X164647339Y-118472339D01*
X164619890Y-118494866D01*
X164588569Y-118511607D01*
X164554591Y-118521915D01*
X164513110Y-118526000D01*
X163911890Y-118526000D01*
X163870409Y-118521915D01*
X163836431Y-118511607D01*
X163805110Y-118494866D01*
X163777661Y-118472339D01*
X163755134Y-118444890D01*
X163738393Y-118413569D01*
X163728085Y-118379591D01*
X163724000Y-118338110D01*
X163724000Y-117661890D01*
X163728085Y-117620409D01*
X163738393Y-117586431D01*
X163755134Y-117555110D01*
X163777661Y-117527661D01*
X163805110Y-117505134D01*
X163836431Y-117488393D01*
X163870409Y-117478085D01*
X163911890Y-117474000D01*
X164513110Y-117474000D01*
X164554591Y-117478085D01*
X164554591Y-117478085D01*
G37*
G36*
X166129591Y-117478085D02*
G01*
X166163569Y-117488393D01*
X166194890Y-117505134D01*
X166222339Y-117527661D01*
X166244866Y-117555110D01*
X166261607Y-117586431D01*
X166271915Y-117620409D01*
X166276000Y-117661890D01*
X166276000Y-118338110D01*
X166271915Y-118379591D01*
X166261607Y-118413569D01*
X166244866Y-118444890D01*
X166222339Y-118472339D01*
X166194890Y-118494866D01*
X166163569Y-118511607D01*
X166129591Y-118521915D01*
X166088110Y-118526000D01*
X165486890Y-118526000D01*
X165445409Y-118521915D01*
X165411431Y-118511607D01*
X165380110Y-118494866D01*
X165352661Y-118472339D01*
X165330134Y-118444890D01*
X165313393Y-118413569D01*
X165303085Y-118379591D01*
X165299000Y-118338110D01*
X165299000Y-117661890D01*
X165303085Y-117620409D01*
X165313393Y-117586431D01*
X165330134Y-117555110D01*
X165352661Y-117527661D01*
X165380110Y-117505134D01*
X165411431Y-117488393D01*
X165445409Y-117478085D01*
X165486890Y-117474000D01*
X166088110Y-117474000D01*
X166129591Y-117478085D01*
X166129591Y-117478085D01*
G37*
G36*
X153818433Y-115134893D02*
G01*
X153908657Y-115152839D01*
X154014267Y-115196585D01*
X154163621Y-115258449D01*
X154163622Y-115258450D01*
X154393086Y-115411772D01*
X154588228Y-115606914D01*
X154643755Y-115690017D01*
X154741551Y-115836379D01*
X154847161Y-116091344D01*
X154901000Y-116362012D01*
X154901000Y-116637988D01*
X154847161Y-116908656D01*
X154741551Y-117163621D01*
X154741550Y-117163622D01*
X154588228Y-117393086D01*
X154393086Y-117588228D01*
X154295351Y-117653532D01*
X154163621Y-117741551D01*
X154014267Y-117803415D01*
X153908657Y-117847161D01*
X153818433Y-117865107D01*
X153637988Y-117901000D01*
X153362012Y-117901000D01*
X153181567Y-117865107D01*
X153091343Y-117847161D01*
X152985733Y-117803415D01*
X152836379Y-117741551D01*
X152704649Y-117653532D01*
X152606914Y-117588228D01*
X152411772Y-117393086D01*
X152258450Y-117163622D01*
X152258449Y-117163621D01*
X152152839Y-116908656D01*
X152099000Y-116637988D01*
X152099000Y-116362012D01*
X152152839Y-116091344D01*
X152258449Y-115836379D01*
X152356245Y-115690017D01*
X152411772Y-115606914D01*
X152606914Y-115411772D01*
X152836378Y-115258450D01*
X152836379Y-115258449D01*
X152985733Y-115196585D01*
X153091343Y-115152839D01*
X153181567Y-115134893D01*
X153362012Y-115099000D01*
X153637988Y-115099000D01*
X153818433Y-115134893D01*
X153818433Y-115134893D01*
G37*
G36*
X196818433Y-115134893D02*
G01*
X196908657Y-115152839D01*
X197014267Y-115196585D01*
X197163621Y-115258449D01*
X197163622Y-115258450D01*
X197393086Y-115411772D01*
X197588228Y-115606914D01*
X197643755Y-115690017D01*
X197741551Y-115836379D01*
X197847161Y-116091344D01*
X197901000Y-116362012D01*
X197901000Y-116637988D01*
X197847161Y-116908656D01*
X197741551Y-117163621D01*
X197741550Y-117163622D01*
X197588228Y-117393086D01*
X197393086Y-117588228D01*
X197295351Y-117653532D01*
X197163621Y-117741551D01*
X197014267Y-117803415D01*
X196908657Y-117847161D01*
X196818433Y-117865107D01*
X196637988Y-117901000D01*
X196362012Y-117901000D01*
X196181567Y-117865107D01*
X196091343Y-117847161D01*
X195985733Y-117803415D01*
X195836379Y-117741551D01*
X195704649Y-117653532D01*
X195606914Y-117588228D01*
X195411772Y-117393086D01*
X195258450Y-117163622D01*
X195258449Y-117163621D01*
X195152839Y-116908656D01*
X195099000Y-116637988D01*
X195099000Y-116362012D01*
X195152839Y-116091344D01*
X195258449Y-115836379D01*
X195356245Y-115690017D01*
X195411772Y-115606914D01*
X195606914Y-115411772D01*
X195836378Y-115258450D01*
X195836379Y-115258449D01*
X195985733Y-115196585D01*
X196091343Y-115152839D01*
X196181567Y-115134893D01*
X196362012Y-115099000D01*
X196637988Y-115099000D01*
X196818433Y-115134893D01*
X196818433Y-115134893D01*
G37*
G36*
X164554591Y-115478085D02*
G01*
X164588569Y-115488393D01*
X164619890Y-115505134D01*
X164647339Y-115527661D01*
X164669866Y-115555110D01*
X164686607Y-115586431D01*
X164696915Y-115620409D01*
X164701000Y-115661890D01*
X164701000Y-116338110D01*
X164696915Y-116379591D01*
X164686607Y-116413569D01*
X164669866Y-116444890D01*
X164647339Y-116472339D01*
X164619890Y-116494866D01*
X164588569Y-116511607D01*
X164554591Y-116521915D01*
X164513110Y-116526000D01*
X163911890Y-116526000D01*
X163870409Y-116521915D01*
X163836431Y-116511607D01*
X163805110Y-116494866D01*
X163777661Y-116472339D01*
X163755134Y-116444890D01*
X163738393Y-116413569D01*
X163728085Y-116379591D01*
X163724000Y-116338110D01*
X163724000Y-115661890D01*
X163728085Y-115620409D01*
X163738393Y-115586431D01*
X163755134Y-115555110D01*
X163777661Y-115527661D01*
X163805110Y-115505134D01*
X163836431Y-115488393D01*
X163870409Y-115478085D01*
X163911890Y-115474000D01*
X164513110Y-115474000D01*
X164554591Y-115478085D01*
X164554591Y-115478085D01*
G37*
G36*
X166129591Y-115478085D02*
G01*
X166163569Y-115488393D01*
X166194890Y-115505134D01*
X166222339Y-115527661D01*
X166244866Y-115555110D01*
X166261607Y-115586431D01*
X166271915Y-115620409D01*
X166276000Y-115661890D01*
X166276000Y-116338110D01*
X166271915Y-116379591D01*
X166261607Y-116413569D01*
X166244866Y-116444890D01*
X166222339Y-116472339D01*
X166194890Y-116494866D01*
X166163569Y-116511607D01*
X166129591Y-116521915D01*
X166088110Y-116526000D01*
X165486890Y-116526000D01*
X165445409Y-116521915D01*
X165411431Y-116511607D01*
X165380110Y-116494866D01*
X165352661Y-116472339D01*
X165330134Y-116444890D01*
X165313393Y-116413569D01*
X165303085Y-116379591D01*
X165299000Y-116338110D01*
X165299000Y-115661890D01*
X165303085Y-115620409D01*
X165313393Y-115586431D01*
X165330134Y-115555110D01*
X165352661Y-115527661D01*
X165380110Y-115505134D01*
X165411431Y-115488393D01*
X165445409Y-115478085D01*
X165486890Y-115474000D01*
X166088110Y-115474000D01*
X166129591Y-115478085D01*
X166129591Y-115478085D01*
G37*
G36*
X177809468Y-114253565D02*
G01*
X177848138Y-114265296D01*
X177883777Y-114284346D01*
X177915017Y-114309983D01*
X177940654Y-114341223D01*
X177959704Y-114376862D01*
X177971435Y-114415532D01*
X177976000Y-114461888D01*
X177976000Y-115538112D01*
X177971435Y-115584468D01*
X177959704Y-115623138D01*
X177940654Y-115658777D01*
X177915017Y-115690017D01*
X177883777Y-115715654D01*
X177848138Y-115734704D01*
X177809468Y-115746435D01*
X177763112Y-115751000D01*
X177111888Y-115751000D01*
X177065532Y-115746435D01*
X177026862Y-115734704D01*
X176991223Y-115715654D01*
X176959983Y-115690017D01*
X176934346Y-115658777D01*
X176915296Y-115623138D01*
X176903565Y-115584468D01*
X176899000Y-115538112D01*
X176899000Y-114461888D01*
X176903565Y-114415532D01*
X176915296Y-114376862D01*
X176934346Y-114341223D01*
X176959983Y-114309983D01*
X176991223Y-114284346D01*
X177026862Y-114265296D01*
X177065532Y-114253565D01*
X177111888Y-114249000D01*
X177763112Y-114249000D01*
X177809468Y-114253565D01*
X177809468Y-114253565D01*
G37*
G36*
X175934468Y-114253565D02*
G01*
X175973138Y-114265296D01*
X176008777Y-114284346D01*
X176040017Y-114309983D01*
X176065654Y-114341223D01*
X176084704Y-114376862D01*
X176096435Y-114415532D01*
X176101000Y-114461888D01*
X176101000Y-115538112D01*
X176096435Y-115584468D01*
X176084704Y-115623138D01*
X176065654Y-115658777D01*
X176040017Y-115690017D01*
X176008777Y-115715654D01*
X175973138Y-115734704D01*
X175934468Y-115746435D01*
X175888112Y-115751000D01*
X175236888Y-115751000D01*
X175190532Y-115746435D01*
X175151862Y-115734704D01*
X175116223Y-115715654D01*
X175084983Y-115690017D01*
X175059346Y-115658777D01*
X175040296Y-115623138D01*
X175028565Y-115584468D01*
X175024000Y-115538112D01*
X175024000Y-114461888D01*
X175028565Y-114415532D01*
X175040296Y-114376862D01*
X175059346Y-114341223D01*
X175084983Y-114309983D01*
X175116223Y-114284346D01*
X175151862Y-114265296D01*
X175190532Y-114253565D01*
X175236888Y-114249000D01*
X175888112Y-114249000D01*
X175934468Y-114253565D01*
X175934468Y-114253565D01*
G37*
G36*
X171326000Y-115471000D02*
G01*
X168674000Y-115471000D01*
X168674000Y-114149000D01*
X171326000Y-114149000D01*
X171326000Y-115471000D01*
X171326000Y-115471000D01*
G37*
G36*
X164554591Y-113478085D02*
G01*
X164588569Y-113488393D01*
X164619890Y-113505134D01*
X164647339Y-113527661D01*
X164669866Y-113555110D01*
X164686607Y-113586431D01*
X164696915Y-113620409D01*
X164701000Y-113661890D01*
X164701000Y-114338110D01*
X164696915Y-114379591D01*
X164686607Y-114413569D01*
X164669866Y-114444890D01*
X164647339Y-114472339D01*
X164619890Y-114494866D01*
X164588569Y-114511607D01*
X164554591Y-114521915D01*
X164513110Y-114526000D01*
X163911890Y-114526000D01*
X163870409Y-114521915D01*
X163836431Y-114511607D01*
X163805110Y-114494866D01*
X163777661Y-114472339D01*
X163755134Y-114444890D01*
X163738393Y-114413569D01*
X163728085Y-114379591D01*
X163724000Y-114338110D01*
X163724000Y-113661890D01*
X163728085Y-113620409D01*
X163738393Y-113586431D01*
X163755134Y-113555110D01*
X163777661Y-113527661D01*
X163805110Y-113505134D01*
X163836431Y-113488393D01*
X163870409Y-113478085D01*
X163911890Y-113474000D01*
X164513110Y-113474000D01*
X164554591Y-113478085D01*
X164554591Y-113478085D01*
G37*
G36*
X166129591Y-113478085D02*
G01*
X166163569Y-113488393D01*
X166194890Y-113505134D01*
X166222339Y-113527661D01*
X166244866Y-113555110D01*
X166261607Y-113586431D01*
X166271915Y-113620409D01*
X166276000Y-113661890D01*
X166276000Y-114338110D01*
X166271915Y-114379591D01*
X166261607Y-114413569D01*
X166244866Y-114444890D01*
X166222339Y-114472339D01*
X166194890Y-114494866D01*
X166163569Y-114511607D01*
X166129591Y-114521915D01*
X166088110Y-114526000D01*
X165486890Y-114526000D01*
X165445409Y-114521915D01*
X165411431Y-114511607D01*
X165380110Y-114494866D01*
X165352661Y-114472339D01*
X165330134Y-114444890D01*
X165313393Y-114413569D01*
X165303085Y-114379591D01*
X165299000Y-114338110D01*
X165299000Y-113661890D01*
X165303085Y-113620409D01*
X165313393Y-113586431D01*
X165330134Y-113555110D01*
X165352661Y-113527661D01*
X165380110Y-113505134D01*
X165411431Y-113488393D01*
X165445409Y-113478085D01*
X165486890Y-113474000D01*
X166088110Y-113474000D01*
X166129591Y-113478085D01*
X166129591Y-113478085D01*
G37*
G36*
X162679867Y-111427004D02*
G01*
X162703292Y-111434110D01*
X162724889Y-111445654D01*
X162743814Y-111461186D01*
X162759346Y-111480111D01*
X162770890Y-111501708D01*
X162777996Y-111525133D01*
X162781000Y-111555638D01*
X162781000Y-113369362D01*
X162777996Y-113399867D01*
X162770890Y-113423292D01*
X162759346Y-113444889D01*
X162743814Y-113463814D01*
X162724889Y-113479346D01*
X162703292Y-113490890D01*
X162679867Y-113497996D01*
X162649362Y-113501000D01*
X162160638Y-113501000D01*
X162130133Y-113497996D01*
X162106708Y-113490890D01*
X162085111Y-113479346D01*
X162066186Y-113463814D01*
X162050654Y-113444889D01*
X162039110Y-113423292D01*
X162032004Y-113399867D01*
X162029000Y-113369362D01*
X162029000Y-111555638D01*
X162032004Y-111525133D01*
X162039110Y-111501708D01*
X162050654Y-111480111D01*
X162066186Y-111461186D01*
X162085111Y-111445654D01*
X162106708Y-111434110D01*
X162130133Y-111427004D01*
X162160638Y-111424000D01*
X162649362Y-111424000D01*
X162679867Y-111427004D01*
X162679867Y-111427004D01*
G37*
G36*
X161409867Y-111427004D02*
G01*
X161433292Y-111434110D01*
X161454889Y-111445654D01*
X161473814Y-111461186D01*
X161489346Y-111480111D01*
X161500890Y-111501708D01*
X161507996Y-111525133D01*
X161511000Y-111555638D01*
X161511000Y-113369362D01*
X161507996Y-113399867D01*
X161500890Y-113423292D01*
X161489346Y-113444889D01*
X161473814Y-113463814D01*
X161454889Y-113479346D01*
X161433292Y-113490890D01*
X161409867Y-113497996D01*
X161379362Y-113501000D01*
X160890638Y-113501000D01*
X160860133Y-113497996D01*
X160836708Y-113490890D01*
X160815111Y-113479346D01*
X160796186Y-113463814D01*
X160780654Y-113444889D01*
X160769110Y-113423292D01*
X160762004Y-113399867D01*
X160759000Y-113369362D01*
X160759000Y-111555638D01*
X160762004Y-111525133D01*
X160769110Y-111501708D01*
X160780654Y-111480111D01*
X160796186Y-111461186D01*
X160815111Y-111445654D01*
X160836708Y-111434110D01*
X160860133Y-111427004D01*
X160890638Y-111424000D01*
X161379362Y-111424000D01*
X161409867Y-111427004D01*
X161409867Y-111427004D01*
G37*
G36*
X160139867Y-111427004D02*
G01*
X160163292Y-111434110D01*
X160184889Y-111445654D01*
X160203814Y-111461186D01*
X160219346Y-111480111D01*
X160230890Y-111501708D01*
X160237996Y-111525133D01*
X160241000Y-111555638D01*
X160241000Y-113369362D01*
X160237996Y-113399867D01*
X160230890Y-113423292D01*
X160219346Y-113444889D01*
X160203814Y-113463814D01*
X160184889Y-113479346D01*
X160163292Y-113490890D01*
X160139867Y-113497996D01*
X160109362Y-113501000D01*
X159620638Y-113501000D01*
X159590133Y-113497996D01*
X159566708Y-113490890D01*
X159545111Y-113479346D01*
X159526186Y-113463814D01*
X159510654Y-113444889D01*
X159499110Y-113423292D01*
X159492004Y-113399867D01*
X159489000Y-113369362D01*
X159489000Y-111555638D01*
X159492004Y-111525133D01*
X159499110Y-111501708D01*
X159510654Y-111480111D01*
X159526186Y-111461186D01*
X159545111Y-111445654D01*
X159566708Y-111434110D01*
X159590133Y-111427004D01*
X159620638Y-111424000D01*
X160109362Y-111424000D01*
X160139867Y-111427004D01*
X160139867Y-111427004D01*
G37*
G36*
X158869867Y-111427004D02*
G01*
X158893292Y-111434110D01*
X158914889Y-111445654D01*
X158933814Y-111461186D01*
X158949346Y-111480111D01*
X158960890Y-111501708D01*
X158967996Y-111525133D01*
X158971000Y-111555638D01*
X158971000Y-113369362D01*
X158967996Y-113399867D01*
X158960890Y-113423292D01*
X158949346Y-113444889D01*
X158933814Y-113463814D01*
X158914889Y-113479346D01*
X158893292Y-113490890D01*
X158869867Y-113497996D01*
X158839362Y-113501000D01*
X158350638Y-113501000D01*
X158320133Y-113497996D01*
X158296708Y-113490890D01*
X158275111Y-113479346D01*
X158256186Y-113463814D01*
X158240654Y-113444889D01*
X158229110Y-113423292D01*
X158222004Y-113399867D01*
X158219000Y-113369362D01*
X158219000Y-111555638D01*
X158222004Y-111525133D01*
X158229110Y-111501708D01*
X158240654Y-111480111D01*
X158256186Y-111461186D01*
X158275111Y-111445654D01*
X158296708Y-111434110D01*
X158320133Y-111427004D01*
X158350638Y-111424000D01*
X158839362Y-111424000D01*
X158869867Y-111427004D01*
X158869867Y-111427004D01*
G37*
G36*
X171326000Y-112851000D02*
G01*
X170574000Y-112851000D01*
X170574000Y-111529000D01*
X171326000Y-111529000D01*
X171326000Y-112851000D01*
X171326000Y-112851000D01*
G37*
G36*
X169426000Y-112851000D02*
G01*
X168674000Y-112851000D01*
X168674000Y-111529000D01*
X169426000Y-111529000D01*
X169426000Y-112851000D01*
X169426000Y-112851000D01*
G37*
G36*
X171309468Y-109253565D02*
G01*
X171348138Y-109265296D01*
X171383777Y-109284346D01*
X171415017Y-109309983D01*
X171440654Y-109341223D01*
X171459704Y-109376862D01*
X171471435Y-109415532D01*
X171476000Y-109461888D01*
X171476000Y-110538112D01*
X171471435Y-110584468D01*
X171459704Y-110623138D01*
X171440654Y-110658777D01*
X171415017Y-110690017D01*
X171383777Y-110715654D01*
X171348138Y-110734704D01*
X171309468Y-110746435D01*
X171263112Y-110751000D01*
X170611888Y-110751000D01*
X170565532Y-110746435D01*
X170526862Y-110734704D01*
X170491223Y-110715654D01*
X170459983Y-110690017D01*
X170434346Y-110658777D01*
X170415296Y-110623138D01*
X170403565Y-110584468D01*
X170399000Y-110538112D01*
X170399000Y-109461888D01*
X170403565Y-109415532D01*
X170415296Y-109376862D01*
X170434346Y-109341223D01*
X170459983Y-109309983D01*
X170491223Y-109284346D01*
X170526862Y-109265296D01*
X170565532Y-109253565D01*
X170611888Y-109249000D01*
X171263112Y-109249000D01*
X171309468Y-109253565D01*
X171309468Y-109253565D01*
G37*
G36*
X169434468Y-109253565D02*
G01*
X169473138Y-109265296D01*
X169508777Y-109284346D01*
X169540017Y-109309983D01*
X169565654Y-109341223D01*
X169584704Y-109376862D01*
X169596435Y-109415532D01*
X169601000Y-109461888D01*
X169601000Y-110538112D01*
X169596435Y-110584468D01*
X169584704Y-110623138D01*
X169565654Y-110658777D01*
X169540017Y-110690017D01*
X169508777Y-110715654D01*
X169473138Y-110734704D01*
X169434468Y-110746435D01*
X169388112Y-110751000D01*
X168736888Y-110751000D01*
X168690532Y-110746435D01*
X168651862Y-110734704D01*
X168616223Y-110715654D01*
X168584983Y-110690017D01*
X168559346Y-110658777D01*
X168540296Y-110623138D01*
X168528565Y-110584468D01*
X168524000Y-110538112D01*
X168524000Y-109461888D01*
X168528565Y-109415532D01*
X168540296Y-109376862D01*
X168559346Y-109341223D01*
X168584983Y-109309983D01*
X168616223Y-109284346D01*
X168651862Y-109265296D01*
X168690532Y-109253565D01*
X168736888Y-109249000D01*
X169388112Y-109249000D01*
X169434468Y-109253565D01*
X169434468Y-109253565D01*
G37*
G36*
X162379591Y-106303085D02*
G01*
X162413569Y-106313393D01*
X162444890Y-106330134D01*
X162472339Y-106352661D01*
X162494866Y-106380110D01*
X162511607Y-106411431D01*
X162521915Y-106445409D01*
X162526000Y-106486890D01*
X162526000Y-107088110D01*
X162521915Y-107129591D01*
X162511607Y-107163569D01*
X162494866Y-107194890D01*
X162472339Y-107222339D01*
X162444890Y-107244866D01*
X162413569Y-107261607D01*
X162379591Y-107271915D01*
X162338110Y-107276000D01*
X161661890Y-107276000D01*
X161620409Y-107271915D01*
X161586431Y-107261607D01*
X161555110Y-107244866D01*
X161527661Y-107222339D01*
X161505134Y-107194890D01*
X161488393Y-107163569D01*
X161478085Y-107129591D01*
X161474000Y-107088110D01*
X161474000Y-106486890D01*
X161478085Y-106445409D01*
X161488393Y-106411431D01*
X161505134Y-106380110D01*
X161527661Y-106352661D01*
X161555110Y-106330134D01*
X161586431Y-106313393D01*
X161620409Y-106303085D01*
X161661890Y-106299000D01*
X162338110Y-106299000D01*
X162379591Y-106303085D01*
X162379591Y-106303085D01*
G37*
G36*
X153129591Y-105978085D02*
G01*
X153163569Y-105988393D01*
X153194890Y-106005134D01*
X153222339Y-106027661D01*
X153244866Y-106055110D01*
X153261607Y-106086431D01*
X153271915Y-106120409D01*
X153276000Y-106161890D01*
X153276000Y-106838110D01*
X153271915Y-106879591D01*
X153261607Y-106913569D01*
X153244866Y-106944890D01*
X153222339Y-106972339D01*
X153194890Y-106994866D01*
X153163569Y-107011607D01*
X153129591Y-107021915D01*
X153088110Y-107026000D01*
X152486890Y-107026000D01*
X152445409Y-107021915D01*
X152411431Y-107011607D01*
X152380110Y-106994866D01*
X152352661Y-106972339D01*
X152330134Y-106944890D01*
X152313393Y-106913569D01*
X152303085Y-106879591D01*
X152299000Y-106838110D01*
X152299000Y-106161890D01*
X152303085Y-106120409D01*
X152313393Y-106086431D01*
X152330134Y-106055110D01*
X152352661Y-106027661D01*
X152380110Y-106005134D01*
X152411431Y-105988393D01*
X152445409Y-105978085D01*
X152486890Y-105974000D01*
X153088110Y-105974000D01*
X153129591Y-105978085D01*
X153129591Y-105978085D01*
G37*
G36*
X151554591Y-105978085D02*
G01*
X151588569Y-105988393D01*
X151619890Y-106005134D01*
X151647339Y-106027661D01*
X151669866Y-106055110D01*
X151686607Y-106086431D01*
X151696915Y-106120409D01*
X151701000Y-106161890D01*
X151701000Y-106838110D01*
X151696915Y-106879591D01*
X151686607Y-106913569D01*
X151669866Y-106944890D01*
X151647339Y-106972339D01*
X151619890Y-106994866D01*
X151588569Y-107011607D01*
X151554591Y-107021915D01*
X151513110Y-107026000D01*
X150911890Y-107026000D01*
X150870409Y-107021915D01*
X150836431Y-107011607D01*
X150805110Y-106994866D01*
X150777661Y-106972339D01*
X150755134Y-106944890D01*
X150738393Y-106913569D01*
X150728085Y-106879591D01*
X150724000Y-106838110D01*
X150724000Y-106161890D01*
X150728085Y-106120409D01*
X150738393Y-106086431D01*
X150755134Y-106055110D01*
X150777661Y-106027661D01*
X150805110Y-106005134D01*
X150836431Y-105988393D01*
X150870409Y-105978085D01*
X150911890Y-105974000D01*
X151513110Y-105974000D01*
X151554591Y-105978085D01*
X151554591Y-105978085D01*
G37*
G36*
X157726000Y-106751000D02*
G01*
X155274000Y-106751000D01*
X155274000Y-105549000D01*
X157726000Y-105549000D01*
X157726000Y-106751000D01*
X157726000Y-106751000D01*
G37*
G36*
X162379591Y-104728085D02*
G01*
X162413569Y-104738393D01*
X162444890Y-104755134D01*
X162472339Y-104777661D01*
X162494866Y-104805110D01*
X162511607Y-104836431D01*
X162521915Y-104870409D01*
X162526000Y-104911890D01*
X162526000Y-105513110D01*
X162521915Y-105554591D01*
X162511607Y-105588569D01*
X162494866Y-105619890D01*
X162472339Y-105647339D01*
X162444890Y-105669866D01*
X162413569Y-105686607D01*
X162379591Y-105696915D01*
X162338110Y-105701000D01*
X161661890Y-105701000D01*
X161620409Y-105696915D01*
X161586431Y-105686607D01*
X161555110Y-105669866D01*
X161527661Y-105647339D01*
X161505134Y-105619890D01*
X161488393Y-105588569D01*
X161478085Y-105554591D01*
X161474000Y-105513110D01*
X161474000Y-104911890D01*
X161478085Y-104870409D01*
X161488393Y-104836431D01*
X161505134Y-104805110D01*
X161527661Y-104777661D01*
X161555110Y-104755134D01*
X161586431Y-104738393D01*
X161620409Y-104728085D01*
X161661890Y-104724000D01*
X162338110Y-104724000D01*
X162379591Y-104728085D01*
X162379591Y-104728085D01*
G37*
G36*
X153129591Y-103978085D02*
G01*
X153163569Y-103988393D01*
X153194890Y-104005134D01*
X153222339Y-104027661D01*
X153244866Y-104055110D01*
X153261607Y-104086431D01*
X153271915Y-104120409D01*
X153276000Y-104161890D01*
X153276000Y-104838110D01*
X153271915Y-104879591D01*
X153261607Y-104913569D01*
X153244866Y-104944890D01*
X153222339Y-104972339D01*
X153194890Y-104994866D01*
X153163569Y-105011607D01*
X153129591Y-105021915D01*
X153088110Y-105026000D01*
X152486890Y-105026000D01*
X152445409Y-105021915D01*
X152411431Y-105011607D01*
X152380110Y-104994866D01*
X152352661Y-104972339D01*
X152330134Y-104944890D01*
X152313393Y-104913569D01*
X152303085Y-104879591D01*
X152299000Y-104838110D01*
X152299000Y-104161890D01*
X152303085Y-104120409D01*
X152313393Y-104086431D01*
X152330134Y-104055110D01*
X152352661Y-104027661D01*
X152380110Y-104005134D01*
X152411431Y-103988393D01*
X152445409Y-103978085D01*
X152486890Y-103974000D01*
X153088110Y-103974000D01*
X153129591Y-103978085D01*
X153129591Y-103978085D01*
G37*
G36*
X151554591Y-103978085D02*
G01*
X151588569Y-103988393D01*
X151619890Y-104005134D01*
X151647339Y-104027661D01*
X151669866Y-104055110D01*
X151686607Y-104086431D01*
X151696915Y-104120409D01*
X151701000Y-104161890D01*
X151701000Y-104838110D01*
X151696915Y-104879591D01*
X151686607Y-104913569D01*
X151669866Y-104944890D01*
X151647339Y-104972339D01*
X151619890Y-104994866D01*
X151588569Y-105011607D01*
X151554591Y-105021915D01*
X151513110Y-105026000D01*
X150911890Y-105026000D01*
X150870409Y-105021915D01*
X150836431Y-105011607D01*
X150805110Y-104994866D01*
X150777661Y-104972339D01*
X150755134Y-104944890D01*
X150738393Y-104913569D01*
X150728085Y-104879591D01*
X150724000Y-104838110D01*
X150724000Y-104161890D01*
X150728085Y-104120409D01*
X150738393Y-104086431D01*
X150755134Y-104055110D01*
X150777661Y-104027661D01*
X150805110Y-104005134D01*
X150836431Y-103988393D01*
X150870409Y-103978085D01*
X150911890Y-103974000D01*
X151513110Y-103974000D01*
X151554591Y-103978085D01*
X151554591Y-103978085D01*
G37*
G36*
X151554591Y-101978085D02*
G01*
X151588569Y-101988393D01*
X151619890Y-102005134D01*
X151647339Y-102027661D01*
X151669866Y-102055110D01*
X151686607Y-102086431D01*
X151696915Y-102120409D01*
X151701000Y-102161890D01*
X151701000Y-102838110D01*
X151696915Y-102879591D01*
X151686607Y-102913569D01*
X151669866Y-102944890D01*
X151647339Y-102972339D01*
X151619890Y-102994866D01*
X151588569Y-103011607D01*
X151554591Y-103021915D01*
X151513110Y-103026000D01*
X150911890Y-103026000D01*
X150870409Y-103021915D01*
X150836431Y-103011607D01*
X150805110Y-102994866D01*
X150777661Y-102972339D01*
X150755134Y-102944890D01*
X150738393Y-102913569D01*
X150728085Y-102879591D01*
X150724000Y-102838110D01*
X150724000Y-102161890D01*
X150728085Y-102120409D01*
X150738393Y-102086431D01*
X150755134Y-102055110D01*
X150777661Y-102027661D01*
X150805110Y-102005134D01*
X150836431Y-101988393D01*
X150870409Y-101978085D01*
X150911890Y-101974000D01*
X151513110Y-101974000D01*
X151554591Y-101978085D01*
X151554591Y-101978085D01*
G37*
G36*
X153129591Y-101978085D02*
G01*
X153163569Y-101988393D01*
X153194890Y-102005134D01*
X153222339Y-102027661D01*
X153244866Y-102055110D01*
X153261607Y-102086431D01*
X153271915Y-102120409D01*
X153276000Y-102161890D01*
X153276000Y-102838110D01*
X153271915Y-102879591D01*
X153261607Y-102913569D01*
X153244866Y-102944890D01*
X153222339Y-102972339D01*
X153194890Y-102994866D01*
X153163569Y-103011607D01*
X153129591Y-103021915D01*
X153088110Y-103026000D01*
X152486890Y-103026000D01*
X152445409Y-103021915D01*
X152411431Y-103011607D01*
X152380110Y-102994866D01*
X152352661Y-102972339D01*
X152330134Y-102944890D01*
X152313393Y-102913569D01*
X152303085Y-102879591D01*
X152299000Y-102838110D01*
X152299000Y-102161890D01*
X152303085Y-102120409D01*
X152313393Y-102086431D01*
X152330134Y-102055110D01*
X152352661Y-102027661D01*
X152380110Y-102005134D01*
X152411431Y-101988393D01*
X152445409Y-101978085D01*
X152486890Y-101974000D01*
X153088110Y-101974000D01*
X153129591Y-101978085D01*
X153129591Y-101978085D01*
G37*
G36*
X157726000Y-102451000D02*
G01*
X155274000Y-102451000D01*
X155274000Y-101249000D01*
X157726000Y-101249000D01*
X157726000Y-102451000D01*
X157726000Y-102451000D01*
G37*
G36*
X175846189Y-92210483D02*
G01*
X175846192Y-92210484D01*
X175846191Y-92210484D01*
X176374139Y-92429167D01*
X176849280Y-92746646D01*
X177253354Y-93150720D01*
X177570833Y-93625861D01*
X177570834Y-93625863D01*
X177789517Y-94153811D01*
X177901000Y-94714275D01*
X177901000Y-95285725D01*
X177789517Y-95846189D01*
X177789516Y-95846191D01*
X177570833Y-96374139D01*
X177253354Y-96849280D01*
X176849280Y-97253354D01*
X176374139Y-97570833D01*
X176374138Y-97570834D01*
X176374137Y-97570834D01*
X175846189Y-97789517D01*
X175285725Y-97901000D01*
X174714275Y-97901000D01*
X174153811Y-97789517D01*
X173625863Y-97570834D01*
X173625862Y-97570834D01*
X173625861Y-97570833D01*
X173150720Y-97253354D01*
X172746646Y-96849280D01*
X172429167Y-96374139D01*
X172210484Y-95846191D01*
X172210483Y-95846189D01*
X172099000Y-95285725D01*
X172099000Y-94714275D01*
X172210483Y-94153811D01*
X172429166Y-93625863D01*
X172429167Y-93625861D01*
X172746646Y-93150720D01*
X173150720Y-92746646D01*
X173625861Y-92429167D01*
X174153809Y-92210484D01*
X174153808Y-92210484D01*
X174153811Y-92210483D01*
X174714275Y-92099000D01*
X175285725Y-92099000D01*
X175846189Y-92210483D01*
X175846189Y-92210483D01*
G37*
G36*
X170430000Y-97400000D02*
G01*
X167130000Y-97400000D01*
X167130000Y-96000000D01*
X170430000Y-96000000D01*
X170430000Y-97400000D01*
X170430000Y-97400000D01*
G37*
G36*
X182870000Y-97400000D02*
G01*
X179570000Y-97400000D01*
X179570000Y-96000000D01*
X182870000Y-96000000D01*
X182870000Y-97400000D01*
X182870000Y-97400000D01*
G37*
G36*
X157601000Y-97001000D02*
G01*
X156399000Y-97001000D01*
X156399000Y-95799000D01*
X157601000Y-95799000D01*
X157601000Y-97001000D01*
X157601000Y-97001000D01*
G37*
G36*
X182870000Y-95700000D02*
G01*
X179570000Y-95700000D01*
X179570000Y-94300000D01*
X182870000Y-94300000D01*
X182870000Y-95700000D01*
X182870000Y-95700000D01*
G37*
G36*
X170430000Y-95700000D02*
G01*
X167130000Y-95700000D01*
X167130000Y-94300000D01*
X170430000Y-94300000D01*
X170430000Y-95700000D01*
X170430000Y-95700000D01*
G37*
G36*
X157601000Y-94201000D02*
G01*
X156399000Y-94201000D01*
X156399000Y-92999000D01*
X157601000Y-92999000D01*
X157601000Y-94201000D01*
X157601000Y-94201000D01*
G37*
G36*
X154809468Y-92503565D02*
G01*
X154848138Y-92515296D01*
X154883777Y-92534346D01*
X154915017Y-92559983D01*
X154940654Y-92591223D01*
X154959704Y-92626862D01*
X154971435Y-92665532D01*
X154976000Y-92711888D01*
X154976000Y-93788112D01*
X154971435Y-93834468D01*
X154959704Y-93873138D01*
X154940654Y-93908777D01*
X154915017Y-93940017D01*
X154883777Y-93965654D01*
X154848138Y-93984704D01*
X154809468Y-93996435D01*
X154763112Y-94001000D01*
X154111888Y-94001000D01*
X154065532Y-93996435D01*
X154026862Y-93984704D01*
X153991223Y-93965654D01*
X153959983Y-93940017D01*
X153934346Y-93908777D01*
X153915296Y-93873138D01*
X153903565Y-93834468D01*
X153899000Y-93788112D01*
X153899000Y-92711888D01*
X153903565Y-92665532D01*
X153915296Y-92626862D01*
X153934346Y-92591223D01*
X153959983Y-92559983D01*
X153991223Y-92534346D01*
X154026862Y-92515296D01*
X154065532Y-92503565D01*
X154111888Y-92499000D01*
X154763112Y-92499000D01*
X154809468Y-92503565D01*
X154809468Y-92503565D01*
G37*
G36*
X152934468Y-92503565D02*
G01*
X152973138Y-92515296D01*
X153008777Y-92534346D01*
X153040017Y-92559983D01*
X153065654Y-92591223D01*
X153084704Y-92626862D01*
X153096435Y-92665532D01*
X153101000Y-92711888D01*
X153101000Y-93788112D01*
X153096435Y-93834468D01*
X153084704Y-93873138D01*
X153065654Y-93908777D01*
X153040017Y-93940017D01*
X153008777Y-93965654D01*
X152973138Y-93984704D01*
X152934468Y-93996435D01*
X152888112Y-94001000D01*
X152236888Y-94001000D01*
X152190532Y-93996435D01*
X152151862Y-93984704D01*
X152116223Y-93965654D01*
X152084983Y-93940017D01*
X152059346Y-93908777D01*
X152040296Y-93873138D01*
X152028565Y-93834468D01*
X152024000Y-93788112D01*
X152024000Y-92711888D01*
X152028565Y-92665532D01*
X152040296Y-92626862D01*
X152059346Y-92591223D01*
X152084983Y-92559983D01*
X152116223Y-92534346D01*
X152151862Y-92515296D01*
X152190532Y-92503565D01*
X152236888Y-92499000D01*
X152888112Y-92499000D01*
X152934468Y-92503565D01*
X152934468Y-92503565D01*
G37*
G36*
X170430000Y-94000000D02*
G01*
X167130000Y-94000000D01*
X167130000Y-92600000D01*
X170430000Y-92600000D01*
X170430000Y-94000000D01*
X170430000Y-94000000D01*
G37*
G36*
X182870000Y-94000000D02*
G01*
X179570000Y-94000000D01*
X179570000Y-92600000D01*
X182870000Y-92600000D01*
X182870000Y-94000000D01*
X182870000Y-94000000D01*
G37*
G36*
X157084468Y-90903565D02*
G01*
X157123138Y-90915296D01*
X157158777Y-90934346D01*
X157190017Y-90959983D01*
X157215654Y-90991223D01*
X157234704Y-91026862D01*
X157246435Y-91065532D01*
X157251000Y-91111888D01*
X157251000Y-91763112D01*
X157246435Y-91809468D01*
X157234704Y-91848138D01*
X157215654Y-91883777D01*
X157190017Y-91915017D01*
X157158777Y-91940654D01*
X157123138Y-91959704D01*
X157084468Y-91971435D01*
X157038112Y-91976000D01*
X155961888Y-91976000D01*
X155915532Y-91971435D01*
X155876862Y-91959704D01*
X155841223Y-91940654D01*
X155809983Y-91915017D01*
X155784346Y-91883777D01*
X155765296Y-91848138D01*
X155753565Y-91809468D01*
X155749000Y-91763112D01*
X155749000Y-91111888D01*
X155753565Y-91065532D01*
X155765296Y-91026862D01*
X155784346Y-90991223D01*
X155809983Y-90959983D01*
X155841223Y-90934346D01*
X155876862Y-90915296D01*
X155915532Y-90903565D01*
X155961888Y-90899000D01*
X157038112Y-90899000D01*
X157084468Y-90903565D01*
X157084468Y-90903565D01*
G37*
G36*
X154776000Y-91651000D02*
G01*
X154124000Y-91651000D01*
X154124000Y-90749000D01*
X154776000Y-90749000D01*
X154776000Y-91651000D01*
X154776000Y-91651000D01*
G37*
G36*
X152876000Y-91651000D02*
G01*
X152224000Y-91651000D01*
X152224000Y-90749000D01*
X152876000Y-90749000D01*
X152876000Y-91651000D01*
X152876000Y-91651000D01*
G37*
G36*
X157084468Y-89028565D02*
G01*
X157123138Y-89040296D01*
X157158777Y-89059346D01*
X157190017Y-89084983D01*
X157215654Y-89116223D01*
X157234704Y-89151862D01*
X157246435Y-89190532D01*
X157251000Y-89236888D01*
X157251000Y-89888112D01*
X157246435Y-89934468D01*
X157234704Y-89973138D01*
X157215654Y-90008777D01*
X157190017Y-90040017D01*
X157158777Y-90065654D01*
X157123138Y-90084704D01*
X157084468Y-90096435D01*
X157038112Y-90101000D01*
X155961888Y-90101000D01*
X155915532Y-90096435D01*
X155876862Y-90084704D01*
X155841223Y-90065654D01*
X155809983Y-90040017D01*
X155784346Y-90008777D01*
X155765296Y-89973138D01*
X155753565Y-89934468D01*
X155749000Y-89888112D01*
X155749000Y-89236888D01*
X155753565Y-89190532D01*
X155765296Y-89151862D01*
X155784346Y-89116223D01*
X155809983Y-89084983D01*
X155841223Y-89059346D01*
X155876862Y-89040296D01*
X155915532Y-89028565D01*
X155961888Y-89024000D01*
X157038112Y-89024000D01*
X157084468Y-89028565D01*
X157084468Y-89028565D01*
G37*
G36*
X152876000Y-89251000D02*
G01*
X152224000Y-89251000D01*
X152224000Y-88349000D01*
X152876000Y-88349000D01*
X152876000Y-89251000D01*
X152876000Y-89251000D01*
G37*
G36*
X153826000Y-89251000D02*
G01*
X153174000Y-89251000D01*
X153174000Y-88349000D01*
X153826000Y-88349000D01*
X153826000Y-89251000D01*
X153826000Y-89251000D01*
G37*
G36*
X154776000Y-89251000D02*
G01*
X154124000Y-89251000D01*
X154124000Y-88349000D01*
X154776000Y-88349000D01*
X154776000Y-89251000D01*
X154776000Y-89251000D01*
G37*
G36*
X158201000Y-87501000D02*
G01*
X156499000Y-87501000D01*
X156499000Y-81499000D01*
X158201000Y-81499000D01*
X158201000Y-87501000D01*
X158201000Y-87501000D01*
G37*
G36*
X153501000Y-87501000D02*
G01*
X151799000Y-87501000D01*
X151799000Y-81499000D01*
X153501000Y-81499000D01*
X153501000Y-87501000D01*
X153501000Y-87501000D01*
G37*
G36*
X166601000Y-87001000D02*
G01*
X165399000Y-87001000D01*
X165399000Y-85799000D01*
X166601000Y-85799000D01*
X166601000Y-87001000D01*
X166601000Y-87001000D01*
G37*
G36*
X177559468Y-85253565D02*
G01*
X177598138Y-85265296D01*
X177633777Y-85284346D01*
X177665017Y-85309983D01*
X177690654Y-85341223D01*
X177709704Y-85376862D01*
X177721435Y-85415532D01*
X177726000Y-85461888D01*
X177726000Y-86538112D01*
X177721435Y-86584468D01*
X177709704Y-86623138D01*
X177690654Y-86658777D01*
X177665017Y-86690017D01*
X177633777Y-86715654D01*
X177598138Y-86734704D01*
X177559468Y-86746435D01*
X177513112Y-86751000D01*
X176861888Y-86751000D01*
X176815532Y-86746435D01*
X176776862Y-86734704D01*
X176741223Y-86715654D01*
X176709983Y-86690017D01*
X176684346Y-86658777D01*
X176665296Y-86623138D01*
X176653565Y-86584468D01*
X176649000Y-86538112D01*
X176649000Y-85461888D01*
X176653565Y-85415532D01*
X176665296Y-85376862D01*
X176684346Y-85341223D01*
X176709983Y-85309983D01*
X176741223Y-85284346D01*
X176776862Y-85265296D01*
X176815532Y-85253565D01*
X176861888Y-85249000D01*
X177513112Y-85249000D01*
X177559468Y-85253565D01*
X177559468Y-85253565D01*
G37*
G36*
X175684468Y-85253565D02*
G01*
X175723138Y-85265296D01*
X175758777Y-85284346D01*
X175790017Y-85309983D01*
X175815654Y-85341223D01*
X175834704Y-85376862D01*
X175846435Y-85415532D01*
X175851000Y-85461888D01*
X175851000Y-86538112D01*
X175846435Y-86584468D01*
X175834704Y-86623138D01*
X175815654Y-86658777D01*
X175790017Y-86690017D01*
X175758777Y-86715654D01*
X175723138Y-86734704D01*
X175684468Y-86746435D01*
X175638112Y-86751000D01*
X174986888Y-86751000D01*
X174940532Y-86746435D01*
X174901862Y-86734704D01*
X174866223Y-86715654D01*
X174834983Y-86690017D01*
X174809346Y-86658777D01*
X174790296Y-86623138D01*
X174778565Y-86584468D01*
X174774000Y-86538112D01*
X174774000Y-85461888D01*
X174778565Y-85415532D01*
X174790296Y-85376862D01*
X174809346Y-85341223D01*
X174834983Y-85309983D01*
X174866223Y-85284346D01*
X174901862Y-85265296D01*
X174940532Y-85253565D01*
X174986888Y-85249000D01*
X175638112Y-85249000D01*
X175684468Y-85253565D01*
X175684468Y-85253565D01*
G37*
G36*
X182351000Y-84751000D02*
G01*
X181149000Y-84751000D01*
X181149000Y-83549000D01*
X182351000Y-83549000D01*
X182351000Y-84751000D01*
X182351000Y-84751000D01*
G37*
G36*
X179584468Y-83653565D02*
G01*
X179623138Y-83665296D01*
X179658777Y-83684346D01*
X179690017Y-83709983D01*
X179715654Y-83741223D01*
X179734704Y-83776862D01*
X179746435Y-83815532D01*
X179751000Y-83861888D01*
X179751000Y-84513112D01*
X179746435Y-84559468D01*
X179734704Y-84598138D01*
X179715654Y-84633777D01*
X179690017Y-84665017D01*
X179658777Y-84690654D01*
X179623138Y-84709704D01*
X179584468Y-84721435D01*
X179538112Y-84726000D01*
X178461888Y-84726000D01*
X178415532Y-84721435D01*
X178376862Y-84709704D01*
X178341223Y-84690654D01*
X178309983Y-84665017D01*
X178284346Y-84633777D01*
X178265296Y-84598138D01*
X178253565Y-84559468D01*
X178249000Y-84513112D01*
X178249000Y-83861888D01*
X178253565Y-83815532D01*
X178265296Y-83776862D01*
X178284346Y-83741223D01*
X178309983Y-83709983D01*
X178341223Y-83684346D01*
X178376862Y-83665296D01*
X178415532Y-83653565D01*
X178461888Y-83649000D01*
X179538112Y-83649000D01*
X179584468Y-83653565D01*
X179584468Y-83653565D01*
G37*
G36*
X177276000Y-84401000D02*
G01*
X176624000Y-84401000D01*
X176624000Y-83499000D01*
X177276000Y-83499000D01*
X177276000Y-84401000D01*
X177276000Y-84401000D01*
G37*
G36*
X175376000Y-84401000D02*
G01*
X174724000Y-84401000D01*
X174724000Y-83499000D01*
X175376000Y-83499000D01*
X175376000Y-84401000D01*
X175376000Y-84401000D01*
G37*
G36*
X161934468Y-82753565D02*
G01*
X161973138Y-82765296D01*
X162008777Y-82784346D01*
X162040017Y-82809983D01*
X162065654Y-82841223D01*
X162084704Y-82876862D01*
X162096435Y-82915532D01*
X162101000Y-82961888D01*
X162101000Y-84038112D01*
X162096435Y-84084468D01*
X162084704Y-84123138D01*
X162065654Y-84158777D01*
X162040017Y-84190017D01*
X162008777Y-84215654D01*
X161973138Y-84234704D01*
X161934468Y-84246435D01*
X161888112Y-84251000D01*
X161236888Y-84251000D01*
X161190532Y-84246435D01*
X161151862Y-84234704D01*
X161116223Y-84215654D01*
X161084983Y-84190017D01*
X161059346Y-84158777D01*
X161040296Y-84123138D01*
X161028565Y-84084468D01*
X161024000Y-84038112D01*
X161024000Y-82961888D01*
X161028565Y-82915532D01*
X161040296Y-82876862D01*
X161059346Y-82841223D01*
X161084983Y-82809983D01*
X161116223Y-82784346D01*
X161151862Y-82765296D01*
X161190532Y-82753565D01*
X161236888Y-82749000D01*
X161888112Y-82749000D01*
X161934468Y-82753565D01*
X161934468Y-82753565D01*
G37*
G36*
X163809468Y-82753565D02*
G01*
X163848138Y-82765296D01*
X163883777Y-82784346D01*
X163915017Y-82809983D01*
X163940654Y-82841223D01*
X163959704Y-82876862D01*
X163971435Y-82915532D01*
X163976000Y-82961888D01*
X163976000Y-84038112D01*
X163971435Y-84084468D01*
X163959704Y-84123138D01*
X163940654Y-84158777D01*
X163915017Y-84190017D01*
X163883777Y-84215654D01*
X163848138Y-84234704D01*
X163809468Y-84246435D01*
X163763112Y-84251000D01*
X163111888Y-84251000D01*
X163065532Y-84246435D01*
X163026862Y-84234704D01*
X162991223Y-84215654D01*
X162959983Y-84190017D01*
X162934346Y-84158777D01*
X162915296Y-84123138D01*
X162903565Y-84084468D01*
X162899000Y-84038112D01*
X162899000Y-82961888D01*
X162903565Y-82915532D01*
X162915296Y-82876862D01*
X162934346Y-82841223D01*
X162959983Y-82809983D01*
X162991223Y-82784346D01*
X163026862Y-82765296D01*
X163065532Y-82753565D01*
X163111888Y-82749000D01*
X163763112Y-82749000D01*
X163809468Y-82753565D01*
X163809468Y-82753565D01*
G37*
G36*
X166601000Y-84201000D02*
G01*
X165399000Y-84201000D01*
X165399000Y-82999000D01*
X166601000Y-82999000D01*
X166601000Y-84201000D01*
X166601000Y-84201000D01*
G37*
G36*
X179584468Y-81778565D02*
G01*
X179623138Y-81790296D01*
X179658777Y-81809346D01*
X179690017Y-81834983D01*
X179715654Y-81866223D01*
X179734704Y-81901862D01*
X179746435Y-81940532D01*
X179751000Y-81986888D01*
X179751000Y-82638112D01*
X179746435Y-82684468D01*
X179734704Y-82723138D01*
X179715654Y-82758777D01*
X179690017Y-82790017D01*
X179658777Y-82815654D01*
X179623138Y-82834704D01*
X179584468Y-82846435D01*
X179538112Y-82851000D01*
X178461888Y-82851000D01*
X178415532Y-82846435D01*
X178376862Y-82834704D01*
X178341223Y-82815654D01*
X178309983Y-82790017D01*
X178284346Y-82758777D01*
X178265296Y-82723138D01*
X178253565Y-82684468D01*
X178249000Y-82638112D01*
X178249000Y-81986888D01*
X178253565Y-81940532D01*
X178265296Y-81901862D01*
X178284346Y-81866223D01*
X178309983Y-81834983D01*
X178341223Y-81809346D01*
X178376862Y-81790296D01*
X178415532Y-81778565D01*
X178461888Y-81774000D01*
X179538112Y-81774000D01*
X179584468Y-81778565D01*
X179584468Y-81778565D01*
G37*
G36*
X177276000Y-82001000D02*
G01*
X176624000Y-82001000D01*
X176624000Y-81099000D01*
X177276000Y-81099000D01*
X177276000Y-82001000D01*
X177276000Y-82001000D01*
G37*
G36*
X176326000Y-82001000D02*
G01*
X175674000Y-82001000D01*
X175674000Y-81099000D01*
X176326000Y-81099000D01*
X176326000Y-82001000D01*
X176326000Y-82001000D01*
G37*
G36*
X175376000Y-82001000D02*
G01*
X174724000Y-82001000D01*
X174724000Y-81099000D01*
X175376000Y-81099000D01*
X175376000Y-82001000D01*
X175376000Y-82001000D01*
G37*
G36*
X166084468Y-80903565D02*
G01*
X166123138Y-80915296D01*
X166158777Y-80934346D01*
X166190017Y-80959983D01*
X166215654Y-80991223D01*
X166234704Y-81026862D01*
X166246435Y-81065532D01*
X166251000Y-81111888D01*
X166251000Y-81763112D01*
X166246435Y-81809468D01*
X166234704Y-81848138D01*
X166215654Y-81883777D01*
X166190017Y-81915017D01*
X166158777Y-81940654D01*
X166123138Y-81959704D01*
X166084468Y-81971435D01*
X166038112Y-81976000D01*
X164961888Y-81976000D01*
X164915532Y-81971435D01*
X164876862Y-81959704D01*
X164841223Y-81940654D01*
X164809983Y-81915017D01*
X164784346Y-81883777D01*
X164765296Y-81848138D01*
X164753565Y-81809468D01*
X164749000Y-81763112D01*
X164749000Y-81111888D01*
X164753565Y-81065532D01*
X164765296Y-81026862D01*
X164784346Y-80991223D01*
X164809983Y-80959983D01*
X164841223Y-80934346D01*
X164876862Y-80915296D01*
X164915532Y-80903565D01*
X164961888Y-80899000D01*
X166038112Y-80899000D01*
X166084468Y-80903565D01*
X166084468Y-80903565D01*
G37*
G36*
X182351000Y-81951000D02*
G01*
X181149000Y-81951000D01*
X181149000Y-80749000D01*
X182351000Y-80749000D01*
X182351000Y-81951000D01*
X182351000Y-81951000D01*
G37*
G36*
X163776000Y-81651000D02*
G01*
X163124000Y-81651000D01*
X163124000Y-80749000D01*
X163776000Y-80749000D01*
X163776000Y-81651000D01*
X163776000Y-81651000D01*
G37*
G36*
X161876000Y-81651000D02*
G01*
X161224000Y-81651000D01*
X161224000Y-80749000D01*
X161876000Y-80749000D01*
X161876000Y-81651000D01*
X161876000Y-81651000D01*
G37*
G36*
X180201000Y-80251000D02*
G01*
X178499000Y-80251000D01*
X178499000Y-74249000D01*
X180201000Y-74249000D01*
X180201000Y-80251000D01*
X180201000Y-80251000D01*
G37*
G36*
X175501000Y-80251000D02*
G01*
X173799000Y-80251000D01*
X173799000Y-74249000D01*
X175501000Y-74249000D01*
X175501000Y-80251000D01*
X175501000Y-80251000D01*
G37*
G36*
X166084468Y-79028565D02*
G01*
X166123138Y-79040296D01*
X166158777Y-79059346D01*
X166190017Y-79084983D01*
X166215654Y-79116223D01*
X166234704Y-79151862D01*
X166246435Y-79190532D01*
X166251000Y-79236888D01*
X166251000Y-79888112D01*
X166246435Y-79934468D01*
X166234704Y-79973138D01*
X166215654Y-80008777D01*
X166190017Y-80040017D01*
X166158777Y-80065654D01*
X166123138Y-80084704D01*
X166084468Y-80096435D01*
X166038112Y-80101000D01*
X164961888Y-80101000D01*
X164915532Y-80096435D01*
X164876862Y-80084704D01*
X164841223Y-80065654D01*
X164809983Y-80040017D01*
X164784346Y-80008777D01*
X164765296Y-79973138D01*
X164753565Y-79934468D01*
X164749000Y-79888112D01*
X164749000Y-79236888D01*
X164753565Y-79190532D01*
X164765296Y-79151862D01*
X164784346Y-79116223D01*
X164809983Y-79084983D01*
X164841223Y-79059346D01*
X164876862Y-79040296D01*
X164915532Y-79028565D01*
X164961888Y-79024000D01*
X166038112Y-79024000D01*
X166084468Y-79028565D01*
X166084468Y-79028565D01*
G37*
G36*
X162826000Y-79251000D02*
G01*
X162174000Y-79251000D01*
X162174000Y-78349000D01*
X162826000Y-78349000D01*
X162826000Y-79251000D01*
X162826000Y-79251000D01*
G37*
G36*
X163776000Y-79251000D02*
G01*
X163124000Y-79251000D01*
X163124000Y-78349000D01*
X163776000Y-78349000D01*
X163776000Y-79251000D01*
X163776000Y-79251000D01*
G37*
G36*
X161876000Y-79251000D02*
G01*
X161224000Y-79251000D01*
X161224000Y-78349000D01*
X161876000Y-78349000D01*
X161876000Y-79251000D01*
X161876000Y-79251000D01*
G37*
G36*
X167201000Y-77501000D02*
G01*
X165499000Y-77501000D01*
X165499000Y-71499000D01*
X167201000Y-71499000D01*
X167201000Y-77501000D01*
X167201000Y-77501000D01*
G37*
G36*
X162501000Y-77501000D02*
G01*
X160799000Y-77501000D01*
X160799000Y-71499000D01*
X162501000Y-71499000D01*
X162501000Y-77501000D01*
X162501000Y-77501000D01*
G37*
G36*
X196818433Y-72134893D02*
G01*
X196908657Y-72152839D01*
X197014267Y-72196585D01*
X197163621Y-72258449D01*
X197163622Y-72258450D01*
X197393086Y-72411772D01*
X197588228Y-72606914D01*
X197685691Y-72752778D01*
X197741551Y-72836379D01*
X197847161Y-73091344D01*
X197901000Y-73362012D01*
X197901000Y-73637988D01*
X197847161Y-73908656D01*
X197741551Y-74163621D01*
X197741550Y-74163622D01*
X197588228Y-74393086D01*
X197393086Y-74588228D01*
X197239763Y-74690675D01*
X197163621Y-74741551D01*
X197014267Y-74803415D01*
X196908657Y-74847161D01*
X196818433Y-74865107D01*
X196637988Y-74901000D01*
X196362012Y-74901000D01*
X196181567Y-74865107D01*
X196091343Y-74847161D01*
X195985733Y-74803415D01*
X195836379Y-74741551D01*
X195760237Y-74690675D01*
X195606914Y-74588228D01*
X195411772Y-74393086D01*
X195258450Y-74163622D01*
X195258449Y-74163621D01*
X195152839Y-73908656D01*
X195099000Y-73637988D01*
X195099000Y-73362012D01*
X195152839Y-73091344D01*
X195258449Y-72836379D01*
X195314309Y-72752778D01*
X195411772Y-72606914D01*
X195606914Y-72411772D01*
X195836378Y-72258450D01*
X195836379Y-72258449D01*
X195985733Y-72196585D01*
X196091343Y-72152839D01*
X196181567Y-72134893D01*
X196362012Y-72099000D01*
X196637988Y-72099000D01*
X196818433Y-72134893D01*
X196818433Y-72134893D01*
G37*
G36*
X153818433Y-72134893D02*
G01*
X153908657Y-72152839D01*
X154014267Y-72196585D01*
X154163621Y-72258449D01*
X154163622Y-72258450D01*
X154393086Y-72411772D01*
X154588228Y-72606914D01*
X154685691Y-72752778D01*
X154741551Y-72836379D01*
X154847161Y-73091344D01*
X154901000Y-73362012D01*
X154901000Y-73637988D01*
X154847161Y-73908656D01*
X154741551Y-74163621D01*
X154741550Y-74163622D01*
X154588228Y-74393086D01*
X154393086Y-74588228D01*
X154239763Y-74690675D01*
X154163621Y-74741551D01*
X154014267Y-74803415D01*
X153908657Y-74847161D01*
X153818433Y-74865107D01*
X153637988Y-74901000D01*
X153362012Y-74901000D01*
X153181567Y-74865107D01*
X153091343Y-74847161D01*
X152985733Y-74803415D01*
X152836379Y-74741551D01*
X152760237Y-74690675D01*
X152606914Y-74588228D01*
X152411772Y-74393086D01*
X152258450Y-74163622D01*
X152258449Y-74163621D01*
X152152839Y-73908656D01*
X152099000Y-73637988D01*
X152099000Y-73362012D01*
X152152839Y-73091344D01*
X152258449Y-72836379D01*
X152314309Y-72752778D01*
X152411772Y-72606914D01*
X152606914Y-72411772D01*
X152836378Y-72258450D01*
X152836379Y-72258449D01*
X152985733Y-72196585D01*
X153091343Y-72152839D01*
X153181567Y-72134893D01*
X153362012Y-72099000D01*
X153637988Y-72099000D01*
X153818433Y-72134893D01*
X153818433Y-72134893D01*
G37*
G36*
X178401000Y-72901000D02*
G01*
X176599000Y-72901000D01*
X176599000Y-71099000D01*
X178401000Y-71099000D01*
X178401000Y-72901000D01*
X178401000Y-72901000D01*
G37*
G36*
X175070443Y-71105519D02*
G01*
X175136627Y-71112037D01*
X175306466Y-71163557D01*
X175462991Y-71247222D01*
X175498729Y-71276552D01*
X175600186Y-71359814D01*
X175683448Y-71461271D01*
X175712778Y-71497009D01*
X175796443Y-71653534D01*
X175847963Y-71823373D01*
X175865359Y-72000000D01*
X175847963Y-72176627D01*
X175796443Y-72346466D01*
X175712778Y-72502991D01*
X175683448Y-72538729D01*
X175600186Y-72640186D01*
X175498729Y-72723448D01*
X175462991Y-72752778D01*
X175306466Y-72836443D01*
X175136627Y-72887963D01*
X175070443Y-72894481D01*
X175004260Y-72901000D01*
X174915740Y-72901000D01*
X174849557Y-72894481D01*
X174783373Y-72887963D01*
X174613534Y-72836443D01*
X174457009Y-72752778D01*
X174421271Y-72723448D01*
X174319814Y-72640186D01*
X174236552Y-72538729D01*
X174207222Y-72502991D01*
X174123557Y-72346466D01*
X174072037Y-72176627D01*
X174054641Y-72000000D01*
X174072037Y-71823373D01*
X174123557Y-71653534D01*
X174207222Y-71497009D01*
X174236552Y-71461271D01*
X174319814Y-71359814D01*
X174421271Y-71276552D01*
X174457009Y-71247222D01*
X174613534Y-71163557D01*
X174783373Y-71112037D01*
X174849557Y-71105519D01*
X174915740Y-71099000D01*
X175004260Y-71099000D01*
X175070443Y-71105519D01*
X175070443Y-71105519D01*
G37*
G36*
X172530443Y-71105519D02*
G01*
X172596627Y-71112037D01*
X172766466Y-71163557D01*
X172922991Y-71247222D01*
X172958729Y-71276552D01*
X173060186Y-71359814D01*
X173143448Y-71461271D01*
X173172778Y-71497009D01*
X173256443Y-71653534D01*
X173307963Y-71823373D01*
X173325359Y-72000000D01*
X173307963Y-72176627D01*
X173256443Y-72346466D01*
X173172778Y-72502991D01*
X173143448Y-72538729D01*
X173060186Y-72640186D01*
X172958729Y-72723448D01*
X172922991Y-72752778D01*
X172766466Y-72836443D01*
X172596627Y-72887963D01*
X172530443Y-72894481D01*
X172464260Y-72901000D01*
X172375740Y-72901000D01*
X172309557Y-72894481D01*
X172243373Y-72887963D01*
X172073534Y-72836443D01*
X171917009Y-72752778D01*
X171881271Y-72723448D01*
X171779814Y-72640186D01*
X171696552Y-72538729D01*
X171667222Y-72502991D01*
X171583557Y-72346466D01*
X171532037Y-72176627D01*
X171514641Y-72000000D01*
X171532037Y-71823373D01*
X171583557Y-71653534D01*
X171667222Y-71497009D01*
X171696552Y-71461271D01*
X171779814Y-71359814D01*
X171881271Y-71276552D01*
X171917009Y-71247222D01*
X172073534Y-71163557D01*
X172243373Y-71112037D01*
X172309557Y-71105519D01*
X172375740Y-71099000D01*
X172464260Y-71099000D01*
X172530443Y-71105519D01*
X172530443Y-71105519D01*
G37*
M02*
