G04 #@! TF.GenerationSoftware,KiCad,Pcbnew,5.1.4-e60b266~84~ubuntu18.04.1*
G04 #@! TF.CreationDate,2019-11-01T22:23:45-06:00*
G04 #@! TF.ProjectId,cob_single,636f625f-7369-46e6-976c-652e6b696361,rev?*
G04 #@! TF.SameCoordinates,Original*
G04 #@! TF.FileFunction,Legend,Top*
G04 #@! TF.FilePolarity,Positive*
%FSLAX46Y46*%
G04 Gerber Fmt 4.6, Leading zero omitted, Abs format (unit mm)*
G04 Created by KiCad (PCBNEW 5.1.4-e60b266~84~ubuntu18.04.1) date 2019-11-01 22:23:45*
%MOMM*%
%LPD*%
G04 APERTURE LIST*
%ADD10C,0.150000*%
%ADD11C,0.300000*%
%ADD12C,0.120000*%
G04 APERTURE END LIST*
D10*
X174476190Y-111452380D02*
X174476190Y-110452380D01*
X174952380Y-111452380D02*
X174952380Y-110452380D01*
X175523809Y-111452380D01*
X175523809Y-110452380D01*
X169750000Y-78452380D02*
X169940476Y-78452380D01*
X170035714Y-78500000D01*
X170130952Y-78595238D01*
X170178571Y-78785714D01*
X170178571Y-79119047D01*
X170130952Y-79309523D01*
X170035714Y-79404761D01*
X169940476Y-79452380D01*
X169750000Y-79452380D01*
X169654761Y-79404761D01*
X169559523Y-79309523D01*
X169511904Y-79119047D01*
X169511904Y-78785714D01*
X169559523Y-78595238D01*
X169654761Y-78500000D01*
X169750000Y-78452380D01*
X170607142Y-78452380D02*
X170607142Y-79261904D01*
X170654761Y-79357142D01*
X170702380Y-79404761D01*
X170797619Y-79452380D01*
X170988095Y-79452380D01*
X171083333Y-79404761D01*
X171130952Y-79357142D01*
X171178571Y-79261904D01*
X171178571Y-78452380D01*
X171511904Y-78452380D02*
X172083333Y-78452380D01*
X171797619Y-79452380D02*
X171797619Y-78452380D01*
X181166666Y-71702380D02*
X181500000Y-72702380D01*
X181833333Y-71702380D01*
X172654761Y-75952380D02*
X172845238Y-75952380D01*
X172940476Y-76000000D01*
X173035714Y-76095238D01*
X173083333Y-76285714D01*
X173083333Y-76619047D01*
X173035714Y-76809523D01*
X172940476Y-76904761D01*
X172845238Y-76952380D01*
X172654761Y-76952380D01*
X172559523Y-76904761D01*
X172464285Y-76809523D01*
X172416666Y-76619047D01*
X172416666Y-76285714D01*
X172464285Y-76095238D01*
X172559523Y-76000000D01*
X172654761Y-75952380D01*
X170011904Y-71750000D02*
X169916666Y-71702380D01*
X169773809Y-71702380D01*
X169630952Y-71750000D01*
X169535714Y-71845238D01*
X169488095Y-71940476D01*
X169440476Y-72130952D01*
X169440476Y-72273809D01*
X169488095Y-72464285D01*
X169535714Y-72559523D01*
X169630952Y-72654761D01*
X169773809Y-72702380D01*
X169869047Y-72702380D01*
X170011904Y-72654761D01*
X170059523Y-72607142D01*
X170059523Y-72273809D01*
X169869047Y-72273809D01*
X174000000Y-115952380D02*
X174000000Y-114952380D01*
X179666666Y-117452380D02*
X180000000Y-118452380D01*
X180333333Y-117452380D01*
X172761904Y-115000000D02*
X172666666Y-114952380D01*
X172523809Y-114952380D01*
X172380952Y-115000000D01*
X172285714Y-115095238D01*
X172238095Y-115190476D01*
X172190476Y-115380952D01*
X172190476Y-115523809D01*
X172238095Y-115714285D01*
X172285714Y-115809523D01*
X172380952Y-115904761D01*
X172523809Y-115952380D01*
X172619047Y-115952380D01*
X172761904Y-115904761D01*
X172809523Y-115857142D01*
X172809523Y-115523809D01*
X172619047Y-115523809D01*
D11*
X181642857Y-108607142D02*
X181500000Y-108678571D01*
X181214285Y-108678571D01*
X181071428Y-108607142D01*
X181000000Y-108535714D01*
X180928571Y-108392857D01*
X180928571Y-107964285D01*
X181000000Y-107821428D01*
X181071428Y-107750000D01*
X181214285Y-107678571D01*
X181500000Y-107678571D01*
X181642857Y-107750000D01*
X182500000Y-108678571D02*
X182357142Y-108607142D01*
X182285714Y-108535714D01*
X182214285Y-108392857D01*
X182214285Y-107964285D01*
X182285714Y-107821428D01*
X182357142Y-107750000D01*
X182500000Y-107678571D01*
X182714285Y-107678571D01*
X182857142Y-107750000D01*
X182928571Y-107821428D01*
X183000000Y-107964285D01*
X183000000Y-108392857D01*
X182928571Y-108535714D01*
X182857142Y-108607142D01*
X182714285Y-108678571D01*
X182500000Y-108678571D01*
X183642857Y-108678571D02*
X183642857Y-107178571D01*
X183642857Y-107750000D02*
X183785714Y-107678571D01*
X184071428Y-107678571D01*
X184214285Y-107750000D01*
X184285714Y-107821428D01*
X184357142Y-107964285D01*
X184357142Y-108392857D01*
X184285714Y-108535714D01*
X184214285Y-108607142D01*
X184071428Y-108678571D01*
X183785714Y-108678571D01*
X183642857Y-108607142D01*
X184642857Y-108821428D02*
X185785714Y-108821428D01*
X186071428Y-108607142D02*
X186214285Y-108678571D01*
X186500000Y-108678571D01*
X186642857Y-108607142D01*
X186714285Y-108464285D01*
X186714285Y-108392857D01*
X186642857Y-108250000D01*
X186500000Y-108178571D01*
X186285714Y-108178571D01*
X186142857Y-108107142D01*
X186071428Y-107964285D01*
X186071428Y-107892857D01*
X186142857Y-107750000D01*
X186285714Y-107678571D01*
X186500000Y-107678571D01*
X186642857Y-107750000D01*
X187357142Y-108678571D02*
X187357142Y-107678571D01*
X187357142Y-107178571D02*
X187285714Y-107250000D01*
X187357142Y-107321428D01*
X187428571Y-107250000D01*
X187357142Y-107178571D01*
X187357142Y-107321428D01*
X188071428Y-107678571D02*
X188071428Y-108678571D01*
X188071428Y-107821428D02*
X188142857Y-107750000D01*
X188285714Y-107678571D01*
X188500000Y-107678571D01*
X188642857Y-107750000D01*
X188714285Y-107892857D01*
X188714285Y-108678571D01*
X190071428Y-107678571D02*
X190071428Y-108892857D01*
X190000000Y-109035714D01*
X189928571Y-109107142D01*
X189785714Y-109178571D01*
X189571428Y-109178571D01*
X189428571Y-109107142D01*
X190071428Y-108607142D02*
X189928571Y-108678571D01*
X189642857Y-108678571D01*
X189500000Y-108607142D01*
X189428571Y-108535714D01*
X189357142Y-108392857D01*
X189357142Y-107964285D01*
X189428571Y-107821428D01*
X189500000Y-107750000D01*
X189642857Y-107678571D01*
X189928571Y-107678571D01*
X190071428Y-107750000D01*
X191000000Y-108678571D02*
X190857142Y-108607142D01*
X190785714Y-108464285D01*
X190785714Y-107178571D01*
X192142857Y-108607142D02*
X192000000Y-108678571D01*
X191714285Y-108678571D01*
X191571428Y-108607142D01*
X191500000Y-108464285D01*
X191500000Y-107892857D01*
X191571428Y-107750000D01*
X191714285Y-107678571D01*
X192000000Y-107678571D01*
X192142857Y-107750000D01*
X192214285Y-107892857D01*
X192214285Y-108035714D01*
X191500000Y-108178571D01*
X193857142Y-107678571D02*
X194214285Y-108678571D01*
X194571428Y-107678571D01*
X195928571Y-108678571D02*
X195071428Y-108678571D01*
X195500000Y-108678571D02*
X195500000Y-107178571D01*
X195357142Y-107392857D01*
X195214285Y-107535714D01*
X195071428Y-107607142D01*
X196571428Y-108535714D02*
X196642857Y-108607142D01*
X196571428Y-108678571D01*
X196500000Y-108607142D01*
X196571428Y-108535714D01*
X196571428Y-108678571D01*
X197571428Y-107178571D02*
X197714285Y-107178571D01*
X197857142Y-107250000D01*
X197928571Y-107321428D01*
X198000000Y-107464285D01*
X198071428Y-107750000D01*
X198071428Y-108107142D01*
X198000000Y-108392857D01*
X197928571Y-108535714D01*
X197857142Y-108607142D01*
X197714285Y-108678571D01*
X197571428Y-108678571D01*
X197428571Y-108607142D01*
X197357142Y-108535714D01*
X197285714Y-108392857D01*
X197214285Y-108107142D01*
X197214285Y-107750000D01*
X197285714Y-107464285D01*
X197357142Y-107321428D01*
X197428571Y-107250000D01*
X197571428Y-107178571D01*
D12*
X153758578Y-92540000D02*
X153241422Y-92540000D01*
X153758578Y-93960000D02*
X153241422Y-93960000D01*
X157210000Y-90758578D02*
X157210000Y-90241422D01*
X155790000Y-90758578D02*
X155790000Y-90241422D01*
D10*
X177700000Y-83750000D02*
X177400000Y-83750000D01*
X177700000Y-81650000D02*
X177400000Y-81650000D01*
X174300000Y-83750000D02*
X174600000Y-83750000D01*
X174300000Y-81750000D02*
X174600000Y-81750000D01*
X177700000Y-81650000D02*
X177700000Y-83750000D01*
X174300000Y-81750000D02*
X174300000Y-83750000D01*
X176400000Y-81750000D02*
X176500000Y-81750000D01*
X175500000Y-81750000D02*
X175600000Y-81750000D01*
X176500000Y-83750000D02*
X175500000Y-83750000D01*
X164200000Y-81000000D02*
X163900000Y-81000000D01*
X164200000Y-78900000D02*
X163900000Y-78900000D01*
X160800000Y-81000000D02*
X161100000Y-81000000D01*
X160800000Y-79000000D02*
X161100000Y-79000000D01*
X164200000Y-78900000D02*
X164200000Y-81000000D01*
X160800000Y-79000000D02*
X160800000Y-81000000D01*
X162900000Y-79000000D02*
X163000000Y-79000000D01*
X162000000Y-79000000D02*
X162100000Y-79000000D01*
X163000000Y-81000000D02*
X162000000Y-81000000D01*
X155200000Y-91000000D02*
X154900000Y-91000000D01*
X155200000Y-88900000D02*
X154900000Y-88900000D01*
X151800000Y-91000000D02*
X152100000Y-91000000D01*
X151800000Y-89000000D02*
X152100000Y-89000000D01*
X155200000Y-88900000D02*
X155200000Y-91000000D01*
X151800000Y-89000000D02*
X151800000Y-91000000D01*
X153900000Y-89000000D02*
X154000000Y-89000000D01*
X153000000Y-89000000D02*
X153100000Y-89000000D01*
X154000000Y-91000000D02*
X153000000Y-91000000D01*
D12*
X168490000Y-112620000D02*
X168490000Y-115050000D01*
X171560000Y-114380000D02*
X171560000Y-112620000D01*
X176508578Y-85290000D02*
X175991422Y-85290000D01*
X176508578Y-86710000D02*
X175991422Y-86710000D01*
X162758578Y-82790000D02*
X162241422Y-82790000D01*
X162758578Y-84210000D02*
X162241422Y-84210000D01*
X173850000Y-80350000D02*
X180150000Y-80350000D01*
X173850000Y-74150000D02*
X180150000Y-74150000D01*
X167150000Y-71400000D02*
X160850000Y-71400000D01*
X167150000Y-77600000D02*
X160850000Y-77600000D01*
X158150000Y-81400000D02*
X151850000Y-81400000D01*
X158150000Y-87600000D02*
X151850000Y-87600000D01*
X180750000Y-84950000D02*
X182750000Y-84950000D01*
X182750000Y-84950000D02*
X182750000Y-81100000D01*
X180750000Y-84950000D02*
X180750000Y-81100000D01*
X165000000Y-87200000D02*
X165000000Y-83350000D01*
X167000000Y-87200000D02*
X167000000Y-83350000D01*
X165000000Y-87200000D02*
X167000000Y-87200000D01*
X156000000Y-97200000D02*
X156000000Y-93350000D01*
X158000000Y-97200000D02*
X158000000Y-93350000D01*
X156000000Y-97200000D02*
X158000000Y-97200000D01*
X179710000Y-83508578D02*
X179710000Y-82991422D01*
X178290000Y-83508578D02*
X178290000Y-82991422D01*
X169741422Y-110710000D02*
X170258578Y-110710000D01*
X169741422Y-109290000D02*
X170258578Y-109290000D01*
X166210000Y-80758578D02*
X166210000Y-80241422D01*
X164790000Y-80758578D02*
X164790000Y-80241422D01*
X178400000Y-90700000D02*
X171600000Y-90700000D01*
X169900000Y-97550000D02*
X171600000Y-97550000D01*
X171600000Y-97550000D02*
X171600000Y-99300000D01*
X178400000Y-97550000D02*
X178400000Y-99300000D01*
X178400000Y-99300000D02*
X171600000Y-99300000D01*
X180100000Y-97550000D02*
X178400000Y-97550000D01*
X179700000Y-92450000D02*
X180100000Y-92450000D01*
X178400000Y-90700000D02*
X178400000Y-92450000D01*
X178400000Y-92450000D02*
X179700000Y-92450000D01*
X171600000Y-90700000D02*
X171600000Y-92450000D01*
X167250000Y-92450000D02*
X171600000Y-92450000D01*
X164837221Y-118510000D02*
X165162779Y-118510000D01*
X164837221Y-117490000D02*
X165162779Y-117490000D01*
X161490000Y-106162779D02*
X161490000Y-105837221D01*
X162510000Y-106162779D02*
X162510000Y-105837221D01*
X176758578Y-115710000D02*
X176241422Y-115710000D01*
X176758578Y-114290000D02*
X176241422Y-114290000D01*
X171170000Y-119330000D02*
X171170000Y-118000000D01*
X172500000Y-119330000D02*
X171170000Y-119330000D01*
X173770000Y-119330000D02*
X173770000Y-116670000D01*
X173770000Y-116670000D02*
X178910000Y-116670000D01*
X173770000Y-119330000D02*
X178910000Y-119330000D01*
X178910000Y-119330000D02*
X178910000Y-116670000D01*
X171090000Y-70670000D02*
X171090000Y-73330000D01*
X176230000Y-70670000D02*
X171090000Y-70670000D01*
X176230000Y-73330000D02*
X171090000Y-73330000D01*
X176230000Y-70670000D02*
X176230000Y-73330000D01*
X177500000Y-70670000D02*
X178830000Y-70670000D01*
X178830000Y-70670000D02*
X178830000Y-72000000D01*
X164837221Y-113490000D02*
X165162779Y-113490000D01*
X164837221Y-114510000D02*
X165162779Y-114510000D01*
X165162779Y-116510000D02*
X164837221Y-116510000D01*
X165162779Y-115490000D02*
X164837221Y-115490000D01*
X151837221Y-105990000D02*
X152162779Y-105990000D01*
X151837221Y-107010000D02*
X152162779Y-107010000D01*
X151837221Y-105010000D02*
X152162779Y-105010000D01*
X151837221Y-103990000D02*
X152162779Y-103990000D01*
X151837221Y-101990000D02*
X152162779Y-101990000D01*
X151837221Y-103010000D02*
X152162779Y-103010000D01*
X157910000Y-115000000D02*
X157910000Y-116880000D01*
X157910000Y-115000000D02*
X157910000Y-113120000D01*
X163090000Y-115000000D02*
X163090000Y-116880000D01*
X163090000Y-115000000D02*
X163090000Y-111475000D01*
D10*
X158125000Y-102375000D02*
X158000000Y-102375000D01*
X158125000Y-105625000D02*
X157900000Y-105625000D01*
X154875000Y-105625000D02*
X155100000Y-105625000D01*
X154875000Y-102375000D02*
X155100000Y-102375000D01*
X158125000Y-102375000D02*
X158125000Y-105625000D01*
X154875000Y-102375000D02*
X154875000Y-105625000D01*
X158000000Y-102375000D02*
X158000000Y-101300000D01*
M02*
