G04 #@! TF.GenerationSoftware,KiCad,Pcbnew,5.1.4-e60b266~84~ubuntu18.04.1*
G04 #@! TF.CreationDate,2019-11-01T22:23:45-06:00*
G04 #@! TF.ProjectId,cob_single,636f625f-7369-46e6-976c-652e6b696361,rev?*
G04 #@! TF.SameCoordinates,Original*
G04 #@! TF.FileFunction,Copper,L1,Top*
G04 #@! TF.FilePolarity,Positive*
%FSLAX46Y46*%
G04 Gerber Fmt 4.6, Leading zero omitted, Abs format (unit mm)*
G04 Created by KiCad (PCBNEW 5.1.4-e60b266~84~ubuntu18.04.1) date 2019-11-01 22:23:45*
%MOMM*%
%LPD*%
G04 APERTURE LIST*
%ADD10C,0.100000*%
%ADD11C,0.975000*%
%ADD12R,0.550000X0.800000*%
%ADD13R,0.650000X1.220000*%
%ADD14R,1.600000X5.900000*%
%ADD15R,1.100000X1.100000*%
%ADD16R,3.100000X1.200000*%
%ADD17C,5.700000*%
%ADD18C,0.875000*%
%ADD19O,1.700000X1.700000*%
%ADD20R,1.700000X1.700000*%
%ADD21C,0.650000*%
%ADD22R,0.400000X1.100000*%
%ADD23C,2.700000*%
%ADD24C,0.800000*%
%ADD25C,0.250000*%
%ADD26C,0.500000*%
%ADD27C,1.000000*%
%ADD28C,0.750000*%
%ADD29C,0.254000*%
G04 APERTURE END LIST*
D10*
G36*
X152830142Y-92551174D02*
G01*
X152853803Y-92554684D01*
X152877007Y-92560496D01*
X152899529Y-92568554D01*
X152921153Y-92578782D01*
X152941670Y-92591079D01*
X152960883Y-92605329D01*
X152978607Y-92621393D01*
X152994671Y-92639117D01*
X153008921Y-92658330D01*
X153021218Y-92678847D01*
X153031446Y-92700471D01*
X153039504Y-92722993D01*
X153045316Y-92746197D01*
X153048826Y-92769858D01*
X153050000Y-92793750D01*
X153050000Y-93706250D01*
X153048826Y-93730142D01*
X153045316Y-93753803D01*
X153039504Y-93777007D01*
X153031446Y-93799529D01*
X153021218Y-93821153D01*
X153008921Y-93841670D01*
X152994671Y-93860883D01*
X152978607Y-93878607D01*
X152960883Y-93894671D01*
X152941670Y-93908921D01*
X152921153Y-93921218D01*
X152899529Y-93931446D01*
X152877007Y-93939504D01*
X152853803Y-93945316D01*
X152830142Y-93948826D01*
X152806250Y-93950000D01*
X152318750Y-93950000D01*
X152294858Y-93948826D01*
X152271197Y-93945316D01*
X152247993Y-93939504D01*
X152225471Y-93931446D01*
X152203847Y-93921218D01*
X152183330Y-93908921D01*
X152164117Y-93894671D01*
X152146393Y-93878607D01*
X152130329Y-93860883D01*
X152116079Y-93841670D01*
X152103782Y-93821153D01*
X152093554Y-93799529D01*
X152085496Y-93777007D01*
X152079684Y-93753803D01*
X152076174Y-93730142D01*
X152075000Y-93706250D01*
X152075000Y-92793750D01*
X152076174Y-92769858D01*
X152079684Y-92746197D01*
X152085496Y-92722993D01*
X152093554Y-92700471D01*
X152103782Y-92678847D01*
X152116079Y-92658330D01*
X152130329Y-92639117D01*
X152146393Y-92621393D01*
X152164117Y-92605329D01*
X152183330Y-92591079D01*
X152203847Y-92578782D01*
X152225471Y-92568554D01*
X152247993Y-92560496D01*
X152271197Y-92554684D01*
X152294858Y-92551174D01*
X152318750Y-92550000D01*
X152806250Y-92550000D01*
X152830142Y-92551174D01*
X152830142Y-92551174D01*
G37*
D11*
X152562500Y-93250000D03*
D10*
G36*
X154705142Y-92551174D02*
G01*
X154728803Y-92554684D01*
X154752007Y-92560496D01*
X154774529Y-92568554D01*
X154796153Y-92578782D01*
X154816670Y-92591079D01*
X154835883Y-92605329D01*
X154853607Y-92621393D01*
X154869671Y-92639117D01*
X154883921Y-92658330D01*
X154896218Y-92678847D01*
X154906446Y-92700471D01*
X154914504Y-92722993D01*
X154920316Y-92746197D01*
X154923826Y-92769858D01*
X154925000Y-92793750D01*
X154925000Y-93706250D01*
X154923826Y-93730142D01*
X154920316Y-93753803D01*
X154914504Y-93777007D01*
X154906446Y-93799529D01*
X154896218Y-93821153D01*
X154883921Y-93841670D01*
X154869671Y-93860883D01*
X154853607Y-93878607D01*
X154835883Y-93894671D01*
X154816670Y-93908921D01*
X154796153Y-93921218D01*
X154774529Y-93931446D01*
X154752007Y-93939504D01*
X154728803Y-93945316D01*
X154705142Y-93948826D01*
X154681250Y-93950000D01*
X154193750Y-93950000D01*
X154169858Y-93948826D01*
X154146197Y-93945316D01*
X154122993Y-93939504D01*
X154100471Y-93931446D01*
X154078847Y-93921218D01*
X154058330Y-93908921D01*
X154039117Y-93894671D01*
X154021393Y-93878607D01*
X154005329Y-93860883D01*
X153991079Y-93841670D01*
X153978782Y-93821153D01*
X153968554Y-93799529D01*
X153960496Y-93777007D01*
X153954684Y-93753803D01*
X153951174Y-93730142D01*
X153950000Y-93706250D01*
X153950000Y-92793750D01*
X153951174Y-92769858D01*
X153954684Y-92746197D01*
X153960496Y-92722993D01*
X153968554Y-92700471D01*
X153978782Y-92678847D01*
X153991079Y-92658330D01*
X154005329Y-92639117D01*
X154021393Y-92621393D01*
X154039117Y-92605329D01*
X154058330Y-92591079D01*
X154078847Y-92578782D01*
X154100471Y-92568554D01*
X154122993Y-92560496D01*
X154146197Y-92554684D01*
X154169858Y-92551174D01*
X154193750Y-92550000D01*
X154681250Y-92550000D01*
X154705142Y-92551174D01*
X154705142Y-92551174D01*
G37*
D11*
X154437500Y-93250000D03*
D10*
G36*
X156980142Y-89076174D02*
G01*
X157003803Y-89079684D01*
X157027007Y-89085496D01*
X157049529Y-89093554D01*
X157071153Y-89103782D01*
X157091670Y-89116079D01*
X157110883Y-89130329D01*
X157128607Y-89146393D01*
X157144671Y-89164117D01*
X157158921Y-89183330D01*
X157171218Y-89203847D01*
X157181446Y-89225471D01*
X157189504Y-89247993D01*
X157195316Y-89271197D01*
X157198826Y-89294858D01*
X157200000Y-89318750D01*
X157200000Y-89806250D01*
X157198826Y-89830142D01*
X157195316Y-89853803D01*
X157189504Y-89877007D01*
X157181446Y-89899529D01*
X157171218Y-89921153D01*
X157158921Y-89941670D01*
X157144671Y-89960883D01*
X157128607Y-89978607D01*
X157110883Y-89994671D01*
X157091670Y-90008921D01*
X157071153Y-90021218D01*
X157049529Y-90031446D01*
X157027007Y-90039504D01*
X157003803Y-90045316D01*
X156980142Y-90048826D01*
X156956250Y-90050000D01*
X156043750Y-90050000D01*
X156019858Y-90048826D01*
X155996197Y-90045316D01*
X155972993Y-90039504D01*
X155950471Y-90031446D01*
X155928847Y-90021218D01*
X155908330Y-90008921D01*
X155889117Y-89994671D01*
X155871393Y-89978607D01*
X155855329Y-89960883D01*
X155841079Y-89941670D01*
X155828782Y-89921153D01*
X155818554Y-89899529D01*
X155810496Y-89877007D01*
X155804684Y-89853803D01*
X155801174Y-89830142D01*
X155800000Y-89806250D01*
X155800000Y-89318750D01*
X155801174Y-89294858D01*
X155804684Y-89271197D01*
X155810496Y-89247993D01*
X155818554Y-89225471D01*
X155828782Y-89203847D01*
X155841079Y-89183330D01*
X155855329Y-89164117D01*
X155871393Y-89146393D01*
X155889117Y-89130329D01*
X155908330Y-89116079D01*
X155928847Y-89103782D01*
X155950471Y-89093554D01*
X155972993Y-89085496D01*
X155996197Y-89079684D01*
X156019858Y-89076174D01*
X156043750Y-89075000D01*
X156956250Y-89075000D01*
X156980142Y-89076174D01*
X156980142Y-89076174D01*
G37*
D11*
X156500000Y-89562500D03*
D10*
G36*
X156980142Y-90951174D02*
G01*
X157003803Y-90954684D01*
X157027007Y-90960496D01*
X157049529Y-90968554D01*
X157071153Y-90978782D01*
X157091670Y-90991079D01*
X157110883Y-91005329D01*
X157128607Y-91021393D01*
X157144671Y-91039117D01*
X157158921Y-91058330D01*
X157171218Y-91078847D01*
X157181446Y-91100471D01*
X157189504Y-91122993D01*
X157195316Y-91146197D01*
X157198826Y-91169858D01*
X157200000Y-91193750D01*
X157200000Y-91681250D01*
X157198826Y-91705142D01*
X157195316Y-91728803D01*
X157189504Y-91752007D01*
X157181446Y-91774529D01*
X157171218Y-91796153D01*
X157158921Y-91816670D01*
X157144671Y-91835883D01*
X157128607Y-91853607D01*
X157110883Y-91869671D01*
X157091670Y-91883921D01*
X157071153Y-91896218D01*
X157049529Y-91906446D01*
X157027007Y-91914504D01*
X157003803Y-91920316D01*
X156980142Y-91923826D01*
X156956250Y-91925000D01*
X156043750Y-91925000D01*
X156019858Y-91923826D01*
X155996197Y-91920316D01*
X155972993Y-91914504D01*
X155950471Y-91906446D01*
X155928847Y-91896218D01*
X155908330Y-91883921D01*
X155889117Y-91869671D01*
X155871393Y-91853607D01*
X155855329Y-91835883D01*
X155841079Y-91816670D01*
X155828782Y-91796153D01*
X155818554Y-91774529D01*
X155810496Y-91752007D01*
X155804684Y-91728803D01*
X155801174Y-91705142D01*
X155800000Y-91681250D01*
X155800000Y-91193750D01*
X155801174Y-91169858D01*
X155804684Y-91146197D01*
X155810496Y-91122993D01*
X155818554Y-91100471D01*
X155828782Y-91078847D01*
X155841079Y-91058330D01*
X155855329Y-91039117D01*
X155871393Y-91021393D01*
X155889117Y-91005329D01*
X155908330Y-90991079D01*
X155928847Y-90978782D01*
X155950471Y-90968554D01*
X155972993Y-90960496D01*
X155996197Y-90954684D01*
X156019858Y-90951174D01*
X156043750Y-90950000D01*
X156956250Y-90950000D01*
X156980142Y-90951174D01*
X156980142Y-90951174D01*
G37*
D11*
X156500000Y-91437500D03*
D12*
X176950000Y-83950000D03*
X175050000Y-83950000D03*
X176950000Y-81550000D03*
X175050000Y-81550000D03*
X176000000Y-81550000D03*
X163450000Y-81200000D03*
X161550000Y-81200000D03*
X163450000Y-78800000D03*
X161550000Y-78800000D03*
X162500000Y-78800000D03*
X154450000Y-91200000D03*
X152550000Y-91200000D03*
X154450000Y-88800000D03*
X152550000Y-88800000D03*
X153500000Y-88800000D03*
D13*
X169050000Y-112190000D03*
X170950000Y-112190000D03*
X170950000Y-114810000D03*
X170000000Y-114810000D03*
X169050000Y-114810000D03*
D10*
G36*
X175580142Y-85301174D02*
G01*
X175603803Y-85304684D01*
X175627007Y-85310496D01*
X175649529Y-85318554D01*
X175671153Y-85328782D01*
X175691670Y-85341079D01*
X175710883Y-85355329D01*
X175728607Y-85371393D01*
X175744671Y-85389117D01*
X175758921Y-85408330D01*
X175771218Y-85428847D01*
X175781446Y-85450471D01*
X175789504Y-85472993D01*
X175795316Y-85496197D01*
X175798826Y-85519858D01*
X175800000Y-85543750D01*
X175800000Y-86456250D01*
X175798826Y-86480142D01*
X175795316Y-86503803D01*
X175789504Y-86527007D01*
X175781446Y-86549529D01*
X175771218Y-86571153D01*
X175758921Y-86591670D01*
X175744671Y-86610883D01*
X175728607Y-86628607D01*
X175710883Y-86644671D01*
X175691670Y-86658921D01*
X175671153Y-86671218D01*
X175649529Y-86681446D01*
X175627007Y-86689504D01*
X175603803Y-86695316D01*
X175580142Y-86698826D01*
X175556250Y-86700000D01*
X175068750Y-86700000D01*
X175044858Y-86698826D01*
X175021197Y-86695316D01*
X174997993Y-86689504D01*
X174975471Y-86681446D01*
X174953847Y-86671218D01*
X174933330Y-86658921D01*
X174914117Y-86644671D01*
X174896393Y-86628607D01*
X174880329Y-86610883D01*
X174866079Y-86591670D01*
X174853782Y-86571153D01*
X174843554Y-86549529D01*
X174835496Y-86527007D01*
X174829684Y-86503803D01*
X174826174Y-86480142D01*
X174825000Y-86456250D01*
X174825000Y-85543750D01*
X174826174Y-85519858D01*
X174829684Y-85496197D01*
X174835496Y-85472993D01*
X174843554Y-85450471D01*
X174853782Y-85428847D01*
X174866079Y-85408330D01*
X174880329Y-85389117D01*
X174896393Y-85371393D01*
X174914117Y-85355329D01*
X174933330Y-85341079D01*
X174953847Y-85328782D01*
X174975471Y-85318554D01*
X174997993Y-85310496D01*
X175021197Y-85304684D01*
X175044858Y-85301174D01*
X175068750Y-85300000D01*
X175556250Y-85300000D01*
X175580142Y-85301174D01*
X175580142Y-85301174D01*
G37*
D11*
X175312500Y-86000000D03*
D10*
G36*
X177455142Y-85301174D02*
G01*
X177478803Y-85304684D01*
X177502007Y-85310496D01*
X177524529Y-85318554D01*
X177546153Y-85328782D01*
X177566670Y-85341079D01*
X177585883Y-85355329D01*
X177603607Y-85371393D01*
X177619671Y-85389117D01*
X177633921Y-85408330D01*
X177646218Y-85428847D01*
X177656446Y-85450471D01*
X177664504Y-85472993D01*
X177670316Y-85496197D01*
X177673826Y-85519858D01*
X177675000Y-85543750D01*
X177675000Y-86456250D01*
X177673826Y-86480142D01*
X177670316Y-86503803D01*
X177664504Y-86527007D01*
X177656446Y-86549529D01*
X177646218Y-86571153D01*
X177633921Y-86591670D01*
X177619671Y-86610883D01*
X177603607Y-86628607D01*
X177585883Y-86644671D01*
X177566670Y-86658921D01*
X177546153Y-86671218D01*
X177524529Y-86681446D01*
X177502007Y-86689504D01*
X177478803Y-86695316D01*
X177455142Y-86698826D01*
X177431250Y-86700000D01*
X176943750Y-86700000D01*
X176919858Y-86698826D01*
X176896197Y-86695316D01*
X176872993Y-86689504D01*
X176850471Y-86681446D01*
X176828847Y-86671218D01*
X176808330Y-86658921D01*
X176789117Y-86644671D01*
X176771393Y-86628607D01*
X176755329Y-86610883D01*
X176741079Y-86591670D01*
X176728782Y-86571153D01*
X176718554Y-86549529D01*
X176710496Y-86527007D01*
X176704684Y-86503803D01*
X176701174Y-86480142D01*
X176700000Y-86456250D01*
X176700000Y-85543750D01*
X176701174Y-85519858D01*
X176704684Y-85496197D01*
X176710496Y-85472993D01*
X176718554Y-85450471D01*
X176728782Y-85428847D01*
X176741079Y-85408330D01*
X176755329Y-85389117D01*
X176771393Y-85371393D01*
X176789117Y-85355329D01*
X176808330Y-85341079D01*
X176828847Y-85328782D01*
X176850471Y-85318554D01*
X176872993Y-85310496D01*
X176896197Y-85304684D01*
X176919858Y-85301174D01*
X176943750Y-85300000D01*
X177431250Y-85300000D01*
X177455142Y-85301174D01*
X177455142Y-85301174D01*
G37*
D11*
X177187500Y-86000000D03*
D10*
G36*
X161830142Y-82801174D02*
G01*
X161853803Y-82804684D01*
X161877007Y-82810496D01*
X161899529Y-82818554D01*
X161921153Y-82828782D01*
X161941670Y-82841079D01*
X161960883Y-82855329D01*
X161978607Y-82871393D01*
X161994671Y-82889117D01*
X162008921Y-82908330D01*
X162021218Y-82928847D01*
X162031446Y-82950471D01*
X162039504Y-82972993D01*
X162045316Y-82996197D01*
X162048826Y-83019858D01*
X162050000Y-83043750D01*
X162050000Y-83956250D01*
X162048826Y-83980142D01*
X162045316Y-84003803D01*
X162039504Y-84027007D01*
X162031446Y-84049529D01*
X162021218Y-84071153D01*
X162008921Y-84091670D01*
X161994671Y-84110883D01*
X161978607Y-84128607D01*
X161960883Y-84144671D01*
X161941670Y-84158921D01*
X161921153Y-84171218D01*
X161899529Y-84181446D01*
X161877007Y-84189504D01*
X161853803Y-84195316D01*
X161830142Y-84198826D01*
X161806250Y-84200000D01*
X161318750Y-84200000D01*
X161294858Y-84198826D01*
X161271197Y-84195316D01*
X161247993Y-84189504D01*
X161225471Y-84181446D01*
X161203847Y-84171218D01*
X161183330Y-84158921D01*
X161164117Y-84144671D01*
X161146393Y-84128607D01*
X161130329Y-84110883D01*
X161116079Y-84091670D01*
X161103782Y-84071153D01*
X161093554Y-84049529D01*
X161085496Y-84027007D01*
X161079684Y-84003803D01*
X161076174Y-83980142D01*
X161075000Y-83956250D01*
X161075000Y-83043750D01*
X161076174Y-83019858D01*
X161079684Y-82996197D01*
X161085496Y-82972993D01*
X161093554Y-82950471D01*
X161103782Y-82928847D01*
X161116079Y-82908330D01*
X161130329Y-82889117D01*
X161146393Y-82871393D01*
X161164117Y-82855329D01*
X161183330Y-82841079D01*
X161203847Y-82828782D01*
X161225471Y-82818554D01*
X161247993Y-82810496D01*
X161271197Y-82804684D01*
X161294858Y-82801174D01*
X161318750Y-82800000D01*
X161806250Y-82800000D01*
X161830142Y-82801174D01*
X161830142Y-82801174D01*
G37*
D11*
X161562500Y-83500000D03*
D10*
G36*
X163705142Y-82801174D02*
G01*
X163728803Y-82804684D01*
X163752007Y-82810496D01*
X163774529Y-82818554D01*
X163796153Y-82828782D01*
X163816670Y-82841079D01*
X163835883Y-82855329D01*
X163853607Y-82871393D01*
X163869671Y-82889117D01*
X163883921Y-82908330D01*
X163896218Y-82928847D01*
X163906446Y-82950471D01*
X163914504Y-82972993D01*
X163920316Y-82996197D01*
X163923826Y-83019858D01*
X163925000Y-83043750D01*
X163925000Y-83956250D01*
X163923826Y-83980142D01*
X163920316Y-84003803D01*
X163914504Y-84027007D01*
X163906446Y-84049529D01*
X163896218Y-84071153D01*
X163883921Y-84091670D01*
X163869671Y-84110883D01*
X163853607Y-84128607D01*
X163835883Y-84144671D01*
X163816670Y-84158921D01*
X163796153Y-84171218D01*
X163774529Y-84181446D01*
X163752007Y-84189504D01*
X163728803Y-84195316D01*
X163705142Y-84198826D01*
X163681250Y-84200000D01*
X163193750Y-84200000D01*
X163169858Y-84198826D01*
X163146197Y-84195316D01*
X163122993Y-84189504D01*
X163100471Y-84181446D01*
X163078847Y-84171218D01*
X163058330Y-84158921D01*
X163039117Y-84144671D01*
X163021393Y-84128607D01*
X163005329Y-84110883D01*
X162991079Y-84091670D01*
X162978782Y-84071153D01*
X162968554Y-84049529D01*
X162960496Y-84027007D01*
X162954684Y-84003803D01*
X162951174Y-83980142D01*
X162950000Y-83956250D01*
X162950000Y-83043750D01*
X162951174Y-83019858D01*
X162954684Y-82996197D01*
X162960496Y-82972993D01*
X162968554Y-82950471D01*
X162978782Y-82928847D01*
X162991079Y-82908330D01*
X163005329Y-82889117D01*
X163021393Y-82871393D01*
X163039117Y-82855329D01*
X163058330Y-82841079D01*
X163078847Y-82828782D01*
X163100471Y-82818554D01*
X163122993Y-82810496D01*
X163146197Y-82804684D01*
X163169858Y-82801174D01*
X163193750Y-82800000D01*
X163681250Y-82800000D01*
X163705142Y-82801174D01*
X163705142Y-82801174D01*
G37*
D11*
X163437500Y-83500000D03*
D14*
X179350000Y-77250000D03*
X174650000Y-77250000D03*
X161650000Y-74500000D03*
X166350000Y-74500000D03*
X152650000Y-84500000D03*
X157350000Y-84500000D03*
D15*
X181750000Y-84150000D03*
X181750000Y-81350000D03*
X166000000Y-83600000D03*
X166000000Y-86400000D03*
X157000000Y-93600000D03*
X157000000Y-96400000D03*
D10*
G36*
X179480142Y-81826174D02*
G01*
X179503803Y-81829684D01*
X179527007Y-81835496D01*
X179549529Y-81843554D01*
X179571153Y-81853782D01*
X179591670Y-81866079D01*
X179610883Y-81880329D01*
X179628607Y-81896393D01*
X179644671Y-81914117D01*
X179658921Y-81933330D01*
X179671218Y-81953847D01*
X179681446Y-81975471D01*
X179689504Y-81997993D01*
X179695316Y-82021197D01*
X179698826Y-82044858D01*
X179700000Y-82068750D01*
X179700000Y-82556250D01*
X179698826Y-82580142D01*
X179695316Y-82603803D01*
X179689504Y-82627007D01*
X179681446Y-82649529D01*
X179671218Y-82671153D01*
X179658921Y-82691670D01*
X179644671Y-82710883D01*
X179628607Y-82728607D01*
X179610883Y-82744671D01*
X179591670Y-82758921D01*
X179571153Y-82771218D01*
X179549529Y-82781446D01*
X179527007Y-82789504D01*
X179503803Y-82795316D01*
X179480142Y-82798826D01*
X179456250Y-82800000D01*
X178543750Y-82800000D01*
X178519858Y-82798826D01*
X178496197Y-82795316D01*
X178472993Y-82789504D01*
X178450471Y-82781446D01*
X178428847Y-82771218D01*
X178408330Y-82758921D01*
X178389117Y-82744671D01*
X178371393Y-82728607D01*
X178355329Y-82710883D01*
X178341079Y-82691670D01*
X178328782Y-82671153D01*
X178318554Y-82649529D01*
X178310496Y-82627007D01*
X178304684Y-82603803D01*
X178301174Y-82580142D01*
X178300000Y-82556250D01*
X178300000Y-82068750D01*
X178301174Y-82044858D01*
X178304684Y-82021197D01*
X178310496Y-81997993D01*
X178318554Y-81975471D01*
X178328782Y-81953847D01*
X178341079Y-81933330D01*
X178355329Y-81914117D01*
X178371393Y-81896393D01*
X178389117Y-81880329D01*
X178408330Y-81866079D01*
X178428847Y-81853782D01*
X178450471Y-81843554D01*
X178472993Y-81835496D01*
X178496197Y-81829684D01*
X178519858Y-81826174D01*
X178543750Y-81825000D01*
X179456250Y-81825000D01*
X179480142Y-81826174D01*
X179480142Y-81826174D01*
G37*
D11*
X179000000Y-82312500D03*
D10*
G36*
X179480142Y-83701174D02*
G01*
X179503803Y-83704684D01*
X179527007Y-83710496D01*
X179549529Y-83718554D01*
X179571153Y-83728782D01*
X179591670Y-83741079D01*
X179610883Y-83755329D01*
X179628607Y-83771393D01*
X179644671Y-83789117D01*
X179658921Y-83808330D01*
X179671218Y-83828847D01*
X179681446Y-83850471D01*
X179689504Y-83872993D01*
X179695316Y-83896197D01*
X179698826Y-83919858D01*
X179700000Y-83943750D01*
X179700000Y-84431250D01*
X179698826Y-84455142D01*
X179695316Y-84478803D01*
X179689504Y-84502007D01*
X179681446Y-84524529D01*
X179671218Y-84546153D01*
X179658921Y-84566670D01*
X179644671Y-84585883D01*
X179628607Y-84603607D01*
X179610883Y-84619671D01*
X179591670Y-84633921D01*
X179571153Y-84646218D01*
X179549529Y-84656446D01*
X179527007Y-84664504D01*
X179503803Y-84670316D01*
X179480142Y-84673826D01*
X179456250Y-84675000D01*
X178543750Y-84675000D01*
X178519858Y-84673826D01*
X178496197Y-84670316D01*
X178472993Y-84664504D01*
X178450471Y-84656446D01*
X178428847Y-84646218D01*
X178408330Y-84633921D01*
X178389117Y-84619671D01*
X178371393Y-84603607D01*
X178355329Y-84585883D01*
X178341079Y-84566670D01*
X178328782Y-84546153D01*
X178318554Y-84524529D01*
X178310496Y-84502007D01*
X178304684Y-84478803D01*
X178301174Y-84455142D01*
X178300000Y-84431250D01*
X178300000Y-83943750D01*
X178301174Y-83919858D01*
X178304684Y-83896197D01*
X178310496Y-83872993D01*
X178318554Y-83850471D01*
X178328782Y-83828847D01*
X178341079Y-83808330D01*
X178355329Y-83789117D01*
X178371393Y-83771393D01*
X178389117Y-83755329D01*
X178408330Y-83741079D01*
X178428847Y-83728782D01*
X178450471Y-83718554D01*
X178472993Y-83710496D01*
X178496197Y-83704684D01*
X178519858Y-83701174D01*
X178543750Y-83700000D01*
X179456250Y-83700000D01*
X179480142Y-83701174D01*
X179480142Y-83701174D01*
G37*
D11*
X179000000Y-84187500D03*
D10*
G36*
X171205142Y-109301174D02*
G01*
X171228803Y-109304684D01*
X171252007Y-109310496D01*
X171274529Y-109318554D01*
X171296153Y-109328782D01*
X171316670Y-109341079D01*
X171335883Y-109355329D01*
X171353607Y-109371393D01*
X171369671Y-109389117D01*
X171383921Y-109408330D01*
X171396218Y-109428847D01*
X171406446Y-109450471D01*
X171414504Y-109472993D01*
X171420316Y-109496197D01*
X171423826Y-109519858D01*
X171425000Y-109543750D01*
X171425000Y-110456250D01*
X171423826Y-110480142D01*
X171420316Y-110503803D01*
X171414504Y-110527007D01*
X171406446Y-110549529D01*
X171396218Y-110571153D01*
X171383921Y-110591670D01*
X171369671Y-110610883D01*
X171353607Y-110628607D01*
X171335883Y-110644671D01*
X171316670Y-110658921D01*
X171296153Y-110671218D01*
X171274529Y-110681446D01*
X171252007Y-110689504D01*
X171228803Y-110695316D01*
X171205142Y-110698826D01*
X171181250Y-110700000D01*
X170693750Y-110700000D01*
X170669858Y-110698826D01*
X170646197Y-110695316D01*
X170622993Y-110689504D01*
X170600471Y-110681446D01*
X170578847Y-110671218D01*
X170558330Y-110658921D01*
X170539117Y-110644671D01*
X170521393Y-110628607D01*
X170505329Y-110610883D01*
X170491079Y-110591670D01*
X170478782Y-110571153D01*
X170468554Y-110549529D01*
X170460496Y-110527007D01*
X170454684Y-110503803D01*
X170451174Y-110480142D01*
X170450000Y-110456250D01*
X170450000Y-109543750D01*
X170451174Y-109519858D01*
X170454684Y-109496197D01*
X170460496Y-109472993D01*
X170468554Y-109450471D01*
X170478782Y-109428847D01*
X170491079Y-109408330D01*
X170505329Y-109389117D01*
X170521393Y-109371393D01*
X170539117Y-109355329D01*
X170558330Y-109341079D01*
X170578847Y-109328782D01*
X170600471Y-109318554D01*
X170622993Y-109310496D01*
X170646197Y-109304684D01*
X170669858Y-109301174D01*
X170693750Y-109300000D01*
X171181250Y-109300000D01*
X171205142Y-109301174D01*
X171205142Y-109301174D01*
G37*
D11*
X170937500Y-110000000D03*
D10*
G36*
X169330142Y-109301174D02*
G01*
X169353803Y-109304684D01*
X169377007Y-109310496D01*
X169399529Y-109318554D01*
X169421153Y-109328782D01*
X169441670Y-109341079D01*
X169460883Y-109355329D01*
X169478607Y-109371393D01*
X169494671Y-109389117D01*
X169508921Y-109408330D01*
X169521218Y-109428847D01*
X169531446Y-109450471D01*
X169539504Y-109472993D01*
X169545316Y-109496197D01*
X169548826Y-109519858D01*
X169550000Y-109543750D01*
X169550000Y-110456250D01*
X169548826Y-110480142D01*
X169545316Y-110503803D01*
X169539504Y-110527007D01*
X169531446Y-110549529D01*
X169521218Y-110571153D01*
X169508921Y-110591670D01*
X169494671Y-110610883D01*
X169478607Y-110628607D01*
X169460883Y-110644671D01*
X169441670Y-110658921D01*
X169421153Y-110671218D01*
X169399529Y-110681446D01*
X169377007Y-110689504D01*
X169353803Y-110695316D01*
X169330142Y-110698826D01*
X169306250Y-110700000D01*
X168818750Y-110700000D01*
X168794858Y-110698826D01*
X168771197Y-110695316D01*
X168747993Y-110689504D01*
X168725471Y-110681446D01*
X168703847Y-110671218D01*
X168683330Y-110658921D01*
X168664117Y-110644671D01*
X168646393Y-110628607D01*
X168630329Y-110610883D01*
X168616079Y-110591670D01*
X168603782Y-110571153D01*
X168593554Y-110549529D01*
X168585496Y-110527007D01*
X168579684Y-110503803D01*
X168576174Y-110480142D01*
X168575000Y-110456250D01*
X168575000Y-109543750D01*
X168576174Y-109519858D01*
X168579684Y-109496197D01*
X168585496Y-109472993D01*
X168593554Y-109450471D01*
X168603782Y-109428847D01*
X168616079Y-109408330D01*
X168630329Y-109389117D01*
X168646393Y-109371393D01*
X168664117Y-109355329D01*
X168683330Y-109341079D01*
X168703847Y-109328782D01*
X168725471Y-109318554D01*
X168747993Y-109310496D01*
X168771197Y-109304684D01*
X168794858Y-109301174D01*
X168818750Y-109300000D01*
X169306250Y-109300000D01*
X169330142Y-109301174D01*
X169330142Y-109301174D01*
G37*
D11*
X169062500Y-110000000D03*
D10*
G36*
X165980142Y-79076174D02*
G01*
X166003803Y-79079684D01*
X166027007Y-79085496D01*
X166049529Y-79093554D01*
X166071153Y-79103782D01*
X166091670Y-79116079D01*
X166110883Y-79130329D01*
X166128607Y-79146393D01*
X166144671Y-79164117D01*
X166158921Y-79183330D01*
X166171218Y-79203847D01*
X166181446Y-79225471D01*
X166189504Y-79247993D01*
X166195316Y-79271197D01*
X166198826Y-79294858D01*
X166200000Y-79318750D01*
X166200000Y-79806250D01*
X166198826Y-79830142D01*
X166195316Y-79853803D01*
X166189504Y-79877007D01*
X166181446Y-79899529D01*
X166171218Y-79921153D01*
X166158921Y-79941670D01*
X166144671Y-79960883D01*
X166128607Y-79978607D01*
X166110883Y-79994671D01*
X166091670Y-80008921D01*
X166071153Y-80021218D01*
X166049529Y-80031446D01*
X166027007Y-80039504D01*
X166003803Y-80045316D01*
X165980142Y-80048826D01*
X165956250Y-80050000D01*
X165043750Y-80050000D01*
X165019858Y-80048826D01*
X164996197Y-80045316D01*
X164972993Y-80039504D01*
X164950471Y-80031446D01*
X164928847Y-80021218D01*
X164908330Y-80008921D01*
X164889117Y-79994671D01*
X164871393Y-79978607D01*
X164855329Y-79960883D01*
X164841079Y-79941670D01*
X164828782Y-79921153D01*
X164818554Y-79899529D01*
X164810496Y-79877007D01*
X164804684Y-79853803D01*
X164801174Y-79830142D01*
X164800000Y-79806250D01*
X164800000Y-79318750D01*
X164801174Y-79294858D01*
X164804684Y-79271197D01*
X164810496Y-79247993D01*
X164818554Y-79225471D01*
X164828782Y-79203847D01*
X164841079Y-79183330D01*
X164855329Y-79164117D01*
X164871393Y-79146393D01*
X164889117Y-79130329D01*
X164908330Y-79116079D01*
X164928847Y-79103782D01*
X164950471Y-79093554D01*
X164972993Y-79085496D01*
X164996197Y-79079684D01*
X165019858Y-79076174D01*
X165043750Y-79075000D01*
X165956250Y-79075000D01*
X165980142Y-79076174D01*
X165980142Y-79076174D01*
G37*
D11*
X165500000Y-79562500D03*
D10*
G36*
X165980142Y-80951174D02*
G01*
X166003803Y-80954684D01*
X166027007Y-80960496D01*
X166049529Y-80968554D01*
X166071153Y-80978782D01*
X166091670Y-80991079D01*
X166110883Y-81005329D01*
X166128607Y-81021393D01*
X166144671Y-81039117D01*
X166158921Y-81058330D01*
X166171218Y-81078847D01*
X166181446Y-81100471D01*
X166189504Y-81122993D01*
X166195316Y-81146197D01*
X166198826Y-81169858D01*
X166200000Y-81193750D01*
X166200000Y-81681250D01*
X166198826Y-81705142D01*
X166195316Y-81728803D01*
X166189504Y-81752007D01*
X166181446Y-81774529D01*
X166171218Y-81796153D01*
X166158921Y-81816670D01*
X166144671Y-81835883D01*
X166128607Y-81853607D01*
X166110883Y-81869671D01*
X166091670Y-81883921D01*
X166071153Y-81896218D01*
X166049529Y-81906446D01*
X166027007Y-81914504D01*
X166003803Y-81920316D01*
X165980142Y-81923826D01*
X165956250Y-81925000D01*
X165043750Y-81925000D01*
X165019858Y-81923826D01*
X164996197Y-81920316D01*
X164972993Y-81914504D01*
X164950471Y-81906446D01*
X164928847Y-81896218D01*
X164908330Y-81883921D01*
X164889117Y-81869671D01*
X164871393Y-81853607D01*
X164855329Y-81835883D01*
X164841079Y-81816670D01*
X164828782Y-81796153D01*
X164818554Y-81774529D01*
X164810496Y-81752007D01*
X164804684Y-81728803D01*
X164801174Y-81705142D01*
X164800000Y-81681250D01*
X164800000Y-81193750D01*
X164801174Y-81169858D01*
X164804684Y-81146197D01*
X164810496Y-81122993D01*
X164818554Y-81100471D01*
X164828782Y-81078847D01*
X164841079Y-81058330D01*
X164855329Y-81039117D01*
X164871393Y-81021393D01*
X164889117Y-81005329D01*
X164908330Y-80991079D01*
X164928847Y-80978782D01*
X164950471Y-80968554D01*
X164972993Y-80960496D01*
X164996197Y-80954684D01*
X165019858Y-80951174D01*
X165043750Y-80950000D01*
X165956250Y-80950000D01*
X165980142Y-80951174D01*
X165980142Y-80951174D01*
G37*
D11*
X165500000Y-81437500D03*
D16*
X181220000Y-96700000D03*
X181220000Y-95000000D03*
X181220000Y-93300000D03*
D17*
X175000000Y-95000000D03*
D16*
X168780000Y-93300000D03*
X168780000Y-95000000D03*
X168780000Y-96700000D03*
D10*
G36*
X166027691Y-117526053D02*
G01*
X166048926Y-117529203D01*
X166069750Y-117534419D01*
X166089962Y-117541651D01*
X166109368Y-117550830D01*
X166127781Y-117561866D01*
X166145024Y-117574654D01*
X166160930Y-117589070D01*
X166175346Y-117604976D01*
X166188134Y-117622219D01*
X166199170Y-117640632D01*
X166208349Y-117660038D01*
X166215581Y-117680250D01*
X166220797Y-117701074D01*
X166223947Y-117722309D01*
X166225000Y-117743750D01*
X166225000Y-118256250D01*
X166223947Y-118277691D01*
X166220797Y-118298926D01*
X166215581Y-118319750D01*
X166208349Y-118339962D01*
X166199170Y-118359368D01*
X166188134Y-118377781D01*
X166175346Y-118395024D01*
X166160930Y-118410930D01*
X166145024Y-118425346D01*
X166127781Y-118438134D01*
X166109368Y-118449170D01*
X166089962Y-118458349D01*
X166069750Y-118465581D01*
X166048926Y-118470797D01*
X166027691Y-118473947D01*
X166006250Y-118475000D01*
X165568750Y-118475000D01*
X165547309Y-118473947D01*
X165526074Y-118470797D01*
X165505250Y-118465581D01*
X165485038Y-118458349D01*
X165465632Y-118449170D01*
X165447219Y-118438134D01*
X165429976Y-118425346D01*
X165414070Y-118410930D01*
X165399654Y-118395024D01*
X165386866Y-118377781D01*
X165375830Y-118359368D01*
X165366651Y-118339962D01*
X165359419Y-118319750D01*
X165354203Y-118298926D01*
X165351053Y-118277691D01*
X165350000Y-118256250D01*
X165350000Y-117743750D01*
X165351053Y-117722309D01*
X165354203Y-117701074D01*
X165359419Y-117680250D01*
X165366651Y-117660038D01*
X165375830Y-117640632D01*
X165386866Y-117622219D01*
X165399654Y-117604976D01*
X165414070Y-117589070D01*
X165429976Y-117574654D01*
X165447219Y-117561866D01*
X165465632Y-117550830D01*
X165485038Y-117541651D01*
X165505250Y-117534419D01*
X165526074Y-117529203D01*
X165547309Y-117526053D01*
X165568750Y-117525000D01*
X166006250Y-117525000D01*
X166027691Y-117526053D01*
X166027691Y-117526053D01*
G37*
D18*
X165787500Y-118000000D03*
D10*
G36*
X164452691Y-117526053D02*
G01*
X164473926Y-117529203D01*
X164494750Y-117534419D01*
X164514962Y-117541651D01*
X164534368Y-117550830D01*
X164552781Y-117561866D01*
X164570024Y-117574654D01*
X164585930Y-117589070D01*
X164600346Y-117604976D01*
X164613134Y-117622219D01*
X164624170Y-117640632D01*
X164633349Y-117660038D01*
X164640581Y-117680250D01*
X164645797Y-117701074D01*
X164648947Y-117722309D01*
X164650000Y-117743750D01*
X164650000Y-118256250D01*
X164648947Y-118277691D01*
X164645797Y-118298926D01*
X164640581Y-118319750D01*
X164633349Y-118339962D01*
X164624170Y-118359368D01*
X164613134Y-118377781D01*
X164600346Y-118395024D01*
X164585930Y-118410930D01*
X164570024Y-118425346D01*
X164552781Y-118438134D01*
X164534368Y-118449170D01*
X164514962Y-118458349D01*
X164494750Y-118465581D01*
X164473926Y-118470797D01*
X164452691Y-118473947D01*
X164431250Y-118475000D01*
X163993750Y-118475000D01*
X163972309Y-118473947D01*
X163951074Y-118470797D01*
X163930250Y-118465581D01*
X163910038Y-118458349D01*
X163890632Y-118449170D01*
X163872219Y-118438134D01*
X163854976Y-118425346D01*
X163839070Y-118410930D01*
X163824654Y-118395024D01*
X163811866Y-118377781D01*
X163800830Y-118359368D01*
X163791651Y-118339962D01*
X163784419Y-118319750D01*
X163779203Y-118298926D01*
X163776053Y-118277691D01*
X163775000Y-118256250D01*
X163775000Y-117743750D01*
X163776053Y-117722309D01*
X163779203Y-117701074D01*
X163784419Y-117680250D01*
X163791651Y-117660038D01*
X163800830Y-117640632D01*
X163811866Y-117622219D01*
X163824654Y-117604976D01*
X163839070Y-117589070D01*
X163854976Y-117574654D01*
X163872219Y-117561866D01*
X163890632Y-117550830D01*
X163910038Y-117541651D01*
X163930250Y-117534419D01*
X163951074Y-117529203D01*
X163972309Y-117526053D01*
X163993750Y-117525000D01*
X164431250Y-117525000D01*
X164452691Y-117526053D01*
X164452691Y-117526053D01*
G37*
D18*
X164212500Y-118000000D03*
D10*
G36*
X162277691Y-106351053D02*
G01*
X162298926Y-106354203D01*
X162319750Y-106359419D01*
X162339962Y-106366651D01*
X162359368Y-106375830D01*
X162377781Y-106386866D01*
X162395024Y-106399654D01*
X162410930Y-106414070D01*
X162425346Y-106429976D01*
X162438134Y-106447219D01*
X162449170Y-106465632D01*
X162458349Y-106485038D01*
X162465581Y-106505250D01*
X162470797Y-106526074D01*
X162473947Y-106547309D01*
X162475000Y-106568750D01*
X162475000Y-107006250D01*
X162473947Y-107027691D01*
X162470797Y-107048926D01*
X162465581Y-107069750D01*
X162458349Y-107089962D01*
X162449170Y-107109368D01*
X162438134Y-107127781D01*
X162425346Y-107145024D01*
X162410930Y-107160930D01*
X162395024Y-107175346D01*
X162377781Y-107188134D01*
X162359368Y-107199170D01*
X162339962Y-107208349D01*
X162319750Y-107215581D01*
X162298926Y-107220797D01*
X162277691Y-107223947D01*
X162256250Y-107225000D01*
X161743750Y-107225000D01*
X161722309Y-107223947D01*
X161701074Y-107220797D01*
X161680250Y-107215581D01*
X161660038Y-107208349D01*
X161640632Y-107199170D01*
X161622219Y-107188134D01*
X161604976Y-107175346D01*
X161589070Y-107160930D01*
X161574654Y-107145024D01*
X161561866Y-107127781D01*
X161550830Y-107109368D01*
X161541651Y-107089962D01*
X161534419Y-107069750D01*
X161529203Y-107048926D01*
X161526053Y-107027691D01*
X161525000Y-107006250D01*
X161525000Y-106568750D01*
X161526053Y-106547309D01*
X161529203Y-106526074D01*
X161534419Y-106505250D01*
X161541651Y-106485038D01*
X161550830Y-106465632D01*
X161561866Y-106447219D01*
X161574654Y-106429976D01*
X161589070Y-106414070D01*
X161604976Y-106399654D01*
X161622219Y-106386866D01*
X161640632Y-106375830D01*
X161660038Y-106366651D01*
X161680250Y-106359419D01*
X161701074Y-106354203D01*
X161722309Y-106351053D01*
X161743750Y-106350000D01*
X162256250Y-106350000D01*
X162277691Y-106351053D01*
X162277691Y-106351053D01*
G37*
D18*
X162000000Y-106787500D03*
D10*
G36*
X162277691Y-104776053D02*
G01*
X162298926Y-104779203D01*
X162319750Y-104784419D01*
X162339962Y-104791651D01*
X162359368Y-104800830D01*
X162377781Y-104811866D01*
X162395024Y-104824654D01*
X162410930Y-104839070D01*
X162425346Y-104854976D01*
X162438134Y-104872219D01*
X162449170Y-104890632D01*
X162458349Y-104910038D01*
X162465581Y-104930250D01*
X162470797Y-104951074D01*
X162473947Y-104972309D01*
X162475000Y-104993750D01*
X162475000Y-105431250D01*
X162473947Y-105452691D01*
X162470797Y-105473926D01*
X162465581Y-105494750D01*
X162458349Y-105514962D01*
X162449170Y-105534368D01*
X162438134Y-105552781D01*
X162425346Y-105570024D01*
X162410930Y-105585930D01*
X162395024Y-105600346D01*
X162377781Y-105613134D01*
X162359368Y-105624170D01*
X162339962Y-105633349D01*
X162319750Y-105640581D01*
X162298926Y-105645797D01*
X162277691Y-105648947D01*
X162256250Y-105650000D01*
X161743750Y-105650000D01*
X161722309Y-105648947D01*
X161701074Y-105645797D01*
X161680250Y-105640581D01*
X161660038Y-105633349D01*
X161640632Y-105624170D01*
X161622219Y-105613134D01*
X161604976Y-105600346D01*
X161589070Y-105585930D01*
X161574654Y-105570024D01*
X161561866Y-105552781D01*
X161550830Y-105534368D01*
X161541651Y-105514962D01*
X161534419Y-105494750D01*
X161529203Y-105473926D01*
X161526053Y-105452691D01*
X161525000Y-105431250D01*
X161525000Y-104993750D01*
X161526053Y-104972309D01*
X161529203Y-104951074D01*
X161534419Y-104930250D01*
X161541651Y-104910038D01*
X161550830Y-104890632D01*
X161561866Y-104872219D01*
X161574654Y-104854976D01*
X161589070Y-104839070D01*
X161604976Y-104824654D01*
X161622219Y-104811866D01*
X161640632Y-104800830D01*
X161660038Y-104791651D01*
X161680250Y-104784419D01*
X161701074Y-104779203D01*
X161722309Y-104776053D01*
X161743750Y-104775000D01*
X162256250Y-104775000D01*
X162277691Y-104776053D01*
X162277691Y-104776053D01*
G37*
D18*
X162000000Y-105212500D03*
D10*
G36*
X177705142Y-114301174D02*
G01*
X177728803Y-114304684D01*
X177752007Y-114310496D01*
X177774529Y-114318554D01*
X177796153Y-114328782D01*
X177816670Y-114341079D01*
X177835883Y-114355329D01*
X177853607Y-114371393D01*
X177869671Y-114389117D01*
X177883921Y-114408330D01*
X177896218Y-114428847D01*
X177906446Y-114450471D01*
X177914504Y-114472993D01*
X177920316Y-114496197D01*
X177923826Y-114519858D01*
X177925000Y-114543750D01*
X177925000Y-115456250D01*
X177923826Y-115480142D01*
X177920316Y-115503803D01*
X177914504Y-115527007D01*
X177906446Y-115549529D01*
X177896218Y-115571153D01*
X177883921Y-115591670D01*
X177869671Y-115610883D01*
X177853607Y-115628607D01*
X177835883Y-115644671D01*
X177816670Y-115658921D01*
X177796153Y-115671218D01*
X177774529Y-115681446D01*
X177752007Y-115689504D01*
X177728803Y-115695316D01*
X177705142Y-115698826D01*
X177681250Y-115700000D01*
X177193750Y-115700000D01*
X177169858Y-115698826D01*
X177146197Y-115695316D01*
X177122993Y-115689504D01*
X177100471Y-115681446D01*
X177078847Y-115671218D01*
X177058330Y-115658921D01*
X177039117Y-115644671D01*
X177021393Y-115628607D01*
X177005329Y-115610883D01*
X176991079Y-115591670D01*
X176978782Y-115571153D01*
X176968554Y-115549529D01*
X176960496Y-115527007D01*
X176954684Y-115503803D01*
X176951174Y-115480142D01*
X176950000Y-115456250D01*
X176950000Y-114543750D01*
X176951174Y-114519858D01*
X176954684Y-114496197D01*
X176960496Y-114472993D01*
X176968554Y-114450471D01*
X176978782Y-114428847D01*
X176991079Y-114408330D01*
X177005329Y-114389117D01*
X177021393Y-114371393D01*
X177039117Y-114355329D01*
X177058330Y-114341079D01*
X177078847Y-114328782D01*
X177100471Y-114318554D01*
X177122993Y-114310496D01*
X177146197Y-114304684D01*
X177169858Y-114301174D01*
X177193750Y-114300000D01*
X177681250Y-114300000D01*
X177705142Y-114301174D01*
X177705142Y-114301174D01*
G37*
D11*
X177437500Y-115000000D03*
D10*
G36*
X175830142Y-114301174D02*
G01*
X175853803Y-114304684D01*
X175877007Y-114310496D01*
X175899529Y-114318554D01*
X175921153Y-114328782D01*
X175941670Y-114341079D01*
X175960883Y-114355329D01*
X175978607Y-114371393D01*
X175994671Y-114389117D01*
X176008921Y-114408330D01*
X176021218Y-114428847D01*
X176031446Y-114450471D01*
X176039504Y-114472993D01*
X176045316Y-114496197D01*
X176048826Y-114519858D01*
X176050000Y-114543750D01*
X176050000Y-115456250D01*
X176048826Y-115480142D01*
X176045316Y-115503803D01*
X176039504Y-115527007D01*
X176031446Y-115549529D01*
X176021218Y-115571153D01*
X176008921Y-115591670D01*
X175994671Y-115610883D01*
X175978607Y-115628607D01*
X175960883Y-115644671D01*
X175941670Y-115658921D01*
X175921153Y-115671218D01*
X175899529Y-115681446D01*
X175877007Y-115689504D01*
X175853803Y-115695316D01*
X175830142Y-115698826D01*
X175806250Y-115700000D01*
X175318750Y-115700000D01*
X175294858Y-115698826D01*
X175271197Y-115695316D01*
X175247993Y-115689504D01*
X175225471Y-115681446D01*
X175203847Y-115671218D01*
X175183330Y-115658921D01*
X175164117Y-115644671D01*
X175146393Y-115628607D01*
X175130329Y-115610883D01*
X175116079Y-115591670D01*
X175103782Y-115571153D01*
X175093554Y-115549529D01*
X175085496Y-115527007D01*
X175079684Y-115503803D01*
X175076174Y-115480142D01*
X175075000Y-115456250D01*
X175075000Y-114543750D01*
X175076174Y-114519858D01*
X175079684Y-114496197D01*
X175085496Y-114472993D01*
X175093554Y-114450471D01*
X175103782Y-114428847D01*
X175116079Y-114408330D01*
X175130329Y-114389117D01*
X175146393Y-114371393D01*
X175164117Y-114355329D01*
X175183330Y-114341079D01*
X175203847Y-114328782D01*
X175225471Y-114318554D01*
X175247993Y-114310496D01*
X175271197Y-114304684D01*
X175294858Y-114301174D01*
X175318750Y-114300000D01*
X175806250Y-114300000D01*
X175830142Y-114301174D01*
X175830142Y-114301174D01*
G37*
D11*
X175562500Y-115000000D03*
D19*
X177580000Y-118000000D03*
X175040000Y-118000000D03*
D20*
X172500000Y-118000000D03*
X177500000Y-72000000D03*
D19*
X174960000Y-72000000D03*
X172420000Y-72000000D03*
D10*
G36*
X164452691Y-113526053D02*
G01*
X164473926Y-113529203D01*
X164494750Y-113534419D01*
X164514962Y-113541651D01*
X164534368Y-113550830D01*
X164552781Y-113561866D01*
X164570024Y-113574654D01*
X164585930Y-113589070D01*
X164600346Y-113604976D01*
X164613134Y-113622219D01*
X164624170Y-113640632D01*
X164633349Y-113660038D01*
X164640581Y-113680250D01*
X164645797Y-113701074D01*
X164648947Y-113722309D01*
X164650000Y-113743750D01*
X164650000Y-114256250D01*
X164648947Y-114277691D01*
X164645797Y-114298926D01*
X164640581Y-114319750D01*
X164633349Y-114339962D01*
X164624170Y-114359368D01*
X164613134Y-114377781D01*
X164600346Y-114395024D01*
X164585930Y-114410930D01*
X164570024Y-114425346D01*
X164552781Y-114438134D01*
X164534368Y-114449170D01*
X164514962Y-114458349D01*
X164494750Y-114465581D01*
X164473926Y-114470797D01*
X164452691Y-114473947D01*
X164431250Y-114475000D01*
X163993750Y-114475000D01*
X163972309Y-114473947D01*
X163951074Y-114470797D01*
X163930250Y-114465581D01*
X163910038Y-114458349D01*
X163890632Y-114449170D01*
X163872219Y-114438134D01*
X163854976Y-114425346D01*
X163839070Y-114410930D01*
X163824654Y-114395024D01*
X163811866Y-114377781D01*
X163800830Y-114359368D01*
X163791651Y-114339962D01*
X163784419Y-114319750D01*
X163779203Y-114298926D01*
X163776053Y-114277691D01*
X163775000Y-114256250D01*
X163775000Y-113743750D01*
X163776053Y-113722309D01*
X163779203Y-113701074D01*
X163784419Y-113680250D01*
X163791651Y-113660038D01*
X163800830Y-113640632D01*
X163811866Y-113622219D01*
X163824654Y-113604976D01*
X163839070Y-113589070D01*
X163854976Y-113574654D01*
X163872219Y-113561866D01*
X163890632Y-113550830D01*
X163910038Y-113541651D01*
X163930250Y-113534419D01*
X163951074Y-113529203D01*
X163972309Y-113526053D01*
X163993750Y-113525000D01*
X164431250Y-113525000D01*
X164452691Y-113526053D01*
X164452691Y-113526053D01*
G37*
D18*
X164212500Y-114000000D03*
D10*
G36*
X166027691Y-113526053D02*
G01*
X166048926Y-113529203D01*
X166069750Y-113534419D01*
X166089962Y-113541651D01*
X166109368Y-113550830D01*
X166127781Y-113561866D01*
X166145024Y-113574654D01*
X166160930Y-113589070D01*
X166175346Y-113604976D01*
X166188134Y-113622219D01*
X166199170Y-113640632D01*
X166208349Y-113660038D01*
X166215581Y-113680250D01*
X166220797Y-113701074D01*
X166223947Y-113722309D01*
X166225000Y-113743750D01*
X166225000Y-114256250D01*
X166223947Y-114277691D01*
X166220797Y-114298926D01*
X166215581Y-114319750D01*
X166208349Y-114339962D01*
X166199170Y-114359368D01*
X166188134Y-114377781D01*
X166175346Y-114395024D01*
X166160930Y-114410930D01*
X166145024Y-114425346D01*
X166127781Y-114438134D01*
X166109368Y-114449170D01*
X166089962Y-114458349D01*
X166069750Y-114465581D01*
X166048926Y-114470797D01*
X166027691Y-114473947D01*
X166006250Y-114475000D01*
X165568750Y-114475000D01*
X165547309Y-114473947D01*
X165526074Y-114470797D01*
X165505250Y-114465581D01*
X165485038Y-114458349D01*
X165465632Y-114449170D01*
X165447219Y-114438134D01*
X165429976Y-114425346D01*
X165414070Y-114410930D01*
X165399654Y-114395024D01*
X165386866Y-114377781D01*
X165375830Y-114359368D01*
X165366651Y-114339962D01*
X165359419Y-114319750D01*
X165354203Y-114298926D01*
X165351053Y-114277691D01*
X165350000Y-114256250D01*
X165350000Y-113743750D01*
X165351053Y-113722309D01*
X165354203Y-113701074D01*
X165359419Y-113680250D01*
X165366651Y-113660038D01*
X165375830Y-113640632D01*
X165386866Y-113622219D01*
X165399654Y-113604976D01*
X165414070Y-113589070D01*
X165429976Y-113574654D01*
X165447219Y-113561866D01*
X165465632Y-113550830D01*
X165485038Y-113541651D01*
X165505250Y-113534419D01*
X165526074Y-113529203D01*
X165547309Y-113526053D01*
X165568750Y-113525000D01*
X166006250Y-113525000D01*
X166027691Y-113526053D01*
X166027691Y-113526053D01*
G37*
D18*
X165787500Y-114000000D03*
D10*
G36*
X166027691Y-115526053D02*
G01*
X166048926Y-115529203D01*
X166069750Y-115534419D01*
X166089962Y-115541651D01*
X166109368Y-115550830D01*
X166127781Y-115561866D01*
X166145024Y-115574654D01*
X166160930Y-115589070D01*
X166175346Y-115604976D01*
X166188134Y-115622219D01*
X166199170Y-115640632D01*
X166208349Y-115660038D01*
X166215581Y-115680250D01*
X166220797Y-115701074D01*
X166223947Y-115722309D01*
X166225000Y-115743750D01*
X166225000Y-116256250D01*
X166223947Y-116277691D01*
X166220797Y-116298926D01*
X166215581Y-116319750D01*
X166208349Y-116339962D01*
X166199170Y-116359368D01*
X166188134Y-116377781D01*
X166175346Y-116395024D01*
X166160930Y-116410930D01*
X166145024Y-116425346D01*
X166127781Y-116438134D01*
X166109368Y-116449170D01*
X166089962Y-116458349D01*
X166069750Y-116465581D01*
X166048926Y-116470797D01*
X166027691Y-116473947D01*
X166006250Y-116475000D01*
X165568750Y-116475000D01*
X165547309Y-116473947D01*
X165526074Y-116470797D01*
X165505250Y-116465581D01*
X165485038Y-116458349D01*
X165465632Y-116449170D01*
X165447219Y-116438134D01*
X165429976Y-116425346D01*
X165414070Y-116410930D01*
X165399654Y-116395024D01*
X165386866Y-116377781D01*
X165375830Y-116359368D01*
X165366651Y-116339962D01*
X165359419Y-116319750D01*
X165354203Y-116298926D01*
X165351053Y-116277691D01*
X165350000Y-116256250D01*
X165350000Y-115743750D01*
X165351053Y-115722309D01*
X165354203Y-115701074D01*
X165359419Y-115680250D01*
X165366651Y-115660038D01*
X165375830Y-115640632D01*
X165386866Y-115622219D01*
X165399654Y-115604976D01*
X165414070Y-115589070D01*
X165429976Y-115574654D01*
X165447219Y-115561866D01*
X165465632Y-115550830D01*
X165485038Y-115541651D01*
X165505250Y-115534419D01*
X165526074Y-115529203D01*
X165547309Y-115526053D01*
X165568750Y-115525000D01*
X166006250Y-115525000D01*
X166027691Y-115526053D01*
X166027691Y-115526053D01*
G37*
D18*
X165787500Y-116000000D03*
D10*
G36*
X164452691Y-115526053D02*
G01*
X164473926Y-115529203D01*
X164494750Y-115534419D01*
X164514962Y-115541651D01*
X164534368Y-115550830D01*
X164552781Y-115561866D01*
X164570024Y-115574654D01*
X164585930Y-115589070D01*
X164600346Y-115604976D01*
X164613134Y-115622219D01*
X164624170Y-115640632D01*
X164633349Y-115660038D01*
X164640581Y-115680250D01*
X164645797Y-115701074D01*
X164648947Y-115722309D01*
X164650000Y-115743750D01*
X164650000Y-116256250D01*
X164648947Y-116277691D01*
X164645797Y-116298926D01*
X164640581Y-116319750D01*
X164633349Y-116339962D01*
X164624170Y-116359368D01*
X164613134Y-116377781D01*
X164600346Y-116395024D01*
X164585930Y-116410930D01*
X164570024Y-116425346D01*
X164552781Y-116438134D01*
X164534368Y-116449170D01*
X164514962Y-116458349D01*
X164494750Y-116465581D01*
X164473926Y-116470797D01*
X164452691Y-116473947D01*
X164431250Y-116475000D01*
X163993750Y-116475000D01*
X163972309Y-116473947D01*
X163951074Y-116470797D01*
X163930250Y-116465581D01*
X163910038Y-116458349D01*
X163890632Y-116449170D01*
X163872219Y-116438134D01*
X163854976Y-116425346D01*
X163839070Y-116410930D01*
X163824654Y-116395024D01*
X163811866Y-116377781D01*
X163800830Y-116359368D01*
X163791651Y-116339962D01*
X163784419Y-116319750D01*
X163779203Y-116298926D01*
X163776053Y-116277691D01*
X163775000Y-116256250D01*
X163775000Y-115743750D01*
X163776053Y-115722309D01*
X163779203Y-115701074D01*
X163784419Y-115680250D01*
X163791651Y-115660038D01*
X163800830Y-115640632D01*
X163811866Y-115622219D01*
X163824654Y-115604976D01*
X163839070Y-115589070D01*
X163854976Y-115574654D01*
X163872219Y-115561866D01*
X163890632Y-115550830D01*
X163910038Y-115541651D01*
X163930250Y-115534419D01*
X163951074Y-115529203D01*
X163972309Y-115526053D01*
X163993750Y-115525000D01*
X164431250Y-115525000D01*
X164452691Y-115526053D01*
X164452691Y-115526053D01*
G37*
D18*
X164212500Y-116000000D03*
D10*
G36*
X151452691Y-106026053D02*
G01*
X151473926Y-106029203D01*
X151494750Y-106034419D01*
X151514962Y-106041651D01*
X151534368Y-106050830D01*
X151552781Y-106061866D01*
X151570024Y-106074654D01*
X151585930Y-106089070D01*
X151600346Y-106104976D01*
X151613134Y-106122219D01*
X151624170Y-106140632D01*
X151633349Y-106160038D01*
X151640581Y-106180250D01*
X151645797Y-106201074D01*
X151648947Y-106222309D01*
X151650000Y-106243750D01*
X151650000Y-106756250D01*
X151648947Y-106777691D01*
X151645797Y-106798926D01*
X151640581Y-106819750D01*
X151633349Y-106839962D01*
X151624170Y-106859368D01*
X151613134Y-106877781D01*
X151600346Y-106895024D01*
X151585930Y-106910930D01*
X151570024Y-106925346D01*
X151552781Y-106938134D01*
X151534368Y-106949170D01*
X151514962Y-106958349D01*
X151494750Y-106965581D01*
X151473926Y-106970797D01*
X151452691Y-106973947D01*
X151431250Y-106975000D01*
X150993750Y-106975000D01*
X150972309Y-106973947D01*
X150951074Y-106970797D01*
X150930250Y-106965581D01*
X150910038Y-106958349D01*
X150890632Y-106949170D01*
X150872219Y-106938134D01*
X150854976Y-106925346D01*
X150839070Y-106910930D01*
X150824654Y-106895024D01*
X150811866Y-106877781D01*
X150800830Y-106859368D01*
X150791651Y-106839962D01*
X150784419Y-106819750D01*
X150779203Y-106798926D01*
X150776053Y-106777691D01*
X150775000Y-106756250D01*
X150775000Y-106243750D01*
X150776053Y-106222309D01*
X150779203Y-106201074D01*
X150784419Y-106180250D01*
X150791651Y-106160038D01*
X150800830Y-106140632D01*
X150811866Y-106122219D01*
X150824654Y-106104976D01*
X150839070Y-106089070D01*
X150854976Y-106074654D01*
X150872219Y-106061866D01*
X150890632Y-106050830D01*
X150910038Y-106041651D01*
X150930250Y-106034419D01*
X150951074Y-106029203D01*
X150972309Y-106026053D01*
X150993750Y-106025000D01*
X151431250Y-106025000D01*
X151452691Y-106026053D01*
X151452691Y-106026053D01*
G37*
D18*
X151212500Y-106500000D03*
D10*
G36*
X153027691Y-106026053D02*
G01*
X153048926Y-106029203D01*
X153069750Y-106034419D01*
X153089962Y-106041651D01*
X153109368Y-106050830D01*
X153127781Y-106061866D01*
X153145024Y-106074654D01*
X153160930Y-106089070D01*
X153175346Y-106104976D01*
X153188134Y-106122219D01*
X153199170Y-106140632D01*
X153208349Y-106160038D01*
X153215581Y-106180250D01*
X153220797Y-106201074D01*
X153223947Y-106222309D01*
X153225000Y-106243750D01*
X153225000Y-106756250D01*
X153223947Y-106777691D01*
X153220797Y-106798926D01*
X153215581Y-106819750D01*
X153208349Y-106839962D01*
X153199170Y-106859368D01*
X153188134Y-106877781D01*
X153175346Y-106895024D01*
X153160930Y-106910930D01*
X153145024Y-106925346D01*
X153127781Y-106938134D01*
X153109368Y-106949170D01*
X153089962Y-106958349D01*
X153069750Y-106965581D01*
X153048926Y-106970797D01*
X153027691Y-106973947D01*
X153006250Y-106975000D01*
X152568750Y-106975000D01*
X152547309Y-106973947D01*
X152526074Y-106970797D01*
X152505250Y-106965581D01*
X152485038Y-106958349D01*
X152465632Y-106949170D01*
X152447219Y-106938134D01*
X152429976Y-106925346D01*
X152414070Y-106910930D01*
X152399654Y-106895024D01*
X152386866Y-106877781D01*
X152375830Y-106859368D01*
X152366651Y-106839962D01*
X152359419Y-106819750D01*
X152354203Y-106798926D01*
X152351053Y-106777691D01*
X152350000Y-106756250D01*
X152350000Y-106243750D01*
X152351053Y-106222309D01*
X152354203Y-106201074D01*
X152359419Y-106180250D01*
X152366651Y-106160038D01*
X152375830Y-106140632D01*
X152386866Y-106122219D01*
X152399654Y-106104976D01*
X152414070Y-106089070D01*
X152429976Y-106074654D01*
X152447219Y-106061866D01*
X152465632Y-106050830D01*
X152485038Y-106041651D01*
X152505250Y-106034419D01*
X152526074Y-106029203D01*
X152547309Y-106026053D01*
X152568750Y-106025000D01*
X153006250Y-106025000D01*
X153027691Y-106026053D01*
X153027691Y-106026053D01*
G37*
D18*
X152787500Y-106500000D03*
D10*
G36*
X153027691Y-104026053D02*
G01*
X153048926Y-104029203D01*
X153069750Y-104034419D01*
X153089962Y-104041651D01*
X153109368Y-104050830D01*
X153127781Y-104061866D01*
X153145024Y-104074654D01*
X153160930Y-104089070D01*
X153175346Y-104104976D01*
X153188134Y-104122219D01*
X153199170Y-104140632D01*
X153208349Y-104160038D01*
X153215581Y-104180250D01*
X153220797Y-104201074D01*
X153223947Y-104222309D01*
X153225000Y-104243750D01*
X153225000Y-104756250D01*
X153223947Y-104777691D01*
X153220797Y-104798926D01*
X153215581Y-104819750D01*
X153208349Y-104839962D01*
X153199170Y-104859368D01*
X153188134Y-104877781D01*
X153175346Y-104895024D01*
X153160930Y-104910930D01*
X153145024Y-104925346D01*
X153127781Y-104938134D01*
X153109368Y-104949170D01*
X153089962Y-104958349D01*
X153069750Y-104965581D01*
X153048926Y-104970797D01*
X153027691Y-104973947D01*
X153006250Y-104975000D01*
X152568750Y-104975000D01*
X152547309Y-104973947D01*
X152526074Y-104970797D01*
X152505250Y-104965581D01*
X152485038Y-104958349D01*
X152465632Y-104949170D01*
X152447219Y-104938134D01*
X152429976Y-104925346D01*
X152414070Y-104910930D01*
X152399654Y-104895024D01*
X152386866Y-104877781D01*
X152375830Y-104859368D01*
X152366651Y-104839962D01*
X152359419Y-104819750D01*
X152354203Y-104798926D01*
X152351053Y-104777691D01*
X152350000Y-104756250D01*
X152350000Y-104243750D01*
X152351053Y-104222309D01*
X152354203Y-104201074D01*
X152359419Y-104180250D01*
X152366651Y-104160038D01*
X152375830Y-104140632D01*
X152386866Y-104122219D01*
X152399654Y-104104976D01*
X152414070Y-104089070D01*
X152429976Y-104074654D01*
X152447219Y-104061866D01*
X152465632Y-104050830D01*
X152485038Y-104041651D01*
X152505250Y-104034419D01*
X152526074Y-104029203D01*
X152547309Y-104026053D01*
X152568750Y-104025000D01*
X153006250Y-104025000D01*
X153027691Y-104026053D01*
X153027691Y-104026053D01*
G37*
D18*
X152787500Y-104500000D03*
D10*
G36*
X151452691Y-104026053D02*
G01*
X151473926Y-104029203D01*
X151494750Y-104034419D01*
X151514962Y-104041651D01*
X151534368Y-104050830D01*
X151552781Y-104061866D01*
X151570024Y-104074654D01*
X151585930Y-104089070D01*
X151600346Y-104104976D01*
X151613134Y-104122219D01*
X151624170Y-104140632D01*
X151633349Y-104160038D01*
X151640581Y-104180250D01*
X151645797Y-104201074D01*
X151648947Y-104222309D01*
X151650000Y-104243750D01*
X151650000Y-104756250D01*
X151648947Y-104777691D01*
X151645797Y-104798926D01*
X151640581Y-104819750D01*
X151633349Y-104839962D01*
X151624170Y-104859368D01*
X151613134Y-104877781D01*
X151600346Y-104895024D01*
X151585930Y-104910930D01*
X151570024Y-104925346D01*
X151552781Y-104938134D01*
X151534368Y-104949170D01*
X151514962Y-104958349D01*
X151494750Y-104965581D01*
X151473926Y-104970797D01*
X151452691Y-104973947D01*
X151431250Y-104975000D01*
X150993750Y-104975000D01*
X150972309Y-104973947D01*
X150951074Y-104970797D01*
X150930250Y-104965581D01*
X150910038Y-104958349D01*
X150890632Y-104949170D01*
X150872219Y-104938134D01*
X150854976Y-104925346D01*
X150839070Y-104910930D01*
X150824654Y-104895024D01*
X150811866Y-104877781D01*
X150800830Y-104859368D01*
X150791651Y-104839962D01*
X150784419Y-104819750D01*
X150779203Y-104798926D01*
X150776053Y-104777691D01*
X150775000Y-104756250D01*
X150775000Y-104243750D01*
X150776053Y-104222309D01*
X150779203Y-104201074D01*
X150784419Y-104180250D01*
X150791651Y-104160038D01*
X150800830Y-104140632D01*
X150811866Y-104122219D01*
X150824654Y-104104976D01*
X150839070Y-104089070D01*
X150854976Y-104074654D01*
X150872219Y-104061866D01*
X150890632Y-104050830D01*
X150910038Y-104041651D01*
X150930250Y-104034419D01*
X150951074Y-104029203D01*
X150972309Y-104026053D01*
X150993750Y-104025000D01*
X151431250Y-104025000D01*
X151452691Y-104026053D01*
X151452691Y-104026053D01*
G37*
D18*
X151212500Y-104500000D03*
D10*
G36*
X151452691Y-102026053D02*
G01*
X151473926Y-102029203D01*
X151494750Y-102034419D01*
X151514962Y-102041651D01*
X151534368Y-102050830D01*
X151552781Y-102061866D01*
X151570024Y-102074654D01*
X151585930Y-102089070D01*
X151600346Y-102104976D01*
X151613134Y-102122219D01*
X151624170Y-102140632D01*
X151633349Y-102160038D01*
X151640581Y-102180250D01*
X151645797Y-102201074D01*
X151648947Y-102222309D01*
X151650000Y-102243750D01*
X151650000Y-102756250D01*
X151648947Y-102777691D01*
X151645797Y-102798926D01*
X151640581Y-102819750D01*
X151633349Y-102839962D01*
X151624170Y-102859368D01*
X151613134Y-102877781D01*
X151600346Y-102895024D01*
X151585930Y-102910930D01*
X151570024Y-102925346D01*
X151552781Y-102938134D01*
X151534368Y-102949170D01*
X151514962Y-102958349D01*
X151494750Y-102965581D01*
X151473926Y-102970797D01*
X151452691Y-102973947D01*
X151431250Y-102975000D01*
X150993750Y-102975000D01*
X150972309Y-102973947D01*
X150951074Y-102970797D01*
X150930250Y-102965581D01*
X150910038Y-102958349D01*
X150890632Y-102949170D01*
X150872219Y-102938134D01*
X150854976Y-102925346D01*
X150839070Y-102910930D01*
X150824654Y-102895024D01*
X150811866Y-102877781D01*
X150800830Y-102859368D01*
X150791651Y-102839962D01*
X150784419Y-102819750D01*
X150779203Y-102798926D01*
X150776053Y-102777691D01*
X150775000Y-102756250D01*
X150775000Y-102243750D01*
X150776053Y-102222309D01*
X150779203Y-102201074D01*
X150784419Y-102180250D01*
X150791651Y-102160038D01*
X150800830Y-102140632D01*
X150811866Y-102122219D01*
X150824654Y-102104976D01*
X150839070Y-102089070D01*
X150854976Y-102074654D01*
X150872219Y-102061866D01*
X150890632Y-102050830D01*
X150910038Y-102041651D01*
X150930250Y-102034419D01*
X150951074Y-102029203D01*
X150972309Y-102026053D01*
X150993750Y-102025000D01*
X151431250Y-102025000D01*
X151452691Y-102026053D01*
X151452691Y-102026053D01*
G37*
D18*
X151212500Y-102500000D03*
D10*
G36*
X153027691Y-102026053D02*
G01*
X153048926Y-102029203D01*
X153069750Y-102034419D01*
X153089962Y-102041651D01*
X153109368Y-102050830D01*
X153127781Y-102061866D01*
X153145024Y-102074654D01*
X153160930Y-102089070D01*
X153175346Y-102104976D01*
X153188134Y-102122219D01*
X153199170Y-102140632D01*
X153208349Y-102160038D01*
X153215581Y-102180250D01*
X153220797Y-102201074D01*
X153223947Y-102222309D01*
X153225000Y-102243750D01*
X153225000Y-102756250D01*
X153223947Y-102777691D01*
X153220797Y-102798926D01*
X153215581Y-102819750D01*
X153208349Y-102839962D01*
X153199170Y-102859368D01*
X153188134Y-102877781D01*
X153175346Y-102895024D01*
X153160930Y-102910930D01*
X153145024Y-102925346D01*
X153127781Y-102938134D01*
X153109368Y-102949170D01*
X153089962Y-102958349D01*
X153069750Y-102965581D01*
X153048926Y-102970797D01*
X153027691Y-102973947D01*
X153006250Y-102975000D01*
X152568750Y-102975000D01*
X152547309Y-102973947D01*
X152526074Y-102970797D01*
X152505250Y-102965581D01*
X152485038Y-102958349D01*
X152465632Y-102949170D01*
X152447219Y-102938134D01*
X152429976Y-102925346D01*
X152414070Y-102910930D01*
X152399654Y-102895024D01*
X152386866Y-102877781D01*
X152375830Y-102859368D01*
X152366651Y-102839962D01*
X152359419Y-102819750D01*
X152354203Y-102798926D01*
X152351053Y-102777691D01*
X152350000Y-102756250D01*
X152350000Y-102243750D01*
X152351053Y-102222309D01*
X152354203Y-102201074D01*
X152359419Y-102180250D01*
X152366651Y-102160038D01*
X152375830Y-102140632D01*
X152386866Y-102122219D01*
X152399654Y-102104976D01*
X152414070Y-102089070D01*
X152429976Y-102074654D01*
X152447219Y-102061866D01*
X152465632Y-102050830D01*
X152485038Y-102041651D01*
X152505250Y-102034419D01*
X152526074Y-102029203D01*
X152547309Y-102026053D01*
X152568750Y-102025000D01*
X153006250Y-102025000D01*
X153027691Y-102026053D01*
X153027691Y-102026053D01*
G37*
D18*
X152787500Y-102500000D03*
D10*
G36*
X162583428Y-111475782D02*
G01*
X162599202Y-111478122D01*
X162614671Y-111481997D01*
X162629686Y-111487370D01*
X162644102Y-111494188D01*
X162657780Y-111502386D01*
X162670589Y-111511886D01*
X162682405Y-111522595D01*
X162693114Y-111534411D01*
X162702614Y-111547220D01*
X162710812Y-111560898D01*
X162717630Y-111575314D01*
X162723003Y-111590329D01*
X162726878Y-111605798D01*
X162729218Y-111621572D01*
X162730000Y-111637500D01*
X162730000Y-113287500D01*
X162729218Y-113303428D01*
X162726878Y-113319202D01*
X162723003Y-113334671D01*
X162717630Y-113349686D01*
X162710812Y-113364102D01*
X162702614Y-113377780D01*
X162693114Y-113390589D01*
X162682405Y-113402405D01*
X162670589Y-113413114D01*
X162657780Y-113422614D01*
X162644102Y-113430812D01*
X162629686Y-113437630D01*
X162614671Y-113443003D01*
X162599202Y-113446878D01*
X162583428Y-113449218D01*
X162567500Y-113450000D01*
X162242500Y-113450000D01*
X162226572Y-113449218D01*
X162210798Y-113446878D01*
X162195329Y-113443003D01*
X162180314Y-113437630D01*
X162165898Y-113430812D01*
X162152220Y-113422614D01*
X162139411Y-113413114D01*
X162127595Y-113402405D01*
X162116886Y-113390589D01*
X162107386Y-113377780D01*
X162099188Y-113364102D01*
X162092370Y-113349686D01*
X162086997Y-113334671D01*
X162083122Y-113319202D01*
X162080782Y-113303428D01*
X162080000Y-113287500D01*
X162080000Y-111637500D01*
X162080782Y-111621572D01*
X162083122Y-111605798D01*
X162086997Y-111590329D01*
X162092370Y-111575314D01*
X162099188Y-111560898D01*
X162107386Y-111547220D01*
X162116886Y-111534411D01*
X162127595Y-111522595D01*
X162139411Y-111511886D01*
X162152220Y-111502386D01*
X162165898Y-111494188D01*
X162180314Y-111487370D01*
X162195329Y-111481997D01*
X162210798Y-111478122D01*
X162226572Y-111475782D01*
X162242500Y-111475000D01*
X162567500Y-111475000D01*
X162583428Y-111475782D01*
X162583428Y-111475782D01*
G37*
D21*
X162405000Y-112462500D03*
D10*
G36*
X161313428Y-111475782D02*
G01*
X161329202Y-111478122D01*
X161344671Y-111481997D01*
X161359686Y-111487370D01*
X161374102Y-111494188D01*
X161387780Y-111502386D01*
X161400589Y-111511886D01*
X161412405Y-111522595D01*
X161423114Y-111534411D01*
X161432614Y-111547220D01*
X161440812Y-111560898D01*
X161447630Y-111575314D01*
X161453003Y-111590329D01*
X161456878Y-111605798D01*
X161459218Y-111621572D01*
X161460000Y-111637500D01*
X161460000Y-113287500D01*
X161459218Y-113303428D01*
X161456878Y-113319202D01*
X161453003Y-113334671D01*
X161447630Y-113349686D01*
X161440812Y-113364102D01*
X161432614Y-113377780D01*
X161423114Y-113390589D01*
X161412405Y-113402405D01*
X161400589Y-113413114D01*
X161387780Y-113422614D01*
X161374102Y-113430812D01*
X161359686Y-113437630D01*
X161344671Y-113443003D01*
X161329202Y-113446878D01*
X161313428Y-113449218D01*
X161297500Y-113450000D01*
X160972500Y-113450000D01*
X160956572Y-113449218D01*
X160940798Y-113446878D01*
X160925329Y-113443003D01*
X160910314Y-113437630D01*
X160895898Y-113430812D01*
X160882220Y-113422614D01*
X160869411Y-113413114D01*
X160857595Y-113402405D01*
X160846886Y-113390589D01*
X160837386Y-113377780D01*
X160829188Y-113364102D01*
X160822370Y-113349686D01*
X160816997Y-113334671D01*
X160813122Y-113319202D01*
X160810782Y-113303428D01*
X160810000Y-113287500D01*
X160810000Y-111637500D01*
X160810782Y-111621572D01*
X160813122Y-111605798D01*
X160816997Y-111590329D01*
X160822370Y-111575314D01*
X160829188Y-111560898D01*
X160837386Y-111547220D01*
X160846886Y-111534411D01*
X160857595Y-111522595D01*
X160869411Y-111511886D01*
X160882220Y-111502386D01*
X160895898Y-111494188D01*
X160910314Y-111487370D01*
X160925329Y-111481997D01*
X160940798Y-111478122D01*
X160956572Y-111475782D01*
X160972500Y-111475000D01*
X161297500Y-111475000D01*
X161313428Y-111475782D01*
X161313428Y-111475782D01*
G37*
D21*
X161135000Y-112462500D03*
D10*
G36*
X160043428Y-111475782D02*
G01*
X160059202Y-111478122D01*
X160074671Y-111481997D01*
X160089686Y-111487370D01*
X160104102Y-111494188D01*
X160117780Y-111502386D01*
X160130589Y-111511886D01*
X160142405Y-111522595D01*
X160153114Y-111534411D01*
X160162614Y-111547220D01*
X160170812Y-111560898D01*
X160177630Y-111575314D01*
X160183003Y-111590329D01*
X160186878Y-111605798D01*
X160189218Y-111621572D01*
X160190000Y-111637500D01*
X160190000Y-113287500D01*
X160189218Y-113303428D01*
X160186878Y-113319202D01*
X160183003Y-113334671D01*
X160177630Y-113349686D01*
X160170812Y-113364102D01*
X160162614Y-113377780D01*
X160153114Y-113390589D01*
X160142405Y-113402405D01*
X160130589Y-113413114D01*
X160117780Y-113422614D01*
X160104102Y-113430812D01*
X160089686Y-113437630D01*
X160074671Y-113443003D01*
X160059202Y-113446878D01*
X160043428Y-113449218D01*
X160027500Y-113450000D01*
X159702500Y-113450000D01*
X159686572Y-113449218D01*
X159670798Y-113446878D01*
X159655329Y-113443003D01*
X159640314Y-113437630D01*
X159625898Y-113430812D01*
X159612220Y-113422614D01*
X159599411Y-113413114D01*
X159587595Y-113402405D01*
X159576886Y-113390589D01*
X159567386Y-113377780D01*
X159559188Y-113364102D01*
X159552370Y-113349686D01*
X159546997Y-113334671D01*
X159543122Y-113319202D01*
X159540782Y-113303428D01*
X159540000Y-113287500D01*
X159540000Y-111637500D01*
X159540782Y-111621572D01*
X159543122Y-111605798D01*
X159546997Y-111590329D01*
X159552370Y-111575314D01*
X159559188Y-111560898D01*
X159567386Y-111547220D01*
X159576886Y-111534411D01*
X159587595Y-111522595D01*
X159599411Y-111511886D01*
X159612220Y-111502386D01*
X159625898Y-111494188D01*
X159640314Y-111487370D01*
X159655329Y-111481997D01*
X159670798Y-111478122D01*
X159686572Y-111475782D01*
X159702500Y-111475000D01*
X160027500Y-111475000D01*
X160043428Y-111475782D01*
X160043428Y-111475782D01*
G37*
D21*
X159865000Y-112462500D03*
D10*
G36*
X158773428Y-111475782D02*
G01*
X158789202Y-111478122D01*
X158804671Y-111481997D01*
X158819686Y-111487370D01*
X158834102Y-111494188D01*
X158847780Y-111502386D01*
X158860589Y-111511886D01*
X158872405Y-111522595D01*
X158883114Y-111534411D01*
X158892614Y-111547220D01*
X158900812Y-111560898D01*
X158907630Y-111575314D01*
X158913003Y-111590329D01*
X158916878Y-111605798D01*
X158919218Y-111621572D01*
X158920000Y-111637500D01*
X158920000Y-113287500D01*
X158919218Y-113303428D01*
X158916878Y-113319202D01*
X158913003Y-113334671D01*
X158907630Y-113349686D01*
X158900812Y-113364102D01*
X158892614Y-113377780D01*
X158883114Y-113390589D01*
X158872405Y-113402405D01*
X158860589Y-113413114D01*
X158847780Y-113422614D01*
X158834102Y-113430812D01*
X158819686Y-113437630D01*
X158804671Y-113443003D01*
X158789202Y-113446878D01*
X158773428Y-113449218D01*
X158757500Y-113450000D01*
X158432500Y-113450000D01*
X158416572Y-113449218D01*
X158400798Y-113446878D01*
X158385329Y-113443003D01*
X158370314Y-113437630D01*
X158355898Y-113430812D01*
X158342220Y-113422614D01*
X158329411Y-113413114D01*
X158317595Y-113402405D01*
X158306886Y-113390589D01*
X158297386Y-113377780D01*
X158289188Y-113364102D01*
X158282370Y-113349686D01*
X158276997Y-113334671D01*
X158273122Y-113319202D01*
X158270782Y-113303428D01*
X158270000Y-113287500D01*
X158270000Y-111637500D01*
X158270782Y-111621572D01*
X158273122Y-111605798D01*
X158276997Y-111590329D01*
X158282370Y-111575314D01*
X158289188Y-111560898D01*
X158297386Y-111547220D01*
X158306886Y-111534411D01*
X158317595Y-111522595D01*
X158329411Y-111511886D01*
X158342220Y-111502386D01*
X158355898Y-111494188D01*
X158370314Y-111487370D01*
X158385329Y-111481997D01*
X158400798Y-111478122D01*
X158416572Y-111475782D01*
X158432500Y-111475000D01*
X158757500Y-111475000D01*
X158773428Y-111475782D01*
X158773428Y-111475782D01*
G37*
D21*
X158595000Y-112462500D03*
D10*
G36*
X158773428Y-116550782D02*
G01*
X158789202Y-116553122D01*
X158804671Y-116556997D01*
X158819686Y-116562370D01*
X158834102Y-116569188D01*
X158847780Y-116577386D01*
X158860589Y-116586886D01*
X158872405Y-116597595D01*
X158883114Y-116609411D01*
X158892614Y-116622220D01*
X158900812Y-116635898D01*
X158907630Y-116650314D01*
X158913003Y-116665329D01*
X158916878Y-116680798D01*
X158919218Y-116696572D01*
X158920000Y-116712500D01*
X158920000Y-118362500D01*
X158919218Y-118378428D01*
X158916878Y-118394202D01*
X158913003Y-118409671D01*
X158907630Y-118424686D01*
X158900812Y-118439102D01*
X158892614Y-118452780D01*
X158883114Y-118465589D01*
X158872405Y-118477405D01*
X158860589Y-118488114D01*
X158847780Y-118497614D01*
X158834102Y-118505812D01*
X158819686Y-118512630D01*
X158804671Y-118518003D01*
X158789202Y-118521878D01*
X158773428Y-118524218D01*
X158757500Y-118525000D01*
X158432500Y-118525000D01*
X158416572Y-118524218D01*
X158400798Y-118521878D01*
X158385329Y-118518003D01*
X158370314Y-118512630D01*
X158355898Y-118505812D01*
X158342220Y-118497614D01*
X158329411Y-118488114D01*
X158317595Y-118477405D01*
X158306886Y-118465589D01*
X158297386Y-118452780D01*
X158289188Y-118439102D01*
X158282370Y-118424686D01*
X158276997Y-118409671D01*
X158273122Y-118394202D01*
X158270782Y-118378428D01*
X158270000Y-118362500D01*
X158270000Y-116712500D01*
X158270782Y-116696572D01*
X158273122Y-116680798D01*
X158276997Y-116665329D01*
X158282370Y-116650314D01*
X158289188Y-116635898D01*
X158297386Y-116622220D01*
X158306886Y-116609411D01*
X158317595Y-116597595D01*
X158329411Y-116586886D01*
X158342220Y-116577386D01*
X158355898Y-116569188D01*
X158370314Y-116562370D01*
X158385329Y-116556997D01*
X158400798Y-116553122D01*
X158416572Y-116550782D01*
X158432500Y-116550000D01*
X158757500Y-116550000D01*
X158773428Y-116550782D01*
X158773428Y-116550782D01*
G37*
D21*
X158595000Y-117537500D03*
D10*
G36*
X160043428Y-116550782D02*
G01*
X160059202Y-116553122D01*
X160074671Y-116556997D01*
X160089686Y-116562370D01*
X160104102Y-116569188D01*
X160117780Y-116577386D01*
X160130589Y-116586886D01*
X160142405Y-116597595D01*
X160153114Y-116609411D01*
X160162614Y-116622220D01*
X160170812Y-116635898D01*
X160177630Y-116650314D01*
X160183003Y-116665329D01*
X160186878Y-116680798D01*
X160189218Y-116696572D01*
X160190000Y-116712500D01*
X160190000Y-118362500D01*
X160189218Y-118378428D01*
X160186878Y-118394202D01*
X160183003Y-118409671D01*
X160177630Y-118424686D01*
X160170812Y-118439102D01*
X160162614Y-118452780D01*
X160153114Y-118465589D01*
X160142405Y-118477405D01*
X160130589Y-118488114D01*
X160117780Y-118497614D01*
X160104102Y-118505812D01*
X160089686Y-118512630D01*
X160074671Y-118518003D01*
X160059202Y-118521878D01*
X160043428Y-118524218D01*
X160027500Y-118525000D01*
X159702500Y-118525000D01*
X159686572Y-118524218D01*
X159670798Y-118521878D01*
X159655329Y-118518003D01*
X159640314Y-118512630D01*
X159625898Y-118505812D01*
X159612220Y-118497614D01*
X159599411Y-118488114D01*
X159587595Y-118477405D01*
X159576886Y-118465589D01*
X159567386Y-118452780D01*
X159559188Y-118439102D01*
X159552370Y-118424686D01*
X159546997Y-118409671D01*
X159543122Y-118394202D01*
X159540782Y-118378428D01*
X159540000Y-118362500D01*
X159540000Y-116712500D01*
X159540782Y-116696572D01*
X159543122Y-116680798D01*
X159546997Y-116665329D01*
X159552370Y-116650314D01*
X159559188Y-116635898D01*
X159567386Y-116622220D01*
X159576886Y-116609411D01*
X159587595Y-116597595D01*
X159599411Y-116586886D01*
X159612220Y-116577386D01*
X159625898Y-116569188D01*
X159640314Y-116562370D01*
X159655329Y-116556997D01*
X159670798Y-116553122D01*
X159686572Y-116550782D01*
X159702500Y-116550000D01*
X160027500Y-116550000D01*
X160043428Y-116550782D01*
X160043428Y-116550782D01*
G37*
D21*
X159865000Y-117537500D03*
D10*
G36*
X161313428Y-116550782D02*
G01*
X161329202Y-116553122D01*
X161344671Y-116556997D01*
X161359686Y-116562370D01*
X161374102Y-116569188D01*
X161387780Y-116577386D01*
X161400589Y-116586886D01*
X161412405Y-116597595D01*
X161423114Y-116609411D01*
X161432614Y-116622220D01*
X161440812Y-116635898D01*
X161447630Y-116650314D01*
X161453003Y-116665329D01*
X161456878Y-116680798D01*
X161459218Y-116696572D01*
X161460000Y-116712500D01*
X161460000Y-118362500D01*
X161459218Y-118378428D01*
X161456878Y-118394202D01*
X161453003Y-118409671D01*
X161447630Y-118424686D01*
X161440812Y-118439102D01*
X161432614Y-118452780D01*
X161423114Y-118465589D01*
X161412405Y-118477405D01*
X161400589Y-118488114D01*
X161387780Y-118497614D01*
X161374102Y-118505812D01*
X161359686Y-118512630D01*
X161344671Y-118518003D01*
X161329202Y-118521878D01*
X161313428Y-118524218D01*
X161297500Y-118525000D01*
X160972500Y-118525000D01*
X160956572Y-118524218D01*
X160940798Y-118521878D01*
X160925329Y-118518003D01*
X160910314Y-118512630D01*
X160895898Y-118505812D01*
X160882220Y-118497614D01*
X160869411Y-118488114D01*
X160857595Y-118477405D01*
X160846886Y-118465589D01*
X160837386Y-118452780D01*
X160829188Y-118439102D01*
X160822370Y-118424686D01*
X160816997Y-118409671D01*
X160813122Y-118394202D01*
X160810782Y-118378428D01*
X160810000Y-118362500D01*
X160810000Y-116712500D01*
X160810782Y-116696572D01*
X160813122Y-116680798D01*
X160816997Y-116665329D01*
X160822370Y-116650314D01*
X160829188Y-116635898D01*
X160837386Y-116622220D01*
X160846886Y-116609411D01*
X160857595Y-116597595D01*
X160869411Y-116586886D01*
X160882220Y-116577386D01*
X160895898Y-116569188D01*
X160910314Y-116562370D01*
X160925329Y-116556997D01*
X160940798Y-116553122D01*
X160956572Y-116550782D01*
X160972500Y-116550000D01*
X161297500Y-116550000D01*
X161313428Y-116550782D01*
X161313428Y-116550782D01*
G37*
D21*
X161135000Y-117537500D03*
D10*
G36*
X162583428Y-116550782D02*
G01*
X162599202Y-116553122D01*
X162614671Y-116556997D01*
X162629686Y-116562370D01*
X162644102Y-116569188D01*
X162657780Y-116577386D01*
X162670589Y-116586886D01*
X162682405Y-116597595D01*
X162693114Y-116609411D01*
X162702614Y-116622220D01*
X162710812Y-116635898D01*
X162717630Y-116650314D01*
X162723003Y-116665329D01*
X162726878Y-116680798D01*
X162729218Y-116696572D01*
X162730000Y-116712500D01*
X162730000Y-118362500D01*
X162729218Y-118378428D01*
X162726878Y-118394202D01*
X162723003Y-118409671D01*
X162717630Y-118424686D01*
X162710812Y-118439102D01*
X162702614Y-118452780D01*
X162693114Y-118465589D01*
X162682405Y-118477405D01*
X162670589Y-118488114D01*
X162657780Y-118497614D01*
X162644102Y-118505812D01*
X162629686Y-118512630D01*
X162614671Y-118518003D01*
X162599202Y-118521878D01*
X162583428Y-118524218D01*
X162567500Y-118525000D01*
X162242500Y-118525000D01*
X162226572Y-118524218D01*
X162210798Y-118521878D01*
X162195329Y-118518003D01*
X162180314Y-118512630D01*
X162165898Y-118505812D01*
X162152220Y-118497614D01*
X162139411Y-118488114D01*
X162127595Y-118477405D01*
X162116886Y-118465589D01*
X162107386Y-118452780D01*
X162099188Y-118439102D01*
X162092370Y-118424686D01*
X162086997Y-118409671D01*
X162083122Y-118394202D01*
X162080782Y-118378428D01*
X162080000Y-118362500D01*
X162080000Y-116712500D01*
X162080782Y-116696572D01*
X162083122Y-116680798D01*
X162086997Y-116665329D01*
X162092370Y-116650314D01*
X162099188Y-116635898D01*
X162107386Y-116622220D01*
X162116886Y-116609411D01*
X162127595Y-116597595D01*
X162139411Y-116586886D01*
X162152220Y-116577386D01*
X162165898Y-116569188D01*
X162180314Y-116562370D01*
X162195329Y-116556997D01*
X162210798Y-116553122D01*
X162226572Y-116550782D01*
X162242500Y-116550000D01*
X162567500Y-116550000D01*
X162583428Y-116550782D01*
X162583428Y-116550782D01*
G37*
D21*
X162405000Y-117537500D03*
D22*
X157475000Y-101850000D03*
X156825000Y-101850000D03*
X156175000Y-101850000D03*
X155525000Y-101850000D03*
X155525000Y-106150000D03*
X156175000Y-106150000D03*
X156825000Y-106150000D03*
X157475000Y-106150000D03*
D23*
X196500000Y-116500000D03*
X153500000Y-116500000D03*
X153500000Y-73500000D03*
X196500000Y-73500000D03*
D24*
X157500000Y-118000000D03*
X163500000Y-105500000D03*
X156494929Y-103399297D03*
X175000000Y-91500000D03*
X173000000Y-91500000D03*
X177000000Y-91500000D03*
X179000000Y-91500000D03*
X171000000Y-91500000D03*
X170000000Y-89500000D03*
X172000000Y-89500000D03*
X174000000Y-89500000D03*
X176000000Y-89500000D03*
X178000000Y-89500000D03*
X180000000Y-89500000D03*
X172000000Y-92500000D03*
X178000000Y-92500000D03*
X171000000Y-93500000D03*
X171000000Y-95000000D03*
X171000000Y-96500000D03*
X179000000Y-93500000D03*
X179000000Y-95000000D03*
X179000000Y-96500000D03*
X175000000Y-98500000D03*
X173000000Y-98500000D03*
X171000000Y-98500000D03*
X169000000Y-98500000D03*
X177000000Y-98500000D03*
X179000000Y-98500000D03*
X181000000Y-98500000D03*
X178000000Y-97500000D03*
X172000000Y-97500000D03*
X168000000Y-100500000D03*
X170000000Y-100500000D03*
X172000000Y-100500000D03*
X174000000Y-100500000D03*
X176000000Y-100500000D03*
X178000000Y-100500000D03*
X180000000Y-100500000D03*
X182000000Y-100500000D03*
X166982102Y-118224790D03*
X155130436Y-89642294D03*
X164000000Y-80000000D03*
X155500000Y-98250000D03*
X158000000Y-98250000D03*
X179750000Y-115750000D03*
X182000000Y-115750000D03*
X166774990Y-115103793D03*
X158500000Y-114500000D03*
X150625000Y-113000000D03*
X153500000Y-90500000D03*
X153500000Y-100500000D03*
X155000000Y-103500000D03*
X156500000Y-105000000D03*
X151250000Y-86750000D03*
X151750000Y-99250000D03*
X158750000Y-107750000D03*
X155250000Y-107250000D03*
X174000000Y-81500000D03*
X159000000Y-81750000D03*
X159750000Y-89500000D03*
X156750000Y-100500000D03*
X159500000Y-110500000D03*
X156175000Y-110225010D03*
X153000000Y-110000000D03*
X160500000Y-108500000D03*
X155774990Y-100017898D03*
X153949361Y-108038775D03*
X162500000Y-109500000D03*
X154500000Y-109500000D03*
X169224658Y-116022607D03*
X166368750Y-103131250D03*
X164500000Y-86500000D03*
X164000000Y-111500000D03*
X157500000Y-111000000D03*
X151500000Y-111500000D03*
X185000000Y-87000000D03*
X166500000Y-87550002D03*
X151500000Y-88000000D03*
X184000000Y-88000000D03*
X160500000Y-88000000D03*
X166500000Y-88550015D03*
X165250000Y-95000000D03*
X165250000Y-90500000D03*
X164000000Y-96500000D03*
X163750000Y-91500000D03*
D25*
X166000000Y-118212500D02*
X165787500Y-118000000D01*
D26*
X174975000Y-115000000D02*
X175562500Y-115000000D01*
X172500000Y-116650000D02*
X174150000Y-115000000D01*
X172500000Y-118000000D02*
X172500000Y-116650000D01*
D25*
X157500000Y-113557500D02*
X158595000Y-112462500D01*
X157500000Y-118000000D02*
X157500000Y-113557500D01*
X162287500Y-105500000D02*
X162000000Y-105212500D01*
X163500000Y-105500000D02*
X162287500Y-105500000D01*
X156094930Y-102999298D02*
X156494929Y-103399297D01*
X155525000Y-101850000D02*
X155525000Y-102429368D01*
X155525000Y-102429368D02*
X156094930Y-102999298D01*
D26*
X174150000Y-115000000D02*
X174975000Y-115000000D01*
D25*
X170000000Y-113950000D02*
X170000000Y-114810000D01*
X174437499Y-113874999D02*
X170075001Y-113874999D01*
X170075001Y-113874999D02*
X170000000Y-113950000D01*
X175562500Y-115000000D02*
X174437499Y-113874999D01*
X170075001Y-110862499D02*
X170075001Y-113874999D01*
X170937500Y-110000000D02*
X170075001Y-110862499D01*
X165787500Y-118000000D02*
X166757312Y-118000000D01*
X166757312Y-118000000D02*
X166982102Y-118224790D01*
D26*
X153814999Y-89650001D02*
X155122729Y-89650001D01*
X155122729Y-89650001D02*
X155130436Y-89642294D01*
X153500000Y-88800000D02*
X153500000Y-89335002D01*
X153500000Y-89335002D02*
X153814999Y-89650001D01*
X156420206Y-89642294D02*
X156500000Y-89562500D01*
X155130436Y-89642294D02*
X156420206Y-89642294D01*
X165500000Y-79562500D02*
X164437500Y-79562500D01*
X164437500Y-79562500D02*
X164000000Y-80000000D01*
X162800000Y-80000000D02*
X162500000Y-79700000D01*
X162500000Y-79700000D02*
X162500000Y-78800000D01*
X164000000Y-80000000D02*
X162800000Y-80000000D01*
D27*
X155500000Y-98250000D02*
X158000000Y-98250000D01*
D25*
X162867500Y-118000000D02*
X162405000Y-117537500D01*
X164212500Y-118000000D02*
X162867500Y-118000000D01*
X164212500Y-118000000D02*
X164212500Y-116000000D01*
X166774990Y-114987490D02*
X166774990Y-115103793D01*
X165787500Y-114000000D02*
X166774990Y-114987490D01*
X158595000Y-117537500D02*
X158595000Y-114595000D01*
X158595000Y-114595000D02*
X158500000Y-114500000D01*
X173460000Y-70500000D02*
X174960000Y-72000000D01*
X150449990Y-112259305D02*
X150625000Y-112434315D01*
X150449990Y-79550010D02*
X150449990Y-112259305D01*
X150625000Y-112434315D02*
X150625000Y-113000000D01*
X159500000Y-70500000D02*
X150449990Y-79550010D01*
X173460000Y-70500000D02*
X159500000Y-70500000D01*
X152550000Y-88800000D02*
X152550000Y-89550000D01*
X152550000Y-89550000D02*
X153500000Y-90500000D01*
X153500000Y-100500000D02*
X153500000Y-102000000D01*
X153500000Y-102000000D02*
X155000000Y-103500000D01*
X156825000Y-105325000D02*
X156825000Y-106150000D01*
X156500000Y-105000000D02*
X156825000Y-105325000D01*
X151250000Y-81564998D02*
X151250000Y-86750000D01*
X161550000Y-78800000D02*
X154014998Y-78800000D01*
X154014998Y-78800000D02*
X151250000Y-81564998D01*
X155250000Y-106425000D02*
X155525000Y-106150000D01*
X155250000Y-107250000D02*
X155250000Y-106425000D01*
X158750000Y-101426998D02*
X158750000Y-107184315D01*
X151750000Y-99250000D02*
X156573002Y-99250000D01*
X158750000Y-107184315D02*
X158750000Y-107750000D01*
X156573002Y-99250000D02*
X158750000Y-101426998D01*
X175050000Y-81550000D02*
X174050000Y-81550000D01*
X174050000Y-81550000D02*
X174000000Y-81500000D01*
X159000000Y-81750000D02*
X159750000Y-82500000D01*
X159750000Y-82500000D02*
X159750000Y-89500000D01*
X156750000Y-101775000D02*
X156825000Y-101850000D01*
X156750000Y-100500000D02*
X156750000Y-101775000D01*
X159865000Y-112462500D02*
X159865000Y-110865000D01*
X159865000Y-110865000D02*
X159500000Y-110500000D01*
X153000000Y-106712500D02*
X152787500Y-106500000D01*
X153000000Y-110000000D02*
X153000000Y-106712500D01*
X156175000Y-106950000D02*
X156175000Y-110225010D01*
X156175000Y-106150000D02*
X156175000Y-106950000D01*
X161135000Y-112462500D02*
X161135000Y-109135000D01*
X161135000Y-109135000D02*
X160500000Y-108500000D01*
X152787500Y-104500000D02*
X153949361Y-105661861D01*
X153949361Y-107473090D02*
X153949361Y-108038775D01*
X153949361Y-105661861D02*
X153949361Y-107473090D01*
X156175000Y-101850000D02*
X156175000Y-101248002D01*
X155774990Y-100583583D02*
X155774990Y-100017898D01*
X155774990Y-100847992D02*
X155774990Y-100583583D01*
X156175000Y-101248002D02*
X155774990Y-100847992D01*
X162405000Y-112462500D02*
X162405000Y-110595000D01*
X162405000Y-109595000D02*
X162500000Y-109500000D01*
X153249112Y-102961612D02*
X152787500Y-102500000D01*
X154500000Y-104500000D02*
X154500000Y-104212500D01*
X157475000Y-103492230D02*
X156692231Y-104274999D01*
X154725001Y-104274999D02*
X154500000Y-104500000D01*
X156692231Y-104274999D02*
X154725001Y-104274999D01*
X157475000Y-101850000D02*
X157475000Y-103492230D01*
X154500000Y-104212500D02*
X153249112Y-102961612D01*
X162405000Y-110595000D02*
X162405000Y-109595000D01*
X154524999Y-104524999D02*
X154500000Y-104500000D01*
X154899999Y-109100001D02*
X154899999Y-107973001D01*
X154500000Y-109500000D02*
X154899999Y-109100001D01*
X154899999Y-107973001D02*
X154524999Y-107598001D01*
X154524999Y-107598001D02*
X154524999Y-104524999D01*
D27*
X192500000Y-78000000D02*
X186500000Y-72000000D01*
X190000000Y-118000000D02*
X192500000Y-115500000D01*
D26*
X177580000Y-118000000D02*
X177580000Y-115142500D01*
X177580000Y-115142500D02*
X177437500Y-115000000D01*
D27*
X177580000Y-118000000D02*
X190000000Y-118000000D01*
X186500000Y-72000000D02*
X177500000Y-72000000D01*
D25*
X169050000Y-114810000D02*
X169050000Y-115847949D01*
X169050000Y-115847949D02*
X169224658Y-116022607D01*
D28*
X159637500Y-96400000D02*
X157000000Y-96400000D01*
X177437500Y-115000000D02*
X177437500Y-114200000D01*
D26*
X157000000Y-96400000D02*
X157000000Y-95562500D01*
X154437500Y-91212500D02*
X154450000Y-91200000D01*
X154450000Y-93237500D02*
X154437500Y-93250000D01*
X154450000Y-91200000D02*
X154450000Y-93237500D01*
X154437500Y-93837500D02*
X157000000Y-96400000D01*
X154437500Y-93250000D02*
X154437500Y-93837500D01*
X156250000Y-91437500D02*
X154437500Y-93250000D01*
X156500000Y-91437500D02*
X156250000Y-91437500D01*
X163437500Y-81212500D02*
X163450000Y-81200000D01*
X163437500Y-83500000D02*
X163437500Y-81212500D01*
X163687500Y-81437500D02*
X163450000Y-81200000D01*
X165500000Y-81437500D02*
X163687500Y-81437500D01*
X166000000Y-86062500D02*
X163437500Y-83500000D01*
X166000000Y-86400000D02*
X166000000Y-86062500D01*
D28*
X166368750Y-103131250D02*
X159637500Y-96400000D01*
X166868750Y-103631250D02*
X166368750Y-103131250D01*
X177437500Y-114200000D02*
X166868750Y-103631250D01*
X165900000Y-86500000D02*
X166000000Y-86400000D01*
X164500000Y-86500000D02*
X165900000Y-86500000D01*
X179037500Y-84150000D02*
X179000000Y-84187500D01*
X181750000Y-84150000D02*
X179037500Y-84150000D01*
X177187500Y-84187500D02*
X176950000Y-83950000D01*
X179000000Y-84187500D02*
X177187500Y-84187500D01*
X177187500Y-86000000D02*
X179000000Y-84187500D01*
X183050000Y-84150000D02*
X183150000Y-84250000D01*
X181750000Y-84150000D02*
X183050000Y-84150000D01*
X183150000Y-84250000D02*
X191500000Y-84250000D01*
X191500000Y-84250000D02*
X192500000Y-85250000D01*
D27*
X192500000Y-115500000D02*
X192500000Y-85250000D01*
X192500000Y-85250000D02*
X192500000Y-78000000D01*
D25*
X164000000Y-111500000D02*
X164000000Y-108787500D01*
X151500000Y-106787500D02*
X151212500Y-106500000D01*
X151500000Y-111500000D02*
X151500000Y-106787500D01*
X157500000Y-106175000D02*
X157475000Y-106150000D01*
X164000000Y-108787500D02*
X162000000Y-106787500D01*
X151212500Y-104500000D02*
X151212500Y-102500000D01*
X151212500Y-106500000D02*
X151212500Y-104500000D01*
X157500000Y-111000000D02*
X157500000Y-106175000D01*
X169062500Y-112177500D02*
X169050000Y-112190000D01*
X169062500Y-110000000D02*
X169062500Y-112177500D01*
X169050000Y-113050000D02*
X167500000Y-114600000D01*
X169050000Y-112190000D02*
X169050000Y-113050000D01*
X167500000Y-114600000D02*
X167500000Y-115500000D01*
X167000000Y-116000000D02*
X165787500Y-116000000D01*
X167500000Y-115500000D02*
X167000000Y-116000000D01*
X164690000Y-112190000D02*
X164000000Y-111500000D01*
X169050000Y-112190000D02*
X164690000Y-112190000D01*
D28*
X175050000Y-85737500D02*
X175312500Y-86000000D01*
X175050000Y-83950000D02*
X175050000Y-85737500D01*
X186250000Y-93970000D02*
X183520000Y-96700000D01*
X175312500Y-86000000D02*
X176587510Y-87275010D01*
X176587510Y-87275010D02*
X182474990Y-87275010D01*
X183520000Y-96700000D02*
X181220000Y-96700000D01*
X182474990Y-87275010D02*
X183750000Y-86000000D01*
X183750000Y-86000000D02*
X185500000Y-86000000D01*
X185500000Y-86000000D02*
X186250000Y-86750000D01*
X186250000Y-86750000D02*
X186250000Y-93970000D01*
D26*
X161550000Y-83487500D02*
X161562500Y-83500000D01*
X161550000Y-81200000D02*
X161550000Y-83487500D01*
D28*
X161562500Y-83500000D02*
X161562500Y-86812500D01*
X161562500Y-86812500D02*
X161750000Y-87000000D01*
X183520000Y-95000000D02*
X181220000Y-95000000D01*
X185000000Y-93520000D02*
X183520000Y-95000000D01*
X185000000Y-87000000D02*
X185000000Y-93520000D01*
X162300002Y-87550002D02*
X161750000Y-87000000D01*
X166500000Y-87550002D02*
X162300002Y-87550002D01*
X183270000Y-93300000D02*
X184000000Y-92570000D01*
X151500000Y-88000000D02*
X151500000Y-90150000D01*
X151500000Y-90150000D02*
X152550000Y-91200000D01*
X184000000Y-92570000D02*
X184000000Y-88500000D01*
X181220000Y-93300000D02*
X183270000Y-93300000D01*
X184000000Y-88500000D02*
X184000000Y-88000000D01*
D26*
X152562500Y-91212500D02*
X152550000Y-91200000D01*
X152562500Y-93250000D02*
X152562500Y-91212500D01*
D28*
X161050015Y-88550015D02*
X165934315Y-88550015D01*
X165934315Y-88550015D02*
X166500000Y-88550015D01*
X160500000Y-88000000D02*
X161050015Y-88550015D01*
X161300000Y-93300000D02*
X166480000Y-93300000D01*
X166480000Y-93300000D02*
X168780000Y-93300000D01*
X158774998Y-85924998D02*
X158774998Y-90774998D01*
X157350000Y-84500000D02*
X158774998Y-85924998D01*
X158774998Y-90774998D02*
X161300000Y-93300000D01*
X165250000Y-95000000D02*
X168780000Y-95000000D01*
X166350000Y-74500000D02*
X166350000Y-76650000D01*
X166350000Y-76650000D02*
X167650000Y-77950000D01*
X167650000Y-77950000D02*
X167650000Y-89600000D01*
X167650000Y-89600000D02*
X167350021Y-89899979D01*
X165850021Y-89899979D02*
X165250000Y-90500000D01*
X167350021Y-89899979D02*
X165850021Y-89899979D01*
X168580000Y-96500000D02*
X168780000Y-96700000D01*
X164000000Y-96500000D02*
X168580000Y-96500000D01*
X168600010Y-89993507D02*
X167118515Y-91475002D01*
X168600010Y-85199990D02*
X168600010Y-89993507D01*
X167118515Y-91475002D02*
X164475002Y-91475002D01*
X174650000Y-79150000D02*
X168600010Y-85199990D01*
X174650000Y-77000000D02*
X174650000Y-79150000D01*
X164475002Y-91475002D02*
X163774998Y-91475002D01*
X163774998Y-91475002D02*
X163750000Y-91500000D01*
D26*
X152650000Y-84500000D02*
X152650000Y-86150000D01*
X152650000Y-86150000D02*
X154500000Y-88000000D01*
X154450000Y-88050000D02*
X154450000Y-88800000D01*
X154500000Y-88000000D02*
X154450000Y-88050000D01*
X156618626Y-88000000D02*
X154500000Y-88000000D01*
X157650010Y-89031384D02*
X156618626Y-88000000D01*
X157650010Y-92949990D02*
X157650010Y-89031384D01*
X157000000Y-93600000D02*
X157650010Y-92949990D01*
X163450000Y-77900000D02*
X162550000Y-77000000D01*
X163450000Y-78800000D02*
X163450000Y-77900000D01*
X162550000Y-75400000D02*
X161650000Y-74500000D01*
X162550000Y-77000000D02*
X162550000Y-75400000D01*
X163450000Y-78800000D02*
X163625010Y-78624990D01*
X166650010Y-81968616D02*
X166000000Y-82618626D01*
X163625010Y-78624990D02*
X166243616Y-78624990D01*
X166650010Y-80906384D02*
X166650010Y-81968616D01*
X166243626Y-80500000D02*
X166650010Y-80906384D01*
X166650010Y-79031384D02*
X166650010Y-80093616D01*
X166650010Y-80093616D02*
X166243626Y-80500000D01*
X166000000Y-82618626D02*
X166000000Y-83600000D01*
X166243616Y-78624990D02*
X166650010Y-79031384D01*
D28*
X179350000Y-78950000D02*
X181750000Y-81350000D01*
X179350000Y-77000000D02*
X179350000Y-78950000D01*
X176950000Y-81425000D02*
X178125000Y-80250000D01*
X176950000Y-81550000D02*
X176950000Y-81425000D01*
X178125000Y-80250000D02*
X178750000Y-80250000D01*
X179350000Y-79650000D02*
X179350000Y-77000000D01*
X178750000Y-80250000D02*
X179350000Y-79650000D01*
D25*
X162315000Y-114000000D02*
X159865000Y-116450000D01*
X159865000Y-116450000D02*
X159865000Y-117537500D01*
X164212500Y-114000000D02*
X162315000Y-114000000D01*
D29*
G36*
X165493618Y-103684473D02*
G01*
X165564813Y-103791024D01*
X165708976Y-103935187D01*
X165815527Y-104006382D01*
X166119494Y-104310349D01*
X176315601Y-114506457D01*
X176311928Y-114543750D01*
X176311928Y-115456250D01*
X176328872Y-115628285D01*
X176379053Y-115793709D01*
X176460542Y-115946164D01*
X176570208Y-116079792D01*
X176695001Y-116182207D01*
X176695000Y-116805240D01*
X176524866Y-116944866D01*
X176339294Y-117170986D01*
X176310000Y-117225791D01*
X176280706Y-117170986D01*
X176095134Y-116944866D01*
X175869014Y-116759294D01*
X175611034Y-116621401D01*
X175331111Y-116536487D01*
X175112950Y-116515000D01*
X174967050Y-116515000D01*
X174748889Y-116536487D01*
X174468966Y-116621401D01*
X174210986Y-116759294D01*
X173984866Y-116944866D01*
X173960393Y-116974687D01*
X173939502Y-116905820D01*
X173880537Y-116795506D01*
X173801185Y-116698815D01*
X173704494Y-116619463D01*
X173594180Y-116560498D01*
X173474482Y-116524188D01*
X173350000Y-116511928D01*
X172785750Y-116515000D01*
X172627000Y-116673750D01*
X172627000Y-117873000D01*
X172647000Y-117873000D01*
X172647000Y-118127000D01*
X172627000Y-118127000D01*
X172627000Y-118147000D01*
X172373000Y-118147000D01*
X172373000Y-118127000D01*
X171173750Y-118127000D01*
X171015000Y-118285750D01*
X171011928Y-118850000D01*
X171024188Y-118974482D01*
X171060498Y-119094180D01*
X171119463Y-119204494D01*
X171198815Y-119301185D01*
X171246111Y-119340000D01*
X158127000Y-119340000D01*
X158127000Y-119102395D01*
X158276316Y-119147689D01*
X158432500Y-119163072D01*
X158757500Y-119163072D01*
X158913684Y-119147689D01*
X159063866Y-119102132D01*
X159202274Y-119028151D01*
X159230000Y-119005397D01*
X159257726Y-119028151D01*
X159396134Y-119102132D01*
X159546316Y-119147689D01*
X159702500Y-119163072D01*
X160027500Y-119163072D01*
X160183684Y-119147689D01*
X160333866Y-119102132D01*
X160472274Y-119028151D01*
X160500000Y-119005397D01*
X160527726Y-119028151D01*
X160666134Y-119102132D01*
X160816316Y-119147689D01*
X160972500Y-119163072D01*
X161297500Y-119163072D01*
X161453684Y-119147689D01*
X161603866Y-119102132D01*
X161742274Y-119028151D01*
X161770000Y-119005397D01*
X161797726Y-119028151D01*
X161936134Y-119102132D01*
X162086316Y-119147689D01*
X162242500Y-119163072D01*
X162567500Y-119163072D01*
X162723684Y-119147689D01*
X162873866Y-119102132D01*
X163012274Y-119028151D01*
X163133590Y-118928590D01*
X163233151Y-118807274D01*
X163258420Y-118760000D01*
X163304082Y-118760000D01*
X163387885Y-118862115D01*
X163517725Y-118968671D01*
X163665858Y-119047850D01*
X163826592Y-119096608D01*
X163993750Y-119113072D01*
X164431250Y-119113072D01*
X164598408Y-119096608D01*
X164759142Y-119047850D01*
X164907275Y-118968671D01*
X165037115Y-118862115D01*
X165143671Y-118732275D01*
X165222850Y-118584142D01*
X165271608Y-118423408D01*
X165288072Y-118256250D01*
X165288072Y-117743750D01*
X165271608Y-117576592D01*
X165222850Y-117415858D01*
X165143671Y-117267725D01*
X165047058Y-117150000D01*
X171011928Y-117150000D01*
X171015000Y-117714250D01*
X171173750Y-117873000D01*
X172373000Y-117873000D01*
X172373000Y-116673750D01*
X172214250Y-116515000D01*
X171650000Y-116511928D01*
X171525518Y-116524188D01*
X171405820Y-116560498D01*
X171295506Y-116619463D01*
X171198815Y-116698815D01*
X171119463Y-116795506D01*
X171060498Y-116905820D01*
X171024188Y-117025518D01*
X171011928Y-117150000D01*
X165047058Y-117150000D01*
X165037115Y-117137885D01*
X164972500Y-117084857D01*
X164972500Y-116915143D01*
X165000000Y-116892574D01*
X165092725Y-116968671D01*
X165240858Y-117047850D01*
X165401592Y-117096608D01*
X165568750Y-117113072D01*
X166006250Y-117113072D01*
X166173408Y-117096608D01*
X166334142Y-117047850D01*
X166482275Y-116968671D01*
X166612115Y-116862115D01*
X166695918Y-116760000D01*
X166962678Y-116760000D01*
X167000000Y-116763676D01*
X167037322Y-116760000D01*
X167037333Y-116760000D01*
X167148986Y-116749003D01*
X167292247Y-116705546D01*
X167424276Y-116634974D01*
X167540001Y-116540001D01*
X167563804Y-116510997D01*
X168010997Y-116063804D01*
X168040001Y-116040001D01*
X168134974Y-115924276D01*
X168205546Y-115792247D01*
X168206487Y-115789145D01*
X168213999Y-115798298D01*
X168189658Y-115920668D01*
X168189658Y-116124546D01*
X168229432Y-116324505D01*
X168307453Y-116512863D01*
X168420721Y-116682381D01*
X168564884Y-116826544D01*
X168734402Y-116939812D01*
X168922760Y-117017833D01*
X169122719Y-117057607D01*
X169326597Y-117057607D01*
X169526556Y-117017833D01*
X169714914Y-116939812D01*
X169884432Y-116826544D01*
X170028595Y-116682381D01*
X170141863Y-116512863D01*
X170219884Y-116324505D01*
X170259658Y-116124546D01*
X170259658Y-115941634D01*
X170270506Y-115950537D01*
X170380820Y-116009502D01*
X170500518Y-116045812D01*
X170625000Y-116058072D01*
X171275000Y-116058072D01*
X171399482Y-116045812D01*
X171519180Y-116009502D01*
X171629494Y-115950537D01*
X171726185Y-115871185D01*
X171805537Y-115774494D01*
X171864502Y-115664180D01*
X171900812Y-115544482D01*
X171913072Y-115420000D01*
X171913072Y-114200000D01*
X171900812Y-114075518D01*
X171864502Y-113955820D01*
X171805537Y-113845506D01*
X171726185Y-113748815D01*
X171629494Y-113669463D01*
X171519180Y-113610498D01*
X171399482Y-113574188D01*
X171275000Y-113561928D01*
X170625000Y-113561928D01*
X170500518Y-113574188D01*
X170380820Y-113610498D01*
X170270506Y-113669463D01*
X170173815Y-113748815D01*
X170094463Y-113845506D01*
X170035498Y-113955820D01*
X170000000Y-114072841D01*
X169964502Y-113955820D01*
X169905537Y-113845506D01*
X169826185Y-113748815D01*
X169729494Y-113669463D01*
X169619180Y-113610498D01*
X169579640Y-113598504D01*
X169590001Y-113590001D01*
X169659945Y-113504774D01*
X169684974Y-113474277D01*
X169755546Y-113342247D01*
X169759098Y-113330537D01*
X169768911Y-113298189D01*
X169826185Y-113251185D01*
X169905537Y-113154494D01*
X169964502Y-113044180D01*
X170000000Y-112927159D01*
X170035498Y-113044180D01*
X170094463Y-113154494D01*
X170173815Y-113251185D01*
X170270506Y-113330537D01*
X170380820Y-113389502D01*
X170500518Y-113425812D01*
X170625000Y-113438072D01*
X171275000Y-113438072D01*
X171399482Y-113425812D01*
X171519180Y-113389502D01*
X171629494Y-113330537D01*
X171726185Y-113251185D01*
X171805537Y-113154494D01*
X171864502Y-113044180D01*
X171900812Y-112924482D01*
X171913072Y-112800000D01*
X171913072Y-111580000D01*
X171900812Y-111455518D01*
X171864502Y-111335820D01*
X171805537Y-111225506D01*
X171726185Y-111128815D01*
X171629494Y-111049463D01*
X171519180Y-110990498D01*
X171399482Y-110954188D01*
X171275000Y-110941928D01*
X170625000Y-110941928D01*
X170500518Y-110954188D01*
X170380820Y-110990498D01*
X170270506Y-111049463D01*
X170173815Y-111128815D01*
X170094463Y-111225506D01*
X170035498Y-111335820D01*
X170000000Y-111452841D01*
X169964502Y-111335820D01*
X169905537Y-111225506D01*
X169843842Y-111150330D01*
X169929792Y-111079792D01*
X170039458Y-110946164D01*
X170120947Y-110793709D01*
X170171128Y-110628285D01*
X170188072Y-110456250D01*
X170188072Y-109543750D01*
X170171128Y-109371715D01*
X170120947Y-109206291D01*
X170039458Y-109053836D01*
X169929792Y-108920208D01*
X169796164Y-108810542D01*
X169643709Y-108729053D01*
X169478285Y-108678872D01*
X169306250Y-108661928D01*
X168818750Y-108661928D01*
X168646715Y-108678872D01*
X168481291Y-108729053D01*
X168328836Y-108810542D01*
X168195208Y-108920208D01*
X168085542Y-109053836D01*
X168004053Y-109206291D01*
X167953872Y-109371715D01*
X167936928Y-109543750D01*
X167936928Y-110456250D01*
X167953872Y-110628285D01*
X168004053Y-110793709D01*
X168085542Y-110946164D01*
X168195208Y-111079792D01*
X168266220Y-111138070D01*
X168194463Y-111225506D01*
X168135498Y-111335820D01*
X168106929Y-111430000D01*
X165035000Y-111430000D01*
X165035000Y-111398061D01*
X164995226Y-111198102D01*
X164917205Y-111009744D01*
X164803937Y-110840226D01*
X164760000Y-110796289D01*
X164760000Y-108824822D01*
X164763676Y-108787499D01*
X164760000Y-108750176D01*
X164760000Y-108750167D01*
X164749003Y-108638514D01*
X164705546Y-108495253D01*
X164646600Y-108384974D01*
X164634974Y-108363223D01*
X164563799Y-108276497D01*
X164540001Y-108247499D01*
X164511003Y-108223701D01*
X163113072Y-106825771D01*
X163113072Y-106568750D01*
X163096608Y-106401592D01*
X163047850Y-106240858D01*
X162968671Y-106092725D01*
X162862115Y-105962885D01*
X162732275Y-105856329D01*
X162584142Y-105777150D01*
X162423408Y-105728392D01*
X162256250Y-105711928D01*
X161743750Y-105711928D01*
X161576592Y-105728392D01*
X161415858Y-105777150D01*
X161267725Y-105856329D01*
X161137885Y-105962885D01*
X161031329Y-106092725D01*
X160952150Y-106240858D01*
X160903392Y-106401592D01*
X160886928Y-106568750D01*
X160886928Y-107006250D01*
X160903392Y-107173408D01*
X160952150Y-107334142D01*
X161031329Y-107482275D01*
X161137885Y-107612115D01*
X161267725Y-107718671D01*
X161415858Y-107797850D01*
X161576592Y-107846608D01*
X161743750Y-107863072D01*
X162000771Y-107863072D01*
X162602887Y-108465189D01*
X162601939Y-108465000D01*
X162398061Y-108465000D01*
X162198102Y-108504774D01*
X162009744Y-108582795D01*
X161840226Y-108696063D01*
X161789338Y-108746951D01*
X161769974Y-108710724D01*
X161698799Y-108623997D01*
X161675001Y-108594999D01*
X161646002Y-108571200D01*
X161535000Y-108460198D01*
X161535000Y-108398061D01*
X161495226Y-108198102D01*
X161417205Y-108009744D01*
X161303937Y-107840226D01*
X161159774Y-107696063D01*
X160990256Y-107582795D01*
X160801898Y-107504774D01*
X160601939Y-107465000D01*
X160398061Y-107465000D01*
X160198102Y-107504774D01*
X160009744Y-107582795D01*
X159840226Y-107696063D01*
X159785000Y-107751289D01*
X159785000Y-107648061D01*
X159745226Y-107448102D01*
X159667205Y-107259744D01*
X159553937Y-107090226D01*
X159510000Y-107046289D01*
X159510000Y-101464320D01*
X159513676Y-101426997D01*
X159510000Y-101389674D01*
X159510000Y-101389665D01*
X159499003Y-101278012D01*
X159455546Y-101134751D01*
X159437504Y-101100997D01*
X159384974Y-101002721D01*
X159313799Y-100915995D01*
X159290001Y-100886997D01*
X159261004Y-100863200D01*
X158127000Y-99729197D01*
X158127000Y-97410000D01*
X159219145Y-97410000D01*
X165493618Y-103684473D01*
X165493618Y-103684473D01*
G37*
X165493618Y-103684473D02*
X165564813Y-103791024D01*
X165708976Y-103935187D01*
X165815527Y-104006382D01*
X166119494Y-104310349D01*
X176315601Y-114506457D01*
X176311928Y-114543750D01*
X176311928Y-115456250D01*
X176328872Y-115628285D01*
X176379053Y-115793709D01*
X176460542Y-115946164D01*
X176570208Y-116079792D01*
X176695001Y-116182207D01*
X176695000Y-116805240D01*
X176524866Y-116944866D01*
X176339294Y-117170986D01*
X176310000Y-117225791D01*
X176280706Y-117170986D01*
X176095134Y-116944866D01*
X175869014Y-116759294D01*
X175611034Y-116621401D01*
X175331111Y-116536487D01*
X175112950Y-116515000D01*
X174967050Y-116515000D01*
X174748889Y-116536487D01*
X174468966Y-116621401D01*
X174210986Y-116759294D01*
X173984866Y-116944866D01*
X173960393Y-116974687D01*
X173939502Y-116905820D01*
X173880537Y-116795506D01*
X173801185Y-116698815D01*
X173704494Y-116619463D01*
X173594180Y-116560498D01*
X173474482Y-116524188D01*
X173350000Y-116511928D01*
X172785750Y-116515000D01*
X172627000Y-116673750D01*
X172627000Y-117873000D01*
X172647000Y-117873000D01*
X172647000Y-118127000D01*
X172627000Y-118127000D01*
X172627000Y-118147000D01*
X172373000Y-118147000D01*
X172373000Y-118127000D01*
X171173750Y-118127000D01*
X171015000Y-118285750D01*
X171011928Y-118850000D01*
X171024188Y-118974482D01*
X171060498Y-119094180D01*
X171119463Y-119204494D01*
X171198815Y-119301185D01*
X171246111Y-119340000D01*
X158127000Y-119340000D01*
X158127000Y-119102395D01*
X158276316Y-119147689D01*
X158432500Y-119163072D01*
X158757500Y-119163072D01*
X158913684Y-119147689D01*
X159063866Y-119102132D01*
X159202274Y-119028151D01*
X159230000Y-119005397D01*
X159257726Y-119028151D01*
X159396134Y-119102132D01*
X159546316Y-119147689D01*
X159702500Y-119163072D01*
X160027500Y-119163072D01*
X160183684Y-119147689D01*
X160333866Y-119102132D01*
X160472274Y-119028151D01*
X160500000Y-119005397D01*
X160527726Y-119028151D01*
X160666134Y-119102132D01*
X160816316Y-119147689D01*
X160972500Y-119163072D01*
X161297500Y-119163072D01*
X161453684Y-119147689D01*
X161603866Y-119102132D01*
X161742274Y-119028151D01*
X161770000Y-119005397D01*
X161797726Y-119028151D01*
X161936134Y-119102132D01*
X162086316Y-119147689D01*
X162242500Y-119163072D01*
X162567500Y-119163072D01*
X162723684Y-119147689D01*
X162873866Y-119102132D01*
X163012274Y-119028151D01*
X163133590Y-118928590D01*
X163233151Y-118807274D01*
X163258420Y-118760000D01*
X163304082Y-118760000D01*
X163387885Y-118862115D01*
X163517725Y-118968671D01*
X163665858Y-119047850D01*
X163826592Y-119096608D01*
X163993750Y-119113072D01*
X164431250Y-119113072D01*
X164598408Y-119096608D01*
X164759142Y-119047850D01*
X164907275Y-118968671D01*
X165037115Y-118862115D01*
X165143671Y-118732275D01*
X165222850Y-118584142D01*
X165271608Y-118423408D01*
X165288072Y-118256250D01*
X165288072Y-117743750D01*
X165271608Y-117576592D01*
X165222850Y-117415858D01*
X165143671Y-117267725D01*
X165047058Y-117150000D01*
X171011928Y-117150000D01*
X171015000Y-117714250D01*
X171173750Y-117873000D01*
X172373000Y-117873000D01*
X172373000Y-116673750D01*
X172214250Y-116515000D01*
X171650000Y-116511928D01*
X171525518Y-116524188D01*
X171405820Y-116560498D01*
X171295506Y-116619463D01*
X171198815Y-116698815D01*
X171119463Y-116795506D01*
X171060498Y-116905820D01*
X171024188Y-117025518D01*
X171011928Y-117150000D01*
X165047058Y-117150000D01*
X165037115Y-117137885D01*
X164972500Y-117084857D01*
X164972500Y-116915143D01*
X165000000Y-116892574D01*
X165092725Y-116968671D01*
X165240858Y-117047850D01*
X165401592Y-117096608D01*
X165568750Y-117113072D01*
X166006250Y-117113072D01*
X166173408Y-117096608D01*
X166334142Y-117047850D01*
X166482275Y-116968671D01*
X166612115Y-116862115D01*
X166695918Y-116760000D01*
X166962678Y-116760000D01*
X167000000Y-116763676D01*
X167037322Y-116760000D01*
X167037333Y-116760000D01*
X167148986Y-116749003D01*
X167292247Y-116705546D01*
X167424276Y-116634974D01*
X167540001Y-116540001D01*
X167563804Y-116510997D01*
X168010997Y-116063804D01*
X168040001Y-116040001D01*
X168134974Y-115924276D01*
X168205546Y-115792247D01*
X168206487Y-115789145D01*
X168213999Y-115798298D01*
X168189658Y-115920668D01*
X168189658Y-116124546D01*
X168229432Y-116324505D01*
X168307453Y-116512863D01*
X168420721Y-116682381D01*
X168564884Y-116826544D01*
X168734402Y-116939812D01*
X168922760Y-117017833D01*
X169122719Y-117057607D01*
X169326597Y-117057607D01*
X169526556Y-117017833D01*
X169714914Y-116939812D01*
X169884432Y-116826544D01*
X170028595Y-116682381D01*
X170141863Y-116512863D01*
X170219884Y-116324505D01*
X170259658Y-116124546D01*
X170259658Y-115941634D01*
X170270506Y-115950537D01*
X170380820Y-116009502D01*
X170500518Y-116045812D01*
X170625000Y-116058072D01*
X171275000Y-116058072D01*
X171399482Y-116045812D01*
X171519180Y-116009502D01*
X171629494Y-115950537D01*
X171726185Y-115871185D01*
X171805537Y-115774494D01*
X171864502Y-115664180D01*
X171900812Y-115544482D01*
X171913072Y-115420000D01*
X171913072Y-114200000D01*
X171900812Y-114075518D01*
X171864502Y-113955820D01*
X171805537Y-113845506D01*
X171726185Y-113748815D01*
X171629494Y-113669463D01*
X171519180Y-113610498D01*
X171399482Y-113574188D01*
X171275000Y-113561928D01*
X170625000Y-113561928D01*
X170500518Y-113574188D01*
X170380820Y-113610498D01*
X170270506Y-113669463D01*
X170173815Y-113748815D01*
X170094463Y-113845506D01*
X170035498Y-113955820D01*
X170000000Y-114072841D01*
X169964502Y-113955820D01*
X169905537Y-113845506D01*
X169826185Y-113748815D01*
X169729494Y-113669463D01*
X169619180Y-113610498D01*
X169579640Y-113598504D01*
X169590001Y-113590001D01*
X169659945Y-113504774D01*
X169684974Y-113474277D01*
X169755546Y-113342247D01*
X169759098Y-113330537D01*
X169768911Y-113298189D01*
X169826185Y-113251185D01*
X169905537Y-113154494D01*
X169964502Y-113044180D01*
X170000000Y-112927159D01*
X170035498Y-113044180D01*
X170094463Y-113154494D01*
X170173815Y-113251185D01*
X170270506Y-113330537D01*
X170380820Y-113389502D01*
X170500518Y-113425812D01*
X170625000Y-113438072D01*
X171275000Y-113438072D01*
X171399482Y-113425812D01*
X171519180Y-113389502D01*
X171629494Y-113330537D01*
X171726185Y-113251185D01*
X171805537Y-113154494D01*
X171864502Y-113044180D01*
X171900812Y-112924482D01*
X171913072Y-112800000D01*
X171913072Y-111580000D01*
X171900812Y-111455518D01*
X171864502Y-111335820D01*
X171805537Y-111225506D01*
X171726185Y-111128815D01*
X171629494Y-111049463D01*
X171519180Y-110990498D01*
X171399482Y-110954188D01*
X171275000Y-110941928D01*
X170625000Y-110941928D01*
X170500518Y-110954188D01*
X170380820Y-110990498D01*
X170270506Y-111049463D01*
X170173815Y-111128815D01*
X170094463Y-111225506D01*
X170035498Y-111335820D01*
X170000000Y-111452841D01*
X169964502Y-111335820D01*
X169905537Y-111225506D01*
X169843842Y-111150330D01*
X169929792Y-111079792D01*
X170039458Y-110946164D01*
X170120947Y-110793709D01*
X170171128Y-110628285D01*
X170188072Y-110456250D01*
X170188072Y-109543750D01*
X170171128Y-109371715D01*
X170120947Y-109206291D01*
X170039458Y-109053836D01*
X169929792Y-108920208D01*
X169796164Y-108810542D01*
X169643709Y-108729053D01*
X169478285Y-108678872D01*
X169306250Y-108661928D01*
X168818750Y-108661928D01*
X168646715Y-108678872D01*
X168481291Y-108729053D01*
X168328836Y-108810542D01*
X168195208Y-108920208D01*
X168085542Y-109053836D01*
X168004053Y-109206291D01*
X167953872Y-109371715D01*
X167936928Y-109543750D01*
X167936928Y-110456250D01*
X167953872Y-110628285D01*
X168004053Y-110793709D01*
X168085542Y-110946164D01*
X168195208Y-111079792D01*
X168266220Y-111138070D01*
X168194463Y-111225506D01*
X168135498Y-111335820D01*
X168106929Y-111430000D01*
X165035000Y-111430000D01*
X165035000Y-111398061D01*
X164995226Y-111198102D01*
X164917205Y-111009744D01*
X164803937Y-110840226D01*
X164760000Y-110796289D01*
X164760000Y-108824822D01*
X164763676Y-108787499D01*
X164760000Y-108750176D01*
X164760000Y-108750167D01*
X164749003Y-108638514D01*
X164705546Y-108495253D01*
X164646600Y-108384974D01*
X164634974Y-108363223D01*
X164563799Y-108276497D01*
X164540001Y-108247499D01*
X164511003Y-108223701D01*
X163113072Y-106825771D01*
X163113072Y-106568750D01*
X163096608Y-106401592D01*
X163047850Y-106240858D01*
X162968671Y-106092725D01*
X162862115Y-105962885D01*
X162732275Y-105856329D01*
X162584142Y-105777150D01*
X162423408Y-105728392D01*
X162256250Y-105711928D01*
X161743750Y-105711928D01*
X161576592Y-105728392D01*
X161415858Y-105777150D01*
X161267725Y-105856329D01*
X161137885Y-105962885D01*
X161031329Y-106092725D01*
X160952150Y-106240858D01*
X160903392Y-106401592D01*
X160886928Y-106568750D01*
X160886928Y-107006250D01*
X160903392Y-107173408D01*
X160952150Y-107334142D01*
X161031329Y-107482275D01*
X161137885Y-107612115D01*
X161267725Y-107718671D01*
X161415858Y-107797850D01*
X161576592Y-107846608D01*
X161743750Y-107863072D01*
X162000771Y-107863072D01*
X162602887Y-108465189D01*
X162601939Y-108465000D01*
X162398061Y-108465000D01*
X162198102Y-108504774D01*
X162009744Y-108582795D01*
X161840226Y-108696063D01*
X161789338Y-108746951D01*
X161769974Y-108710724D01*
X161698799Y-108623997D01*
X161675001Y-108594999D01*
X161646002Y-108571200D01*
X161535000Y-108460198D01*
X161535000Y-108398061D01*
X161495226Y-108198102D01*
X161417205Y-108009744D01*
X161303937Y-107840226D01*
X161159774Y-107696063D01*
X160990256Y-107582795D01*
X160801898Y-107504774D01*
X160601939Y-107465000D01*
X160398061Y-107465000D01*
X160198102Y-107504774D01*
X160009744Y-107582795D01*
X159840226Y-107696063D01*
X159785000Y-107751289D01*
X159785000Y-107648061D01*
X159745226Y-107448102D01*
X159667205Y-107259744D01*
X159553937Y-107090226D01*
X159510000Y-107046289D01*
X159510000Y-101464320D01*
X159513676Y-101426997D01*
X159510000Y-101389674D01*
X159510000Y-101389665D01*
X159499003Y-101278012D01*
X159455546Y-101134751D01*
X159437504Y-101100997D01*
X159384974Y-101002721D01*
X159313799Y-100915995D01*
X159290001Y-100886997D01*
X159261004Y-100863200D01*
X158127000Y-99729197D01*
X158127000Y-97410000D01*
X159219145Y-97410000D01*
X165493618Y-103684473D01*
G36*
X171075843Y-71368748D02*
G01*
X170978519Y-71643109D01*
X171099186Y-71873000D01*
X172293000Y-71873000D01*
X172293000Y-71853000D01*
X172547000Y-71853000D01*
X172547000Y-71873000D01*
X172567000Y-71873000D01*
X172567000Y-72127000D01*
X172547000Y-72127000D01*
X172547000Y-73320155D01*
X172776890Y-73441476D01*
X172924099Y-73396825D01*
X173186920Y-73271641D01*
X173420269Y-73097588D01*
X173615178Y-72881355D01*
X173684799Y-72764477D01*
X173719294Y-72829014D01*
X173904866Y-73055134D01*
X174130986Y-73240706D01*
X174388966Y-73378599D01*
X174668889Y-73463513D01*
X174887050Y-73485000D01*
X175032950Y-73485000D01*
X175251111Y-73463513D01*
X175531034Y-73378599D01*
X175789014Y-73240706D01*
X176015134Y-73055134D01*
X176039607Y-73025313D01*
X176060498Y-73094180D01*
X176119463Y-73204494D01*
X176198815Y-73301185D01*
X176295506Y-73380537D01*
X176405820Y-73439502D01*
X176525518Y-73475812D01*
X176650000Y-73488072D01*
X178350000Y-73488072D01*
X178474482Y-73475812D01*
X178594180Y-73439502D01*
X178704494Y-73380537D01*
X178801185Y-73301185D01*
X178880537Y-73204494D01*
X178917683Y-73135000D01*
X186029869Y-73135000D01*
X191365001Y-78470133D01*
X191365000Y-83240000D01*
X183490076Y-83240000D01*
X183438380Y-83212368D01*
X183247994Y-83154615D01*
X183099608Y-83140000D01*
X183050000Y-83135114D01*
X183000392Y-83140000D01*
X182740444Y-83140000D01*
X182654494Y-83069463D01*
X182544180Y-83010498D01*
X182424482Y-82974188D01*
X182300000Y-82961928D01*
X181200000Y-82961928D01*
X181075518Y-82974188D01*
X180955820Y-83010498D01*
X180845506Y-83069463D01*
X180759556Y-83140000D01*
X179814189Y-83140000D01*
X179793709Y-83129053D01*
X179628285Y-83078872D01*
X179456250Y-83061928D01*
X178543750Y-83061928D01*
X178371715Y-83078872D01*
X178206291Y-83129053D01*
X178115653Y-83177500D01*
X177740760Y-83177500D01*
X177676185Y-83098815D01*
X177579494Y-83019463D01*
X177469180Y-82960498D01*
X177349482Y-82924188D01*
X177225000Y-82911928D01*
X176675000Y-82911928D01*
X176550518Y-82924188D01*
X176430820Y-82960498D01*
X176320506Y-83019463D01*
X176223815Y-83098815D01*
X176144463Y-83195506D01*
X176085498Y-83305820D01*
X176049188Y-83425518D01*
X176041073Y-83507919D01*
X176012368Y-83561621D01*
X176000000Y-83602392D01*
X175987632Y-83561620D01*
X175958927Y-83507917D01*
X175950812Y-83425518D01*
X175914502Y-83305820D01*
X175855537Y-83195506D01*
X175776185Y-83098815D01*
X175679494Y-83019463D01*
X175569180Y-82960498D01*
X175449482Y-82924188D01*
X175325000Y-82911928D01*
X174775000Y-82911928D01*
X174650518Y-82924188D01*
X174530820Y-82960498D01*
X174420506Y-83019463D01*
X174323815Y-83098815D01*
X174244463Y-83195506D01*
X174185498Y-83305820D01*
X174149188Y-83425518D01*
X174141073Y-83507918D01*
X174112368Y-83561621D01*
X174054615Y-83752007D01*
X174040000Y-83900393D01*
X174040001Y-85687883D01*
X174035114Y-85737500D01*
X174054615Y-85935494D01*
X174112368Y-86125879D01*
X174186928Y-86265371D01*
X174186928Y-86456250D01*
X174203872Y-86628285D01*
X174254053Y-86793709D01*
X174335542Y-86946164D01*
X174445208Y-87079792D01*
X174578836Y-87189458D01*
X174731291Y-87270947D01*
X174896715Y-87321128D01*
X175068750Y-87338072D01*
X175222217Y-87338072D01*
X175838253Y-87954109D01*
X175869877Y-87992643D01*
X176023670Y-88118857D01*
X176199130Y-88212642D01*
X176389516Y-88270395D01*
X176537902Y-88285010D01*
X176537904Y-88285010D01*
X176587509Y-88289896D01*
X176637114Y-88285010D01*
X182425382Y-88285010D01*
X182474990Y-88289896D01*
X182672984Y-88270395D01*
X182682086Y-88267634D01*
X182863370Y-88212642D01*
X182975137Y-88152902D01*
X182990000Y-88227623D01*
X182990000Y-88549607D01*
X182990001Y-88549617D01*
X182990000Y-92103163D01*
X182894482Y-92074188D01*
X182770000Y-92061928D01*
X179670000Y-92061928D01*
X179545518Y-92074188D01*
X179425820Y-92110498D01*
X179315506Y-92169463D01*
X179218815Y-92248815D01*
X179139463Y-92345506D01*
X179080498Y-92455820D01*
X179044188Y-92575518D01*
X179031928Y-92700000D01*
X179031928Y-93900000D01*
X179044188Y-94024482D01*
X179080498Y-94144180D01*
X179083609Y-94150000D01*
X179080498Y-94155820D01*
X179044188Y-94275518D01*
X179031928Y-94400000D01*
X179031928Y-95600000D01*
X179044188Y-95724482D01*
X179080498Y-95844180D01*
X179083609Y-95850000D01*
X179080498Y-95855820D01*
X179044188Y-95975518D01*
X179031928Y-96100000D01*
X179031928Y-97300000D01*
X179044188Y-97424482D01*
X179080498Y-97544180D01*
X179139463Y-97654494D01*
X179218815Y-97751185D01*
X179315506Y-97830537D01*
X179425820Y-97889502D01*
X179545518Y-97925812D01*
X179670000Y-97938072D01*
X182770000Y-97938072D01*
X182894482Y-97925812D01*
X183014180Y-97889502D01*
X183124494Y-97830537D01*
X183221185Y-97751185D01*
X183254985Y-97710000D01*
X183470392Y-97710000D01*
X183520000Y-97714886D01*
X183717994Y-97695385D01*
X183852793Y-97654494D01*
X183908380Y-97637632D01*
X184083840Y-97543847D01*
X184237633Y-97417633D01*
X184269261Y-97379094D01*
X186929094Y-94719261D01*
X186967633Y-94687633D01*
X187093847Y-94533840D01*
X187187632Y-94358380D01*
X187193139Y-94340226D01*
X187245385Y-94167995D01*
X187264886Y-93970001D01*
X187260000Y-93920393D01*
X187260000Y-86799604D01*
X187264886Y-86749999D01*
X187257903Y-86679101D01*
X187245385Y-86552006D01*
X187187632Y-86361620D01*
X187093847Y-86186160D01*
X186967633Y-86032367D01*
X186929094Y-86000739D01*
X186249261Y-85320906D01*
X186217633Y-85282367D01*
X186190379Y-85260000D01*
X191081645Y-85260000D01*
X191365001Y-85543357D01*
X191365000Y-115029868D01*
X189529869Y-116865000D01*
X178537817Y-116865000D01*
X178465000Y-116805241D01*
X178465000Y-115851607D01*
X178495947Y-115793709D01*
X178546128Y-115628285D01*
X178563072Y-115456250D01*
X178563072Y-114543750D01*
X178546128Y-114371715D01*
X178495947Y-114206291D01*
X178443306Y-114107806D01*
X178432885Y-114002005D01*
X178375132Y-113811620D01*
X178338855Y-113743750D01*
X178281347Y-113636160D01*
X178155133Y-113482367D01*
X178116600Y-113450744D01*
X167547849Y-102881994D01*
X167243882Y-102578027D01*
X167172687Y-102471476D01*
X167028524Y-102327313D01*
X166921973Y-102256118D01*
X160386761Y-95720906D01*
X160355133Y-95682367D01*
X160201340Y-95556153D01*
X160025880Y-95462368D01*
X159835494Y-95404615D01*
X159687108Y-95390000D01*
X159637500Y-95385114D01*
X159587892Y-95390000D01*
X158127000Y-95390000D01*
X158127000Y-94417569D01*
X158139502Y-94394180D01*
X158175812Y-94274482D01*
X158188072Y-94150000D01*
X158188072Y-93663507D01*
X158245060Y-93606519D01*
X158278827Y-93578807D01*
X158327089Y-93520001D01*
X158389420Y-93444050D01*
X158389421Y-93444049D01*
X158471599Y-93290303D01*
X158519062Y-93133841D01*
X158522205Y-93123481D01*
X158529442Y-93050000D01*
X158535010Y-92993467D01*
X158535010Y-92993459D01*
X158539291Y-92949990D01*
X158535010Y-92906521D01*
X158535010Y-91963365D01*
X160550739Y-93979094D01*
X160582367Y-94017633D01*
X160736160Y-94143847D01*
X160911620Y-94237632D01*
X161102006Y-94295385D01*
X161250392Y-94310000D01*
X161250394Y-94310000D01*
X161299999Y-94314886D01*
X161349604Y-94310000D01*
X164476289Y-94310000D01*
X164446063Y-94340226D01*
X164332795Y-94509744D01*
X164254774Y-94698102D01*
X164215000Y-94898061D01*
X164215000Y-95101939D01*
X164254774Y-95301898D01*
X164332689Y-95490000D01*
X164227623Y-95490000D01*
X164101939Y-95465000D01*
X163898061Y-95465000D01*
X163698102Y-95504774D01*
X163509744Y-95582795D01*
X163340226Y-95696063D01*
X163196063Y-95840226D01*
X163082795Y-96009744D01*
X163004774Y-96198102D01*
X162965000Y-96398061D01*
X162965000Y-96601939D01*
X163004774Y-96801898D01*
X163082795Y-96990256D01*
X163196063Y-97159774D01*
X163340226Y-97303937D01*
X163509744Y-97417205D01*
X163698102Y-97495226D01*
X163898061Y-97535000D01*
X164101939Y-97535000D01*
X164227623Y-97510000D01*
X166630130Y-97510000D01*
X166640498Y-97544180D01*
X166699463Y-97654494D01*
X166778815Y-97751185D01*
X166875506Y-97830537D01*
X166985820Y-97889502D01*
X167105518Y-97925812D01*
X167230000Y-97938072D01*
X170330000Y-97938072D01*
X170454482Y-97925812D01*
X170574180Y-97889502D01*
X170684494Y-97830537D01*
X170781185Y-97751185D01*
X170860537Y-97654494D01*
X170919502Y-97544180D01*
X170955812Y-97424482D01*
X170968072Y-97300000D01*
X170968072Y-96100000D01*
X170955812Y-95975518D01*
X170919502Y-95855820D01*
X170916391Y-95850000D01*
X170919502Y-95844180D01*
X170955812Y-95724482D01*
X170968072Y-95600000D01*
X170968072Y-94400000D01*
X170955812Y-94275518D01*
X170919502Y-94155820D01*
X170916391Y-94150000D01*
X170919502Y-94144180D01*
X170955812Y-94024482D01*
X170968072Y-93900000D01*
X170968072Y-92700000D01*
X170955812Y-92575518D01*
X170919502Y-92455820D01*
X170860537Y-92345506D01*
X170781185Y-92248815D01*
X170684494Y-92169463D01*
X170574180Y-92110498D01*
X170454482Y-92074188D01*
X170330000Y-92061928D01*
X167959944Y-92061928D01*
X169279104Y-90742768D01*
X169317643Y-90711140D01*
X169443857Y-90557347D01*
X169537642Y-90381887D01*
X169595395Y-90191501D01*
X169610010Y-90043115D01*
X169610010Y-90043113D01*
X169614896Y-89993508D01*
X169610010Y-89943903D01*
X169610010Y-85618345D01*
X173145001Y-82083354D01*
X173196063Y-82159774D01*
X173340226Y-82303937D01*
X173509744Y-82417205D01*
X173698102Y-82495226D01*
X173898061Y-82535000D01*
X174101939Y-82535000D01*
X174301898Y-82495226D01*
X174392617Y-82457649D01*
X174420506Y-82480537D01*
X174530820Y-82539502D01*
X174650518Y-82575812D01*
X174775000Y-82588072D01*
X175325000Y-82588072D01*
X175449482Y-82575812D01*
X175569180Y-82539502D01*
X175679494Y-82480537D01*
X175776185Y-82401185D01*
X175855537Y-82304494D01*
X175914502Y-82194180D01*
X175950812Y-82074482D01*
X175963072Y-81950000D01*
X175963072Y-81775872D01*
X176012368Y-81938379D01*
X176041073Y-81992082D01*
X176049188Y-82074482D01*
X176085498Y-82194180D01*
X176144463Y-82304494D01*
X176223815Y-82401185D01*
X176320506Y-82480537D01*
X176430820Y-82539502D01*
X176550518Y-82575812D01*
X176675000Y-82588072D01*
X177225000Y-82588072D01*
X177349482Y-82575812D01*
X177469180Y-82539502D01*
X177579494Y-82480537D01*
X177676185Y-82401185D01*
X177755537Y-82304494D01*
X177814502Y-82194180D01*
X177850812Y-82074482D01*
X177858927Y-81992083D01*
X177887632Y-81938380D01*
X177897498Y-81905858D01*
X178543356Y-81260000D01*
X178700392Y-81260000D01*
X178750000Y-81264886D01*
X178822412Y-81257754D01*
X178947994Y-81245385D01*
X179138380Y-81187632D01*
X179313840Y-81093847D01*
X179467633Y-80967633D01*
X179499261Y-80929094D01*
X179590283Y-80838072D01*
X179809717Y-80838072D01*
X180561928Y-81590284D01*
X180561928Y-81900000D01*
X180574188Y-82024482D01*
X180610498Y-82144180D01*
X180669463Y-82254494D01*
X180748815Y-82351185D01*
X180845506Y-82430537D01*
X180955820Y-82489502D01*
X181075518Y-82525812D01*
X181200000Y-82538072D01*
X182300000Y-82538072D01*
X182424482Y-82525812D01*
X182544180Y-82489502D01*
X182654494Y-82430537D01*
X182751185Y-82351185D01*
X182830537Y-82254494D01*
X182889502Y-82144180D01*
X182925812Y-82024482D01*
X182938072Y-81900000D01*
X182938072Y-80800000D01*
X182925812Y-80675518D01*
X182889502Y-80555820D01*
X182830537Y-80445506D01*
X182751185Y-80348815D01*
X182654494Y-80269463D01*
X182544180Y-80210498D01*
X182424482Y-80174188D01*
X182300000Y-80161928D01*
X181990284Y-80161928D01*
X180788072Y-78959717D01*
X180788072Y-74300000D01*
X180775812Y-74175518D01*
X180739502Y-74055820D01*
X180680537Y-73945506D01*
X180601185Y-73848815D01*
X180504494Y-73769463D01*
X180394180Y-73710498D01*
X180274482Y-73674188D01*
X180150000Y-73661928D01*
X178550000Y-73661928D01*
X178425518Y-73674188D01*
X178305820Y-73710498D01*
X178195506Y-73769463D01*
X178098815Y-73848815D01*
X178019463Y-73945506D01*
X177960498Y-74055820D01*
X177924188Y-74175518D01*
X177911928Y-74300000D01*
X177911928Y-79259189D01*
X177736620Y-79312368D01*
X177561160Y-79406153D01*
X177407367Y-79532367D01*
X177375743Y-79570901D01*
X176334848Y-80611797D01*
X176320506Y-80619463D01*
X176223815Y-80698815D01*
X176144463Y-80795506D01*
X176115378Y-80849919D01*
X176106153Y-80861160D01*
X176012368Y-81036620D01*
X175975993Y-81156532D01*
X175963072Y-81199127D01*
X175963072Y-81150000D01*
X175950812Y-81025518D01*
X175914502Y-80905820D01*
X175855537Y-80795506D01*
X175802912Y-80731382D01*
X175804494Y-80730537D01*
X175901185Y-80651185D01*
X175980537Y-80554494D01*
X176039502Y-80444180D01*
X176075812Y-80324482D01*
X176088072Y-80200000D01*
X176088072Y-74300000D01*
X176075812Y-74175518D01*
X176039502Y-74055820D01*
X175980537Y-73945506D01*
X175901185Y-73848815D01*
X175804494Y-73769463D01*
X175694180Y-73710498D01*
X175574482Y-73674188D01*
X175450000Y-73661928D01*
X173850000Y-73661928D01*
X173725518Y-73674188D01*
X173605820Y-73710498D01*
X173495506Y-73769463D01*
X173398815Y-73848815D01*
X173319463Y-73945506D01*
X173260498Y-74055820D01*
X173224188Y-74175518D01*
X173211928Y-74300000D01*
X173211928Y-79159716D01*
X168660000Y-83711645D01*
X168660000Y-77999608D01*
X168664886Y-77950000D01*
X168645385Y-77752005D01*
X168587632Y-77561620D01*
X168504420Y-77405941D01*
X168493847Y-77386160D01*
X168367633Y-77232367D01*
X168329099Y-77200743D01*
X167788072Y-76659716D01*
X167788072Y-72356891D01*
X170978519Y-72356891D01*
X171075843Y-72631252D01*
X171224822Y-72881355D01*
X171419731Y-73097588D01*
X171653080Y-73271641D01*
X171915901Y-73396825D01*
X172063110Y-73441476D01*
X172293000Y-73320155D01*
X172293000Y-72127000D01*
X171099186Y-72127000D01*
X170978519Y-72356891D01*
X167788072Y-72356891D01*
X167788072Y-71550000D01*
X167775812Y-71425518D01*
X167739502Y-71305820D01*
X167715010Y-71260000D01*
X171140621Y-71260000D01*
X171075843Y-71368748D01*
X171075843Y-71368748D01*
G37*
X171075843Y-71368748D02*
X170978519Y-71643109D01*
X171099186Y-71873000D01*
X172293000Y-71873000D01*
X172293000Y-71853000D01*
X172547000Y-71853000D01*
X172547000Y-71873000D01*
X172567000Y-71873000D01*
X172567000Y-72127000D01*
X172547000Y-72127000D01*
X172547000Y-73320155D01*
X172776890Y-73441476D01*
X172924099Y-73396825D01*
X173186920Y-73271641D01*
X173420269Y-73097588D01*
X173615178Y-72881355D01*
X173684799Y-72764477D01*
X173719294Y-72829014D01*
X173904866Y-73055134D01*
X174130986Y-73240706D01*
X174388966Y-73378599D01*
X174668889Y-73463513D01*
X174887050Y-73485000D01*
X175032950Y-73485000D01*
X175251111Y-73463513D01*
X175531034Y-73378599D01*
X175789014Y-73240706D01*
X176015134Y-73055134D01*
X176039607Y-73025313D01*
X176060498Y-73094180D01*
X176119463Y-73204494D01*
X176198815Y-73301185D01*
X176295506Y-73380537D01*
X176405820Y-73439502D01*
X176525518Y-73475812D01*
X176650000Y-73488072D01*
X178350000Y-73488072D01*
X178474482Y-73475812D01*
X178594180Y-73439502D01*
X178704494Y-73380537D01*
X178801185Y-73301185D01*
X178880537Y-73204494D01*
X178917683Y-73135000D01*
X186029869Y-73135000D01*
X191365001Y-78470133D01*
X191365000Y-83240000D01*
X183490076Y-83240000D01*
X183438380Y-83212368D01*
X183247994Y-83154615D01*
X183099608Y-83140000D01*
X183050000Y-83135114D01*
X183000392Y-83140000D01*
X182740444Y-83140000D01*
X182654494Y-83069463D01*
X182544180Y-83010498D01*
X182424482Y-82974188D01*
X182300000Y-82961928D01*
X181200000Y-82961928D01*
X181075518Y-82974188D01*
X180955820Y-83010498D01*
X180845506Y-83069463D01*
X180759556Y-83140000D01*
X179814189Y-83140000D01*
X179793709Y-83129053D01*
X179628285Y-83078872D01*
X179456250Y-83061928D01*
X178543750Y-83061928D01*
X178371715Y-83078872D01*
X178206291Y-83129053D01*
X178115653Y-83177500D01*
X177740760Y-83177500D01*
X177676185Y-83098815D01*
X177579494Y-83019463D01*
X177469180Y-82960498D01*
X177349482Y-82924188D01*
X177225000Y-82911928D01*
X176675000Y-82911928D01*
X176550518Y-82924188D01*
X176430820Y-82960498D01*
X176320506Y-83019463D01*
X176223815Y-83098815D01*
X176144463Y-83195506D01*
X176085498Y-83305820D01*
X176049188Y-83425518D01*
X176041073Y-83507919D01*
X176012368Y-83561621D01*
X176000000Y-83602392D01*
X175987632Y-83561620D01*
X175958927Y-83507917D01*
X175950812Y-83425518D01*
X175914502Y-83305820D01*
X175855537Y-83195506D01*
X175776185Y-83098815D01*
X175679494Y-83019463D01*
X175569180Y-82960498D01*
X175449482Y-82924188D01*
X175325000Y-82911928D01*
X174775000Y-82911928D01*
X174650518Y-82924188D01*
X174530820Y-82960498D01*
X174420506Y-83019463D01*
X174323815Y-83098815D01*
X174244463Y-83195506D01*
X174185498Y-83305820D01*
X174149188Y-83425518D01*
X174141073Y-83507918D01*
X174112368Y-83561621D01*
X174054615Y-83752007D01*
X174040000Y-83900393D01*
X174040001Y-85687883D01*
X174035114Y-85737500D01*
X174054615Y-85935494D01*
X174112368Y-86125879D01*
X174186928Y-86265371D01*
X174186928Y-86456250D01*
X174203872Y-86628285D01*
X174254053Y-86793709D01*
X174335542Y-86946164D01*
X174445208Y-87079792D01*
X174578836Y-87189458D01*
X174731291Y-87270947D01*
X174896715Y-87321128D01*
X175068750Y-87338072D01*
X175222217Y-87338072D01*
X175838253Y-87954109D01*
X175869877Y-87992643D01*
X176023670Y-88118857D01*
X176199130Y-88212642D01*
X176389516Y-88270395D01*
X176537902Y-88285010D01*
X176537904Y-88285010D01*
X176587509Y-88289896D01*
X176637114Y-88285010D01*
X182425382Y-88285010D01*
X182474990Y-88289896D01*
X182672984Y-88270395D01*
X182682086Y-88267634D01*
X182863370Y-88212642D01*
X182975137Y-88152902D01*
X182990000Y-88227623D01*
X182990000Y-88549607D01*
X182990001Y-88549617D01*
X182990000Y-92103163D01*
X182894482Y-92074188D01*
X182770000Y-92061928D01*
X179670000Y-92061928D01*
X179545518Y-92074188D01*
X179425820Y-92110498D01*
X179315506Y-92169463D01*
X179218815Y-92248815D01*
X179139463Y-92345506D01*
X179080498Y-92455820D01*
X179044188Y-92575518D01*
X179031928Y-92700000D01*
X179031928Y-93900000D01*
X179044188Y-94024482D01*
X179080498Y-94144180D01*
X179083609Y-94150000D01*
X179080498Y-94155820D01*
X179044188Y-94275518D01*
X179031928Y-94400000D01*
X179031928Y-95600000D01*
X179044188Y-95724482D01*
X179080498Y-95844180D01*
X179083609Y-95850000D01*
X179080498Y-95855820D01*
X179044188Y-95975518D01*
X179031928Y-96100000D01*
X179031928Y-97300000D01*
X179044188Y-97424482D01*
X179080498Y-97544180D01*
X179139463Y-97654494D01*
X179218815Y-97751185D01*
X179315506Y-97830537D01*
X179425820Y-97889502D01*
X179545518Y-97925812D01*
X179670000Y-97938072D01*
X182770000Y-97938072D01*
X182894482Y-97925812D01*
X183014180Y-97889502D01*
X183124494Y-97830537D01*
X183221185Y-97751185D01*
X183254985Y-97710000D01*
X183470392Y-97710000D01*
X183520000Y-97714886D01*
X183717994Y-97695385D01*
X183852793Y-97654494D01*
X183908380Y-97637632D01*
X184083840Y-97543847D01*
X184237633Y-97417633D01*
X184269261Y-97379094D01*
X186929094Y-94719261D01*
X186967633Y-94687633D01*
X187093847Y-94533840D01*
X187187632Y-94358380D01*
X187193139Y-94340226D01*
X187245385Y-94167995D01*
X187264886Y-93970001D01*
X187260000Y-93920393D01*
X187260000Y-86799604D01*
X187264886Y-86749999D01*
X187257903Y-86679101D01*
X187245385Y-86552006D01*
X187187632Y-86361620D01*
X187093847Y-86186160D01*
X186967633Y-86032367D01*
X186929094Y-86000739D01*
X186249261Y-85320906D01*
X186217633Y-85282367D01*
X186190379Y-85260000D01*
X191081645Y-85260000D01*
X191365001Y-85543357D01*
X191365000Y-115029868D01*
X189529869Y-116865000D01*
X178537817Y-116865000D01*
X178465000Y-116805241D01*
X178465000Y-115851607D01*
X178495947Y-115793709D01*
X178546128Y-115628285D01*
X178563072Y-115456250D01*
X178563072Y-114543750D01*
X178546128Y-114371715D01*
X178495947Y-114206291D01*
X178443306Y-114107806D01*
X178432885Y-114002005D01*
X178375132Y-113811620D01*
X178338855Y-113743750D01*
X178281347Y-113636160D01*
X178155133Y-113482367D01*
X178116600Y-113450744D01*
X167547849Y-102881994D01*
X167243882Y-102578027D01*
X167172687Y-102471476D01*
X167028524Y-102327313D01*
X166921973Y-102256118D01*
X160386761Y-95720906D01*
X160355133Y-95682367D01*
X160201340Y-95556153D01*
X160025880Y-95462368D01*
X159835494Y-95404615D01*
X159687108Y-95390000D01*
X159637500Y-95385114D01*
X159587892Y-95390000D01*
X158127000Y-95390000D01*
X158127000Y-94417569D01*
X158139502Y-94394180D01*
X158175812Y-94274482D01*
X158188072Y-94150000D01*
X158188072Y-93663507D01*
X158245060Y-93606519D01*
X158278827Y-93578807D01*
X158327089Y-93520001D01*
X158389420Y-93444050D01*
X158389421Y-93444049D01*
X158471599Y-93290303D01*
X158519062Y-93133841D01*
X158522205Y-93123481D01*
X158529442Y-93050000D01*
X158535010Y-92993467D01*
X158535010Y-92993459D01*
X158539291Y-92949990D01*
X158535010Y-92906521D01*
X158535010Y-91963365D01*
X160550739Y-93979094D01*
X160582367Y-94017633D01*
X160736160Y-94143847D01*
X160911620Y-94237632D01*
X161102006Y-94295385D01*
X161250392Y-94310000D01*
X161250394Y-94310000D01*
X161299999Y-94314886D01*
X161349604Y-94310000D01*
X164476289Y-94310000D01*
X164446063Y-94340226D01*
X164332795Y-94509744D01*
X164254774Y-94698102D01*
X164215000Y-94898061D01*
X164215000Y-95101939D01*
X164254774Y-95301898D01*
X164332689Y-95490000D01*
X164227623Y-95490000D01*
X164101939Y-95465000D01*
X163898061Y-95465000D01*
X163698102Y-95504774D01*
X163509744Y-95582795D01*
X163340226Y-95696063D01*
X163196063Y-95840226D01*
X163082795Y-96009744D01*
X163004774Y-96198102D01*
X162965000Y-96398061D01*
X162965000Y-96601939D01*
X163004774Y-96801898D01*
X163082795Y-96990256D01*
X163196063Y-97159774D01*
X163340226Y-97303937D01*
X163509744Y-97417205D01*
X163698102Y-97495226D01*
X163898061Y-97535000D01*
X164101939Y-97535000D01*
X164227623Y-97510000D01*
X166630130Y-97510000D01*
X166640498Y-97544180D01*
X166699463Y-97654494D01*
X166778815Y-97751185D01*
X166875506Y-97830537D01*
X166985820Y-97889502D01*
X167105518Y-97925812D01*
X167230000Y-97938072D01*
X170330000Y-97938072D01*
X170454482Y-97925812D01*
X170574180Y-97889502D01*
X170684494Y-97830537D01*
X170781185Y-97751185D01*
X170860537Y-97654494D01*
X170919502Y-97544180D01*
X170955812Y-97424482D01*
X170968072Y-97300000D01*
X170968072Y-96100000D01*
X170955812Y-95975518D01*
X170919502Y-95855820D01*
X170916391Y-95850000D01*
X170919502Y-95844180D01*
X170955812Y-95724482D01*
X170968072Y-95600000D01*
X170968072Y-94400000D01*
X170955812Y-94275518D01*
X170919502Y-94155820D01*
X170916391Y-94150000D01*
X170919502Y-94144180D01*
X170955812Y-94024482D01*
X170968072Y-93900000D01*
X170968072Y-92700000D01*
X170955812Y-92575518D01*
X170919502Y-92455820D01*
X170860537Y-92345506D01*
X170781185Y-92248815D01*
X170684494Y-92169463D01*
X170574180Y-92110498D01*
X170454482Y-92074188D01*
X170330000Y-92061928D01*
X167959944Y-92061928D01*
X169279104Y-90742768D01*
X169317643Y-90711140D01*
X169443857Y-90557347D01*
X169537642Y-90381887D01*
X169595395Y-90191501D01*
X169610010Y-90043115D01*
X169610010Y-90043113D01*
X169614896Y-89993508D01*
X169610010Y-89943903D01*
X169610010Y-85618345D01*
X173145001Y-82083354D01*
X173196063Y-82159774D01*
X173340226Y-82303937D01*
X173509744Y-82417205D01*
X173698102Y-82495226D01*
X173898061Y-82535000D01*
X174101939Y-82535000D01*
X174301898Y-82495226D01*
X174392617Y-82457649D01*
X174420506Y-82480537D01*
X174530820Y-82539502D01*
X174650518Y-82575812D01*
X174775000Y-82588072D01*
X175325000Y-82588072D01*
X175449482Y-82575812D01*
X175569180Y-82539502D01*
X175679494Y-82480537D01*
X175776185Y-82401185D01*
X175855537Y-82304494D01*
X175914502Y-82194180D01*
X175950812Y-82074482D01*
X175963072Y-81950000D01*
X175963072Y-81775872D01*
X176012368Y-81938379D01*
X176041073Y-81992082D01*
X176049188Y-82074482D01*
X176085498Y-82194180D01*
X176144463Y-82304494D01*
X176223815Y-82401185D01*
X176320506Y-82480537D01*
X176430820Y-82539502D01*
X176550518Y-82575812D01*
X176675000Y-82588072D01*
X177225000Y-82588072D01*
X177349482Y-82575812D01*
X177469180Y-82539502D01*
X177579494Y-82480537D01*
X177676185Y-82401185D01*
X177755537Y-82304494D01*
X177814502Y-82194180D01*
X177850812Y-82074482D01*
X177858927Y-81992083D01*
X177887632Y-81938380D01*
X177897498Y-81905858D01*
X178543356Y-81260000D01*
X178700392Y-81260000D01*
X178750000Y-81264886D01*
X178822412Y-81257754D01*
X178947994Y-81245385D01*
X179138380Y-81187632D01*
X179313840Y-81093847D01*
X179467633Y-80967633D01*
X179499261Y-80929094D01*
X179590283Y-80838072D01*
X179809717Y-80838072D01*
X180561928Y-81590284D01*
X180561928Y-81900000D01*
X180574188Y-82024482D01*
X180610498Y-82144180D01*
X180669463Y-82254494D01*
X180748815Y-82351185D01*
X180845506Y-82430537D01*
X180955820Y-82489502D01*
X181075518Y-82525812D01*
X181200000Y-82538072D01*
X182300000Y-82538072D01*
X182424482Y-82525812D01*
X182544180Y-82489502D01*
X182654494Y-82430537D01*
X182751185Y-82351185D01*
X182830537Y-82254494D01*
X182889502Y-82144180D01*
X182925812Y-82024482D01*
X182938072Y-81900000D01*
X182938072Y-80800000D01*
X182925812Y-80675518D01*
X182889502Y-80555820D01*
X182830537Y-80445506D01*
X182751185Y-80348815D01*
X182654494Y-80269463D01*
X182544180Y-80210498D01*
X182424482Y-80174188D01*
X182300000Y-80161928D01*
X181990284Y-80161928D01*
X180788072Y-78959717D01*
X180788072Y-74300000D01*
X180775812Y-74175518D01*
X180739502Y-74055820D01*
X180680537Y-73945506D01*
X180601185Y-73848815D01*
X180504494Y-73769463D01*
X180394180Y-73710498D01*
X180274482Y-73674188D01*
X180150000Y-73661928D01*
X178550000Y-73661928D01*
X178425518Y-73674188D01*
X178305820Y-73710498D01*
X178195506Y-73769463D01*
X178098815Y-73848815D01*
X178019463Y-73945506D01*
X177960498Y-74055820D01*
X177924188Y-74175518D01*
X177911928Y-74300000D01*
X177911928Y-79259189D01*
X177736620Y-79312368D01*
X177561160Y-79406153D01*
X177407367Y-79532367D01*
X177375743Y-79570901D01*
X176334848Y-80611797D01*
X176320506Y-80619463D01*
X176223815Y-80698815D01*
X176144463Y-80795506D01*
X176115378Y-80849919D01*
X176106153Y-80861160D01*
X176012368Y-81036620D01*
X175975993Y-81156532D01*
X175963072Y-81199127D01*
X175963072Y-81150000D01*
X175950812Y-81025518D01*
X175914502Y-80905820D01*
X175855537Y-80795506D01*
X175802912Y-80731382D01*
X175804494Y-80730537D01*
X175901185Y-80651185D01*
X175980537Y-80554494D01*
X176039502Y-80444180D01*
X176075812Y-80324482D01*
X176088072Y-80200000D01*
X176088072Y-74300000D01*
X176075812Y-74175518D01*
X176039502Y-74055820D01*
X175980537Y-73945506D01*
X175901185Y-73848815D01*
X175804494Y-73769463D01*
X175694180Y-73710498D01*
X175574482Y-73674188D01*
X175450000Y-73661928D01*
X173850000Y-73661928D01*
X173725518Y-73674188D01*
X173605820Y-73710498D01*
X173495506Y-73769463D01*
X173398815Y-73848815D01*
X173319463Y-73945506D01*
X173260498Y-74055820D01*
X173224188Y-74175518D01*
X173211928Y-74300000D01*
X173211928Y-79159716D01*
X168660000Y-83711645D01*
X168660000Y-77999608D01*
X168664886Y-77950000D01*
X168645385Y-77752005D01*
X168587632Y-77561620D01*
X168504420Y-77405941D01*
X168493847Y-77386160D01*
X168367633Y-77232367D01*
X168329099Y-77200743D01*
X167788072Y-76659716D01*
X167788072Y-72356891D01*
X170978519Y-72356891D01*
X171075843Y-72631252D01*
X171224822Y-72881355D01*
X171419731Y-73097588D01*
X171653080Y-73271641D01*
X171915901Y-73396825D01*
X172063110Y-73441476D01*
X172293000Y-73320155D01*
X172293000Y-72127000D01*
X171099186Y-72127000D01*
X170978519Y-72356891D01*
X167788072Y-72356891D01*
X167788072Y-71550000D01*
X167775812Y-71425518D01*
X167739502Y-71305820D01*
X167715010Y-71260000D01*
X171140621Y-71260000D01*
X171075843Y-71368748D01*
G36*
X158582795Y-110990256D02*
G01*
X158696063Y-111159774D01*
X158840226Y-111303937D01*
X158949059Y-111376657D01*
X158917311Y-111481316D01*
X158901928Y-111637500D01*
X158901928Y-113287500D01*
X158917311Y-113443684D01*
X158955091Y-113568229D01*
X158801898Y-113504774D01*
X158601939Y-113465000D01*
X158398061Y-113465000D01*
X158198102Y-113504774D01*
X158127000Y-113534226D01*
X158127000Y-111825836D01*
X158159774Y-111803937D01*
X158303937Y-111659774D01*
X158417205Y-111490256D01*
X158495226Y-111301898D01*
X158535000Y-111101939D01*
X158535000Y-110898061D01*
X158526125Y-110853444D01*
X158582795Y-110990256D01*
X158582795Y-110990256D01*
G37*
X158582795Y-110990256D02*
X158696063Y-111159774D01*
X158840226Y-111303937D01*
X158949059Y-111376657D01*
X158917311Y-111481316D01*
X158901928Y-111637500D01*
X158901928Y-113287500D01*
X158917311Y-113443684D01*
X158955091Y-113568229D01*
X158801898Y-113504774D01*
X158601939Y-113465000D01*
X158398061Y-113465000D01*
X158198102Y-113504774D01*
X158127000Y-113534226D01*
X158127000Y-111825836D01*
X158159774Y-111803937D01*
X158303937Y-111659774D01*
X158417205Y-111490256D01*
X158495226Y-111301898D01*
X158535000Y-111101939D01*
X158535000Y-110898061D01*
X158526125Y-110853444D01*
X158582795Y-110990256D01*
G36*
X162554949Y-78256527D02*
G01*
X162549188Y-78275518D01*
X162536928Y-78400000D01*
X162536928Y-79200000D01*
X162549188Y-79324482D01*
X162585498Y-79444180D01*
X162644463Y-79554494D01*
X162723815Y-79651185D01*
X162820506Y-79730537D01*
X162930820Y-79789502D01*
X163050518Y-79825812D01*
X163175000Y-79838072D01*
X163725000Y-79838072D01*
X163849482Y-79825812D01*
X163969180Y-79789502D01*
X164079494Y-79730537D01*
X164176185Y-79651185D01*
X164255537Y-79554494D01*
X164279325Y-79509990D01*
X165765010Y-79509990D01*
X165765011Y-79727037D01*
X165648581Y-79843467D01*
X165614809Y-79871183D01*
X165587094Y-79904954D01*
X165504216Y-80005941D01*
X165422038Y-80159687D01*
X165375855Y-80311928D01*
X165043750Y-80311928D01*
X164871715Y-80328872D01*
X164706291Y-80379053D01*
X164553836Y-80460542D01*
X164441785Y-80552500D01*
X164312727Y-80552500D01*
X164255537Y-80445506D01*
X164176185Y-80348815D01*
X164079494Y-80269463D01*
X163969180Y-80210498D01*
X163849482Y-80174188D01*
X163725000Y-80161928D01*
X163175000Y-80161928D01*
X163050518Y-80174188D01*
X162930820Y-80210498D01*
X162820506Y-80269463D01*
X162723815Y-80348815D01*
X162644463Y-80445506D01*
X162585498Y-80555820D01*
X162549188Y-80675518D01*
X162536928Y-80800000D01*
X162536928Y-81600000D01*
X162549188Y-81724482D01*
X162552501Y-81735403D01*
X162552500Y-82441785D01*
X162500000Y-82505756D01*
X162435000Y-82426554D01*
X162435000Y-81776607D01*
X162450812Y-81724482D01*
X162463072Y-81600000D01*
X162463072Y-80800000D01*
X162450812Y-80675518D01*
X162414502Y-80555820D01*
X162355537Y-80445506D01*
X162276185Y-80348815D01*
X162179494Y-80269463D01*
X162069180Y-80210498D01*
X161949482Y-80174188D01*
X161825000Y-80161928D01*
X161275000Y-80161928D01*
X161150518Y-80174188D01*
X161030820Y-80210498D01*
X160920506Y-80269463D01*
X160823815Y-80348815D01*
X160744463Y-80445506D01*
X160685498Y-80555820D01*
X160649188Y-80675518D01*
X160636928Y-80800000D01*
X160636928Y-81600000D01*
X160649188Y-81724482D01*
X160665000Y-81776608D01*
X160665001Y-82457016D01*
X160585542Y-82553836D01*
X160510000Y-82695165D01*
X160510000Y-82537322D01*
X160513676Y-82499999D01*
X160510000Y-82462675D01*
X160510000Y-82462667D01*
X160499003Y-82351014D01*
X160455546Y-82207753D01*
X160384974Y-82075724D01*
X160290001Y-81959999D01*
X160261004Y-81936202D01*
X160035000Y-81710198D01*
X160035000Y-81648061D01*
X159995226Y-81448102D01*
X159917205Y-81259744D01*
X159803937Y-81090226D01*
X159659774Y-80946063D01*
X159490256Y-80832795D01*
X159301898Y-80754774D01*
X159101939Y-80715000D01*
X158898061Y-80715000D01*
X158698102Y-80754774D01*
X158509744Y-80832795D01*
X158342214Y-80944734D01*
X158274482Y-80924188D01*
X158150000Y-80911928D01*
X158127000Y-80911928D01*
X158127000Y-79560000D01*
X160748982Y-79560000D01*
X160823815Y-79651185D01*
X160920506Y-79730537D01*
X161030820Y-79789502D01*
X161150518Y-79825812D01*
X161275000Y-79838072D01*
X161825000Y-79838072D01*
X161949482Y-79825812D01*
X162069180Y-79789502D01*
X162179494Y-79730537D01*
X162276185Y-79651185D01*
X162355537Y-79554494D01*
X162414502Y-79444180D01*
X162450812Y-79324482D01*
X162463072Y-79200000D01*
X162463072Y-78400000D01*
X162450812Y-78275518D01*
X162414502Y-78155820D01*
X162378289Y-78088072D01*
X162386493Y-78088072D01*
X162554949Y-78256527D01*
X162554949Y-78256527D01*
G37*
X162554949Y-78256527D02*
X162549188Y-78275518D01*
X162536928Y-78400000D01*
X162536928Y-79200000D01*
X162549188Y-79324482D01*
X162585498Y-79444180D01*
X162644463Y-79554494D01*
X162723815Y-79651185D01*
X162820506Y-79730537D01*
X162930820Y-79789502D01*
X163050518Y-79825812D01*
X163175000Y-79838072D01*
X163725000Y-79838072D01*
X163849482Y-79825812D01*
X163969180Y-79789502D01*
X164079494Y-79730537D01*
X164176185Y-79651185D01*
X164255537Y-79554494D01*
X164279325Y-79509990D01*
X165765010Y-79509990D01*
X165765011Y-79727037D01*
X165648581Y-79843467D01*
X165614809Y-79871183D01*
X165587094Y-79904954D01*
X165504216Y-80005941D01*
X165422038Y-80159687D01*
X165375855Y-80311928D01*
X165043750Y-80311928D01*
X164871715Y-80328872D01*
X164706291Y-80379053D01*
X164553836Y-80460542D01*
X164441785Y-80552500D01*
X164312727Y-80552500D01*
X164255537Y-80445506D01*
X164176185Y-80348815D01*
X164079494Y-80269463D01*
X163969180Y-80210498D01*
X163849482Y-80174188D01*
X163725000Y-80161928D01*
X163175000Y-80161928D01*
X163050518Y-80174188D01*
X162930820Y-80210498D01*
X162820506Y-80269463D01*
X162723815Y-80348815D01*
X162644463Y-80445506D01*
X162585498Y-80555820D01*
X162549188Y-80675518D01*
X162536928Y-80800000D01*
X162536928Y-81600000D01*
X162549188Y-81724482D01*
X162552501Y-81735403D01*
X162552500Y-82441785D01*
X162500000Y-82505756D01*
X162435000Y-82426554D01*
X162435000Y-81776607D01*
X162450812Y-81724482D01*
X162463072Y-81600000D01*
X162463072Y-80800000D01*
X162450812Y-80675518D01*
X162414502Y-80555820D01*
X162355537Y-80445506D01*
X162276185Y-80348815D01*
X162179494Y-80269463D01*
X162069180Y-80210498D01*
X161949482Y-80174188D01*
X161825000Y-80161928D01*
X161275000Y-80161928D01*
X161150518Y-80174188D01*
X161030820Y-80210498D01*
X160920506Y-80269463D01*
X160823815Y-80348815D01*
X160744463Y-80445506D01*
X160685498Y-80555820D01*
X160649188Y-80675518D01*
X160636928Y-80800000D01*
X160636928Y-81600000D01*
X160649188Y-81724482D01*
X160665000Y-81776608D01*
X160665001Y-82457016D01*
X160585542Y-82553836D01*
X160510000Y-82695165D01*
X160510000Y-82537322D01*
X160513676Y-82499999D01*
X160510000Y-82462675D01*
X160510000Y-82462667D01*
X160499003Y-82351014D01*
X160455546Y-82207753D01*
X160384974Y-82075724D01*
X160290001Y-81959999D01*
X160261004Y-81936202D01*
X160035000Y-81710198D01*
X160035000Y-81648061D01*
X159995226Y-81448102D01*
X159917205Y-81259744D01*
X159803937Y-81090226D01*
X159659774Y-80946063D01*
X159490256Y-80832795D01*
X159301898Y-80754774D01*
X159101939Y-80715000D01*
X158898061Y-80715000D01*
X158698102Y-80754774D01*
X158509744Y-80832795D01*
X158342214Y-80944734D01*
X158274482Y-80924188D01*
X158150000Y-80911928D01*
X158127000Y-80911928D01*
X158127000Y-79560000D01*
X160748982Y-79560000D01*
X160823815Y-79651185D01*
X160920506Y-79730537D01*
X161030820Y-79789502D01*
X161150518Y-79825812D01*
X161275000Y-79838072D01*
X161825000Y-79838072D01*
X161949482Y-79825812D01*
X162069180Y-79789502D01*
X162179494Y-79730537D01*
X162276185Y-79651185D01*
X162355537Y-79554494D01*
X162414502Y-79444180D01*
X162450812Y-79324482D01*
X162463072Y-79200000D01*
X162463072Y-78400000D01*
X162450812Y-78275518D01*
X162414502Y-78155820D01*
X162378289Y-78088072D01*
X162386493Y-78088072D01*
X162554949Y-78256527D01*
M02*
