G04 #@! TF.GenerationSoftware,KiCad,Pcbnew,5.1.4-e60b266~84~ubuntu18.04.1*
G04 #@! TF.CreationDate,2019-11-17T15:23:13-07:00*
G04 #@! TF.ProjectId,cob_single,636f625f-7369-46e6-976c-652e6b696361,rev?*
G04 #@! TF.SameCoordinates,Original*
G04 #@! TF.FileFunction,Other,Fab,Top*
%FSLAX46Y46*%
G04 Gerber Fmt 4.6, Leading zero omitted, Abs format (unit mm)*
G04 Created by KiCad (PCBNEW 5.1.4-e60b266~84~ubuntu18.04.1) date 2019-11-17 15:23:13*
%MOMM*%
%LPD*%
G04 APERTURE LIST*
%ADD10C,0.100000*%
%ADD11C,0.150000*%
G04 APERTURE END LIST*
D10*
X185600000Y-84400000D02*
X185600000Y-81600000D01*
X185600000Y-81600000D02*
X187400000Y-81600000D01*
X187400000Y-81600000D02*
X187400000Y-84400000D01*
X187400000Y-84400000D02*
X185600000Y-84400000D01*
X186500000Y-83750000D02*
X186500000Y-83350000D01*
X186500000Y-83350000D02*
X185950000Y-83350000D01*
X186500000Y-83350000D02*
X187050000Y-83350000D01*
X186500000Y-83350000D02*
X186100000Y-82750000D01*
X186100000Y-82750000D02*
X186900000Y-82750000D01*
X186900000Y-82750000D02*
X186500000Y-83350000D01*
X186500000Y-82750000D02*
X186500000Y-82250000D01*
X165100000Y-85900000D02*
X165100000Y-83100000D01*
X165100000Y-83100000D02*
X166900000Y-83100000D01*
X166900000Y-83100000D02*
X166900000Y-85900000D01*
X166900000Y-85900000D02*
X165100000Y-85900000D01*
X166000000Y-85250000D02*
X166000000Y-84850000D01*
X166000000Y-84850000D02*
X165450000Y-84850000D01*
X166000000Y-84850000D02*
X166550000Y-84850000D01*
X166000000Y-84850000D02*
X165600000Y-84250000D01*
X165600000Y-84250000D02*
X166400000Y-84250000D01*
X166400000Y-84250000D02*
X166000000Y-84850000D01*
X166000000Y-84250000D02*
X166000000Y-83750000D01*
X156100000Y-96400000D02*
X156100000Y-93600000D01*
X156100000Y-93600000D02*
X157900000Y-93600000D01*
X157900000Y-93600000D02*
X157900000Y-96400000D01*
X157900000Y-96400000D02*
X156100000Y-96400000D01*
X157000000Y-95750000D02*
X157000000Y-95350000D01*
X157000000Y-95350000D02*
X156450000Y-95350000D01*
X157000000Y-95350000D02*
X157550000Y-95350000D01*
X157000000Y-95350000D02*
X156600000Y-94750000D01*
X156600000Y-94750000D02*
X157400000Y-94750000D01*
X157400000Y-94750000D02*
X157000000Y-95350000D01*
X157000000Y-94750000D02*
X157000000Y-94250000D01*
X178625231Y-93309527D02*
G75*
G03X175000000Y-91000000I-3625231J-1690473D01*
G01*
X171374769Y-93309527D02*
G75*
G02X175000000Y-91000000I3625231J-1690473D01*
G01*
X171374769Y-96690473D02*
G75*
G03X175000000Y-99000000I3625231J1690473D01*
G01*
X178625231Y-96690473D02*
G75*
G02X175000000Y-99000000I-3625231J1690473D01*
G01*
X171400000Y-96800000D02*
X171400000Y-93200000D01*
X178600000Y-93200000D02*
X178600000Y-96800000D01*
X171400000Y-93300000D02*
X168800000Y-93300000D01*
X168800000Y-95000000D02*
X171400000Y-95000000D01*
X171400000Y-96700000D02*
X168800000Y-96700000D01*
X178600000Y-96700000D02*
X181300000Y-96700000D01*
X181300000Y-95000000D02*
X178600000Y-95000000D01*
X178600000Y-93300000D02*
X181300000Y-93300000D01*
X152500000Y-92650000D02*
X154500000Y-92650000D01*
X152500000Y-93850000D02*
X152500000Y-92650000D01*
X154500000Y-93850000D02*
X152500000Y-93850000D01*
X154500000Y-92650000D02*
X154500000Y-93850000D01*
X157100000Y-89500000D02*
X157100000Y-91500000D01*
X155900000Y-89500000D02*
X157100000Y-89500000D01*
X155900000Y-91500000D02*
X155900000Y-89500000D01*
X157100000Y-91500000D02*
X155900000Y-91500000D01*
X168550000Y-112620000D02*
X171450000Y-112620000D01*
X171450000Y-112620000D02*
X171450000Y-114380000D01*
X169000000Y-114380000D02*
X171450000Y-114380000D01*
X168550000Y-112620000D02*
X168550000Y-113930000D01*
X169000000Y-114380000D02*
X168550000Y-113930000D01*
X186900000Y-88500000D02*
X186900000Y-86500000D01*
X188100000Y-88500000D02*
X186900000Y-88500000D01*
X188100000Y-86500000D02*
X188100000Y-88500000D01*
X186900000Y-86500000D02*
X188100000Y-86500000D01*
X161500000Y-82900000D02*
X163500000Y-82900000D01*
X161500000Y-84100000D02*
X161500000Y-82900000D01*
X163500000Y-84100000D02*
X161500000Y-84100000D01*
X163500000Y-82900000D02*
X163500000Y-84100000D01*
X180000000Y-80250000D02*
X182000000Y-80250000D01*
X179000000Y-79250000D02*
X180000000Y-80250000D01*
X179000000Y-77250000D02*
X179000000Y-79250000D01*
X184000000Y-80250000D02*
X182000000Y-80250000D01*
X185000000Y-79250000D02*
X184000000Y-80250000D01*
X185000000Y-77250000D02*
X185000000Y-79250000D01*
X184000000Y-74250000D02*
X182000000Y-74250000D01*
X185000000Y-75250000D02*
X184000000Y-74250000D01*
X185000000Y-77250000D02*
X185000000Y-75250000D01*
X180000000Y-74250000D02*
X182000000Y-74250000D01*
X179000000Y-75250000D02*
X180000000Y-74250000D01*
X179000000Y-77250000D02*
X179000000Y-75250000D01*
X166000000Y-71500000D02*
X164000000Y-71500000D01*
X167000000Y-72500000D02*
X166000000Y-71500000D01*
X167000000Y-74500000D02*
X167000000Y-72500000D01*
X162000000Y-71500000D02*
X164000000Y-71500000D01*
X161000000Y-72500000D02*
X162000000Y-71500000D01*
X161000000Y-74500000D02*
X161000000Y-72500000D01*
X162000000Y-77500000D02*
X164000000Y-77500000D01*
X161000000Y-76500000D02*
X162000000Y-77500000D01*
X161000000Y-74500000D02*
X161000000Y-76500000D01*
X166000000Y-77500000D02*
X164000000Y-77500000D01*
X167000000Y-76500000D02*
X166000000Y-77500000D01*
X167000000Y-74500000D02*
X167000000Y-76500000D01*
X157000000Y-81500000D02*
X155000000Y-81500000D01*
X158000000Y-82500000D02*
X157000000Y-81500000D01*
X158000000Y-84500000D02*
X158000000Y-82500000D01*
X153000000Y-81500000D02*
X155000000Y-81500000D01*
X152000000Y-82500000D02*
X153000000Y-81500000D01*
X152000000Y-84500000D02*
X152000000Y-82500000D01*
X153000000Y-87500000D02*
X155000000Y-87500000D01*
X152000000Y-86500000D02*
X153000000Y-87500000D01*
X152000000Y-84500000D02*
X152000000Y-86500000D01*
X157000000Y-87500000D02*
X155000000Y-87500000D01*
X158000000Y-86500000D02*
X157000000Y-87500000D01*
X158000000Y-84500000D02*
X158000000Y-86500000D01*
X184600000Y-81500000D02*
X184600000Y-83500000D01*
X183400000Y-81500000D02*
X184600000Y-81500000D01*
X183400000Y-83500000D02*
X183400000Y-81500000D01*
X184600000Y-83500000D02*
X183400000Y-83500000D01*
X171000000Y-110600000D02*
X169000000Y-110600000D01*
X171000000Y-109400000D02*
X171000000Y-110600000D01*
X169000000Y-109400000D02*
X171000000Y-109400000D01*
X169000000Y-110600000D02*
X169000000Y-109400000D01*
X166100000Y-79500000D02*
X166100000Y-81500000D01*
X164900000Y-79500000D02*
X166100000Y-79500000D01*
X164900000Y-81500000D02*
X164900000Y-79500000D01*
X166100000Y-81500000D02*
X164900000Y-81500000D01*
X165800000Y-118400000D02*
X164200000Y-118400000D01*
X165800000Y-117600000D02*
X165800000Y-118400000D01*
X164200000Y-117600000D02*
X165800000Y-117600000D01*
X164200000Y-118400000D02*
X164200000Y-117600000D01*
X162400000Y-106800000D02*
X161600000Y-106800000D01*
X161600000Y-106800000D02*
X161600000Y-105200000D01*
X161600000Y-105200000D02*
X162400000Y-105200000D01*
X162400000Y-105200000D02*
X162400000Y-106800000D01*
X177500000Y-114400000D02*
X177500000Y-115600000D01*
X177500000Y-115600000D02*
X175500000Y-115600000D01*
X175500000Y-115600000D02*
X175500000Y-114400000D01*
X175500000Y-114400000D02*
X177500000Y-114400000D01*
X171865000Y-119270000D02*
X171230000Y-118635000D01*
X178850000Y-119270000D02*
X171865000Y-119270000D01*
X178850000Y-116730000D02*
X178850000Y-119270000D01*
X171230000Y-116730000D02*
X178850000Y-116730000D01*
X171230000Y-118635000D02*
X171230000Y-116730000D01*
X178770000Y-71365000D02*
X178770000Y-73270000D01*
X178770000Y-73270000D02*
X171150000Y-73270000D01*
X171150000Y-73270000D02*
X171150000Y-70730000D01*
X171150000Y-70730000D02*
X178135000Y-70730000D01*
X178135000Y-70730000D02*
X178770000Y-71365000D01*
X164200000Y-114400000D02*
X164200000Y-113600000D01*
X164200000Y-113600000D02*
X165800000Y-113600000D01*
X165800000Y-113600000D02*
X165800000Y-114400000D01*
X165800000Y-114400000D02*
X164200000Y-114400000D01*
X165800000Y-115600000D02*
X165800000Y-116400000D01*
X165800000Y-116400000D02*
X164200000Y-116400000D01*
X164200000Y-116400000D02*
X164200000Y-115600000D01*
X164200000Y-115600000D02*
X165800000Y-115600000D01*
X151200000Y-106900000D02*
X151200000Y-106100000D01*
X151200000Y-106100000D02*
X152800000Y-106100000D01*
X152800000Y-106100000D02*
X152800000Y-106900000D01*
X152800000Y-106900000D02*
X151200000Y-106900000D01*
X152800000Y-104900000D02*
X151200000Y-104900000D01*
X152800000Y-104100000D02*
X152800000Y-104900000D01*
X151200000Y-104100000D02*
X152800000Y-104100000D01*
X151200000Y-104900000D02*
X151200000Y-104100000D01*
X151200000Y-102900000D02*
X151200000Y-102100000D01*
X151200000Y-102100000D02*
X152800000Y-102100000D01*
X152800000Y-102100000D02*
X152800000Y-102900000D01*
X152800000Y-102900000D02*
X151200000Y-102900000D01*
X162980000Y-114060000D02*
X162980000Y-116880000D01*
X162980000Y-116880000D02*
X158020000Y-116880000D01*
X158020000Y-116880000D02*
X158020000Y-113120000D01*
X158020000Y-113120000D02*
X162040000Y-113120000D01*
X162040000Y-113120000D02*
X162980000Y-114060000D01*
D11*
X158000000Y-103500000D02*
X158000000Y-105500000D01*
X158000000Y-105500000D02*
X155000000Y-105500000D01*
X155000000Y-105500000D02*
X155000000Y-102500000D01*
X155000000Y-102500000D02*
X157000000Y-102500000D01*
X157000000Y-102500000D02*
X158000000Y-103500000D01*
M02*
