<?xml version="1.0" standalone="no"?>
 <!DOCTYPE svg PUBLIC "-//W3C//DTD SVG 1.1//EN" 
 "http://www.w3.org/Graphics/SVG/1.1/DTD/svg11.dtd"> 
<svg xmlns="http://www.w3.org/2000/svg" version="1.1" 
    width="6.08838cm" height="5.58546cm" viewBox="0 0 23970 21990 ">
<title>SVG Picture created as cob_single-brd.svg date 2019/11/17 15:23:28 </title>
  <desc>Picture generated by PCBNEW </desc>
<g style="fill:#000000; fill-opacity:1;stroke:#000000; stroke-opacity:1;
stroke-linecap:round; stroke-linejoin:round; "
 transform="translate(0 0) scale(1 1)">
</g>
<g style="fill:#000000; fill-opacity:0.0; 
stroke:#000000; stroke-width:-0.000393701; stroke-opacity:1; 
stroke-linecap:round; stroke-linejoin:round;">
</g>
<g style="fill:#840084; fill-opacity:0.0; 
stroke:#840084; stroke-width:-0.000393701; stroke-opacity:1; 
stroke-linecap:round; stroke-linejoin:round;">
</g>
<g style="fill:#840084; fill-opacity:1.0; 
stroke:#840084; stroke-width:0; stroke-opacity:1; 
stroke-linecap:round; stroke-linejoin:round;">
<path style="fill:#840084; fill-opacity:1.0; 
stroke:#840084; stroke-width:0; stroke-opacity:1; 
stroke-linecap:round; stroke-linejoin:round;fill-rule:evenodd;"
d="M 12874,20284
12165,20284
12165,19575
12874,19575
12874,20284
Z" /> 
<path style="fill:#840084; fill-opacity:1.0; 
stroke:#840084; stroke-width:0; stroke-opacity:1; 
stroke-linecap:round; stroke-linejoin:round;fill-rule:evenodd;"
d="M 13563,19578
13589,19580
13656,19600
13718,19633
13732,19645
13772,19678
13804,19718
13816,19732
13849,19793
13869,19860
13876,19930
13869,19999
13849,20066
13816,20128
13810,20135
13772,20182
13732,20214
13718,20226
13656,20259
13589,20279
13563,20282
13537,20284
13502,20284
13476,20282
13450,20279
13383,20259
13322,20226
13308,20214
13268,20182
13229,20135
13223,20128
13190,20066
13170,19999
13163,19930
13170,19860
13190,19793
13223,19732
13235,19718
13268,19678
13308,19645
13322,19633
13383,19600
13450,19580
13476,19578
13502,19575
13537,19575
13563,19578
Z" /> 
<path style="fill:#840084; fill-opacity:1.0; 
stroke:#840084; stroke-width:0; stroke-opacity:1; 
stroke-linecap:round; stroke-linejoin:round;fill-rule:evenodd;"
d="M 14563,19578
14589,19580
14656,19600
14718,19633
14732,19645
14772,19678
14804,19718
14816,19732
14849,19793
14869,19860
14876,19930
14869,19999
14849,20066
14816,20128
14810,20135
14772,20182
14732,20214
14718,20226
14656,20259
14589,20279
14563,20282
14537,20284
14502,20284
14476,20282
14450,20279
14383,20259
14322,20226
14308,20214
14268,20182
14229,20135
14223,20128
14190,20066
14170,19999
14163,19930
14170,19860
14190,19793
14223,19732
14235,19718
14268,19678
14308,19645
14322,19633
14383,19600
14450,19580
14476,19578
14502,19575
14537,19575
14563,19578
Z" /> 
<path style="fill:#840084; fill-opacity:1.0; 
stroke:#840084; stroke-width:0; stroke-opacity:1; 
stroke-linecap:round; stroke-linejoin:round;fill-rule:evenodd;"
d="M 7153,19340
7163,19343
7171,19347
7179,19353
7185,19361
7189,19369
7192,19379
7193,19391
7193,20105
7192,20117
7189,20126
7185,20134
7179,20142
7171,20148
7163,20152
7153,20155
7141,20156
6949,20156
6937,20155
6928,20152
6919,20148
6912,20142
6906,20134
6901,20126
6898,20117
6897,20105
6897,19391
6898,19379
6901,19369
6906,19361
6912,19353
6919,19347
6928,19343
6937,19340
6949,19339
7141,19339
7153,19340
Z" /> 
<path style="fill:#840084; fill-opacity:1.0; 
stroke:#840084; stroke-width:0; stroke-opacity:1; 
stroke-linecap:round; stroke-linejoin:round;fill-rule:evenodd;"
d="M 7653,19340
7663,19343
7671,19347
7679,19353
7685,19361
7689,19369
7692,19379
7693,19391
7693,20105
7692,20117
7689,20126
7685,20134
7679,20142
7671,20148
7663,20152
7653,20155
7641,20156
7449,20156
7437,20155
7428,20152
7419,20148
7412,20142
7406,20134
7401,20126
7398,20117
7397,20105
7397,19391
7398,19379
7401,19369
7406,19361
7412,19353
7419,19347
7428,19343
7437,19340
7449,19339
7641,19339
7653,19340
Z" /> 
<path style="fill:#840084; fill-opacity:1.0; 
stroke:#840084; stroke-width:0; stroke-opacity:1; 
stroke-linecap:round; stroke-linejoin:round;fill-rule:evenodd;"
d="M 8653,19340
8663,19343
8671,19347
8679,19353
8685,19361
8689,19369
8692,19379
8693,19391
8693,20105
8692,20117
8689,20126
8685,20134
8679,20142
8671,20148
8663,20152
8653,20155
8641,20156
8449,20156
8437,20155
8428,20152
8419,20148
8412,20142
8406,20134
8401,20126
8398,20117
8397,20105
8397,19391
8398,19379
8401,19369
8406,19361
8412,19353
8419,19347
8428,19343
8437,19340
8449,19339
8641,19339
8653,19340
Z" /> 
<path style="fill:#840084; fill-opacity:1.0; 
stroke:#840084; stroke-width:0; stroke-opacity:1; 
stroke-linecap:round; stroke-linejoin:round;fill-rule:evenodd;"
d="M 8153,19340
8163,19343
8171,19347
8179,19353
8185,19361
8189,19369
8192,19379
8193,19391
8193,20105
8192,20117
8189,20126
8185,20134
8179,20142
8171,20148
8163,20152
8153,20155
8141,20156
7949,20156
7937,20155
7928,20152
7919,20148
7912,20142
7906,20134
7901,20126
7898,20117
7897,20105
7897,19391
7898,19379
7901,19369
7906,19361
7912,19353
7919,19347
7928,19343
7937,19340
7949,19339
8141,19339
8153,19340
Z" /> 
<path style="fill:#840084; fill-opacity:1.0; 
stroke:#840084; stroke-width:0; stroke-opacity:1; 
stroke-linecap:round; stroke-linejoin:round;fill-rule:evenodd;"
d="M 10012,19724
10025,19728
10037,19735
10048,19744
10057,19755
10064,19767
10068,19780
10069,19797
10069,20063
10068,20079
10064,20092
10057,20105
10048,20116
10037,20124
10025,20131
10012,20135
9995,20137
9759,20137
9742,20135
9729,20131
9717,20124
9706,20116
9697,20105
9690,20092
9686,20079
9685,20063
9685,19797
9686,19780
9690,19767
9697,19755
9706,19744
9717,19735
9729,19728
9742,19724
9759,19723
9995,19723
10012,19724
Z" /> 
<path style="fill:#840084; fill-opacity:1.0; 
stroke:#840084; stroke-width:0; stroke-opacity:1; 
stroke-linecap:round; stroke-linejoin:round;fill-rule:evenodd;"
d="M 9392,19724
9405,19728
9417,19735
9428,19744
9437,19755
9444,19767
9448,19780
9449,19797
9449,20063
9448,20079
9444,20092
9437,20105
9428,20116
9417,20124
9405,20131
9392,20135
9375,20137
9139,20137
9122,20135
9109,20131
9096,20124
9086,20116
9077,20105
9070,20092
9066,20079
9065,20063
9065,19797
9066,19780
9070,19767
9077,19755
9086,19744
9096,19735
9109,19728
9122,19724
9139,19723
9375,19723
9392,19724
Z" /> 
<path style="fill:#840084; fill-opacity:1.0; 
stroke:#840084; stroke-width:0; stroke-opacity:1; 
stroke-linecap:round; stroke-linejoin:round;fill-rule:evenodd;"
d="M 22094,18802
22129,18809
22171,18826
22230,18850
22230,18850
22320,18911
22397,18988
22419,19020
22457,19078
22499,19178
22520,19285
22520,19393
22499,19500
22457,19600
22457,19600
22397,19691
22320,19768
22282,19793
22230,19828
22171,19852
22129,19869
22094,19877
22023,19891
21914,19891
21843,19877
21808,19869
21766,19852
21707,19828
21655,19793
21617,19768
21540,19691
21480,19600
21480,19600
21438,19500
21417,19393
21417,19285
21438,19178
21480,19078
21518,19020
21540,18988
21617,18911
21707,18850
21707,18850
21766,18826
21808,18809
21843,18802
21914,18788
22023,18788
22094,18802
Z" /> 
<path style="fill:#840084; fill-opacity:1.0; 
stroke:#840084; stroke-width:0; stroke-opacity:1; 
stroke-linecap:round; stroke-linejoin:round;fill-rule:evenodd;"
d="M 5165,18802
5200,18809
5242,18826
5301,18850
5301,18850
5391,18911
5468,18988
5490,19020
5528,19078
5570,19178
5591,19285
5591,19393
5570,19500
5528,19600
5528,19600
5468,19691
5391,19768
5352,19793
5301,19828
5242,19852
5200,19869
5165,19877
5094,19891
4985,19891
4914,19877
4878,19869
4837,19852
4778,19828
4726,19793
4688,19768
4611,19691
4551,19600
4551,19600
4509,19500
4488,19393
4488,19285
4509,19178
4551,19078
4589,19020
4611,18988
4688,18911
4778,18850
4778,18850
4837,18826
4878,18809
4914,18802
4985,18788
5094,18788
5165,18802
Z" /> 
<path style="fill:#840084; fill-opacity:1.0; 
stroke:#840084; stroke-width:0; stroke-opacity:1; 
stroke-linecap:round; stroke-linejoin:round;fill-rule:evenodd;"
d="M 10012,18937
10025,18941
10037,18947
10048,18956
10057,18967
10064,18979
10068,18993
10069,19009
10069,19275
10068,19292
10064,19305
10057,19317
10048,19328
10037,19337
10025,19344
10012,19348
9995,19349
9759,19349
9742,19348
9729,19344
9717,19337
9706,19328
9697,19317
9690,19305
9686,19292
9685,19275
9685,19009
9686,18993
9690,18979
9697,18967
9706,18956
9717,18947
9729,18941
9742,18937
9759,18935
9995,18935
10012,18937
Z" /> 
<path style="fill:#840084; fill-opacity:1.0; 
stroke:#840084; stroke-width:0; stroke-opacity:1; 
stroke-linecap:round; stroke-linejoin:round;fill-rule:evenodd;"
d="M 9392,18937
9405,18941
9417,18947
9428,18956
9437,18967
9444,18979
9448,18993
9449,19009
9449,19275
9448,19292
9444,19305
9437,19317
9428,19328
9417,19337
9405,19344
9392,19348
9375,19349
9139,19349
9122,19348
9109,19344
9096,19337
9086,19328
9077,19317
9070,19305
9066,19292
9065,19275
9065,19009
9066,18993
9070,18979
9077,18967
9086,18956
9096,18947
9109,18941
9122,18937
9139,18935
9375,18935
9392,18937
Z" /> 
<path style="fill:#840084; fill-opacity:1.0; 
stroke:#840084; stroke-width:0; stroke-opacity:1; 
stroke-linecap:round; stroke-linejoin:round;fill-rule:evenodd;"
d="M 14610,18455
14625,18459
14639,18467
14652,18477
14662,18489
14669,18503
14674,18518
14676,18537
14676,18960
14674,18979
14669,18994
14662,19008
14652,19020
14639,19030
14625,19038
14610,19042
14592,19044
14335,19044
14317,19042
14302,19038
14288,19030
14276,19020
14265,19008
14258,18994
14253,18979
14252,18960
14252,18537
14253,18518
14258,18503
14265,18489
14276,18477
14288,18467
14302,18459
14317,18455
14335,18453
14592,18453
14610,18455
Z" /> 
<path style="fill:#840084; fill-opacity:1.0; 
stroke:#840084; stroke-width:0; stroke-opacity:1; 
stroke-linecap:round; stroke-linejoin:round;fill-rule:evenodd;"
d="M 13872,18455
13887,18459
13901,18467
13913,18477
13923,18489
13931,18503
13936,18518
13937,18537
13937,18960
13936,18979
13931,18994
13923,19008
13913,19020
13901,19030
13887,19038
13872,19042
13854,19044
13597,19044
13579,19042
13564,19038
13550,19030
13537,19020
13527,19008
13520,18994
13515,18979
13513,18960
13513,18537
13515,18518
13520,18503
13527,18489
13537,18477
13550,18467
13564,18459
13579,18455
13597,18453
13854,18453
13872,18455
Z" /> 
<path style="fill:#840084; fill-opacity:1.0; 
stroke:#840084; stroke-width:0; stroke-opacity:1; 
stroke-linecap:round; stroke-linejoin:round;fill-rule:evenodd;"
d="M 12057,18934
11013,18934
11013,18414
12057,18414
12057,18934
Z" /> 
<path style="fill:#840084; fill-opacity:1.0; 
stroke:#840084; stroke-width:0; stroke-opacity:1; 
stroke-linecap:round; stroke-linejoin:round;fill-rule:evenodd;"
d="M 10012,18149
10025,18153
10037,18160
10048,18169
10057,18180
10064,18192
10068,18205
10069,18222
10069,18488
10068,18504
10064,18518
10057,18530
10048,18541
10037,18550
10025,18556
10012,18560
9995,18562
9759,18562
9742,18560
9729,18556
9717,18550
9706,18541
9697,18530
9690,18518
9686,18504
9685,18488
9685,18222
9686,18205
9690,18192
9697,18180
9706,18169
9717,18160
9729,18153
9742,18149
9759,18148
9995,18148
10012,18149
Z" /> 
<path style="fill:#840084; fill-opacity:1.0; 
stroke:#840084; stroke-width:0; stroke-opacity:1; 
stroke-linecap:round; stroke-linejoin:round;fill-rule:evenodd;"
d="M 9392,18149
9405,18153
9417,18160
9428,18169
9437,18180
9444,18192
9448,18205
9449,18222
9449,18488
9448,18504
9444,18518
9437,18530
9428,18541
9417,18550
9405,18556
9392,18560
9375,18562
9139,18562
9122,18560
9109,18556
9096,18550
9086,18541
9077,18530
9070,18518
9066,18504
9065,18488
9065,18222
9066,18205
9070,18192
9077,18180
9086,18169
9096,18160
9109,18153
9122,18149
9139,18148
9375,18148
9392,18149
Z" /> 
<path style="fill:#840084; fill-opacity:1.0; 
stroke:#840084; stroke-width:0; stroke-opacity:1; 
stroke-linecap:round; stroke-linejoin:round;fill-rule:evenodd;"
d="M 7653,17342
7663,17345
7671,17349
7679,17355
7685,17363
7689,17371
7692,17381
7693,17393
7693,18107
7692,18119
7689,18128
7685,18136
7679,18144
7671,18150
7663,18154
7653,18157
7641,18158
7449,18158
7437,18157
7428,18154
7419,18150
7412,18144
7406,18136
7401,18128
7398,18119
7397,18107
7397,17393
7398,17381
7401,17371
7406,17363
7412,17355
7419,17349
7428,17345
7437,17342
7449,17341
7641,17341
7653,17342
Z" /> 
<path style="fill:#840084; fill-opacity:1.0; 
stroke:#840084; stroke-width:0; stroke-opacity:1; 
stroke-linecap:round; stroke-linejoin:round;fill-rule:evenodd;"
d="M 8653,17342
8663,17345
8671,17349
8679,17355
8685,17363
8689,17371
8692,17381
8693,17393
8693,18107
8692,18119
8689,18128
8685,18136
8679,18144
8671,18150
8663,18154
8653,18157
8641,18158
8449,18158
8437,18157
8428,18154
8419,18150
8412,18144
8406,18136
8401,18128
8398,18119
8397,18107
8397,17393
8398,17381
8401,17371
8406,17363
8412,17355
8419,17349
8428,17345
8437,17342
8449,17341
8641,17341
8653,17342
Z" /> 
<path style="fill:#840084; fill-opacity:1.0; 
stroke:#840084; stroke-width:0; stroke-opacity:1; 
stroke-linecap:round; stroke-linejoin:round;fill-rule:evenodd;"
d="M 8153,17342
8163,17345
8171,17349
8179,17355
8185,17363
8189,17371
8192,17381
8193,17393
8193,18107
8192,18119
8189,18128
8185,18136
8179,18144
8171,18150
8163,18154
8153,18157
8141,18158
7949,18158
7937,18157
7928,18154
7919,18150
7912,18144
7906,18136
7901,18128
7898,18119
7897,18107
7897,17393
7898,17381
7901,17371
7906,17363
7912,17355
7919,17349
7928,17345
7937,17342
7949,17341
8141,17341
8153,17342
Z" /> 
<path style="fill:#840084; fill-opacity:1.0; 
stroke:#840084; stroke-width:0; stroke-opacity:1; 
stroke-linecap:round; stroke-linejoin:round;fill-rule:evenodd;"
d="M 7153,17342
7163,17345
7171,17349
7179,17355
7185,17363
7189,17371
7192,17381
7193,17393
7193,18107
7192,18119
7189,18128
7185,18136
7179,18144
7171,18150
7163,18154
7153,18157
7141,18158
6949,18158
6937,18157
6928,18154
6919,18150
6912,18144
6906,18136
6901,18128
6898,18119
6897,18107
6897,17393
6898,17381
6901,17371
6906,17363
6912,17355
6919,17349
6928,17345
6937,17342
6949,17341
7141,17341
7153,17342
Z" /> 
<path style="fill:#840084; fill-opacity:1.0; 
stroke:#840084; stroke-width:0; stroke-opacity:1; 
stroke-linecap:round; stroke-linejoin:round;fill-rule:evenodd;"
d="M 12057,17902
11761,17902
11761,17382
12057,17382
12057,17902
Z" /> 
<path style="fill:#840084; fill-opacity:1.0; 
stroke:#840084; stroke-width:0; stroke-opacity:1; 
stroke-linecap:round; stroke-linejoin:round;fill-rule:evenodd;"
d="M 11309,17902
11013,17902
11013,17382
11309,17382
11309,17902
Z" /> 
<path style="fill:#840084; fill-opacity:1.0; 
stroke:#840084; stroke-width:0; stroke-opacity:1; 
stroke-linecap:round; stroke-linejoin:round;fill-rule:evenodd;"
d="M 11313,16486
11328,16491
11342,16498
11354,16508
11364,16521
11372,16535
11377,16550
11378,16568
11378,16992
11377,17010
11372,17025
11364,17039
11354,17052
11342,17062
11328,17069
11313,17074
11295,17076
11038,17076
11020,17074
11005,17069
10991,17062
10978,17052
10968,17039
10961,17025
10956,17010
10954,16992
10954,16568
10956,16550
10961,16535
10968,16521
10978,16508
10991,16498
11005,16491
11020,16486
11038,16484
11295,16484
11313,16486
Z" /> 
<path style="fill:#840084; fill-opacity:1.0; 
stroke:#840084; stroke-width:0; stroke-opacity:1; 
stroke-linecap:round; stroke-linejoin:round;fill-rule:evenodd;"
d="M 12051,16486
12066,16491
12080,16498
12092,16508
12103,16521
12110,16535
12115,16550
12117,16568
12117,16992
12115,17010
12110,17025
12103,17039
12092,17052
12080,17062
12066,17069
12051,17074
12033,17076
11776,17076
11758,17074
11743,17069
11729,17062
11716,17052
11706,17039
11699,17025
11694,17010
11692,16992
11692,16568
11694,16550
11699,16535
11706,16521
11716,16508
11729,16498
11743,16491
11758,16486
11776,16484
12033,16484
12051,16486
Z" /> 
<path style="fill:#840084; fill-opacity:1.0; 
stroke:#840084; stroke-width:0; stroke-opacity:1; 
stroke-linecap:round; stroke-linejoin:round;fill-rule:evenodd;"
d="M 8535,15325
8549,15329
8561,15335
8572,15344
8581,15355
8587,15367
8591,15381
8593,15397
8593,15634
8591,15650
8587,15663
8581,15676
8572,15686
8561,15695
8549,15702
8535,15706
8519,15708
8253,15708
8236,15706
8223,15702
8211,15695
8200,15686
8191,15676
8184,15663
8180,15650
8179,15634
8179,15397
8180,15381
8184,15367
8191,15355
8200,15344
8211,15335
8223,15329
8236,15325
8253,15323
8519,15323
8535,15325
Z" /> 
<path style="fill:#840084; fill-opacity:1.0; 
stroke:#840084; stroke-width:0; stroke-opacity:1; 
stroke-linecap:round; stroke-linejoin:round;fill-rule:evenodd;"
d="M 4273,15197
4287,15201
4299,15207
4310,15216
4319,15227
4325,15239
4329,15253
4331,15269
4331,15535
4329,15552
4325,15565
4319,15577
4310,15588
4299,15597
4287,15604
4273,15608
4257,15609
4020,15609
4004,15608
3991,15604
3978,15597
3968,15588
3959,15577
3952,15565
3948,15552
3946,15535
3946,15269
3948,15253
3952,15239
3959,15227
3968,15216
3978,15207
3991,15201
4004,15197
4020,15195
4257,15195
4273,15197
Z" /> 
<path style="fill:#840084; fill-opacity:1.0; 
stroke:#840084; stroke-width:0; stroke-opacity:1; 
stroke-linecap:round; stroke-linejoin:round;fill-rule:evenodd;"
d="M 4894,15197
4907,15201
4919,15207
4930,15216
4939,15227
4945,15239
4950,15253
4951,15269
4951,15535
4950,15552
4945,15565
4939,15577
4930,15588
4919,15597
4907,15604
4894,15608
4877,15609
4640,15609
4624,15608
4611,15604
4598,15597
4588,15588
4579,15577
4572,15565
4568,15552
4567,15535
4567,15269
4568,15253
4572,15239
4579,15227
4588,15216
4598,15207
4611,15201
4624,15197
4640,15195
4877,15195
4894,15197
Z" /> 
<path style="fill:#840084; fill-opacity:1.0; 
stroke:#840084; stroke-width:0; stroke-opacity:1; 
stroke-linecap:round; stroke-linejoin:round;fill-rule:evenodd;"
d="M 6703,15501
5738,15501
5738,15028
6703,15028
6703,15501
Z" /> 
<path style="fill:#840084; fill-opacity:1.0; 
stroke:#840084; stroke-width:0; stroke-opacity:1; 
stroke-linecap:round; stroke-linejoin:round;fill-rule:evenodd;"
d="M 8535,14705
8549,14709
8561,14715
8572,14724
8581,14735
8587,14747
8591,14761
8593,14777
8593,15014
8591,15030
8587,15043
8581,15056
8572,15066
8561,15075
8549,15082
8535,15086
8519,15088
8253,15088
8236,15086
8223,15082
8211,15075
8200,15066
8191,15056
8184,15043
8180,15030
8179,15014
8179,14777
8180,14761
8184,14747
8191,14735
8200,14724
8211,14715
8223,14709
8236,14705
8253,14703
8519,14703
8535,14705
Z" /> 
<path style="fill:#840084; fill-opacity:1.0; 
stroke:#840084; stroke-width:0; stroke-opacity:1; 
stroke-linecap:round; stroke-linejoin:round;fill-rule:evenodd;"
d="M 4273,14409
4287,14413
4299,14420
4310,14429
4319,14440
4325,14452
4329,14465
4331,14482
4331,14748
4329,14764
4325,14778
4319,14790
4310,14801
4299,14810
4287,14816
4273,14820
4257,14822
4020,14822
4004,14820
3991,14816
3978,14810
3968,14801
3959,14790
3952,14778
3948,14764
3946,14748
3946,14482
3948,14465
3952,14452
3959,14440
3968,14429
3978,14420
3991,14413
4004,14409
4020,14408
4257,14408
4273,14409
Z" /> 
<path style="fill:#840084; fill-opacity:1.0; 
stroke:#840084; stroke-width:0; stroke-opacity:1; 
stroke-linecap:round; stroke-linejoin:round;fill-rule:evenodd;"
d="M 4894,14409
4907,14413
4919,14420
4930,14429
4939,14440
4945,14452
4950,14465
4951,14482
4951,14748
4950,14764
4945,14778
4939,14790
4930,14801
4919,14810
4907,14816
4894,14820
4877,14822
4640,14822
4624,14820
4611,14816
4598,14810
4588,14801
4579,14790
4572,14778
4568,14764
4567,14748
4567,14482
4568,14465
4572,14452
4579,14440
4588,14429
4598,14420
4611,14413
4624,14409
4640,14408
4877,14408
4894,14409
Z" /> 
<path style="fill:#840084; fill-opacity:1.0; 
stroke:#840084; stroke-width:0; stroke-opacity:1; 
stroke-linecap:round; stroke-linejoin:round;fill-rule:evenodd;"
d="M 4273,13622
4287,13626
4299,13632
4310,13641
4319,13652
4325,13664
4329,13678
4331,13694
4331,13960
4329,13977
4325,13990
4319,14002
4310,14013
4299,14022
4287,14029
4273,14033
4257,14034
4020,14034
4004,14033
3991,14029
3978,14022
3968,14013
3959,14002
3952,13990
3948,13977
3946,13960
3946,13694
3948,13678
3952,13664
3959,13652
3968,13641
3978,13632
3991,13626
4004,13622
4020,13620
4257,13620
4273,13622
Z" /> 
<path style="fill:#840084; fill-opacity:1.0; 
stroke:#840084; stroke-width:0; stroke-opacity:1; 
stroke-linecap:round; stroke-linejoin:round;fill-rule:evenodd;"
d="M 4894,13622
4907,13626
4919,13632
4930,13641
4939,13652
4945,13664
4950,13678
4951,13694
4951,13960
4950,13977
4945,13990
4939,14002
4930,14013
4919,14022
4907,14029
4894,14033
4877,14034
4640,14034
4624,14033
4611,14029
4598,14022
4588,14013
4579,14002
4572,13990
4568,13977
4567,13960
4567,13694
4568,13678
4572,13664
4579,13652
4588,13641
4598,13632
4611,13626
4624,13622
4640,13620
4877,13620
4894,13622
Z" /> 
<path style="fill:#840084; fill-opacity:1.0; 
stroke:#840084; stroke-width:0; stroke-opacity:1; 
stroke-linecap:round; stroke-linejoin:round;fill-rule:evenodd;"
d="M 6703,13808
5738,13808
5738,13335
6703,13335
6703,13808
Z" /> 
<path style="fill:#840084; fill-opacity:1.0; 
stroke:#840084; stroke-width:0; stroke-opacity:1; 
stroke-linecap:round; stroke-linejoin:round;fill-rule:evenodd;"
d="M 13837,9776
13837,9776
13837,9776
14045,9862
14232,9987
14391,10146
14516,10334
14516,10334
14602,10541
14646,10762
14646,10987
14602,11208
14602,11208
14516,11416
14391,11603
14232,11762
14045,11887
14045,11887
14045,11887
13837,11973
13616,12017
13391,12017
13171,11973
12963,11887
12963,11887
12963,11887
12776,11762
12617,11603
12492,11416
12406,11208
12406,11208
12362,10987
12362,10762
12406,10541
12492,10334
12492,10334
12617,10146
12776,9987
12963,9862
13171,9776
13171,9776
13171,9776
13391,9732
13616,9732
13837,9776
Z" /> 
<path style="fill:#840084; fill-opacity:1.0; 
stroke:#840084; stroke-width:0; stroke-opacity:1; 
stroke-linecap:round; stroke-linejoin:round;fill-rule:evenodd;"
d="M 11685,11800
10425,11800
10425,11288
11685,11288
11685,11800
Z" /> 
<path style="fill:#840084; fill-opacity:1.0; 
stroke:#840084; stroke-width:0; stroke-opacity:1; 
stroke-linecap:round; stroke-linejoin:round;fill-rule:evenodd;"
d="M 16583,11800
15322,11800
15322,11288
16583,11288
16583,11800
Z" /> 
<path style="fill:#840084; fill-opacity:1.0; 
stroke:#840084; stroke-width:0; stroke-opacity:1; 
stroke-linecap:round; stroke-linejoin:round;fill-rule:evenodd;"
d="M 6654,11662
6181,11662
6181,11189
6654,11189
6654,11662
Z" /> 
<path style="fill:#840084; fill-opacity:1.0; 
stroke:#840084; stroke-width:0; stroke-opacity:1; 
stroke-linecap:round; stroke-linejoin:round;fill-rule:evenodd;"
d="M 16583,11131
15322,11131
15322,10618
16583,10618
16583,11131
Z" /> 
<path style="fill:#840084; fill-opacity:1.0; 
stroke:#840084; stroke-width:0; stroke-opacity:1; 
stroke-linecap:round; stroke-linejoin:round;fill-rule:evenodd;"
d="M 11685,11131
10425,11131
10425,10618
11685,10618
11685,11131
Z" /> 
<path style="fill:#840084; fill-opacity:1.0; 
stroke:#840084; stroke-width:0; stroke-opacity:1; 
stroke-linecap:round; stroke-linejoin:round;fill-rule:evenodd;"
d="M 6654,10560
6181,10560
6181,10087
6654,10087
6654,10560
Z" /> 
<path style="fill:#840084; fill-opacity:1.0; 
stroke:#840084; stroke-width:0; stroke-opacity:1; 
stroke-linecap:round; stroke-linejoin:round;fill-rule:evenodd;"
d="M 5555,9892
5570,9896
5584,9904
5596,9914
5607,9926
5614,9940
5619,9955
5620,9974
5620,10397
5619,10416
5614,10431
5607,10445
5596,10457
5584,10467
5570,10475
5555,10479
5537,10481
5280,10481
5262,10479
5247,10475
5233,10467
5220,10457
5210,10445
5203,10431
5198,10416
5196,10397
5196,9974
5198,9955
5203,9940
5210,9926
5220,9914
5233,9904
5247,9896
5262,9892
5280,9890
5537,9890
5555,9892
Z" /> 
<path style="fill:#840084; fill-opacity:1.0; 
stroke:#840084; stroke-width:0; stroke-opacity:1; 
stroke-linecap:round; stroke-linejoin:round;fill-rule:evenodd;"
d="M 4817,9892
4832,9896
4846,9904
4858,9914
4868,9926
4876,9940
4880,9955
4882,9974
4882,10397
4880,10416
4876,10431
4868,10445
4858,10457
4846,10467
4832,10475
4817,10479
4798,10481
4542,10481
4524,10479
4509,10475
4495,10467
4482,10457
4472,10445
4465,10431
4460,10416
4458,10397
4458,9974
4460,9955
4465,9940
4472,9926
4482,9914
4495,9904
4509,9896
4524,9892
4542,9890
4798,9890
4817,9892
Z" /> 
<path style="fill:#840084; fill-opacity:1.0; 
stroke:#840084; stroke-width:0; stroke-opacity:1; 
stroke-linecap:round; stroke-linejoin:round;fill-rule:evenodd;"
d="M 11685,10462
10425,10462
10425,9949
11685,9949
11685,10462
Z" /> 
<path style="fill:#840084; fill-opacity:1.0; 
stroke:#840084; stroke-width:0; stroke-opacity:1; 
stroke-linecap:round; stroke-linejoin:round;fill-rule:evenodd;"
d="M 16583,10462
15322,10462
15322,9949
16583,9949
16583,10462
Z" /> 
<path style="fill:#840084; fill-opacity:1.0; 
stroke:#840084; stroke-width:0; stroke-opacity:1; 
stroke-linecap:round; stroke-linejoin:round;fill-rule:evenodd;"
d="M 6451,9262
6466,9266
6480,9274
6492,9284
6502,9296
6510,9310
6514,9326
6516,9344
6516,9600
6514,9618
6510,9634
6502,9648
6492,9660
6480,9670
6466,9678
6451,9682
6432,9684
6009,9684
5990,9682
5975,9678
5961,9670
5949,9660
5939,9648
5931,9634
5927,9618
5925,9600
5925,9344
5927,9326
5931,9310
5939,9296
5949,9284
5961,9274
5975,9266
5990,9262
6009,9260
6432,9260
6451,9262
Z" /> 
<path style="fill:#840084; fill-opacity:1.0; 
stroke:#840084; stroke-width:0; stroke-opacity:1; 
stroke-linecap:round; stroke-linejoin:round;fill-rule:evenodd;"
d="M 4794,9556
4537,9556
4537,9201
4794,9201
4794,9556
Z" /> 
<path style="fill:#840084; fill-opacity:1.0; 
stroke:#840084; stroke-width:0; stroke-opacity:1; 
stroke-linecap:round; stroke-linejoin:round;fill-rule:evenodd;"
d="M 5542,9556
5285,9556
5285,9201
5542,9201
5542,9556
Z" /> 
<path style="fill:#840084; fill-opacity:1.0; 
stroke:#840084; stroke-width:0; stroke-opacity:1; 
stroke-linecap:round; stroke-linejoin:round;fill-rule:evenodd;"
d="M 6451,8524
6466,8528
6480,8536
6492,8546
6502,8558
6510,8572
6514,8587
6516,8606
6516,8862
6514,8880
6510,8895
6502,8909
6492,8922
6480,8932
6466,8939
6451,8944
6432,8946
6009,8946
5990,8944
5975,8939
5961,8932
5949,8922
5939,8909
5931,8895
5927,8880
5925,8862
5925,8606
5927,8587
5931,8572
5939,8558
5949,8546
5961,8536
5975,8528
5990,8524
6009,8522
6432,8522
6451,8524
Z" /> 
<path style="fill:#840084; fill-opacity:1.0; 
stroke:#840084; stroke-width:0; stroke-opacity:1; 
stroke-linecap:round; stroke-linejoin:round;fill-rule:evenodd;"
d="M 4794,8611
4537,8611
4537,8256
4794,8256
4794,8611
Z" /> 
<path style="fill:#840084; fill-opacity:1.0; 
stroke:#840084; stroke-width:0; stroke-opacity:1; 
stroke-linecap:round; stroke-linejoin:round;fill-rule:evenodd;"
d="M 5542,8611
5285,8611
5285,8256
5542,8256
5542,8611
Z" /> 
<path style="fill:#840084; fill-opacity:1.0; 
stroke:#840084; stroke-width:0; stroke-opacity:1; 
stroke-linecap:round; stroke-linejoin:round;fill-rule:evenodd;"
d="M 5168,8611
4911,8611
4911,8256
5168,8256
5168,8611
Z" /> 
<path style="fill:#840084; fill-opacity:1.0; 
stroke:#840084; stroke-width:0; stroke-opacity:1; 
stroke-linecap:round; stroke-linejoin:round;fill-rule:evenodd;"
d="M 18655,8081
18670,8085
18685,8093
18697,8103
18707,8115
18714,8129
18719,8144
18721,8163
18721,8419
18719,8437
18714,8453
18707,8467
18697,8479
18685,8489
18670,8496
18655,8501
18637,8503
18213,8503
18195,8501
18180,8496
18166,8489
18154,8479
18143,8467
18136,8453
18131,8437
18129,8419
18129,8163
18131,8144
18136,8129
18143,8115
18154,8103
18166,8093
18180,8085
18195,8081
18213,8079
18637,8079
18655,8081
Z" /> 
<path style="fill:#840084; fill-opacity:1.0; 
stroke:#840084; stroke-width:0; stroke-opacity:1; 
stroke-linecap:round; stroke-linejoin:round;fill-rule:evenodd;"
d="M 5040,7922
4370,7922
4370,5559
5040,5559
5040,7922
Z" /> 
<path style="fill:#840084; fill-opacity:1.0; 
stroke:#840084; stroke-width:0; stroke-opacity:1; 
stroke-linecap:round; stroke-linejoin:round;fill-rule:evenodd;"
d="M 6890,7922
6220,7922
6220,5559
6890,5559
6890,7922
Z" /> 
<path style="fill:#840084; fill-opacity:1.0; 
stroke:#840084; stroke-width:0; stroke-opacity:1; 
stroke-linecap:round; stroke-linejoin:round;fill-rule:evenodd;"
d="M 18655,7342
18670,7347
18685,7355
18697,7365
18707,7377
18714,7391
18719,7406
18721,7425
18721,7681
18719,7699
18714,7714
18707,7728
18697,7741
18685,7751
18670,7758
18655,7763
18637,7765
18213,7765
18195,7763
18180,7758
18166,7751
18154,7741
18143,7728
18136,7714
18131,7699
18129,7681
18129,7425
18131,7406
18136,7391
18143,7377
18154,7365
18166,7355
18180,7347
18195,7342
18213,7341
18637,7341
18655,7342
Z" /> 
<path style="fill:#840084; fill-opacity:1.0; 
stroke:#840084; stroke-width:0; stroke-opacity:1; 
stroke-linecap:round; stroke-linejoin:round;fill-rule:evenodd;"
d="M 10197,7528
9724,7528
9724,7055
10197,7055
10197,7528
Z" /> 
<path style="fill:#840084; fill-opacity:1.0; 
stroke:#840084; stroke-width:0; stroke-opacity:1; 
stroke-linecap:round; stroke-linejoin:round;fill-rule:evenodd;"
d="M 18268,6938
17795,6938
17795,6465
18268,6465
18268,6938
Z" /> 
<path style="fill:#840084; fill-opacity:1.0; 
stroke:#840084; stroke-width:0; stroke-opacity:1; 
stroke-linecap:round; stroke-linejoin:round;fill-rule:evenodd;"
d="M 16368,6702
16112,6702
16112,6347
16368,6347
16368,6702
Z" /> 
<path style="fill:#840084; fill-opacity:1.0; 
stroke:#840084; stroke-width:0; stroke-opacity:1; 
stroke-linecap:round; stroke-linejoin:round;fill-rule:evenodd;"
d="M 15620,6702
15364,6702
15364,6347
15620,6347
15620,6702
Z" /> 
<path style="fill:#840084; fill-opacity:1.0; 
stroke:#840084; stroke-width:0; stroke-opacity:1; 
stroke-linecap:round; stroke-linejoin:round;fill-rule:evenodd;"
d="M 9098,6053
9113,6058
9127,6065
9140,6075
9150,6088
9157,6102
9162,6117
9164,6135
9164,6559
9162,6577
9157,6592
9150,6606
9140,6619
9127,6629
9113,6636
9098,6641
9080,6643
8824,6643
8805,6641
8790,6636
8776,6629
8764,6619
8754,6606
8746,6592
8742,6577
8740,6559
8740,6135
8742,6117
8746,6102
8754,6088
8764,6075
8776,6065
8790,6058
8805,6053
8824,6051
9080,6051
9098,6053
Z" /> 
<path style="fill:#840084; fill-opacity:1.0; 
stroke:#840084; stroke-width:0; stroke-opacity:1; 
stroke-linecap:round; stroke-linejoin:round;fill-rule:evenodd;"
d="M 8360,6053
8375,6058
8389,6065
8402,6075
8412,6088
8419,6102
8424,6117
8426,6135
8426,6559
8424,6577
8419,6592
8412,6606
8402,6619
8389,6629
8375,6636
8360,6641
8342,6643
8085,6643
8067,6641
8052,6636
8038,6629
8026,6619
8015,6606
8008,6592
8003,6577
8002,6559
8002,6135
8003,6117
8008,6102
8015,6088
8026,6075
8038,6065
8052,6058
8067,6053
8085,6051
8342,6051
8360,6053
Z" /> 
<path style="fill:#840084; fill-opacity:1.0; 
stroke:#840084; stroke-width:0; stroke-opacity:1; 
stroke-linecap:round; stroke-linejoin:round;fill-rule:evenodd;"
d="M 17277,6112
17293,6117
17307,6124
17319,6134
17329,6147
17336,6161
17341,6176
17343,6194
17343,6451
17341,6469
17336,6484
17329,6498
17319,6510
17307,6520
17293,6528
17277,6533
17259,6534
16835,6534
16817,6533
16802,6528
16788,6520
16776,6510
16765,6498
16758,6484
16753,6469
16752,6451
16752,6194
16753,6176
16758,6161
16765,6147
16776,6134
16788,6124
16802,6117
16817,6112
16835,6110
17259,6110
17277,6112
Z" /> 
<path style="fill:#840084; fill-opacity:1.0; 
stroke:#840084; stroke-width:0; stroke-opacity:1; 
stroke-linecap:round; stroke-linejoin:round;fill-rule:evenodd;"
d="M 10197,6426
9724,6426
9724,5953
10197,5953
10197,6426
Z" /> 
<path style="fill:#840084; fill-opacity:1.0; 
stroke:#840084; stroke-width:0; stroke-opacity:1; 
stroke-linecap:round; stroke-linejoin:round;fill-rule:evenodd;"
d="M 18268,5836
17795,5836
17795,5362
18268,5362
18268,5836
Z" /> 
<path style="fill:#840084; fill-opacity:1.0; 
stroke:#840084; stroke-width:0; stroke-opacity:1; 
stroke-linecap:round; stroke-linejoin:round;fill-rule:evenodd;"
d="M 17277,5374
17293,5379
17307,5386
17319,5396
17329,5408
17336,5423
17341,5438
17343,5456
17343,5712
17341,5731
17336,5746
17329,5760
17319,5772
17307,5782
17293,5790
17277,5794
17259,5796
16835,5796
16817,5794
16802,5790
16788,5782
16776,5772
16765,5760
16758,5746
16753,5731
16752,5712
16752,5456
16753,5438
16758,5423
16765,5408
16776,5396
16788,5386
16802,5379
16817,5374
16835,5372
17259,5372
17277,5374
Z" /> 
<path style="fill:#840084; fill-opacity:1.0; 
stroke:#840084; stroke-width:0; stroke-opacity:1; 
stroke-linecap:round; stroke-linejoin:round;fill-rule:evenodd;"
d="M 16368,5757
16112,5757
16112,5402
16368,5402
16368,5757
Z" /> 
<path style="fill:#840084; fill-opacity:1.0; 
stroke:#840084; stroke-width:0; stroke-opacity:1; 
stroke-linecap:round; stroke-linejoin:round;fill-rule:evenodd;"
d="M 15620,5757
15364,5757
15364,5402
15620,5402
15620,5757
Z" /> 
<path style="fill:#840084; fill-opacity:1.0; 
stroke:#840084; stroke-width:0; stroke-opacity:1; 
stroke-linecap:round; stroke-linejoin:round;fill-rule:evenodd;"
d="M 15994,5757
15738,5757
15738,5402
15994,5402
15994,5757
Z" /> 
<path style="fill:#840084; fill-opacity:1.0; 
stroke:#840084; stroke-width:0; stroke-opacity:1; 
stroke-linecap:round; stroke-linejoin:round;fill-rule:evenodd;"
d="M 9994,5325
10009,5329
10023,5337
10035,5347
10046,5359
10053,5373
10058,5389
10059,5407
10059,5663
10058,5681
10053,5697
10046,5711
10035,5723
10023,5733
10009,5741
9994,5745
9976,5747
9552,5747
9534,5745
9518,5741
9504,5733
9492,5723
9482,5711
9474,5697
9470,5681
9468,5663
9468,5407
9470,5389
9474,5373
9482,5359
9492,5347
9504,5337
9518,5329
9534,5325
9552,5323
9976,5323
9994,5325
Z" /> 
<path style="fill:#840084; fill-opacity:1.0; 
stroke:#840084; stroke-width:0; stroke-opacity:1; 
stroke-linecap:round; stroke-linejoin:round;fill-rule:evenodd;"
d="M 9085,5619
8828,5619
8828,5264
9085,5264
9085,5619
Z" /> 
<path style="fill:#840084; fill-opacity:1.0; 
stroke:#840084; stroke-width:0; stroke-opacity:1; 
stroke-linecap:round; stroke-linejoin:round;fill-rule:evenodd;"
d="M 8337,5619
8080,5619
8080,5264
8337,5264
8337,5619
Z" /> 
<path style="fill:#840084; fill-opacity:1.0; 
stroke:#840084; stroke-width:0; stroke-opacity:1; 
stroke-linecap:round; stroke-linejoin:round;fill-rule:evenodd;"
d="M 17520,5068
16850,5068
16850,2705
17520,2705
17520,5068
Z" /> 
<path style="fill:#840084; fill-opacity:1.0; 
stroke:#840084; stroke-width:0; stroke-opacity:1; 
stroke-linecap:round; stroke-linejoin:round;fill-rule:evenodd;"
d="M 15670,5068
15000,5068
15000,2705
15670,2705
15670,5068
Z" /> 
<path style="fill:#840084; fill-opacity:1.0; 
stroke:#840084; stroke-width:0; stroke-opacity:1; 
stroke-linecap:round; stroke-linejoin:round;fill-rule:evenodd;"
d="M 9994,4587
10009,4591
10023,4599
10035,4609
10046,4621
10053,4635
10058,4650
10059,4669
10059,4925
10058,4943
10053,4958
10046,4972
10035,4985
10023,4995
10009,5002
9994,5007
9976,5009
9552,5009
9534,5007
9518,5002
9504,4995
9492,4985
9482,4972
9474,4958
9470,4943
9468,4925
9468,4669
9470,4650
9474,4635
9482,4621
9492,4609
9504,4599
9518,4591
9534,4587
9552,4585
9976,4585
9994,4587
Z" /> 
<path style="fill:#840084; fill-opacity:1.0; 
stroke:#840084; stroke-width:0; stroke-opacity:1; 
stroke-linecap:round; stroke-linejoin:round;fill-rule:evenodd;"
d="M 8337,4674
8080,4674
8080,4319
8337,4319
8337,4674
Z" /> 
<path style="fill:#840084; fill-opacity:1.0; 
stroke:#840084; stroke-width:0; stroke-opacity:1; 
stroke-linecap:round; stroke-linejoin:round;fill-rule:evenodd;"
d="M 9085,4674
8828,4674
8828,4319
9085,4319
9085,4674
Z" /> 
<path style="fill:#840084; fill-opacity:1.0; 
stroke:#840084; stroke-width:0; stroke-opacity:1; 
stroke-linecap:round; stroke-linejoin:round;fill-rule:evenodd;"
d="M 8711,4674
8454,4674
8454,4319
8711,4319
8711,4674
Z" /> 
<path style="fill:#840084; fill-opacity:1.0; 
stroke:#840084; stroke-width:0; stroke-opacity:1; 
stroke-linecap:round; stroke-linejoin:round;fill-rule:evenodd;"
d="M 10433,3985
9763,3985
9763,1622
10433,1622
10433,3985
Z" /> 
<path style="fill:#840084; fill-opacity:1.0; 
stroke:#840084; stroke-width:0; stroke-opacity:1; 
stroke-linecap:round; stroke-linejoin:round;fill-rule:evenodd;"
d="M 8583,3985
7913,3985
7913,1622
8583,1622
8583,3985
Z" /> 
<path style="fill:#840084; fill-opacity:1.0; 
stroke:#840084; stroke-width:0; stroke-opacity:1; 
stroke-linecap:round; stroke-linejoin:round;fill-rule:evenodd;"
d="M 22094,1873
22129,1880
22171,1897
22230,1921
22230,1921
22320,1982
22397,2058
22435,2116
22457,2149
22499,2249
22520,2356
22520,2464
22499,2571
22457,2671
22457,2671
22397,2762
22320,2838
22260,2879
22230,2899
22171,2923
22129,2940
22094,2947
22023,2962
21914,2962
21843,2947
21808,2940
21766,2923
21707,2899
21677,2879
21617,2838
21540,2762
21480,2671
21480,2671
21438,2571
21417,2464
21417,2356
21438,2249
21480,2149
21502,2116
21540,2058
21617,1982
21707,1921
21707,1921
21766,1897
21808,1880
21843,1873
21914,1858
22023,1858
22094,1873
Z" /> 
<path style="fill:#840084; fill-opacity:1.0; 
stroke:#840084; stroke-width:0; stroke-opacity:1; 
stroke-linecap:round; stroke-linejoin:round;fill-rule:evenodd;"
d="M 5165,1873
5200,1880
5242,1897
5301,1921
5301,1921
5391,1982
5468,2058
5506,2116
5528,2149
5570,2249
5591,2356
5591,2464
5570,2571
5528,2671
5528,2671
5468,2762
5391,2838
5331,2879
5301,2899
5242,2923
5200,2940
5165,2947
5094,2962
4985,2962
4914,2947
4878,2940
4837,2923
4778,2899
4748,2879
4688,2838
4611,2762
4551,2671
4551,2671
4509,2571
4488,2464
4488,2356
4509,2249
4551,2149
4573,2116
4611,2058
4688,1982
4778,1921
4778,1921
4837,1897
4878,1880
4914,1873
4985,1858
5094,1858
5165,1873
Z" /> 
<path style="fill:#840084; fill-opacity:1.0; 
stroke:#840084; stroke-width:0; stroke-opacity:1; 
stroke-linecap:round; stroke-linejoin:round;fill-rule:evenodd;"
d="M 13532,1467
13558,1470
13625,1490
13686,1523
13700,1535
13740,1567
13773,1607
13785,1621
13817,1683
13838,1750
13845,1819
13838,1889
13817,1956
13785,2017
13773,2032
13740,2071
13700,2104
13686,2116
13625,2149
13558,2169
13532,2172
13506,2174
13471,2174
13445,2172
13419,2169
13352,2149
13290,2116
13276,2104
13236,2071
13203,2032
13192,2017
13159,1956
13139,1889
13132,1819
13139,1750
13159,1683
13192,1621
13203,1607
13236,1567
13276,1535
13290,1523
13352,1490
13419,1470
13445,1467
13471,1465
13506,1465
13532,1467
Z" /> 
<path style="fill:#840084; fill-opacity:1.0; 
stroke:#840084; stroke-width:0; stroke-opacity:1; 
stroke-linecap:round; stroke-linejoin:round;fill-rule:evenodd;"
d="M 14843,2174
14133,2174
14133,1465
14843,1465
14843,2174
Z" /> 
<path style="fill:#840084; fill-opacity:1.0; 
stroke:#840084; stroke-width:0; stroke-opacity:1; 
stroke-linecap:round; stroke-linejoin:round;fill-rule:evenodd;"
d="M 12532,1467
12558,1470
12625,1490
12686,1523
12700,1535
12740,1567
12773,1607
12785,1621
12817,1683
12838,1750
12845,1819
12838,1889
12817,1956
12785,2017
12773,2032
12740,2071
12700,2104
12686,2116
12625,2149
12558,2169
12532,2172
12506,2174
12471,2174
12445,2172
12419,2169
12352,2149
12290,2116
12276,2104
12236,2071
12203,2032
12192,2017
12159,1956
12139,1889
12132,1819
12139,1750
12159,1683
12192,1621
12203,1607
12236,1567
12276,1535
12290,1523
12352,1490
12419,1470
12445,1467
12471,1465
12506,1465
12532,1467
Z" /> 
</g>
<g style="fill:#000000; fill-opacity:1.0; 
stroke:#000000; stroke-width:0; stroke-opacity:1; 
stroke-linecap:round; stroke-linejoin:round;">
</g>
<g style="fill:#FFEF00; fill-opacity:1.0; 
stroke:#FFEF00; stroke-width:0; stroke-opacity:1; 
stroke-linecap:round; stroke-linejoin:round;">
</g>
<g style="fill:#FFEF00; fill-opacity:1.0; 
stroke:#FFEF00; stroke-width:39.3701; stroke-opacity:1; 
stroke-linecap:round; stroke-linejoin:round;">
</g>
<g style="fill:#FFEF00; fill-opacity:0.0; 
stroke:#FFEF00; stroke-width:39.3701; stroke-opacity:1; 
stroke-linecap:round; stroke-linejoin:round;">
<path d="M17677 6701
L17677 5599
" />
<path d="M17677 5599
L18386 5599
" />
<path d="M18386 5599
L18386 6701
" />
<path d="M18386 6701
L17677 6701
" />
<path d="M18031 6445
L18031 6288
" />
<path d="M18031 6288
L17815 6288
" />
<path d="M18031 6288
L18248 6288
" />
<path d="M18031 6288
L17874 6052
" />
<path d="M17874 6052
L18189 6052
" />
<path d="M18189 6052
L18031 6288
" />
<path d="M18031 6052
L18031 5855
" />
<path d="M9606 7292
L9606 6190
" />
<path d="M9606 6190
L10315 6190
" />
<path d="M10315 6190
L10315 7292
" />
<path d="M10315 7292
L9606 7292
" />
<path d="M9961 7036
L9961 6878
" />
<path d="M9961 6878
L9744 6878
" />
<path d="M9961 6878
L10177 6878
" />
<path d="M9961 6878
L9803 6642
" />
<path d="M9803 6642
L10118 6642
" />
<path d="M10118 6642
L9961 6878
" />
<path d="M9961 6642
L9961 6445
" />
<path d="M6063 11426
L6063 10323
" />
<path d="M6063 10323
L6772 10323
" />
<path d="M6772 10323
L6772 11426
" />
<path d="M6772 11426
L6063 11426
" />
<path d="M6417 11170
L6417 11012
" />
<path d="M6417 11012
L6201 11012
" />
<path d="M6417 11012
L6634 11012
" />
<path d="M6417 11012
L6260 10776
" />
<path d="M6260 10776
L6575 10776
" />
<path d="M6575 10776
L6417 11012
" />
<path d="M6417 10776
L6417 10579
" />
<path d="M14931.7 10209.5 A1574.8 1574.8 0.0 0 0 13504.4 9300.24 " />
<path d="M13504.4 9300.24 A1574.8 1574.8 0.0 0 0 12077.1 10209.5 " />
<path d="M12077.1 11540.6 A1574.8 1574.8 0.0 0 0 13504.4 12449.9 " />
<path d="M13504.4 12449.9 A1574.8 1574.8 0.0 0 0 14931.7 11540.6 " />
<path d="M12087 11583
L12087 10166
" />
<path d="M14921 10166
L14921 11583
" />
<path d="M12087 10205
L11063 10205
" />
<path d="M11063 10875
L12087 10875
" />
<path d="M12087 11544
L11063 11544
" />
<path d="M14921 11544
L15984 11544
" />
<path d="M15984 10875
L14921 10875
" />
<path d="M14921 10205
L15984 10205
" />
<path d="M4646 9949
L5433 9949
" />
<path d="M4646 10422
L4646 9949
" />
<path d="M5433 10422
L4646 10422
" />
<path d="M5433 9949
L5433 10422
" />
<path d="M6457 8709
L6457 9497
" />
<path d="M5984 8709
L6457 8709
" />
<path d="M5984 9497
L5984 8709
" />
<path d="M6457 9497
L5984 9497
" />
<path d="M10965 17812
L12106 17812
" />
<path d="M12106 17812
L12106 18504
" />
<path d="M11142 18504
L12106 18504
" />
<path d="M10965 17812
L10965 18327
" />
<path d="M11142 18504
L10965 18327
" />
<path d="M18189 8315
L18189 7528
" />
<path d="M18661 8315
L18189 8315
" />
<path d="M18661 7528
L18661 8315
" />
<path d="M18189 7528
L18661 7528
" />
<path d="M8189 6111
L8976 6111
" />
<path d="M8189 6583
L8189 6111
" />
<path d="M8976 6583
L8189 6583
" />
<path d="M8976 6111
L8976 6583
" />
<path d="M15472 5067
L16260 5067
" />
<path d="M15079 4674
L15472 5067
" />
<path d="M15079 3886
L15079 4674
" />
<path d="M17047 5067
L16260 5067
" />
<path d="M17441 4674
L17047 5067
" />
<path d="M17441 3886
L17441 4674
" />
<path d="M17047 2705
L16260 2705
" />
<path d="M17441 3099
L17047 2705
" />
<path d="M17441 3886
L17441 3099
" />
<path d="M15472 2705
L16260 2705
" />
<path d="M15079 3099
L15472 2705
" />
<path d="M15079 3886
L15079 3099
" />
<path d="M9961 1623
L9173 1623
" />
<path d="M10354 2016
L9961 1623
" />
<path d="M10354 2804
L10354 2016
" />
<path d="M8386 1623
L9173 1623
" />
<path d="M7992 2016
L8386 1623
" />
<path d="M7992 2804
L7992 2016
" />
<path d="M8386 3985
L9173 3985
" />
<path d="M7992 3591
L8386 3985
" />
<path d="M7992 2804
L7992 3591
" />
<path d="M9961 3985
L9173 3985
" />
<path d="M10354 3591
L9961 3985
" />
<path d="M10354 2804
L10354 3591
" />
<path d="M6417 5560
L5630 5560
" />
<path d="M6811 5953
L6417 5560
" />
<path d="M6811 6741
L6811 5953
" />
<path d="M4842 5560
L5630 5560
" />
<path d="M4449 5953
L4842 5560
" />
<path d="M4449 6741
L4449 5953
" />
<path d="M4842 7922
L5630 7922
" />
<path d="M4449 7528
L4842 7922
" />
<path d="M4449 6741
L4449 7528
" />
<path d="M6417 7922
L5630 7922
" />
<path d="M6811 7528
L6417 7922
" />
<path d="M6811 6741
L6811 7528
" />
<path d="M17283 5560
L17283 6347
" />
<path d="M16811 5560
L17283 5560
" />
<path d="M16811 6347
L16811 5560
" />
<path d="M17283 6347
L16811 6347
" />
<path d="M11929 17016
L11142 17016
" />
<path d="M11929 16544
L11929 17016
" />
<path d="M11142 16544
L11929 16544
" />
<path d="M11142 17016
L11142 16544
" />
<path d="M10000 4772
L10000 5560
" />
<path d="M9528 4772
L10000 4772
" />
<path d="M9528 5560
L9528 4772
" />
<path d="M10000 5560
L9528 5560
" />
<path d="M9882 20087
L9252 20087
" />
<path d="M9882 19772
L9882 20087
" />
<path d="M9252 19772
L9882 19772
" />
<path d="M9252 20087
L9252 19772
" />
<path d="M8543 15520
L8228 15520
" />
<path d="M8228 15520
L8228 14890
" />
<path d="M8228 14890
L8543 14890
" />
<path d="M8543 14890
L8543 15520
" />
<path d="M14488 18512
L14488 18985
" />
<path d="M14488 18985
L13701 18985
" />
<path d="M13701 18985
L13701 18512
" />
<path d="M13701 18512
L14488 18512
" />
<path d="M12270 20430
L12020 20180
" />
<path d="M15020 20430
L12270 20430
" />
<path d="M15020 19430
L15020 20430
" />
<path d="M12020 19430
L15020 19430
" />
<path d="M12020 20180
L12020 19430
" />
<path d="M14988 1569
L14988 2319
" />
<path d="M14988 2319
L11988 2319
" />
<path d="M11988 2319
L11988 1319
" />
<path d="M11988 1319
L14738 1319
" />
<path d="M14738 1319
L14988 1569
" />
<path d="M9252 18512
L9252 18197
" />
<path d="M9252 18197
L9882 18197
" />
<path d="M9882 18197
L9882 18512
" />
<path d="M9882 18512
L9252 18512
" />
<path d="M9882 18985
L9882 19300
" />
<path d="M9882 19300
L9252 19300
" />
<path d="M9252 19300
L9252 18985
" />
<path d="M9252 18985
L9882 18985
" />
<path d="M4134 15560
L4134 15245
" />
<path d="M4134 15245
L4764 15245
" />
<path d="M4764 15245
L4764 15560
" />
<path d="M4764 15560
L4134 15560
" />
<path d="M4764 14772
L4134 14772
" />
<path d="M4764 14457
L4764 14772
" />
<path d="M4134 14457
L4764 14457
" />
<path d="M4134 14772
L4134 14457
" />
<path d="M4134 13985
L4134 13670
" />
<path d="M4134 13670
L4764 13670
" />
<path d="M4764 13670
L4764 13985
" />
<path d="M4764 13985
L4134 13985
" />
<path d="M8772 18378
L8772 19489
" />
<path d="M8772 19489
L6819 19489
" />
<path d="M6819 19489
L6819 18008
" />
<path d="M6819 18008
L8402 18008
" />
<path d="M8402 18008
L8772 18378
" />
</g>
<g style="fill:#FFEF00; fill-opacity:0.0; 
stroke:#FFEF00; stroke-width:59.0551; stroke-opacity:1; 
stroke-linecap:round; stroke-linejoin:round;">
<path d="M6811 14221
L6811 15008
" />
<path d="M6811 15008
L5630 15008
" />
<path d="M5630 15008
L5630 13827
" />
<path d="M5630 13827
L6417 13827
" />
<path d="M6417 13827
L6811 14221
" />
<g >
</g>
<g >
</g>
<g >
</g>
<g >
</g>
<g >
</g>
<g >
</g>
<g >
</g>
<g >
</g>
<g >
</g>
<g >
</g>
<g >
</g>
<g >
</g>
<g >
</g>
<g >
</g>
<g >
</g>
<g >
</g>
<g >
</g>
<g >
</g>
<g >
</g>
<g >
</g>
<g >
</g>
<g >
</g>
<g >
</g>
<g >
</g>
<g >
</g>
<g >
</g>
<g >
</g>
<g >
</g>
<g >
</g>
<g >
</g>
<g >
</g>
<g >
</g>
<g >
</g>
<g >
</g>
</g>
<g style="fill:#FFEF00; fill-opacity:0.0; 
stroke:#FFEF00; stroke-width:59.0551; stroke-opacity:1; 
stroke-linecap:round; stroke-linejoin:round;">
<path d="M19036 7650
L18643 7650
L18643 7556
L18661 7500
L18699 7462
L18736 7444
L18811 7425
L18868 7425
L18943 7444
L18980 7462
L19018 7500
L19036 7556
L19036 7650
" />
<path d="M19074 7350
L19074 7050
" />
<path d="M19018 6975
L19036 6919
L19036 6825
L19018 6788
L18999 6769
L18961 6750
L18924 6750
L18886 6769
L18868 6788
L18849 6825
L18830 6900
L18811 6938
L18793 6956
L18755 6975
L18718 6975
L18680 6956
L18661 6938
L18643 6900
L18643 6806
L18661 6750
" />
<path d="M19018 6413
L19036 6450
L19036 6525
L19018 6563
L18999 6581
L18961 6600
L18849 6600
L18811 6581
L18793 6563
L18774 6525
L18774 6450
L18793 6413
" />
<path d="M19036 6244
L18643 6244
" />
<path d="M19036 6075
L18830 6075
L18793 6094
L18774 6131
L18774 6188
L18793 6225
L18811 6244
" />
<path d="M19036 5831
L19018 5869
L18999 5888
L18961 5906
L18849 5906
L18811 5888
L18793 5869
L18774 5831
L18774 5775
L18793 5738
L18811 5719
L18849 5700
L18961 5700
L18999 5719
L19018 5738
L19036 5775
L19036 5831
" />
<path d="M18774 5588
L18774 5438
" />
<path d="M18643 5531
L18980 5531
L19018 5513
L19036 5475
L19036 5438
" />
<path d="M18774 5363
L18774 5213
" />
<path d="M18643 5306
L18980 5306
L19018 5288
L19036 5250
L19036 5213
" />
<path d="M19036 5082
L18643 5082
" />
<path d="M18886 5044
L19036 4932
" />
<path d="M18774 4932
L18924 5082
" />
<path d="M18774 4800
L19036 4707
" />
<path d="M18774 4613
L19036 4707
L19130 4744
L19149 4763
L19168 4800
" />
<path d="M17460 6491
L17066 6491
L17066 6397
L17085 6341
L17122 6303
L17160 6285
L17235 6266
L17291 6266
L17366 6285
L17403 6303
L17441 6341
L17460 6397
L17460 6491
" />
<path d="M17197 5928
L17460 5928
" />
<path d="M17047 6022
L17328 6116
L17328 5872
" />
<path d="M10965 8241
L10572 8241
L10572 8147
L10591 8091
L10628 8053
L10666 8034
L10741 8016
L10797 8016
L10872 8034
L10909 8053
L10947 8091
L10965 8147
L10965 8241
" />
<path d="M11003 7941
L11003 7641
" />
<path d="M10947 7566
L10965 7509
L10965 7416
L10947 7378
L10928 7359
L10890 7341
L10853 7341
L10815 7359
L10797 7378
L10778 7416
L10759 7491
L10741 7528
L10722 7547
L10684 7566
L10647 7566
L10609 7547
L10591 7528
L10572 7491
L10572 7397
L10591 7341
" />
<path d="M10947 7003
L10965 7041
L10965 7116
L10947 7153
L10928 7172
L10890 7191
L10778 7191
L10741 7172
L10722 7153
L10703 7116
L10703 7041
L10722 7003
" />
<path d="M10965 6834
L10572 6834
" />
<path d="M10965 6666
L10759 6666
L10722 6684
L10703 6722
L10703 6778
L10722 6816
L10741 6834
" />
<path d="M10965 6422
L10947 6459
L10928 6478
L10890 6497
L10778 6497
L10741 6478
L10722 6459
L10703 6422
L10703 6366
L10722 6328
L10741 6309
L10778 6291
L10890 6291
L10928 6309
L10947 6328
L10965 6366
L10965 6422
" />
<path d="M10703 6178
L10703 6028
" />
<path d="M10572 6122
L10909 6122
L10947 6103
L10965 6066
L10965 6028
" />
<path d="M10703 5953
L10703 5803
" />
<path d="M10572 5897
L10909 5897
L10947 5878
L10965 5841
L10965 5803
" />
<path d="M10965 5672
L10572 5672
" />
<path d="M10815 5635
L10965 5522
" />
<path d="M10703 5522
L10853 5672
" />
<path d="M10703 5391
L10965 5297
" />
<path d="M10703 5203
L10965 5297
L11059 5335
L11078 5353
L11097 5391
" />
<path d="M9389 7081
L8995 7081
L8995 6988
L9014 6931
L9051 6894
L9089 6875
L9164 6856
L9220 6856
L9295 6875
L9332 6894
L9370 6931
L9389 6988
L9389 7081
" />
<path d="M8995 6725
L8995 6481
L9145 6613
L9145 6556
L9164 6519
L9182 6500
L9220 6481
L9314 6481
L9351 6500
L9370 6519
L9389 6556
L9389 6669
L9370 6706
L9351 6725
" />
<path d="M7422 12374
L7028 12374
L7028 12281
L7047 12224
L7085 12187
L7122 12168
L7197 12149
L7253 12149
L7328 12168
L7366 12187
L7403 12224
L7422 12281
L7422 12374
" />
<path d="M7460 12074
L7460 11774
" />
<path d="M7403 11699
L7422 11643
L7422 11549
L7403 11512
L7385 11493
L7347 11474
L7310 11474
L7272 11493
L7253 11512
L7235 11549
L7216 11624
L7197 11662
L7178 11681
L7141 11699
L7103 11699
L7066 11681
L7047 11662
L7028 11624
L7028 11531
L7047 11474
" />
<path d="M7403 11137
L7422 11175
L7422 11249
L7403 11287
L7385 11306
L7347 11324
L7235 11324
L7197 11306
L7178 11287
L7160 11249
L7160 11175
L7178 11137
" />
<path d="M7422 10968
L7028 10968
" />
<path d="M7422 10800
L7216 10800
L7178 10818
L7160 10856
L7160 10912
L7178 10950
L7197 10968
" />
<path d="M7422 10556
L7403 10593
L7385 10612
L7347 10631
L7235 10631
L7197 10612
L7178 10593
L7160 10556
L7160 10500
L7178 10462
L7197 10443
L7235 10425
L7347 10425
L7385 10443
L7403 10462
L7422 10500
L7422 10556
" />
<path d="M7160 10312
L7160 10162
" />
<path d="M7028 10256
L7366 10256
L7403 10237
L7422 10200
L7422 10162
" />
<path d="M7160 10087
L7160 9937
" />
<path d="M7028 10031
L7366 10031
L7403 10012
L7422 9975
L7422 9937
" />
<path d="M7422 9806
L7028 9806
" />
<path d="M7272 9768
L7422 9656
" />
<path d="M7160 9656
L7310 9806
" />
<path d="M7160 9525
L7422 9431
" />
<path d="M7160 9337
L7422 9431
L7516 9468
L7535 9487
L7553 9525
" />
<path d="M5845 11215
L5452 11215
L5452 11121
L5470 11065
L5508 11028
L5545 11009
L5620 10990
L5677 10990
L5752 11009
L5789 11028
L5827 11065
L5845 11121
L5845 11215
" />
<path d="M5489 10840
L5470 10821
L5452 10784
L5452 10690
L5470 10653
L5489 10634
L5527 10615
L5564 10615
L5620 10634
L5845 10859
L5845 10615
" />
<path d="M11985 13257
L11798 13257
L11798 12864
" />
<path d="M12117 13051
L12248 13051
" />
<path d="M12304 13257
L12117 13257
L12117 12864
L12304 12864
" />
<path d="M12473 13257
L12473 12864
L12567 12864
L12623 12882
L12660 12920
L12679 12957
L12698 13032
L12698 13089
L12679 13164
L12660 13201
L12623 13239
L12567 13257
L12473 13257
" />
<path d="M12773 13295
L13073 13295
" />
<path d="M13391 13257
L13260 13070
" />
<path d="M13166 13257
L13166 12864
L13316 12864
L13354 12882
L13373 12901
L13391 12939
L13391 12995
L13373 13032
L13354 13051
L13316 13070
L13166 13070
" />
<path d="M13766 12882
L13729 12864
L13673 12864
L13616 12882
L13579 12920
L13560 12957
L13541 13032
L13541 13089
L13560 13164
L13579 13201
L13616 13239
L13673 13257
L13710 13257
L13766 13239
L13785 13220
L13785 13089
L13710 13089
" />
<path d="M14085 13051
L14141 13070
L14160 13089
L14179 13126
L14179 13182
L14160 13220
L14141 13239
L14104 13257
L13954 13257
L13954 12864
L14085 12864
L14123 12882
L14141 12901
L14160 12939
L14160 12976
L14141 13014
L14123 13032
L14085 13051
L13954 13051
" />
<path d="M14254 13295
L14554 13295
" />
<path d="M14648 13051
L14779 13051
" />
<path d="M14835 13257
L14648 13257
L14648 12864
L14835 12864
" />
<path d="M15004 13257
L15004 12864
L15154 12864
L15191 12882
L15210 12901
L15229 12939
L15229 12995
L15210 13032
L15191 13051
L15154 13070
L15004 13070
" />
<path d="M4477 11114
L4496 11132
L4477 11151
L4458 11132
L4477 11114
L4477 11151
" />
<path d="M4871 11151
L4646 11151
" />
<path d="M4758 11151
L4758 10757
L4721 10814
L4683 10851
L4646 10870
" />
<path d="M5208 10889
L5208 11151
" />
<path d="M5114 10739
L5021 11020
L5264 11020
" />
<path d="M5377 10757
L5621 10757
L5489 10907
L5546 10907
L5583 10926
L5602 10945
L5621 10982
L5621 11076
L5602 11114
L5583 11132
L5546 11151
L5433 11151
L5396 11132
L5377 11114
" />
</g>
<g style="fill:#FFEF00; fill-opacity:0.0; 
stroke:#FFEF00; stroke-width:31.4961; stroke-opacity:1; 
stroke-linecap:round; stroke-linejoin:round;">
<path d="M5007 10275
L4941 10181
" />
<path d="M4894 10275
L4894 10078
L4969 10078
L4988 10087
L4997 10097
L5007 10115
L5007 10143
L4997 10162
L4988 10172
L4969 10181
L4894 10181
" />
<path d="M5194 10275
L5082 10275
" />
<path d="M5138 10275
L5138 10078
L5119 10106
L5100 10125
L5082 10134
" />
</g>
<g style="fill:#FFEF00; fill-opacity:0.0; 
stroke:#FFEF00; stroke-width:59.0551; stroke-opacity:1; 
stroke-linecap:round; stroke-linejoin:round;">
<path d="M7078 9379
L6853 9379
" />
<path d="M6966 9379
L6966 8986
L6928 9042
L6891 9079
L6853 9098
" />
<path d="M7322 8986
L7359 8986
L7397 9004
L7416 9023
L7434 9061
L7453 9136
L7453 9229
L7434 9304
L7416 9342
L7397 9361
L7359 9379
L7322 9379
L7284 9361
L7266 9342
L7247 9304
L7228 9229
L7228 9136
L7247 9061
L7266 9023
L7284 9004
L7322 8986
" />
<path d="M7791 9117
L7791 9379
" />
<path d="M7622 9117
L7622 9323
L7641 9361
L7678 9379
L7734 9379
L7772 9361
L7791 9342
" />
<path d="M8109 9173
L7978 9173
" />
<path d="M7978 9379
L7978 8986
L8166 8986
" />
</g>
<g style="fill:#FFEF00; fill-opacity:0.0; 
stroke:#FFEF00; stroke-width:31.4961; stroke-opacity:1; 
stroke-linecap:round; stroke-linejoin:round;">
<path d="M6291 9136
L6300 9145
L6309 9173
L6309 9192
L6300 9220
L6281 9239
L6263 9248
L6225 9258
L6197 9258
L6160 9248
L6141 9239
L6122 9220
L6113 9192
L6113 9173
L6122 9145
L6131 9136
" />
<path d="M6309 8948
L6309 9061
" />
<path d="M6309 9004
L6113 9004
L6141 9023
L6160 9042
L6169 9061
" />
</g>
<g style="fill:#FFEF00; fill-opacity:0.0; 
stroke:#FFEF00; stroke-width:59.0551; stroke-opacity:1; 
stroke-linecap:round; stroke-linejoin:round;">
<path d="M11620 6806
L11807 6806
" />
<path d="M11582 6919
L11714 6525
L11845 6919
" />
<path d="M12163 6919
L11976 6919
L11976 6525
" />
<path d="M12351 6694
L12313 6675
L12295 6656
L12276 6619
L12276 6600
L12295 6563
L12313 6544
L12351 6525
L12426 6525
L12463 6544
L12482 6563
L12501 6600
L12501 6619
L12482 6656
L12463 6675
L12426 6694
L12351 6694
L12313 6713
L12295 6731
L12276 6769
L12276 6844
L12295 6881
L12313 6900
L12351 6919
L12426 6919
L12463 6900
L12482 6881
L12501 6844
L12501 6769
L12482 6731
L12463 6713
L12426 6694
" />
<path d="M12726 6694
L12688 6675
L12670 6656
L12651 6619
L12651 6600
L12670 6563
L12688 6544
L12726 6525
L12801 6525
L12838 6544
L12857 6563
L12876 6600
L12876 6619
L12857 6656
L12838 6675
L12801 6694
L12726 6694
L12688 6713
L12670 6731
L12651 6769
L12651 6844
L12670 6881
L12688 6900
L12726 6919
L12801 6919
L12838 6900
L12857 6881
L12876 6844
L12876 6769
L12857 6731
L12838 6713
L12801 6694
" />
<path d="M13213 6525
L13138 6525
L13101 6544
L13082 6563
L13045 6619
L13026 6694
L13026 6844
L13045 6881
L13063 6900
L13101 6919
L13176 6919
L13213 6900
L13232 6881
L13251 6844
L13251 6750
L13232 6713
L13213 6694
L13176 6675
L13101 6675
L13063 6694
L13045 6713
L13026 6750
" />
<path d="M13495 6525
L13532 6525
L13570 6544
L13588 6563
L13607 6600
L13626 6675
L13626 6769
L13607 6844
L13588 6881
L13570 6900
L13532 6919
L13495 6919
L13457 6900
L13438 6881
L13420 6844
L13401 6769
L13401 6675
L13420 6600
L13438 6563
L13457 6544
L13495 6525
" />
<path d="M13701 6956
L14001 6956
" />
<path d="M14282 6919
L14094 6919
L14094 6525
" />
<path d="M14413 6713
L14544 6713
" />
<path d="M14601 6919
L14413 6919
L14413 6525
L14601 6525
" />
<path d="M14769 6919
L14769 6525
L14863 6525
L14919 6544
L14957 6581
L14976 6619
L14994 6694
L14994 6750
L14976 6825
L14957 6863
L14919 6900
L14863 6919
L14769 6919
" />
<path d="M15069 6956
L15369 6956
" />
<path d="M15463 6919
L15463 6525
L15557 6525
L15613 6544
L15651 6581
L15669 6619
L15688 6694
L15688 6750
L15669 6825
L15651 6863
L15613 6900
L15557 6919
L15463 6919
" />
<path d="M16082 6919
L15950 6731
" />
<path d="M15857 6919
L15857 6525
L16007 6525
L16044 6544
L16063 6563
L16082 6600
L16082 6656
L16063 6694
L16044 6713
L16007 6731
L15857 6731
" />
<path d="M16250 6919
L16250 6525
" />
<path d="M16382 6525
L16513 6919
L16644 6525
" />
<path d="M16775 6713
L16907 6713
" />
<path d="M16963 6919
L16775 6919
L16775 6525
L16963 6525
" />
<path d="M17357 6919
L17225 6731
" />
<path d="M17132 6919
L17132 6525
L17282 6525
L17319 6544
L17338 6563
L17357 6600
L17357 6656
L17338 6694
L17319 6713
L17282 6731
L17132 6731
" />
<path d="M4041 4444
L4229 4444
" />
<path d="M4004 4557
L4135 4163
L4266 4557
" />
<path d="M4585 4557
L4397 4557
L4397 4163
" />
<path d="M4772 4332
L4735 4313
L4716 4294
L4697 4257
L4697 4238
L4716 4200
L4735 4182
L4772 4163
L4847 4163
L4885 4182
L4903 4200
L4922 4238
L4922 4257
L4903 4294
L4885 4313
L4847 4332
L4772 4332
L4735 4350
L4716 4369
L4697 4407
L4697 4482
L4716 4519
L4735 4538
L4772 4557
L4847 4557
L4885 4538
L4903 4519
L4922 4482
L4922 4407
L4903 4369
L4885 4350
L4847 4332
" />
<path d="M5147 4332
L5110 4313
L5091 4294
L5072 4257
L5072 4238
L5091 4200
L5110 4182
L5147 4163
L5222 4163
L5260 4182
L5278 4200
L5297 4238
L5297 4257
L5278 4294
L5260 4313
L5222 4332
L5147 4332
L5110 4350
L5091 4369
L5072 4407
L5072 4482
L5091 4519
L5110 4538
L5147 4557
L5222 4557
L5260 4538
L5278 4519
L5297 4482
L5297 4407
L5278 4369
L5260 4350
L5222 4332
" />
<path d="M5635 4163
L5560 4163
L5522 4182
L5503 4200
L5466 4257
L5447 4332
L5447 4482
L5466 4519
L5485 4538
L5522 4557
L5597 4557
L5635 4538
L5653 4519
L5672 4482
L5672 4388
L5653 4350
L5635 4332
L5597 4313
L5522 4313
L5485 4332
L5466 4350
L5447 4388
" />
<path d="M5916 4163
L5953 4163
L5991 4182
L6010 4200
L6028 4238
L6047 4313
L6047 4407
L6028 4482
L6010 4519
L5991 4538
L5953 4557
L5916 4557
L5878 4538
L5860 4519
L5841 4482
L5822 4407
L5822 4313
L5841 4238
L5860 4200
L5878 4182
L5916 4163
" />
<path d="M6122 4594
L6422 4594
" />
<path d="M6703 4557
L6516 4557
L6516 4163
" />
<path d="M6834 4350
L6966 4350
" />
<path d="M7022 4557
L6834 4557
L6834 4163
L7022 4163
" />
<path d="M7191 4557
L7191 4163
L7284 4163
L7341 4182
L7378 4219
L7397 4257
L7416 4332
L7416 4388
L7397 4463
L7378 4500
L7341 4538
L7284 4557
L7191 4557
" />
<path d="M7491 4594
L7791 4594
" />
<path d="M7884 4557
L7884 4163
L7978 4163
L8034 4182
L8072 4219
L8091 4257
L8109 4332
L8109 4388
L8091 4463
L8072 4500
L8034 4538
L7978 4557
L7884 4557
" />
<path d="M8503 4557
L8372 4369
" />
<path d="M8278 4557
L8278 4163
L8428 4163
L8465 4182
L8484 4200
L8503 4238
L8503 4294
L8484 4332
L8465 4350
L8428 4369
L8278 4369
" />
<path d="M8672 4557
L8672 4163
" />
<path d="M8803 4163
L8934 4557
L9065 4163
" />
<path d="M9197 4350
L9328 4350
" />
<path d="M9384 4557
L9197 4557
L9197 4163
L9384 4163
" />
<path d="M9778 4557
L9647 4369
" />
<path d="M9553 4557
L9553 4163
L9703 4163
L9740 4182
L9759 4200
L9778 4238
L9778 4294
L9759 4332
L9740 4350
L9703 4369
L9553 4369
" />
<path d="M104 9070
L291 9070
" />
<path d="M67 9183
L198 8789
L329 9183
" />
<path d="M648 9183
L460 9183
L460 8789
" />
<path d="M835 8958
L798 8939
L779 8920
L760 8883
L760 8864
L779 8826
L798 8808
L835 8789
L910 8789
L948 8808
L966 8826
L985 8864
L985 8883
L966 8920
L948 8939
L910 8958
L835 8958
L798 8976
L779 8995
L760 9033
L760 9108
L779 9145
L798 9164
L835 9183
L910 9183
L948 9164
L966 9145
L985 9108
L985 9033
L966 8995
L948 8976
L910 8958
" />
<path d="M1210 8958
L1173 8939
L1154 8920
L1135 8883
L1135 8864
L1154 8826
L1173 8808
L1210 8789
L1285 8789
L1323 8808
L1341 8826
L1360 8864
L1360 8883
L1341 8920
L1323 8939
L1285 8958
L1210 8958
L1173 8976
L1154 8995
L1135 9033
L1135 9108
L1154 9145
L1173 9164
L1210 9183
L1285 9183
L1323 9164
L1341 9145
L1360 9108
L1360 9033
L1341 8995
L1323 8976
L1285 8958
" />
<path d="M1698 8789
L1623 8789
L1585 8808
L1566 8826
L1529 8883
L1510 8958
L1510 9108
L1529 9145
L1548 9164
L1585 9183
L1660 9183
L1698 9164
L1716 9145
L1735 9108
L1735 9014
L1716 8976
L1698 8958
L1660 8939
L1585 8939
L1548 8958
L1529 8976
L1510 9014
" />
<path d="M1979 8789
L2016 8789
L2054 8808
L2073 8826
L2091 8864
L2110 8939
L2110 9033
L2091 9108
L2073 9145
L2054 9164
L2016 9183
L1979 9183
L1941 9164
L1923 9145
L1904 9108
L1885 9033
L1885 8939
L1904 8864
L1923 8826
L1941 8808
L1979 8789
" />
<path d="M2185 9220
L2485 9220
" />
<path d="M2766 9183
L2579 9183
L2579 8789
" />
<path d="M2897 8976
L3029 8976
" />
<path d="M3085 9183
L2897 9183
L2897 8789
L3085 8789
" />
<path d="M3254 9183
L3254 8789
L3347 8789
L3404 8808
L3441 8845
L3460 8883
L3479 8958
L3479 9014
L3460 9089
L3441 9126
L3404 9164
L3347 9183
L3254 9183
" />
<path d="M3554 9220
L3854 9220
" />
<path d="M3947 9183
L3947 8789
L4041 8789
L4097 8808
L4135 8845
L4154 8883
L4172 8958
L4172 9014
L4154 9089
L4135 9126
L4097 9164
L4041 9183
L3947 9183
" />
<path d="M4566 9183
L4435 8995
" />
<path d="M4341 9183
L4341 8789
L4491 8789
L4528 8808
L4547 8826
L4566 8864
L4566 8920
L4547 8958
L4528 8976
L4491 8995
L4341 8995
" />
<path d="M4735 9183
L4735 8789
" />
<path d="M4866 8789
L4997 9183
L5128 8789
" />
<path d="M5260 8976
L5391 8976
" />
<path d="M5447 9183
L5260 9183
L5260 8789
L5447 8789
" />
<path d="M5841 9183
L5710 8995
" />
<path d="M5616 9183
L5616 8789
L5766 8789
L5803 8808
L5822 8826
L5841 8864
L5841 8920
L5822 8958
L5803 8976
L5766 8995
L5616 8995
" />
<path d="M12304 21683
L12304 21870
L12492 21889
L12473 21870
L12454 21833
L12454 21739
L12473 21701
L12492 21683
L12529 21664
L12623 21664
L12660 21683
L12679 21701
L12698 21739
L12698 21833
L12679 21870
L12660 21889
" />
<path d="M12304 21551
L12698 21420
L12304 21289
" />
<path d="M12735 21251
L12735 20951
" />
<path d="M12698 20633
L12510 20764
" />
<path d="M12698 20858
L12304 20858
L12304 20708
L12323 20670
L12342 20651
L12379 20633
L12435 20633
L12473 20651
L12492 20670
L12510 20708
L12510 20858
" />
<path d="M12492 20464
L12492 20333
" />
<path d="M12698 20276
L12698 20464
L12304 20464
L12304 20276
" />
<path d="M12323 19902
L12304 19939
L12304 19995
L12323 20052
L12360 20089
L12398 20108
L12473 20127
L12529 20127
L12604 20108
L12642 20089
L12679 20052
L12698 19995
L12698 19958
L12679 19902
L12660 19883
L12529 19883
L12529 19958
" />
<path d="M12735 19808
L12735 19508
" />
<path d="M12585 19433
L12585 19245
" />
<path d="M12698 19470
L12304 19339
L12698 19208
" />
<path d="M12698 19077
L12304 19077
L12304 18927
L12323 18889
L12342 18870
L12379 18852
L12435 18852
L12473 18870
L12492 18889
L12510 18927
L12510 19077
" />
<path d="M12304 18720
L12304 18458
L12698 18627
" />
<path d="M12304 18345
L12304 18102
L12454 18233
L12454 18177
L12473 18139
L12492 18121
L12529 18102
L12623 18102
L12660 18121
L12679 18139
L12698 18177
L12698 18289
L12679 18327
L12660 18345
" />
<path d="M12304 17971
L12304 17708
L12698 17877
" />
<path d="M12304 17483
L12304 17446
L12323 17408
L12342 17389
L12379 17371
L12454 17352
L12548 17352
L12623 17371
L12660 17389
L12679 17408
L12698 17446
L12698 17483
L12679 17521
L12660 17539
L12623 17558
L12548 17577
L12454 17577
L12379 17558
L12342 17539
L12323 17521
L12304 17483
" />
<path d="M12548 17183
L12548 16883
" />
<path d="M12304 16508
L12304 16696
L12492 16714
L12473 16696
L12454 16658
L12454 16564
L12473 16527
L12492 16508
L12529 16489
L12623 16489
L12660 16508
L12679 16527
L12698 16564
L12698 16658
L12679 16696
L12660 16714
" />
<path d="M12304 16246
L12304 16208
L12323 16171
L12342 16152
L12379 16133
L12454 16115
L12548 16115
L12623 16133
L12660 16152
L12679 16171
L12698 16208
L12698 16246
L12679 16283
L12660 16302
L12623 16321
L12548 16339
L12454 16339
L12379 16321
L12342 16302
L12323 16283
L12304 16246
" />
<path d="M12304 15983
L12698 15890
L12417 15815
L12698 15740
L12304 15646
" />
<path d="M12304 15308
L12304 15496
L12492 15515
L12473 15496
L12454 15458
L12454 15365
L12473 15327
L12492 15308
L12529 15290
L12623 15290
L12660 15308
L12679 15327
L12698 15365
L12698 15458
L12679 15496
L12660 15515
" />
<path d="M12548 15121
L12548 14821
" />
<path d="M12304 14671
L12304 14408
L12698 14577
" />
</g>
<g style="fill:#FFEF00; fill-opacity:0.0; 
stroke:#FFEF00; stroke-width:29.5276; stroke-opacity:1; 
stroke-linecap:round; stroke-linejoin:round;">
<path d="M11385 18050
L11385 18210
L11395 18228
L11404 18238
L11423 18247
L11460 18247
L11479 18238
L11489 18228
L11498 18210
L11498 18050
" />
<path d="M11695 18247
L11582 18247
" />
<path d="M11639 18247
L11639 18050
L11620 18078
L11601 18097
L11582 18106
" />
</g>
<g style="fill:#FFEF00; fill-opacity:0.0; 
stroke:#FFEF00; stroke-width:59.0551; stroke-opacity:1; 
stroke-linecap:round; stroke-linejoin:round;">
<path d="M18664 9862
L18683 9843
L18702 9862
L18683 9881
L18664 9862
L18702 9862
" />
<path d="M18702 9468
L18702 9693
" />
<path d="M18702 9581
L18308 9581
L18364 9618
L18402 9656
L18420 9693
" />
<path d="M18439 9131
L18702 9131
" />
<path d="M18289 9225
L18570 9318
L18570 9075
" />
<path d="M18308 8962
L18308 8719
L18458 8850
L18458 8794
L18477 8756
L18495 8737
L18533 8719
L18627 8719
L18664 8737
L18683 8756
L18702 8794
L18702 8906
L18683 8944
L18664 8962
" />
</g>
<g style="fill:#FFEF00; fill-opacity:0.0; 
stroke:#FFEF00; stroke-width:31.4961; stroke-opacity:1; 
stroke-linecap:round; stroke-linejoin:round;">
<path d="M18514 7955
L18420 8020
" />
<path d="M18514 8067
L18317 8067
L18317 7992
L18327 7973
L18336 7964
L18355 7955
L18383 7955
L18402 7964
L18411 7973
L18420 7992
L18420 8067
" />
<path d="M18317 7889
L18317 7767
L18392 7833
L18392 7805
L18402 7786
L18411 7776
L18430 7767
L18477 7767
L18495 7776
L18505 7786
L18514 7805
L18514 7861
L18505 7880
L18495 7889
" />
</g>
<g style="fill:#FFEF00; fill-opacity:0.0; 
stroke:#FFEF00; stroke-width:59.0551; stroke-opacity:1; 
stroke-linecap:round; stroke-linejoin:round;">
<path d="M7922 7275
L7941 7294
L7922 7312
L7903 7294
L7922 7275
L7922 7312
" />
<path d="M8315 7312
L8091 7312
" />
<path d="M8203 7312
L8203 6919
L8166 6975
L8128 7013
L8091 7031
" />
<path d="M8653 7050
L8653 7312
" />
<path d="M8559 6900
L8465 7181
L8709 7181
" />
<path d="M8822 6919
L9065 6919
L8934 7069
L8990 7069
L9028 7088
L9047 7106
L9065 7144
L9065 7238
L9047 7275
L9028 7294
L8990 7312
L8878 7312
L8840 7294
L8822 7275
" />
</g>
<g style="fill:#FFEF00; fill-opacity:0.0; 
stroke:#FFEF00; stroke-width:31.4961; stroke-opacity:1; 
stroke-linecap:round; stroke-linejoin:round;">
<path d="M8550 6436
L8484 6342
" />
<path d="M8437 6436
L8437 6239
L8512 6239
L8531 6249
L8540 6258
L8550 6277
L8550 6305
L8540 6324
L8531 6333
L8512 6342
L8437 6342
" />
<path d="M8625 6258
L8634 6249
L8653 6239
L8700 6239
L8719 6249
L8728 6258
L8737 6277
L8737 6295
L8728 6324
L8615 6436
L8737 6436
" />
</g>
<g style="fill:#FFEF00; fill-opacity:0.0; 
stroke:#FFEF00; stroke-width:59.0551; stroke-opacity:1; 
stroke-linecap:round; stroke-linejoin:round;">
<path d="M17928 3211
L17928 3474
" />
<path d="M17835 3061
L17741 3343
L17985 3343
" />
<path d="M18097 3080
L18360 3080
L18191 3474
" />
<path d="M18678 3211
L18678 3474
" />
<path d="M18510 3211
L18510 3418
L18528 3455
L18566 3474
L18622 3474
L18660 3455
L18678 3436
" />
<path d="M18866 3474
L18866 3080
" />
<path d="M18866 3268
L19091 3268
" />
<path d="M19091 3474
L19091 3080
" />
<path d="M6511 2719
L6511 2982
" />
<path d="M6417 2569
L6324 2851
L6567 2851
" />
<path d="M6680 2588
L6942 2588
L6773 2982
" />
<path d="M7261 2719
L7261 2982
" />
<path d="M7092 2719
L7092 2926
L7111 2963
L7148 2982
L7205 2982
L7242 2963
L7261 2944
" />
<path d="M7448 2982
L7448 2588
" />
<path d="M7448 2776
L7673 2776
" />
<path d="M7673 2982
L7673 2588
" />
<path d="M4346 5082
L4346 5344
" />
<path d="M4252 4932
L4158 5213
L4402 5213
" />
<path d="M4514 4950
L4777 4950
L4608 5344
" />
<path d="M5096 5082
L5096 5344
" />
<path d="M4927 5082
L4927 5288
L4946 5325
L4983 5344
L5039 5344
L5077 5325
L5096 5306
" />
<path d="M5283 5344
L5283 4950
" />
<path d="M5283 5138
L5508 5138
" />
<path d="M5508 5344
L5508 4950
" />
<path d="M17324 7851
L17324 8076
" />
<path d="M17324 7964
L16930 7964
L16986 8001
L17024 8039
L17043 8076
" />
<path d="M16930 7608
L16930 7570
L16949 7533
L16968 7514
L17005 7495
L17080 7477
L17174 7477
L17249 7495
L17286 7514
L17305 7533
L17324 7570
L17324 7608
L17305 7645
L17286 7664
L17249 7683
L17174 7702
L17080 7702
L17005 7683
L16968 7664
L16949 7645
L16930 7608
" />
<path d="M17061 7139
L17324 7139
" />
<path d="M17061 7308
L17267 7308
L17305 7289
L17324 7252
L17324 7195
L17305 7158
L17286 7139
" />
<path d="M17118 6820
L17118 6952
" />
<path d="M17324 6952
L16930 6952
L16930 6764
" />
</g>
<g style="fill:#FFEF00; fill-opacity:0.0; 
stroke:#FFEF00; stroke-width:31.4961; stroke-opacity:1; 
stroke-linecap:round; stroke-linejoin:round;">
<path d="M17118 5986
L17127 5995
L17136 6024
L17136 6042
L17127 6070
L17108 6089
L17089 6099
L17052 6108
L17024 6108
L16986 6099
L16968 6089
L16949 6070
L16939 6042
L16939 6024
L16949 5995
L16958 5986
" />
<path d="M16939 5920
L16939 5789
L17136 5874
" />
</g>
<g style="fill:#FFEF00; fill-opacity:0.0; 
stroke:#FFEF00; stroke-width:59.0551; stroke-opacity:1; 
stroke-linecap:round; stroke-linejoin:round;">
<path d="M11114 16269
L10889 16269
" />
<path d="M11001 16269
L11001 15875
L10964 15932
L10926 15969
L10889 15988
" />
<path d="M11357 15875
L11395 15875
L11432 15894
L11451 15913
L11470 15950
L11489 16025
L11489 16119
L11470 16194
L11451 16232
L11432 16250
L11395 16269
L11357 16269
L11320 16250
L11301 16232
L11282 16194
L11264 16119
L11264 16025
L11282 15950
L11301 15913
L11320 15894
L11357 15875
" />
<path d="M11826 16007
L11826 16269
" />
<path d="M11657 16007
L11657 16213
L11676 16250
L11714 16269
L11770 16269
L11807 16250
L11826 16232
" />
<path d="M12145 16063
L12013 16063
" />
<path d="M12013 16269
L12013 15875
L12201 15875
" />
</g>
<g style="fill:#FFEF00; fill-opacity:0.0; 
stroke:#FFEF00; stroke-width:31.4961; stroke-opacity:1; 
stroke-linecap:round; stroke-linejoin:round;">
<path d="M11503 16850
L11493 16860
L11465 16869
L11446 16869
L11418 16860
L11399 16841
L11390 16822
L11381 16785
L11381 16757
L11390 16719
L11399 16700
L11418 16682
L11446 16672
L11465 16672
L11493 16682
L11503 16691
" />
<path d="M11671 16672
L11634 16672
L11615 16682
L11606 16691
L11587 16719
L11578 16757
L11578 16832
L11587 16850
L11596 16860
L11615 16869
L11653 16869
L11671 16860
L11681 16850
L11690 16832
L11690 16785
L11681 16766
L11671 16757
L11653 16747
L11615 16747
L11596 16757
L11587 16766
L11578 16785
" />
</g>
<g style="fill:#FFEF00; fill-opacity:0.0; 
stroke:#FFEF00; stroke-width:59.0551; stroke-opacity:1; 
stroke-linecap:round; stroke-linejoin:round;">
<path d="M10621 5049
L10396 5049
" />
<path d="M10509 5049
L10509 4655
L10471 4711
L10434 4749
L10396 4767
" />
<path d="M10865 4655
L10903 4655
L10940 4674
L10959 4693
L10978 4730
L10996 4805
L10996 4899
L10978 4974
L10959 5011
L10940 5030
L10903 5049
L10865 5049
L10828 5030
L10809 5011
L10790 4974
L10771 4899
L10771 4805
L10790 4730
L10809 4693
L10828 4674
L10865 4655
" />
<path d="M11334 4786
L11334 5049
" />
<path d="M11165 4786
L11165 4992
L11184 5030
L11221 5049
L11278 5049
L11315 5030
L11334 5011
" />
<path d="M11653 4842
L11521 4842
" />
<path d="M11521 5049
L11521 4655
L11709 4655
" />
</g>
<g style="fill:#FFEF00; fill-opacity:0.0; 
stroke:#FFEF00; stroke-width:31.4961; stroke-opacity:1; 
stroke-linecap:round; stroke-linejoin:round;">
<path d="M9834 5199
L9843 5208
L9853 5236
L9853 5255
L9843 5283
L9825 5302
L9806 5311
L9768 5321
L9740 5321
L9703 5311
L9684 5302
L9665 5283
L9656 5255
L9656 5236
L9665 5208
L9675 5199
" />
<path d="M9656 5021
L9656 5114
L9750 5124
L9740 5114
L9731 5096
L9731 5049
L9740 5030
L9750 5021
L9768 5011
L9815 5011
L9834 5021
L9843 5030
L9853 5049
L9853 5096
L9843 5114
L9834 5124
" />
</g>
<g style="fill:#FFEF00; fill-opacity:0.0; 
stroke:#FFEF00; stroke-width:59.0551; stroke-opacity:1; 
stroke-linecap:round; stroke-linejoin:round;">
<path d="M10214 20070
L10232 20089
L10214 20108
L10195 20089
L10214 20070
L10214 20108
" />
<path d="M10607 20108
L10382 20108
" />
<path d="M10495 20108
L10495 19714
L10457 19770
L10420 19808
L10382 19827
" />
<path d="M10945 19845
L10945 20108
" />
<path d="M10776 19845
L10776 20052
L10795 20089
L10832 20108
L10889 20108
L10926 20089
L10945 20070
" />
<path d="M11264 19902
L11132 19902
" />
<path d="M11132 20108
L11132 19714
L11320 19714
" />
</g>
<g style="fill:#FFEF00; fill-opacity:0.0; 
stroke:#FFEF00; stroke-width:23.622; stroke-opacity:1; 
stroke-linecap:round; stroke-linejoin:round;">
<path d="M9541 19986
L9533 19993
L9511 20001
L9496 20001
L9473 19993
L9458 19978
L9451 19963
L9443 19933
L9443 19911
L9451 19881
L9458 19866
L9473 19851
L9496 19843
L9511 19843
L9533 19851
L9541 19858
" />
<path d="M9601 19858
L9608 19851
L9623 19843
L9661 19843
L9676 19851
L9683 19858
L9691 19873
L9691 19888
L9683 19911
L9593 20001
L9691 20001
" />
</g>
<g style="fill:#FFEF00; fill-opacity:0.0; 
stroke:#FFEF00; stroke-width:59.0551; stroke-opacity:1; 
stroke-linecap:round; stroke-linejoin:round;">
<path d="M8836 15346
L8854 15365
L8836 15383
L8817 15365
L8836 15346
L8836 15383
" />
<path d="M9229 15383
L9004 15383
" />
<path d="M9117 15383
L9117 14990
L9079 15046
L9042 15083
L9004 15102
" />
<path d="M9567 15121
L9567 15383
" />
<path d="M9398 15121
L9398 15327
L9417 15365
L9454 15383
L9511 15383
L9548 15365
L9567 15346
" />
<path d="M9886 15177
L9754 15177
" />
<path d="M9754 15383
L9754 14990
L9942 14990
" />
</g>
<g style="fill:#FFEF00; fill-opacity:0.0; 
stroke:#FFEF00; stroke-width:23.622; stroke-opacity:1; 
stroke-linecap:round; stroke-linejoin:round;">
<path d="M8442 15232
L8450 15239
L8457 15261
L8457 15276
L8450 15299
L8435 15314
L8420 15321
L8390 15329
L8367 15329
L8337 15321
L8322 15314
L8307 15299
L8300 15276
L8300 15261
L8307 15239
L8315 15232
" />
<path d="M8300 15179
L8300 15082
L8360 15134
L8360 15112
L8367 15097
L8375 15089
L8390 15082
L8427 15082
L8442 15089
L8450 15097
L8457 15112
L8457 15157
L8450 15172
L8442 15179
" />
</g>
<g style="fill:#FFEF00; fill-opacity:0.0; 
stroke:#FFEF00; stroke-width:59.0551; stroke-opacity:1; 
stroke-linecap:round; stroke-linejoin:round;">
<path d="M13673 18277
L13448 18277
" />
<path d="M13560 18277
L13560 17883
L13523 17940
L13485 17977
L13448 17996
" />
<path d="M13916 17883
L13954 17883
L13991 17902
L14010 17921
L14029 17958
L14048 18033
L14048 18127
L14029 18202
L14010 18240
L13991 18258
L13954 18277
L13916 18277
L13879 18258
L13860 18240
L13841 18202
L13823 18127
L13823 18033
L13841 17958
L13860 17921
L13879 17902
L13916 17883
" />
<path d="M14385 18015
L14385 18277
" />
<path d="M14216 18015
L14216 18221
L14235 18258
L14273 18277
L14329 18277
L14366 18258
L14385 18240
" />
<path d="M14704 18071
L14573 18071
" />
<path d="M14573 18277
L14573 17883
L14760 17883
" />
</g>
<g style="fill:#FFEF00; fill-opacity:0.0; 
stroke:#FFEF00; stroke-width:31.4961; stroke-opacity:1; 
stroke-linecap:round; stroke-linejoin:round;">
<path d="M14062 18819
L14052 18828
L14024 18838
L14005 18838
L13977 18828
L13959 18809
L13949 18791
L13940 18753
L13940 18725
L13949 18688
L13959 18669
L13977 18650
L14005 18641
L14024 18641
L14052 18650
L14062 18660
" />
<path d="M14230 18706
L14230 18838
" />
<path d="M14184 18631
L14137 18772
L14258 18772
" />
</g>
<g style="fill:#FFEF00; fill-opacity:0.0; 
stroke:#FFEF00; stroke-width:59.0551; stroke-opacity:1; 
stroke-linecap:round; stroke-linejoin:round;">
<path d="M13388 19714
L13388 19995
L13370 20052
L13332 20089
L13276 20108
L13238 20108
" />
<path d="M13782 20108
L13557 20108
" />
<path d="M13670 20108
L13670 19714
L13632 19770
L13595 19808
L13557 19827
" />
<path d="M13357 1604
L13357 1885
L13338 1941
L13301 1979
L13244 1998
L13207 1998
" />
<path d="M13526 1641
L13544 1623
L13582 1604
L13676 1604
L13713 1623
L13732 1641
L13751 1679
L13751 1716
L13732 1773
L13507 1998
L13751 1998
" />
<path d="M10232 18139
L10476 18139
L10345 18289
L10401 18289
L10439 18308
L10457 18327
L10476 18364
L10476 18458
L10457 18495
L10439 18514
L10401 18533
L10289 18533
L10251 18514
L10232 18495
" />
<path d="M10607 18139
L10851 18139
L10720 18289
L10776 18289
L10814 18308
L10832 18327
L10851 18364
L10851 18458
L10832 18495
L10814 18514
L10776 18533
L10664 18533
L10626 18514
L10607 18495
" />
</g>
<g style="fill:#FFEF00; fill-opacity:0.0; 
stroke:#FFEF00; stroke-width:23.622; stroke-opacity:1; 
stroke-linecap:round; stroke-linejoin:round;">
<path d="M9541 18426
L9488 18351
" />
<path d="M9451 18426
L9451 18269
L9511 18269
L9526 18276
L9533 18284
L9541 18299
L9541 18321
L9533 18336
L9526 18344
L9511 18351
L9451 18351
" />
<path d="M9676 18321
L9676 18426
" />
<path d="M9638 18261
L9601 18374
L9698 18374
" />
</g>
<g style="fill:#FFEF00; fill-opacity:0.0; 
stroke:#FFEF00; stroke-width:59.0551; stroke-opacity:1; 
stroke-linecap:round; stroke-linejoin:round;">
<path d="M10232 18927
L10476 18927
L10345 19077
L10401 19077
L10439 19095
L10457 19114
L10476 19152
L10476 19245
L10457 19283
L10439 19302
L10401 19320
L10289 19320
L10251 19302
L10232 19283
" />
<path d="M10607 18927
L10851 18927
L10720 19077
L10776 19077
L10814 19095
L10832 19114
L10851 19152
L10851 19245
L10832 19283
L10814 19302
L10776 19320
L10664 19320
L10626 19302
L10607 19283
" />
</g>
<g style="fill:#FFEF00; fill-opacity:0.0; 
stroke:#FFEF00; stroke-width:23.622; stroke-opacity:1; 
stroke-linecap:round; stroke-linejoin:round;">
<path d="M9541 19214
L9488 19139
" />
<path d="M9451 19214
L9451 19056
L9511 19056
L9526 19064
L9533 19071
L9541 19086
L9541 19109
L9533 19124
L9526 19131
L9511 19139
L9451 19139
" />
<path d="M9683 19056
L9608 19056
L9601 19131
L9608 19124
L9623 19116
L9661 19116
L9676 19124
L9683 19131
L9691 19146
L9691 19184
L9683 19199
L9676 19206
L9661 19214
L9623 19214
L9608 19206
L9601 19199
" />
</g>
<g style="fill:#FFEF00; fill-opacity:0.0; 
stroke:#FFEF00; stroke-width:59.0551; stroke-opacity:1; 
stroke-linecap:round; stroke-linejoin:round;">
<path d="M4402 16171
L4177 16171
" />
<path d="M4289 16171
L4289 15777
L4252 15833
L4214 15871
L4177 15890
" />
<path d="M4571 16171
L4571 15777
" />
<path d="M4608 16021
L4721 16171
" />
<path d="M4721 15908
L4571 16058
" />
</g>
<g style="fill:#FFEF00; fill-opacity:0.0; 
stroke:#FFEF00; stroke-width:23.622; stroke-opacity:1; 
stroke-linecap:round; stroke-linejoin:round;">
<path d="M4423 15473
L4370 15398
" />
<path d="M4333 15473
L4333 15316
L4393 15316
L4408 15323
L4415 15331
L4423 15346
L4423 15368
L4415 15383
L4408 15391
L4393 15398
L4333 15398
" />
<path d="M4498 15473
L4528 15473
L4543 15466
L4550 15458
L4565 15436
L4573 15406
L4573 15346
L4565 15331
L4558 15323
L4543 15316
L4513 15316
L4498 15323
L4490 15331
L4483 15346
L4483 15383
L4490 15398
L4498 15406
L4513 15413
L4543 15413
L4558 15406
L4565 15398
L4573 15383
" />
</g>
<g style="fill:#FFEF00; fill-opacity:0.0; 
stroke:#FFEF00; stroke-width:59.0551; stroke-opacity:1; 
stroke-linecap:round; stroke-linejoin:round;">
<path d="M3418 14793
L3193 14793
" />
<path d="M3305 14793
L3305 14399
L3268 14455
L3230 14493
L3193 14512
" />
<path d="M3586 14793
L3586 14399
" />
<path d="M3624 14643
L3736 14793
" />
<path d="M3736 14530
L3586 14680
" />
</g>
<g style="fill:#FFEF00; fill-opacity:0.0; 
stroke:#FFEF00; stroke-width:23.622; stroke-opacity:1; 
stroke-linecap:round; stroke-linejoin:round;">
<path d="M4348 14686
L4295 14611
" />
<path d="M4258 14686
L4258 14528
L4318 14528
L4333 14536
L4340 14543
L4348 14558
L4348 14581
L4340 14596
L4333 14603
L4318 14611
L4258 14611
" />
<path d="M4498 14686
L4408 14686
" />
<path d="M4453 14686
L4453 14528
L4438 14551
L4423 14566
L4408 14573
" />
<path d="M4595 14528
L4610 14528
L4625 14536
L4633 14543
L4640 14558
L4648 14588
L4648 14626
L4640 14656
L4633 14671
L4625 14678
L4610 14686
L4595 14686
L4580 14678
L4573 14671
L4565 14656
L4558 14626
L4558 14588
L4565 14558
L4573 14543
L4580 14536
L4595 14528
" />
</g>
<g style="fill:#FFEF00; fill-opacity:0.0; 
stroke:#FFEF00; stroke-width:59.0551; stroke-opacity:1; 
stroke-linecap:round; stroke-linejoin:round;">
<path d="M4402 13415
L4177 13415
" />
<path d="M4289 13415
L4289 13021
L4252 13077
L4214 13115
L4177 13134
" />
<path d="M4571 13415
L4571 13021
" />
<path d="M4608 13265
L4721 13415
" />
<path d="M4721 13152
L4571 13302
" />
</g>
<g style="fill:#FFEF00; fill-opacity:0.0; 
stroke:#FFEF00; stroke-width:23.622; stroke-opacity:1; 
stroke-linecap:round; stroke-linejoin:round;">
<path d="M4348 13899
L4295 13824
" />
<path d="M4258 13899
L4258 13741
L4318 13741
L4333 13749
L4340 13756
L4348 13771
L4348 13794
L4340 13809
L4333 13816
L4318 13824
L4258 13824
" />
<path d="M4498 13899
L4408 13899
" />
<path d="M4453 13899
L4453 13741
L4438 13764
L4423 13779
L4408 13786
" />
<path d="M4648 13899
L4558 13899
" />
<path d="M4603 13899
L4603 13741
L4588 13764
L4573 13779
L4558 13786
" />
</g>
<g style="fill:#FFEF00; fill-opacity:0.0; 
stroke:#FFEF00; stroke-width:59.0551; stroke-opacity:1; 
stroke-linecap:round; stroke-linejoin:round;">
<path d="M6229 19855
L6623 19761
L6342 19686
L6623 19611
L6229 19517
" />
<path d="M6604 19386
L6623 19330
L6623 19236
L6604 19199
L6585 19180
L6548 19161
L6510 19161
L6473 19180
L6454 19199
L6435 19236
L6417 19311
L6398 19348
L6379 19367
L6342 19386
L6304 19386
L6267 19367
L6248 19348
L6229 19311
L6229 19217
L6248 19161
" />
<path d="M6267 19011
L6248 18992
L6229 18955
L6229 18861
L6248 18824
L6267 18805
L6304 18786
L6342 18786
L6398 18805
L6623 19030
L6623 18786
" />
<path d="M6398 18561
L6379 18599
L6360 18617
L6323 18636
L6304 18636
L6267 18617
L6248 18599
L6229 18561
L6229 18486
L6248 18449
L6267 18430
L6304 18411
L6323 18411
L6360 18430
L6379 18449
L6398 18486
L6398 18561
L6417 18599
L6435 18617
L6473 18636
L6548 18636
L6585 18617
L6604 18599
L6623 18561
L6623 18486
L6604 18449
L6585 18430
L6548 18411
L6473 18411
L6435 18430
L6417 18449
L6398 18486
" />
<path d="M6623 18036
L6623 18261
" />
<path d="M6623 18149
L6229 18149
L6285 18186
L6323 18224
L6342 18261
" />
<path d="M6623 17661
L6623 17886
" />
<path d="M6623 17774
L6229 17774
L6285 17811
L6323 17849
L6342 17886
" />
</g>
<g style="fill:#FFEF00; fill-opacity:0.0; 
stroke:#FFEF00; stroke-width:55.1181; stroke-opacity:1; 
stroke-linecap:round; stroke-linejoin:round;">
<path d="M7593 19031
L7892 19031
L7927 19013
L7945 18995
L7963 18960
L7963 18890
L7945 18854
L7927 18837
L7892 18819
L7593 18819
" />
<path d="M7628 18660
L7610 18643
L7593 18608
L7593 18519
L7610 18484
L7628 18467
L7663 18449
L7698 18449
L7751 18467
L7963 18678
L7963 18449
" />
</g>
<g style="fill:#FFEF00; fill-opacity:0.0; 
stroke:#FFEF00; stroke-width:59.0551; stroke-opacity:1; 
stroke-linecap:round; stroke-linejoin:round;">
<path d="M6989 18561
L6989 18317
L7139 18449
L7139 18392
L7158 18355
L7177 18336
L7214 18317
L7308 18317
L7345 18336
L7364 18355
L7383 18392
L7383 18505
L7364 18542
L7345 18561
" />
<path d="M7420 18242
L7420 17942
" />
<path d="M7383 17849
L6989 17849
" />
<path d="M7120 17661
L7383 17661
" />
<path d="M7158 17661
L7139 17642
L7120 17605
L7120 17549
L7139 17511
L7177 17492
L7383 17492
" />
<path d="M7120 17342
L7383 17249
L7120 17155
" />
<path d="M7364 16855
L7383 16893
L7383 16968
L7364 17005
L7327 17024
L7177 17024
L7139 17005
L7120 16968
L7120 16893
L7139 16855
L7177 16836
L7214 16836
L7252 17024
" />
<path d="M7383 16668
L7120 16668
" />
<path d="M7195 16668
L7158 16649
L7139 16630
L7120 16593
L7120 16555
" />
<path d="M7120 16480
L7120 16330
" />
<path d="M6989 16424
L7327 16424
L7364 16405
L7383 16368
L7383 16330
" />
<path d="M7364 16049
L7383 16086
L7383 16161
L7364 16199
L7327 16218
L7177 16218
L7139 16199
L7120 16161
L7120 16086
L7139 16049
L7177 16030
L7214 16030
L7252 16218
" />
<path d="M7383 15861
L7120 15861
" />
<path d="M7195 15861
L7158 15843
L7139 15824
L7120 15786
L7120 15749
" />
<path d="M7420 15711
L7420 15411
" />
<path d="M6989 15374
L6989 15149
" />
<path d="M7383 15261
L6989 15261
" />
<path d="M7345 14793
L7364 14812
L7383 14868
L7383 14905
L7364 14962
L7327 14999
L7289 15018
L7214 15037
L7158 15037
L7083 15018
L7045 14999
L7008 14962
L6989 14905
L6989 14868
L7008 14812
L7027 14793
" />
<path d="M6989 14662
L6989 14399
L7383 14568
" />
<path d="M6989 14287
L7383 14193
L7102 14118
L7383 14043
L6989 13949
" />
<path d="M7383 13799
L6989 13799
" />
<path d="M7177 13799
L7177 13574
" />
<path d="M7383 13574
L6989 13574
" />
<path d="M7383 13181
L7383 13405
" />
<path d="M7383 13293
L6989 13293
L7045 13330
L7083 13368
L7102 13405
" />
<path d="M7120 12843
L7383 12843
" />
<path d="M6970 12937
L7252 13031
L7252 12787
" />
<path d="M7177 12506
L7177 12637
" />
<path d="M7383 12637
L6989 12637
L6989 12449
" />
<path d="M6989 12299
L7308 12299
L7345 12281
L7364 12262
L7383 12224
L7383 12149
L7364 12112
L7345 12093
L7308 12074
L6989 12074
" />
<path d="M7364 11868
L7383 11868
L7420 11887
L7439 11906
" />
<path d="M7383 11512
L7383 11699
L6989 11699
" />
<path d="M6989 11268
L7270 11268
L7327 11287
L7364 11324
L7383 11381
L7383 11418
" />
<path d="M7533 10968
L7514 10987
L7458 11025
L7420 11043
L7364 11062
L7270 11081
L7195 11081
L7102 11062
L7045 11043
L7008 11025
L6952 10987
L6933 10968
" />
<path d="M7345 10593
L7364 10612
L7383 10668
L7383 10706
L7364 10762
L7327 10800
L7289 10818
L7214 10837
L7158 10837
L7083 10818
L7045 10800
L7008 10762
L6989 10706
L6989 10668
L7008 10612
L7027 10593
" />
<path d="M6989 10481
L6989 10256
" />
<path d="M7383 10368
L6989 10368
" />
<path d="M6091 14598
L6282 14598
L6305 14587
L6316 14575
L6327 14553
L6327 14508
L6316 14485
L6305 14474
L6282 14463
L6091 14463
" />
<path d="M6091 14373
L6091 14227
L6181 14305
L6181 14272
L6192 14249
L6204 14238
L6226 14227
L6282 14227
L6305 14238
L6316 14249
L6327 14272
L6327 14339
L6316 14362
L6305 14373
" />
<g >
</g>
</g>
<g style="fill:#000000; fill-opacity:0.0; 
stroke:#000000; stroke-width:59.0551; stroke-opacity:1; 
stroke-linecap:round; stroke-linejoin:round;">
</g>
<g style="fill:#C2C200; fill-opacity:0.0; 
stroke:#C2C200; stroke-width:59.0551; stroke-opacity:1; 
stroke-linecap:round; stroke-linejoin:round;">
</g>
<g style="fill:#C2C200; fill-opacity:0.0; 
stroke:#C2C200; stroke-width:19.685; stroke-opacity:1; 
stroke-linecap:round; stroke-linejoin:round;">
<path d="M23346 1032
L3661 1032
" />
<path d="M23346 20717
L23346 1032
" />
<path d="M3661 20717
L23346 20717
" />
<path d="M3661 1032
L3661 20717
" />
<g >
</g>
<g >
</g>
<g >
</g>
<g >
</g>
<g >
</g>
<g >
</g>
<g >
</g>
<g >
</g>
<g >
</g>
<g >
</g>
<g >
</g>
<g >
</g>
<g >
</g>
<g >
</g>
<g >
</g>
<g >
</g>
<g >
</g>
<g >
</g>
<g >
</g>
<g >
</g>
<g >
</g>
<g >
</g>
<g >
</g>
<g >
</g>
<g >
</g>
<g >
</g>
<g >
</g>
<g >
</g>
<g >
</g>
<g >
</g>
<g >
</g>
<g >
</g>
<g >
</g>
<g >
</g>
<g >
</g>
</g> 
</svg>
