<?xml version="1.0" standalone="no"?>
 <!DOCTYPE svg PUBLIC "-//W3C//DTD SVG 1.1//EN" 
 "http://www.w3.org/Graphics/SVG/1.1/DTD/svg11.dtd"> 
<svg xmlns="http://www.w3.org/2000/svg" version="1.1" 
    width="5.61594cm" height="5.5245cm" viewBox="0 0 22110 21750 ">
<title>SVG Picture created as cob_single-brd.svg date 2019/11/13 18:24:47 </title>
  <desc>Picture generated by PCBNEW </desc>
<g style="fill:#000000; fill-opacity:1;stroke:#000000; stroke-opacity:1;
stroke-linecap:round; stroke-linejoin:round; "
 transform="translate(0 0) scale(1 1)">
</g>
<g style="fill:#000000; fill-opacity:0.0; 
stroke:#000000; stroke-width:-0.000393701; stroke-opacity:1; 
stroke-linecap:round; stroke-linejoin:round;">
</g>
<g style="fill:#840084; fill-opacity:0.0; 
stroke:#840084; stroke-width:-0.000393701; stroke-opacity:1; 
stroke-linecap:round; stroke-linejoin:round;">
</g>
<g style="fill:#840084; fill-opacity:1.0; 
stroke:#840084; stroke-width:0; stroke-opacity:1; 
stroke-linecap:round; stroke-linejoin:round;">
<path style="fill:#840084; fill-opacity:1.0; 
stroke:#840084; stroke-width:0; stroke-opacity:1; 
stroke-linecap:round; stroke-linejoin:round;fill-rule:evenodd;"
d="M 11009,20284
10300,20284
10300,19575
11009,19575
11009,20284
Z" /> 
<path style="fill:#840084; fill-opacity:1.0; 
stroke:#840084; stroke-width:0; stroke-opacity:1; 
stroke-linecap:round; stroke-linejoin:round;fill-rule:evenodd;"
d="M 11698,19578
11724,19580
11791,19600
11852,19633
11866,19645
11906,19678
11939,19718
11951,19732
11984,19793
12004,19860
12011,19930
12004,19999
11984,20066
11951,20128
11945,20135
11906,20182
11866,20214
11852,20226
11791,20259
11724,20279
11698,20282
11672,20284
11637,20284
11611,20282
11585,20279
11518,20259
11456,20226
11442,20214
11402,20182
11364,20135
11358,20128
11325,20066
11305,19999
11298,19930
11305,19860
11325,19793
11358,19732
11369,19718
11402,19678
11442,19645
11456,19633
11518,19600
11585,19580
11611,19578
11637,19575
11672,19575
11698,19578
Z" /> 
<path style="fill:#840084; fill-opacity:1.0; 
stroke:#840084; stroke-width:0; stroke-opacity:1; 
stroke-linecap:round; stroke-linejoin:round;fill-rule:evenodd;"
d="M 12698,19578
12724,19580
12791,19600
12852,19633
12866,19645
12906,19678
12939,19718
12951,19732
12984,19793
13004,19860
13011,19930
13004,19999
12984,20066
12951,20128
12945,20135
12906,20182
12866,20214
12852,20226
12791,20259
12724,20279
12698,20282
12672,20284
12637,20284
12611,20282
12585,20279
12518,20259
12456,20226
12442,20214
12402,20182
12364,20135
12358,20128
12325,20066
12305,19999
12298,19930
12305,19860
12325,19793
12358,19732
12369,19718
12402,19678
12442,19645
12456,19633
12518,19600
12585,19580
12611,19578
12637,19575
12672,19575
12698,19578
Z" /> 
<path style="fill:#840084; fill-opacity:1.0; 
stroke:#840084; stroke-width:0; stroke-opacity:1; 
stroke-linecap:round; stroke-linejoin:round;fill-rule:evenodd;"
d="M 6788,19340
6797,19343
6806,19347
6813,19353
6819,19361
6824,19369
6827,19379
6828,19391
6828,20105
6827,20117
6824,20126
6819,20134
6813,20142
6806,20148
6797,20152
6788,20155
6776,20156
6584,20156
6572,20155
6562,20152
6554,20148
6546,20142
6540,20134
6536,20126
6533,20117
6532,20105
6532,19391
6533,19379
6536,19369
6540,19361
6546,19353
6554,19347
6562,19343
6572,19340
6584,19339
6776,19339
6788,19340
Z" /> 
<path style="fill:#840084; fill-opacity:1.0; 
stroke:#840084; stroke-width:0; stroke-opacity:1; 
stroke-linecap:round; stroke-linejoin:round;fill-rule:evenodd;"
d="M 5288,19340
5297,19343
5306,19347
5313,19353
5319,19361
5324,19369
5327,19379
5328,19391
5328,20105
5327,20117
5324,20126
5319,20134
5313,20142
5306,20148
5297,20152
5288,20155
5276,20156
5084,20156
5072,20155
5062,20152
5054,20148
5046,20142
5040,20134
5036,20126
5033,20117
5032,20105
5032,19391
5033,19379
5036,19369
5040,19361
5046,19353
5054,19347
5062,19343
5072,19340
5084,19339
5276,19339
5288,19340
Z" /> 
<path style="fill:#840084; fill-opacity:1.0; 
stroke:#840084; stroke-width:0; stroke-opacity:1; 
stroke-linecap:round; stroke-linejoin:round;fill-rule:evenodd;"
d="M 6288,19340
6297,19343
6306,19347
6313,19353
6319,19361
6324,19369
6327,19379
6328,19391
6328,20105
6327,20117
6324,20126
6319,20134
6313,20142
6306,20148
6297,20152
6288,20155
6276,20156
6084,20156
6072,20155
6062,20152
6054,20148
6046,20142
6040,20134
6036,20126
6033,20117
6032,20105
6032,19391
6033,19379
6036,19369
6040,19361
6046,19353
6054,19347
6062,19343
6072,19340
6084,19339
6276,19339
6288,19340
Z" /> 
<path style="fill:#840084; fill-opacity:1.0; 
stroke:#840084; stroke-width:0; stroke-opacity:1; 
stroke-linecap:round; stroke-linejoin:round;fill-rule:evenodd;"
d="M 5788,19340
5797,19343
5806,19347
5813,19353
5819,19361
5824,19369
5827,19379
5828,19391
5828,20105
5827,20117
5824,20126
5819,20134
5813,20142
5806,20148
5797,20152
5788,20155
5776,20156
5584,20156
5572,20155
5562,20152
5554,20148
5546,20142
5540,20134
5536,20126
5533,20117
5532,20105
5532,19391
5533,19379
5536,19369
5540,19361
5546,19353
5554,19347
5562,19343
5572,19340
5584,19339
5776,19339
5788,19340
Z" /> 
<path style="fill:#840084; fill-opacity:1.0; 
stroke:#840084; stroke-width:0; stroke-opacity:1; 
stroke-linecap:round; stroke-linejoin:round;fill-rule:evenodd;"
d="M 7526,19724
7540,19728
7552,19735
7563,19744
7572,19755
7578,19767
7582,19780
7584,19797
7584,20063
7582,20079
7578,20092
7572,20105
7563,20116
7552,20124
7540,20131
7526,20135
7510,20137
7273,20137
7257,20135
7243,20131
7231,20124
7220,20116
7211,20105
7205,20092
7201,20079
7199,20063
7199,19797
7201,19780
7205,19767
7211,19755
7220,19744
7231,19735
7243,19728
7257,19724
7273,19723
7510,19723
7526,19724
Z" /> 
<path style="fill:#840084; fill-opacity:1.0; 
stroke:#840084; stroke-width:0; stroke-opacity:1; 
stroke-linecap:round; stroke-linejoin:round;fill-rule:evenodd;"
d="M 8146,19724
8160,19728
8172,19735
8183,19744
8192,19755
8198,19767
8202,19780
8204,19797
8204,20063
8202,20079
8198,20092
8192,20105
8183,20116
8172,20124
8160,20131
8146,20135
8130,20137
7893,20137
7877,20135
7863,20131
7851,20124
7840,20116
7831,20105
7825,20092
7821,20079
7819,20063
7819,19797
7821,19780
7825,19767
7831,19755
7840,19744
7851,19735
7863,19728
7877,19724
7893,19723
8130,19723
8146,19724
Z" /> 
<path style="fill:#840084; fill-opacity:1.0; 
stroke:#840084; stroke-width:0; stroke-opacity:1; 
stroke-linecap:round; stroke-linejoin:round;fill-rule:evenodd;"
d="M 3299,18802
3335,18809
3376,18826
3435,18850
3435,18850
3526,18911
3602,18988
3624,19020
3663,19078
3704,19178
3726,19285
3726,19393
3704,19500
3663,19600
3663,19600
3602,19691
3526,19768
3487,19793
3435,19828
3376,19852
3335,19869
3299,19877
3228,19891
3120,19891
3049,19877
3013,19869
2971,19852
2913,19828
2861,19793
2822,19768
2746,19691
2685,19600
2685,19600
2644,19500
2622,19393
2622,19285
2644,19178
2685,19078
2724,19020
2746,18988
2822,18911
2913,18850
2913,18850
2971,18826
3013,18809
3049,18802
3120,18788
3228,18788
3299,18802
Z" /> 
<path style="fill:#840084; fill-opacity:1.0; 
stroke:#840084; stroke-width:0; stroke-opacity:1; 
stroke-linecap:round; stroke-linejoin:round;fill-rule:evenodd;"
d="M 20228,18802
20264,18809
20306,18826
20364,18850
20364,18850
20455,18911
20532,18988
20553,19020
20592,19078
20633,19178
20655,19285
20655,19393
20633,19500
20592,19600
20592,19600
20532,19691
20455,19768
20416,19793
20364,19828
20306,19852
20264,19869
20228,19877
20157,19891
20049,19891
19978,19877
19942,19869
19901,19852
19842,19828
19790,19793
19751,19768
19675,19691
19614,19600
19614,19600
19573,19500
19552,19393
19552,19285
19573,19178
19614,19078
19653,19020
19675,18988
19751,18911
19842,18850
19842,18850
19901,18826
19942,18809
19978,18802
20049,18788
20157,18788
20228,18802
Z" /> 
<path style="fill:#840084; fill-opacity:1.0; 
stroke:#840084; stroke-width:0; stroke-opacity:1; 
stroke-linecap:round; stroke-linejoin:round;fill-rule:evenodd;"
d="M 7526,18937
7540,18941
7552,18947
7563,18956
7572,18967
7578,18979
7582,18993
7584,19009
7584,19275
7582,19292
7578,19305
7572,19317
7563,19328
7552,19337
7540,19344
7526,19348
7510,19349
7273,19349
7257,19348
7243,19344
7231,19337
7220,19328
7211,19317
7205,19305
7201,19292
7199,19275
7199,19009
7201,18993
7205,18979
7211,18967
7220,18956
7231,18947
7243,18941
7257,18937
7273,18935
7510,18935
7526,18937
Z" /> 
<path style="fill:#840084; fill-opacity:1.0; 
stroke:#840084; stroke-width:0; stroke-opacity:1; 
stroke-linecap:round; stroke-linejoin:round;fill-rule:evenodd;"
d="M 8146,18937
8160,18941
8172,18947
8183,18956
8192,18967
8198,18979
8202,18993
8204,19009
8204,19275
8202,19292
8198,19305
8192,19317
8183,19328
8172,19337
8160,19344
8146,19348
8130,19349
7893,19349
7877,19348
7863,19344
7851,19337
7840,19328
7831,19317
7825,19305
7821,19292
7819,19275
7819,19009
7821,18993
7825,18979
7831,18967
7840,18956
7851,18947
7863,18941
7877,18937
7893,18935
8130,18935
8146,18937
Z" /> 
<path style="fill:#840084; fill-opacity:1.0; 
stroke:#840084; stroke-width:0; stroke-opacity:1; 
stroke-linecap:round; stroke-linejoin:round;fill-rule:evenodd;"
d="M 12745,18455
12760,18459
12774,18467
12786,18477
12796,18489
12804,18503
12808,18518
12810,18537
12810,18960
12808,18979
12804,18994
12796,19008
12786,19020
12774,19030
12760,19038
12745,19042
12726,19044
12470,19044
12452,19042
12436,19038
12422,19030
12410,19020
12400,19008
12393,18994
12388,18979
12386,18960
12386,18537
12388,18518
12393,18503
12400,18489
12410,18477
12422,18467
12436,18459
12452,18455
12470,18453
12726,18453
12745,18455
Z" /> 
<path style="fill:#840084; fill-opacity:1.0; 
stroke:#840084; stroke-width:0; stroke-opacity:1; 
stroke-linecap:round; stroke-linejoin:round;fill-rule:evenodd;"
d="M 12006,18455
12022,18459
12036,18467
12048,18477
12058,18489
12066,18503
12070,18518
12072,18537
12072,18960
12070,18979
12066,18994
12058,19008
12048,19020
12036,19030
12022,19038
12006,19042
11988,19044
11732,19044
11714,19042
11698,19038
11684,19030
11672,19020
11662,19008
11654,18994
11650,18979
11648,18960
11648,18537
11650,18518
11654,18503
11662,18489
11672,18477
11684,18467
11698,18459
11714,18455
11732,18453
11988,18453
12006,18455
Z" /> 
<path style="fill:#840084; fill-opacity:1.0; 
stroke:#840084; stroke-width:0; stroke-opacity:1; 
stroke-linecap:round; stroke-linejoin:round;fill-rule:evenodd;"
d="M 10192,18934
9148,18934
9148,18414
10192,18414
10192,18934
Z" /> 
<path style="fill:#840084; fill-opacity:1.0; 
stroke:#840084; stroke-width:0; stroke-opacity:1; 
stroke-linecap:round; stroke-linejoin:round;fill-rule:evenodd;"
d="M 7526,18149
7540,18153
7552,18160
7563,18169
7572,18180
7578,18192
7582,18205
7584,18222
7584,18488
7582,18504
7578,18518
7572,18530
7563,18541
7552,18550
7540,18556
7526,18560
7510,18562
7273,18562
7257,18560
7243,18556
7231,18550
7220,18541
7211,18530
7205,18518
7201,18504
7199,18488
7199,18222
7201,18205
7205,18192
7211,18180
7220,18169
7231,18160
7243,18153
7257,18149
7273,18148
7510,18148
7526,18149
Z" /> 
<path style="fill:#840084; fill-opacity:1.0; 
stroke:#840084; stroke-width:0; stroke-opacity:1; 
stroke-linecap:round; stroke-linejoin:round;fill-rule:evenodd;"
d="M 8146,18149
8160,18153
8172,18160
8183,18169
8192,18180
8198,18192
8202,18205
8204,18222
8204,18488
8202,18504
8198,18518
8192,18530
8183,18541
8172,18550
8160,18556
8146,18560
8130,18562
7893,18562
7877,18560
7863,18556
7851,18550
7840,18541
7831,18530
7825,18518
7821,18504
7819,18488
7819,18222
7821,18205
7825,18192
7831,18180
7840,18169
7851,18160
7863,18153
7877,18149
7893,18148
8130,18148
8146,18149
Z" /> 
<path style="fill:#840084; fill-opacity:1.0; 
stroke:#840084; stroke-width:0; stroke-opacity:1; 
stroke-linecap:round; stroke-linejoin:round;fill-rule:evenodd;"
d="M 6788,17342
6797,17345
6806,17349
6813,17355
6819,17363
6824,17371
6827,17381
6828,17393
6828,18107
6827,18119
6824,18128
6819,18136
6813,18144
6806,18150
6797,18154
6788,18157
6776,18158
6584,18158
6572,18157
6562,18154
6554,18150
6546,18144
6540,18136
6536,18128
6533,18119
6532,18107
6532,17393
6533,17381
6536,17371
6540,17363
6546,17355
6554,17349
6562,17345
6572,17342
6584,17341
6776,17341
6788,17342
Z" /> 
<path style="fill:#840084; fill-opacity:1.0; 
stroke:#840084; stroke-width:0; stroke-opacity:1; 
stroke-linecap:round; stroke-linejoin:round;fill-rule:evenodd;"
d="M 6288,17342
6297,17345
6306,17349
6313,17355
6319,17363
6324,17371
6327,17381
6328,17393
6328,18107
6327,18119
6324,18128
6319,18136
6313,18144
6306,18150
6297,18154
6288,18157
6276,18158
6084,18158
6072,18157
6062,18154
6054,18150
6046,18144
6040,18136
6036,18128
6033,18119
6032,18107
6032,17393
6033,17381
6036,17371
6040,17363
6046,17355
6054,17349
6062,17345
6072,17342
6084,17341
6276,17341
6288,17342
Z" /> 
<path style="fill:#840084; fill-opacity:1.0; 
stroke:#840084; stroke-width:0; stroke-opacity:1; 
stroke-linecap:round; stroke-linejoin:round;fill-rule:evenodd;"
d="M 5788,17342
5797,17345
5806,17349
5813,17355
5819,17363
5824,17371
5827,17381
5828,17393
5828,18107
5827,18119
5824,18128
5819,18136
5813,18144
5806,18150
5797,18154
5788,18157
5776,18158
5584,18158
5572,18157
5562,18154
5554,18150
5546,18144
5540,18136
5536,18128
5533,18119
5532,18107
5532,17393
5533,17381
5536,17371
5540,17363
5546,17355
5554,17349
5562,17345
5572,17342
5584,17341
5776,17341
5788,17342
Z" /> 
<path style="fill:#840084; fill-opacity:1.0; 
stroke:#840084; stroke-width:0; stroke-opacity:1; 
stroke-linecap:round; stroke-linejoin:round;fill-rule:evenodd;"
d="M 5288,17342
5297,17345
5306,17349
5313,17355
5319,17363
5324,17371
5327,17381
5328,17393
5328,18107
5327,18119
5324,18128
5319,18136
5313,18144
5306,18150
5297,18154
5288,18157
5276,18158
5084,18158
5072,18157
5062,18154
5054,18150
5046,18144
5040,18136
5036,18128
5033,18119
5032,18107
5032,17393
5033,17381
5036,17371
5040,17363
5046,17355
5054,17349
5062,17345
5072,17342
5084,17341
5276,17341
5288,17342
Z" /> 
<path style="fill:#840084; fill-opacity:1.0; 
stroke:#840084; stroke-width:0; stroke-opacity:1; 
stroke-linecap:round; stroke-linejoin:round;fill-rule:evenodd;"
d="M 10192,17902
9896,17902
9896,17382
10192,17382
10192,17902
Z" /> 
<path style="fill:#840084; fill-opacity:1.0; 
stroke:#840084; stroke-width:0; stroke-opacity:1; 
stroke-linecap:round; stroke-linejoin:round;fill-rule:evenodd;"
d="M 9444,17902
9148,17902
9148,17382
9444,17382
9444,17902
Z" /> 
<path style="fill:#840084; fill-opacity:1.0; 
stroke:#840084; stroke-width:0; stroke-opacity:1; 
stroke-linecap:round; stroke-linejoin:round;fill-rule:evenodd;"
d="M 10186,16486
10201,16491
10215,16498
10227,16508
10237,16521
10245,16535
10249,16550
10251,16568
10251,16992
10249,17010
10245,17025
10237,17039
10227,17052
10215,17062
10201,17069
10186,17074
10167,17076
9911,17076
9893,17074
9877,17069
9863,17062
9851,17052
9841,17039
9834,17025
9829,17010
9827,16992
9827,16568
9829,16550
9834,16535
9841,16521
9851,16508
9863,16498
9877,16491
9893,16486
9911,16484
10167,16484
10186,16486
Z" /> 
<path style="fill:#840084; fill-opacity:1.0; 
stroke:#840084; stroke-width:0; stroke-opacity:1; 
stroke-linecap:round; stroke-linejoin:round;fill-rule:evenodd;"
d="M 9447,16486
9463,16491
9477,16498
9489,16508
9499,16521
9507,16535
9511,16550
9513,16568
9513,16992
9511,17010
9507,17025
9499,17039
9489,17052
9477,17062
9463,17069
9447,17074
9429,17076
9173,17076
9154,17074
9139,17069
9125,17062
9113,17052
9103,17039
9095,17025
9091,17010
9089,16992
9089,16568
9091,16550
9095,16535
9103,16521
9113,16508
9125,16498
9139,16491
9154,16486
9173,16484
9429,16484
9447,16486
Z" /> 
<path style="fill:#840084; fill-opacity:1.0; 
stroke:#840084; stroke-width:0; stroke-opacity:1; 
stroke-linecap:round; stroke-linejoin:round;fill-rule:evenodd;"
d="M 6670,15325
6683,15329
6696,15335
6706,15344
6715,15355
6722,15367
6726,15381
6727,15397
6727,15634
6726,15650
6722,15663
6715,15676
6706,15686
6696,15695
6683,15702
6670,15706
6654,15708
6387,15708
6371,15706
6358,15702
6345,15695
6334,15686
6326,15676
6319,15663
6315,15650
6313,15634
6313,15397
6315,15381
6319,15367
6326,15355
6334,15344
6345,15335
6358,15329
6371,15325
6387,15323
6654,15323
6670,15325
Z" /> 
<path style="fill:#840084; fill-opacity:1.0; 
stroke:#840084; stroke-width:0; stroke-opacity:1; 
stroke-linecap:round; stroke-linejoin:round;fill-rule:evenodd;"
d="M 3028,15197
3041,15201
3054,15207
3065,15216
3074,15227
3080,15239
3084,15253
3086,15269
3086,15535
3084,15552
3080,15565
3074,15577
3065,15588
3054,15597
3041,15604
3028,15608
3012,15609
2775,15609
2759,15608
2745,15604
2733,15597
2722,15588
2713,15577
2707,15565
2703,15552
2701,15535
2701,15269
2703,15253
2707,15239
2713,15227
2722,15216
2733,15207
2745,15201
2759,15197
2775,15195
3012,15195
3028,15197
Z" /> 
<path style="fill:#840084; fill-opacity:1.0; 
stroke:#840084; stroke-width:0; stroke-opacity:1; 
stroke-linecap:round; stroke-linejoin:round;fill-rule:evenodd;"
d="M 2408,15197
2421,15201
2434,15207
2445,15216
2453,15227
2460,15239
2464,15253
2466,15269
2466,15535
2464,15552
2460,15565
2453,15577
2445,15588
2434,15597
2421,15604
2408,15608
2392,15609
2155,15609
2139,15608
2125,15604
2113,15597
2102,15588
2093,15577
2087,15565
2083,15552
2081,15535
2081,15269
2083,15253
2087,15239
2093,15227
2102,15216
2113,15207
2125,15201
2139,15197
2155,15195
2392,15195
2408,15197
Z" /> 
<path style="fill:#840084; fill-opacity:1.0; 
stroke:#840084; stroke-width:0; stroke-opacity:1; 
stroke-linecap:round; stroke-linejoin:round;fill-rule:evenodd;"
d="M 4838,15501
3872,15501
3872,15028
4838,15028
4838,15501
Z" /> 
<path style="fill:#840084; fill-opacity:1.0; 
stroke:#840084; stroke-width:0; stroke-opacity:1; 
stroke-linecap:round; stroke-linejoin:round;fill-rule:evenodd;"
d="M 6670,14705
6683,14709
6696,14715
6706,14724
6715,14735
6722,14747
6726,14761
6727,14777
6727,15014
6726,15030
6722,15043
6715,15056
6706,15066
6696,15075
6683,15082
6670,15086
6654,15088
6387,15088
6371,15086
6358,15082
6345,15075
6334,15066
6326,15056
6319,15043
6315,15030
6313,15014
6313,14777
6315,14761
6319,14747
6326,14735
6334,14724
6345,14715
6358,14709
6371,14705
6387,14703
6654,14703
6670,14705
Z" /> 
<path style="fill:#840084; fill-opacity:1.0; 
stroke:#840084; stroke-width:0; stroke-opacity:1; 
stroke-linecap:round; stroke-linejoin:round;fill-rule:evenodd;"
d="M 3028,14409
3041,14413
3054,14420
3065,14429
3074,14440
3080,14452
3084,14465
3086,14482
3086,14748
3084,14764
3080,14778
3074,14790
3065,14801
3054,14810
3041,14816
3028,14820
3012,14822
2775,14822
2759,14820
2745,14816
2733,14810
2722,14801
2713,14790
2707,14778
2703,14764
2701,14748
2701,14482
2703,14465
2707,14452
2713,14440
2722,14429
2733,14420
2745,14413
2759,14409
2775,14408
3012,14408
3028,14409
Z" /> 
<path style="fill:#840084; fill-opacity:1.0; 
stroke:#840084; stroke-width:0; stroke-opacity:1; 
stroke-linecap:round; stroke-linejoin:round;fill-rule:evenodd;"
d="M 2408,14409
2421,14413
2434,14420
2445,14429
2453,14440
2460,14452
2464,14465
2466,14482
2466,14748
2464,14764
2460,14778
2453,14790
2445,14801
2434,14810
2421,14816
2408,14820
2392,14822
2155,14822
2139,14820
2125,14816
2113,14810
2102,14801
2093,14790
2087,14778
2083,14764
2081,14748
2081,14482
2083,14465
2087,14452
2093,14440
2102,14429
2113,14420
2125,14413
2139,14409
2155,14408
2392,14408
2408,14409
Z" /> 
<path style="fill:#840084; fill-opacity:1.0; 
stroke:#840084; stroke-width:0; stroke-opacity:1; 
stroke-linecap:round; stroke-linejoin:round;fill-rule:evenodd;"
d="M 2408,13622
2421,13626
2434,13632
2445,13641
2453,13652
2460,13664
2464,13678
2466,13694
2466,13960
2464,13977
2460,13990
2453,14002
2445,14013
2434,14022
2421,14029
2408,14033
2392,14034
2155,14034
2139,14033
2125,14029
2113,14022
2102,14013
2093,14002
2087,13990
2083,13977
2081,13960
2081,13694
2083,13678
2087,13664
2093,13652
2102,13641
2113,13632
2125,13626
2139,13622
2155,13620
2392,13620
2408,13622
Z" /> 
<path style="fill:#840084; fill-opacity:1.0; 
stroke:#840084; stroke-width:0; stroke-opacity:1; 
stroke-linecap:round; stroke-linejoin:round;fill-rule:evenodd;"
d="M 3028,13622
3041,13626
3054,13632
3065,13641
3074,13652
3080,13664
3084,13678
3086,13694
3086,13960
3084,13977
3080,13990
3074,14002
3065,14013
3054,14022
3041,14029
3028,14033
3012,14034
2775,14034
2759,14033
2745,14029
2733,14022
2722,14013
2713,14002
2707,13990
2703,13977
2701,13960
2701,13694
2703,13678
2707,13664
2713,13652
2722,13641
2733,13632
2745,13626
2759,13622
2775,13620
3012,13620
3028,13622
Z" /> 
<path style="fill:#840084; fill-opacity:1.0; 
stroke:#840084; stroke-width:0; stroke-opacity:1; 
stroke-linecap:round; stroke-linejoin:round;fill-rule:evenodd;"
d="M 4838,13808
3872,13808
3872,13335
4838,13335
4838,13808
Z" /> 
<path style="fill:#840084; fill-opacity:1.0; 
stroke:#840084; stroke-width:0; stroke-opacity:1; 
stroke-linecap:round; stroke-linejoin:round;fill-rule:evenodd;"
d="M 11972,9776
11972,9776
11972,9776
12180,9862
12367,9987
12526,10146
12651,10334
12651,10334
12737,10541
12781,10762
12781,10987
12737,11208
12737,11208
12651,11416
12526,11603
12367,11762
12180,11887
12180,11887
12180,11887
11972,11973
11751,12017
11526,12017
11305,11973
11098,11887
11098,11887
11098,11887
10910,11762
10751,11603
10626,11416
10540,11208
10540,11208
10496,10987
10496,10762
10540,10541
10626,10334
10626,10334
10751,10146
10910,9987
11098,9862
11305,9776
11305,9776
11305,9776
11526,9732
11751,9732
11972,9776
Z" /> 
<path style="fill:#840084; fill-opacity:1.0; 
stroke:#840084; stroke-width:0; stroke-opacity:1; 
stroke-linecap:round; stroke-linejoin:round;fill-rule:evenodd;"
d="M 9839,11819
8540,11819
8540,11268
9839,11268
9839,11819
Z" /> 
<path style="fill:#840084; fill-opacity:1.0; 
stroke:#840084; stroke-width:0; stroke-opacity:1; 
stroke-linecap:round; stroke-linejoin:round;fill-rule:evenodd;"
d="M 14737,11819
13438,11819
13438,11268
14737,11268
14737,11819
Z" /> 
<path style="fill:#840084; fill-opacity:1.0; 
stroke:#840084; stroke-width:0; stroke-opacity:1; 
stroke-linecap:round; stroke-linejoin:round;fill-rule:evenodd;"
d="M 4789,11662
4315,11662
4315,11189
4789,11189
4789,11662
Z" /> 
<path style="fill:#840084; fill-opacity:1.0; 
stroke:#840084; stroke-width:0; stroke-opacity:1; 
stroke-linecap:round; stroke-linejoin:round;fill-rule:evenodd;"
d="M 14737,11150
13438,11150
13438,10599
14737,10599
14737,11150
Z" /> 
<path style="fill:#840084; fill-opacity:1.0; 
stroke:#840084; stroke-width:0; stroke-opacity:1; 
stroke-linecap:round; stroke-linejoin:round;fill-rule:evenodd;"
d="M 9839,11150
8540,11150
8540,10599
9839,10599
9839,11150
Z" /> 
<path style="fill:#840084; fill-opacity:1.0; 
stroke:#840084; stroke-width:0; stroke-opacity:1; 
stroke-linecap:round; stroke-linejoin:round;fill-rule:evenodd;"
d="M 4789,10560
4315,10560
4315,10087
4789,10087
4789,10560
Z" /> 
<path style="fill:#840084; fill-opacity:1.0; 
stroke:#840084; stroke-width:0; stroke-opacity:1; 
stroke-linecap:round; stroke-linejoin:round;fill-rule:evenodd;"
d="M 3689,9892
3705,9896
3719,9904
3731,9914
3741,9926
3749,9940
3753,9955
3755,9974
3755,10397
3753,10416
3749,10431
3741,10445
3731,10457
3719,10467
3705,10475
3689,10479
3671,10481
3415,10481
3397,10479
3381,10475
3367,10467
3355,10457
3345,10445
3337,10431
3333,10416
3331,10397
3331,9974
3333,9955
3337,9940
3345,9926
3355,9914
3367,9904
3381,9896
3397,9892
3415,9890
3671,9890
3689,9892
Z" /> 
<path style="fill:#840084; fill-opacity:1.0; 
stroke:#840084; stroke-width:0; stroke-opacity:1; 
stroke-linecap:round; stroke-linejoin:round;fill-rule:evenodd;"
d="M 2951,9892
2967,9896
2981,9904
2993,9914
3003,9926
3010,9940
3015,9955
3017,9974
3017,10397
3015,10416
3010,10431
3003,10445
2993,10457
2981,10467
2967,10475
2951,10479
2933,10481
2677,10481
2658,10479
2643,10475
2629,10467
2617,10457
2607,10445
2599,10431
2595,10416
2593,10397
2593,9974
2595,9955
2599,9940
2607,9926
2617,9914
2629,9904
2643,9896
2658,9892
2677,9890
2933,9890
2951,9892
Z" /> 
<path style="fill:#840084; fill-opacity:1.0; 
stroke:#840084; stroke-width:0; stroke-opacity:1; 
stroke-linecap:round; stroke-linejoin:round;fill-rule:evenodd;"
d="M 9839,10481
8540,10481
8540,9930
9839,9930
9839,10481
Z" /> 
<path style="fill:#840084; fill-opacity:1.0; 
stroke:#840084; stroke-width:0; stroke-opacity:1; 
stroke-linecap:round; stroke-linejoin:round;fill-rule:evenodd;"
d="M 14737,10481
13438,10481
13438,9930
14737,9930
14737,10481
Z" /> 
<path style="fill:#840084; fill-opacity:1.0; 
stroke:#840084; stroke-width:0; stroke-opacity:1; 
stroke-linecap:round; stroke-linejoin:round;fill-rule:evenodd;"
d="M 4585,9262
4600,9266
4614,9274
4627,9284
4637,9296
4644,9310
4649,9326
4651,9344
4651,9600
4649,9618
4644,9634
4637,9648
4627,9660
4614,9670
4600,9678
4585,9682
4567,9684
4143,9684
4125,9682
4110,9678
4096,9670
4083,9660
4073,9648
4066,9634
4061,9618
4059,9600
4059,9344
4061,9326
4066,9310
4073,9296
4083,9284
4096,9274
4110,9266
4125,9262
4143,9260
4567,9260
4585,9262
Z" /> 
<path style="fill:#840084; fill-opacity:1.0; 
stroke:#840084; stroke-width:0; stroke-opacity:1; 
stroke-linecap:round; stroke-linejoin:round;fill-rule:evenodd;"
d="M 3676,9556
3420,9556
3420,9201
3676,9201
3676,9556
Z" /> 
<path style="fill:#840084; fill-opacity:1.0; 
stroke:#840084; stroke-width:0; stroke-opacity:1; 
stroke-linecap:round; stroke-linejoin:round;fill-rule:evenodd;"
d="M 2928,9556
2672,9556
2672,9201
2928,9201
2928,9556
Z" /> 
<path style="fill:#840084; fill-opacity:1.0; 
stroke:#840084; stroke-width:0; stroke-opacity:1; 
stroke-linecap:round; stroke-linejoin:round;fill-rule:evenodd;"
d="M 4585,8524
4600,8528
4614,8536
4627,8546
4637,8558
4644,8572
4649,8587
4651,8606
4651,8862
4649,8880
4644,8895
4637,8909
4627,8922
4614,8932
4600,8939
4585,8944
4567,8946
4143,8946
4125,8944
4110,8939
4096,8932
4083,8922
4073,8909
4066,8895
4061,8880
4059,8862
4059,8606
4061,8587
4066,8572
4073,8558
4083,8546
4096,8536
4110,8528
4125,8524
4143,8522
4567,8522
4585,8524
Z" /> 
<path style="fill:#840084; fill-opacity:1.0; 
stroke:#840084; stroke-width:0; stroke-opacity:1; 
stroke-linecap:round; stroke-linejoin:round;fill-rule:evenodd;"
d="M 2928,8611
2672,8611
2672,8256
2928,8256
2928,8611
Z" /> 
<path style="fill:#840084; fill-opacity:1.0; 
stroke:#840084; stroke-width:0; stroke-opacity:1; 
stroke-linecap:round; stroke-linejoin:round;fill-rule:evenodd;"
d="M 3302,8611
3046,8611
3046,8256
3302,8256
3302,8611
Z" /> 
<path style="fill:#840084; fill-opacity:1.0; 
stroke:#840084; stroke-width:0; stroke-opacity:1; 
stroke-linecap:round; stroke-linejoin:round;fill-rule:evenodd;"
d="M 3676,8611
3420,8611
3420,8256
3676,8256
3676,8611
Z" /> 
<path style="fill:#840084; fill-opacity:1.0; 
stroke:#840084; stroke-width:0; stroke-opacity:1; 
stroke-linecap:round; stroke-linejoin:round;fill-rule:evenodd;"
d="M 5025,7922
4355,7922
4355,5559
5025,5559
5025,7922
Z" /> 
<path style="fill:#840084; fill-opacity:1.0; 
stroke:#840084; stroke-width:0; stroke-opacity:1; 
stroke-linecap:round; stroke-linejoin:round;fill-rule:evenodd;"
d="M 3174,7922
2504,7922
2504,5559
3174,5559
3174,7922
Z" /> 
<path style="fill:#840084; fill-opacity:1.0; 
stroke:#840084; stroke-width:0; stroke-opacity:1; 
stroke-linecap:round; stroke-linejoin:round;fill-rule:evenodd;"
d="M 8332,7725
7859,7725
7859,7252
8332,7252
8332,7725
Z" /> 
<path style="fill:#840084; fill-opacity:1.0; 
stroke:#840084; stroke-width:0; stroke-opacity:1; 
stroke-linecap:round; stroke-linejoin:round;fill-rule:evenodd;"
d="M 12646,7037
12661,7042
12675,7049
12688,7060
12698,7072
12705,7086
12710,7101
12712,7119
12712,7543
12710,7561
12705,7577
12698,7591
12688,7603
12675,7613
12661,7620
12646,7625
12628,7627
12372,7627
12353,7625
12338,7620
12324,7613
12312,7603
12302,7591
12294,7577
12290,7561
12288,7543
12288,7119
12290,7101
12294,7086
12302,7072
12312,7060
12324,7049
12338,7042
12353,7037
12372,7036
12628,7036
12646,7037
Z" /> 
<path style="fill:#840084; fill-opacity:1.0; 
stroke:#840084; stroke-width:0; stroke-opacity:1; 
stroke-linecap:round; stroke-linejoin:round;fill-rule:evenodd;"
d="M 11908,7037
11923,7042
11937,7049
11950,7060
11960,7072
11967,7086
11972,7101
11974,7119
11974,7543
11972,7561
11967,7577
11960,7591
11950,7603
11937,7613
11923,7620
11908,7625
11890,7627
11633,7627
11615,7625
11600,7620
11586,7613
11574,7603
11563,7591
11556,7577
11551,7561
11550,7543
11550,7119
11551,7101
11556,7086
11563,7072
11574,7060
11586,7049
11600,7042
11615,7037
11633,7036
11890,7036
11908,7037
Z" /> 
<path style="fill:#840084; fill-opacity:1.0; 
stroke:#840084; stroke-width:0; stroke-opacity:1; 
stroke-linecap:round; stroke-linejoin:round;fill-rule:evenodd;"
d="M 14533,6840
14059,6840
14059,6366
14533,6366
14533,6840
Z" /> 
<path style="fill:#840084; fill-opacity:1.0; 
stroke:#840084; stroke-width:0; stroke-opacity:1; 
stroke-linecap:round; stroke-linejoin:round;fill-rule:evenodd;"
d="M 13443,6407
13459,6412
13473,6420
13485,6430
13495,6442
13503,6456
13507,6471
13509,6489
13509,6746
13507,6764
13503,6779
13495,6793
13485,6806
13473,6816
13459,6823
13443,6828
13425,6830
13001,6830
12983,6828
12968,6823
12954,6816
12942,6806
12932,6793
12924,6779
12919,6764
12918,6746
12918,6489
12919,6471
12924,6456
12932,6442
12942,6430
12954,6420
12968,6412
12983,6407
13001,6406
13425,6406
13443,6407
Z" /> 
<path style="fill:#840084; fill-opacity:1.0; 
stroke:#840084; stroke-width:0; stroke-opacity:1; 
stroke-linecap:round; stroke-linejoin:round;fill-rule:evenodd;"
d="M 12535,6702
12278,6702
12278,6347
12535,6347
12535,6702
Z" /> 
<path style="fill:#840084; fill-opacity:1.0; 
stroke:#840084; stroke-width:0; stroke-opacity:1; 
stroke-linecap:round; stroke-linejoin:round;fill-rule:evenodd;"
d="M 11787,6702
11530,6702
11530,6347
11787,6347
11787,6702
Z" /> 
<path style="fill:#840084; fill-opacity:1.0; 
stroke:#840084; stroke-width:0; stroke-opacity:1; 
stroke-linecap:round; stroke-linejoin:round;fill-rule:evenodd;"
d="M 6495,6053
6510,6058
6524,6065
6536,6075
6546,6088
6554,6102
6558,6117
6560,6135
6560,6559
6558,6577
6554,6592
6546,6606
6536,6619
6524,6629
6510,6636
6495,6641
6476,6643
6220,6643
6202,6641
6186,6636
6172,6629
6160,6619
6150,6606
6143,6592
6138,6577
6136,6559
6136,6135
6138,6117
6143,6102
6150,6088
6160,6075
6172,6065
6186,6058
6202,6053
6220,6051
6476,6051
6495,6053
Z" /> 
<path style="fill:#840084; fill-opacity:1.0; 
stroke:#840084; stroke-width:0; stroke-opacity:1; 
stroke-linecap:round; stroke-linejoin:round;fill-rule:evenodd;"
d="M 7233,6053
7248,6058
7262,6065
7274,6075
7284,6088
7292,6102
7297,6117
7298,6135
7298,6559
7297,6577
7292,6592
7284,6606
7274,6619
7262,6629
7248,6636
7233,6641
7215,6643
6958,6643
6940,6641
6925,6636
6911,6629
6898,6619
6888,6606
6881,6592
6876,6577
6874,6559
6874,6135
6876,6117
6881,6102
6888,6088
6898,6075
6911,6065
6925,6058
6940,6053
6958,6051
7215,6051
7233,6053
Z" /> 
<path style="fill:#840084; fill-opacity:1.0; 
stroke:#840084; stroke-width:0; stroke-opacity:1; 
stroke-linecap:round; stroke-linejoin:round;fill-rule:evenodd;"
d="M 8332,6623
7859,6623
7859,6150
8332,6150
8332,6623
Z" /> 
<path style="fill:#840084; fill-opacity:1.0; 
stroke:#840084; stroke-width:0; stroke-opacity:1; 
stroke-linecap:round; stroke-linejoin:round;fill-rule:evenodd;"
d="M 13443,5669
13459,5674
13473,5681
13485,5691
13495,5704
13503,5718
13507,5733
13509,5751
13509,6008
13507,6026
13503,6041
13495,6055
13485,6067
13473,6078
13459,6085
13443,6090
13425,6091
13001,6091
12983,6090
12968,6085
12954,6078
12942,6067
12932,6055
12924,6041
12919,6026
12918,6008
12918,5751
12919,5733
12924,5718
12932,5704
12942,5691
12954,5681
12968,5674
12983,5669
13001,5667
13425,5667
13443,5669
Z" /> 
<path style="fill:#840084; fill-opacity:1.0; 
stroke:#840084; stroke-width:0; stroke-opacity:1; 
stroke-linecap:round; stroke-linejoin:round;fill-rule:evenodd;"
d="M 12535,5757
12278,5757
12278,5402
12535,5402
12535,5757
Z" /> 
<path style="fill:#840084; fill-opacity:1.0; 
stroke:#840084; stroke-width:0; stroke-opacity:1; 
stroke-linecap:round; stroke-linejoin:round;fill-rule:evenodd;"
d="M 12161,5757
11904,5757
11904,5402
12161,5402
12161,5757
Z" /> 
<path style="fill:#840084; fill-opacity:1.0; 
stroke:#840084; stroke-width:0; stroke-opacity:1; 
stroke-linecap:round; stroke-linejoin:round;fill-rule:evenodd;"
d="M 11787,5757
11530,5757
11530,5402
11787,5402
11787,5757
Z" /> 
<path style="fill:#840084; fill-opacity:1.0; 
stroke:#840084; stroke-width:0; stroke-opacity:1; 
stroke-linecap:round; stroke-linejoin:round;fill-rule:evenodd;"
d="M 8128,5325
8144,5329
8158,5337
8170,5347
8180,5359
8188,5373
8192,5389
8194,5407
8194,5663
8192,5681
8188,5697
8180,5711
8170,5723
8158,5733
8144,5741
8128,5745
8110,5747
7687,5747
7668,5745
7653,5741
7639,5733
7627,5723
7617,5711
7609,5697
7604,5681
7603,5663
7603,5407
7604,5389
7609,5373
7617,5359
7627,5347
7639,5337
7653,5329
7668,5325
7687,5323
8110,5323
8128,5325
Z" /> 
<path style="fill:#840084; fill-opacity:1.0; 
stroke:#840084; stroke-width:0; stroke-opacity:1; 
stroke-linecap:round; stroke-linejoin:round;fill-rule:evenodd;"
d="M 14533,5737
14059,5737
14059,5264
14533,5264
14533,5737
Z" /> 
<path style="fill:#840084; fill-opacity:1.0; 
stroke:#840084; stroke-width:0; stroke-opacity:1; 
stroke-linecap:round; stroke-linejoin:round;fill-rule:evenodd;"
d="M 7220,5619
6963,5619
6963,5264
7220,5264
7220,5619
Z" /> 
<path style="fill:#840084; fill-opacity:1.0; 
stroke:#840084; stroke-width:0; stroke-opacity:1; 
stroke-linecap:round; stroke-linejoin:round;fill-rule:evenodd;"
d="M 6472,5619
6215,5619
6215,5264
6472,5264
6472,5619
Z" /> 
<path style="fill:#840084; fill-opacity:1.0; 
stroke:#840084; stroke-width:0; stroke-opacity:1; 
stroke-linecap:round; stroke-linejoin:round;fill-rule:evenodd;"
d="M 13686,5068
13016,5068
13016,2705
13686,2705
13686,5068
Z" /> 
<path style="fill:#840084; fill-opacity:1.0; 
stroke:#840084; stroke-width:0; stroke-opacity:1; 
stroke-linecap:round; stroke-linejoin:round;fill-rule:evenodd;"
d="M 11836,5068
11166,5068
11166,2705
11836,2705
11836,5068
Z" /> 
<path style="fill:#840084; fill-opacity:1.0; 
stroke:#840084; stroke-width:0; stroke-opacity:1; 
stroke-linecap:round; stroke-linejoin:round;fill-rule:evenodd;"
d="M 8128,4587
8144,4591
8158,4599
8170,4609
8180,4621
8188,4635
8192,4650
8194,4669
8194,4925
8192,4943
8188,4958
8180,4972
8170,4985
8158,4995
8144,5002
8128,5007
8110,5009
7687,5009
7668,5007
7653,5002
7639,4995
7627,4985
7617,4972
7609,4958
7604,4943
7603,4925
7603,4669
7604,4650
7609,4635
7617,4621
7627,4609
7639,4599
7653,4591
7668,4587
7687,4585
8110,4585
8128,4587
Z" /> 
<path style="fill:#840084; fill-opacity:1.0; 
stroke:#840084; stroke-width:0; stroke-opacity:1; 
stroke-linecap:round; stroke-linejoin:round;fill-rule:evenodd;"
d="M 6846,4674
6589,4674
6589,4319
6846,4319
6846,4674
Z" /> 
<path style="fill:#840084; fill-opacity:1.0; 
stroke:#840084; stroke-width:0; stroke-opacity:1; 
stroke-linecap:round; stroke-linejoin:round;fill-rule:evenodd;"
d="M 7220,4674
6963,4674
6963,4319
7220,4319
7220,4674
Z" /> 
<path style="fill:#840084; fill-opacity:1.0; 
stroke:#840084; stroke-width:0; stroke-opacity:1; 
stroke-linecap:round; stroke-linejoin:round;fill-rule:evenodd;"
d="M 6472,4674
6215,4674
6215,4319
6472,4319
6472,4674
Z" /> 
<path style="fill:#840084; fill-opacity:1.0; 
stroke:#840084; stroke-width:0; stroke-opacity:1; 
stroke-linecap:round; stroke-linejoin:round;fill-rule:evenodd;"
d="M 8568,3985
7898,3985
7898,1622
8568,1622
8568,3985
Z" /> 
<path style="fill:#840084; fill-opacity:1.0; 
stroke:#840084; stroke-width:0; stroke-opacity:1; 
stroke-linecap:round; stroke-linejoin:round;fill-rule:evenodd;"
d="M 6718,3985
6048,3985
6048,1622
6718,1622
6718,3985
Z" /> 
<path style="fill:#840084; fill-opacity:1.0; 
stroke:#840084; stroke-width:0; stroke-opacity:1; 
stroke-linecap:round; stroke-linejoin:round;fill-rule:evenodd;"
d="M 20228,1873
20264,1880
20306,1897
20364,1921
20364,1921
20455,1982
20532,2058
20570,2116
20592,2149
20633,2249
20655,2356
20655,2464
20633,2571
20592,2671
20592,2671
20532,2762
20455,2838
20394,2879
20364,2899
20306,2923
20264,2940
20228,2947
20157,2962
20049,2962
19978,2947
19942,2940
19901,2923
19842,2899
19812,2879
19751,2838
19675,2762
19614,2671
19614,2671
19573,2571
19552,2464
19552,2356
19573,2249
19614,2149
19636,2116
19675,2058
19751,1982
19842,1921
19842,1921
19901,1897
19942,1880
19978,1873
20049,1858
20157,1858
20228,1873
Z" /> 
<path style="fill:#840084; fill-opacity:1.0; 
stroke:#840084; stroke-width:0; stroke-opacity:1; 
stroke-linecap:round; stroke-linejoin:round;fill-rule:evenodd;"
d="M 3299,1873
3335,1880
3376,1897
3435,1921
3435,1921
3526,1982
3602,2058
3641,2116
3663,2149
3704,2249
3726,2356
3726,2464
3704,2571
3663,2671
3663,2671
3602,2762
3526,2838
3465,2879
3435,2899
3376,2923
3335,2940
3299,2947
3228,2962
3120,2962
3049,2947
3013,2940
2971,2923
2913,2899
2883,2879
2822,2838
2746,2762
2685,2671
2685,2671
2644,2571
2622,2464
2622,2356
2644,2249
2685,2149
2707,2116
2746,2058
2822,1982
2913,1921
2913,1921
2971,1897
3013,1880
3049,1873
3120,1858
3228,1858
3299,1873
Z" /> 
<path style="fill:#840084; fill-opacity:1.0; 
stroke:#840084; stroke-width:0; stroke-opacity:1; 
stroke-linecap:round; stroke-linejoin:round;fill-rule:evenodd;"
d="M 12977,2174
12268,2174
12268,1465
12977,1465
12977,2174
Z" /> 
<path style="fill:#840084; fill-opacity:1.0; 
stroke:#840084; stroke-width:0; stroke-opacity:1; 
stroke-linecap:round; stroke-linejoin:round;fill-rule:evenodd;"
d="M 11666,1467
11692,1470
11759,1490
11821,1523
11835,1535
11875,1567
11908,1607
11919,1621
11952,1683
11972,1750
11979,1819
11972,1889
11952,1956
11919,2017
11908,2032
11875,2071
11835,2104
11821,2116
11759,2149
11692,2169
11666,2172
11640,2174
11605,2174
11579,2172
11553,2169
11486,2149
11425,2116
11411,2104
11371,2071
11338,2032
11326,2017
11293,1956
11273,1889
11266,1819
11273,1750
11293,1683
11326,1621
11338,1607
11371,1567
11411,1535
11425,1523
11486,1490
11553,1470
11579,1467
11605,1465
11640,1465
11666,1467
Z" /> 
<path style="fill:#840084; fill-opacity:1.0; 
stroke:#840084; stroke-width:0; stroke-opacity:1; 
stroke-linecap:round; stroke-linejoin:round;fill-rule:evenodd;"
d="M 10666,1467
10692,1470
10759,1490
10821,1523
10835,1535
10875,1567
10908,1607
10919,1621
10952,1683
10972,1750
10979,1819
10972,1889
10952,1956
10919,2017
10908,2032
10875,2071
10835,2104
10821,2116
10759,2149
10692,2169
10666,2172
10640,2174
10605,2174
10579,2172
10553,2169
10486,2149
10425,2116
10411,2104
10371,2071
10338,2032
10326,2017
10293,1956
10273,1889
10266,1819
10273,1750
10293,1683
10326,1621
10338,1607
10371,1567
10411,1535
10425,1523
10486,1490
10553,1470
10579,1467
10605,1465
10640,1465
10666,1467
Z" /> 
</g>
<g style="fill:#000000; fill-opacity:1.0; 
stroke:#000000; stroke-width:0; stroke-opacity:1; 
stroke-linecap:round; stroke-linejoin:round;">
</g>
<g style="fill:#FFEF00; fill-opacity:1.0; 
stroke:#FFEF00; stroke-width:0; stroke-opacity:1; 
stroke-linecap:round; stroke-linejoin:round;">
</g>
<g style="fill:#FFEF00; fill-opacity:1.0; 
stroke:#FFEF00; stroke-width:39.3701; stroke-opacity:1; 
stroke-linecap:round; stroke-linejoin:round;">
</g>
<g style="fill:#FFEF00; fill-opacity:0.0; 
stroke:#FFEF00; stroke-width:39.3701; stroke-opacity:1; 
stroke-linecap:round; stroke-linejoin:round;">
<path d="M2780 9949
L3568 9949
" />
<path d="M2780 10422
L2780 9949
" />
<path d="M3568 10422
L2780 10422
" />
<path d="M3568 9949
L3568 10422
" />
<path d="M4591 8709
L4591 9497
" />
<path d="M4119 8709
L4591 8709
" />
<path d="M4119 9497
L4119 8709
" />
<path d="M4591 9497
L4119 9497
" />
<path d="M9099 17812
L10241 17812
" />
<path d="M10241 17812
L10241 18504
" />
<path d="M9276 18504
L10241 18504
" />
<path d="M9099 17812
L9099 18327
" />
<path d="M9276 18504
L9099 18327
" />
<path d="M11737 7095
L12524 7095
" />
<path d="M11737 7567
L11737 7095
" />
<path d="M12524 7567
L11737 7567
" />
<path d="M12524 7095
L12524 7567
" />
<path d="M6324 6111
L7111 6111
" />
<path d="M6324 6583
L6324 6111
" />
<path d="M7111 6583
L6324 6583
" />
<path d="M7111 6111
L7111 6583
" />
<path d="M11639 5067
L12426 5067
" />
<path d="M11245 4674
L11639 5067
" />
<path d="M11245 3886
L11245 4674
" />
<path d="M13213 5067
L12426 5067
" />
<path d="M13607 4674
L13213 5067
" />
<path d="M13607 3886
L13607 4674
" />
<path d="M13213 2705
L12426 2705
" />
<path d="M13607 3099
L13213 2705
" />
<path d="M13607 3886
L13607 3099
" />
<path d="M11639 2705
L12426 2705
" />
<path d="M11245 3099
L11639 2705
" />
<path d="M11245 3886
L11245 3099
" />
<path d="M8095 1623
L7308 1623
" />
<path d="M8489 2016
L8095 1623
" />
<path d="M8489 2804
L8489 2016
" />
<path d="M6520 1623
L7308 1623
" />
<path d="M6127 2016
L6520 1623
" />
<path d="M6127 2804
L6127 2016
" />
<path d="M6520 3985
L7308 3985
" />
<path d="M6127 3591
L6520 3985
" />
<path d="M6127 2804
L6127 3591
" />
<path d="M8095 3985
L7308 3985
" />
<path d="M8489 3591
L8095 3985
" />
<path d="M8489 2804
L8489 3591
" />
<path d="M4552 5560
L3764 5560
" />
<path d="M4946 5953
L4552 5560
" />
<path d="M4946 6741
L4946 5953
" />
<path d="M2977 5560
L3764 5560
" />
<path d="M2583 5953
L2977 5560
" />
<path d="M2583 6741
L2583 5953
" />
<path d="M2977 7922
L3764 7922
" />
<path d="M2583 7528
L2977 7922
" />
<path d="M2583 6741
L2583 7528
" />
<path d="M4552 7922
L3764 7922
" />
<path d="M4946 7528
L4552 7922
" />
<path d="M4946 6741
L4946 7528
" />
<path d="M14296 5953
L14296 5756
" />
<path d="M14453 5953
L14296 6190
" />
<path d="M14139 5953
L14453 5953
" />
<path d="M14296 6190
L14139 5953
" />
<path d="M14296 6190
L14513 6190
" />
<path d="M14296 6190
L14079 6190
" />
<path d="M14296 6347
L14296 6190
" />
<path d="M14650 6603
L13942 6603
" />
<path d="M14650 5501
L14650 6603
" />
<path d="M13942 5501
L14650 5501
" />
<path d="M13942 6603
L13942 5501
" />
<path d="M7741 7489
L7741 6386
" />
<path d="M7741 6386
L8450 6386
" />
<path d="M8450 6386
L8450 7489
" />
<path d="M8450 7489
L7741 7489
" />
<path d="M8095 7233
L8095 7075
" />
<path d="M8095 7075
L7879 7075
" />
<path d="M8095 7075
L8312 7075
" />
<path d="M8095 7075
L7938 6839
" />
<path d="M7938 6839
L8253 6839
" />
<path d="M8253 6839
L8095 7075
" />
<path d="M8095 6839
L8095 6642
" />
<path d="M4198 11426
L4198 10323
" />
<path d="M4198 10323
L4906 10323
" />
<path d="M4906 10323
L4906 11426
" />
<path d="M4906 11426
L4198 11426
" />
<path d="M4552 11170
L4552 11012
" />
<path d="M4552 11012
L4335 11012
" />
<path d="M4552 11012
L4768 11012
" />
<path d="M4552 11012
L4394 10776
" />
<path d="M4394 10776
L4709 10776
" />
<path d="M4709 10776
L4552 11012
" />
<path d="M4552 10776
L4552 10579
" />
<path d="M13450 5855
L13450 6642
" />
<path d="M12977 5855
L13450 5855
" />
<path d="M12977 6642
L12977 5855
" />
<path d="M13450 6642
L12977 6642
" />
<path d="M10064 17016
L9276 17016
" />
<path d="M10064 16544
L10064 17016
" />
<path d="M9276 16544
L10064 16544
" />
<path d="M9276 17016
L9276 16544
" />
<path d="M8135 4772
L8135 5560
" />
<path d="M7662 4772
L8135 4772
" />
<path d="M7662 5560
L7662 4772
" />
<path d="M8135 5560
L7662 5560
" />
<path d="M13056 10205
L14119 10205
" />
<path d="M14119 10875
L13056 10875
" />
<path d="M13056 11544
L14119 11544
" />
<path d="M10221 11544
L9198 11544
" />
<path d="M9198 10875
L10221 10875
" />
<path d="M10221 10205
L9198 10205
" />
<path d="M13056 10166
L13056 11583
" />
<path d="M10221 11583
L10221 10166
" />
<path d="M11639 12449.9 A1574.8 1574.8 0.0 0 0 13066.3 11540.6 " />
<path d="M10211.8 11540.6 A1574.8 1574.8 0.0 0 0 11639 12449.9 " />
<path d="M11639 9300.24 A1574.8 1574.8 0.0 0 0 10211.8 10209.5 " />
<path d="M13066.3 10209.5 A1574.8 1574.8 0.0 0 0 11639 9300.24 " />
<path d="M8016 20087
L7387 20087
" />
<path d="M8016 19772
L8016 20087
" />
<path d="M7387 19772
L8016 19772
" />
<path d="M7387 20087
L7387 19772
" />
<path d="M6678 15520
L6363 15520
" />
<path d="M6363 15520
L6363 14890
" />
<path d="M6363 14890
L6678 14890
" />
<path d="M6678 14890
L6678 15520
" />
<path d="M12623 18512
L12623 18985
" />
<path d="M12623 18985
L11835 18985
" />
<path d="M11835 18985
L11835 18512
" />
<path d="M11835 18512
L12623 18512
" />
<path d="M10404 20430
L10154 20180
" />
<path d="M13154 20430
L10404 20430
" />
<path d="M13154 19430
L13154 20430
" />
<path d="M10154 19430
L13154 19430
" />
<path d="M10154 20180
L10154 19430
" />
<path d="M13123 1569
L13123 2319
" />
<path d="M13123 2319
L10123 2319
" />
<path d="M10123 2319
L10123 1319
" />
<path d="M10123 1319
L12873 1319
" />
<path d="M12873 1319
L13123 1569
" />
<path d="M7387 18512
L7387 18197
" />
<path d="M7387 18197
L8016 18197
" />
<path d="M8016 18197
L8016 18512
" />
<path d="M8016 18512
L7387 18512
" />
<path d="M8016 18985
L8016 19300
" />
<path d="M8016 19300
L7387 19300
" />
<path d="M7387 19300
L7387 18985
" />
<path d="M7387 18985
L8016 18985
" />
<path d="M2268 15560
L2268 15245
" />
<path d="M2268 15245
L2898 15245
" />
<path d="M2898 15245
L2898 15560
" />
<path d="M2898 15560
L2268 15560
" />
<path d="M2898 14772
L2268 14772
" />
<path d="M2898 14457
L2898 14772
" />
<path d="M2268 14457
L2898 14457
" />
<path d="M2268 14772
L2268 14457
" />
<path d="M2268 13985
L2268 13670
" />
<path d="M2268 13670
L2898 13670
" />
<path d="M2898 13670
L2898 13985
" />
<path d="M2898 13985
L2268 13985
" />
<path d="M6906 18378
L6906 19489
" />
<path d="M6906 19489
L4953 19489
" />
<path d="M4953 19489
L4953 18008
" />
<path d="M4953 18008
L6536 18008
" />
<path d="M6536 18008
L6906 18378
" />
</g>
<g style="fill:#FFEF00; fill-opacity:0.0; 
stroke:#FFEF00; stroke-width:59.0551; stroke-opacity:1; 
stroke-linecap:round; stroke-linejoin:round;">
<path d="M4946 14221
L4946 15008
" />
<path d="M4946 15008
L3764 15008
" />
<path d="M3764 15008
L3764 13827
" />
<path d="M3764 13827
L4552 13827
" />
<path d="M4552 13827
L4946 14221
" />
<g >
</g>
<g >
</g>
<g >
</g>
<g >
</g>
<g >
</g>
<g >
</g>
<g >
</g>
<g >
</g>
<g >
</g>
<g >
</g>
<g >
</g>
<g >
</g>
<g >
</g>
<g >
</g>
<g >
</g>
<g >
</g>
<g >
</g>
<g >
</g>
<g >
</g>
<g >
</g>
<g >
</g>
<g >
</g>
<g >
</g>
<g >
</g>
<g >
</g>
<g >
</g>
<g >
</g>
<g >
</g>
<g >
</g>
<g >
</g>
<g >
</g>
<g >
</g>
<g >
</g>
<g >
</g>
</g>
<g style="fill:#FFEF00; fill-opacity:0.0; 
stroke:#FFEF00; stroke-width:59.0551; stroke-opacity:1; 
stroke-linecap:round; stroke-linejoin:round;">
<path d="M2612 11114
L2630 11132
L2612 11151
L2593 11132
L2612 11114
L2612 11151
" />
<path d="M3005 11151
L2780 11151
" />
<path d="M2893 11151
L2893 10757
L2855 10814
L2818 10851
L2780 10870
" />
<path d="M3343 10889
L3343 11151
" />
<path d="M3249 10739
L3155 11020
L3399 11020
" />
<path d="M3511 10757
L3755 10757
L3624 10907
L3680 10907
L3718 10926
L3736 10945
L3755 10982
L3755 11076
L3736 11114
L3718 11132
L3680 11151
L3568 11151
L3530 11132
L3511 11114
" />
</g>
<g style="fill:#FFEF00; fill-opacity:0.0; 
stroke:#FFEF00; stroke-width:31.4961; stroke-opacity:1; 
stroke-linecap:round; stroke-linejoin:round;">
<path d="M3141 10275
L3076 10181
" />
<path d="M3029 10275
L3029 10078
L3104 10078
L3122 10087
L3132 10097
L3141 10115
L3141 10143
L3132 10162
L3122 10172
L3104 10181
L3029 10181
" />
<path d="M3329 10275
L3216 10275
" />
<path d="M3272 10275
L3272 10078
L3254 10106
L3235 10125
L3216 10134
" />
</g>
<g style="fill:#FFEF00; fill-opacity:0.0; 
stroke:#FFEF00; stroke-width:59.0551; stroke-opacity:1; 
stroke-linecap:round; stroke-linejoin:round;">
<path d="M5213 9379
L4988 9379
" />
<path d="M5100 9379
L5100 8986
L5063 9042
L5025 9079
L4988 9098
" />
<path d="M5456 8986
L5494 8986
L5531 9004
L5550 9023
L5569 9061
L5588 9136
L5588 9229
L5569 9304
L5550 9342
L5531 9361
L5494 9379
L5456 9379
L5419 9361
L5400 9342
L5381 9304
L5363 9229
L5363 9136
L5381 9061
L5400 9023
L5419 9004
L5456 8986
" />
<path d="M5925 9117
L5925 9379
" />
<path d="M5756 9117
L5756 9323
L5775 9361
L5813 9379
L5869 9379
L5906 9361
L5925 9342
" />
<path d="M6244 9173
L6113 9173
" />
<path d="M6113 9379
L6113 8986
L6300 8986
" />
</g>
<g style="fill:#FFEF00; fill-opacity:0.0; 
stroke:#FFEF00; stroke-width:31.4961; stroke-opacity:1; 
stroke-linecap:round; stroke-linejoin:round;">
<path d="M4425 9136
L4435 9145
L4444 9173
L4444 9192
L4435 9220
L4416 9239
L4397 9248
L4360 9258
L4332 9258
L4294 9248
L4275 9239
L4257 9220
L4247 9192
L4247 9173
L4257 9145
L4266 9136
" />
<path d="M4444 8948
L4444 9061
" />
<path d="M4444 9004
L4247 9004
L4275 9023
L4294 9042
L4303 9061
" />
</g>
<g style="fill:#FFEF00; fill-opacity:0.0; 
stroke:#FFEF00; stroke-width:59.0551; stroke-opacity:1; 
stroke-linecap:round; stroke-linejoin:round;">
<path d="M9651 6806
L9839 6806
" />
<path d="M9614 6919
L9745 6525
L9876 6919
" />
<path d="M10195 6919
L10007 6919
L10007 6525
" />
<path d="M10382 6694
L10345 6675
L10326 6656
L10307 6619
L10307 6600
L10326 6563
L10345 6544
L10382 6525
L10457 6525
L10495 6544
L10514 6563
L10532 6600
L10532 6619
L10514 6656
L10495 6675
L10457 6694
L10382 6694
L10345 6713
L10326 6731
L10307 6769
L10307 6844
L10326 6881
L10345 6900
L10382 6919
L10457 6919
L10495 6900
L10514 6881
L10532 6844
L10532 6769
L10514 6731
L10495 6713
L10457 6694
" />
<path d="M10757 6694
L10720 6675
L10701 6656
L10682 6619
L10682 6600
L10701 6563
L10720 6544
L10757 6525
L10832 6525
L10870 6544
L10889 6563
L10907 6600
L10907 6619
L10889 6656
L10870 6675
L10832 6694
L10757 6694
L10720 6713
L10701 6731
L10682 6769
L10682 6844
L10701 6881
L10720 6900
L10757 6919
L10832 6919
L10870 6900
L10889 6881
L10907 6844
L10907 6769
L10889 6731
L10870 6713
L10832 6694
" />
<path d="M11245 6525
L11170 6525
L11132 6544
L11114 6563
L11076 6619
L11057 6694
L11057 6844
L11076 6881
L11095 6900
L11132 6919
L11207 6919
L11245 6900
L11264 6881
L11282 6844
L11282 6750
L11264 6713
L11245 6694
L11207 6675
L11132 6675
L11095 6694
L11076 6713
L11057 6750
" />
<path d="M11526 6525
L11564 6525
L11601 6544
L11620 6563
L11639 6600
L11657 6675
L11657 6769
L11639 6844
L11620 6881
L11601 6900
L11564 6919
L11526 6919
L11489 6900
L11470 6881
L11451 6844
L11432 6769
L11432 6675
L11451 6600
L11470 6563
L11489 6544
L11526 6525
" />
<path d="M4041 4444
L4229 4444
" />
<path d="M4004 4557
L4135 4163
L4266 4557
" />
<path d="M4585 4557
L4397 4557
L4397 4163
" />
<path d="M4772 4332
L4735 4313
L4716 4294
L4697 4257
L4697 4238
L4716 4200
L4735 4182
L4772 4163
L4847 4163
L4885 4182
L4903 4200
L4922 4238
L4922 4257
L4903 4294
L4885 4313
L4847 4332
L4772 4332
L4735 4350
L4716 4369
L4697 4407
L4697 4482
L4716 4519
L4735 4538
L4772 4557
L4847 4557
L4885 4538
L4903 4519
L4922 4482
L4922 4407
L4903 4369
L4885 4350
L4847 4332
" />
<path d="M5147 4332
L5110 4313
L5091 4294
L5072 4257
L5072 4238
L5091 4200
L5110 4182
L5147 4163
L5222 4163
L5260 4182
L5278 4200
L5297 4238
L5297 4257
L5278 4294
L5260 4313
L5222 4332
L5147 4332
L5110 4350
L5091 4369
L5072 4407
L5072 4482
L5091 4519
L5110 4538
L5147 4557
L5222 4557
L5260 4538
L5278 4519
L5297 4482
L5297 4407
L5278 4369
L5260 4350
L5222 4332
" />
<path d="M5635 4163
L5560 4163
L5522 4182
L5503 4200
L5466 4257
L5447 4332
L5447 4482
L5466 4519
L5485 4538
L5522 4557
L5597 4557
L5635 4538
L5653 4519
L5672 4482
L5672 4388
L5653 4350
L5635 4332
L5597 4313
L5522 4313
L5485 4332
L5466 4350
L5447 4388
" />
<path d="M5916 4163
L5953 4163
L5991 4182
L6010 4200
L6028 4238
L6047 4313
L6047 4407
L6028 4482
L6010 4519
L5991 4538
L5953 4557
L5916 4557
L5878 4538
L5860 4519
L5841 4482
L5822 4407
L5822 4313
L5841 4238
L5860 4200
L5878 4182
L5916 4163
" />
<path d="M104 9070
L291 9070
" />
<path d="M67 9183
L198 8789
L329 9183
" />
<path d="M648 9183
L460 9183
L460 8789
" />
<path d="M835 8958
L798 8939
L779 8920
L760 8883
L760 8864
L779 8826
L798 8808
L835 8789
L910 8789
L948 8808
L966 8826
L985 8864
L985 8883
L966 8920
L948 8939
L910 8958
L835 8958
L798 8976
L779 8995
L760 9033
L760 9108
L779 9145
L798 9164
L835 9183
L910 9183
L948 9164
L966 9145
L985 9108
L985 9033
L966 8995
L948 8976
L910 8958
" />
<path d="M1210 8958
L1173 8939
L1154 8920
L1135 8883
L1135 8864
L1154 8826
L1173 8808
L1210 8789
L1285 8789
L1323 8808
L1341 8826
L1360 8864
L1360 8883
L1341 8920
L1323 8939
L1285 8958
L1210 8958
L1173 8976
L1154 8995
L1135 9033
L1135 9108
L1154 9145
L1173 9164
L1210 9183
L1285 9183
L1323 9164
L1341 9145
L1360 9108
L1360 9033
L1341 8995
L1323 8976
L1285 8958
" />
<path d="M1698 8789
L1623 8789
L1585 8808
L1566 8826
L1529 8883
L1510 8958
L1510 9108
L1529 9145
L1548 9164
L1585 9183
L1660 9183
L1698 9164
L1716 9145
L1735 9108
L1735 9014
L1716 8976
L1698 8958
L1660 8939
L1585 8939
L1548 8958
L1529 8976
L1510 9014
" />
<path d="M1979 8789
L2016 8789
L2054 8808
L2073 8826
L2091 8864
L2110 8939
L2110 9033
L2091 9108
L2073 9145
L2054 9164
L2016 9183
L1979 9183
L1941 9164
L1923 9145
L1904 9108
L1885 9033
L1885 8939
L1904 8864
L1923 8826
L1941 8808
L1979 8789
" />
<path d="M10720 19199
L10720 19011
" />
<path d="M10832 19236
L10439 19105
L10832 18974
" />
<path d="M10832 18842
L10439 18842
L10439 18692
L10457 18655
L10476 18636
L10514 18617
L10570 18617
L10607 18636
L10626 18655
L10645 18692
L10645 18842
" />
<path d="M10439 18486
L10439 18224
L10832 18392
" />
<path d="M10439 18111
L10439 17867
L10589 17999
L10589 17942
L10607 17905
L10626 17886
L10664 17867
L10757 17867
L10795 17886
L10814 17905
L10832 17942
L10832 18055
L10814 18092
L10795 18111
" />
<path d="M10439 17736
L10439 17474
L10832 17642
" />
<path d="M10439 17249
L10439 17211
L10457 17174
L10476 17155
L10514 17136
L10589 17118
L10682 17118
L10757 17136
L10795 17155
L10814 17174
L10832 17211
L10832 17249
L10814 17286
L10795 17305
L10757 17324
L10682 17342
L10589 17342
L10514 17324
L10476 17305
L10457 17286
L10439 17249
" />
</g>
<g style="fill:#FFEF00; fill-opacity:0.0; 
stroke:#FFEF00; stroke-width:29.5276; stroke-opacity:1; 
stroke-linecap:round; stroke-linejoin:round;">
<path d="M9520 18050
L9520 18210
L9529 18228
L9539 18238
L9558 18247
L9595 18247
L9614 18238
L9623 18228
L9633 18210
L9633 18050
" />
<path d="M9829 18247
L9717 18247
" />
<path d="M9773 18247
L9773 18050
L9754 18078
L9736 18097
L9717 18106
" />
</g>
<g style="fill:#FFEF00; fill-opacity:0.0; 
stroke:#FFEF00; stroke-width:59.0551; stroke-opacity:1; 
stroke-linecap:round; stroke-linejoin:round;">
<path d="M10190 7570
L10209 7589
L10190 7608
L10172 7589
L10190 7570
L10190 7608
" />
<path d="M10584 7608
L10359 7608
" />
<path d="M10471 7608
L10471 7214
L10434 7270
L10396 7308
L10359 7327
" />
<path d="M10921 7345
L10921 7608
" />
<path d="M10828 7195
L10734 7477
L10978 7477
" />
<path d="M11090 7214
L11334 7214
L11203 7364
L11259 7364
L11296 7383
L11315 7402
L11334 7439
L11334 7533
L11315 7570
L11296 7589
L11259 7608
L11146 7608
L11109 7589
L11090 7570
" />
</g>
<g style="fill:#FFEF00; fill-opacity:0.0; 
stroke:#FFEF00; stroke-width:31.4961; stroke-opacity:1; 
stroke-linecap:round; stroke-linejoin:round;">
<path d="M12098 7420
L12032 7327
" />
<path d="M11985 7420
L11985 7223
L12060 7223
L12079 7233
L12088 7242
L12098 7261
L12098 7289
L12088 7308
L12079 7317
L12060 7327
L11985 7327
" />
<path d="M12163 7223
L12285 7223
L12220 7298
L12248 7298
L12267 7308
L12276 7317
L12285 7336
L12285 7383
L12276 7402
L12267 7411
L12248 7420
L12192 7420
L12173 7411
L12163 7402
" />
</g>
<g style="fill:#FFEF00; fill-opacity:0.0; 
stroke:#FFEF00; stroke-width:59.0551; stroke-opacity:1; 
stroke-linecap:round; stroke-linejoin:round;">
<path d="M6056 7275
L6075 7294
L6056 7312
L6038 7294
L6056 7275
L6056 7312
" />
<path d="M6450 7312
L6225 7312
" />
<path d="M6338 7312
L6338 6919
L6300 6975
L6263 7013
L6225 7031
" />
<path d="M6788 7050
L6788 7312
" />
<path d="M6694 6900
L6600 7181
L6844 7181
" />
<path d="M6956 6919
L7200 6919
L7069 7069
L7125 7069
L7163 7088
L7181 7106
L7200 7144
L7200 7238
L7181 7275
L7163 7294
L7125 7312
L7013 7312
L6975 7294
L6956 7275
" />
</g>
<g style="fill:#FFEF00; fill-opacity:0.0; 
stroke:#FFEF00; stroke-width:31.4961; stroke-opacity:1; 
stroke-linecap:round; stroke-linejoin:round;">
<path d="M6684 6436
L6619 6342
" />
<path d="M6572 6436
L6572 6239
L6647 6239
L6666 6249
L6675 6258
L6684 6277
L6684 6305
L6675 6324
L6666 6333
L6647 6342
L6572 6342
" />
<path d="M6759 6258
L6769 6249
L6788 6239
L6834 6239
L6853 6249
L6863 6258
L6872 6277
L6872 6295
L6863 6324
L6750 6436
L6872 6436
" />
</g>
<g style="fill:#FFEF00; fill-opacity:0.0; 
stroke:#FFEF00; stroke-width:59.0551; stroke-opacity:1; 
stroke-linecap:round; stroke-linejoin:round;">
<path d="M14094 3211
L14094 3474
" />
<path d="M14001 3061
L13907 3343
L14151 3343
" />
<path d="M14263 3080
L14526 3080
L14357 3474
" />
<path d="M14844 3211
L14844 3474
" />
<path d="M14676 3211
L14676 3418
L14694 3455
L14732 3474
L14788 3474
L14826 3455
L14844 3436
" />
<path d="M15032 3474
L15032 3080
" />
<path d="M15032 3268
L15257 3268
" />
<path d="M15257 3474
L15257 3080
" />
<path d="M4646 2719
L4646 2982
" />
<path d="M4552 2569
L4458 2851
L4702 2851
" />
<path d="M4814 2588
L5077 2588
L4908 2982
" />
<path d="M5396 2719
L5396 2982
" />
<path d="M5227 2719
L5227 2926
L5246 2963
L5283 2982
L5339 2982
L5377 2963
L5396 2944
" />
<path d="M5583 2982
L5583 2588
" />
<path d="M5583 2776
L5808 2776
" />
<path d="M5808 2982
L5808 2588
" />
<path d="M2480 5082
L2480 5344
" />
<path d="M2387 4932
L2293 5213
L2537 5213
" />
<path d="M2649 4950
L2911 4950
L2743 5344
" />
<path d="M3230 5082
L3230 5344
" />
<path d="M3061 5082
L3061 5288
L3080 5325
L3118 5344
L3174 5344
L3211 5325
L3230 5306
" />
<path d="M3418 5344
L3418 4950
" />
<path d="M3418 5138
L3643 5138
" />
<path d="M3643 5344
L3643 4950
" />
<path d="M14962 6328
L14962 5935
L15055 5935
L15112 5953
L15149 5991
L15168 6028
L15187 6103
L15187 6160
L15168 6235
L15149 6272
L15112 6309
L15055 6328
L14962 6328
" />
<path d="M15261 6366
L15561 6366
" />
<path d="M15636 6309
L15693 6328
L15786 6328
L15824 6309
L15843 6291
L15861 6253
L15861 6216
L15843 6178
L15824 6160
L15786 6141
L15711 6122
L15674 6103
L15655 6085
L15636 6047
L15636 6010
L15655 5972
L15674 5953
L15711 5935
L15805 5935
L15861 5953
" />
<path d="M16199 6309
L16161 6328
L16086 6328
L16049 6309
L16030 6291
L16011 6253
L16011 6141
L16030 6103
L16049 6085
L16086 6066
L16161 6066
L16199 6085
" />
<path d="M16368 6328
L16368 5935
" />
<path d="M16536 6328
L16536 6122
L16518 6085
L16480 6066
L16424 6066
L16386 6085
L16368 6103
" />
<path d="M16780 6328
L16743 6309
L16724 6291
L16705 6253
L16705 6141
L16724 6103
L16743 6085
L16780 6066
L16836 6066
L16874 6085
L16893 6103
L16911 6141
L16911 6253
L16893 6291
L16874 6309
L16836 6328
L16780 6328
" />
<path d="M17024 6066
L17174 6066
" />
<path d="M17080 5935
L17080 6272
L17099 6309
L17136 6328
L17174 6328
" />
<path d="M17249 6066
L17399 6066
" />
<path d="M17305 5935
L17305 6272
L17324 6309
L17361 6328
L17399 6328
" />
<path d="M17530 6328
L17530 5935
" />
<path d="M17567 6178
L17680 6328
" />
<path d="M17680 6066
L17530 6216
" />
<path d="M17811 6066
L17905 6328
" />
<path d="M17999 6066
L17905 6328
L17867 6422
L17849 6441
L17811 6459
" />
<path d="M13724 6392
L13330 6392
L13330 6299
L13349 6242
L13387 6205
L13424 6186
L13499 6167
L13555 6167
L13630 6186
L13668 6205
L13705 6242
L13724 6299
L13724 6392
" />
<path d="M13462 5830
L13724 5830
" />
<path d="M13312 5924
L13593 6017
L13593 5774
" />
<path d="M9100 8339
L8706 8339
L8706 8245
L8725 8189
L8763 8151
L8800 8133
L8875 8114
L8931 8114
L9006 8133
L9044 8151
L9081 8189
L9100 8245
L9100 8339
" />
<path d="M9138 8039
L9138 7739
" />
<path d="M9081 7664
L9100 7608
L9100 7514
L9081 7477
L9063 7458
L9025 7439
L8988 7439
L8950 7458
L8931 7477
L8913 7514
L8894 7589
L8875 7627
L8856 7645
L8819 7664
L8781 7664
L8744 7645
L8725 7627
L8706 7589
L8706 7495
L8725 7439
" />
<path d="M9081 7102
L9100 7139
L9100 7214
L9081 7252
L9063 7270
L9025 7289
L8913 7289
L8875 7270
L8856 7252
L8838 7214
L8838 7139
L8856 7102
" />
<path d="M9100 6933
L8706 6933
" />
<path d="M9100 6764
L8894 6764
L8856 6783
L8838 6820
L8838 6877
L8856 6914
L8875 6933
" />
<path d="M9100 6520
L9081 6558
L9063 6577
L9025 6595
L8913 6595
L8875 6577
L8856 6558
L8838 6520
L8838 6464
L8856 6427
L8875 6408
L8913 6389
L9025 6389
L9063 6408
L9081 6427
L9100 6464
L9100 6520
" />
<path d="M8838 6277
L8838 6127
" />
<path d="M8706 6220
L9044 6220
L9081 6202
L9100 6164
L9100 6127
" />
<path d="M8838 6052
L8838 5902
" />
<path d="M8706 5995
L9044 5995
L9081 5977
L9100 5939
L9100 5902
" />
<path d="M9100 5770
L8706 5770
" />
<path d="M8950 5733
L9100 5621
" />
<path d="M8838 5621
L8988 5770
" />
<path d="M8838 5489
L9100 5396
" />
<path d="M8838 5302
L9100 5396
L9194 5433
L9213 5452
L9231 5489
" />
<path d="M7523 7278
L7130 7278
L7130 7184
L7148 7128
L7186 7091
L7223 7072
L7298 7053
L7355 7053
L7430 7072
L7467 7091
L7505 7128
L7523 7184
L7523 7278
" />
<path d="M7130 6922
L7130 6678
L7280 6809
L7280 6753
L7298 6716
L7317 6697
L7355 6678
L7448 6678
L7486 6697
L7505 6716
L7523 6753
L7523 6866
L7505 6903
L7486 6922
" />
<path d="M2265 12234
L2265 11840
L2358 11840
L2415 11859
L2452 11896
L2471 11934
L2490 12009
L2490 12065
L2471 12140
L2452 12178
L2415 12215
L2358 12234
L2265 12234
" />
<path d="M2565 12271
L2865 12271
" />
<path d="M2940 12215
L2996 12234
L3090 12234
L3127 12215
L3146 12196
L3165 12159
L3165 12121
L3146 12084
L3127 12065
L3090 12046
L3015 12028
L2977 12009
L2958 11990
L2940 11953
L2940 11915
L2958 11878
L2977 11859
L3015 11840
L3108 11840
L3165 11859
" />
<path d="M3502 12215
L3465 12234
L3390 12234
L3352 12215
L3333 12196
L3315 12159
L3315 12046
L3333 12009
L3352 11990
L3390 11971
L3465 11971
L3502 11990
" />
<path d="M3671 12234
L3671 11840
" />
<path d="M3839 12234
L3839 12028
L3821 11990
L3783 11971
L3727 11971
L3690 11990
L3671 12009
" />
<path d="M4083 12234
L4046 12215
L4027 12196
L4008 12159
L4008 12046
L4027 12009
L4046 11990
L4083 11971
L4139 11971
L4177 11990
L4196 12009
L4214 12046
L4214 12159
L4196 12196
L4177 12215
L4139 12234
L4083 12234
" />
<path d="M4327 11971
L4477 11971
" />
<path d="M4383 11840
L4383 12178
L4402 12215
L4439 12234
L4477 12234
" />
<path d="M4552 11971
L4702 11971
" />
<path d="M4608 11840
L4608 12178
L4627 12215
L4664 12234
L4702 12234
" />
<path d="M4833 12234
L4833 11840
" />
<path d="M4871 12084
L4983 12234
" />
<path d="M4983 11971
L4833 12121
" />
<path d="M5114 11971
L5208 12234
" />
<path d="M5302 11971
L5208 12234
L5171 12327
L5152 12346
L5114 12365
" />
<path d="M13490 8147
L13490 8372
" />
<path d="M13490 8259
L13096 8259
L13152 8297
L13190 8334
L13209 8372
" />
<path d="M13096 7903
L13096 7866
L13115 7828
L13134 7809
L13171 7791
L13246 7772
L13340 7772
L13415 7791
L13452 7809
L13471 7828
L13490 7866
L13490 7903
L13471 7941
L13452 7959
L13415 7978
L13340 7997
L13246 7997
L13171 7978
L13134 7959
L13115 7941
L13096 7903
" />
<path d="M13227 7434
L13490 7434
" />
<path d="M13227 7603
L13434 7603
L13471 7584
L13490 7547
L13490 7491
L13471 7453
L13452 7434
" />
<path d="M13284 7116
L13284 7247
" />
<path d="M13490 7247
L13096 7247
L13096 7059
" />
</g>
<g style="fill:#FFEF00; fill-opacity:0.0; 
stroke:#FFEF00; stroke-width:31.4961; stroke-opacity:1; 
stroke-linecap:round; stroke-linejoin:round;">
<path d="M13284 6281
L13293 6291
L13302 6319
L13302 6338
L13293 6366
L13274 6384
L13255 6394
L13218 6403
L13190 6403
L13152 6394
L13134 6384
L13115 6366
L13106 6338
L13106 6319
L13115 6291
L13124 6281
" />
<path d="M13106 6216
L13106 6085
L13302 6169
" />
</g>
<g style="fill:#FFEF00; fill-opacity:0.0; 
stroke:#FFEF00; stroke-width:59.0551; stroke-opacity:1; 
stroke-linecap:round; stroke-linejoin:round;">
<path d="M9248 16269
L9023 16269
" />
<path d="M9136 16269
L9136 15875
L9098 15932
L9061 15969
L9023 15988
" />
<path d="M9492 15875
L9529 15875
L9567 15894
L9586 15913
L9604 15950
L9623 16025
L9623 16119
L9604 16194
L9586 16232
L9567 16250
L9529 16269
L9492 16269
L9454 16250
L9436 16232
L9417 16194
L9398 16119
L9398 16025
L9417 15950
L9436 15913
L9454 15894
L9492 15875
" />
<path d="M9961 16007
L9961 16269
" />
<path d="M9792 16007
L9792 16213
L9811 16250
L9848 16269
L9904 16269
L9942 16250
L9961 16232
" />
<path d="M10279 16063
L10148 16063
" />
<path d="M10148 16269
L10148 15875
L10336 15875
" />
</g>
<g style="fill:#FFEF00; fill-opacity:0.0; 
stroke:#FFEF00; stroke-width:31.4961; stroke-opacity:1; 
stroke-linecap:round; stroke-linejoin:round;">
<path d="M9637 16850
L9628 16860
L9600 16869
L9581 16869
L9553 16860
L9534 16841
L9525 16822
L9515 16785
L9515 16757
L9525 16719
L9534 16700
L9553 16682
L9581 16672
L9600 16672
L9628 16682
L9637 16691
" />
<path d="M9806 16672
L9768 16672
L9750 16682
L9740 16691
L9722 16719
L9712 16757
L9712 16832
L9722 16850
L9731 16860
L9750 16869
L9787 16869
L9806 16860
L9815 16850
L9825 16832
L9825 16785
L9815 16766
L9806 16757
L9787 16747
L9750 16747
L9731 16757
L9722 16766
L9712 16785
" />
</g>
<g style="fill:#FFEF00; fill-opacity:0.0; 
stroke:#FFEF00; stroke-width:59.0551; stroke-opacity:1; 
stroke-linecap:round; stroke-linejoin:round;">
<path d="M8756 5049
L8531 5049
" />
<path d="M8644 5049
L8644 4655
L8606 4711
L8569 4749
L8531 4767
" />
<path d="M9000 4655
L9037 4655
L9075 4674
L9094 4693
L9112 4730
L9131 4805
L9131 4899
L9112 4974
L9094 5011
L9075 5030
L9037 5049
L9000 5049
L8962 5030
L8944 5011
L8925 4974
L8906 4899
L8906 4805
L8925 4730
L8944 4693
L8962 4674
L9000 4655
" />
<path d="M9468 4786
L9468 5049
" />
<path d="M9300 4786
L9300 4992
L9318 5030
L9356 5049
L9412 5049
L9450 5030
L9468 5011
" />
<path d="M9787 4842
L9656 4842
" />
<path d="M9656 5049
L9656 4655
L9843 4655
" />
</g>
<g style="fill:#FFEF00; fill-opacity:0.0; 
stroke:#FFEF00; stroke-width:31.4961; stroke-opacity:1; 
stroke-linecap:round; stroke-linejoin:round;">
<path d="M7969 5199
L7978 5208
L7987 5236
L7987 5255
L7978 5283
L7959 5302
L7941 5311
L7903 5321
L7875 5321
L7837 5311
L7819 5302
L7800 5283
L7791 5255
L7791 5236
L7800 5208
L7809 5199
" />
<path d="M7791 5021
L7791 5114
L7884 5124
L7875 5114
L7866 5096
L7866 5049
L7875 5030
L7884 5021
L7903 5011
L7950 5011
L7969 5021
L7978 5030
L7987 5049
L7987 5096
L7978 5114
L7969 5124
" />
</g>
<g style="fill:#FFEF00; fill-opacity:0.0; 
stroke:#FFEF00; stroke-width:59.0551; stroke-opacity:1; 
stroke-linecap:round; stroke-linejoin:round;">
<path d="M10645 13198
L10457 13198
L10457 12805
" />
<path d="M10776 12992
L10907 12992
" />
<path d="M10964 13198
L10776 13198
L10776 12805
L10964 12805
" />
<path d="M11132 13198
L11132 12805
L11226 12805
L11282 12823
L11320 12861
L11339 12898
L11357 12973
L11357 13030
L11339 13105
L11320 13142
L11282 13180
L11226 13198
L11132 13198
" />
<path d="M11432 13236
L11732 13236
" />
<path d="M12051 13198
L11920 13011
" />
<path d="M11826 13198
L11826 12805
L11976 12805
L12013 12823
L12032 12842
L12051 12880
L12051 12936
L12032 12973
L12013 12992
L11976 13011
L11826 13011
" />
<path d="M12426 12823
L12388 12805
L12332 12805
L12276 12823
L12238 12861
L12220 12898
L12201 12973
L12201 13030
L12220 13105
L12238 13142
L12276 13180
L12332 13198
L12370 13198
L12426 13180
L12445 13161
L12445 13030
L12370 13030
" />
<path d="M12745 12992
L12801 13011
L12820 13030
L12838 13067
L12838 13123
L12820 13161
L12801 13180
L12763 13198
L12613 13198
L12613 12805
L12745 12805
L12782 12823
L12801 12842
L12820 12880
L12820 12917
L12801 12955
L12782 12973
L12745 12992
L12613 12992
" />
<path d="M8348 20070
L8367 20089
L8348 20108
L8330 20089
L8348 20070
L8348 20108
" />
<path d="M8742 20108
L8517 20108
" />
<path d="M8630 20108
L8630 19714
L8592 19770
L8555 19808
L8517 19827
" />
<path d="M9079 19845
L9079 20108
" />
<path d="M8911 19845
L8911 20052
L8929 20089
L8967 20108
L9023 20108
L9061 20089
L9079 20070
" />
<path d="M9398 19902
L9267 19902
" />
<path d="M9267 20108
L9267 19714
L9454 19714
" />
</g>
<g style="fill:#FFEF00; fill-opacity:0.0; 
stroke:#FFEF00; stroke-width:23.622; stroke-opacity:1; 
stroke-linecap:round; stroke-linejoin:round;">
<path d="M7675 19986
L7668 19993
L7645 20001
L7630 20001
L7608 19993
L7593 19978
L7585 19963
L7578 19933
L7578 19911
L7585 19881
L7593 19866
L7608 19851
L7630 19843
L7645 19843
L7668 19851
L7675 19858
" />
<path d="M7735 19858
L7743 19851
L7758 19843
L7795 19843
L7810 19851
L7818 19858
L7825 19873
L7825 19888
L7818 19911
L7728 20001
L7825 20001
" />
</g>
<g style="fill:#FFEF00; fill-opacity:0.0; 
stroke:#FFEF00; stroke-width:59.0551; stroke-opacity:1; 
stroke-linecap:round; stroke-linejoin:round;">
<path d="M6970 15346
L6989 15365
L6970 15383
L6952 15365
L6970 15346
L6970 15383
" />
<path d="M7364 15383
L7139 15383
" />
<path d="M7252 15383
L7252 14990
L7214 15046
L7177 15083
L7139 15102
" />
<path d="M7702 15121
L7702 15383
" />
<path d="M7533 15121
L7533 15327
L7552 15365
L7589 15383
L7645 15383
L7683 15365
L7702 15346
" />
<path d="M8020 15177
L7889 15177
" />
<path d="M7889 15383
L7889 14990
L8076 14990
" />
</g>
<g style="fill:#FFEF00; fill-opacity:0.0; 
stroke:#FFEF00; stroke-width:23.622; stroke-opacity:1; 
stroke-linecap:round; stroke-linejoin:round;">
<path d="M6577 15232
L6584 15239
L6592 15261
L6592 15276
L6584 15299
L6569 15314
L6554 15321
L6524 15329
L6502 15329
L6472 15321
L6457 15314
L6442 15299
L6434 15276
L6434 15261
L6442 15239
L6449 15232
" />
<path d="M6434 15179
L6434 15082
L6494 15134
L6494 15112
L6502 15097
L6509 15089
L6524 15082
L6562 15082
L6577 15089
L6584 15097
L6592 15112
L6592 15157
L6584 15172
L6577 15179
" />
</g>
<g style="fill:#FFEF00; fill-opacity:0.0; 
stroke:#FFEF00; stroke-width:59.0551; stroke-opacity:1; 
stroke-linecap:round; stroke-linejoin:round;">
<path d="M11807 18277
L11582 18277
" />
<path d="M11695 18277
L11695 17883
L11657 17940
L11620 17977
L11582 17996
" />
<path d="M12051 17883
L12088 17883
L12126 17902
L12145 17921
L12163 17958
L12182 18033
L12182 18127
L12163 18202
L12145 18240
L12126 18258
L12088 18277
L12051 18277
L12013 18258
L11995 18240
L11976 18202
L11957 18127
L11957 18033
L11976 17958
L11995 17921
L12013 17902
L12051 17883
" />
<path d="M12520 18015
L12520 18277
" />
<path d="M12351 18015
L12351 18221
L12370 18258
L12407 18277
L12463 18277
L12501 18258
L12520 18240
" />
<path d="M12838 18071
L12707 18071
" />
<path d="M12707 18277
L12707 17883
L12895 17883
" />
</g>
<g style="fill:#FFEF00; fill-opacity:0.0; 
stroke:#FFEF00; stroke-width:31.4961; stroke-opacity:1; 
stroke-linecap:round; stroke-linejoin:round;">
<path d="M12196 18819
L12187 18828
L12159 18838
L12140 18838
L12112 18828
L12093 18809
L12084 18791
L12074 18753
L12074 18725
L12084 18688
L12093 18669
L12112 18650
L12140 18641
L12159 18641
L12187 18650
L12196 18660
" />
<path d="M12365 18706
L12365 18838
" />
<path d="M12318 18631
L12271 18772
L12393 18772
" />
</g>
<g style="fill:#FFEF00; fill-opacity:0.0; 
stroke:#FFEF00; stroke-width:59.0551; stroke-opacity:1; 
stroke-linecap:round; stroke-linejoin:round;">
<path d="M11523 19714
L11523 19995
L11504 20052
L11467 20089
L11411 20108
L11373 20108
" />
<path d="M11917 20108
L11692 20108
" />
<path d="M11804 20108
L11804 19714
L11767 19770
L11729 19808
L11692 19827
" />
<path d="M11492 1604
L11492 1885
L11473 1941
L11435 1979
L11379 1998
L11342 1998
" />
<path d="M11660 1641
L11679 1623
L11717 1604
L11810 1604
L11848 1623
L11866 1641
L11885 1679
L11885 1716
L11866 1773
L11642 1998
L11885 1998
" />
<path d="M8367 18139
L8611 18139
L8480 18289
L8536 18289
L8573 18308
L8592 18327
L8611 18364
L8611 18458
L8592 18495
L8573 18514
L8536 18533
L8423 18533
L8386 18514
L8367 18495
" />
<path d="M8742 18139
L8986 18139
L8854 18289
L8911 18289
L8948 18308
L8967 18327
L8986 18364
L8986 18458
L8967 18495
L8948 18514
L8911 18533
L8798 18533
L8761 18514
L8742 18495
" />
</g>
<g style="fill:#FFEF00; fill-opacity:0.0; 
stroke:#FFEF00; stroke-width:23.622; stroke-opacity:1; 
stroke-linecap:round; stroke-linejoin:round;">
<path d="M7675 18426
L7623 18351
" />
<path d="M7585 18426
L7585 18269
L7645 18269
L7660 18276
L7668 18284
L7675 18299
L7675 18321
L7668 18336
L7660 18344
L7645 18351
L7585 18351
" />
<path d="M7810 18321
L7810 18426
" />
<path d="M7773 18261
L7735 18374
L7833 18374
" />
</g>
<g style="fill:#FFEF00; fill-opacity:0.0; 
stroke:#FFEF00; stroke-width:59.0551; stroke-opacity:1; 
stroke-linecap:round; stroke-linejoin:round;">
<path d="M8367 18927
L8611 18927
L8480 19077
L8536 19077
L8573 19095
L8592 19114
L8611 19152
L8611 19245
L8592 19283
L8573 19302
L8536 19320
L8423 19320
L8386 19302
L8367 19283
" />
<path d="M8742 18927
L8986 18927
L8854 19077
L8911 19077
L8948 19095
L8967 19114
L8986 19152
L8986 19245
L8967 19283
L8948 19302
L8911 19320
L8798 19320
L8761 19302
L8742 19283
" />
</g>
<g style="fill:#FFEF00; fill-opacity:0.0; 
stroke:#FFEF00; stroke-width:23.622; stroke-opacity:1; 
stroke-linecap:round; stroke-linejoin:round;">
<path d="M7675 19214
L7623 19139
" />
<path d="M7585 19214
L7585 19056
L7645 19056
L7660 19064
L7668 19071
L7675 19086
L7675 19109
L7668 19124
L7660 19131
L7645 19139
L7585 19139
" />
<path d="M7818 19056
L7743 19056
L7735 19131
L7743 19124
L7758 19116
L7795 19116
L7810 19124
L7818 19131
L7825 19146
L7825 19184
L7818 19199
L7810 19206
L7795 19214
L7758 19214
L7743 19206
L7735 19199
" />
</g>
<g style="fill:#FFEF00; fill-opacity:0.0; 
stroke:#FFEF00; stroke-width:59.0551; stroke-opacity:1; 
stroke-linecap:round; stroke-linejoin:round;">
<path d="M2537 16171
L2312 16171
" />
<path d="M2424 16171
L2424 15777
L2387 15833
L2349 15871
L2312 15890
" />
<path d="M2705 16171
L2705 15777
" />
<path d="M2743 16021
L2855 16171
" />
<path d="M2855 15908
L2705 16058
" />
</g>
<g style="fill:#FFEF00; fill-opacity:0.0; 
stroke:#FFEF00; stroke-width:23.622; stroke-opacity:1; 
stroke-linecap:round; stroke-linejoin:round;">
<path d="M2557 15473
L2505 15398
" />
<path d="M2467 15473
L2467 15316
L2527 15316
L2542 15323
L2550 15331
L2557 15346
L2557 15368
L2550 15383
L2542 15391
L2527 15398
L2467 15398
" />
<path d="M2632 15473
L2662 15473
L2677 15466
L2685 15458
L2700 15436
L2707 15406
L2707 15346
L2700 15331
L2692 15323
L2677 15316
L2647 15316
L2632 15323
L2625 15331
L2617 15346
L2617 15383
L2625 15398
L2632 15406
L2647 15413
L2677 15413
L2692 15406
L2700 15398
L2707 15383
" />
</g>
<g style="fill:#FFEF00; fill-opacity:0.0; 
stroke:#FFEF00; stroke-width:59.0551; stroke-opacity:1; 
stroke-linecap:round; stroke-linejoin:round;">
<path d="M1552 14793
L1327 14793
" />
<path d="M1440 14793
L1440 14399
L1402 14455
L1365 14493
L1327 14512
" />
<path d="M1721 14793
L1721 14399
" />
<path d="M1758 14643
L1871 14793
" />
<path d="M1871 14530
L1721 14680
" />
</g>
<g style="fill:#FFEF00; fill-opacity:0.0; 
stroke:#FFEF00; stroke-width:23.622; stroke-opacity:1; 
stroke-linecap:round; stroke-linejoin:round;">
<path d="M2482 14686
L2430 14611
" />
<path d="M2392 14686
L2392 14528
L2452 14528
L2467 14536
L2475 14543
L2482 14558
L2482 14581
L2475 14596
L2467 14603
L2452 14611
L2392 14611
" />
<path d="M2632 14686
L2542 14686
" />
<path d="M2587 14686
L2587 14528
L2572 14551
L2557 14566
L2542 14573
" />
<path d="M2730 14528
L2745 14528
L2760 14536
L2767 14543
L2775 14558
L2782 14588
L2782 14626
L2775 14656
L2767 14671
L2760 14678
L2745 14686
L2730 14686
L2715 14678
L2707 14671
L2700 14656
L2692 14626
L2692 14588
L2700 14558
L2707 14543
L2715 14536
L2730 14528
" />
</g>
<g style="fill:#FFEF00; fill-opacity:0.0; 
stroke:#FFEF00; stroke-width:59.0551; stroke-opacity:1; 
stroke-linecap:round; stroke-linejoin:round;">
<path d="M2537 13415
L2312 13415
" />
<path d="M2424 13415
L2424 13021
L2387 13077
L2349 13115
L2312 13134
" />
<path d="M2705 13415
L2705 13021
" />
<path d="M2743 13265
L2855 13415
" />
<path d="M2855 13152
L2705 13302
" />
</g>
<g style="fill:#FFEF00; fill-opacity:0.0; 
stroke:#FFEF00; stroke-width:23.622; stroke-opacity:1; 
stroke-linecap:round; stroke-linejoin:round;">
<path d="M2482 13899
L2430 13824
" />
<path d="M2392 13899
L2392 13741
L2452 13741
L2467 13749
L2475 13756
L2482 13771
L2482 13794
L2475 13809
L2467 13816
L2452 13824
L2392 13824
" />
<path d="M2632 13899
L2542 13899
" />
<path d="M2587 13899
L2587 13741
L2572 13764
L2557 13779
L2542 13786
" />
<path d="M2782 13899
L2692 13899
" />
<path d="M2737 13899
L2737 13741
L2722 13764
L2707 13779
L2692 13786
" />
</g>
<g style="fill:#FFEF00; fill-opacity:0.0; 
stroke:#FFEF00; stroke-width:59.0551; stroke-opacity:1; 
stroke-linecap:round; stroke-linejoin:round;">
<path d="M4364 19855
L4758 19761
L4476 19686
L4758 19611
L4364 19517
" />
<path d="M4739 19386
L4758 19330
L4758 19236
L4739 19199
L4720 19180
L4683 19161
L4645 19161
L4608 19180
L4589 19199
L4570 19236
L4551 19311
L4533 19348
L4514 19367
L4476 19386
L4439 19386
L4401 19367
L4383 19348
L4364 19311
L4364 19217
L4383 19161
" />
<path d="M4401 19011
L4383 18992
L4364 18955
L4364 18861
L4383 18824
L4401 18805
L4439 18786
L4476 18786
L4533 18805
L4758 19030
L4758 18786
" />
<path d="M4533 18561
L4514 18599
L4495 18617
L4458 18636
L4439 18636
L4401 18617
L4383 18599
L4364 18561
L4364 18486
L4383 18449
L4401 18430
L4439 18411
L4458 18411
L4495 18430
L4514 18449
L4533 18486
L4533 18561
L4551 18599
L4570 18617
L4608 18636
L4683 18636
L4720 18617
L4739 18599
L4758 18561
L4758 18486
L4739 18449
L4720 18430
L4683 18411
L4608 18411
L4570 18430
L4551 18449
L4533 18486
" />
<path d="M4758 18036
L4758 18261
" />
<path d="M4758 18149
L4364 18149
L4420 18186
L4458 18224
L4476 18261
" />
<path d="M4758 17661
L4758 17886
" />
<path d="M4758 17774
L4364 17774
L4420 17811
L4458 17849
L4476 17886
" />
</g>
<g style="fill:#FFEF00; fill-opacity:0.0; 
stroke:#FFEF00; stroke-width:55.1181; stroke-opacity:1; 
stroke-linecap:round; stroke-linejoin:round;">
<path d="M5727 19031
L6027 19031
L6062 19013
L6080 18995
L6097 18960
L6097 18890
L6080 18854
L6062 18837
L6027 18819
L5727 18819
" />
<path d="M5762 18660
L5745 18643
L5727 18608
L5727 18519
L5745 18484
L5762 18467
L5798 18449
L5833 18449
L5886 18467
L6097 18678
L6097 18449
" />
</g>
<g style="fill:#FFEF00; fill-opacity:0.0; 
stroke:#FFEF00; stroke-width:59.0551; stroke-opacity:1; 
stroke-linecap:round; stroke-linejoin:round;">
<path d="M5517 15693
L5124 15693
" />
<path d="M5517 15505
L5124 15505
L5517 15280
L5124 15280
" />
<path d="M5124 15149
L5517 15018
L5124 14887
" />
<path d="M5311 14755
L5311 14624
" />
<path d="M5517 14568
L5517 14755
L5124 14755
L5124 14568
" />
<path d="M5517 14174
L5330 14305
" />
<path d="M5517 14399
L5124 14399
L5124 14249
L5142 14212
L5161 14193
L5199 14174
L5255 14174
L5292 14193
L5311 14212
L5330 14249
L5330 14399
" />
<path d="M5124 14062
L5124 13837
" />
<path d="M5517 13949
L5124 13949
" />
<path d="M5311 13705
L5311 13574
" />
<path d="M5517 13518
L5517 13705
L5124 13705
L5124 13518
" />
<path d="M5517 13124
L5330 13255
" />
<path d="M5517 13349
L5124 13349
L5124 13199
L5142 13162
L5161 13143
L5199 13124
L5255 13124
L5292 13143
L5311 13162
L5330 13199
L5330 13349
" />
<path d="M4226 14598
L4417 14598
L4439 14587
L4451 14575
L4462 14553
L4462 14508
L4451 14485
L4439 14474
L4417 14463
L4226 14463
" />
<path d="M4226 14373
L4226 14227
L4316 14305
L4316 14272
L4327 14249
L4338 14238
L4361 14227
L4417 14227
L4439 14238
L4451 14249
L4462 14272
L4462 14339
L4451 14362
L4439 14373
" />
<g >
</g>
</g>
<g style="fill:#000000; fill-opacity:0.0; 
stroke:#000000; stroke-width:59.0551; stroke-opacity:1; 
stroke-linecap:round; stroke-linejoin:round;">
</g>
<g style="fill:#C2C200; fill-opacity:0.0; 
stroke:#C2C200; stroke-width:59.0551; stroke-opacity:1; 
stroke-linecap:round; stroke-linejoin:round;">
</g>
<g style="fill:#C2C200; fill-opacity:0.0; 
stroke:#C2C200; stroke-width:19.685; stroke-opacity:1; 
stroke-linecap:round; stroke-linejoin:round;">
<path d="M21481 1032
L1796 1032
" />
<path d="M21481 20717
L21481 1032
" />
<path d="M1796 20717
L21481 20717
" />
<path d="M1796 1032
L1796 20717
" />
<g >
</g>
<g >
</g>
<g >
</g>
<g >
</g>
<g >
</g>
<g >
</g>
<g >
</g>
<g >
</g>
<g >
</g>
<g >
</g>
<g >
</g>
<g >
</g>
<g >
</g>
<g >
</g>
<g >
</g>
<g >
</g>
<g >
</g>
<g >
</g>
<g >
</g>
<g >
</g>
<g >
</g>
<g >
</g>
<g >
</g>
<g >
</g>
<g >
</g>
<g >
</g>
<g >
</g>
<g >
</g>
<g >
</g>
<g >
</g>
<g >
</g>
<g >
</g>
<g >
</g>
<g >
</g>
<g >
</g>
</g> 
</svg>
